<svg xmlns="http://www.w3.org/2000/svg" xmlns:xlink="http://www.w3.org/1999/xlink" width="233.981" height="174.622" viewBox="0 0 233.981 174.622">
  <defs>
    <linearGradient id="linear-gradient" x1="0.5" x2="0.5" y2="1" gradientUnits="objectBoundingBox">
      <stop offset="0" stop-color="#e7eef3"/>
      <stop offset="1" stop-color="#c3def5"/>
    </linearGradient>
    <linearGradient id="linear-gradient-2" x1="0.888" y1="0.023" x2="-0.031" y2="1.121" gradientUnits="objectBoundingBox">
      <stop offset="0" stop-color="#005a8b"/>
      <stop offset="1" stop-color="#001145"/>
    </linearGradient>
    <linearGradient id="linear-gradient-3" x1="0.925" y1="0.313" x2="-0.387" y2="0.889" gradientUnits="objectBoundingBox">
      <stop offset="0" stop-color="#e9feff"/>
      <stop offset="1" stop-color="#b7e6ea"/>
    </linearGradient>
    <linearGradient id="linear-gradient-4" x1="1.083" y1="-0.145" x2="-0.546" y2="1.715" xlink:href="#linear-gradient-3"/>
    <linearGradient id="linear-gradient-5" x1="0.98" y1="-0.299" x2="-0.467" y2="2.111" xlink:href="#linear-gradient-3"/>
    <linearGradient id="linear-gradient-6" x1="0.885" y1="-0.494" x2="0.265" y2="1.107" xlink:href="#linear-gradient-3"/>
    <linearGradient id="linear-gradient-7" x1="0.654" y1="0.027" x2="0.252" y2="1.174" xlink:href="#linear-gradient-2"/>
    <linearGradient id="linear-gradient-8" x1="49.993" y1="1.607" x2="49.647" y2="2.881" gradientUnits="objectBoundingBox">
      <stop offset="0" stop-color="#f0877e"/>
      <stop offset="1" stop-color="#fabeb2"/>
    </linearGradient>
    <linearGradient id="linear-gradient-9" x1="29.12" y1="-0.055" x2="28.954" y2="1.072" xlink:href="#linear-gradient-2"/>
    <linearGradient id="linear-gradient-10" x1="0.494" y1="0.203" x2="0.518" y2="1.387" gradientUnits="objectBoundingBox">
      <stop offset="0" stop-color="#e6eef3"/>
      <stop offset="1" stop-color="#c4def4"/>
    </linearGradient>
    <clipPath id="clip-path">
      <circle id="Ellipse_677" data-name="Ellipse 677" cx="18.662" cy="18.662" r="18.662" transform="translate(0 2.184) rotate(-3.355)" fill="#5f8bab"/>
    </clipPath>
    <linearGradient id="linear-gradient-11" x1="74.267" y1="1.416" x2="75.234" y2="0.196" xlink:href="#linear-gradient-8"/>
    <linearGradient id="linear-gradient-12" x1="41.651" y1="2.179" x2="41.463" y2="0.299" xlink:href="#linear-gradient-3"/>
    <linearGradient id="linear-gradient-13" x1="246.606" y1="-0.074" x2="246.518" y2="0.847" xlink:href="#linear-gradient-8"/>
    <linearGradient id="linear-gradient-14" x1="-93.975" y1="-0.383" x2="-94.045" y2="0.997" xlink:href="#linear-gradient-8"/>
    <linearGradient id="linear-gradient-15" x1="53.738" y1="-0.308" x2="53.67" y2="1.125" xlink:href="#linear-gradient-2"/>
    <linearGradient id="linear-gradient-16" x1="-236.453" y1="-38.02" x2="-236.401" y2="-37.321" xlink:href="#linear-gradient-8"/>
    <linearGradient id="linear-gradient-17" x1="22.768" y1="1.009" x2="22.453" y2="0.1" xlink:href="#linear-gradient-2"/>
    <linearGradient id="linear-gradient-18" x1="-689.763" y1="1.188" x2="-690.149" y2="0.279" xlink:href="#linear-gradient-3"/>
    <linearGradient id="linear-gradient-19" x1="-3622.074" y1="1.697" x2="-3622.137" y2="0.116" xlink:href="#linear-gradient-3"/>
    <linearGradient id="linear-gradient-20" x1="86.452" y1="3.095" x2="85.265" y2="-0.353" xlink:href="#linear-gradient-2"/>
    <linearGradient id="linear-gradient-21" x1="28.481" y1="0.998" x2="28.105" y2="0.065" xlink:href="#linear-gradient-2"/>
    <linearGradient id="linear-gradient-22" x1="2756.258" y1="1.305" x2="2758.181" y2="-0.057" xlink:href="#linear-gradient-8"/>
    <linearGradient id="linear-gradient-23" x1="1953.555" y1="0.757" x2="1954.233" y2="0.28" xlink:href="#linear-gradient-8"/>
    <linearGradient id="linear-gradient-24" x1="2757.49" y1="1.365" x2="2757.31" y2="0.141" xlink:href="#linear-gradient-3"/>
    <linearGradient id="linear-gradient-25" x1="2645.649" y1="0.769" x2="2645.592" y2="0.062" xlink:href="#linear-gradient-8"/>
    <linearGradient id="linear-gradient-26" x1="2756.838" y1="1.873" x2="2757.989" y2="-0.39" xlink:href="#linear-gradient-8"/>
    <linearGradient id="linear-gradient-27" x1="1953.766" y1="0.801" x2="1954.052" y2="0.242" xlink:href="#linear-gradient-8"/>
    <linearGradient id="linear-gradient-28" x1="20.13" y1="1.675" x2="20.047" y2="-0.549" xlink:href="#linear-gradient-3"/>
    <linearGradient id="linear-gradient-29" x1="163.439" y1="4.224" x2="162.78" y2="-1.268" xlink:href="#linear-gradient-3"/>
    <linearGradient id="linear-gradient-30" x1="70.899" y1="1.211" x2="70.981" y2="0.082" xlink:href="#linear-gradient-8"/>
    <linearGradient id="linear-gradient-31" x1="74.881" y1="-5.143" x2="74.881" y2="-4.206" xlink:href="#linear-gradient-8"/>
    <linearGradient id="linear-gradient-32" x1="-1146.759" y1="-10.538" x2="-1147.331" y2="-11.414" xlink:href="#linear-gradient-3"/>
    <linearGradient id="linear-gradient-33" x1="-3984.8" y1="-1283.483" x2="-3984.862" y2="-1286.513" xlink:href="#linear-gradient-3"/>
    <linearGradient id="linear-gradient-34" x1="-38.771" y1="1.052" x2="-39.162" y2="2.382" xlink:href="#linear-gradient-2"/>
    <linearGradient id="linear-gradient-35" x1="11.437" y1="0.007" x2="11.564" y2="0.861" gradientUnits="objectBoundingBox">
      <stop offset="0" stop-color="#e5edf4"/>
      <stop offset="1" stop-color="#c5dff5"/>
    </linearGradient>
    <linearGradient id="linear-gradient-36" x1="-52.208" y1="0.567" x2="-52.699" y2="1.571" xlink:href="#linear-gradient-3"/>
  </defs>
  <g id="_2" data-name="2" transform="translate(-1150.463 -90.778)">
    <g id="Group_51373" data-name="Group 51373" transform="translate(1150.463 90.778)">
      <path id="Path_53743" data-name="Path 53743" d="M1384.444,160.546a34.347,34.347,0,0,0-46.176-32.225,85.526,85.526,0,0,0-141.6.01,34.329,34.329,0,0,0-37.52,55.029,50.117,50.117,0,0,0,29.709,76.919c-9.112.516-14.388,1.128-14.388,1.784,0,1.843,41.632,3.337,92.988,3.337s92.988-1.494,92.988-3.337c0-.656-5.277-1.268-14.388-1.784a50.117,50.117,0,0,0,29.708-76.919A34.193,34.193,0,0,0,1384.444,160.546Z" transform="translate(-1150.463 -90.778)" fill="#e6f4ff"/>
      <g id="Group_51372" data-name="Group 51372" transform="translate(0 122.58)" opacity="0.9">
        <g id="Group_51367" data-name="Group 51367" transform="translate(177.392)">
          <g id="Group_51365" data-name="Group 51365" opacity="0.8">
            <path id="Path_53744" data-name="Path 53744" d="M1932.621,647.844a22.661,22.661,0,0,1,1.944-5.767,18.937,18.937,0,0,1,11.225-8.206c12.445-3.632,13.606-12.924,15.266-8.278s-1.825,9.664,1.161,13.295.612,10.434-4.174,11.927-21.921,12.857-21.921,21.943h-12.9c-.66,0-.66-4.969-.634-5.34a16.533,16.533,0,0,1,3.494-8.822,61.94,61.94,0,0,0,5.372-7.645A14.656,14.656,0,0,0,1932.621,647.844Z" transform="translate(-1922.582 -624.32)" fill="#fff"/>
            <g id="Group_51364" data-name="Group 51364" transform="translate(19.34 8.888)" opacity="0.5">
              <path id="Path_53745" data-name="Path 53745" d="M2006.782,683.54a14.443,14.443,0,0,1,1.194-6.5,15.062,15.062,0,0,1,1.682-2.9l.124-.17c.041-.057.083-.113.128-.167l.265-.326c.173-.221.364-.427.55-.636s.386-.406.582-.607.4-.392.609-.581c1.674-1.5,3.579-2.618,5.229-4.009l.314-.265.32-.265.639-.52c.425-.345.846-.69,1.248-1.054a11.022,11.022,0,0,0,1.135-1.161c.09-.1.167-.213.251-.32s.154-.223.232-.335.141-.233.212-.35.122-.245.185-.367c-.042.13-.083.263-.13.393s-.1.257-.164.382-.124.249-.2.368-.139.241-.218.356a10.3,10.3,0,0,1-1.042,1.3c-.379.407-.779.791-1.181,1.166l-.6.559-.6.561a31.772,31.772,0,0,1-2.573,2.1c-.437.332-.874.658-1.3.995s-.845.676-1.243,1.036a18.379,18.379,0,0,0-2.19,2.353,16.359,16.359,0,0,0-2.873,5.742A19.137,19.137,0,0,0,2006.782,683.54Z" transform="translate(-2006.764 -663.007)" fill="#325f81"/>
            </g>
          </g>
          <g id="Group_51366" data-name="Group 51366" transform="translate(3.131 9.701)">
            <path id="Path_53746" data-name="Path 53746" d="M1988.915,688.5c-1.79,5.611-6.667,8.733-12.219,9.963-15.788,3.5-23.179,5.7-25.635,6.493a6.809,6.809,0,0,1-2.087.328h-12.766l4.646-14.308s6.195-14.142,20.8-11.387,20.132-7.955,23.672-11.007c.75-.647,3.605-3.39,4.052-1.2a3.542,3.542,0,0,1-.113,1.415C1987.922,675.361,1991.008,681.935,1988.915,688.5Z" transform="translate(-1936.209 -666.544)" fill="#204f74"/>
            <path id="Path_53747" data-name="Path 53747" d="M2016.322,723.753c-.062.234-.123.47-.192.7l-.113.348c-.039.115-.072.233-.119.346l-.133.342-.068.171-.076.167c-.1.223-.2.448-.317.664a11.587,11.587,0,0,1-1.689,2.428,12.769,12.769,0,0,1-2.255,1.942,17.18,17.18,0,0,1-2.6,1.45c-.226.1-.452.2-.681.3l-.69.273c-.464.168-.93.333-1.4.476-.118.037-.235.076-.353.111l-.355.1c-.237.067-.473.137-.712.194l-.715.18-.718.162a52.229,52.229,0,0,1-5.8.89c-.487.043-.972.094-1.458.128l-.729.057c-.243.018-.487.032-.73.047s-.489.028-.727.045l-.711.054-.356.026c-.118.009-.235.027-.353.04l-.707.083-.177.021-.175.029-.7.115-.175.028c-.059.01-.116.024-.174.036l-.694.148-.173.037-.171.045-.342.091c-.461.11-.9.269-1.355.409l-.662.249-.166.062-.161.071-.324.142c-.107.048-.216.094-.323.144l-.315.158-.316.159-.079.039-.076.045-.153.087c-.412.228-.807.484-1.195.752a12.85,12.85,0,0,0-2.121,1.871c-.078.089-.162.174-.237.264l-.227.274-.114.138-.106.142-.214.286a13.918,13.918,0,0,0-.761,1.212,11.6,11.6,0,0,0-.616,1.3,8.728,8.728,0,0,0-.439,1.38,9.527,9.527,0,0,1,.771-2.819,11.565,11.565,0,0,1,.675-1.315l.2-.313.1-.158.105-.152.213-.3c.071-.1.151-.2.225-.3a12.574,12.574,0,0,1,2.1-2.112,14.4,14.4,0,0,1,2.524-1.6l.336-.165.168-.081.171-.073.688-.293c.468-.167.934-.347,1.413-.479l.357-.107.179-.053.181-.044.724-.175c.06-.014.121-.031.181-.042l.183-.035.365-.069.366-.068.183-.034.184-.026.735-.1c.123-.015.245-.036.368-.047l.369-.033.738-.065c.246-.022.483-.037.724-.055l.721-.051.72-.06c.48-.036.959-.089,1.438-.134s.956-.1,1.433-.155.954-.115,1.428-.187c.952-.126,1.9-.29,2.836-.471l.7-.141.7-.158c.234-.05.462-.114.695-.17l.347-.087c.115-.031.23-.065.344-.1a24.958,24.958,0,0,0,2.7-.9,15.169,15.169,0,0,0,4.805-2.955,11.748,11.748,0,0,0,1.817-2.192,12.292,12.292,0,0,0,.71-1.252c.058-.106.1-.217.156-.326l.151-.33c.05-.111.091-.224.138-.336Z" transform="translate(-1969.031 -710.609)" fill="#39c5e5"/>
            <path id="Path_53748" data-name="Path 53748" d="M2016.322,723.753c-.062.234-.123.47-.192.7l-.113.348c-.039.115-.072.233-.119.346l-.133.342-.068.171-.076.167c-.1.223-.2.448-.317.664a11.587,11.587,0,0,1-1.689,2.428,12.769,12.769,0,0,1-2.255,1.942,17.18,17.18,0,0,1-2.6,1.45c-.226.1-.452.2-.681.3l-.69.273c-.464.168-.93.333-1.4.476-.118.037-.235.076-.353.111l-.355.1c-.237.067-.473.137-.712.194l-.715.18-.718.162a52.229,52.229,0,0,1-5.8.89c-.487.043-.972.094-1.458.128l-.729.057c-.243.018-.487.032-.73.047s-.489.028-.727.045l-.711.054-.356.026c-.118.009-.235.027-.353.04l-.707.083-.177.021-.175.029-.7.115-.175.028c-.059.01-.116.024-.174.036l-.694.148-.173.037-.171.045-.342.091c-.461.11-.9.269-1.355.409l-.662.249-.166.062-.161.071-.324.142c-.107.048-.216.094-.323.144l-.315.158-.316.159-.079.039-.076.045-.153.087c-.412.228-.807.484-1.195.752a12.85,12.85,0,0,0-2.121,1.871c-.078.089-.162.174-.237.264l-.227.274-.114.138-.106.142-.214.286a13.918,13.918,0,0,0-.761,1.212,11.6,11.6,0,0,0-.616,1.3,8.728,8.728,0,0,0-.439,1.38,9.527,9.527,0,0,1,.771-2.819,11.565,11.565,0,0,1,.675-1.315l.2-.313.1-.158.105-.152.213-.3c.071-.1.151-.2.225-.3a12.574,12.574,0,0,1,2.1-2.112,14.4,14.4,0,0,1,2.524-1.6l.336-.165.168-.081.171-.073.688-.293c.468-.167.934-.347,1.413-.479l.357-.107.179-.053.181-.044.724-.175c.06-.014.121-.031.181-.042l.183-.035.365-.069.366-.068.183-.034.184-.026.735-.1c.123-.015.245-.036.368-.047l.369-.033.738-.065c.246-.022.483-.037.724-.055l.721-.051.72-.06c.48-.036.959-.089,1.438-.134s.956-.1,1.433-.155.954-.115,1.428-.187c.952-.126,1.9-.29,2.836-.471l.7-.141.7-.158c.234-.05.462-.114.695-.17l.347-.087c.115-.031.23-.065.344-.1a24.958,24.958,0,0,0,2.7-.9,15.169,15.169,0,0,0,4.805-2.955,11.748,11.748,0,0,0,1.817-2.192,12.292,12.292,0,0,0,.71-1.252c.058-.106.1-.217.156-.326l.151-.33c.05-.111.091-.224.138-.336Z" transform="translate(-1969.031 -710.609)" fill="#fff" opacity="0.8"/>
          </g>
        </g>
        <g id="Group_51371" data-name="Group 51371">
          <g id="Group_51369" data-name="Group 51369" transform="translate(15.633)" opacity="0.8">
            <path id="Path_53749" data-name="Path 53749" d="M1249.423,647.844a22.679,22.679,0,0,0-1.944-5.767,18.939,18.939,0,0,0-11.226-8.206c-12.444-3.632-13.606-12.924-15.265-8.278s1.825,9.664-1.162,13.295-.612,10.434,4.174,11.927,21.921,12.857,21.921,21.943h12.9c.66,0,.661-4.969.634-5.34a16.534,16.534,0,0,0-3.494-8.822,61.967,61.967,0,0,1-5.372-7.645A14.662,14.662,0,0,1,1249.423,647.844Z" transform="translate(-1218.507 -624.32)" fill="#fff"/>
            <g id="Group_51368" data-name="Group 51368" transform="translate(6.7 8.888)" opacity="0.5">
              <path id="Path_53750" data-name="Path 53750" d="M1262.567,683.54a14.438,14.438,0,0,0-1.194-6.5,15.056,15.056,0,0,0-1.682-2.9l-.124-.17c-.041-.057-.083-.113-.128-.167l-.265-.326c-.173-.221-.363-.427-.55-.636s-.386-.406-.582-.607-.4-.392-.609-.581c-1.673-1.5-3.579-2.618-5.229-4.009l-.315-.265-.319-.265-.64-.52c-.425-.345-.845-.69-1.248-1.054a11.035,11.035,0,0,1-1.135-1.161c-.089-.1-.167-.213-.251-.32s-.154-.223-.232-.335-.14-.233-.212-.35-.122-.245-.185-.367c.042.13.083.263.13.393s.1.257.165.382.124.249.2.368.14.241.218.356a10.273,10.273,0,0,0,1.042,1.3c.379.407.779.791,1.181,1.166l.6.559.6.561a31.774,31.774,0,0,0,2.574,2.1c.437.332.874.658,1.3.995s.845.676,1.243,1.036a18.379,18.379,0,0,1,2.19,2.353,16.356,16.356,0,0,1,2.872,5.742A19.137,19.137,0,0,1,1262.567,683.54Z" transform="translate(-1247.669 -663.007)" fill="#426d8d"/>
            </g>
          </g>
          <g id="Group_51370" data-name="Group 51370" transform="translate(0 9.701)">
            <path id="Path_53751" data-name="Path 53751" d="M1151.216,688.5c1.79,5.611,6.666,8.733,12.218,9.963,15.788,3.5,23.18,5.7,25.635,6.493a6.809,6.809,0,0,0,2.087.328h12.766l-4.646-14.308s-6.195-14.142-20.8-11.387-20.132-7.955-23.672-11.007c-.75-.647-3.605-3.39-4.052-1.2a3.544,3.544,0,0,0,.113,1.415C1152.208,675.361,1149.122,681.935,1151.216,688.5Z" transform="translate(-1150.463 -666.544)" fill="#325f81"/>
            <path id="Path_53752" data-name="Path 53752" d="M1177.307,723.753c.062.234.122.47.191.7l.113.348c.039.115.072.233.119.346l.133.342.068.171.076.167c.1.223.2.448.317.664a11.6,11.6,0,0,0,1.689,2.428,12.779,12.779,0,0,0,2.256,1.942,17.2,17.2,0,0,0,2.6,1.45c.227.1.453.2.681.3l.69.273c.464.168.931.333,1.4.476.118.037.235.076.354.111l.355.1c.236.067.473.137.712.194l.715.18.718.162a52.231,52.231,0,0,0,5.8.89c.486.043.972.094,1.458.128l.73.057c.243.018.486.032.73.047s.49.028.727.045l.71.054.356.026c.118.009.235.027.353.04l.707.083.177.021.175.029.7.115.175.028c.058.01.116.024.173.036l.694.148.174.037.171.045.342.091c.461.11.9.269,1.355.409l.661.249.166.062.161.071.323.142c.107.048.216.094.323.144l.315.158.316.159.079.039.077.045.153.087c.412.228.807.484,1.195.752a12.846,12.846,0,0,1,2.121,1.871c.078.089.162.174.237.264l.226.274.114.138.107.142.214.286a13.952,13.952,0,0,1,.761,1.212,11.66,11.66,0,0,1,.616,1.3,8.74,8.74,0,0,1,.439,1.38,9.516,9.516,0,0,0-.771-2.819,11.642,11.642,0,0,0-.674-1.315l-.2-.313-.1-.158-.105-.152-.213-.3c-.071-.1-.151-.2-.225-.3a12.57,12.57,0,0,0-2.1-2.112,14.392,14.392,0,0,0-2.524-1.6l-.336-.165-.168-.081-.172-.073-.688-.293c-.468-.167-.934-.347-1.413-.479l-.357-.107-.179-.053-.181-.044-.724-.175c-.06-.014-.121-.031-.181-.042l-.183-.035-.365-.069-.366-.068-.183-.034-.184-.026-.735-.1c-.123-.015-.245-.036-.369-.047l-.369-.033-.738-.065c-.246-.022-.483-.037-.724-.055l-.721-.051-.72-.06c-.48-.036-.959-.089-1.437-.134s-.957-.1-1.433-.155-.954-.115-1.428-.187c-.952-.126-1.9-.29-2.835-.471l-.7-.141-.7-.158c-.233-.05-.463-.114-.694-.17l-.348-.087c-.115-.031-.229-.065-.344-.1a24.956,24.956,0,0,1-2.7-.9,15.168,15.168,0,0,1-4.805-2.955,11.747,11.747,0,0,1-1.817-2.192,12.2,12.2,0,0,1-.711-1.252c-.058-.106-.1-.217-.156-.326l-.151-.33c-.05-.111-.092-.224-.138-.336Z" transform="translate(-1171.14 -710.609)" fill="#39c5e5"/>
            <path id="Path_53753" data-name="Path 53753" d="M1177.307,723.753c.062.234.122.47.191.7l.113.348c.039.115.072.233.119.346l.133.342.068.171.076.167c.1.223.2.448.317.664a11.6,11.6,0,0,0,1.689,2.428,12.779,12.779,0,0,0,2.256,1.942,17.2,17.2,0,0,0,2.6,1.45c.227.1.453.2.681.3l.69.273c.464.168.931.333,1.4.476.118.037.235.076.354.111l.355.1c.236.067.473.137.712.194l.715.18.718.162a52.231,52.231,0,0,0,5.8.89c.486.043.972.094,1.458.128l.73.057c.243.018.486.032.73.047s.49.028.727.045l.71.054.356.026c.118.009.235.027.353.04l.707.083.177.021.175.029.7.115.175.028c.058.01.116.024.173.036l.694.148.174.037.171.045.342.091c.461.11.9.269,1.355.409l.661.249.166.062.161.071.323.142c.107.048.216.094.323.144l.315.158.316.159.079.039.077.045.153.087c.412.228.807.484,1.195.752a12.846,12.846,0,0,1,2.121,1.871c.078.089.162.174.237.264l.226.274.114.138.107.142.214.286a13.952,13.952,0,0,1,.761,1.212,11.66,11.66,0,0,1,.616,1.3,8.74,8.74,0,0,1,.439,1.38,9.516,9.516,0,0,0-.771-2.819,11.642,11.642,0,0,0-.674-1.315l-.2-.313-.1-.158-.105-.152-.213-.3c-.071-.1-.151-.2-.225-.3a12.57,12.57,0,0,0-2.1-2.112,14.392,14.392,0,0,0-2.524-1.6l-.336-.165-.168-.081-.172-.073-.688-.293c-.468-.167-.934-.347-1.413-.479l-.357-.107-.179-.053-.181-.044-.724-.175c-.06-.014-.121-.031-.181-.042l-.183-.035-.365-.069-.366-.068-.183-.034-.184-.026-.735-.1c-.123-.015-.245-.036-.369-.047l-.369-.033-.738-.065c-.246-.022-.483-.037-.724-.055l-.721-.051-.72-.06c-.48-.036-.959-.089-1.437-.134s-.957-.1-1.433-.155-.954-.115-1.428-.187c-.952-.126-1.9-.29-2.835-.471l-.7-.141-.7-.158c-.233-.05-.463-.114-.694-.17l-.348-.087c-.115-.031-.229-.065-.344-.1a24.956,24.956,0,0,1-2.7-.9,15.168,15.168,0,0,1-4.805-2.955,11.747,11.747,0,0,1-1.817-2.192,12.2,12.2,0,0,1-.711-1.252c-.058-.106-.1-.217-.156-.326l-.151-.33c-.05-.111-.092-.224-.138-.336Z" transform="translate(-1171.14 -710.609)" fill="#fff" opacity="0.8"/>
          </g>
        </g>
      </g>
    </g>
    <g id="Group_51374" data-name="Group 51374" transform="translate(1155.654 109.227)">
      <circle id="Ellipse_671" data-name="Ellipse 671" cx="33.717" cy="33.717" r="33.717" transform="translate(0 71.494) rotate(-45)" fill="#fff" opacity="0.6"/>
      <circle id="Ellipse_672" data-name="Ellipse 672" cx="9.721" cy="9.721" r="9.721" transform="translate(121.283)" fill="#fff" opacity="0.6"/>
      <circle id="Ellipse_673" data-name="Ellipse 673" cx="15.904" cy="15.904" r="15.904" transform="translate(174.177 81.91) rotate(-45)" fill="#fff" opacity="0.6"/>
    </g>
    <g id="Group_51401" data-name="Group 51401" transform="translate(1199.101 128.669)">
      <g id="Group_51390" data-name="Group 51390" transform="translate(0 0)">
        <rect id="Rectangle_22859" data-name="Rectangle 22859" width="5.72" height="31.808" transform="translate(47.494 92.241)" fill="#204f74"/>
        <path id="Path_53754" data-name="Path 53754" d="M1528.675,800.631h-30.093a5.148,5.148,0,0,1-5.148-5.148h0a5.149,5.149,0,0,1,5.148-5.148h30.093a5.149,5.149,0,0,1,5.149,5.148h0A5.149,5.149,0,0,1,1528.675,800.631Z" transform="translate(-1463.275 -667.504)" fill="#204f74"/>
        <rect id="Rectangle_22860" data-name="Rectangle 22860" width="100.316" height="100.316" rx="14.954" fill="#204f74"/>
        <path id="Path_54049" data-name="Path 54049" d="M14.324,0H81.765A14.324,14.324,0,0,1,96.089,14.324V81.765A14.324,14.324,0,0,1,81.765,96.089H14.324A14.324,14.324,0,0,1,0,81.765V14.324A14.324,14.324,0,0,1,14.324,0Z" transform="translate(2.114 2.114)" fill="url(#linear-gradient)"/>
        <g id="Group_51385" data-name="Group 51385" transform="translate(9.263 45.243)">
          <path id="Path_54047" data-name="Path 54047" d="M17.943,0h45.9A17.943,17.943,0,0,1,81.79,17.943v8.989A17.943,17.943,0,0,1,63.846,44.876h-45.9A17.943,17.943,0,0,1,0,26.933V17.943A17.943,17.943,0,0,1,17.943,0Z" fill="#5f8bab"/>
          <g id="Group_51382" data-name="Group 51382" transform="translate(10.595 6.441)" opacity="0.5">
            <g id="Group_51375" data-name="Group 51375">
              <path id="Path_53755" data-name="Path 53755" d="M1448.824,512.657a.227.227,0,0,1-.226-.227V480.889a.226.226,0,0,1,.453,0V512.43A.227.227,0,0,1,1448.824,512.657Z" transform="translate(-1448.598 -480.663)" fill="#fff"/>
            </g>
            <g id="Group_51376" data-name="Group 51376" transform="translate(10.025)">
              <path id="Path_53756" data-name="Path 53756" d="M1492.457,512.657a.226.226,0,0,1-.226-.227V480.889a.226.226,0,0,1,.453,0V512.43A.227.227,0,0,1,1492.457,512.657Z" transform="translate(-1492.231 -480.663)" fill="#fff"/>
            </g>
            <g id="Group_51377" data-name="Group 51377" transform="translate(20.049)">
              <path id="Path_53757" data-name="Path 53757" d="M1536.091,512.657a.227.227,0,0,1-.226-.227V480.889a.227.227,0,0,1,.453,0V512.43A.227.227,0,0,1,1536.091,512.657Z" transform="translate(-1535.865 -480.663)" fill="#fff"/>
            </g>
            <g id="Group_51378" data-name="Group 51378" transform="translate(30.074)">
              <path id="Path_53758" data-name="Path 53758" d="M1579.724,512.657a.227.227,0,0,1-.226-.227V480.889a.226.226,0,0,1,.453,0V512.43A.227.227,0,0,1,1579.724,512.657Z" transform="translate(-1579.498 -480.663)" fill="#fff"/>
            </g>
            <g id="Group_51379" data-name="Group 51379" transform="translate(40.099)">
              <path id="Path_53759" data-name="Path 53759" d="M1623.358,512.657a.227.227,0,0,1-.226-.227V480.889a.226.226,0,0,1,.453,0V512.43A.226.226,0,0,1,1623.358,512.657Z" transform="translate(-1623.132 -480.663)" fill="#fff"/>
            </g>
            <g id="Group_51380" data-name="Group 51380" transform="translate(50.123)">
              <path id="Path_53760" data-name="Path 53760" d="M1666.991,512.657a.227.227,0,0,1-.226-.227V480.889a.226.226,0,0,1,.453,0V512.43A.227.227,0,0,1,1666.991,512.657Z" transform="translate(-1666.765 -480.663)" fill="#fff"/>
            </g>
            <g id="Group_51381" data-name="Group 51381" transform="translate(60.148)">
              <path id="Path_53761" data-name="Path 53761" d="M1710.624,512.657a.226.226,0,0,1-.226-.227V480.889a.226.226,0,1,1,.452,0V512.43A.227.227,0,0,1,1710.624,512.657Z" transform="translate(-1710.398 -480.663)" fill="#fff"/>
            </g>
          </g>
          <g id="Group_51384" data-name="Group 51384" transform="translate(10.255 10.074)">
            <g id="Group_51383" data-name="Group 51383">
              <path id="Path_53762" data-name="Path 53762" d="M1467.735,522.3a.536.536,0,0,1-.063,0,.564.564,0,0,1-.414-.259l-9.712-15.287L1448,513.26a.566.566,0,1,1-.637-.935l10.024-6.836a.566.566,0,0,1,.8.164l9.648,15.189,19.55-19.312a.566.566,0,0,1,.719-.063l9.6,6.617,9.693-11.408a.566.566,0,1,1,.863.733l-10.024,11.8a.566.566,0,0,1-.753.1l-9.639-6.642-19.716,19.476A.566.566,0,0,1,1467.735,522.3Z" transform="translate(-1447.119 -496.477)" fill="#fff"/>
            </g>
            <circle id="Ellipse_674" data-name="Ellipse 674" cx="2.054" cy="2.054" r="2.054" transform="matrix(0.993, -0.122, 0.122, 0.993, 8.301, 7.692)" fill="#fff"/>
            <path id="Path_53763" data-name="Path 53763" d="M1619.284,513.825a2.054,2.054,0,1,1-2.054-2.054A2.054,2.054,0,0,1,1619.284,513.825Z" transform="translate(-1576.566 -508.257)" fill="#fff"/>
          </g>
        </g>
        <g id="_6" data-name="6" transform="translate(9.263 10.197)">
          <path id="Path_54048" data-name="Path 54048" d="M14.824,0A14.824,14.824,0,1,1,0,14.824,14.824,14.824,0,0,1,14.824,0Z" fill="#426d8d"/>
          <path id="Path_53764" data-name="Path 53764" d="M1449.554,334.694h-.424v-3.3a.489.489,0,0,0-.49-.489H1438.8a.489.489,0,0,0-.49.489v3.3h-.425a.245.245,0,0,0-.244.245v.8a.245.245,0,0,0,.244.245h.425V347.71a.489.489,0,0,0,.49.489h9.841a.49.49,0,0,0,.49-.489V335.979h.424a.245.245,0,0,0,.245-.245v-.8A.245.245,0,0,0,1449.554,334.694Z" transform="translate(-1429.563 -323.825)" fill="#204f74"/>
          <g id="Group_51388" data-name="Group 51388" transform="translate(8.744 6.413)">
            <path id="Path_53765" data-name="Path 53765" d="M1454.278,350.085v11.731a.489.489,0,0,1-.49.489h-9.841a.489.489,0,0,1-.49-.489V350.085Z" transform="translate(-1442.789 -345.011)" fill="url(#linear-gradient-2)"/>
            <rect id="Rectangle_22863" data-name="Rectangle 22863" width="12.159" height="1.285" rx="0.642" transform="translate(0 3.789)" fill="url(#linear-gradient-3)"/>
            <path id="Path_53766" data-name="Path 53766" d="M1454.278,328.49v3.3h-10.82v-3.3a.489.489,0,0,1,.49-.489h9.841A.489.489,0,0,1,1454.278,328.49Z" transform="translate(-1442.789 -328.001)" fill="url(#linear-gradient-4)"/>
            <path id="Path_53767" data-name="Path 53767" d="M1454.278,335.781h-10.82v-2.6c.061.345.156.7.181.792.311,1.122.948,1.376,2.066,1.431Q1449.991,335.617,1454.278,335.781Z" transform="translate(-1442.789 -331.992)" opacity="0.5" fill="url(#linear-gradient-5)" style="mix-blend-mode: multiply;isolation: isolate"/>
            <rect id="Rectangle_22864" data-name="Rectangle 22864" width="10.82" height="5.142" transform="translate(0.669 8.613)" fill="url(#linear-gradient-6)"/>
            <g id="Group_51387" data-name="Group 51387" transform="translate(4.335 9.349)">
              <path id="Path_53768" data-name="Path 53768" d="M1463.481,368.693a1.051,1.051,0,1,0,1.051,1.051A1.051,1.051,0,0,0,1463.481,368.693Zm.486,1.2h-.34v.341a.146.146,0,0,1-.292,0v-.341h-.341a.146.146,0,0,1,0-.292h.341v-.34a.146.146,0,0,1,.292,0v.34h.34a.146.146,0,1,1,0,.292Z" transform="translate(-1461.737 -368.693)" fill="#ff6464"/>
              <g id="Group_51386" data-name="Group 51386" transform="translate(0 2.594)">
                <rect id="Rectangle_22865" data-name="Rectangle 22865" width="2.036" height="0.375" transform="translate(0.726)" fill="#ff6464"/>
                <rect id="Rectangle_22866" data-name="Rectangle 22866" width="3.489" height="0.375" transform="translate(0 0.701)" fill="#ff6464"/>
              </g>
            </g>
            <path id="Path_53769" data-name="Path 53769" d="M1454.278,387.184a.489.489,0,0,1-.49.489h-9.841a.489.489,0,0,1-.49-.489v-4.165c.058,1.269.524,4.147,3.567,4.2C1450.931,387.291,1454.278,387.184,1454.278,387.184Z" transform="translate(-1442.789 -370.379)" opacity="0.5" fill="url(#linear-gradient-7)" style="mix-blend-mode: multiply;isolation: isolate"/>
          </g>
        </g>
        <g id="Group_51389" data-name="Group 51389" transform="translate(45.929 12.601)">
          <rect id="Rectangle_22867" data-name="Rectangle 22867" width="24.677" height="4.009" rx="2.005" fill="#5f8bab"/>
          <rect id="Rectangle_22868" data-name="Rectangle 22868" width="42.959" height="4.009" rx="2.005" transform="translate(0 6.477)" fill="#5f8bab" opacity="0.6"/>
          <rect id="Rectangle_22869" data-name="Rectangle 22869" width="38.853" height="4.009" rx="2.005" transform="translate(0 13.037)" fill="#5f8bab" opacity="0.6"/>
          <rect id="Rectangle_22870" data-name="Rectangle 22870" width="19.986" height="4.009" rx="2.005" transform="translate(0 19.597)" fill="#5f8bab" opacity="0.6"/>
        </g>
      </g>
      <g id="Group_51400" data-name="Group 51400" transform="translate(57.42 15.708)">
        <g id="Group_51392" data-name="Group 51392" transform="translate(42.19 110.58)">
          <g id="Group_51391" data-name="Group 51391" transform="translate(6.745)">
            <path id="Path_53770" data-name="Path 53770" d="M1825.1,806.26s.019,1.447-.008,2.171c-.012.318,3.357,1.87,4.074-.306l-.455-1.74-2.8-1Z" transform="translate(-1825.091 -805.385)" fill="url(#linear-gradient-8)"/>
          </g>
          <path id="Path_53771" data-name="Path 53771" d="M1795.751,821.026a57.745,57.745,0,0,0,11.522-.262,6.678,6.678,0,0,0-.724-3.713c.042.071-.386.394-.441.43a2.23,2.23,0,0,1-.634.279,4.123,4.123,0,0,1-2.3-.251,8.288,8.288,0,0,0-5.1-.208,3.55,3.55,0,0,0-2.085,2.229A6.547,6.547,0,0,0,1795.751,821.026Z" transform="translate(-1795.73 -814.312)" fill="url(#linear-gradient-9)"/>
        </g>
        <path id="Path_53772" data-name="Path 53772" d="M1893.6,457.371s.724.246,1.444,1.861c1.487-1.185,4.208-3.054,5.625-4.325,2.447-2.2,3.975-3.173,5.8-5.99.936-1.449-.035-3.2-.972-4.359-2.359-2.911-4.543-5.961-6.915-8.864-.592-.724-1.2-1.44-1.817-2.141-.237-.268-1.691-1.543-1.659-1.788,0,0-.18,1.4-.322,3.032a28.385,28.385,0,0,0-.137,4.027c.125,1.59,1.734,3.3,2.652,4.492,1.074,1.395,2.463,2.666,3.441,4.113a1.3,1.3,0,0,1,.252.669c.026.657-.661,1.128-1.208,1.787q-1.154,1.394-2.306,2.792Q1895.537,455.024,1893.6,457.371Z" transform="translate(-1828.924 -407.023)" fill="#e4edf3"/>
        <g id="Group_51396" data-name="Group 51396" transform="translate(0 6.788)">
          <path id="Path_53773" data-name="Path 53773" d="M1617.1,387.027a22.166,22.166,0,0,0,39.971,3.685l28.653,13.436a1.758,1.758,0,1,0,1.493-3.183l-28.612-13.417a22.173,22.173,0,1,0-41.505-.522Zm3.306-1.2a18.662,18.662,0,1,1,23.9,11.2A18.683,18.683,0,0,1,1620.409,385.832Z" transform="translate(-1614.933 -356.46)" fill="#204f74"/>
          <circle id="Ellipse_676" data-name="Ellipse 676" cx="18.662" cy="18.662" r="18.662" transform="translate(0 10.13) rotate(-15.747)" fill="url(#linear-gradient-10)"/>
          <g id="Group_51395" data-name="Group 51395" transform="translate(3.304 3.304)">
            <g id="Group_51394" data-name="Group 51394" transform="translate(0 0)" clip-path="url(#clip-path)">
              <g id="Group_51393" data-name="Group 51393" transform="translate(0.22 -4.212)">
                <rect id="Rectangle_22871" data-name="Rectangle 22871" width="36.705" height="5.963" rx="2.982" fill="#5f8bab"/>
                <rect id="Rectangle_22872" data-name="Rectangle 22872" width="63.9" height="5.963" rx="2.982" transform="translate(0 9.634)" fill="#5f8bab" opacity="0.6"/>
                <rect id="Rectangle_22873" data-name="Rectangle 22873" width="57.792" height="5.963" rx="2.982" transform="translate(0 19.392)" fill="#5f8bab" opacity="0.6"/>
                <rect id="Rectangle_22874" data-name="Rectangle 22874" width="29.729" height="5.963" rx="2.982" transform="translate(0 29.15)" fill="#5f8bab" opacity="0.6"/>
              </g>
            </g>
          </g>
        </g>
        <path id="Path_53774" data-name="Path 53774" d="M1749.509,533.889c-.278.049-.638-.213-.327-.262.073-.012.217-.048.4-.1.45-.123,1.123-.327,1.457-.433.089-.027.154-.048.184-.059a1.753,1.753,0,0,0,.555-.432c.12-.143.162-.281-.007-.337-.393-.131-.458-.376-.426-.491s.491.131.7.114a4.826,4.826,0,0,1,1.024.314l.571.48-.016.069.417.413-.773,1.183a6.311,6.311,0,0,1-1.125,0,6.862,6.862,0,0,0-1.865-.124,2.381,2.381,0,0,1-.706.075h0a.291.291,0,0,1-.2-.074h0c-.068-.087.589-.3.786-.365l.047-.015.007,0A4.823,4.823,0,0,0,1749.509,533.889Z" transform="translate(-1717.594 -484.035)" fill="url(#linear-gradient-11)"/>
        <path id="Path_53775" data-name="Path 53775" d="M1898.047,445.339c.125,1.59,1.735,3.3,2.652,4.492,1.074,1.395,2.463,2.666,3.441,4.113a1.3,1.3,0,0,1,.252.669c.026.657-.662,1.128-1.208,1.787,3.466-1.284,2.446-3.641-1.084-7.857a11.855,11.855,0,0,1-3.048-8.32l-.868,1.089A28.425,28.425,0,0,0,1898.047,445.339Z" transform="translate(-1832.327 -413.538)" fill="url(#linear-gradient-12)" style="mix-blend-mode: multiply;isolation: isolate"/>
        <g id="Group_51397" data-name="Group 51397" transform="translate(46.965 5.375)">
          <path id="Path_53776" data-name="Path 53776" d="M1817.623,377.516a5.54,5.54,0,0,1-1.109,1.817,9.689,9.689,0,0,0,1.355.9A15.258,15.258,0,0,0,1817.623,377.516Z" transform="translate(-1816.514 -370.612)" fill="url(#linear-gradient-13)"/>
          <path id="Path_53777" data-name="Path 53777" d="M1821.313,348.555s-.508,4.015-.762,6.388,1.012,4.776,3.681,6.331c0,0,4.528-.382,5.479-4.033,0,0,.461-2.537.572-3.542s1.362-1.606.644-3.176-1.286-.471-1.286-.471-.262-1.238-.559-2.268S1821.313,348.555,1821.313,348.555Z" transform="translate(-1819.599 -347.467)" fill="url(#linear-gradient-14)"/>
        </g>
        <g id="Group_51398" data-name="Group 51398" transform="translate(63.228 110.591)">
          <path id="Path_53778" data-name="Path 53778" d="M1891.584,817.267s2.02,1.524,1.32,2.867-2.262,1.276-3.056,1.216-1.93-.185-2.418-.99.544-2.4.544-2.4Z" transform="translate(-1887.3 -814.548)" fill="url(#linear-gradient-15)"/>
          <path id="Path_53779" data-name="Path 53779" d="M1891.928,808.152a3.4,3.4,0,0,1-3.609.692c-.1-.789-.3-1.786-.572-2.941a4.97,4.97,0,0,0,3.909-.469A20.294,20.294,0,0,1,1891.928,808.152Z" transform="translate(-1887.644 -805.433)" fill="url(#linear-gradient-16)"/>
        </g>
        <path id="Path_53780" data-name="Path 53780" d="M1844.666,534.769c.652,2.672,1.263,6.435,1.84,10.658.6,4.369,1.155,9.23,1.683,13.887.845,7.449,1.613,14.37,2.331,17.9,1.6,7.863,3.8,16.615,3.8,16.615s3.06,2.25,3.909-.47a280.772,280.772,0,0,1,.285-37.668c1.267-15.192-3.915-21.955-3.915-21.955S1842.259,524.907,1844.666,534.769Z" transform="translate(-1790.993 -482.766)" fill="url(#linear-gradient-17)"/>
        <path id="Path_53781" data-name="Path 53781" d="M1826.294,431.775c-.023.064-.78,2.144-1.455,3.881A17.087,17.087,0,0,1,1826.294,431.775Z" transform="translate(-1775.961 -407.031)" fill="url(#linear-gradient-18)"/>
        <path id="Path_53782" data-name="Path 53782" d="M1839,482.93c.027.007.122.032.277.07A1.612,1.612,0,0,1,1839,482.93Z" transform="translate(-1786.87 -446.433)" fill="url(#linear-gradient-19)"/>
        <path id="Path_53783" data-name="Path 53783" d="M1853.721,586.313c.6,4.369,1.155,9.23,1.683,13.887,3.594-5.823,1.532-17.018,1.532-17.018Z" transform="translate(-1798.208 -523.652)" fill="url(#linear-gradient-20)"/>
        <path id="Path_53784" data-name="Path 53784" d="M1823.61,572.811a3.451,3.451,0,0,0-.022,1.537c1.953,9.214-1.58,26-1.58,26a3.357,3.357,0,0,1-3.682-.127c.106-10.292-1.541-12.054-1.953-32.516-.294-14.542,1.019-22.64,1.8-26.107a19.533,19.533,0,0,1,.551-2.057l5.516-1.6s.213.248.543.7a19.3,19.3,0,0,1,3.267,7.057,12.62,12.62,0,0,1,.282,2.906C1828.215,553.636,1824.509,569.12,1823.61,572.811Z" transform="translate(-1769.408 -488.799)" fill="url(#linear-gradient-21)"/>
        <path id="Path_53785" data-name="Path 53785" d="M1772.93,469.771c-.017.021-.032.041-.047.062l.132.055a.349.349,0,0,0-.022-.031Z" transform="translate(-1735.942 -436.297)" fill="url(#linear-gradient-22)"/>
        <path id="Path_53786" data-name="Path 53786" d="M1736.257,422.6a2.133,2.133,0,0,1-.2.173A1.982,1.982,0,0,0,1736.257,422.6Z" transform="translate(-1707.581 -399.965)" fill="url(#linear-gradient-23)"/>
        <path id="Path_53787" data-name="Path 53787" d="M1772.883,469.833l.132.055a.349.349,0,0,0-.022-.031l-.064-.086C1772.913,469.792,1772.9,469.812,1772.883,469.833Z" transform="translate(-1735.942 -436.297)" fill="url(#linear-gradient-24)"/>
        <path id="Path_53788" data-name="Path 53788" d="M1725.554,425.8a.784.784,0,0,0,.146.066A.921.921,0,0,1,1725.554,425.8Z" transform="translate(-1699.487 -402.427)" fill="url(#linear-gradient-25)"/>
        <path id="Path_53789" data-name="Path 53789" d="M1772.93,469.771c-.017.021-.032.041-.047.062l.132.055a.349.349,0,0,0-.022-.031Z" transform="translate(-1735.942 -436.297)" fill="url(#linear-gradient-26)"/>
        <path id="Path_53790" data-name="Path 53790" d="M1736.257,422.6a2.133,2.133,0,0,1-.2.173A1.982,1.982,0,0,0,1736.257,422.6Z" transform="translate(-1707.581 -399.965)" fill="url(#linear-gradient-27)"/>
        <path id="Path_53791" data-name="Path 53791" d="M1828.535,504.133a18.082,18.082,0,0,0,11.427.788,23.74,23.74,0,0,0,2.455-.7.014.014,0,0,1,0,0c.028-.1.459-1.712,1-4.132.505-2.252,1.109-5.206,1.57-8.3-.1.55-2.393,12.258-9.612,12.5C1830.846,504.445,1829.16,504.283,1828.535,504.133Z" transform="translate(-1778.808 -453.254)" fill="url(#linear-gradient-28)"/>
        <path id="Path_53792" data-name="Path 53792" d="M1823.6,488a13.666,13.666,0,0,1,.462,2.258c.006.041.009.085.015.125.012.1.023.2.033.306,1.439.872,1.687,4.166,1.539,2.274C1825.487,490.9,1823.658,488.09,1823.6,488Z" transform="translate(-1775.007 -450.34)" fill="url(#linear-gradient-29)"/>
        <path id="Path_53793" data-name="Path 53793" d="M1896.007,534.991a5.466,5.466,0,0,1-1.1.8c-.663.366.4.357.817.235s2.492.973,3.287.373Z" transform="translate(-1829.767 -486.533)" fill="url(#linear-gradient-30)"/>
        <path id="Path_53794" data-name="Path 53794" d="M1842.274,384.329s1.9,6.22-.735,7.033c0,0,3.759,3.153,6.32-2.063a16.842,16.842,0,0,1-.708-5.917Z" transform="translate(-1788.825 -369.756)" fill="url(#linear-gradient-31)"/>
        <path id="Path_53795" data-name="Path 53795" d="M1825.827,428.1c-.015.067-.529,2.262-1,4.1A17.4,17.4,0,0,1,1825.827,428.1Z" transform="translate(-1775.951 -404.197)" fill="url(#linear-gradient-32)"/>
        <path id="Path_53796" data-name="Path 53796" d="M1843.29,478.866c.028,0,.128.018.288.037A1.68,1.68,0,0,1,1843.29,478.866Z" transform="translate(-1790.173 -443.303)" fill="url(#linear-gradient-33)"/>
        <path id="Path_53797" data-name="Path 53797" d="M1814.3,339.3c-1.616,2.764-3.953,4.407-7.161,3.028a7.92,7.92,0,0,1-4.424-4.315c-.4-1.132-.683-2.423-2.2-2.28a9.376,9.376,0,0,1-4.843-.89c.668.3,1.784-.381,2.281-.789a5.741,5.741,0,0,0,1.883-3.064,5.821,5.821,0,0,1,.337-.971,6.262,6.262,0,0,1,.491-.9s3.439-6.884,9.864-4.583a4.948,4.948,0,0,1,3.032,2.439c0-.008.586,0,.624,0a2.457,2.457,0,0,1,1.378.751c1.81,1.862,1.268,4.77.645,7.022A20.162,20.162,0,0,1,1814.3,339.3Z" transform="translate(-1753.496 -324.072)" fill="url(#linear-gradient-34)"/>
        <path id="Path_53798" data-name="Path 53798" d="M1806.713,466.386c4.084,2.474,10.738,2.76,13.415,2.769a1.475,1.475,0,0,0,1.442-1.146c.041-.176.079-.349.119-.525q.317-1.431.571-2.865c.513-2.849.853-5.677,1.073-8.36,0,0,.545,4.357.96,8.1.13,1.166.247,2.274.331,3.169,0,.015,0,.029,0,.042a1.476,1.476,0,0,0,1.671,1.322,13.675,13.675,0,0,0,8.238-3.991,1.471,1.471,0,0,0,.363-1.181c-.112-.822-.333-2.372-.672-4.369-.007-.038-.012-.075-.019-.11a98.427,98.427,0,0,0-4.9-18.759c-.317-.788-.649-1.55-1-2.275-.051-.253-.091-.507-.127-.761-.026-.188-.048-.376-.067-.566-.1-1.01-.1-2.03-.1-3.044,0-.578.01-1.182.026-1.8.027-.987.078-2.012.142-3.037v0c.04-.6.078-1.2.126-1.791,0-.046.009-.093.009-.138.033-.4.085-.807.153-1.2q.122-.726.2-1.434a26.982,26.982,0,0,0,.153-3.281,30.375,30.375,0,0,0,.1-3.725c-.027-.665-.08-1.268-.157-1.816a13.013,13.013,0,0,0-.335-1.674h0c-2.676-3.048-7.944-4.8-7.944-4.8a2.658,2.658,0,0,1-.784.517,10.145,10.145,0,0,1-2.863.818c-1.706.2-1.431-.543-1.382-.72a4.416,4.416,0,0,1-1.4,1.542,7.693,7.693,0,0,1-.721.526.03.03,0,0,1-.009.007l-.121.076s0,0-.006,0a5.381,5.381,0,0,0-1.85,1.662,2.338,2.338,0,0,0-.143.451c-.269,1.1-.573,2.207-.819,3.324a13.358,13.358,0,0,1-.69,2.159,5.779,5.779,0,0,0-.423,2.053,6.259,6.259,0,0,0,.041.871,6.1,6.1,0,0,0,.47,1.724c.042.266.08.53.119.8h0a47.593,47.593,0,0,1,.409,6.753c-.009,2.369-.169,4.737-.382,7.1-.469,5.209-1.209,10.393-2.043,15.554q-.851,5.259-1.858,10.491A1.482,1.482,0,0,0,1806.713,466.386Z" transform="translate(-1761.449 -389.591)" fill="url(#linear-gradient-35)"/>
        <path id="Path_53799" data-name="Path 53799" d="M1808.77,517.487c1.235.96,6.976,2.666,12.919,2.995-.039.175-.078.35-.118.525a1.477,1.477,0,0,1-1.443,1.146c-2.678-.008-9.331-.294-13.415-2.768a1.48,1.48,0,0,1-.688-1.546q1.011-5.229,1.858-10.491c.834-5.161,1.575-10.345,2.043-15.554.213-2.359.372-4.727.382-7.1a47.731,47.731,0,0,0-.408-6.753h0s1.18-.221,1.253,4.5S1806.45,515.683,1808.77,517.487Z" transform="translate(-1761.45 -442.591)" fill="url(#linear-gradient-36)" style="mix-blend-mode: multiply;isolation: isolate"/>
        <g id="Group_51399" data-name="Group 51399" transform="translate(35.475 24.657)">
          <path id="Path_53800" data-name="Path 53800" d="M1820.954,513.012a.135.135,0,0,1,0-.023C1820.937,512.989,1820.934,512.995,1820.954,513.012Z" transform="translate(-1808.432 -494.243)" fill="#dfebf4"/>
          <path id="Path_53801" data-name="Path 53801" d="M1766.717,456.759c-.005.082-.067.225-.018.3.724-.177,3.243-.522,3.651-.621,1.5-.364,2-.39,3.209-.742l.16-.027h0l.536-.088c.406-.065.8-.123,1.216-.18.219-.028.447-.059.688-.088.218-.027.444-.049.676-.066s.476-.033.721-.046l.445-.023c.1-.007.2-.011.3-.016.39-.022.783-.049,1.169-.093.292-.033.581-.074.863-.128.069-.014.139-.029.207-.044q.264-.057.515-.135l.078-.025a4.079,4.079,0,0,0,1.665-.968l.082-.085a3.374,3.374,0,0,0,.3-.369q.064-.088.123-.176c.105-.155.2-.309.293-.465a10.148,10.148,0,0,0,.645-1.309l.072-.18c.117-.3.224-.6.326-.909.1-.285.187-.573.281-.864.106-.335.215-.675.333-1.021q.1-.292.212-.59c.049-.132.1-.264.156-.4.2-.487.383-1.022.555-1.585a26.169,26.169,0,0,0,.789-3.425c.033-.2.062-.4.088-.593,0-.007,0-.014,0-.02a5.321,5.321,0,0,0-.119-2.249,30.377,30.377,0,0,0-4.518-8.129c-1.145,3.651-3.025,10.314-3.434,15.229a15.454,15.454,0,0,0,.034,3.517c.035,0,.143.033.123.018s.057-.007.03,0a1.061,1.061,0,0,0-.131.078c-.037-.041.023-.034-.019-.071a1.523,1.523,0,0,0-1.059-.136,19.178,19.178,0,0,0-3.788,1.07c-1.7.65-2.71,1.146-4.171,1.741-.567.23-1.04.421-1.565.592a21.441,21.441,0,0,1-1.938,1.479A5.321,5.321,0,0,1,1766.717,456.759Z" transform="translate(-1766.5 -431.394)" fill="#dfebf4"/>
          <path id="Path_53802" data-name="Path 53802" d="M1797.057,488.843a23.213,23.213,0,0,1,2.637-.42c2.341-.3,5.5.131,7.024-2,1.345-1.88,1.562-3.763,2.443-5.913a26.5,26.5,0,0,0,1.441-5.623c-.494-.037-1.132-1.25-1.421.235-.624,3.2-.374,8.8-3.537,10.9C1802.529,488.1,1800.213,487.762,1797.057,488.843Z" transform="translate(-1790.037 -464.507)" fill="#dfebf4" style="mix-blend-mode: multiply;isolation: isolate"/>
        </g>
        <path id="Path_53803" data-name="Path 53803" d="M1869.043,409.134l6.956,6.838,1.482,1.456,6.513,6.4s0,0,0,0a108.7,108.7,0,0,0-7-9.887h0C1874.312,410.888,1869.043,409.134,1869.043,409.134Z" transform="translate(-1810.01 -389.591)" fill="#dfebf4"/>
      </g>
    </g>
  </g>
</svg>
