<svg xmlns="http://www.w3.org/2000/svg" xmlns:xlink="http://www.w3.org/1999/xlink" width="35.44" height="35.44" viewBox="0 0 35.44 35.44">
  <defs>
    <linearGradient id="linear-gradient" x1="0.5" y1="1" x2="0.5" gradientUnits="objectBoundingBox">
      <stop offset="0" stop-color="#cadfef"/>
      <stop offset="1" stop-color="#eff4f9"/>
    </linearGradient>
  </defs>
  <g id="_x30_8_Ear_Plug" transform="translate(-10.94 -10.94)">
    <g id="Group_47994" data-name="Group 47994" transform="translate(10.94 10.94)">
      <circle id="Ellipse_528" data-name="Ellipse 528" cx="17.72" cy="17.72" r="17.72" transform="translate(0 0)" fill="url(#linear-gradient)"/>
      <g id="Group_47993" data-name="Group 47993" transform="translate(6.579 3.544)">
        <path id="Path_47050" data-name="Path 47050" d="M139.321,94.639a20.565,20.565,0,0,0-3.243,7.649,4.908,4.908,0,0,1-1.648,3.054c-1.689,1.4-4.274,1.675-6.722-.889a6.387,6.387,0,0,1-1.805-4.364,14.621,14.621,0,0,0-.874-4.78l-.163-.471a13.572,13.572,0,0,1-.7-6.142c.47-3.714,2.422-5.994,5.961-6.734,5.449-.4,9.085,1.175,10.307,5.354A9.007,9.007,0,0,1,139.321,94.639Z" transform="translate(-122.47 -80.317)" fill="#ffe0c6"/>
        <g id="Group_47992" data-name="Group 47992">
          <path id="Path_47051" data-name="Path 47051" d="M102.38,71.527a.3.3,0,0,0,.262-.325c-.67-6.181,1.191-9.648,5.69-10.6,5.587-.4,8.852,1.281,9.982,5.144a8.689,8.689,0,0,1-1.082,7.08c-.284.448-.549.889-.795,1.316h-2.228a2.076,2.076,0,1,0,0,4.152h.306a14.2,14.2,0,0,0-.569,2.294c-.547,3.517-4.508,5.52-7.864,2.007a5.871,5.871,0,0,1-1.505-5.67c.244-.8.879-.922,1.286-.643a9.263,9.263,0,0,1,2.04,2.8,1.392,1.392,0,0,0,2.383-.059,3.646,3.646,0,0,0-.609-3.491c1.343-1.149,2.64-2.544,1.99-4.192a2.655,2.655,0,0,0-4.508-.629c-.006.007-.017.02-.022.028a.371.371,0,0,1-.624-.07,4.45,4.45,0,0,1,.961-5.229,4.161,4.161,0,0,1,3.754-1.038c1.913.427,4.328,2.857,2.952,6.731a.3.3,0,1,0,.557.2c1.372-3.863-.762-6.92-3.38-7.5a4.746,4.746,0,0,0-4.282,1.18,5.038,5.038,0,0,0-1.1,5.9.961.961,0,0,0,1.626.207l.019-.025a2.061,2.061,0,0,1,3.514.507c.521,1.4-.874,2.71-2.039,3.661a.3.3,0,0,0-.048.408c.666.876,1.175,2.216.72,3.091a.8.8,0,0,1-1.362.011,9.454,9.454,0,0,0-2.2-2.969,1.43,1.43,0,0,0-2.187.96,6.463,6.463,0,0,0,1.644,6.248c3.707,3.881,8.253,1.682,8.875-2.324a13.713,13.713,0,0,1,.608-2.385h2.982v.455a.3.3,0,0,0,.591,0V73.69a.3.3,0,1,0-.591,0v.455h-1c.193-.328.394-.661.609-1a9.28,9.28,0,0,0,1.15-7.563c-1.2-4.117-4.774-5.989-10.612-5.566l-.039.005c-4.8,1-6.875,4.785-6.175,11.243a.3.3,0,0,0,.325.262Zm15.74,6.18h-3.912a1.485,1.485,0,0,1,0-2.97h3.912Z" transform="translate(-101.922 -59.958)" fill="#54557a"/>
          <path id="Path_47052" data-name="Path 47052" d="M314.938,353.961A2.076,2.076,0,1,0,312,356.9l2.766,2.766-.322.322a.3.3,0,0,0,.418.418l3.58-3.58a.3.3,0,0,0-.418-.418l-.322.322Zm-2.518,2.518a1.485,1.485,0,0,1,2.1-2.1l2.766,2.766-2.1,2.1Z" transform="translate(-296.248 -332.138)" fill="#54557a"/>
        </g>
      </g>
    </g>
  </g>
</svg>
