<svg xmlns="http://www.w3.org/2000/svg" width="95.495" height="95.495" viewBox="0 0 95.495 95.495">
  <g id="_x33_4" transform="translate(7.426 7.414)">
    <g id="Group_47777" data-name="Group 47777" transform="translate(-7.426 -7.414)">
      <g id="Group_47732" data-name="Group 47732" transform="translate(0 0)">
        <g id="Group_47731" data-name="Group 47731" transform="translate(0)">
          <circle id="Ellipse_501" data-name="Ellipse 501" cx="41.628" cy="41.628" r="41.628" transform="matrix(0.16, -0.987, 0.987, 0.16, 0, 82.174)" fill="#ffe3e3"/>
        </g>
      </g>
      <g id="Group_47734" data-name="Group 47734" transform="translate(16.213 16.27)">
        <g id="Group_47733" data-name="Group 47733">
          <path id="Path_46168" data-name="Path 46168" d="M80.528,49.081v.585a31.506,31.506,0,0,1-62.442,5.4,30.117,30.117,0,0,1-.585-5.984,31.514,31.514,0,0,1,63.028,0Z" transform="translate(-17.5 -17.6)" fill="#f194bc"/>
        </g>
      </g>
      <g id="Group_47776" data-name="Group 47776" transform="translate(13.156 35.718)">
        <g id="Group_47767" data-name="Group 47767">
          <g id="Group_47750" data-name="Group 47750">
            <g id="Group_47745" data-name="Group 47745">
              <g id="Group_47736" data-name="Group 47736" transform="translate(5.464 5.334)">
                <g id="Group_47735" data-name="Group 47735">
                  <path id="Path_46169" data-name="Path 46169" d="M21.2,79.7V57.066A1.334,1.334,0,0,1,22.566,55.7a5.219,5.219,0,0,1,5.2,5.2V79.7Z" transform="translate(-21.2 -55.7)" fill="#efa765"/>
                </g>
              </g>
              <g id="Group_47738" data-name="Group 47738" transform="translate(2.602)">
                <g id="Group_47737" data-name="Group 47737">
                  <path id="Path_46170" data-name="Path 46170" d="M16.8,71.5V48.866A1.334,1.334,0,0,1,18.166,47.5a5.219,5.219,0,0,1,5.2,5.2V71.5Z" transform="translate(-16.8 -47.5)" fill="#f7b26d"/>
                </g>
              </g>
              <g id="Group_47740" data-name="Group 47740" transform="translate(0.065 2.277)">
                <g id="Group_47739" data-name="Group 47739">
                  <path id="Path_46171" data-name="Path 46171" d="M19.469,68.887V56.2a5.219,5.219,0,0,0-5.2-5.2A1.334,1.334,0,0,0,12.9,52.366V69.8a12.654,12.654,0,0,0,3.642,8.911l7.675,7.87V93.6h14.44V83.782a10.687,10.687,0,0,0-3.122-7.545L27.73,68.432a3.082,3.082,0,1,0-4.358,4.358l4.293,4.293Z" transform="translate(-12.9 -51)" fill="#ffc27c"/>
                </g>
              </g>
              <g id="Group_47742" data-name="Group 47742" transform="translate(0 2.211)">
                <g id="Group_47741" data-name="Group 47741">
                  <path id="Path_46172" data-name="Path 46172" d="M38.557,93.114v.455H24.118V86.544l-7.675-7.87A12.768,12.768,0,0,1,12.8,69.763v-17.5A1.334,1.334,0,0,1,14.166,50.9a2.213,2.213,0,0,1,.65.065,1.37,1.37,0,0,0-.325.846V69.242a12.654,12.654,0,0,0,3.642,8.911l7.74,7.935v7.025Z" transform="translate(-12.8 -50.9)" fill="#f7b26d"/>
                </g>
              </g>
              <g id="Group_47744" data-name="Group 47744" transform="translate(10.732 24.196)">
                <g id="Group_47743" data-name="Group 47743">
                  <path id="Path_46173" data-name="Path 46173" d="M36.975,93.416,29.3,84.7l8.586,7.805a.7.7,0,0,1,.065.911.61.61,0,0,1-.976,0Z" transform="translate(-29.3 -84.7)" fill="#f7b26d"/>
                </g>
              </g>
            </g>
            <g id="Group_47747" data-name="Group 47747" transform="translate(8.586 41.287)">
              <g id="Group_47746" data-name="Group 47746">
                <path id="Path_46174" data-name="Path 46174" d="M46.034,113.2v9.757a41.828,41.828,0,0,1-17.172-6.569c-.325-.26-.65-.455-.976-.715-.65-.455-1.236-.911-1.886-1.431V113.2a2.235,2.235,0,0,1,2.211-2.211c16.521,0,15.676-.065,16.066.065a2.234,2.234,0,0,1,1.756,1.691v.455Z" transform="translate(-26 -110.975)" fill="#4fe88d"/>
              </g>
            </g>
            <g id="Group_47749" data-name="Group 47749" transform="translate(8.586 41.222)">
              <g id="Group_47748" data-name="Group 47748">
                <path id="Path_46175" data-name="Path 46175" d="M46.034,112.843h-16a2.166,2.166,0,0,0-2.146,2.146v.585c-.65-.455-1.236-.911-1.886-1.431V113.1a2.235,2.235,0,0,1,2.211-2.211c16.521,0,15.676-.065,16.066.065a2.282,2.282,0,0,1,1.756,1.886Z" transform="translate(-26 -110.875)" fill="#35d175"/>
              </g>
            </g>
          </g>
          <g id="Group_47766" data-name="Group 47766" transform="translate(41.823)">
            <g id="Group_47761" data-name="Group 47761" transform="translate(2.927)">
              <g id="Group_47752" data-name="Group 47752" transform="translate(13.724 5.334)">
                <g id="Group_47751" data-name="Group 47751">
                  <path id="Path_46176" data-name="Path 46176" d="M109.269,79.7V57.066A1.334,1.334,0,0,0,107.9,55.7a5.219,5.219,0,0,0-5.2,5.2V79.7Z" transform="translate(-102.7 -55.7)" fill="#efa765"/>
                </g>
              </g>
              <g id="Group_47754" data-name="Group 47754" transform="translate(16.586)">
                <g id="Group_47753" data-name="Group 47753">
                  <path id="Path_46177" data-name="Path 46177" d="M113.669,71.5V48.866A1.334,1.334,0,0,0,112.3,47.5a5.219,5.219,0,0,0-5.2,5.2V71.5Z" transform="translate(-107.1 -47.5)" fill="#f7b26d"/>
                </g>
              </g>
              <g id="Group_47756" data-name="Group 47756" transform="translate(0 2.277)">
                <g id="Group_47755" data-name="Group 47755">
                  <path id="Path_46178" data-name="Path 46178" d="M100.723,68.887V56.2a5.219,5.219,0,0,1,5.2-5.2,1.334,1.334,0,0,1,1.366,1.366V69.8a12.654,12.654,0,0,1-3.642,8.911l-7.675,7.87V93.6H81.6V83.782a10.687,10.687,0,0,1,3.122-7.545l7.805-7.805a3.082,3.082,0,0,1,4.358,4.358l-4.293,4.293Z" transform="translate(-81.6 -51)" fill="#ffc27c"/>
                </g>
              </g>
              <g id="Group_47758" data-name="Group 47758" transform="translate(0 2.211)">
                <g id="Group_47757" data-name="Group 47757">
                  <path id="Path_46179" data-name="Path 46179" d="M81.6,93.114v.455H96.04V86.544l7.675-7.87a12.768,12.768,0,0,0,3.642-8.911v-17.5a1.334,1.334,0,0,0-1.366-1.366,2.213,2.213,0,0,0-.65.065,1.37,1.37,0,0,1,.325.846V69.242a12.654,12.654,0,0,1-3.642,8.911l-7.74,7.935v7.025Z" transform="translate(-81.6 -50.9)" fill="#f7b26d"/>
                </g>
              </g>
              <g id="Group_47760" data-name="Group 47760" transform="translate(6.235 24.196)">
                <g id="Group_47759" data-name="Group 47759">
                  <path id="Path_46180" data-name="Path 46180" d="M92.3,93.416,99.976,84.7,91.39,92.505a.7.7,0,0,0-.065.911.61.61,0,0,0,.976,0Z" transform="translate(-91.186 -84.7)" fill="#f7b26d"/>
                </g>
              </g>
            </g>
            <g id="Group_47763" data-name="Group 47763" transform="translate(0.065 41.222)">
              <g id="Group_47762" data-name="Group 47762">
                <path id="Path_46181" data-name="Path 46181" d="M97.234,113.1c-.2.2-.39.325-.585.52A41.494,41.494,0,0,1,77.2,122.664V113.1a2.223,2.223,0,0,1,2.146-2.211c16.521,0,15.676-.065,16.066.065a2.275,2.275,0,0,1,1.756,1.886A.391.391,0,0,1,97.234,113.1Z" transform="translate(-77.2 -110.875)" fill="#4fe88d"/>
              </g>
            </g>
            <g id="Group_47765" data-name="Group 47765" transform="translate(0 41.222)">
              <g id="Group_47764" data-name="Group 47764">
                <path id="Path_46182" data-name="Path 46182" d="M97.134,112.843H81.2a2.18,2.18,0,0,0-2.211,2.146v7.285c-.585.13-1.236.26-1.886.39V113.1a2.223,2.223,0,0,1,2.146-2.211c16.521,0,15.676-.065,16.066.065a1.983,1.983,0,0,1,1.366.911,1.159,1.159,0,0,1,.455.976Z" transform="translate(-77.1 -110.875)" fill="#35d175"/>
              </g>
            </g>
          </g>
        </g>
        <g id="Group_47771" data-name="Group 47771" transform="translate(25.692 43.97)" opacity="0.55">
          <g id="Group_47770" data-name="Group 47770" opacity="0.4">
            <g id="Group_47769" data-name="Group 47769">
              <g id="Group_47768" data-name="Group 47768">
                <path id="Path_46183" data-name="Path 46183" d="M53.731,115.815v6.765a.715.715,0,1,1-1.431,0v-6.765a.722.722,0,0,1,.715-.715A.682.682,0,0,1,53.731,115.815Z" transform="translate(-52.3 -115.1)" fill="#fff"/>
              </g>
            </g>
          </g>
        </g>
        <g id="Group_47775" data-name="Group 47775" transform="translate(49.043 44.23)" opacity="0.55">
          <g id="Group_47774" data-name="Group 47774" opacity="0.4">
            <g id="Group_47773" data-name="Group 47773">
              <g id="Group_47772" data-name="Group 47772">
                <path id="Path_46184" data-name="Path 46184" d="M95.68,116.931H88.915a.715.715,0,0,1,0-1.431H95.68a.722.722,0,0,1,.715.715A.682.682,0,0,1,95.68,116.931Z" transform="translate(-88.2 -115.5)" fill="#fff"/>
              </g>
            </g>
          </g>
        </g>
      </g>
    </g>
    <g id="Group_47908" data-name="Group 47908" transform="translate(19.324 9.637)">
      <g id="Group_47907" data-name="Group 47907">
        <g id="Group_47841" data-name="Group 47841">
          <g id="Group_47833" data-name="Group 47833">
            <g id="Group_47779" data-name="Group 47779" transform="translate(0.065 21.66)">
              <g id="Group_47778" data-name="Group 47778">
                <path id="Path_46185" data-name="Path 46185" d="M54.679,66.019V57.369A5.827,5.827,0,0,0,48.955,52.1H39.524A5.691,5.691,0,0,0,33.8,57.824v8.13H54.679Z" transform="translate(-33.8 -52.1)" fill="#43a1ff"/>
              </g>
            </g>
            <g id="Group_47781" data-name="Group 47781" transform="translate(17.887 22.375)">
              <g id="Group_47780" data-name="Group 47780">
                <path id="Path_46186" data-name="Path 46186" d="M64.257,66.4V57.753A5.775,5.775,0,0,0,61.2,53.2V66.4Z" transform="translate(-61.2 -53.2)" fill="#2c8cff"/>
              </g>
            </g>
            <g id="Group_47783" data-name="Group 47783" transform="translate(0 22.375)">
              <g id="Group_47782" data-name="Group 47782">
                <path id="Path_46187" data-name="Path 46187" d="M36.757,66.4V53.2A5.732,5.732,0,0,0,33.7,58.273V66.4Z" transform="translate(-33.7 -53.2)" fill="#2c8cff"/>
              </g>
            </g>
            <g id="Group_47785" data-name="Group 47785" transform="translate(7.025 21.725)">
              <g id="Group_47784" data-name="Group 47784">
                <path id="Path_46188" data-name="Path 46188" d="M51.525,52.2v.911a3.5,3.5,0,0,1-3.512,3.512A3.554,3.554,0,0,1,44.5,53.111V52.2Z" transform="translate(-44.5 -52.2)" fill="#fff"/>
              </g>
            </g>
            <g id="Group_47787" data-name="Group 47787" transform="translate(8.13 17.302)">
              <g id="Group_47786" data-name="Group 47786">
                <path id="Path_46189" data-name="Path 46189" d="M50.948,45.465V50.6a2.332,2.332,0,0,1-2.342,2.342A2.444,2.444,0,0,1,46.2,50.538V45.4Z" transform="translate(-46.2 -45.4)" fill="#ffc27c"/>
              </g>
            </g>
            <g id="Group_47832" data-name="Group 47832" transform="translate(3.252)">
              <g id="Group_47789" data-name="Group 47789" transform="translate(3.642)">
                <g id="Group_47788" data-name="Group 47788">
                  <path id="Path_46190" data-name="Path 46190" d="M51.065,22.117v.065a3.4,3.4,0,0,1-3.382,3.382A3.365,3.365,0,0,1,44.3,22.377v-.2A3.4,3.4,0,0,1,47.682,18.8a3.346,3.346,0,0,1,3.382,3.317Z" transform="translate(-44.3 -18.8)" fill="#24272b"/>
                </g>
              </g>
              <g id="Group_47791" data-name="Group 47791" transform="translate(3.642 2.667)">
                <g id="Group_47790" data-name="Group 47790">
                  <path id="Path_46191" data-name="Path 46191" d="M51.065,23.55v.065A3.4,3.4,0,0,1,47.682,27,3.365,3.365,0,0,1,44.3,23.811a7.819,7.819,0,0,1,3.708-.911A6.788,6.788,0,0,1,51.065,23.55Z" transform="translate(-44.3 -22.9)" fill="#13181e"/>
                </g>
              </g>
              <g id="Group_47793" data-name="Group 47793" transform="translate(0.359 10.867)">
                <g id="Group_47792" data-name="Group 47792" transform="translate(0 0)">
                  <path id="Path_46192" data-name="Path 46192" d="M0,0H3.187V1.561H0Z" transform="translate(0 3.187) rotate(-89.885)" fill="#13181e"/>
                </g>
              </g>
              <g id="Group_47795" data-name="Group 47795" transform="translate(12.639 10.917)">
                <g id="Group_47794" data-name="Group 47794" transform="translate(0 0)">
                  <path id="Path_46193" data-name="Path 46193" d="M0,0H3.187V1.561H0Z" transform="translate(0 3.187) rotate(-89.885)" fill="#13181e"/>
                </g>
              </g>
              <g id="Group_47829" data-name="Group 47829" transform="translate(0 9.236)">
                <g id="Group_47826" data-name="Group 47826">
                  <g id="Group_47797" data-name="Group 47797" transform="translate(1.951)">
                    <g id="Group_47796" data-name="Group 47796">
                      <path id="Path_46194" data-name="Path 46194" d="M52.367,33.065v6.96a5.448,5.448,0,0,1-4.293,5.4A5.323,5.323,0,0,1,41.7,40.155V33Z" transform="translate(-41.7 -33)" fill="#ffc27c"/>
                    </g>
                  </g>
                  <g id="Group_47800" data-name="Group 47800" transform="translate(2.968 8.561)" opacity="0.3">
                    <g id="Group_47799" data-name="Group 47799">
                      <g id="Group_47798" data-name="Group 47798">
                        <path id="Path_46195" data-name="Path 46195" d="M44.328,48.138a5.644,5.644,0,0,1-1.041-1.5.35.35,0,0,1,.65-.26,4.066,4.066,0,0,0,.846,1.3.4.4,0,0,1,0,.52A.4.4,0,0,1,44.328,48.138Z" transform="translate(-43.262 -46.162)" fill="#fff"/>
                      </g>
                    </g>
                  </g>
                  <g id="Group_47803" data-name="Group 47803" transform="translate(2.602 7.025)" opacity="0.3">
                    <g id="Group_47802" data-name="Group 47802">
                      <g id="Group_47801" data-name="Group 47801">
                        <path id="Path_46196" data-name="Path 46196" d="M42.765,44.581a.825.825,0,0,0-.065-.39.359.359,0,1,1,.715-.065v.325a.364.364,0,0,1-.325.39C42.96,44.971,42.83,44.776,42.765,44.581Z" transform="translate(-42.7 -43.8)" fill="#fff"/>
                      </g>
                    </g>
                  </g>
                  <g id="Group_47805" data-name="Group 47805" transform="translate(12.619 3.317)">
                    <g id="Group_47804" data-name="Group 47804">
                      <path id="Path_46197" data-name="Path 46197" d="M58.1,38.1h0v3.968a1.984,1.984,0,1,0,0-3.968Z" transform="translate(-58.1 -38.1)" fill="#ffc27c"/>
                    </g>
                  </g>
                  <g id="Group_47807" data-name="Group 47807" transform="translate(12.619 3.438)">
                    <g id="Group_47806" data-name="Group 47806">
                      <path id="Path_46198" data-name="Path 46198" d="M59.661,39.01a1.816,1.816,0,0,0-1.171-.39V42.2c-.13,0-.26.065-.39.065V38.295a1.6,1.6,0,0,1,1.561.715Z" transform="translate(-58.1 -38.285)" fill="#f7b26d"/>
                    </g>
                  </g>
                  <g id="Group_47812" data-name="Group 47812" transform="translate(3.708 3.642)">
                    <g id="Group_47809" data-name="Group 47809" transform="translate(5.269)">
                      <g id="Group_47808" data-name="Group 47808">
                        <path id="Path_46199" data-name="Path 46199" d="M52.5,39.511v.781a.911.911,0,1,0,1.821,0v-.781a.889.889,0,0,0-.911-.911A.979.979,0,0,0,52.5,39.511Z" transform="translate(-52.5 -38.6)"/>
                      </g>
                    </g>
                    <g id="Group_47811" data-name="Group 47811">
                      <g id="Group_47810" data-name="Group 47810">
                        <path id="Path_46200" data-name="Path 46200" d="M44.4,39.511v.781a.911.911,0,1,0,1.821,0v-.781a.889.889,0,0,0-.911-.911A.93.93,0,0,0,44.4,39.511Z" transform="translate(-44.4 -38.6)"/>
                      </g>
                    </g>
                  </g>
                  <g id="Group_47815" data-name="Group 47815" transform="translate(6.96 5.724)">
                    <g id="Group_47814" data-name="Group 47814">
                      <g id="Group_47813" data-name="Group 47813">
                        <path id="Path_46201" data-name="Path 46201" d="M49.725,43.3a.307.307,0,0,1-.325-.325v-.846a.325.325,0,1,1,.65,0v.846A.307.307,0,0,1,49.725,43.3Z" transform="translate(-49.4 -41.8)"/>
                      </g>
                    </g>
                  </g>
                  <g id="Group_47817" data-name="Group 47817" transform="translate(0 3.317)">
                    <g id="Group_47816" data-name="Group 47816">
                      <path id="Path_46202" data-name="Path 46202" d="M40.651,38.1v3.968A1.972,1.972,0,0,1,38.7,40.051,1.916,1.916,0,0,1,40.651,38.1Z" transform="translate(-38.7 -38.1)" fill="#ffc27c"/>
                    </g>
                  </g>
                  <g id="Group_47819" data-name="Group 47819" transform="translate(5.365 8.781)">
                    <g id="Group_47818" data-name="Group 47818">
                      <path id="Path_46203" data-name="Path 46203" d="M50.754,47.215a2.009,2.009,0,0,1-3.773,0,.541.541,0,0,1,.52-.715h2.8A.556.556,0,0,1,50.754,47.215Z" transform="translate(-46.948 -46.5)"/>
                    </g>
                  </g>
                  <g id="Group_47821" data-name="Group 47821" transform="translate(6.244 9.464)">
                    <g id="Group_47820" data-name="Group 47820">
                      <path id="Path_46204" data-name="Path 46204" d="M50.381,48.038a1.354,1.354,0,0,1-2.081,0A1.354,1.354,0,0,1,50.381,48.038Z" transform="translate(-48.3 -47.55)" fill="#ef567b"/>
                    </g>
                  </g>
                  <g id="Group_47823" data-name="Group 47823" transform="translate(4.553 4.41)">
                    <g id="Group_47822" data-name="Group 47822">
                      <path id="Path_46205" data-name="Path 46205" d="M46.35,40.118a.325.325,0,1,1-.325-.325C46.155,39.728,46.35,39.923,46.35,40.118Z" transform="translate(-45.7 -39.78)" fill="#fff"/>
                    </g>
                  </g>
                  <g id="Group_47825" data-name="Group 47825" transform="translate(9.822 4.228)">
                    <g id="Group_47824" data-name="Group 47824">
                      <path id="Path_46206" data-name="Path 46206" d="M54.45,39.825a.325.325,0,1,1-.325-.325A.307.307,0,0,1,54.45,39.825Z" transform="translate(-53.8 -39.5)" fill="#fff"/>
                    </g>
                  </g>
                </g>
                <g id="Group_47828" data-name="Group 47828" transform="translate(0.39 3.374)">
                  <g id="Group_47827" data-name="Group 47827">
                    <path id="Path_46207" data-name="Path 46207" d="M39.3,38.911a1.948,1.948,0,0,1,1.171-.39V42.1c.13,0,.26.065.39.065V38.2a1.728,1.728,0,0,0-1.561.715Z" transform="translate(-39.3 -38.187)" fill="#f7b26d"/>
                  </g>
                </g>
              </g>
              <g id="Group_47831" data-name="Group 47831" transform="translate(0.325 3.447)">
                <g id="Group_47830" data-name="Group 47830">
                  <path id="Path_46208" data-name="Path 46208" d="M51.884,31.58c-3.382.26-4.358-1.106-4.358-1.106a6.083,6.083,0,0,1-7.09,1.366H39.2v-.846a6.927,6.927,0,1,1,13.854.065v.585Z" transform="translate(-39.2 -24.1)" fill="#24272b"/>
                </g>
              </g>
            </g>
          </g>
          <g id="Group_47840" data-name="Group 47840" transform="translate(10.147 4.553)" opacity="0.3">
            <g id="Group_47839" data-name="Group 47839">
              <g id="Group_47838" data-name="Group 47838">
                <g id="Group_47835" data-name="Group 47835" transform="translate(1.903 0.338)">
                  <g id="Group_47834" data-name="Group 47834">
                    <path id="Path_46209" data-name="Path 46209" d="M56.5,30.86c.065.2-.13.39-.325.455-.13.065-.39-.065-.455-.325a4.975,4.975,0,0,0-3.252-3.968q-.2-.1-.2-.2a.2.2,0,0,1,0-.26.36.36,0,0,1,.52-.2A5.717,5.717,0,0,1,56.5,30.86Z" transform="translate(-52.225 -26.319)" fill="#e5f5f9"/>
                  </g>
                </g>
                <g id="Group_47837" data-name="Group 47837">
                  <g id="Group_47836" data-name="Group 47836">
                    <path id="Path_46210" data-name="Path 46210" d="M50.666,26.255a.364.364,0,0,1-.39.325H49.69a.39.39,0,0,1,0-.781,2.44,2.44,0,0,1,.65.065A.3.3,0,0,1,50.666,26.255Z" transform="translate(-49.3 -25.8)" fill="#e5f5f9"/>
                  </g>
                </g>
              </g>
            </g>
          </g>
        </g>
        <g id="Group_47906" data-name="Group 47906" transform="translate(20.879 3.382)">
          <g id="Group_47845" data-name="Group 47845" transform="translate(5.269 0.195)">
            <g id="Group_47844" data-name="Group 47844">
              <g id="Group_47843" data-name="Group 47843">
                <g id="Group_47842" data-name="Group 47842">
                  <path id="Path_46211" data-name="Path 46211" d="M86.063,24.365v1.561a6.093,6.093,0,0,1-6.114,6.049A6.107,6.107,0,0,1,73.9,25.861V24.3Z" transform="translate(-73.9 -24.3)" fill="#fff"/>
                </g>
              </g>
            </g>
          </g>
          <g id="Group_47905" data-name="Group 47905">
            <g id="Group_47847" data-name="Group 47847" transform="translate(0.065 17.526)">
              <g id="Group_47846" data-name="Group 47846">
                <path id="Path_46212" data-name="Path 46212" d="M87.95,65.616,88.015,55.4a4.374,4.374,0,0,0-2.992-4.163c-.065,0-.2-.065-.26-.065a153.536,153.536,0,0,0-15.48-.065,4.42,4.42,0,0,0-3.317,4.228L65.9,65.681H87.95Z" transform="translate(-65.9 -50.945)" fill="#fc545d"/>
              </g>
            </g>
            <g id="Group_47849" data-name="Group 47849" transform="translate(18.863 17.757)">
              <g id="Group_47848" data-name="Group 47848">
                <path id="Path_46213" data-name="Path 46213" d="M98.052,65.74l.065-10.212a4.374,4.374,0,0,0-2.992-4.163c-.065,0-.2-.065-.26-.065L94.8,65.8h3.252Z" transform="translate(-94.8 -51.3)" fill="#f14448"/>
              </g>
            </g>
            <g id="Group_47851" data-name="Group 47851" transform="translate(0 17.627)">
              <g id="Group_47850" data-name="Group 47850">
                <path id="Path_46214" data-name="Path 46214" d="M69.182,65.67V51.1a4.42,4.42,0,0,0-3.317,4.228L65.8,65.67Z" transform="translate(-65.8 -51.1)" fill="#f14448"/>
              </g>
            </g>
            <g id="Group_47904" data-name="Group 47904" transform="translate(3.968)">
              <g id="Group_47903" data-name="Group 47903">
                <g id="Group_47902" data-name="Group 47902">
                  <g id="Group_47855" data-name="Group 47855" transform="translate(0.065 3.512)">
                    <g id="Group_47854" data-name="Group 47854">
                      <g id="Group_47853" data-name="Group 47853">
                        <g id="Group_47852" data-name="Group 47852">
                          <path id="Path_46215" data-name="Path 46215" d="M72,31.091v4.293l13.919.065V29.4A3.481,3.481,0,0,1,82.8,31.221Z" transform="translate(-72 -29.4)" fill="#13181e"/>
                        </g>
                      </g>
                    </g>
                  </g>
                  <g id="Group_47892" data-name="Group 47892" transform="translate(0 4.943)">
                    <g id="Group_47857" data-name="Group 47857" transform="translate(3.312 10.274)">
                      <g id="Group_47856" data-name="Group 47856">
                        <path id="Path_46216" data-name="Path 46216" d="M84.672,51.236V53.9a.767.767,0,0,1-1.041.715l-2.6-.846a.556.556,0,0,0-.455,0l-2.6.846A.723.723,0,0,1,77,53.9V51.236a3.865,3.865,0,0,1,6.634-2.667A4.1,4.1,0,0,1,84.672,51.236Z" transform="translate(-76.992 -47.396)" fill="#f14448"/>
                      </g>
                    </g>
                    <g id="Group_47859" data-name="Group 47859" transform="translate(3.312 9.754)">
                      <g id="Group_47858" data-name="Group 47858">
                        <path id="Path_46217" data-name="Path 46217" d="M84.672,50.436V53.1a.767.767,0,0,1-1.041.715l-2.6-.846a.556.556,0,0,0-.455,0l-2.6.846A.723.723,0,0,1,77,53.1V50.436a3.865,3.865,0,0,1,6.634-2.667A3.965,3.965,0,0,1,84.672,50.436Z" transform="translate(-76.992 -46.596)" fill="#fff"/>
                      </g>
                    </g>
                    <g id="Group_47864" data-name="Group 47864" transform="translate(4.748 11.123)">
                      <g id="Group_47861" data-name="Group 47861">
                        <g id="Group_47860" data-name="Group 47860">
                          <path id="Path_46218" data-name="Path 46218" d="M79.2,48.7v1.951a2.193,2.193,0,0,0,2.211,2.211,2.221,2.221,0,0,0,2.211-2.211V48.7Z" transform="translate(-79.2 -48.7)" fill="#ffc27c"/>
                        </g>
                      </g>
                      <g id="Group_47863" data-name="Group 47863" transform="translate(0.065)">
                        <g id="Group_47862" data-name="Group 47862">
                          <path id="Path_46219" data-name="Path 46219" d="M83.658,48.765v1.951a2.271,2.271,0,0,1-.65,1.561l-.065.065a2.311,2.311,0,0,0,.13-.65,2.013,2.013,0,0,0-1.951-2.016H79.3V48.7Z" transform="translate(-79.3 -48.7)" fill="#f7b26d"/>
                        </g>
                      </g>
                    </g>
                    <g id="Group_47866" data-name="Group 47866" transform="translate(1.886)">
                      <g id="Group_47865" data-name="Group 47865">
                        <path id="Path_46220" data-name="Path 46220" d="M85.077,31.665v6.7a5.248,5.248,0,0,1-4.1,5.2A5.152,5.152,0,0,1,74.8,38.495l.065-6.895Z" transform="translate(-74.8 -31.6)" fill="#ffc27c"/>
                      </g>
                    </g>
                    <g id="Group_47869" data-name="Group 47869" transform="translate(2.838 8.171)" opacity="0.3">
                      <g id="Group_47868" data-name="Group 47868">
                        <g id="Group_47867" data-name="Group 47867">
                          <path id="Path_46221" data-name="Path 46221" d="M77.263,46.138a4.578,4.578,0,0,1-.976-1.5.35.35,0,1,1,.65-.26,3.231,3.231,0,0,0,.846,1.236.368.368,0,1,1-.52.52Z" transform="translate(-76.263 -44.162)" fill="#fff"/>
                        </g>
                      </g>
                    </g>
                    <g id="Group_47872" data-name="Group 47872" transform="translate(2.537 6.765)" opacity="0.3">
                      <g id="Group_47871" data-name="Group 47871">
                        <g id="Group_47870" data-name="Group 47870">
                          <path id="Path_46222" data-name="Path 46222" d="M75.8,42.781v-.39a.359.359,0,1,1,.715-.065v.325a.364.364,0,0,1-.325.39C76.06,43.106,75.865,42.976,75.8,42.781Z" transform="translate(-75.8 -42)" fill="#fff"/>
                        </g>
                      </g>
                    </g>
                    <g id="Group_47874" data-name="Group 47874" transform="translate(12.163 3.252)">
                      <g id="Group_47873" data-name="Group 47873">
                        <path id="Path_46223" data-name="Path 46223" d="M90.6,36.6v3.838a1.888,1.888,0,0,0,1.886-1.886A1.944,1.944,0,0,0,90.6,36.6Z" transform="translate(-90.6 -36.6)" fill="#ffc27c"/>
                      </g>
                    </g>
                    <g id="Group_47879" data-name="Group 47879" transform="translate(3.577 3.447)">
                      <g id="Group_47876" data-name="Group 47876" transform="translate(5.073 0.065)">
                        <g id="Group_47875" data-name="Group 47875">
                          <path id="Path_46224" data-name="Path 46224" d="M85.2,37.911v.781a.911.911,0,0,0,1.821,0v-.781a.911.911,0,1,0-1.821,0Z" transform="translate(-85.2 -37)"/>
                        </g>
                      </g>
                      <g id="Group_47878" data-name="Group 47878">
                        <g id="Group_47877" data-name="Group 47877">
                          <path id="Path_46225" data-name="Path 46225" d="M77.4,37.811v.781a.911.911,0,1,0,1.821,0v-.781a.889.889,0,0,0-.911-.911A.977.977,0,0,0,77.4,37.811Z" transform="translate(-77.4 -36.9)"/>
                        </g>
                      </g>
                    </g>
                    <g id="Group_47882" data-name="Group 47882" transform="translate(6.7 5.984)">
                      <g id="Group_47881" data-name="Group 47881">
                        <g id="Group_47880" data-name="Group 47880">
                          <path id="Path_46226" data-name="Path 46226" d="M82.525,42.231a.307.307,0,0,1-.325-.325v-.781a.325.325,0,0,1,.65,0v.781A.307.307,0,0,1,82.525,42.231Z" transform="translate(-82.2 -40.8)"/>
                        </g>
                      </g>
                    </g>
                    <g id="Group_47884" data-name="Group 47884" transform="translate(0 3.187)">
                      <g id="Group_47883" data-name="Group 47883">
                        <path id="Path_46227" data-name="Path 46227" d="M73.786,36.5v3.838a1.919,1.919,0,0,1,0-3.838Z" transform="translate(-71.9 -36.5)" fill="#ffc27c"/>
                      </g>
                    </g>
                    <g id="Group_47887" data-name="Group 47887" transform="translate(5.243 8.56)">
                      <g id="Group_47886" data-name="Group 47886">
                        <g id="Group_47885" data-name="Group 47885">
                          <path id="Path_46228" data-name="Path 46228" d="M80.051,45.307a.325.325,0,0,1,.52-.39,1.476,1.476,0,0,0,2.277,0,.325.325,0,0,1,.52.39A2.2,2.2,0,0,1,80.051,45.307Z" transform="translate(-79.961 -44.761)"/>
                        </g>
                      </g>
                    </g>
                    <g id="Group_47889" data-name="Group 47889" transform="translate(4.358 4.228)">
                      <g id="Group_47888" data-name="Group 47888">
                        <path id="Path_46229" data-name="Path 46229" d="M79.25,38.425a.325.325,0,1,1-.325-.325A.307.307,0,0,1,79.25,38.425Z" transform="translate(-78.6 -38.1)" fill="#fff"/>
                      </g>
                    </g>
                    <g id="Group_47891" data-name="Group 47891" transform="translate(9.431 4.033)">
                      <g id="Group_47890" data-name="Group 47890">
                        <path id="Path_46230" data-name="Path 46230" d="M87.05,38.125a.325.325,0,1,1-.325-.325A.348.348,0,0,1,87.05,38.125Z" transform="translate(-86.4 -37.8)" fill="#fff"/>
                      </g>
                    </g>
                  </g>
                  <g id="Group_47894" data-name="Group 47894" transform="translate(0.13)">
                    <g id="Group_47893" data-name="Group 47893">
                      <path id="Path_46231" data-name="Path 46231" d="M72.1,26.146v3.773l10.927.065A3.554,3.554,0,0,0,86.6,26.472v-.52a1.818,1.818,0,0,0-1.821-1.821L74.246,24A2.166,2.166,0,0,0,72.1,26.146Z" transform="translate(-72.1 -24)" fill="#24272b"/>
                    </g>
                  </g>
                  <g id="Group_47901" data-name="Group 47901" transform="translate(5.789 1.041)" opacity="0.2">
                    <g id="Group_47897" data-name="Group 47897">
                      <g id="Group_47896" data-name="Group 47896">
                        <g id="Group_47895" data-name="Group 47895">
                          <path id="Path_46232" data-name="Path 46232" d="M81.385,26.771h3.447a.585.585,0,1,0,0-1.171H81.385a.585.585,0,0,0,0,1.171Z" transform="translate(-80.8 -25.6)" fill="#fff"/>
                        </g>
                      </g>
                    </g>
                    <g id="Group_47900" data-name="Group 47900" transform="translate(5.529)">
                      <g id="Group_47899" data-name="Group 47899">
                        <g id="Group_47898" data-name="Group 47898">
                          <path id="Path_46233" data-name="Path 46233" d="M89.885,26.771h.52a.585.585,0,1,0,0-1.171h-.52a.585.585,0,1,0,0,1.171Z" transform="translate(-89.3 -25.6)" fill="#fff"/>
                        </g>
                      </g>
                    </g>
                  </g>
                </g>
              </g>
            </g>
          </g>
        </g>
      </g>
    </g>
  </g>
</svg>
