<svg xmlns="http://www.w3.org/2000/svg" width="99.38" height="74.794" viewBox="0 0 99.38 74.794">
  <g id="add-svgrepo-com_3_" data-name="add-svgrepo-com (3)" transform="translate(0 -63.333)">
    <path id="Path_44735" data-name="Path 44735" d="M66.415,125.8A20.642,20.642,0,0,1,91.091,105.56a22.4,22.4,0,0,0-41.6-16.151,15.819,15.819,0,1,0-11,27.436c-.089,0-.176.007-.265.007A15.825,15.825,0,0,1,23.192,105.96a16.8,16.8,0,0,0-9.614,15.189h0a16.8,16.8,0,0,0,16.8,16.8h40A20.536,20.536,0,0,1,66.415,125.8Z" transform="translate(-10.943 -10.942)" fill="#ecf7ff"/>
    <g id="Group_47580" data-name="Group 47580" transform="translate(0 63.333)">
      <path id="Path_44736" data-name="Path 44736" d="M94.065,100.051A2.635,2.635,0,0,0,90,103.406a18,18,0,1,1-31.684,14.188v-.007c-.041-.267-.074-.536-.1-.807-.007-.069-.014-.138-.02-.206-.02-.214-.036-.429-.049-.644,0-.077-.01-.153-.013-.23-.013-.28-.021-.562-.021-.845A18.008,18.008,0,0,1,79.635,97.2a2.635,2.635,0,0,0,3.043-1.851,25.037,25.037,0,0,0-44.916-20.81A18.457,18.457,0,0,0,9.355,90.086a18.675,18.675,0,0,0,.3,3.324,19.439,19.439,0,0,0,9.786,36.235H58.154a23.267,23.267,0,1,0,35.91-29.594Zm-39.2,24.324H19.439a14.165,14.165,0,0,1-8.421-25.558,18.415,18.415,0,0,0,16.266,9.727c.081,0,.162,0,.242-.005l.061,0a2.635,2.635,0,0,0,.005-5.27A13.184,13.184,0,1,1,36.757,80.4a2.636,2.636,0,0,0,4.151-.768A19.765,19.765,0,0,1,78.124,91.671c-.671-.058-1.344-.088-2.015-.088a23.3,23.3,0,0,0-23.271,23.271q0,.3.008.608c0,.117.009.233.013.35,0,.083.006.166.01.248.008.163.019.326.031.489,0,.033,0,.067.007.1A23.019,23.019,0,0,0,54.867,124.375Z" transform="translate(0 -63.333)" fill="#204f74"/>
      <path id="Path_44737" data-name="Path 44737" d="M355.927,281.952h-5.372V276.58a2.635,2.635,0,1,0-5.271,0v5.372h-5.372a2.635,2.635,0,1,0,0,5.271h5.372v5.372a2.635,2.635,0,1,0,5.271,0v-5.372h5.372a2.635,2.635,0,1,0,0-5.271Z" transform="translate(-271.812 -233.065)" fill="#204f74"/>
    </g>
  </g>
</svg>
