<svg xmlns="http://www.w3.org/2000/svg" xmlns:xlink="http://www.w3.org/1999/xlink" width="42.7" height="42.7" viewBox="0 0 42.7 42.7">
  <defs>
    <clipPath id="clip-path">
      <rect id="Rectangle_19611" data-name="Rectangle 19611" width="42.7" height="42.7" transform="translate(0 0)" fill="#fff"/>
    </clipPath>
  </defs>
  <g id="amnesia" clip-path="url(#clip-path)">
    <path id="Path_42404" data-name="Path 42404" d="M24.273,32.3a3.165,3.165,0,0,1,.535-2.756c3.841-3.47,4.684-5.481,4.762-9.724" transform="translate(1.521 1.432)" fill="none" stroke="#fff" stroke-linecap="round" stroke-linejoin="round" stroke-width="2"/>
    <path id="Path_42405" data-name="Path 42405" d="M5.457,11.952a9.321,9.321,0,0,0-1.976,5.284,7.685,7.685,0,0,1-.733,2.342c-.146.626.52,1.268.786,1.886a.909.909,0,0,1-.045.8,7.309,7.309,0,0,1-2.06,2.27c-.48.369-.846.7-.844,1.272,0,.669.421,1.107,1.322,1.383,1.726.53-.361,1.881-.361,1.881a.573.573,0,0,0,.183.792,5.1,5.1,0,0,1,.81.772c-.853.613-.389,1.291-.389,1.291a2.5,2.5,0,0,1,.786.332.5.5,0,0,1,.159.614,2.048,2.048,0,0,0-.317,1.7,2.71,2.71,0,0,0,2.483,1.94A19.276,19.276,0,0,0,9.2,36.158c2.916-.394,4.209,2.091,5.041,4.136a1.359,1.359,0,0,0,1.6.8L25.9,38.509a1.357,1.357,0,0,0,.934-1.788c-.127-.341-.256-.705-.38-1.083" transform="translate(0.037 0.938)" fill="none" stroke="#fff" stroke-linecap="round" stroke-linejoin="round" stroke-width="2"/>
    <path id="Path_42406" data-name="Path 42406" d="M16.439,7.961q-.588-.031-1.165-.031a14.31,14.31,0,0,0-8.108,2.3" transform="translate(0.45 0.685)" fill="none" stroke="#fff" stroke-linecap="round" stroke-linejoin="round" stroke-width="2"/>
    <path id="Path_42407" data-name="Path 42407" d="M17.565,26.374a1.851,1.851,0,0,0,.913.419l.1.013a1.894,1.894,0,0,1,.962.361,2.466,2.466,0,0,0,3.955-1.728,2.42,2.42,0,0,0,.008-.353" transform="translate(1.103 1.763)" fill="none" stroke="#fff" stroke-linecap="round" stroke-linejoin="round" stroke-width="2"/>
    <path id="Path_42408" data-name="Path 42408" d="M17.394,25.17,18.7,29.623a.5.5,0,0,1-.478.639h-1.5a.78.78,0,0,1-.743-.542l-1.434-4.488" transform="translate(0.914 1.768)" fill="none" stroke="#fff" stroke-linecap="round" stroke-linejoin="round" stroke-width="2"/>
    <path id="Path_42409" data-name="Path 42409" d="M19.537,24.452a3.7,3.7,0,0,0,6.212-2.093" transform="translate(1.227 1.592)" fill="none" stroke="#fff" stroke-linecap="round" stroke-linejoin="round" stroke-width="2"/>
    <path id="Path_42410" data-name="Path 42410" d="M9.094,23.636a2.881,2.881,0,0,0,2.012-.82" transform="translate(0.571 1.621)" fill="none" stroke="#fff" stroke-linecap="round" stroke-linejoin="round" stroke-width="2"/>
    <path id="Path_42411" data-name="Path 42411" d="M16.784,11.645a3.677,3.677,0,0,0-3.459,1.349,2.8,2.8,0,0,0-4.088,1.958,3.3,3.3,0,0,0-2.318,4.825,2.884,2.884,0,0,0-.1,3.207" transform="translate(0.401 0.916)" fill="none" stroke="#fff" stroke-linecap="round" stroke-linejoin="round" stroke-width="2"/>
    <path id="Path_42412" data-name="Path 42412" d="M17.941,19.171a2.758,2.758,0,0,0-3.1-.745A2.068,2.068,0,0,0,11.69,19.67a1.484,1.484,0,0,0-.638,2.9,2.341,2.341,0,0,0,2.883,2.46,1.838,1.838,0,0,0,2.787.169,2.591,2.591,0,0,0,3.89-1.3" transform="translate(0.622 1.323)" fill="none" stroke="#fff" stroke-linecap="round" stroke-linejoin="round" stroke-width="2"/>
    <path id="Path_42413" data-name="Path 42413" d="M20.205,19.66a1.672,1.672,0,0,0-3.186.4" transform="translate(1.069 1.359)" fill="none" stroke="#fff" stroke-linecap="round" stroke-linejoin="round" stroke-width="2"/>
    <path id="Path_42414" data-name="Path 42414" d="M22.569,8.726A1.578,1.578,0,1,0,20.992,10.3,1.578,1.578,0,0,0,22.569,8.726Z" transform="translate(1.22 0.636)" fill="none" stroke="#fff" stroke-linecap="round" stroke-linejoin="round" stroke-width="2"/>
    <path id="Path_42415" data-name="Path 42415" d="M27.462,15.626a1.993,1.993,0,1,0-1.993,1.993A1.993,1.993,0,0,0,27.462,15.626Z" transform="translate(1.475 1.044)" fill="none" stroke="#fff" stroke-linecap="round" stroke-linejoin="round" stroke-width="2"/>
    <path id="Path_42416" data-name="Path 42416" d="M38.634,11.055a1.993,1.993,0,1,0-1.993,1.993A1.993,1.993,0,0,0,38.634,11.055Z" transform="translate(2.177 0.757)" fill="none" stroke="#fff" stroke-linecap="round" stroke-linejoin="round" stroke-width="2"/>
    <path id="Path_42417" data-name="Path 42417" d="M28.053,9.866a1.7,1.7,0,1,0-1.7,1.7A1.7,1.7,0,0,0,28.053,9.866Z" transform="translate(1.548 0.7)" fill="none" stroke="#fff" stroke-linecap="round" stroke-linejoin="round" stroke-width="2"/>
    <path id="Path_42418" data-name="Path 42418" d="M32.74,13.694a1.7,1.7,0,1,0-1.7,1.7A1.7,1.7,0,0,0,32.74,13.694Z" transform="translate(1.843 0.941)" fill="none" stroke="#fff" stroke-linecap="round" stroke-linejoin="round" stroke-width="2"/>
    <path id="Path_42419" data-name="Path 42419" d="M26.608,4.261A2.034,2.034,0,1,0,24.573,6.3,2.034,2.034,0,0,0,26.608,4.261Z" transform="translate(1.416 0.327)" fill="none" stroke="#fff" stroke-linecap="round" stroke-linejoin="round" stroke-width="2"/>
    <path id="Path_42420" data-name="Path 42420" d="M39.635,2.454a1.868,1.868,0,1,0-1.868,1.868A1.868,1.868,0,0,0,39.635,2.454Z" transform="translate(2.255 0.224)" fill="none" stroke="#fff" stroke-linecap="round" stroke-linejoin="round" stroke-width="2"/>
    <path id="Path_42421" data-name="Path 42421" d="M34.171,18.941a1.245,1.245,0,1,0-1.245,1.246A1.245,1.245,0,0,0,34.171,18.941Z" transform="translate(1.99 1.299)" fill="none" stroke="#fff" stroke-linecap="round" stroke-linejoin="round" stroke-width="2"/>
    <path id="Path_42422" data-name="Path 42422" d="M18.858,4.488a1.245,1.245,0,1,0-1.245,1.245A1.245,1.245,0,0,0,18.858,4.488Z" transform="translate(1.028 0.391)" fill="none" stroke="#fff" stroke-linecap="round" stroke-linejoin="round" stroke-width="2"/>
    <path id="Path_42423" data-name="Path 42423" d="M33.2,5.608a2.146,2.146,0,1,0,0,3.035A2.146,2.146,0,0,0,33.2,5.608Z" transform="translate(1.856 0.5)" fill="none" stroke="#fff" stroke-linecap="round" stroke-linejoin="round" stroke-width="2"/>
    <path id="Path_42424" data-name="Path 42424" d="M20.426,13.748a1.287,1.287,0,1,0-1.287,1.287A1.287,1.287,0,0,0,20.426,13.748Z" transform="translate(1.121 0.97)" fill="none" stroke="#fff" stroke-linecap="round" stroke-linejoin="round" stroke-width="2"/>
  </g>
</svg>
