<svg xmlns="http://www.w3.org/2000/svg" width="15.303" height="10.487" viewBox="0 0 15.303 10.487">
  <g id="back-comback-hom-svgrepo-com" transform="translate(-6.906 -9.928)">
    <path id="Path_47977" data-name="Path 47977" d="M10.928,10.213a31.476,31.476,0,0,0-2.877,2.952c-.481.585-1.207,1.226-1.141,2.047s.764,1.17,1.273,1.66a15.375,15.375,0,0,1,2.424,2.99c.811,1.283,2.83.1,2.037-1.188a19.864,19.864,0,0,0-1.717-2.339,15.243,15.243,0,0,0-1.1-1.132c-.208-.2-.811-1.075-.641-.462l-.123.943a16.837,16.837,0,0,1,3.509-3.773c1.122-1.019-.547-2.688-1.67-1.66Z" transform="translate(0 0)" fill="#2b6050"/>
    <path id="Path_47978" data-name="Path 47978" d="M9.332,16.852a102.936,102.936,0,0,0,11.819-.094c1.5-.1,1.519-2.462,0-2.358a102.939,102.939,0,0,1-11.819.094c-1.519-.066-1.509,2.292,0,2.358Z" transform="translate(-0.073 -0.254)" fill="#2b6050"/>
  </g>
</svg>
