<svg xmlns="http://www.w3.org/2000/svg" width="18.849" height="18.415" viewBox="0 0 18.849 18.415">
  <g id="calendar-mark-svgrepo-com" transform="translate(-1.25 -1.75)">
    <path id="Path_42255" data-name="Path 42255" d="M2,10.939C2,7.668,2,6.033,3.016,5.016S5.668,4,8.939,4h3.47c3.271,0,4.907,0,5.923,1.016s1.016,2.652,1.016,5.923v1.735c0,3.271,0,4.907-1.016,5.923s-2.652,1.016-5.923,1.016H8.939c-3.271,0-4.907,0-5.923-1.016S2,15.946,2,12.674Z" transform="translate(0 -0.199)" fill="none" stroke="#2b6050" stroke-width="1.5" opacity="0.5"/>
    <path id="Path_42256" data-name="Path 42256" d="M7,3.8V2.5" transform="translate(-0.663)" fill="none" stroke="#94afa7" stroke-linecap="round" stroke-width="1.5"/>
    <path id="Path_42257" data-name="Path 42257" d="M17,3.8V2.5" transform="translate(-1.989)" fill="none" stroke="#94afa7" stroke-linecap="round" stroke-width="1.5"/>
    <path id="Path_42258" data-name="Path 42258" d="M2,9H19.349" transform="translate(0 -0.862)" fill="none" stroke="#94afa7" stroke-linecap="round" stroke-width="1.5"/>
    <circle id="Ellipse_358" data-name="Ellipse 358" cx="1.301" cy="1.301" r="1.301" transform="translate(13.277 13.343)" fill="none" stroke="#2b6050" stroke-width="1.5" opacity="0.5"/>
  </g>
</svg>
