<svg xmlns="http://www.w3.org/2000/svg" width="18.849" height="19.474" viewBox="0 0 18.849 19.474">
  <g id="chat-round-line-svgrepo-com" transform="translate(-1.25 -1.25)">
    <path id="Path_42259" data-name="Path 42259" d="M10.674,19.974a8.835,8.835,0,0,0,8.674-8.987A8.835,8.835,0,0,0,10.674,2,8.835,8.835,0,0,0,2,10.987a9.215,9.215,0,0,0,.905,4,1.515,1.515,0,0,1,.116,1.032l-.517,2a1.148,1.148,0,0,0,1.381,1.431l1.931-.535a1.373,1.373,0,0,1,1,.12A8.393,8.393,0,0,0,10.674,19.974Z" fill="none" stroke="#94afa7" stroke-width="1.5"/>
    <path id="Path_42260" data-name="Path 42260" d="M8,10.5h8" transform="translate(-1.326 -0.861)" fill="none" stroke="#94afa7" stroke-linecap="round" stroke-width="1.5" opacity="0.5"/>
    <path id="Path_42261" data-name="Path 42261" d="M8,14h5.5" transform="translate(-1.097 -1.216)" fill="none" stroke="#94afa7" stroke-linecap="round" stroke-width="1.5" opacity="0.5"/>
  </g>
</svg>
