<svg xmlns="http://www.w3.org/2000/svg" width="83.133" height="88.867" viewBox="0 0 83.133 88.867">
  <g id="configurations" transform="translate(-6 -2)">
    <g id="Group_47728" data-name="Group 47728" transform="translate(6 2)">
      <path id="XMLID_64_" d="M79.35,58.4V49.118H74.374a22.767,22.767,0,0,0-2.809-7.086l3.52-3.658-6.312-6.559-3.52,3.71a20.124,20.124,0,0,0-6.821-2.919V27.384H49.5v5.17a21,21,0,0,0-6.821,2.919l-3.52-3.658-6.312,6.559,3.52,3.658a21.807,21.807,0,0,0-2.809,7.086H28.578V58.4h4.976a22.767,22.767,0,0,0,2.809,7.086l-3.52,3.658,6.312,6.559,3.52-3.658A20.124,20.124,0,0,0,49.5,74.967v5.17h8.935v-5.17a21,21,0,0,0,6.821-2.919l3.52,3.658,6.312-6.559-3.52-3.658A21.806,21.806,0,0,0,74.374,58.4Z" transform="translate(-12.397 -9.192)" fill="#fff"/>
      <path id="Path_46102" data-name="Path 46102" d="M58.006,80.788H49.071A1.075,1.075,0,0,1,48,79.713V75.388A21.03,21.03,0,0,1,42.415,73l-2.91,3.023a1.108,1.108,0,0,1-1.549,0l-6.312-6.558a1.075,1.075,0,0,1,0-1.491L34.6,64.906a23.79,23.79,0,0,1-2.326-5.852H28.153a1.075,1.075,0,0,1-1.075-1.075V48.694a1.075,1.075,0,0,1,1.075-1.075h4.116a22.732,22.732,0,0,1,2.326-5.857L31.643,38.7a1.075,1.075,0,0,1,0-1.491l6.312-6.559a1.108,1.108,0,0,1,1.549,0l2.914,3.028A22.01,22.01,0,0,1,48,31.292V26.961a1.075,1.075,0,0,1,1.075-1.075h8.936a1.075,1.075,0,0,1,1.075,1.075v4.377a21.078,21.078,0,0,1,5.576,2.38l2.91-3.067a1.076,1.076,0,0,1,.776-.335h0a1.075,1.075,0,0,1,.775.33l6.312,6.559a1.075,1.075,0,0,1,0,1.491l-2.957,3.072c.1.178.2.358.292.538a1.075,1.075,0,0,1-1.9,1c-.2-.389-.42-.769-.646-1.143a1.073,1.073,0,0,1,.144-1.3l2.8-2.912-4.815-5-2.746,2.895A1.074,1.074,0,0,1,64.229,36a18.92,18.92,0,0,0-6.455-2.763,1.074,1.074,0,0,1-.842-1.049V28.036H50.145v4.1a1.075,1.075,0,0,1-.835,1.048,19.872,19.872,0,0,0-6.471,2.77,1.075,1.075,0,0,1-1.364-.154L38.73,32.942l-4.82,5.009,2.8,2.912a1.074,1.074,0,0,1,.138,1.312,20.641,20.641,0,0,0-2.67,6.736,1.075,1.075,0,0,1-1.053.858h-3.9V56.9h3.9a1.075,1.075,0,0,1,1.051.851,21.662,21.662,0,0,0,2.677,6.752,1.073,1.073,0,0,1-.144,1.3l-2.8,2.912,4.82,5.008,2.746-2.852a1.076,1.076,0,0,1,1.373-.148A18.92,18.92,0,0,0,49.3,73.493a1.074,1.074,0,0,1,.842,1.049v4.1h6.786v-4.1a1.075,1.075,0,0,1,.835-1.048,19.859,19.859,0,0,0,6.471-2.77,1.073,1.073,0,0,1,1.364.153l2.746,2.852,4.82-5.008-2.8-2.912a1.074,1.074,0,0,1-.138-1.312,20.638,20.638,0,0,0,2.67-6.737,1.075,1.075,0,0,1,1.053-.858h3.9V49.769h-3.9a1.075,1.075,0,0,1-1.051-.851c-.136-.641-.3-1.282-.5-1.9a1.075,1.075,0,0,1,2.055-.636c.126.408.242.823.346,1.241h4.122A1.075,1.075,0,0,1,80,48.693v9.284a1.075,1.075,0,0,1-1.075,1.075H74.809a22.751,22.751,0,0,1-2.326,5.857l2.951,3.067a1.075,1.075,0,0,1,0,1.491l-6.312,6.558a1.108,1.108,0,0,1-1.549,0L64.659,73a21.963,21.963,0,0,1-5.576,2.383v4.331a1.076,1.076,0,0,1-1.076,1.076Z" transform="translate(-11.972 -8.768)" fill="#00126d"/>
      <g id="Group_47724" data-name="Group 47724" transform="translate(28.923 31.932)">
        <path id="Path_46103" data-name="Path 46103" d="M67.693,49.177A11.556,11.556,0,0,1,63.476,71.5a11.726,11.726,0,0,1-1.325-.081,11.558,11.558,0,1,0,5.542-22.24Z" transform="translate(-50.832 -47.299)" fill="#96d2fa"/>
        <path id="Path_46104" data-name="Path 46104" d="M72.139,59.9a11.558,11.558,0,0,0-7.352-10.759,11.7,11.7,0,0,0-1.325-.081,11.556,11.556,0,0,0-4.217,22.321,11.7,11.7,0,0,0,1.325.081A11.566,11.566,0,0,0,72.139,59.9Z" transform="translate(-47.925 -47.267)" fill="#b7e1fd"/>
        <path id="Path_46105" data-name="Path 46105" d="M59,71.83A12.645,12.645,0,0,1,47.18,54.7a1.075,1.075,0,0,1,2.01.765,10.506,10.506,0,1,0,1.939-3.2,1.075,1.075,0,1,1-1.611-1.423A12.641,12.641,0,1,1,59,71.83Z" transform="translate(-46.357 -46.556)" fill="#00126d"/>
      </g>
      <g id="Group_47727" data-name="Group 47727">
        <path id="Path_46106" data-name="Path 46106" d="M63.575,90.554A1.075,1.075,0,0,1,62.5,89.479V75.747a1.075,1.075,0,1,1,2.15,0V88.39A38.937,38.937,0,0,0,80.016,13.942a1.075,1.075,0,0,1,.89-1.956A41.263,41.263,0,0,1,105.142,49.4c0,22.693-18.647,41.153-41.567,41.153Z" transform="translate(-22.008 -4.802)" fill="#00126d"/>
        <path id="Path_46107" data-name="Path 46107" d="M29.968,85.142a1.076,1.076,0,0,1-.463-.1A41.379,41.379,0,0,1,6,47.961C6,25.27,24.647,6.809,47.567,6.809a1.075,1.075,0,0,1,1.075,1.075V21.069a1.075,1.075,0,0,1-2.15,0V8.973A39.245,39.245,0,0,0,8.15,47.961,39.217,39.217,0,0,0,30.433,83.1a1.075,1.075,0,0,1-.465,2.045Z" transform="translate(-6 -3.363)" fill="#00126d"/>
        <g id="Group_47725" data-name="Group 47725" transform="translate(16.346 72.542)">
          <ellipse id="Ellipse_493" data-name="Ellipse 493" cx="7.16" cy="7.087" rx="7.16" ry="7.087" transform="translate(1.074 1.076)" fill="#e8b200"/>
          <path id="Path_46108" data-name="Path 46108" d="M37.043,119.546a8.163,8.163,0,1,1,8.235-8.162A8.208,8.208,0,0,1,37.043,119.546Zm0-14.174a6.013,6.013,0,1,0,6.085,6.012A6.056,6.056,0,0,0,37.043,105.372Z" transform="translate(-28.808 -103.221)" fill="#00126d"/>
        </g>
        <g id="Group_47726" data-name="Group 47726" transform="translate(49.934)">
          <ellipse id="Ellipse_494" data-name="Ellipse 494" cx="7.16" cy="7.087" rx="7.16" ry="7.087" transform="translate(1.075 1.075)" fill="#ffcb00"/>
          <path id="Path_46109" data-name="Path 46109" d="M83.911,18.324a8.162,8.162,0,1,1,8.235-8.162A8.208,8.208,0,0,1,83.911,18.324Zm0-14.174A6.013,6.013,0,1,0,90,10.162,6.056,6.056,0,0,0,83.911,4.15Z" transform="translate(-75.676 -2)" fill="#00126d"/>
        </g>
      </g>
    </g>
  </g>
</svg>
