<svg xmlns="http://www.w3.org/2000/svg" width="85.111" height="96.331" viewBox="0 0 85.111 96.331">
  <g id="copy_832121" transform="translate(-30.816)">
    <g id="Group_48396" data-name="Group 48396" transform="translate(32.44 1.605)">
      <path id="Path_47783" data-name="Path 47783" d="M108.092,25.194V94.23H43.872a6.42,6.42,0,0,1-6.422-6.422V25.194a6.42,6.42,0,0,1,6.422-6.422H51.9a3.221,3.221,0,0,1,3.211-3.211h4.817V10.744a3.221,3.221,0,0,1,3.211-3.211H82.4a3.221,3.221,0,0,1,3.211,3.211v4.817h4.817a3.221,3.221,0,0,1,3.211,3.211h8.028a6.42,6.42,0,0,1,6.422,6.422Z" transform="translate(-37.45 -7.533)" fill="#f7f9b8"/>
      <g id="Group_48393" data-name="Group 48393" transform="translate(14.45)">
        <path id="Path_47784" data-name="Path 47784" d="M364.422,73.688v69.037h-4.817V73.688a6.42,6.42,0,0,0-6.422-6.422H358a6.42,6.42,0,0,1,6.422,6.422Z" transform="translate(-308.229 -56.028)" fill="#dee265"/>
        <path id="Path_47785" data-name="Path 47785" d="M117.461,50.2h35.321a3.211,3.211,0,0,1,3.211,3.211v6.422a3.211,3.211,0,0,1-3.211,3.211H117.461a3.211,3.211,0,0,1-3.211-3.211V53.411A3.211,3.211,0,0,1,117.461,50.2Z" transform="translate(-114.25 -42.172)" fill="#e3e687"/>
        <path id="Path_47786" data-name="Path 47786" d="M182.605,10.744v4.817H156.917V10.744a3.221,3.221,0,0,1,3.211-3.211h19.266A3.221,3.221,0,0,1,182.605,10.744Z" transform="translate(-148.889 -7.533)" fill="#e3e687"/>
      </g>
      <g id="Group_48394" data-name="Group 48394" transform="translate(14.45)">
        <path id="Path_47787" data-name="Path 47787" d="M117.461,50.2h30.5a3.211,3.211,0,0,1,3.211,3.211v6.422a3.211,3.211,0,0,1-3.211,3.211h-30.5a3.211,3.211,0,0,1-3.211-3.211V53.411A3.211,3.211,0,0,1,117.461,50.2Z" transform="translate(-114.25 -42.172)" fill="#f7f9b8"/>
        <path id="Path_47788" data-name="Path 47788" d="M177.789,10.744v4.817H156.917V10.744a3.221,3.221,0,0,1,3.211-3.211h14.45A3.221,3.221,0,0,1,177.789,10.744Z" transform="translate(-148.889 -7.533)" fill="#f7f9b8"/>
      </g>
      <path id="Path_47789" data-name="Path 47789" d="M237.1,164.345v57.8a3.221,3.221,0,0,1-3.211,3.211H185.727a3.214,3.214,0,0,1-3.067-2.264.949.949,0,0,1-.08-.3,2.812,2.812,0,0,1-.064-.642v-57.8a2.822,2.822,0,0,1,.064-.642.949.949,0,0,1,.08-.3,3.213,3.213,0,0,1,3.067-2.264h48.165A3.22,3.22,0,0,1,237.1,164.345Z" transform="translate(-155.222 -132.235)" fill="#e3e687"/>
      <path id="Path_47790" data-name="Path 47790" d="M232.286,164.345v57.8a3.087,3.087,0,0,1-2.922,3.211H185.438a2.946,2.946,0,0,1-2.778-2.264.949.949,0,0,1-.08-.3,2.811,2.811,0,0,1-.064-.642v-57.8a2.822,2.822,0,0,1,.064-.642.949.949,0,0,1,.08-.3,2.946,2.946,0,0,1,2.778-2.264h43.927A3.087,3.087,0,0,1,232.286,164.345Z" transform="translate(-155.222 -132.235)" fill="#f7f9b8"/>
      <g id="Group_48395" data-name="Group 48395" transform="translate(0)">
        <path id="Path_47791" data-name="Path 47791" d="M42.268,73.688V136.3a6.42,6.42,0,0,0,6.422,6.422H43.873a6.42,6.42,0,0,1-6.422-6.422V73.688a6.42,6.42,0,0,1,6.422-6.422H48.69a6.42,6.42,0,0,0-6.422,6.422Z" transform="translate(-37.451 -56.028)" fill="#fff"/>
        <path id="Path_47792" data-name="Path 47792" d="M161.734,15.561h-4.817V10.744a3.221,3.221,0,0,1,3.211-3.211h4.817a3.221,3.221,0,0,0-3.211,3.211Z" transform="translate(-134.44 -7.533)" fill="#fff"/>
      </g>
    </g>
    <g id="Group_48398" data-name="Group 48398" transform="translate(30.816)">
      <path id="Path_47793" data-name="Path 47793" d="M34.128,102.4v62.615H30.917V102.4Z" transform="translate(-30.898 -83.134)" fill="#fff"/>
      <g id="Group_48397" data-name="Group 48397">
        <path id="Path_47794" data-name="Path 47794" d="M32.441,165.344a1.612,1.612,0,0,0,1.14-2.745l-.241-.193a1.223,1.223,0,0,0-.289-.145,1.019,1.019,0,0,0-.289-.1,2.348,2.348,0,0,0-.321-.032,1.685,1.685,0,0,0-1.14.466,1.583,1.583,0,0,0,.529,2.617A1.607,1.607,0,0,0,32.441,165.344Z" transform="translate(-30.816 -131.628)" fill="#dee265"/>
        <path id="Path_47795" data-name="Path 47795" d="M111.192,28.9H104.77V19.266a8.037,8.037,0,0,0-8.028-8.028H90.024A4.809,4.809,0,0,0,85.5,8.027H82.292V4.817A4.822,4.822,0,0,0,77.476,0H58.21a4.822,4.822,0,0,0-4.817,4.817V8.028H50.182a4.809,4.809,0,0,0-4.521,3.211H38.944a8.037,8.037,0,0,0-8.028,8.027v6.422a1.605,1.605,0,1,0,3.211,0V19.266a4.822,4.822,0,0,1,4.817-4.817h6.422v4.817a4.822,4.822,0,0,0,4.817,4.817H85.5a4.822,4.822,0,0,0,4.817-4.817V14.45h6.422a4.822,4.822,0,0,1,4.817,4.817V28.9H63.026a4.822,4.822,0,0,0-4.817,4.817V86.7H38.943a4.822,4.822,0,0,1-4.817-4.817V38.532a1.605,1.605,0,1,0-3.211,0V81.881a8.037,8.037,0,0,0,8.028,8.028H58.21v1.605a4.822,4.822,0,0,0,4.817,4.817h48.165a4.822,4.822,0,0,0,4.817-4.817v-57.8A4.821,4.821,0,0,0,111.192,28.9ZM56.6,4.817A1.608,1.608,0,0,1,58.21,3.211H77.476a1.608,1.608,0,0,1,1.605,1.605V8.028H56.6Zm30.5,14.45A1.608,1.608,0,0,1,85.5,20.872H50.182a1.608,1.608,0,0,1-1.605-1.605V12.844a1.608,1.608,0,0,1,1.605-1.605H85.5a1.608,1.608,0,0,1,1.605,1.605v6.422ZM112.8,91.514a1.608,1.608,0,0,1-1.605,1.605H63.026a1.608,1.608,0,0,1-1.605-1.605v-57.8a1.608,1.608,0,0,1,1.605-1.605h48.165a1.608,1.608,0,0,1,1.605,1.605Z" transform="translate(-30.897)" fill="#dee265"/>
        <path id="Path_47796" data-name="Path 47796" d="M274.756,256h-28.9a1.605,1.605,0,1,0,0,3.211h28.9a1.605,1.605,0,0,0,0-3.211Z" transform="translate(-204.094 -207.835)" fill="#dee265"/>
        <path id="Path_47797" data-name="Path 47797" d="M274.756,298.667h-28.9a1.605,1.605,0,1,0,0,3.211h28.9a1.605,1.605,0,0,0,0-3.211Z" transform="translate(-204.094 -242.474)" fill="#dee265"/>
        <path id="Path_47798" data-name="Path 47798" d="M274.756,341.333h-28.9a1.605,1.605,0,1,0,0,3.211h28.9a1.605,1.605,0,0,0,0-3.211Z" transform="translate(-204.094 -277.113)" fill="#dee265"/>
        <path id="Path_47799" data-name="Path 47799" d="M274.756,384h-28.9a1.605,1.605,0,1,0,0,3.211h28.9a1.605,1.605,0,0,0,0-3.211Z" transform="translate(-204.094 -311.752)" fill="#dee265"/>
      </g>
    </g>
  </g>
</svg>
