<svg xmlns="http://www.w3.org/2000/svg" width="15.421" height="14.428" viewBox="0 0 15.421 14.428">
  <path id="date-svgrepo-com" d="M10.181,10.259a.471.471,0,0,0-.486.457v2.993a.467.467,0,0,0,.486.452h.263a.472.472,0,0,0,.491-.452V10.715a.476.476,0,0,0-.491-.457Zm7.961,0a.476.476,0,0,0-.491.457v2.993a.472.472,0,0,0,.491.452H18.4a.472.472,0,0,0,.491-.452V10.715a.476.476,0,0,0-.491-.457ZM8.166,12.443A1.565,1.565,0,0,0,6.582,14v9.132a1.57,1.57,0,0,0,1.583,1.558H20.42A1.57,1.57,0,0,0,22,23.129V14a1.565,1.565,0,0,0-1.583-1.554h-1.2v1.519a.723.723,0,0,1-.749.695h-.4a.723.723,0,0,1-.749-.695V12.443h-6.06v1.519a.723.723,0,0,1-.749.695h-.4a.718.718,0,0,1-.744-.695V12.443h-1.2Zm-.591,4.333H21.006v5.757a1.037,1.037,0,0,1-1.042,1.042H8.622a1.041,1.041,0,0,1-1.047-1.042V16.776Z" transform="translate(-6.582 -10.259)" fill="#2b6050"/>
</svg>
