<svg xmlns="http://www.w3.org/2000/svg" width="16.231" height="18.072" viewBox="0 0 16.231 18.072">
  <g id="delete-2-svgrepo-com" transform="translate(0.75 0.75)">
    <path id="Path_44926" data-name="Path 44926" d="M10,12v4.6" transform="translate(-4.476 -3.714)" fill="none" stroke="#f87271" stroke-linecap="round" stroke-linejoin="round" stroke-width="1.5"/>
    <path id="Path_44927" data-name="Path 44927" d="M14,12v4.6" transform="translate(-4.793 -3.714)" fill="none" stroke="#f87271" stroke-linecap="round" stroke-linejoin="round" stroke-width="1.5"/>
    <path id="Path_44928" data-name="Path 44928" d="M4,7H18.731" transform="translate(-4 -3.317)" fill="none" stroke="#f87271" stroke-linecap="round" stroke-linejoin="round" stroke-width="1.5"/>
    <path id="Path_44929" data-name="Path 44929" d="M6,10v7.366a2.762,2.762,0,0,0,2.762,2.762h5.524a2.762,2.762,0,0,0,2.762-2.762V10" transform="translate(-4.159 -3.555)" fill="none" stroke="#f87271" stroke-linecap="round" stroke-linejoin="round" stroke-width="1.5"/>
    <path id="Path_44930" data-name="Path 44930" d="M9,4.841A1.841,1.841,0,0,1,10.841,3h1.841a1.841,1.841,0,0,1,1.841,1.841V6.683H9Z" transform="translate(-4.397 -3)" fill="none" stroke="#f87271" stroke-linecap="round" stroke-linejoin="round" stroke-width="1.5"/>
  </g>
</svg>
