<svg xmlns="http://www.w3.org/2000/svg" width="25.558" height="29.642" viewBox="0 0 25.558 29.642">
  <path id="dental-service_15192822" d="M41.87,27.576l.524.822L39.66,30.142,35.7,23.935l2.733-1.744Zm15.981-6.289-4.474,2.867a2.087,2.087,0,0,1-.9,1.324,1.831,1.831,0,0,1-.994.287,2.171,2.171,0,0,1-.676-.112l-3.225-1.068a.446.446,0,1,1,.28-.847l3.225,1.067a1.027,1.027,0,0,0,.911-.08,1.221,1.221,0,0,0,.523-.878.384.384,0,0,1,.008-.047,1.109,1.109,0,0,0-.752-1.081L44.7,20.379a2.263,2.263,0,0,0-1.965.224L39.67,22.469l2.722,4.267,1.51-.92a.447.447,0,0,1,.372-.043L50.1,27.7a2.562,2.562,0,0,0,2.251-.283l6.681-4.283a1.1,1.1,0,1,0-1.186-1.85ZM38.619,7.727q.469.179,1.018.341l.2.058q.413.117.857.221a5.7,5.7,0,0,1-.333-1l-.281-.076c-.243-.069-.47-.139-.683-.21-.355-.118-.669-.24-.943-.362-1.174-.522-1.628-1.055-1.628-1.441,0-.42.548-1.017,1.963-1.582a7.443,7.443,0,0,1,.462-1.114c-1.737.559-3.317,1.419-3.317,2.7C35.934,6.211,36.857,7.056,38.619,7.727ZM58.633,2.8l.431,1.163c.934.472,1.3.939,1.3,1.287,0,.366-.37.764-1.035,1.142a7.452,7.452,0,0,1-.89.424v.74h.542c1.493-.643,2.275-1.432,2.275-2.306C61.26,4.309,60.358,3.473,58.633,2.8Zm-2.688,3.4v1.8a.446.446,0,0,1-.446.446H53.7v1.6h1.8a.446.446,0,0,1,.446.446v1.8h1.605V10.5A.446.446,0,0,1,58,10.056h1.8v-1.6H58a.446.446,0,0,1-.446-.446v-1.8ZM43.67,17.022c.127.62.237,1.157.334,1.579.069.3.249.5.448.5.256,0,.419-.42.463-.548l2.418-7.07a.448.448,0,0,1,.233-.26,3.473,3.473,0,0,1,2.634,0,.448.448,0,0,1,.232.26l2.417,7.069c.044.129.207.549.463.549.2,0,.379-.2.448-.5.1-.424.207-.959.334-1.58.26-1.268.581-2.835.961-4.232a.329.329,0,0,1,0-.043v-1.8h-1.8a.446.446,0,0,1-.446-.446V8.946a41.175,41.175,0,0,1-4.213.209,37.839,37.839,0,0,1-6.775-.571q-.585-.108-1.129-.236a5.5,5.5,0,0,0,.687,1.163c1.019,1.32,1.752,4.9,2.288,7.512ZM48.6,8.263a40.186,40.186,0,0,0,4.213-.214V8.006a.446.446,0,0,1,.446-.446h1.8v-1.8a.446.446,0,0,1,.446-.446h2.017A5.3,5.3,0,0,0,52.394.5,4.875,4.875,0,0,0,50.63.829a6.976,6.976,0,0,1-3.495,0A4.832,4.832,0,0,0,45.373.5a5.353,5.353,0,0,0-5.166,5.511,5.832,5.832,0,0,0,.154,1.333q.477.127.992.236A35.621,35.621,0,0,0,48.6,8.263Zm10.838,9.319h-.625v-.625a.446.446,0,0,0-.892,0v.625H57.3a.446.446,0,1,0,0,.892h.623V19.1a.446.446,0,0,0,.892,0v-.625h.625a.446.446,0,0,0,0-.892Zm-20.065-3.2a.446.446,0,0,0,.446-.446v-.625h.623a.446.446,0,1,0,0-.892h-.623V11.8a.446.446,0,0,0-.892,0v.623H38.3a.446.446,0,1,0,0,.892h.625v.625A.446.446,0,0,0,39.371,14.384Z" transform="translate(-35.702 -0.5)" fill="#52a8a8"/>
</svg>
