<svg xmlns="http://www.w3.org/2000/svg" width="88.349" height="97.407" viewBox="0 0 88.349 97.407">
  <g id="diet_17194692" transform="translate(-23.81)">
    <g id="Group_48405" data-name="Group 48405" transform="translate(23.81 7.61)">
      <path id="Path_47828" data-name="Path 47828" d="M83.928,129.8H30.659a6.857,6.857,0,0,1-6.849-6.849v-76.1A6.857,6.857,0,0,1,30.659,40h53.27a6.857,6.857,0,0,1,6.849,6.849v76.1A6.856,6.856,0,0,1,83.928,129.8Z" transform="translate(-23.81 -40)" fill="#205072"/>
    </g>
    <g id="Group_48406" data-name="Group 48406" transform="translate(27.615 11.362)">
      <path id="Path_47829" data-name="Path 47829" d="M99.363,141.873H47.615a3.809,3.809,0,0,1-3.8-3.8V63.525a3.809,3.809,0,0,1,3.8-3.8H99.363a3.809,3.809,0,0,1,3.8,3.8v74.541A3.809,3.809,0,0,1,99.363,141.873Z" transform="translate(-43.81 -59.72)" fill="#d6d6d6"/>
    </g>
    <g id="Group_48407" data-name="Group 48407" transform="translate(35.992)">
      <path id="Path_47830" data-name="Path 47830" d="M128.173,15.981H90.123A2.285,2.285,0,0,1,87.84,13.7V7.61a2.285,2.285,0,0,1,2.283-2.283H102.47a.754.754,0,0,0,.74-.588,6.089,6.089,0,0,1,11.875,0,.752.752,0,0,0,.74.588h12.347a2.285,2.285,0,0,1,2.283,2.283V13.7A2.285,2.285,0,0,1,128.173,15.981Z" transform="translate(-87.84)" fill="#fab10c"/>
    </g>
    <g id="Group_48408" data-name="Group 48408" transform="translate(32.948 22.036)">
      <path id="Path_47831" data-name="Path 47831" d="M78.689,124.962H74.123a2.285,2.285,0,0,1-2.283-2.283v-4.566a2.285,2.285,0,0,1,2.283-2.283h4.566a2.285,2.285,0,0,1,2.283,2.283v4.566A2.285,2.285,0,0,1,78.689,124.962Zm-4.566-7.61a.761.761,0,0,0-.761.761v4.566a.761.761,0,0,0,.761.761h4.566a.761.761,0,0,0,.761-.761v-4.566a.761.761,0,0,0-.761-.761Z" transform="translate(-71.84 -115.83)" fill="#31363d"/>
    </g>
    <g id="Group_48409" data-name="Group 48409" transform="translate(32.948 38.017)">
      <path id="Path_47832" data-name="Path 47832" d="M78.689,208.962H74.123a2.285,2.285,0,0,1-2.283-2.283v-4.566a2.285,2.285,0,0,1,2.283-2.283h4.566a2.285,2.285,0,0,1,2.283,2.283v4.566A2.285,2.285,0,0,1,78.689,208.962Zm-4.566-7.61a.761.761,0,0,0-.761.761v4.566a.761.761,0,0,0,.761.761h4.566a.761.761,0,0,0,.761-.761v-4.566a.761.761,0,0,0-.761-.761Z" transform="translate(-71.84 -199.83)" fill="#31363d"/>
    </g>
    <g id="Group_48410" data-name="Group 48410" transform="translate(32.948 53.998)">
      <path id="Path_47833" data-name="Path 47833" d="M78.689,292.962H74.123a2.285,2.285,0,0,1-2.283-2.283v-4.566a2.285,2.285,0,0,1,2.283-2.283h4.566a2.285,2.285,0,0,1,2.283,2.283v4.566A2.285,2.285,0,0,1,78.689,292.962Zm-4.566-7.61a.761.761,0,0,0-.761.761v4.566a.761.761,0,0,0,.761.761h4.566a.761.761,0,0,0,.761-.761v-4.566a.761.761,0,0,0-.761-.761Z" transform="translate(-71.84 -283.83)" fill="#31363d"/>
    </g>
    <g id="Group_48411" data-name="Group 48411" transform="translate(32.948 69.979)">
      <path id="Path_47834" data-name="Path 47834" d="M78.689,376.962H74.123a2.285,2.285,0,0,1-2.283-2.283v-4.566a2.285,2.285,0,0,1,2.283-2.283h4.566a2.285,2.285,0,0,1,2.283,2.283v4.566A2.285,2.285,0,0,1,78.689,376.962Zm-4.566-7.61a.761.761,0,0,0-.761.761v4.566a.761.761,0,0,0,.761.761h4.566a.761.761,0,0,0,.761-.761v-4.566a.761.761,0,0,0-.761-.761Z" transform="translate(-71.84 -367.83)" fill="#31363d"/>
    </g>
    <g id="Group_48412" data-name="Group 48412" transform="translate(45.124 23.558)">
      <path id="Path_47835" data-name="Path 47835" d="M170.085,125.352H136.6a.761.761,0,1,1,0-1.522h33.484a.761.761,0,1,1,0,1.522Z" transform="translate(-135.84 -123.83)" fill="#31363d"/>
    </g>
    <g id="Group_48413" data-name="Group 48413" transform="translate(45.124 27.363)">
      <path id="Path_47836" data-name="Path 47836" d="M152.582,145.352H136.6a.761.761,0,1,1,0-1.522h15.981a.761.761,0,0,1,0,1.522Z" transform="translate(-135.84 -143.83)" fill="#31363d"/>
    </g>
    <g id="Group_48414" data-name="Group 48414" transform="translate(45.124 43.344)">
      <path id="Path_47837" data-name="Path 47837" d="M152.582,229.352H136.6a.761.761,0,1,1,0-1.522h15.981a.761.761,0,0,1,0,1.522Z" transform="translate(-135.84 -227.83)" fill="#31363d"/>
    </g>
    <g id="Group_48415" data-name="Group 48415" transform="translate(45.124 39.539)">
      <path id="Path_47838" data-name="Path 47838" d="M170.085,209.352H136.6a.761.761,0,0,1,0-1.522h33.484a.761.761,0,1,1,0,1.522Z" transform="translate(-135.84 -207.83)" fill="#31363d"/>
    </g>
    <g id="Group_48416" data-name="Group 48416" transform="translate(45.124 59.325)">
      <path id="Path_47839" data-name="Path 47839" d="M152.582,313.352H136.6a.761.761,0,1,1,0-1.522h15.981a.761.761,0,0,1,0,1.522Z" transform="translate(-135.84 -311.83)" fill="#31363d"/>
    </g>
    <g id="Group_48417" data-name="Group 48417" transform="translate(45.125 55.52)">
      <path id="Path_47840" data-name="Path 47840" d="M161.286,293.352H136.611a.761.761,0,0,1,0-1.522h24.675c.42,0,.438.341.438.761S161.707,293.352,161.286,293.352Z" transform="translate(-135.85 -291.83)" fill="#31363d"/>
    </g>
    <g id="Group_48418" data-name="Group 48418" transform="translate(45.125 75.306)">
      <path id="Path_47841" data-name="Path 47841" d="M149.219,397.352H136.611a.761.761,0,1,1,0-1.522h12.608c.42,0,.329.341.329.761S149.637,397.352,149.219,397.352Z" transform="translate(-135.85 -395.83)" fill="#31363d"/>
    </g>
    <g id="Group_48419" data-name="Group 48419" transform="translate(45.124 71.501)">
      <path id="Path_47842" data-name="Path 47842" d="M148.944,377.352H136.6a.761.761,0,1,1,0-1.522h12.343c.42,0,.4.341.4.761S149.365,377.352,148.944,377.352Z" transform="translate(-135.84 -375.83)" fill="#31363d"/>
    </g>
    <g id="Group_48420" data-name="Group 48420" transform="translate(94.02 68.081)">
      <path id="Path_47843" data-name="Path 47843" d="M396.845,366.03c-.39,0-.721.082-.757-.314A5.885,5.885,0,0,0,393.264,361a.764.764,0,0,1-.295-1.086c.828-1.3,1.554-1.992,2.155-2.055a.982.982,0,0,1,.651.162c3.771,1.739,3.371,7.262,3.352,7.5-.034.419-.337.542-.759.51S396.868,366.03,396.845,366.03Z" transform="translate(-392.852 -357.854)" fill="#0c723a"/>
    </g>
    <g id="Group_48421" data-name="Group 48421" transform="translate(98.825 69.271)">
      <path id="Path_47844" data-name="Path 47844" d="M418.871,370.474a.76.76,0,0,1-.761-.763,5.37,5.37,0,0,1,5.6-5.6h0a.76.76,0,0,1,.761.763,5.37,5.37,0,0,1-5.6,5.6Z" transform="translate(-418.11 -364.11)" fill="#b9d10d"/>
    </g>
    <path id="Path_47845" data-name="Path 47845" d="M112.384,71.51a3.77,3.77,0,0,1,.341,1.562v74.541a3.809,3.809,0,0,1-3.8,3.8H57.172a3.757,3.757,0,0,1-1.562-.341,3.808,3.808,0,0,0,3.464,2.243h51.748a3.809,3.809,0,0,0,3.8-3.8V74.974A3.811,3.811,0,0,0,112.384,71.51Z" transform="translate(-25.75 -57.905)" fill="#1d4863"/>
    <g id="Group_48422" data-name="Group 48422" transform="translate(85.184 73.591)">
      <path id="Path_47846" data-name="Path 47846" d="M364.17,410.632a14.133,14.133,0,0,1-4.275-.765c-3.215,1.027-5.78.928-7.833-.3-2.719-1.623-4.406-5.082-5.472-11.215-.721-4.142.753-8.112,3.754-10.116,2.681-1.79,6.13-1.665,9.528.327,3.171-2.1,6.522-2.323,9.256-.6,3.194,2.017,4.83,6.191,4.075,10.391-1.151,6.4-2.759,9.792-5.374,11.344a7.048,7.048,0,0,1-3.658.928Z" transform="translate(-346.41 -386.815)" fill="#fc4d44"/>
    </g>
    <g id="Group_48423" data-name="Group 48423" transform="translate(67.758 75.52)">
      <path id="Path_47847" data-name="Path 47847" d="M266.51,418.828h-6.468a.761.761,0,0,1-.761-.761,35.025,35.025,0,0,0-2.137-12.975,13.4,13.4,0,0,0-2.127-3.818.765.765,0,0,1,.093-1.122l2.473-1.9a.762.762,0,0,1,1.147.268l2.036,4.145.036-4.425a.768.768,0,0,1,.245-.556.755.755,0,0,1,.575-.2l2.953.23a.763.763,0,0,1,.7.793l-.166,3.708,2.331-4.834a.762.762,0,0,1,1.077-.322c.965.578,2.38,1.419,2.675,1.579a.763.763,0,0,1,.31,1.193.9.9,0,0,1-.156.152c-1.718,1.669-2.968,5.264-3.619,10.414a61.835,61.835,0,0,0-.46,7.659.757.757,0,0,1-.759.77Z" transform="translate(-254.815 -396.952)" fill="#0c723a"/>
    </g>
    <g id="Group_48424" data-name="Group 48424" transform="translate(57.299 54.375)">
      <path id="Path_47848" data-name="Path 47848" d="M207.477,312.114a9.4,9.4,0,0,1-4.406-1.181,6.494,6.494,0,0,1-3.19-6.455A6.562,6.562,0,0,1,204,299.032a5.612,5.612,0,0,1,.681-5.664,4.588,4.588,0,0,1,5.22-1.558,5.65,5.65,0,0,1,1.25-3.333,7.177,7.177,0,0,1,3.988-2.471,6.777,6.777,0,0,1,4.927.651,7.246,7.246,0,0,1,3.052,3.62,7.281,7.281,0,0,1,7.18-1.9,6.778,6.778,0,0,1,4.941,5.426c.179,1.385-.04,3.925-3.162,6.214,2.15,1.463,3.2,3.419,2.9,5.492a5.615,5.615,0,0,1-4.49,4.547c-1.21.242-4.146.373-6.643-3.082A6.143,6.143,0,0,1,220.1,309a8.229,8.229,0,0,1-5.736-1.592,7.411,7.411,0,0,1-6.891,4.7Z" transform="translate(-199.84 -285.81)" fill="#b9d10d"/>
    </g>
    <path id="Path_47849" data-name="Path 47849" d="M138.683,59.72v2.3a2.285,2.285,0,0,1-2.283,2.283H98.35a2.119,2.119,0,0,1-.35-.03,2.284,2.284,0,0,0,2.253,1.933H138.3a2.285,2.285,0,0,0,2.283-2.283V59.72Z" transform="translate(-60.075 -48.358)" fill="#c6c6c6"/>
    <path id="Path_47850" data-name="Path 47850" d="M311.84,39.72c0,.008,0,.013,0,.021v3.826h1.988V39.72Z" transform="translate(-233.233 -32.163)" fill="#1d4863"/>
    <g id="Group_48425" data-name="Group 48425" transform="translate(68.081 75.555)">
      <path id="Path_47851" data-name="Path 47851" d="M260.106,404.038a.762.762,0,0,0-.223-.268,7.535,7.535,0,0,1-2.955,2.953c-.137.076-.278.146-.419.213a12.391,12.391,0,0,1,1.32,2.144,7.247,7.247,0,0,0,1-.455,7.623,7.623,0,0,0,2.462-2.169Z" transform="translate(-256.51 -402.509)" fill="#0b6331"/>
      <path id="Path_47852" data-name="Path 47852" d="M286.248,404.86l-.008.866a8.924,8.924,0,0,0,4.374,1.63l.093-2.074a5.958,5.958,0,0,1-.641.127A7.346,7.346,0,0,1,286.248,404.86Z" transform="translate(-280.584 -403.391)" fill="#0b6331"/>
      <path id="Path_47853" data-name="Path 47853" d="M316.618,399.067a8.806,8.806,0,0,1-1.864-1.923l-.015,0a6.644,6.644,0,0,1-1.235,1.069l-1.4,2.913a6.35,6.35,0,0,0,.809-.059A6.153,6.153,0,0,0,316.618,399.067Z" transform="translate(-301.524 -397.14)" fill="#0b6331"/>
    </g>
    <path id="Path_47854" data-name="Path 47854" d="M355.814,387.885c-.008.084-.017.166-.028.249a5.615,5.615,0,0,1-4.49,4.547,5.787,5.787,0,0,1-1.849.057,9.747,9.747,0,0,0-.417,1.1,5.91,5.91,0,0,0,4.168.748,5.615,5.615,0,0,0,4.49-4.547,4.743,4.743,0,0,0-.185-2.158A8.349,8.349,0,0,0,355.814,387.885Z" transform="translate(-263.347 -314.054)" fill="#ed4743"/>
  </g>
</svg>
