<svg xmlns="http://www.w3.org/2000/svg" width="18.764" height="18.764" viewBox="0 0 18.764 18.764">
  <g id="documents-svgrepo-com" transform="translate(-1.25 -1.25)">
    <path id="Path_46981" data-name="Path 46981" d="M5,7.179c0-2.441,0-3.662.758-4.421S7.738,2,10.179,2h1.726c2.441,0,3.662,0,4.421.758s.758,1.979.758,4.421v6.905c0,2.441,0,3.662-.758,4.421s-1.979.758-4.421.758H10.179c-2.441,0-3.662,0-4.421-.758S5,16.526,5,14.085Z" transform="translate(-0.41)" fill="none" stroke="#94afa7" stroke-width="1.5"/>
    <path id="Path_46982" data-name="Path 46982" d="M4.59,4.076a2.8,2.8,0,0,0-1.831.693C2,5.527,2,6.748,2,9.19v3.453c0,2.441,0,3.662.758,4.421a2.8,2.8,0,0,0,1.831.693" transform="translate(0 -0.284)" fill="none" stroke="#94afa7" stroke-width="1.5" opacity="0.5"/>
    <path id="Path_46983" data-name="Path 46983" d="M19,4.076a2.8,2.8,0,0,1,1.831.693c.758.758.758,1.979.758,4.421v3.453c0,2.441,0,3.662-.758,4.421A2.8,2.8,0,0,1,19,17.756" transform="translate(-2.326 -0.284)" fill="none" stroke="#94afa7" stroke-width="1.5" opacity="0.5"/>
    <path id="Path_46984" data-name="Path 46984" d="M9,13h5.179" transform="translate(-0.958 -1.505)" fill="none" stroke="#94afa7" stroke-linecap="round" stroke-width="1.5" opacity="0.7"/>
    <path id="Path_46985" data-name="Path 46985" d="M9,9h5.179" transform="translate(-0.958 -0.958)" fill="none" stroke="#94afa7" stroke-linecap="round" stroke-width="1.5"/>
    <path id="Path_46986" data-name="Path 46986" d="M9,17h2.59" transform="translate(-0.958 -2.052)" fill="none" stroke="#94afa7" stroke-linecap="round" stroke-width="1.5" opacity="0.4"/>
  </g>
</svg>
