<svg xmlns="http://www.w3.org/2000/svg" width="20.364" height="16.124" viewBox="0 0 20.364 16.124">
  <g id="download-svgrepo-com_1_" data-name="download-svgrepo-com (1)" transform="translate(-0.1 -128)">
    <path id="Path_47536" data-name="Path 47536" d="M15.372,141.578a.849.849,0,0,1,0-1.7A3.393,3.393,0,0,0,15.6,133.1l-.5-.03-.213-.451a5.081,5.081,0,0,0-9.2,0l-.213.451-.5.032a3.393,3.393,0,0,0,.223,6.778.849.849,0,0,1,0,1.7,5.089,5.089,0,0,1-.821-10.111,6.774,6.774,0,0,1,11.824,0,5.09,5.09,0,0,1-.821,10.113Z" transform="translate(0)" fill="#3688ff"/>
    <path id="Path_47537" data-name="Path 47537" d="M344.67,729.618a.853.853,0,0,1-.6-.249l-2.546-2.546a.848.848,0,1,1,1.2-1.2l1.945,1.945,1.945-1.945a.848.848,0,1,1,1.2,1.2l-2.546,2.546A.837.837,0,0,1,344.67,729.618Z" transform="translate(-334.39 -585.494)" fill="#5f6379"/>
    <path id="Path_47538" data-name="Path 47538" d="M470.149,562.239a.849.849,0,0,1-.849-.849v-5.941a.849.849,0,1,1,1.7,0v5.941A.849.849,0,0,1,470.149,562.239Z" transform="translate(-459.868 -418.116)" fill="#5f6379"/>
  </g>
</svg>
