<svg id="email-8-svgrepo-com" xmlns="http://www.w3.org/2000/svg" width="18.366" height="14.416" viewBox="0 0 18.366 14.416">
  <path id="Path_22461" data-name="Path 22461" d="M18.318,57.114A2.541,2.541,0,0,0,17.793,56a2.191,2.191,0,0,0-.173-.192,2.542,2.542,0,0,0-1.8-.747H2.548a2.545,2.545,0,0,0-1.8.747A2.237,2.237,0,0,0,.574,56,2.51,2.51,0,0,0,.05,57.114a2.464,2.464,0,0,0-.05.5v9.32a2.533,2.533,0,0,0,.211,1.012,2.5,2.5,0,0,0,.535.789c.057.057.114.109.175.161a2.545,2.545,0,0,0,1.626.585H15.818a2.529,2.529,0,0,0,1.626-.588,2.2,2.2,0,0,0,.175-.159,2.549,2.549,0,0,0,.538-.789v0a2.521,2.521,0,0,0,.208-1.009V57.61A2.618,2.618,0,0,0,18.318,57.114ZM1.668,56.73a1.231,1.231,0,0,1,.879-.365H15.818a1.224,1.224,0,0,1,.991.5L9.854,62.923a1.021,1.021,0,0,1-1.341,0L1.559,56.858A.94.94,0,0,1,1.668,56.73ZM1.3,66.93V58.207L6.337,62.6,1.306,66.985A.372.372,0,0,1,1.3,66.93Zm14.515,1.244H2.548a1.227,1.227,0,0,1-.616-.163L7.24,63.385l.5.431a2.205,2.205,0,0,0,2.9,0l.5-.431,5.306,4.626A1.229,1.229,0,0,1,15.818,68.174Zm1.244-1.244a.388.388,0,0,1,0,.054L12.029,62.6l5.033-4.391Z" transform="translate(0 -55.062)" fill="#4c728f"/>
</svg>
