<svg xmlns="http://www.w3.org/2000/svg" width="14.345" height="7.499" viewBox="0 0 14.345 7.499">
  <path id="eye-closed-svgrepo-com" d="M1.4,6.052a.652.652,0,0,1,.856.342l-.6.257.6-.257h0l0,.006.013.03c.013.028.033.071.061.127.056.112.143.276.261.475A8.729,8.729,0,0,0,3.678,8.49c.116.125.238.249.368.371l.016.015a5.905,5.905,0,0,0,4.11,1.688,5.682,5.682,0,0,0,2.1-.392,6.373,6.373,0,0,0,2.018-1.3A8.511,8.511,0,0,0,13.664,7.18c.15-.24.259-.442.33-.582.036-.07.061-.124.078-.159L14.09,6.4l0-.007a.652.652,0,1,1,1.2.514l-.6-.257.6.257v0l0,.005-.007.017-.026.057c-.022.048-.055.116-.1.2-.086.168-.214.4-.385.679a10.021,10.021,0,0,1-1.116,1.471l.52.52a.652.652,0,1,1-.922.922l-.548-.548a7.7,7.7,0,0,1-1.237.819l.51.784a.652.652,0,1,1-1.093.711l-.643-.988a6.94,6.94,0,0,1-1.419.277v1.007a.652.652,0,0,1-1.3,0V11.839A6.93,6.93,0,0,1,6.1,11.562l-.642.987a.652.652,0,1,1-1.093-.711l.51-.784a7.716,7.716,0,0,1-1.237-.819l-.548.548a.652.652,0,0,1-.922-.922l.52-.52A10.045,10.045,0,0,1,1.469,7.7c-.136-.229-.238-.422-.307-.559-.034-.069-.061-.124-.079-.163L1.062,6.93l-.006-.014,0,0v0h0l.6-.257-.6.257A.653.653,0,0,1,1.4,6.052Z" transform="translate(-1 -6)" fill="#4c728f" fill-rule="evenodd"/>
</svg>
