<svg xmlns="http://www.w3.org/2000/svg" xmlns:xlink="http://www.w3.org/1999/xlink" width="42" height="42" viewBox="0 0 42 42">
  <defs>
    <clipPath id="clip-path">
      <rect id="Rectangle_19613" data-name="Rectangle 19613" width="42" height="42" transform="translate(0.5 0.5)" fill="#fff"/>
    </clipPath>
  </defs>
  <g id="eye-bags" transform="translate(-0.5 -0.5)" clip-path="url(#clip-path)">
    <path id="Path_42452" data-name="Path 42452" d="M21.744,15.348a2.286,2.286,0,0,0-2,1.18,3.385,3.385,0,1,0,3.687,2.643,2.284,2.284,0,0,0-1.689-3.822Zm-1.613,6.66a2.123,2.123,0,0,1-.659-4.142,2.283,2.283,0,0,0,2.782,1.993c0,.008,0,.016,0,.024A2.126,2.126,0,0,1,20.131,22.008Zm1.613-3.346a1.029,1.029,0,1,1,1.029-1.029A1.03,1.03,0,0,1,21.744,18.662Z" transform="translate(1.232 1.033)" fill="#fff"/>
    <path id="Path_42453" data-name="Path 42453" d="M2.744,17.834a.628.628,0,0,0,.86-.221c.768-1.3,3.987-3.677,5.421-4.321,5.811-2.61,13.654-2.881,20.98-.725a.628.628,0,1,0,.354-1.2c-7.605-2.238-15.773-1.944-21.849.784-1.646.739-5.055,3.249-5.988,4.828A.628.628,0,0,0,2.744,17.834Z" transform="translate(0.179 0.63)" fill="#fff"/>
    <path id="Path_42454" data-name="Path 42454" d="M16.943,33.157a.639.639,0,0,0,.105.009.629.629,0,0,0,.1-1.25c-5.572-.939-10.213-3.855-12.731-8a.629.629,0,1,0-1.075.653C6.054,29.028,11.01,32.158,16.943,33.157Z" transform="translate(0.239 1.642)" fill="#fff"/>
    <path id="Path_42455" data-name="Path 42455" d="M24.861,37.455a19.016,19.016,0,0,1-10.087.764A13.128,13.128,0,0,1,6.438,33.1,17.587,17.587,0,0,1,3.714,26.31a.629.629,0,0,0-1.236.237,18.83,18.83,0,0,0,2.927,7.275c2.943,4.224,8.038,6.008,13,6.008a20.127,20.127,0,0,0,6.892-1.2.629.629,0,0,0-.436-1.18Z" transform="translate(0.182 1.802)" fill="#fff"/>
    <path id="Path_42456" data-name="Path 42456" d="M42.227,13.022a.628.628,0,0,0-.76.458,5.532,5.532,0,0,1-2.882,3.586,3.489,3.489,0,0,1-2.042.335c-.454-.294-.914-.574-1.386-.83-.2-.109-.406-.214-.612-.316.116-.047.233-.1.349-.155a6.8,6.8,0,0,0,3.544-4.409.628.628,0,0,0-1.219-.3,5.532,5.532,0,0,1-2.883,3.586,3.449,3.449,0,0,1-1.952.344c-.643-.24-1.3-.454-1.955-.642a6.807,6.807,0,0,0,3.392-4.331.628.628,0,1,0-1.219-.3,5.533,5.533,0,0,1-2.883,3.586,3.3,3.3,0,0,1-1.991.414,32.525,32.525,0,0,0-5.5-.545A25.387,25.387,0,0,0,9.98,16.551a42.2,42.2,0,0,0-6.374,4.571.973.973,0,0,0,.069,1.57c2.448,1.629,4.84,3.373,7.372,4.879a.628.628,0,0,0,.642-1.079c-.8-.474-1.6-1.005-2.428-1.568a11.572,11.572,0,0,1-.28-6.34c.486-.307,1.031-.628,1.629-.946a25.238,25.238,0,0,1,4.784-1.948,7.153,7.153,0,1,0,10.927-.636c.341.048.681.1,1.02.159a22.783,22.783,0,0,1,7.977,2.9c.419.257,3.271,2.243,3.271,2.243-1.484,1.3-2.951,2.554-4.507,3.772-3.1,2.429-6.374,4.513-10.359,4.9a23.54,23.54,0,0,1-5.21-.137,16.443,16.443,0,0,1-4.278-1.107.628.628,0,0,0-.479,1.161,17.684,17.684,0,0,0,4.6,1.192,21.728,21.728,0,0,0,6.977-.068c5.648-1.055,10.16-5.344,14.355-9.006a.973.973,0,0,0-.085-1.532c-.466-.324-.931-.658-1.4-.99a4.769,4.769,0,0,0,.937-.35,6.8,6.8,0,0,0,3.544-4.409A.628.628,0,0,0,42.227,13.022ZM7.11,23.471l-2.417-1.61A31,31,0,0,0,7.5,19.595a12.738,12.738,0,0,0,.18,4.26C7.495,23.728,7.3,23.6,7.11,23.471Zm19.913-3.5a5.9,5.9,0,1,1-9.265-4.84c.483-.089.98-.165,1.489-.225l.018,0a26.143,26.143,0,0,1,4.375-.1l.365.024A5.89,5.89,0,0,1,27.022,19.97Z" transform="translate(0.238 0.608)" fill="#fff"/>
    <path id="Path_42457" data-name="Path 42457" d="M6.1,10.737C15.048,7.378,24.749,7.06,37.547,9.7A1.527,1.527,0,0,0,38.7,6.936L36.127,5.221c-4.5-3-10.1-4.357-16.647-4.047a50.935,50.935,0,0,0-16.8,3.99l-.016.007L.9,5.964A1.529,1.529,0,0,0,.042,7.712l.8,3.323a1.525,1.525,0,0,0,.8,1.008,1.623,1.623,0,0,0,1.285.042Zm-3.9.186a.269.269,0,0,1-.142-.18l-.8-3.323a.272.272,0,0,1,.153-.311C2,6.847,2.576,6.567,3.167,6.322A49.671,49.671,0,0,1,19.539,2.428c6.276-.3,11.623.994,15.891,3.838l2.574,1.715a.272.272,0,0,1-.2.493A76.162,76.162,0,0,0,21.732,6.687,46.126,46.126,0,0,0,5.644,9.566l-.025.01L2.43,10.93A.268.268,0,0,1,2.2,10.923Z" transform="translate(0 -0.012)" fill="#fff"/>
  </g>
</svg>
