<svg xmlns="http://www.w3.org/2000/svg" width="46.03" height="45.994" viewBox="0 0 46.03 45.994">
  <g id="g3150" transform="translate(1.5 1.5)">
    <path id="Path_42458" data-name="Path 42458" d="M33.707,30.884a15.666,15.666,0,0,1-5.014,7.322h0a1.186,1.186,0,0,1-.748.266h0a4.184,4.184,0,0,1-4.184-4.185V29.9a2.306,2.306,0,0,0-2.37-2.3,2.338,2.338,0,0,0-2.237,2.355v4.331a4.184,4.184,0,0,1-4.184,4.185,1.185,1.185,0,0,1-.75-.267A15.705,15.705,0,0,1,8.441,26.037V23.2a0,0,0,0,0,0,0,10.567,10.567,0,0,1-1.794-1.789" transform="translate(0.06 1.647)" fill="none" stroke="#fff" stroke-linecap="round" stroke-linejoin="round" stroke-width="3"/>
    <path id="Path_42459" data-name="Path 42459" d="M5.325,20.375A10.548,10.548,0,0,1,21.673,8.259a0,0,0,0,0,0,0,10.548,10.548,0,1,1,13.014,16.6,0,0,0,0,0,0,0v2.857a15.689,15.689,0,0,1-.121,1.948" transform="translate(-0.161 -0.019)" fill="none" stroke="#fff" stroke-linecap="round" stroke-linejoin="round" stroke-width="3"/>
    <path id="Path_42460" data-name="Path 42460" d="M4.367,32.593a3.772,3.772,0,0,0,3.772,3.772,3.771,3.771,0,0,0-3.772,3.771A3.771,3.771,0,0,0,.6,36.365,3.772,3.772,0,0,0,4.367,32.593Z" transform="translate(-0.595 2.858)" fill="none" stroke="#fff" stroke-linecap="round" stroke-linejoin="round" stroke-width="3"/>
    <path id="Path_42461" data-name="Path 42461" d="M36.388.6A3.772,3.772,0,0,0,40.16,4.375a3.771,3.771,0,0,0-3.772,3.771,3.771,3.771,0,0,0-3.772-3.771A3.772,3.772,0,0,0,36.388.6Z" transform="translate(2.87 -0.604)" fill="none" stroke="#fff" stroke-linecap="round" stroke-linejoin="round" stroke-width="3"/>
    <path id="Path_42462" data-name="Path 42462" d="M5.086,6.89A3.141,3.141,0,0,1,8.225,3.747,3.141,3.141,0,0,1,5.086.6,3.141,3.141,0,0,1,1.947,3.747,3.141,3.141,0,0,1,5.086,6.89Z" transform="translate(-0.449 -0.604)" fill="none" stroke="#fff" stroke-linecap="round" stroke-linejoin="round" stroke-width="3"/>
    <path id="Path_42463" data-name="Path 42463" d="M20.5,8.039a15.612,15.612,0,0,1-5.077,2.737" transform="translate(1.01 0.201)" fill="none" stroke="#fff" stroke-linecap="round" stroke-linejoin="round" stroke-width="3"/>
  </g>
</svg>
