<svg xmlns="http://www.w3.org/2000/svg" xmlns:xlink="http://www.w3.org/1999/xlink" width="214.521" height="257.869" viewBox="0 0 214.521 257.869">
  <defs>
    <linearGradient id="linear-gradient" x1="75.967" y1="-11.982" x2="76.541" y2="-12.058" gradientUnits="objectBoundingBox">
      <stop offset="0" stop-color="#ec9568"/>
      <stop offset="1" stop-color="#f7b68b"/>
    </linearGradient>
    <linearGradient id="linear-gradient-2" x1="83.972" y1="5.818" x2="84.611" y2="5.681" xlink:href="#linear-gradient"/>
    <linearGradient id="linear-gradient-3" x1="73.84" y1="17.618" x2="74.429" y2="17.491" xlink:href="#linear-gradient"/>
    <linearGradient id="linear-gradient-4" x1="78.586" y1="11.593" x2="79.214" y2="11.488" xlink:href="#linear-gradient"/>
    <clipPath id="clip-path">
      <path id="Path_52683" data-name="Path 52683" d="M3452.161,1631.913c-26.825,6.823-49.287,26.641-63.429,47.7-14.243,21.415-20.161,44.075-16.318,64.628,3.883,20.753,16.726,37.163,33.391,51.942,16.753,14.432,37.324,27.234,58.607,32.666,41.606,12.4,77.075-22.543,81.3-90.264C3550.056,1671.244,3506.849,1615.992,3452.161,1631.913Z" transform="translate(-3371.268 -1629.153)" fill="none"/>
    </clipPath>
    <linearGradient id="linear-gradient-5" x1="60.886" y1="0.5" x2="61.886" y2="0.5" xlink:href="#linear-gradient"/>
    <linearGradient id="linear-gradient-6" x1="-3.037" y1="0.759" x2="-2.805" y2="1.818" gradientUnits="objectBoundingBox">
      <stop offset="0" stop-color="#f7b68b"/>
      <stop offset="1" stop-color="#ec9568"/>
    </linearGradient>
    <clipPath id="clip-path-2">
      <path id="Path_52722" data-name="Path 52722" d="M3364.625,2029l-2.14,3.594c.587-.984-.723-2.922-3.14-4.533a12.6,12.6,0,0,0-3.894-1.78,3.142,3.142,0,0,0-2.67.2.983.983,0,0,0-.195.232l2.14-3.594a.937.937,0,0,1,.194-.233,3.149,3.149,0,0,1,2.671-.2,12.643,12.643,0,0,1,3.893,1.779C3363.9,2026.082,3365.212,2028.019,3364.625,2029Z" transform="translate(-3352.587 -2022.508)" fill="none"/>
    </clipPath>
    <clipPath id="clip-path-3">
      <path id="Path_52727" data-name="Path 52727" d="M3327.942,2012.762l-2.14,3.6a3.388,3.388,0,0,1-.024-2.31l2.14-3.594A3.387,3.387,0,0,0,3327.942,2012.762Z" transform="translate(-3325.587 -2010.454)" fill="none"/>
    </clipPath>
    <clipPath id="clip-path-4">
      <path id="Path_52732" data-name="Path 52732" d="M3401.273,2065.676l-2.14,3.594a8.332,8.332,0,0,1-3.137.154l2.14-3.593A8.357,8.357,0,0,0,3401.273,2065.676Z" transform="translate(-3395.997 -2065.676)" fill="none"/>
    </clipPath>
    <clipPath id="clip-path-5">
      <path id="Path_52739" data-name="Path 52739" d="M3339,2034.272l-2.14,3.6a23.535,23.535,0,0,1-3.174-3.115l2.14-3.595A23.577,23.577,0,0,0,3339,2034.272Z" transform="translate(-3333.685 -2031.158)" fill="none"/>
    </clipPath>
    <clipPath id="clip-path-6">
      <path id="Path_52741" data-name="Path 52741" d="M3369.176,2056.361l-2.139,3.594a31.964,31.964,0,0,1-4.464-2.1l2.14-3.594A31.969,31.969,0,0,0,3369.176,2056.361Z" transform="translate(-3362.573 -2054.265)" fill="none"/>
    </clipPath>
  </defs>
  <g id="Group_51313" data-name="Group 51313" transform="translate(20281.953 9244.122)">
    <path id="Path_52124" data-name="Path 52124" d="M3452.161,1631.913c-26.825,6.823-49.287,26.641-63.429,47.7-14.243,21.415-20.161,44.075-16.318,64.628,3.883,20.753,16.726,37.163,33.391,51.942,16.753,14.432,37.324,27.234,58.607,32.666,41.606,12.4,77.075-22.543,81.3-90.264C3550.056,1671.244,3506.849,1615.992,3452.161,1631.913Z" transform="translate(-23636.975 -10842.805)" fill="#c5e1f9"/>
    <path id="Path_52125" data-name="Path 52125" d="M3510.244,1672.6l-.041-.383c.736-.079,1.507-.15,2.291-.213l.031.384C3511.742,1672.454,3510.976,1672.525,3510.244,1672.6Zm62.766-.263c-.188,0-.377,0-.566-.006l.007-.385c.766.015,1.532,0,2.279-.047l.024.384C3574.181,1672.322,3573.6,1672.341,3573.01,1672.341Zm-58.2-.1-.022-.384c.735-.042,1.486-.078,2.3-.11l.015.385C3516.291,1672.159,3515.543,1672.2,3514.811,1672.237Zm55.327-.037c-.754-.073-1.524-.175-2.289-.3l.064-.38c.756.128,1.517.229,2.262.3Zm-50.745-.148-.01-.385c.692-.019,1.422-.036,2.3-.053l.008.385C3520.813,1672.016,3520.084,1672.033,3519.393,1672.052Zm57.66-.009-.057-.381c.754-.114,1.505-.263,2.234-.442l.092.374C3578.582,1671.777,3577.819,1671.928,3577.053,1672.043Zm-53.072-.087-.006-.385c.812-.015,1.545-.028,2.295-.044l.008.385C3525.527,1671.928,3524.794,1671.942,3523.981,1671.956Zm4.594-.1-.012-.385c.823-.024,1.573-.05,2.292-.08l.016.385C3530.15,1671.807,3529.4,1671.833,3528.574,1671.857Zm4.593-.2-.023-.384c.788-.048,1.557-.1,2.285-.166l.033.384C3534.73,1671.555,3533.958,1671.611,3533.167,1671.659Zm32.419-.224c-.738-.176-1.488-.38-2.226-.606l.112-.368c.732.224,1.474.425,2.2.6Zm-27.834-.17-.044-.383c.775-.089,1.538-.191,2.269-.3l.058.381C3539.3,1671.074,3538.531,1671.175,3537.752,1671.265Zm43.787-.331-.127-.364c.715-.25,1.424-.538,2.109-.856l.162.349C3582.986,1670.387,3582.265,1670.68,3581.539,1670.934Zm-39.234-.361-.073-.378c.76-.147,1.511-.31,2.234-.485l.091.374C3543.828,1670.26,3543.07,1670.425,3542.305,1670.573Zm18.869-.483c-.715-.266-1.434-.558-2.137-.867l.155-.353c.7.306,1.408.594,2.117.858Zm-14.391-.606-.11-.369c.721-.215,1.438-.45,2.129-.7l.043-.015.131.362-.044.016C3548.234,1669.03,3547.511,1669.267,3546.783,1669.484Zm38.948-.494-.195-.332c.647-.38,1.289-.8,1.907-1.244l.225.312C3587.042,1668.178,3586.39,1668.6,3585.731,1668.99Zm-28.779-.756c-.687-.351-1.368-.724-2.023-1.108l.2-.332c.648.381,1.323.75,2,1.1Zm-5.856-.416-.185-.338a9.611,9.611,0,0,0,1.838-1.289l.259.285A10.04,10.04,0,0,1,3551.1,1667.818Zm38.384-1.527-.252-.291c.565-.489,1.123-1.016,1.659-1.564l.276.269C3590.62,1665.261,3590.054,1665.794,3589.481,1666.291Zm-36.5-.4c-.656-.444-1.284-.9-1.865-1.364l.239-.3c.573.455,1.193.908,1.842,1.347Zm1.492-1.26-.34-.181a5.174,5.174,0,0,0,.6-2.113l.385.025A5.574,5.574,0,0,1,3554.469,1664.635Zm-5.1-1.622a14.458,14.458,0,0,1-1.55-1.731l.308-.23a14.12,14.12,0,0,0,1.509,1.684Zm43.348-.02-.293-.25c.5-.585.988-1.18,1.451-1.769l.3.238C3593.71,1661.805,3593.218,1662.4,3592.715,1662.993Zm-38.286-2.838a6.727,6.727,0,0,0-1.058-1.953l.3-.236a7.139,7.139,0,0,1,1.119,2.066Zm41.13-.787-.313-.224c.448-.626.88-1.262,1.285-1.891l.323.208C3596.446,1658.1,3596.01,1658.738,3595.559,1659.368Zm-48.787-.212a1.772,1.772,0,0,1,.058-.879,4.866,4.866,0,0,1,.725-1.377l.3.236a4.5,4.5,0,0,0-.666,1.269,1.393,1.393,0,0,0-.041.689Zm4.958-2.44a3.591,3.591,0,0,0-2.064-.583l-.025-.384a3.973,3.973,0,0,1,2.289.638Zm46.322-1.224-.334-.191c.381-.667.744-1.345,1.077-2.014l.345.172C3598.8,1654.134,3598.437,1654.819,3598.052,1655.492Zm2.051-4.13-.355-.15c.3-.708.574-1.425.817-2.132l.364.126C3600.683,1649.921,3600.405,1650.646,3600.1,1651.362Zm1.5-4.364-.373-.1c.2-.741.364-1.49.5-2.226l.379.069C3601.971,1645.488,3601.8,1646.246,3601.6,1647Zm.823-4.544-.384-.037c.073-.762.111-1.527.114-2.274h.386C3602.538,1640.9,3602.5,1641.679,3602.426,1642.453Zm-.372-4.584a21.427,21.427,0,0,0-.334-2.25l.377-.077a21.558,21.558,0,0,1,.34,2.291Zm-.917-4.446a16.874,16.874,0,0,0-.851-2.1l.347-.169a17.427,17.427,0,0,1,.871,2.15Zm-3.615-2.535q-.309,0-.608-.026l.034-.384a7.489,7.489,0,0,0,2.224-.158l.081.377A8.284,8.284,0,0,1,3597.522,1630.887Zm-2.871-.693a3.9,3.9,0,0,1-1.669-1.694l.349-.162a3.514,3.514,0,0,0,1.507,1.52Zm6.814-.235-.157-.352a15.512,15.512,0,0,0,1.99-1.08l.207.325A15.883,15.883,0,0,1,3601.465,1629.959Zm-2.327-.588a10.023,10.023,0,0,0-1.486-1.687l.256-.288a10.428,10.428,0,0,1,1.544,1.751Zm6.248-1.871-.241-.3c.566-.453,1.143-.958,1.717-1.5l.264.28C3606.545,1626.529,3605.96,1627.04,3605.385,1627.5Zm-11.684-.935-.19-.335a2.517,2.517,0,0,1,1.306-.276,3.557,3.557,0,0,1,1.084.206l-.126.364a3.191,3.191,0,0,0-.967-.184h-.08A2.075,2.075,0,0,0,3593.7,1626.565Zm15.046-2.227-.282-.262c.5-.538,1.006-1.115,1.508-1.717l.3.247C3609.763,1623.212,3609.251,1623.8,3608.748,1624.338Z" transform="translate(-23737.139 -10837.908)" fill="#7eb3ff"/>
    <path id="Path_52673" data-name="Path 52673" d="M3751.422,1780.246c-7.144,6.16-14.064,6.687-22.734,18.278l22.2,7.3c8.171-8.77,16.325-19.445,20.7-29.9C3778.061,1760.4,3762.368,1770.817,3751.422,1780.246Z" transform="translate(-23894.648 -10942.892)" fill="url(#linear-gradient)"/>
    <path id="Path_52674" data-name="Path 52674" d="M3779.229,1872.441s25.59-13.3,30.091-7.021c3.348,4.669-9.178,14.175-20,16.7a101.228,101.228,0,0,1-18.823,2.331Z" transform="translate(-23924.789 -11011.923)" fill="url(#linear-gradient-2)"/>
    <path id="Path_52675" data-name="Path 52675" d="M3760.535,1945.9l20.436,2.46s10.413,11.843,9.8,16.631c-.574,4.492-6.615,5.519-19.381-5.021-2.891-2.36-23.016-5.651-23.016-5.651Z" transform="translate(-23908.846 -11071.156)" fill="url(#linear-gradient-3)"/>
    <path id="Path_52676" data-name="Path 52676" d="M3760.439,1985.969l19.611,6.254s8,13.589,6.5,18.177c-1.406,4.3-7.531,4.178-18.092-8.573-2.4-2.862-21.544-9.874-21.544-9.874Z" transform="translate(-23907.793 -11100.045)" fill="url(#linear-gradient-4)"/>
    <g id="Group_51032" data-name="Group 51032" transform="translate(-20207.854 -9196.577)">
      <g id="Group_51031" data-name="Group 51031" transform="translate(0)">
        <path id="Path_52677" data-name="Path 52677" d="M3580.657,1769.857h-2.082v-6.845h2.082Z" transform="translate(-3578.575 -1742.729)" fill="#c5e1f9"/>
        <path id="Path_52678" data-name="Path 52678" d="M3580.657,1822.082h-2.082v-11.548h2.082Z" transform="translate(-3578.575 -1776.989)" fill="#c5e1f9"/>
        <path id="Path_52679" data-name="Path 52679" d="M3580.657,1872.512h-2.082V1861.5h2.082Z" transform="translate(-3578.575 -1813.733)" fill="#c5e1f9"/>
        <path id="Path_52680" data-name="Path 52680" d="M3657.1,1835.628a11.154,11.154,0,0,1-11.122,11.124H3592.5a11.159,11.159,0,0,1-11.125-11.124V1701.455a11.16,11.16,0,0,1,11.125-11.123h53.469a11.154,11.154,0,0,1,11.122,11.123Z" transform="translate(-3580.597 -1690.332)" fill="#c5e1f9"/>
        <path id="Path_52681" data-name="Path 52681" d="M3596.574,1849.235a9.561,9.561,0,0,1-9.551-9.552V1705.509a9.562,9.562,0,0,1,9.551-9.553h53.469a9.565,9.565,0,0,1,9.553,9.553v134.174a9.564,9.564,0,0,1-9.553,9.552Z" transform="translate(-3584.665 -1694.386)" fill="#eaf4fe"/>
        <path id="Path_53649" data-name="Path 53649" d="M0,0H65.873V117.418H0Z" transform="translate(5.707 19.748)" fill="#204f74"/>
      </g>
    </g>
    <g id="Group_51034" data-name="Group 51034" transform="translate(-20265.707 -9213.65)">
      <g id="Group_51033" data-name="Group 51033" transform="translate(0 0)" clip-path="url(#clip-path)">
        <path id="Path_52682" data-name="Path 52682" d="M3546.653,1941.713c-4.674-2.728-9,3.055-12.031,6.556-3.047,3.464-4.7,7.494-9.674,19.548s-4.432,2.959-5.413-9.521-.262-44.825-.262-44.825c-7.762,7.544-11.287,16.383-14.986,27.6-14.718,44.615-7.36,107.627-7.36,107.627.977,12.477,34.956-.919,34.956-.919,2.057.069-17.242-20.6-11.262-30.418,5.975-9.8,16.761-24.272,17.927-29.422s2.475-27.9,4.135-31.915C3544.343,1951.995,3551.326,1944.43,3546.653,1941.713Z" transform="translate(-3460.535 -1834.127)" fill="url(#linear-gradient-5)"/>
      </g>
    </g>
    <path id="Path_52684" data-name="Path 52684" d="M3759.881,2103.343s2.839-63.534,1.519-65.92-4.461-7.087-9.2-6.235-3.826,2.011-7.627-1.846-4.77-1.44-8.22-.495-4.364-4.3-8.255-2.785l-5.836,2.263-12.779-52.957s-7.011-13.143-4.978,15.16,6.633,56.79,5.6,62.783-2.155,9.2-8.438,3.869-17.335-16.178-23.453-18.214-8.442-.212-8.442-.212,14.576,22.644,22.333,29.571,24,28.6,35.14,34.081c4.6,2.263,11.608,1.417,17.908,1.277C3753.115,2103.509,3759.881,2103.343,3759.881,2103.343Z" transform="translate(-23852.178 -11090.207)" fill="url(#linear-gradient-6)"/>
    <g id="Group_51035" data-name="Group 51035" transform="translate(-20117.094 -9200.386)">
      <path id="Path_52685" data-name="Path 52685" d="M3903.79,1711.7a3.752,3.752,0,0,0,3.752,3.752h2.5v8.753l8.753-8.753h28.762a3.75,3.75,0,0,0,3.751-3.752v-31.262a3.75,3.75,0,0,0-3.751-3.752h-40.015a3.752,3.752,0,0,0-3.752,3.752Z" transform="translate(-3903.79 -1676.69)" fill="#7eb3ff"/>
      <rect id="Rectangle_22841" data-name="Rectangle 22841" width="32.513" height="2.502" transform="translate(7.505 11.254)" fill="#fff"/>
      <rect id="Rectangle_22842" data-name="Rectangle 22842" width="32.513" height="2.5" transform="translate(7.505 17.508)" fill="#fff"/>
      <rect id="Rectangle_22843" data-name="Rectangle 22843" width="32.513" height="2.502" transform="translate(7.505 23.759)" fill="#fff"/>
    </g>
    <g id="Group_51036" data-name="Group 51036" transform="translate(-20255.686 -9229.095)">
      <path id="Path_52686" data-name="Path 52686" d="M3454.689,1608.83a3.751,3.751,0,0,1-3.751,3.752h-2.5v8.754l-8.753-8.754h-28.762a3.75,3.75,0,0,1-3.751-3.752v-31.262a3.751,3.751,0,0,1,3.751-3.752h40.016a3.752,3.752,0,0,1,3.751,3.752Z" transform="translate(-3407.171 -1573.816)" fill="#ec918a"/>
    </g>
    <path id="Path_52687" data-name="Path 52687" d="M3474.065,1612.9c-2.871-2.208-5.618.256-7.354,2.111-1.737-1.855-4.484-4.319-7.355-2.111-5.161,3.97.323,8.793,1.587,10.322,2.1,2.533,4.287,4.853,5.427,6.033l.372.328c1.139-1.18,3.638-3.828,5.736-6.36C3473.743,1621.7,3479.226,1616.874,3474.065,1612.9Z" transform="translate(-23698.912 -10830.461)" fill="#fff"/>
    <g id="Group_51038" data-name="Group 51038" transform="translate(-20257.781 -9161.448)">
      <g id="Group_51037" data-name="Group 51037" transform="translate(0 0)">
        <path id="Path_52688" data-name="Path 52688" d="M3402.291,1844.162a2.62,2.62,0,0,1-2.621-2.62v-22.7a2.62,2.62,0,0,1,2.621-2.62h33.183a2.62,2.62,0,0,1,2.62,2.62v22.7a2.62,2.62,0,0,1-2.62,2.62Z" transform="translate(-3399.67 -1816.218)" fill="#ffbf0d"/>
        <path id="Path_52689" data-name="Path 52689" d="M3402.291,1844.162a2.62,2.62,0,0,1-2.621-2.62v-22.7a2.62,2.62,0,0,1,2.621-2.62h33.183a2.62,2.62,0,0,1,2.62,2.62v22.7a2.62,2.62,0,0,1-2.62,2.62Z" transform="translate(-3399.67 -1816.218)" fill="#ffbf0d"/>
        <path id="Path_52690" data-name="Path 52690" d="M3435.474,1816.218h-33.183a2.62,2.62,0,0,0-2.621,2.62v1.371l30.485,23.952h5.319a2.62,2.62,0,0,0,2.62-2.62v-22.7A2.62,2.62,0,0,0,3435.474,1816.218Z" transform="translate(-3399.67 -1816.218)" fill="#f3aa06"/>
        <path id="Path_52691" data-name="Path 52691" d="M3418.882,1833.683l19.211-13.364v-1.48a2.62,2.62,0,0,0-2.62-2.62h-33.183a2.62,2.62,0,0,0-2.621,2.62v1.48Z" transform="translate(-3399.67 -1816.218)" fill="#fece40"/>
      </g>
      <path id="Path_52692" data-name="Path 52692" d="M3534.893,1843.428h8.166l-8.166,8.167Z" transform="translate(-3497.157 -1835.835)" fill="#f3aa06"/>
    </g>
    <g id="Group_51040" data-name="Group 51040" transform="translate(-20130.834 -9231.87)">
      <g id="Group_51039" data-name="Group 51039" transform="translate(0 0)">
        <path id="Path_52693" data-name="Path 52693" d="M3854.566,1572.237l20.479-8.37-15.911,8.823Z" transform="translate(-3854.566 -1563.867)" fill="#e5e8ec"/>
        <path id="Path_52694" data-name="Path 52694" d="M3872.413,1576.621l14.432-12.754-15.912,8.823Z" transform="translate(-3866.366 -1563.867)" fill="#cdd5d7"/>
        <path id="Path_52695" data-name="Path 52695" d="M3854.75,1588.345l9.179-2.117-4.434,2.465Z" transform="translate(-3854.699 -1579.988)" fill="#e67a61"/>
        <path id="Path_52696" data-name="Path 52696" d="M3854.566,1588.66l9-2.012-4.432,2.465Z" transform="translate(-3854.566 -1580.29)" fill="#fec12f"/>
        <path id="Path_52697" data-name="Path 52697" d="M3872.413,1592.742l3.437-3.2-.253-3.318-4.663,2.582Z" transform="translate(-3866.366 -1579.988)" fill="#ffab01"/>
        <path id="Path_52698" data-name="Path 52698" d="M3876.236,1576.621l14.432-12.754-12.588,9.629Z" transform="translate(-3870.189 -1563.867)" fill="#b7bec0"/>
        <path id="Path_52699" data-name="Path 52699" d="M3889.31,1578.222l6.125-14.355-12.587,9.629Z" transform="translate(-3874.954 -1563.867)" fill="#e5e8ec"/>
        <path id="Path_52700" data-name="Path 52700" d="M3889.6,1597.087l-3.39-7.053-2.959,2.23Z" transform="translate(-3875.247 -1582.732)" fill="#e67a61"/>
        <path id="Path_52701" data-name="Path 52701" d="M3889.31,1597.338l-3.5-6.956-2.958,2.23Z" transform="translate(-3874.954 -1582.982)" fill="#fec12f"/>
      </g>
    </g>
    <g id="Group_51070" data-name="Group 51070" transform="translate(-20281.953 -9111.6)">
      <g id="Group_51069" data-name="Group 51069" transform="translate(0 0)" style="mix-blend-mode: normal;isolation: isolate">
        <g id="Group_51041" data-name="Group 51041" transform="translate(23.034 7.763)">
          <path id="Path_52702" data-name="Path 52702" d="M3398.893,2022.664l-2.14,3.594-1.168,1.536,2.141-3.594Z" transform="translate(-3395.585 -2022.664)" fill="#87a2c9"/>
        </g>
        <g id="Group_51042" data-name="Group 51042" transform="translate(7.462)">
          <path id="Path_52703" data-name="Path 52703" d="M3343.283,1997.472l-2.142,3.594-1.356-2.625,2.141-3.6Z" transform="translate(-3339.785 -1994.846)" fill="#95b0d8"/>
        </g>
        <g id="Group_51043" data-name="Group 51043" transform="translate(28.257 15.884)">
          <path id="Path_52704" data-name="Path 52704" d="M3420.129,2052.452l-2.14,3.595-3.686-.689,2.14-3.6Z" transform="translate(-3414.303 -2051.763)" fill="#b0cbf6"/>
        </g>
        <g id="Group_51046" data-name="Group 51046" transform="translate(11.034 7.72)" style="mix-blend-mode: normal;isolation: isolate">
          <g id="Group_51045" data-name="Group 51045" clip-path="url(#clip-path-2)">
            <g id="Group_51044" data-name="Group 51044" transform="translate(0 0)" style="mix-blend-mode: normal;isolation: isolate">
              <path id="Path_52705" data-name="Path 52705" d="M3390.023,2042.243l-2.139,3.594a1.48,1.48,0,0,0-.067-1.37l2.143-3.595a1.487,1.487,0,0,1,.063,1.371" transform="translate(-3377.985 -2035.747)" fill="#8aa4cb"/>
              <path id="Path_52706" data-name="Path 52706" d="M3389.24,2039.547l-2.142,3.595a3.742,3.742,0,0,0-.278-.511l2.141-3.6a4.11,4.11,0,0,1,.279.513" transform="translate(-3377.267 -2034.422)" fill="#8ea9d0"/>
              <path id="Path_52707" data-name="Path 52707" d="M3388.151,2037.9l-2.14,3.6c-.092-.144-.2-.292-.313-.441l2.14-3.594c.117.148.221.3.313.439" transform="translate(-3376.457 -2033.288)" fill="#93add5"/>
              <path id="Path_52708" data-name="Path 52708" d="M3386.937,2036.39l-2.14,3.594c-.106-.137-.223-.274-.349-.413l2.139-3.6q.19.208.35.414" transform="translate(-3375.556 -2032.217)" fill="#97b2da"/>
              <path id="Path_52709" data-name="Path 52709" d="M3385.574,2034.926l-2.14,3.595c-.122-.135-.252-.27-.393-.405l2.14-3.6c.139.137.271.271.392.406" transform="translate(-3374.543 -2031.168)" fill="#9cb7df"/>
              <path id="Path_52710" data-name="Path 52710" d="M3384,2033.444l-2.14,3.6c-.143-.139-.294-.279-.456-.419l2.14-3.593q.241.208.456.417" transform="translate(-3373.366 -2030.091)" fill="#a0bce4"/>
              <path id="Path_52711" data-name="Path 52711" d="M3382.12,2031.864l-2.14,3.593c-.175-.15-.358-.3-.553-.448l2.141-3.594c.194.147.379.3.552.45" transform="translate(-3371.937 -2028.928)" fill="#a5bfe9"/>
              <path id="Path_52712" data-name="Path 52712" d="M3379.546,2029.969l-2.14,3.594c-.231-.177-.474-.353-.731-.523l-.051-.035,2.139-3.6.052.034c.257.172.5.348.732.525" transform="translate(-3369.915 -2027.484)" fill="#a9c5ed"/>
              <path id="Path_52713" data-name="Path 52713" d="M3371.18,2025.6l-2.14,3.6a13.466,13.466,0,0,0-2.936-1.477l2.14-3.593a13.5,13.5,0,0,1,2.935,1.475" transform="translate(-3362.332 -2023.674)" fill="#aecaf2"/>
              <path id="Path_52714" data-name="Path 52714" d="M3366.143,2023.487,3364,2027.08q-.417-.145-.814-.245l2.141-3.595c.264.067.536.148.814.247" transform="translate(-3360.23 -2023.035)" fill="#a9c5ed"/>
              <path id="Path_52715" data-name="Path 52715" d="M3363.772,2022.908l-2.141,3.6c-.031-.009-.062-.016-.094-.023q-.262-.063-.509-.1l2.139-3.6c.165.028.334.062.509.1l.095.023" transform="translate(-3358.673 -2022.704)" fill="#a5bfe9"/>
              <path id="Path_52716" data-name="Path 52716" d="M3361.871,2022.62l-2.14,3.6c-.174-.028-.342-.051-.5-.063l2.138-3.594c.162.012.331.034.5.062" transform="translate(-3357.376 -2022.544)" fill="#a0bce4"/>
              <path id="Path_52717" data-name="Path 52717" d="M3360.226,2022.521l-2.138,3.594a4.415,4.415,0,0,0-.442-.012l2.139-3.6a4.333,4.333,0,0,1,.441.013" transform="translate(-3356.233 -2022.507)" fill="#9cb7df"/>
              <path id="Path_52718" data-name="Path 52718" d="M3358.748,2022.511l-2.139,3.6a3.218,3.218,0,0,0-.4.033l2.139-3.594a3.016,3.016,0,0,1,.4-.035" transform="translate(-3355.196 -2022.51)" fill="#97b2da"/>
              <path id="Path_52719" data-name="Path 52719" d="M3357.379,2022.636l-2.14,3.594a2.131,2.131,0,0,0-.374.094l2.139-3.6a2.018,2.018,0,0,1,.375-.092" transform="translate(-3354.23 -2022.6)" fill="#93add5"/>
              <path id="Path_52720" data-name="Path 52720" d="M3356.066,2022.966l-2.139,3.6a1.321,1.321,0,0,0-.363.187l2.14-3.6a1.391,1.391,0,0,1,.362-.186" transform="translate(-3353.291 -2022.838)" fill="#8ea9d0"/>
              <path id="Path_52721" data-name="Path 52721" d="M3355,2023.634l-2.14,3.6a.565.565,0,0,0-.078.062.983.983,0,0,0-.195.232l2.14-3.593a.933.933,0,0,1,.194-.233c.026-.022.052-.044.079-.064" transform="translate(-3352.587 -2023.32)" fill="#8aa4cb"/>
            </g>
          </g>
        </g>
        <g id="Group_51047" data-name="Group 51047" transform="translate(0 1.702)">
          <path id="Path_52723" data-name="Path 52723" d="M3318.877,2003.6l-2.14,3.593-3.69-2.652,2.14-3.594Z" transform="translate(-3313.047 -2000.945)" fill="#b4cef8"/>
        </g>
        <g id="Group_51048" data-name="Group 51048" transform="translate(26.285 19.766)">
          <path id="Path_52724" data-name="Path 52724" d="M3413.429,2068.19l-2.14,3.594-4.053-2.515,2.14-3.594Z" transform="translate(-3407.236 -2065.676)" fill="#b6d0fa"/>
        </g>
        <g id="Group_51049" data-name="Group 51049" transform="translate(30.338 20.844)">
          <path id="Path_52725" data-name="Path 52725" d="M3425.528,2069.537l-2.14,3.6-1.629,1.436,2.14-3.594Z" transform="translate(-3421.759 -2069.537)" fill="#8ba4cd"/>
        </g>
        <g id="Group_51052" data-name="Group 51052" transform="translate(3.5 4.356)" style="mix-blend-mode: normal;isolation: isolate">
          <g id="Group_51051" data-name="Group 51051" clip-path="url(#clip-path-3)">
            <g id="Group_51050" data-name="Group 51050" style="mix-blend-mode: normal;isolation: isolate">
              <path id="Path_52726" data-name="Path 52726" d="M3327.942,2012.762l-2.14,3.6a3.388,3.388,0,0,1-.024-2.31l2.14-3.594a3.387,3.387,0,0,0,.024,2.308" transform="translate(-3325.587 -2010.454)" fill="#8aa4cb"/>
            </g>
          </g>
        </g>
        <g id="Group_51055" data-name="Group 51055" transform="translate(23.149 19.766)" style="mix-blend-mode: normal;isolation: isolate">
          <g id="Group_51054" data-name="Group 51054" clip-path="url(#clip-path-4)">
            <g id="Group_51053" data-name="Group 51053" style="mix-blend-mode: normal;isolation: isolate">
              <path id="Path_52728" data-name="Path 52728" d="M3407.7,2065.676l-2.14,3.594a5.483,5.483,0,0,1-.65.143l2.142-3.6a5.753,5.753,0,0,0,.648-.141" transform="translate(-3402.421 -2065.676)" fill="#93add5"/>
              <path id="Path_52729" data-name="Path 52729" d="M3404.518,2066.182l-2.142,3.6a7.709,7.709,0,0,1-.979.085l2.14-3.6a7.385,7.385,0,0,0,.981-.085" transform="translate(-3399.89 -2066.041)" fill="#97b2da"/>
              <path id="Path_52730" data-name="Path 52730" d="M3400.72,2066.4l-2.14,3.595c-.345.009-.71,0-1.09-.032l2.141-3.595a10.514,10.514,0,0,0,1.089.032" transform="translate(-3397.074 -2066.178)" fill="#9cb7df"/>
              <path id="Path_52731" data-name="Path 52731" d="M3398.555,2066.271l-2.142,3.595q-.207-.015-.417-.041l2.14-3.593c.142.014.281.028.418.039" transform="translate(-3395.997 -2066.077)" fill="#a0bce4"/>
            </g>
          </g>
        </g>
        <g id="Group_51056" data-name="Group 51056" transform="translate(1.905 9.015)">
          <path id="Path_52733" data-name="Path 52733" d="M3325.869,2028.27l-2.14,3.594-3.854-1.118,2.14-3.594Z" transform="translate(-3319.875 -2027.151)" fill="#b4d0f8"/>
        </g>
        <g id="Group_51057" data-name="Group 51057" transform="translate(0.023 5.972)">
          <path id="Path_52734" data-name="Path 52734" d="M3317.151,2019.288l-2.141,3.595-1.882-3.044,2.14-3.594Z" transform="translate(-3313.128 -2016.244)" fill="#9ab5dd"/>
        </g>
        <g id="Group_51060" data-name="Group 51060" transform="translate(5.759 10.134)" style="mix-blend-mode: normal;isolation: isolate">
          <g id="Group_51059" data-name="Group 51059" clip-path="url(#clip-path-5)">
            <g id="Group_51058" data-name="Group 51058" style="mix-blend-mode: normal;isolation: isolate">
              <path id="Path_52735" data-name="Path 52735" d="M3345.791,2041.13l-2.14,3.6c-.186-.153-.367-.306-.544-.46l2.14-3.6c.177.155.359.307.544.46" transform="translate(-3340.477 -2038.016)" fill="#a5bfe9"/>
              <path id="Path_52736" data-name="Path 52736" d="M3342.355,2038.021l-2.14,3.6c-.395-.341-.768-.685-1.119-1.026l2.14-3.6q.526.515,1.119,1.026" transform="translate(-3337.585 -2035.366)" fill="#a0bce4"/>
              <path id="Path_52737" data-name="Path 52737" d="M3338.76,2034.434l-2.14,3.6q-.513-.5-.958-.992l2.139-3.594c.3.329.618.661.959.991" transform="translate(-3335.11 -2032.805)" fill="#9cb7df"/>
              <path id="Path_52738" data-name="Path 52738" d="M3336.376,2031.8l-2.14,3.594c-.194-.213-.377-.425-.551-.637l2.14-3.595q.261.318.552.638" transform="translate(-3333.685 -2031.158)" fill="#97b2da"/>
            </g>
          </g>
        </g>
        <g id="Group_51063" data-name="Group 51063" transform="translate(13.821 16.582)" style="mix-blend-mode: normal;isolation: isolate">
          <g id="Group_51062" data-name="Group 51062" clip-path="url(#clip-path-6)">
            <g id="Group_51061" data-name="Group 51061" style="mix-blend-mode: normal;isolation: isolate">
              <path id="Path_52740" data-name="Path 52740" d="M3369.176,2056.361l-2.139,3.594a31.964,31.964,0,0,1-4.464-2.1l2.14-3.594a31.969,31.969,0,0,0,4.463,2.1" transform="translate(-3362.573 -2054.265)" fill="#aecaf2"/>
            </g>
          </g>
        </g>
        <g id="Group_51064" data-name="Group 51064" transform="translate(20.322 21.539)">
          <path id="Path_52742" data-name="Path 52742" d="M3392.191,2073.037l-2.14,3.595-4.183-1.007,2.14-3.6Z" transform="translate(-3385.869 -2072.029)" fill="#b2cdf7"/>
        </g>
        <g id="Group_51065" data-name="Group 51065" transform="translate(18.285 18.678)">
          <path id="Path_52743" data-name="Path 52743" d="M3382.746,2064.637l-2.141,3.6-2.037-2.863,2.139-3.594Z" transform="translate(-3378.568 -2061.775)" fill="#9eb8e2"/>
        </g>
        <g id="Group_51066" data-name="Group 51066" transform="translate(7.769 14.784)">
          <path id="Path_52744" data-name="Path 52744" d="M3347.311,2050.685l-2.14,3.6-4.285-2.863,2.14-3.6Z" transform="translate(-3340.885 -2047.821)" fill="#b5d1f9"/>
        </g>
        <g id="Group_51067" data-name="Group 51067" transform="translate(12.054 16.582)">
          <path id="Path_52745" data-name="Path 52745" d="M3360.149,2054.265l-2.14,3.594-1.767,1.068,2.139-3.6Z" transform="translate(-3356.242 -2054.265)" fill="#8fa8d1"/>
        </g>
        <g id="Group_51068" data-name="Group 51068" transform="translate(2.141 0)">
          <path id="Path_52746" data-name="Path 52746" d="M3352.66,2011.419l-3.687-.689a3.384,3.384,0,0,1,.021,2.307l3.69,2.653-1.629,1.437-4.053-2.514a8.375,8.375,0,0,1-3.138.156l1.357,2.625-4.182-1.008-2.039-2.861a32.1,32.1,0,0,1-4.463-2.1l-1.767,1.066-4.285-2.864,1.164-1.536a23.542,23.542,0,0,1-3.173-3.114l-3.854-1.118-1.883-3.044,3.692.691a3.387,3.387,0,0,1-.025-2.308l-3.689-2.654,1.633-1.435,4.048,2.513a8.375,8.375,0,0,1,3.138-.154l-1.357-2.626,4.182,1.006,2.042,2.862a32.626,32.626,0,0,1,4.463,2.1l1.763-1.068,4.289,2.865-1.168,1.535a23.71,23.71,0,0,1,3.175,3.114l3.856,1.121Zm-11.206-2.127c1-.88-.32-3.013-2.945-4.767a12.636,12.636,0,0,0-3.894-1.779,3.151,3.151,0,0,0-2.671.2c-1,.881.324,3.018,2.948,4.77a12.588,12.588,0,0,0,3.891,1.778,3.131,3.131,0,0,0,2.671-.2" transform="translate(-3320.717 -1994.846)" fill="#d0ebf5"/>
        </g>
      </g>
    </g>
    <path id="Path_53474" data-name="Path 53474" d="M3960.7,1934.957l-6.176-10.692-11.081,6.4v-12.793H3931.1v12.793l-11.082-6.4-6.173,10.692,11.082,6.4-11.082,6.4,6.173,10.69,11.082-6.4v12.8h12.349v-12.8l11.081,6.4,6.176-10.69-11.083-6.4Z" transform="translate(-24028.133 -11050.948)" fill="#9ac7f7"/>
    <g id="Group_51253" data-name="Group 51253" transform="translate(-20186.51 -9244.122)">
      <g id="Group_51251" data-name="Group 51251" transform="translate(0 0)">
        <g id="Group_51250" data-name="Group 51250">
          <path id="Path_53475" data-name="Path 53475" d="M3680.81,1532.844c0,7.114-12.877,26.614-12.877,26.614s-12.879-19.5-12.879-26.614a12.878,12.878,0,1,1,25.756,0Z" transform="translate(-3655.053 -1519.966)" fill="#7eb3ff"/>
        </g>
      </g>
      <g id="Group_51252" data-name="Group 51252" transform="translate(6.464 7.041)">
        <path id="Path_53476" data-name="Path 53476" d="M3691.009,1549.064h-3.868V1545.2h-5.058v3.869h-3.868v5.058h3.868v3.867h5.058v-3.867h3.868Z" transform="translate(-3678.215 -1545.196)" fill="#fff"/>
      </g>
    </g>
    <text id="M" transform="translate(-20191.703 -9122.998)" fill="#fff" font-size="46" font-family="SegoeUI-Bold, Segoe UI" font-weight="700"><tspan x="0" y="0">M</tspan></text>
  </g>
</svg>
