<svg xmlns="http://www.w3.org/2000/svg" xmlns:xlink="http://www.w3.org/1999/xlink" width="116.769" height="67.987" viewBox="0 0 116.769 67.987">
  <defs>
    <linearGradient id="linear-gradient" x1="0.5" x2="0.5" y2="1" gradientUnits="objectBoundingBox">
      <stop offset="0" stop-color="#438d76"/>
      <stop offset="1" stop-color="#2b6050"/>
    </linearGradient>
  </defs>
  <g id="Group_49167" data-name="Group 49167" transform="translate(13448.385 15323.272)">
    <g id="doctor-svgrepo-com" transform="translate(-13448.385 -15323.272)">
      <path id="Path_49414" data-name="Path 49414" d="M6.409,6.064l.1-.009a.228.228,0,0,0,.106-.04h0a11.446,11.446,0,0,0,.377,1.091A11.112,11.112,0,0,0,7.6,8.41l-.03-.06c-.018.273-.04.553-.068.824a1.92,1.92,0,0,1-.1.469l0-.013c-.009,0-.022,1.557-.022,1.557a2.147,2.147,0,0,0,1.646,2.086l.015,0a.287.287,0,0,1,.267-.184h.43a.292.292,0,0,1,.267.182v0a2.154,2.154,0,0,0,1.669-2.088h0s-.026-1.547-.04-1.557a2.36,2.36,0,0,1-.091-.444V9.175c-.026-.273-.043-.546-.068-.824a10.982,10.982,0,0,0,.55-1.164l.028-.079c.153-.381.273-.744.377-1.091a.223.223,0,0,0,.1.04h0l.106.009a.242.242,0,0,0,.25-.254l.114-1.446h0a.239.239,0,0,0-.209-.237h-.014a5.2,5.2,0,0,0,.046-.7,5.347,5.347,0,0,0-.227-1.546l.01.038A3.2,3.2,0,0,0,10.3.093l-.019,0A4.377,4.377,0,0,0,9.535.006H9.519a4.109,4.109,0,0,0-.777.088l.027,0A3.215,3.215,0,0,0,6.438,1.9l-.008.02a5.127,5.127,0,0,0-.219,1.5,5.276,5.276,0,0,0,.051.734l0-.028a.237.237,0,0,0-.211.234v.005l.114,1.446a.24.24,0,0,0,.247.253Z" transform="translate(-1.519 -0.006)" fill="url(#linear-gradient)"/>
      <path id="Path_49415" data-name="Path 49415" d="M16.033,18.971a8.539,8.539,0,0,0-.4-3.14c-.049-.14-.088-1.086-1.652-1.7-.958-.377-2.2-.385-3.242-.827v1.231a2.719,2.719,0,0,1-2.2,2.665l-.017,0a.287.287,0,0,1-.28.24H8.222v.928a1.643,1.643,0,1,0,3.285,0v-.648a.933.933,0,1,1,.44-.041l-.007,0v.722a2.077,2.077,0,1,1-4.153,0v-.972a.285.285,0,0,1-.262-.238h0a2.722,2.722,0,0,1-2.212-2.662V13.291c-1.051.451-2.3.46-3.259.838-1.568.613-1.6,1.557-1.652,1.7A8.624,8.624,0,0,0,0,18.969c-.009.3,0,.758.9,1.16a24.787,24.787,0,0,0,7,1.183h.24a24.613,24.613,0,0,0,7-1.183c.9-.4.907-.855.9-1.157ZM5.042,18.043H4.109v.937H3.443v-.934H2.51v-.666h.933v-.933h.666v.933h.933Z" transform="translate(0.001 -3.345)" fill="url(#linear-gradient)"/>
      <path id="Path_49416" data-name="Path 49416" d="M15.887,17.8h0a.5.5,0,1,0-.5.5A.5.5,0,0,0,15.887,17.795Z" transform="translate(-3.739 -4.351)" fill="url(#linear-gradient)"/>
    </g>
    <g id="doctor-svgrepo-com-2" data-name="doctor-svgrepo-com" transform="translate(-13428.238 -15323.272)">
      <path id="Path_49414-2" data-name="Path 49414" d="M6.409,6.064l.1-.009a.228.228,0,0,0,.106-.04h0a11.446,11.446,0,0,0,.377,1.091A11.112,11.112,0,0,0,7.6,8.41l-.03-.06c-.018.273-.04.553-.068.824a1.92,1.92,0,0,1-.1.469l0-.013c-.009,0-.022,1.557-.022,1.557a2.147,2.147,0,0,0,1.646,2.086l.015,0a.287.287,0,0,1,.267-.184h.43a.292.292,0,0,1,.267.182v0a2.154,2.154,0,0,0,1.669-2.088h0s-.026-1.547-.04-1.557a2.36,2.36,0,0,1-.091-.444V9.175c-.026-.273-.043-.546-.068-.824a10.982,10.982,0,0,0,.55-1.164l.028-.079c.153-.381.273-.744.377-1.091a.223.223,0,0,0,.1.04h0l.106.009a.242.242,0,0,0,.25-.254l.114-1.446h0a.239.239,0,0,0-.209-.237h-.014a5.2,5.2,0,0,0,.046-.7,5.347,5.347,0,0,0-.227-1.546l.01.038A3.2,3.2,0,0,0,10.3.093l-.019,0A4.377,4.377,0,0,0,9.535.006H9.519a4.109,4.109,0,0,0-.777.088l.027,0A3.215,3.215,0,0,0,6.438,1.9l-.008.02a5.127,5.127,0,0,0-.219,1.5,5.276,5.276,0,0,0,.051.734l0-.028a.237.237,0,0,0-.211.234v.005l.114,1.446a.24.24,0,0,0,.247.253Z" transform="translate(-1.519 -0.006)" fill="url(#linear-gradient)"/>
      <path id="Path_49415-2" data-name="Path 49415" d="M16.033,18.971a8.539,8.539,0,0,0-.4-3.14c-.049-.14-.088-1.086-1.652-1.7-.958-.377-2.2-.385-3.242-.827v1.231a2.719,2.719,0,0,1-2.2,2.665l-.017,0a.287.287,0,0,1-.28.24H8.222v.928a1.643,1.643,0,1,0,3.285,0v-.648a.933.933,0,1,1,.44-.041l-.007,0v.722a2.077,2.077,0,1,1-4.153,0v-.972a.285.285,0,0,1-.262-.238h0a2.722,2.722,0,0,1-2.212-2.662V13.291c-1.051.451-2.3.46-3.259.838-1.568.613-1.6,1.557-1.652,1.7A8.624,8.624,0,0,0,0,18.969c-.009.3,0,.758.9,1.16a24.787,24.787,0,0,0,7,1.183h.24a24.613,24.613,0,0,0,7-1.183c.9-.4.907-.855.9-1.157ZM5.042,18.043H4.109v.937H3.443v-.934H2.51v-.666h.933v-.933h.666v.933h.933Z" transform="translate(0.001 -3.345)" fill="url(#linear-gradient)"/>
      <path id="Path_49416-2" data-name="Path 49416" d="M15.887,17.8h0a.5.5,0,1,0-.5.5A.5.5,0,0,0,15.887,17.795Z" transform="translate(-3.739 -4.351)" fill="url(#linear-gradient)"/>
    </g>
    <g id="doctor-svgrepo-com-3" data-name="doctor-svgrepo-com" transform="translate(-13408.092 -15323.272)">
      <path id="Path_49414-3" data-name="Path 49414" d="M6.409,6.064l.1-.009a.228.228,0,0,0,.106-.04h0a11.446,11.446,0,0,0,.377,1.091A11.112,11.112,0,0,0,7.6,8.41l-.03-.06c-.018.273-.04.553-.068.824a1.92,1.92,0,0,1-.1.469l0-.013c-.009,0-.022,1.557-.022,1.557a2.147,2.147,0,0,0,1.646,2.086l.015,0a.287.287,0,0,1,.267-.184h.43a.292.292,0,0,1,.267.182v0a2.154,2.154,0,0,0,1.669-2.088h0s-.026-1.547-.04-1.557a2.36,2.36,0,0,1-.091-.444V9.175c-.026-.273-.043-.546-.068-.824a10.982,10.982,0,0,0,.55-1.164l.028-.079c.153-.381.273-.744.377-1.091a.223.223,0,0,0,.1.04h0l.106.009a.242.242,0,0,0,.25-.254l.114-1.446h0a.239.239,0,0,0-.209-.237h-.014a5.2,5.2,0,0,0,.046-.7,5.347,5.347,0,0,0-.227-1.546l.01.038A3.2,3.2,0,0,0,10.3.093l-.019,0A4.377,4.377,0,0,0,9.535.006H9.519a4.109,4.109,0,0,0-.777.088l.027,0A3.215,3.215,0,0,0,6.438,1.9l-.008.02a5.127,5.127,0,0,0-.219,1.5,5.276,5.276,0,0,0,.051.734l0-.028a.237.237,0,0,0-.211.234v.005l.114,1.446a.24.24,0,0,0,.247.253Z" transform="translate(-1.519 -0.006)" fill="url(#linear-gradient)"/>
      <path id="Path_49415-3" data-name="Path 49415" d="M16.033,18.971a8.539,8.539,0,0,0-.4-3.14c-.049-.14-.088-1.086-1.652-1.7-.958-.377-2.2-.385-3.242-.827v1.231a2.719,2.719,0,0,1-2.2,2.665l-.017,0a.287.287,0,0,1-.28.24H8.222v.928a1.643,1.643,0,1,0,3.285,0v-.648a.933.933,0,1,1,.44-.041l-.007,0v.722a2.077,2.077,0,1,1-4.153,0v-.972a.285.285,0,0,1-.262-.238h0a2.722,2.722,0,0,1-2.212-2.662V13.291c-1.051.451-2.3.46-3.259.838-1.568.613-1.6,1.557-1.652,1.7A8.624,8.624,0,0,0,0,18.969c-.009.3,0,.758.9,1.16a24.787,24.787,0,0,0,7,1.183h.24a24.613,24.613,0,0,0,7-1.183c.9-.4.907-.855.9-1.157ZM5.042,18.043H4.109v.937H3.443v-.934H2.51v-.666h.933v-.933h.666v.933h.933Z" transform="translate(0.001 -3.345)" fill="url(#linear-gradient)"/>
      <path id="Path_49416-3" data-name="Path 49416" d="M15.887,17.8h0a.5.5,0,1,0-.5.5A.5.5,0,0,0,15.887,17.795Z" transform="translate(-3.739 -4.351)" fill="url(#linear-gradient)"/>
    </g>
    <g id="doctor-svgrepo-com-4" data-name="doctor-svgrepo-com" transform="translate(-13387.943 -15323.272)">
      <path id="Path_49414-4" data-name="Path 49414" d="M6.409,6.064l.1-.009a.228.228,0,0,0,.106-.04h0a11.446,11.446,0,0,0,.377,1.091A11.112,11.112,0,0,0,7.6,8.41l-.03-.06c-.018.273-.04.553-.068.824a1.92,1.92,0,0,1-.1.469l0-.013c-.009,0-.022,1.557-.022,1.557a2.147,2.147,0,0,0,1.646,2.086l.015,0a.287.287,0,0,1,.267-.184h.43a.292.292,0,0,1,.267.182v0a2.154,2.154,0,0,0,1.669-2.088h0s-.026-1.547-.04-1.557a2.36,2.36,0,0,1-.091-.444V9.175c-.026-.273-.043-.546-.068-.824a10.982,10.982,0,0,0,.55-1.164l.028-.079c.153-.381.273-.744.377-1.091a.223.223,0,0,0,.1.04h0l.106.009a.242.242,0,0,0,.25-.254l.114-1.446h0a.239.239,0,0,0-.209-.237h-.014a5.2,5.2,0,0,0,.046-.7,5.347,5.347,0,0,0-.227-1.546l.01.038A3.2,3.2,0,0,0,10.3.093l-.019,0A4.377,4.377,0,0,0,9.535.006H9.519a4.109,4.109,0,0,0-.777.088l.027,0A3.215,3.215,0,0,0,6.438,1.9l-.008.02a5.127,5.127,0,0,0-.219,1.5,5.276,5.276,0,0,0,.051.734l0-.028a.237.237,0,0,0-.211.234v.005l.114,1.446a.24.24,0,0,0,.247.253Z" transform="translate(-1.519 -0.006)" fill="url(#linear-gradient)"/>
      <path id="Path_49415-4" data-name="Path 49415" d="M16.033,18.971a8.539,8.539,0,0,0-.4-3.14c-.049-.14-.088-1.086-1.652-1.7-.958-.377-2.2-.385-3.242-.827v1.231a2.719,2.719,0,0,1-2.2,2.665l-.017,0a.287.287,0,0,1-.28.24H8.222v.928a1.643,1.643,0,1,0,3.285,0v-.648a.933.933,0,1,1,.44-.041l-.007,0v.722a2.077,2.077,0,1,1-4.153,0v-.972a.285.285,0,0,1-.262-.238h0a2.722,2.722,0,0,1-2.212-2.662V13.291c-1.051.451-2.3.46-3.259.838-1.568.613-1.6,1.557-1.652,1.7A8.624,8.624,0,0,0,0,18.969c-.009.3,0,.758.9,1.16a24.787,24.787,0,0,0,7,1.183h.24a24.613,24.613,0,0,0,7-1.183c.9-.4.907-.855.9-1.157ZM5.042,18.043H4.109v.937H3.443v-.934H2.51v-.666h.933v-.933h.666v.933h.933Z" transform="translate(0.001 -3.345)" fill="url(#linear-gradient)"/>
      <path id="Path_49416-4" data-name="Path 49416" d="M15.887,17.8h0a.5.5,0,1,0-.5.5A.5.5,0,0,0,15.887,17.795Z" transform="translate(-3.739 -4.351)" fill="url(#linear-gradient)"/>
    </g>
    <g id="doctor-svgrepo-com-5" data-name="doctor-svgrepo-com" transform="translate(-13367.797 -15323.272)">
      <path id="Path_49414-5" data-name="Path 49414" d="M6.409,6.064l.1-.009a.228.228,0,0,0,.106-.04h0a11.446,11.446,0,0,0,.377,1.091A11.112,11.112,0,0,0,7.6,8.41l-.03-.06c-.018.273-.04.553-.068.824a1.92,1.92,0,0,1-.1.469l0-.013c-.009,0-.022,1.557-.022,1.557a2.147,2.147,0,0,0,1.646,2.086l.015,0a.287.287,0,0,1,.267-.184h.43a.292.292,0,0,1,.267.182v0a2.154,2.154,0,0,0,1.669-2.088h0s-.026-1.547-.04-1.557a2.36,2.36,0,0,1-.091-.444V9.175c-.026-.273-.043-.546-.068-.824a10.982,10.982,0,0,0,.55-1.164l.028-.079c.153-.381.273-.744.377-1.091a.223.223,0,0,0,.1.04h0l.106.009a.242.242,0,0,0,.25-.254l.114-1.446h0a.239.239,0,0,0-.209-.237h-.014a5.2,5.2,0,0,0,.046-.7,5.347,5.347,0,0,0-.227-1.546l.01.038A3.2,3.2,0,0,0,10.3.093l-.019,0A4.377,4.377,0,0,0,9.535.006H9.519a4.109,4.109,0,0,0-.777.088l.027,0A3.215,3.215,0,0,0,6.438,1.9l-.008.02a5.127,5.127,0,0,0-.219,1.5,5.276,5.276,0,0,0,.051.734l0-.028a.237.237,0,0,0-.211.234v.005l.114,1.446a.24.24,0,0,0,.247.253Z" transform="translate(-1.519 -0.006)" fill="url(#linear-gradient)"/>
      <path id="Path_49415-5" data-name="Path 49415" d="M16.033,18.971a8.539,8.539,0,0,0-.4-3.14c-.049-.14-.088-1.086-1.652-1.7-.958-.377-2.2-.385-3.242-.827v1.231a2.719,2.719,0,0,1-2.2,2.665l-.017,0a.287.287,0,0,1-.28.24H8.222v.928a1.643,1.643,0,1,0,3.285,0v-.648a.933.933,0,1,1,.44-.041l-.007,0v.722a2.077,2.077,0,1,1-4.153,0v-.972a.285.285,0,0,1-.262-.238h0a2.722,2.722,0,0,1-2.212-2.662V13.291c-1.051.451-2.3.46-3.259.838-1.568.613-1.6,1.557-1.652,1.7A8.624,8.624,0,0,0,0,18.969c-.009.3,0,.758.9,1.16a24.787,24.787,0,0,0,7,1.183h.24a24.613,24.613,0,0,0,7-1.183c.9-.4.907-.855.9-1.157ZM5.042,18.043H4.109v.937H3.443v-.934H2.51v-.666h.933v-.933h.666v.933h.933Z" transform="translate(0.001 -3.345)" fill="url(#linear-gradient)"/>
      <path id="Path_49416-5" data-name="Path 49416" d="M15.887,17.8h0a.5.5,0,1,0-.5.5A.5.5,0,0,0,15.887,17.795Z" transform="translate(-3.739 -4.351)" fill="url(#linear-gradient)"/>
    </g>
    <g id="doctor-svgrepo-com-6" data-name="doctor-svgrepo-com" transform="translate(-13347.65 -15323.272)">
      <path id="Path_49414-6" data-name="Path 49414" d="M6.409,6.064l.1-.009a.228.228,0,0,0,.106-.04h0a11.446,11.446,0,0,0,.377,1.091A11.112,11.112,0,0,0,7.6,8.41l-.03-.06c-.018.273-.04.553-.068.824a1.92,1.92,0,0,1-.1.469l0-.013c-.009,0-.022,1.557-.022,1.557a2.147,2.147,0,0,0,1.646,2.086l.015,0a.287.287,0,0,1,.267-.184h.43a.292.292,0,0,1,.267.182v0a2.154,2.154,0,0,0,1.669-2.088h0s-.026-1.547-.04-1.557a2.36,2.36,0,0,1-.091-.444V9.175c-.026-.273-.043-.546-.068-.824a10.982,10.982,0,0,0,.55-1.164l.028-.079c.153-.381.273-.744.377-1.091a.223.223,0,0,0,.1.04h0l.106.009a.242.242,0,0,0,.25-.254l.114-1.446h0a.239.239,0,0,0-.209-.237h-.014a5.2,5.2,0,0,0,.046-.7,5.347,5.347,0,0,0-.227-1.546l.01.038A3.2,3.2,0,0,0,10.3.093l-.019,0A4.377,4.377,0,0,0,9.535.006H9.519a4.109,4.109,0,0,0-.777.088l.027,0A3.215,3.215,0,0,0,6.438,1.9l-.008.02a5.127,5.127,0,0,0-.219,1.5,5.276,5.276,0,0,0,.051.734l0-.028a.237.237,0,0,0-.211.234v.005l.114,1.446a.24.24,0,0,0,.247.253Z" transform="translate(-1.519 -0.006)" fill="url(#linear-gradient)"/>
      <path id="Path_49415-6" data-name="Path 49415" d="M16.033,18.971a8.539,8.539,0,0,0-.4-3.14c-.049-.14-.088-1.086-1.652-1.7-.958-.377-2.2-.385-3.242-.827v1.231a2.719,2.719,0,0,1-2.2,2.665l-.017,0a.287.287,0,0,1-.28.24H8.222v.928a1.643,1.643,0,1,0,3.285,0v-.648a.933.933,0,1,1,.44-.041l-.007,0v.722a2.077,2.077,0,1,1-4.153,0v-.972a.285.285,0,0,1-.262-.238h0a2.722,2.722,0,0,1-2.212-2.662V13.291c-1.051.451-2.3.46-3.259.838-1.568.613-1.6,1.557-1.652,1.7A8.624,8.624,0,0,0,0,18.969c-.009.3,0,.758.9,1.16a24.787,24.787,0,0,0,7,1.183h.24a24.613,24.613,0,0,0,7-1.183c.9-.4.907-.855.9-1.157ZM5.042,18.043H4.109v.937H3.443v-.934H2.51v-.666h.933v-.933h.666v.933h.933Z" transform="translate(0.001 -3.345)" fill="url(#linear-gradient)"/>
      <path id="Path_49416-6" data-name="Path 49416" d="M15.887,17.8h0a.5.5,0,1,0-.5.5A.5.5,0,0,0,15.887,17.795Z" transform="translate(-3.739 -4.351)" fill="url(#linear-gradient)"/>
    </g>
    <g id="doctor-svgrepo-com-7" data-name="doctor-svgrepo-com" transform="translate(-13448.385 -15298.263)">
      <path id="Path_49414-7" data-name="Path 49414" d="M6.409,6.064l.1-.009a.228.228,0,0,0,.106-.04h0a11.446,11.446,0,0,0,.377,1.091A11.112,11.112,0,0,0,7.6,8.41l-.03-.06c-.018.273-.04.553-.068.824a1.92,1.92,0,0,1-.1.469l0-.013c-.009,0-.022,1.557-.022,1.557a2.147,2.147,0,0,0,1.646,2.086l.015,0a.287.287,0,0,1,.267-.184h.43a.292.292,0,0,1,.267.182v0a2.154,2.154,0,0,0,1.669-2.088h0s-.026-1.547-.04-1.557a2.36,2.36,0,0,1-.091-.444V9.175c-.026-.273-.043-.546-.068-.824a10.982,10.982,0,0,0,.55-1.164l.028-.079c.153-.381.273-.744.377-1.091a.223.223,0,0,0,.1.04h0l.106.009a.242.242,0,0,0,.25-.254l.114-1.446h0a.239.239,0,0,0-.209-.237h-.014a5.2,5.2,0,0,0,.046-.7,5.347,5.347,0,0,0-.227-1.546l.01.038A3.2,3.2,0,0,0,10.3.093l-.019,0A4.377,4.377,0,0,0,9.535.006H9.519a4.109,4.109,0,0,0-.777.088l.027,0A3.215,3.215,0,0,0,6.438,1.9l-.008.02a5.127,5.127,0,0,0-.219,1.5,5.276,5.276,0,0,0,.051.734l0-.028a.237.237,0,0,0-.211.234v.005l.114,1.446a.24.24,0,0,0,.247.253Z" transform="translate(-1.519 -0.006)" fill="url(#linear-gradient)"/>
      <path id="Path_49415-7" data-name="Path 49415" d="M16.033,18.971a8.539,8.539,0,0,0-.4-3.14c-.049-.14-.088-1.086-1.652-1.7-.958-.377-2.2-.385-3.242-.827v1.231a2.719,2.719,0,0,1-2.2,2.665l-.017,0a.287.287,0,0,1-.28.24H8.222v.928a1.643,1.643,0,1,0,3.285,0v-.648a.933.933,0,1,1,.44-.041l-.007,0v.722a2.077,2.077,0,1,1-4.153,0v-.972a.285.285,0,0,1-.262-.238h0a2.722,2.722,0,0,1-2.212-2.662V13.291c-1.051.451-2.3.46-3.259.838-1.568.613-1.6,1.557-1.652,1.7A8.624,8.624,0,0,0,0,18.969c-.009.3,0,.758.9,1.16a24.787,24.787,0,0,0,7,1.183h.24a24.613,24.613,0,0,0,7-1.183c.9-.4.907-.855.9-1.157ZM5.042,18.043H4.109v.937H3.443v-.934H2.51v-.666h.933v-.933h.666v.933h.933Z" transform="translate(0.001 -3.345)" fill="url(#linear-gradient)"/>
      <path id="Path_49416-7" data-name="Path 49416" d="M15.887,17.8h0a.5.5,0,1,0-.5.5A.5.5,0,0,0,15.887,17.795Z" transform="translate(-3.739 -4.351)" fill="url(#linear-gradient)"/>
    </g>
    <g id="doctor-svgrepo-com-8" data-name="doctor-svgrepo-com" transform="translate(-13428.238 -15298.263)">
      <path id="Path_49414-8" data-name="Path 49414" d="M6.409,6.064l.1-.009a.228.228,0,0,0,.106-.04h0a11.446,11.446,0,0,0,.377,1.091A11.112,11.112,0,0,0,7.6,8.41l-.03-.06c-.018.273-.04.553-.068.824a1.92,1.92,0,0,1-.1.469l0-.013c-.009,0-.022,1.557-.022,1.557a2.147,2.147,0,0,0,1.646,2.086l.015,0a.287.287,0,0,1,.267-.184h.43a.292.292,0,0,1,.267.182v0a2.154,2.154,0,0,0,1.669-2.088h0s-.026-1.547-.04-1.557a2.36,2.36,0,0,1-.091-.444V9.175c-.026-.273-.043-.546-.068-.824a10.982,10.982,0,0,0,.55-1.164l.028-.079c.153-.381.273-.744.377-1.091a.223.223,0,0,0,.1.04h0l.106.009a.242.242,0,0,0,.25-.254l.114-1.446h0a.239.239,0,0,0-.209-.237h-.014a5.2,5.2,0,0,0,.046-.7,5.347,5.347,0,0,0-.227-1.546l.01.038A3.2,3.2,0,0,0,10.3.093l-.019,0A4.377,4.377,0,0,0,9.535.006H9.519a4.109,4.109,0,0,0-.777.088l.027,0A3.215,3.215,0,0,0,6.438,1.9l-.008.02a5.127,5.127,0,0,0-.219,1.5,5.276,5.276,0,0,0,.051.734l0-.028a.237.237,0,0,0-.211.234v.005l.114,1.446a.24.24,0,0,0,.247.253Z" transform="translate(-1.519 -0.006)" fill="url(#linear-gradient)"/>
      <path id="Path_49415-8" data-name="Path 49415" d="M16.033,18.971a8.539,8.539,0,0,0-.4-3.14c-.049-.14-.088-1.086-1.652-1.7-.958-.377-2.2-.385-3.242-.827v1.231a2.719,2.719,0,0,1-2.2,2.665l-.017,0a.287.287,0,0,1-.28.24H8.222v.928a1.643,1.643,0,1,0,3.285,0v-.648a.933.933,0,1,1,.44-.041l-.007,0v.722a2.077,2.077,0,1,1-4.153,0v-.972a.285.285,0,0,1-.262-.238h0a2.722,2.722,0,0,1-2.212-2.662V13.291c-1.051.451-2.3.46-3.259.838-1.568.613-1.6,1.557-1.652,1.7A8.624,8.624,0,0,0,0,18.969c-.009.3,0,.758.9,1.16a24.787,24.787,0,0,0,7,1.183h.24a24.613,24.613,0,0,0,7-1.183c.9-.4.907-.855.9-1.157ZM5.042,18.043H4.109v.937H3.443v-.934H2.51v-.666h.933v-.933h.666v.933h.933Z" transform="translate(0.001 -3.345)" fill="url(#linear-gradient)"/>
      <path id="Path_49416-8" data-name="Path 49416" d="M15.887,17.8h0a.5.5,0,1,0-.5.5A.5.5,0,0,0,15.887,17.795Z" transform="translate(-3.739 -4.351)" fill="url(#linear-gradient)"/>
    </g>
    <g id="doctor-svgrepo-com-9" data-name="doctor-svgrepo-com" transform="translate(-13408.092 -15298.263)">
      <path id="Path_49414-9" data-name="Path 49414" d="M6.409,6.064l.1-.009a.228.228,0,0,0,.106-.04h0a11.446,11.446,0,0,0,.377,1.091A11.112,11.112,0,0,0,7.6,8.41l-.03-.06c-.018.273-.04.553-.068.824a1.92,1.92,0,0,1-.1.469l0-.013c-.009,0-.022,1.557-.022,1.557a2.147,2.147,0,0,0,1.646,2.086l.015,0a.287.287,0,0,1,.267-.184h.43a.292.292,0,0,1,.267.182v0a2.154,2.154,0,0,0,1.669-2.088h0s-.026-1.547-.04-1.557a2.36,2.36,0,0,1-.091-.444V9.175c-.026-.273-.043-.546-.068-.824a10.982,10.982,0,0,0,.55-1.164l.028-.079c.153-.381.273-.744.377-1.091a.223.223,0,0,0,.1.04h0l.106.009a.242.242,0,0,0,.25-.254l.114-1.446h0a.239.239,0,0,0-.209-.237h-.014a5.2,5.2,0,0,0,.046-.7,5.347,5.347,0,0,0-.227-1.546l.01.038A3.2,3.2,0,0,0,10.3.093l-.019,0A4.377,4.377,0,0,0,9.535.006H9.519a4.109,4.109,0,0,0-.777.088l.027,0A3.215,3.215,0,0,0,6.438,1.9l-.008.02a5.127,5.127,0,0,0-.219,1.5,5.276,5.276,0,0,0,.051.734l0-.028a.237.237,0,0,0-.211.234v.005l.114,1.446a.24.24,0,0,0,.247.253Z" transform="translate(-1.519 -0.006)" fill="url(#linear-gradient)"/>
      <path id="Path_49415-9" data-name="Path 49415" d="M16.033,18.971a8.539,8.539,0,0,0-.4-3.14c-.049-.14-.088-1.086-1.652-1.7-.958-.377-2.2-.385-3.242-.827v1.231a2.719,2.719,0,0,1-2.2,2.665l-.017,0a.287.287,0,0,1-.28.24H8.222v.928a1.643,1.643,0,1,0,3.285,0v-.648a.933.933,0,1,1,.44-.041l-.007,0v.722a2.077,2.077,0,1,1-4.153,0v-.972a.285.285,0,0,1-.262-.238h0a2.722,2.722,0,0,1-2.212-2.662V13.291c-1.051.451-2.3.46-3.259.838-1.568.613-1.6,1.557-1.652,1.7A8.624,8.624,0,0,0,0,18.969c-.009.3,0,.758.9,1.16a24.787,24.787,0,0,0,7,1.183h.24a24.613,24.613,0,0,0,7-1.183c.9-.4.907-.855.9-1.157ZM5.042,18.043H4.109v.937H3.443v-.934H2.51v-.666h.933v-.933h.666v.933h.933Z" transform="translate(0.001 -3.345)" fill="url(#linear-gradient)"/>
      <path id="Path_49416-9" data-name="Path 49416" d="M15.887,17.8h0a.5.5,0,1,0-.5.5A.5.5,0,0,0,15.887,17.795Z" transform="translate(-3.739 -4.351)" fill="url(#linear-gradient)"/>
    </g>
    <g id="doctor-svgrepo-com-10" data-name="doctor-svgrepo-com" transform="translate(-13387.943 -15298.263)">
      <path id="Path_49414-10" data-name="Path 49414" d="M6.409,6.064l.1-.009a.228.228,0,0,0,.106-.04h0a11.446,11.446,0,0,0,.377,1.091A11.112,11.112,0,0,0,7.6,8.41l-.03-.06c-.018.273-.04.553-.068.824a1.92,1.92,0,0,1-.1.469l0-.013c-.009,0-.022,1.557-.022,1.557a2.147,2.147,0,0,0,1.646,2.086l.015,0a.287.287,0,0,1,.267-.184h.43a.292.292,0,0,1,.267.182v0a2.154,2.154,0,0,0,1.669-2.088h0s-.026-1.547-.04-1.557a2.36,2.36,0,0,1-.091-.444V9.175c-.026-.273-.043-.546-.068-.824a10.982,10.982,0,0,0,.55-1.164l.028-.079c.153-.381.273-.744.377-1.091a.223.223,0,0,0,.1.04h0l.106.009a.242.242,0,0,0,.25-.254l.114-1.446h0a.239.239,0,0,0-.209-.237h-.014a5.2,5.2,0,0,0,.046-.7,5.347,5.347,0,0,0-.227-1.546l.01.038A3.2,3.2,0,0,0,10.3.093l-.019,0A4.377,4.377,0,0,0,9.535.006H9.519a4.109,4.109,0,0,0-.777.088l.027,0A3.215,3.215,0,0,0,6.438,1.9l-.008.02a5.127,5.127,0,0,0-.219,1.5,5.276,5.276,0,0,0,.051.734l0-.028a.237.237,0,0,0-.211.234v.005l.114,1.446a.24.24,0,0,0,.247.253Z" transform="translate(-1.519 -0.006)" fill="url(#linear-gradient)"/>
      <path id="Path_49415-10" data-name="Path 49415" d="M16.033,18.971a8.539,8.539,0,0,0-.4-3.14c-.049-.14-.088-1.086-1.652-1.7-.958-.377-2.2-.385-3.242-.827v1.231a2.719,2.719,0,0,1-2.2,2.665l-.017,0a.287.287,0,0,1-.28.24H8.222v.928a1.643,1.643,0,1,0,3.285,0v-.648a.933.933,0,1,1,.44-.041l-.007,0v.722a2.077,2.077,0,1,1-4.153,0v-.972a.285.285,0,0,1-.262-.238h0a2.722,2.722,0,0,1-2.212-2.662V13.291c-1.051.451-2.3.46-3.259.838-1.568.613-1.6,1.557-1.652,1.7A8.624,8.624,0,0,0,0,18.969c-.009.3,0,.758.9,1.16a24.787,24.787,0,0,0,7,1.183h.24a24.613,24.613,0,0,0,7-1.183c.9-.4.907-.855.9-1.157ZM5.042,18.043H4.109v.937H3.443v-.934H2.51v-.666h.933v-.933h.666v.933h.933Z" transform="translate(0.001 -3.345)" fill="url(#linear-gradient)"/>
      <path id="Path_49416-10" data-name="Path 49416" d="M15.887,17.8h0a.5.5,0,1,0-.5.5A.5.5,0,0,0,15.887,17.795Z" transform="translate(-3.739 -4.351)" fill="url(#linear-gradient)"/>
    </g>
    <g id="doctor-svgrepo-com-11" data-name="doctor-svgrepo-com" transform="translate(-13367.797 -15298.263)">
      <path id="Path_49414-11" data-name="Path 49414" d="M6.409,6.064l.1-.009a.228.228,0,0,0,.106-.04h0a11.446,11.446,0,0,0,.377,1.091A11.112,11.112,0,0,0,7.6,8.41l-.03-.06c-.018.273-.04.553-.068.824a1.92,1.92,0,0,1-.1.469l0-.013c-.009,0-.022,1.557-.022,1.557a2.147,2.147,0,0,0,1.646,2.086l.015,0a.287.287,0,0,1,.267-.184h.43a.292.292,0,0,1,.267.182v0a2.154,2.154,0,0,0,1.669-2.088h0s-.026-1.547-.04-1.557a2.36,2.36,0,0,1-.091-.444V9.175c-.026-.273-.043-.546-.068-.824a10.982,10.982,0,0,0,.55-1.164l.028-.079c.153-.381.273-.744.377-1.091a.223.223,0,0,0,.1.04h0l.106.009a.242.242,0,0,0,.25-.254l.114-1.446h0a.239.239,0,0,0-.209-.237h-.014a5.2,5.2,0,0,0,.046-.7,5.347,5.347,0,0,0-.227-1.546l.01.038A3.2,3.2,0,0,0,10.3.093l-.019,0A4.377,4.377,0,0,0,9.535.006H9.519a4.109,4.109,0,0,0-.777.088l.027,0A3.215,3.215,0,0,0,6.438,1.9l-.008.02a5.127,5.127,0,0,0-.219,1.5,5.276,5.276,0,0,0,.051.734l0-.028a.237.237,0,0,0-.211.234v.005l.114,1.446a.24.24,0,0,0,.247.253Z" transform="translate(-1.519 -0.006)" fill="url(#linear-gradient)"/>
      <path id="Path_49415-11" data-name="Path 49415" d="M16.033,18.971a8.539,8.539,0,0,0-.4-3.14c-.049-.14-.088-1.086-1.652-1.7-.958-.377-2.2-.385-3.242-.827v1.231a2.719,2.719,0,0,1-2.2,2.665l-.017,0a.287.287,0,0,1-.28.24H8.222v.928a1.643,1.643,0,1,0,3.285,0v-.648a.933.933,0,1,1,.44-.041l-.007,0v.722a2.077,2.077,0,1,1-4.153,0v-.972a.285.285,0,0,1-.262-.238h0a2.722,2.722,0,0,1-2.212-2.662V13.291c-1.051.451-2.3.46-3.259.838-1.568.613-1.6,1.557-1.652,1.7A8.624,8.624,0,0,0,0,18.969c-.009.3,0,.758.9,1.16a24.787,24.787,0,0,0,7,1.183h.24a24.613,24.613,0,0,0,7-1.183c.9-.4.907-.855.9-1.157ZM5.042,18.043H4.109v.937H3.443v-.934H2.51v-.666h.933v-.933h.666v.933h.933Z" transform="translate(0.001 -3.345)" fill="url(#linear-gradient)"/>
      <path id="Path_49416-11" data-name="Path 49416" d="M15.887,17.8h0a.5.5,0,1,0-.5.5A.5.5,0,0,0,15.887,17.795Z" transform="translate(-3.739 -4.351)" fill="url(#linear-gradient)"/>
    </g>
    <g id="doctor-svgrepo-com-12" data-name="doctor-svgrepo-com" transform="translate(-13347.65 -15298.263)">
      <path id="Path_49414-12" data-name="Path 49414" d="M6.409,6.064l.1-.009a.228.228,0,0,0,.106-.04h0a11.446,11.446,0,0,0,.377,1.091A11.112,11.112,0,0,0,7.6,8.41l-.03-.06c-.018.273-.04.553-.068.824a1.92,1.92,0,0,1-.1.469l0-.013c-.009,0-.022,1.557-.022,1.557a2.147,2.147,0,0,0,1.646,2.086l.015,0a.287.287,0,0,1,.267-.184h.43a.292.292,0,0,1,.267.182v0a2.154,2.154,0,0,0,1.669-2.088h0s-.026-1.547-.04-1.557a2.36,2.36,0,0,1-.091-.444V9.175c-.026-.273-.043-.546-.068-.824a10.982,10.982,0,0,0,.55-1.164l.028-.079c.153-.381.273-.744.377-1.091a.223.223,0,0,0,.1.04h0l.106.009a.242.242,0,0,0,.25-.254l.114-1.446h0a.239.239,0,0,0-.209-.237h-.014a5.2,5.2,0,0,0,.046-.7,5.347,5.347,0,0,0-.227-1.546l.01.038A3.2,3.2,0,0,0,10.3.093l-.019,0A4.377,4.377,0,0,0,9.535.006H9.519a4.109,4.109,0,0,0-.777.088l.027,0A3.215,3.215,0,0,0,6.438,1.9l-.008.02a5.127,5.127,0,0,0-.219,1.5,5.276,5.276,0,0,0,.051.734l0-.028a.237.237,0,0,0-.211.234v.005l.114,1.446a.24.24,0,0,0,.247.253Z" transform="translate(-1.519 -0.006)" fill="url(#linear-gradient)"/>
      <path id="Path_49415-12" data-name="Path 49415" d="M16.033,18.971a8.539,8.539,0,0,0-.4-3.14c-.049-.14-.088-1.086-1.652-1.7-.958-.377-2.2-.385-3.242-.827v1.231a2.719,2.719,0,0,1-2.2,2.665l-.017,0a.287.287,0,0,1-.28.24H8.222v.928a1.643,1.643,0,1,0,3.285,0v-.648a.933.933,0,1,1,.44-.041l-.007,0v.722a2.077,2.077,0,1,1-4.153,0v-.972a.285.285,0,0,1-.262-.238h0a2.722,2.722,0,0,1-2.212-2.662V13.291c-1.051.451-2.3.46-3.259.838-1.568.613-1.6,1.557-1.652,1.7A8.624,8.624,0,0,0,0,18.969c-.009.3,0,.758.9,1.16a24.787,24.787,0,0,0,7,1.183h.24a24.613,24.613,0,0,0,7-1.183c.9-.4.907-.855.9-1.157ZM5.042,18.043H4.109v.937H3.443v-.934H2.51v-.666h.933v-.933h.666v.933h.933Z" transform="translate(0.001 -3.345)" fill="url(#linear-gradient)"/>
      <path id="Path_49416-12" data-name="Path 49416" d="M15.887,17.8h0a.5.5,0,1,0-.5.5A.5.5,0,0,0,15.887,17.795Z" transform="translate(-3.739 -4.351)" fill="url(#linear-gradient)"/>
    </g>
    <g id="doctor-svgrepo-com-13" data-name="doctor-svgrepo-com" transform="translate(-13448.385 -15273.252)">
      <path id="Path_49414-13" data-name="Path 49414" d="M6.409,6.064l.1-.009a.228.228,0,0,0,.106-.04h0a11.446,11.446,0,0,0,.377,1.091A11.112,11.112,0,0,0,7.6,8.41l-.03-.06c-.018.273-.04.553-.068.824a1.92,1.92,0,0,1-.1.469l0-.013c-.009,0-.022,1.557-.022,1.557a2.147,2.147,0,0,0,1.646,2.086l.015,0a.287.287,0,0,1,.267-.184h.43a.292.292,0,0,1,.267.182v0a2.154,2.154,0,0,0,1.669-2.088h0s-.026-1.547-.04-1.557a2.36,2.36,0,0,1-.091-.444V9.175c-.026-.273-.043-.546-.068-.824a10.982,10.982,0,0,0,.55-1.164l.028-.079c.153-.381.273-.744.377-1.091a.223.223,0,0,0,.1.04h0l.106.009a.242.242,0,0,0,.25-.254l.114-1.446h0a.239.239,0,0,0-.209-.237h-.014a5.2,5.2,0,0,0,.046-.7,5.347,5.347,0,0,0-.227-1.546l.01.038A3.2,3.2,0,0,0,10.3.093l-.019,0A4.377,4.377,0,0,0,9.535.006H9.519a4.109,4.109,0,0,0-.777.088l.027,0A3.215,3.215,0,0,0,6.438,1.9l-.008.02a5.127,5.127,0,0,0-.219,1.5,5.276,5.276,0,0,0,.051.734l0-.028a.237.237,0,0,0-.211.234v.005l.114,1.446a.24.24,0,0,0,.247.253Z" transform="translate(-1.519 -0.006)" fill="url(#linear-gradient)"/>
      <path id="Path_49415-13" data-name="Path 49415" d="M16.033,18.971a8.539,8.539,0,0,0-.4-3.14c-.049-.14-.088-1.086-1.652-1.7-.958-.377-2.2-.385-3.242-.827v1.231a2.719,2.719,0,0,1-2.2,2.665l-.017,0a.287.287,0,0,1-.28.24H8.222v.928a1.643,1.643,0,1,0,3.285,0v-.648a.933.933,0,1,1,.44-.041l-.007,0v.722a2.077,2.077,0,1,1-4.153,0v-.972a.285.285,0,0,1-.262-.238h0a2.722,2.722,0,0,1-2.212-2.662V13.291c-1.051.451-2.3.46-3.259.838-1.568.613-1.6,1.557-1.652,1.7A8.624,8.624,0,0,0,0,18.969c-.009.3,0,.758.9,1.16a24.787,24.787,0,0,0,7,1.183h.24a24.613,24.613,0,0,0,7-1.183c.9-.4.907-.855.9-1.157ZM5.042,18.043H4.109v.937H3.443v-.934H2.51v-.666h.933v-.933h.666v.933h.933Z" transform="translate(0.001 -3.345)" fill="url(#linear-gradient)"/>
      <path id="Path_49416-13" data-name="Path 49416" d="M15.887,17.8h0a.5.5,0,1,0-.5.5A.5.5,0,0,0,15.887,17.795Z" transform="translate(-3.739 -4.351)" fill="url(#linear-gradient)"/>
    </g>
    <g id="doctor-svgrepo-com-14" data-name="doctor-svgrepo-com" transform="translate(-13428.238 -15273.252)">
      <path id="Path_49414-14" data-name="Path 49414" d="M6.409,6.064l.1-.009a.228.228,0,0,0,.106-.04h0a11.446,11.446,0,0,0,.377,1.091A11.112,11.112,0,0,0,7.6,8.41l-.03-.06c-.018.273-.04.553-.068.824a1.92,1.92,0,0,1-.1.469l0-.013c-.009,0-.022,1.557-.022,1.557a2.147,2.147,0,0,0,1.646,2.086l.015,0a.287.287,0,0,1,.267-.184h.43a.292.292,0,0,1,.267.182v0a2.154,2.154,0,0,0,1.669-2.088h0s-.026-1.547-.04-1.557a2.36,2.36,0,0,1-.091-.444V9.175c-.026-.273-.043-.546-.068-.824a10.982,10.982,0,0,0,.55-1.164l.028-.079c.153-.381.273-.744.377-1.091a.223.223,0,0,0,.1.04h0l.106.009a.242.242,0,0,0,.25-.254l.114-1.446h0a.239.239,0,0,0-.209-.237h-.014a5.2,5.2,0,0,0,.046-.7,5.347,5.347,0,0,0-.227-1.546l.01.038A3.2,3.2,0,0,0,10.3.093l-.019,0A4.377,4.377,0,0,0,9.535.006H9.519a4.109,4.109,0,0,0-.777.088l.027,0A3.215,3.215,0,0,0,6.438,1.9l-.008.02a5.127,5.127,0,0,0-.219,1.5,5.276,5.276,0,0,0,.051.734l0-.028a.237.237,0,0,0-.211.234v.005l.114,1.446a.24.24,0,0,0,.247.253Z" transform="translate(-1.519 -0.006)" fill="url(#linear-gradient)"/>
      <path id="Path_49415-14" data-name="Path 49415" d="M16.033,18.971a8.539,8.539,0,0,0-.4-3.14c-.049-.14-.088-1.086-1.652-1.7-.958-.377-2.2-.385-3.242-.827v1.231a2.719,2.719,0,0,1-2.2,2.665l-.017,0a.287.287,0,0,1-.28.24H8.222v.928a1.643,1.643,0,1,0,3.285,0v-.648a.933.933,0,1,1,.44-.041l-.007,0v.722a2.077,2.077,0,1,1-4.153,0v-.972a.285.285,0,0,1-.262-.238h0a2.722,2.722,0,0,1-2.212-2.662V13.291c-1.051.451-2.3.46-3.259.838-1.568.613-1.6,1.557-1.652,1.7A8.624,8.624,0,0,0,0,18.969c-.009.3,0,.758.9,1.16a24.787,24.787,0,0,0,7,1.183h.24a24.613,24.613,0,0,0,7-1.183c.9-.4.907-.855.9-1.157ZM5.042,18.043H4.109v.937H3.443v-.934H2.51v-.666h.933v-.933h.666v.933h.933Z" transform="translate(0.001 -3.345)" fill="url(#linear-gradient)"/>
      <path id="Path_49416-14" data-name="Path 49416" d="M15.887,17.8h0a.5.5,0,1,0-.5.5A.5.5,0,0,0,15.887,17.795Z" transform="translate(-3.739 -4.351)" fill="url(#linear-gradient)"/>
    </g>
    <g id="doctor-svgrepo-com-15" data-name="doctor-svgrepo-com" transform="translate(-13408.092 -15273.252)">
      <path id="Path_49414-15" data-name="Path 49414" d="M6.409,6.064l.1-.009a.228.228,0,0,0,.106-.04h0a11.446,11.446,0,0,0,.377,1.091A11.112,11.112,0,0,0,7.6,8.41l-.03-.06c-.018.273-.04.553-.068.824a1.92,1.92,0,0,1-.1.469l0-.013c-.009,0-.022,1.557-.022,1.557a2.147,2.147,0,0,0,1.646,2.086l.015,0a.287.287,0,0,1,.267-.184h.43a.292.292,0,0,1,.267.182v0a2.154,2.154,0,0,0,1.669-2.088h0s-.026-1.547-.04-1.557a2.36,2.36,0,0,1-.091-.444V9.175c-.026-.273-.043-.546-.068-.824a10.982,10.982,0,0,0,.55-1.164l.028-.079c.153-.381.273-.744.377-1.091a.223.223,0,0,0,.1.04h0l.106.009a.242.242,0,0,0,.25-.254l.114-1.446h0a.239.239,0,0,0-.209-.237h-.014a5.2,5.2,0,0,0,.046-.7,5.347,5.347,0,0,0-.227-1.546l.01.038A3.2,3.2,0,0,0,10.3.093l-.019,0A4.377,4.377,0,0,0,9.535.006H9.519a4.109,4.109,0,0,0-.777.088l.027,0A3.215,3.215,0,0,0,6.438,1.9l-.008.02a5.127,5.127,0,0,0-.219,1.5,5.276,5.276,0,0,0,.051.734l0-.028a.237.237,0,0,0-.211.234v.005l.114,1.446a.24.24,0,0,0,.247.253Z" transform="translate(-1.519 -0.006)" fill="url(#linear-gradient)"/>
      <path id="Path_49415-15" data-name="Path 49415" d="M16.033,18.971a8.539,8.539,0,0,0-.4-3.14c-.049-.14-.088-1.086-1.652-1.7-.958-.377-2.2-.385-3.242-.827v1.231a2.719,2.719,0,0,1-2.2,2.665l-.017,0a.287.287,0,0,1-.28.24H8.222v.928a1.643,1.643,0,1,0,3.285,0v-.648a.933.933,0,1,1,.44-.041l-.007,0v.722a2.077,2.077,0,1,1-4.153,0v-.972a.285.285,0,0,1-.262-.238h0a2.722,2.722,0,0,1-2.212-2.662V13.291c-1.051.451-2.3.46-3.259.838-1.568.613-1.6,1.557-1.652,1.7A8.624,8.624,0,0,0,0,18.969c-.009.3,0,.758.9,1.16a24.787,24.787,0,0,0,7,1.183h.24a24.613,24.613,0,0,0,7-1.183c.9-.4.907-.855.9-1.157ZM5.042,18.043H4.109v.937H3.443v-.934H2.51v-.666h.933v-.933h.666v.933h.933Z" transform="translate(0.001 -3.345)" fill="url(#linear-gradient)"/>
      <path id="Path_49416-15" data-name="Path 49416" d="M15.887,17.8h0a.5.5,0,1,0-.5.5A.5.5,0,0,0,15.887,17.795Z" transform="translate(-3.739 -4.351)" fill="url(#linear-gradient)"/>
    </g>
    <g id="doctor-svgrepo-com-16" data-name="doctor-svgrepo-com" transform="translate(-13387.943 -15273.252)">
      <path id="Path_49414-16" data-name="Path 49414" d="M6.409,6.064l.1-.009a.228.228,0,0,0,.106-.04h0a11.446,11.446,0,0,0,.377,1.091A11.112,11.112,0,0,0,7.6,8.41l-.03-.06c-.018.273-.04.553-.068.824a1.92,1.92,0,0,1-.1.469l0-.013c-.009,0-.022,1.557-.022,1.557a2.147,2.147,0,0,0,1.646,2.086l.015,0a.287.287,0,0,1,.267-.184h.43a.292.292,0,0,1,.267.182v0a2.154,2.154,0,0,0,1.669-2.088h0s-.026-1.547-.04-1.557a2.36,2.36,0,0,1-.091-.444V9.175c-.026-.273-.043-.546-.068-.824a10.982,10.982,0,0,0,.55-1.164l.028-.079c.153-.381.273-.744.377-1.091a.223.223,0,0,0,.1.04h0l.106.009a.242.242,0,0,0,.25-.254l.114-1.446h0a.239.239,0,0,0-.209-.237h-.014a5.2,5.2,0,0,0,.046-.7,5.347,5.347,0,0,0-.227-1.546l.01.038A3.2,3.2,0,0,0,10.3.093l-.019,0A4.377,4.377,0,0,0,9.535.006H9.519a4.109,4.109,0,0,0-.777.088l.027,0A3.215,3.215,0,0,0,6.438,1.9l-.008.02a5.127,5.127,0,0,0-.219,1.5,5.276,5.276,0,0,0,.051.734l0-.028a.237.237,0,0,0-.211.234v.005l.114,1.446a.24.24,0,0,0,.247.253Z" transform="translate(-1.519 -0.006)" fill="url(#linear-gradient)"/>
      <path id="Path_49415-16" data-name="Path 49415" d="M16.033,18.971a8.539,8.539,0,0,0-.4-3.14c-.049-.14-.088-1.086-1.652-1.7-.958-.377-2.2-.385-3.242-.827v1.231a2.719,2.719,0,0,1-2.2,2.665l-.017,0a.287.287,0,0,1-.28.24H8.222v.928a1.643,1.643,0,1,0,3.285,0v-.648a.933.933,0,1,1,.44-.041l-.007,0v.722a2.077,2.077,0,1,1-4.153,0v-.972a.285.285,0,0,1-.262-.238h0a2.722,2.722,0,0,1-2.212-2.662V13.291c-1.051.451-2.3.46-3.259.838-1.568.613-1.6,1.557-1.652,1.7A8.624,8.624,0,0,0,0,18.969c-.009.3,0,.758.9,1.16a24.787,24.787,0,0,0,7,1.183h.24a24.613,24.613,0,0,0,7-1.183c.9-.4.907-.855.9-1.157ZM5.042,18.043H4.109v.937H3.443v-.934H2.51v-.666h.933v-.933h.666v.933h.933Z" transform="translate(0.001 -3.345)" fill="url(#linear-gradient)"/>
      <path id="Path_49416-16" data-name="Path 49416" d="M15.887,17.8h0a.5.5,0,1,0-.5.5A.5.5,0,0,0,15.887,17.795Z" transform="translate(-3.739 -4.351)" fill="url(#linear-gradient)"/>
    </g>
    <g id="doctor-svgrepo-com-17" data-name="doctor-svgrepo-com" transform="translate(-13367.797 -15273.252)">
      <path id="Path_49414-17" data-name="Path 49414" d="M6.409,6.064l.1-.009a.228.228,0,0,0,.106-.04h0a11.446,11.446,0,0,0,.377,1.091A11.112,11.112,0,0,0,7.6,8.41l-.03-.06c-.018.273-.04.553-.068.824a1.92,1.92,0,0,1-.1.469l0-.013c-.009,0-.022,1.557-.022,1.557a2.147,2.147,0,0,0,1.646,2.086l.015,0a.287.287,0,0,1,.267-.184h.43a.292.292,0,0,1,.267.182v0a2.154,2.154,0,0,0,1.669-2.088h0s-.026-1.547-.04-1.557a2.36,2.36,0,0,1-.091-.444V9.175c-.026-.273-.043-.546-.068-.824a10.982,10.982,0,0,0,.55-1.164l.028-.079c.153-.381.273-.744.377-1.091a.223.223,0,0,0,.1.04h0l.106.009a.242.242,0,0,0,.25-.254l.114-1.446h0a.239.239,0,0,0-.209-.237h-.014a5.2,5.2,0,0,0,.046-.7,5.347,5.347,0,0,0-.227-1.546l.01.038A3.2,3.2,0,0,0,10.3.093l-.019,0A4.377,4.377,0,0,0,9.535.006H9.519a4.109,4.109,0,0,0-.777.088l.027,0A3.215,3.215,0,0,0,6.438,1.9l-.008.02a5.127,5.127,0,0,0-.219,1.5,5.276,5.276,0,0,0,.051.734l0-.028a.237.237,0,0,0-.211.234v.005l.114,1.446a.24.24,0,0,0,.247.253Z" transform="translate(-1.519 -0.006)" fill="url(#linear-gradient)"/>
      <path id="Path_49415-17" data-name="Path 49415" d="M16.033,18.971a8.539,8.539,0,0,0-.4-3.14c-.049-.14-.088-1.086-1.652-1.7-.958-.377-2.2-.385-3.242-.827v1.231a2.719,2.719,0,0,1-2.2,2.665l-.017,0a.287.287,0,0,1-.28.24H8.222v.928a1.643,1.643,0,1,0,3.285,0v-.648a.933.933,0,1,1,.44-.041l-.007,0v.722a2.077,2.077,0,1,1-4.153,0v-.972a.285.285,0,0,1-.262-.238h0a2.722,2.722,0,0,1-2.212-2.662V13.291c-1.051.451-2.3.46-3.259.838-1.568.613-1.6,1.557-1.652,1.7A8.624,8.624,0,0,0,0,18.969c-.009.3,0,.758.9,1.16a24.787,24.787,0,0,0,7,1.183h.24a24.613,24.613,0,0,0,7-1.183c.9-.4.907-.855.9-1.157ZM5.042,18.043H4.109v.937H3.443v-.934H2.51v-.666h.933v-.933h.666v.933h.933Z" transform="translate(0.001 -3.345)" fill="url(#linear-gradient)"/>
      <path id="Path_49416-17" data-name="Path 49416" d="M15.887,17.8h0a.5.5,0,1,0-.5.5A.5.5,0,0,0,15.887,17.795Z" transform="translate(-3.739 -4.351)" fill="url(#linear-gradient)"/>
    </g>
    <g id="doctor-svgrepo-com-18" data-name="doctor-svgrepo-com" transform="translate(-13347.65 -15273.252)">
      <path id="Path_49414-18" data-name="Path 49414" d="M6.409,6.064l.1-.009a.228.228,0,0,0,.106-.04h0a11.446,11.446,0,0,0,.377,1.091A11.112,11.112,0,0,0,7.6,8.41l-.03-.06c-.018.273-.04.553-.068.824a1.92,1.92,0,0,1-.1.469l0-.013c-.009,0-.022,1.557-.022,1.557a2.147,2.147,0,0,0,1.646,2.086l.015,0a.287.287,0,0,1,.267-.184h.43a.292.292,0,0,1,.267.182v0a2.154,2.154,0,0,0,1.669-2.088h0s-.026-1.547-.04-1.557a2.36,2.36,0,0,1-.091-.444V9.175c-.026-.273-.043-.546-.068-.824a10.982,10.982,0,0,0,.55-1.164l.028-.079c.153-.381.273-.744.377-1.091a.223.223,0,0,0,.1.04h0l.106.009a.242.242,0,0,0,.25-.254l.114-1.446h0a.239.239,0,0,0-.209-.237h-.014a5.2,5.2,0,0,0,.046-.7,5.347,5.347,0,0,0-.227-1.546l.01.038A3.2,3.2,0,0,0,10.3.093l-.019,0A4.377,4.377,0,0,0,9.535.006H9.519a4.109,4.109,0,0,0-.777.088l.027,0A3.215,3.215,0,0,0,6.438,1.9l-.008.02a5.127,5.127,0,0,0-.219,1.5,5.276,5.276,0,0,0,.051.734l0-.028a.237.237,0,0,0-.211.234v.005l.114,1.446a.24.24,0,0,0,.247.253Z" transform="translate(-1.519 -0.006)" fill="url(#linear-gradient)"/>
      <path id="Path_49415-18" data-name="Path 49415" d="M16.033,18.971a8.539,8.539,0,0,0-.4-3.14c-.049-.14-.088-1.086-1.652-1.7-.958-.377-2.2-.385-3.242-.827v1.231a2.719,2.719,0,0,1-2.2,2.665l-.017,0a.287.287,0,0,1-.28.24H8.222v.928a1.643,1.643,0,1,0,3.285,0v-.648a.933.933,0,1,1,.44-.041l-.007,0v.722a2.077,2.077,0,1,1-4.153,0v-.972a.285.285,0,0,1-.262-.238h0a2.722,2.722,0,0,1-2.212-2.662V13.291c-1.051.451-2.3.46-3.259.838-1.568.613-1.6,1.557-1.652,1.7A8.624,8.624,0,0,0,0,18.969c-.009.3,0,.758.9,1.16a24.787,24.787,0,0,0,7,1.183h.24a24.613,24.613,0,0,0,7-1.183c.9-.4.907-.855.9-1.157ZM5.042,18.043H4.109v.937H3.443v-.934H2.51v-.666h.933v-.933h.666v.933h.933Z" transform="translate(0.001 -3.345)" fill="url(#linear-gradient)"/>
      <path id="Path_49416-18" data-name="Path 49416" d="M15.887,17.8h0a.5.5,0,1,0-.5.5A.5.5,0,0,0,15.887,17.795Z" transform="translate(-3.739 -4.351)" fill="url(#linear-gradient)"/>
    </g>
  </g>
</svg>
