<svg xmlns="http://www.w3.org/2000/svg" width="196.089" height="104.227" viewBox="0 0 196.089 104.227">
  <g id="Group_46230" data-name="Group 46230" transform="translate(-165.988 -131.959)">
    <g id="Group_46229" data-name="Group 46229" transform="translate(165.988 131.959)">
      <g id="Group_46205" data-name="Group 46205" transform="translate(91.455)">
        <rect id="Rectangle_20872" data-name="Rectangle 20872" width="12.521" height="12.148" rx="6.074" fill="#c0d8fb"/>
        <rect id="Rectangle_20873" data-name="Rectangle 20873" width="11.436" height="11.095" rx="5.548" transform="translate(0.542 0.526)" fill="#dfebfd"/>
        <g id="Group_46201" data-name="Group 46201" transform="translate(1.478 1.376)">
          <g id="Group_46199" data-name="Group 46199" transform="translate(4.523)">
            <path id="Path_42652" data-name="Path 42652" d="M1582.818,338.621a.259.259,0,1,1,.259.259A.259.259,0,0,1,1582.818,338.621Z" transform="translate(-1582.818 -338.362)" fill="#b7d3f3"/>
            <path id="Path_42653" data-name="Path 42653" d="M1612.165,345.5a.259.259,0,1,1,.1.353A.259.259,0,0,1,1612.165,345.5Z" transform="translate(-1610.072 -344.878)" fill="#b7d3f3"/>
            <path id="Path_42654" data-name="Path 42654" d="M1636.539,366.99a.259.259,0,1,1-.077.359A.259.259,0,0,1,1636.539,366.99Z" transform="translate(-1632.653 -364.94)" fill="#b7d3f3"/>
            <path id="Path_42655" data-name="Path 42655" d="M1647.317,398.911a.259.259,0,1,1-.259.259A.259.259,0,0,1,1647.317,398.911Z" transform="translate(-1642.543 -394.656)" fill="#b7d3f3"/>
            <path id="Path_42656" data-name="Path 42656" d="M1638.438,434.314a.259.259,0,1,1-.367,0A.259.259,0,0,1,1638.438,434.314Z" transform="translate(-1634.117 -427.5)" fill="#b7d3f3"/>
            <circle id="Ellipse_394" data-name="Ellipse 394" cx="0.259" cy="0.259" r="0.259" transform="translate(2.249 8.371)" fill="#b7d3f3"/>
            <path id="Path_42657" data-name="Path 42657" d="M1582.818,467.1a.259.259,0,1,1,.259.259A.259.259,0,0,1,1582.818,467.1Z" transform="translate(-1582.818 -457.811)" fill="#b7d3f3"/>
          </g>
          <g id="Group_46200" data-name="Group 46200" transform="translate(0 0.493)">
            <path id="Path_42658" data-name="Path 42658" d="M1553.871,345.5a.259.259,0,1,0-.1.353A.26.26,0,0,0,1553.871,345.5Z" transform="translate(-1550.931 -345.371)" fill="#b7d3f3"/>
            <path id="Path_42659" data-name="Path 42659" d="M1529.5,366.99a.259.259,0,1,0,.077.359A.259.259,0,0,0,1529.5,366.99Z" transform="translate(-1528.35 -365.432)" fill="#b7d3f3"/>
            <path id="Path_42660" data-name="Path 42660" d="M1518.72,398.911a.259.259,0,1,0,.26.259A.259.259,0,0,0,1518.72,398.911Z" transform="translate(-1518.461 -395.148)" fill="#b7d3f3"/>
            <path id="Path_42661" data-name="Path 42661" d="M1527.6,434.314a.259.259,0,1,0,.367,0A.26.26,0,0,0,1527.6,434.314Z" transform="translate(-1526.887 -427.993)" fill="#b7d3f3"/>
            <path id="Path_42662" data-name="Path 42662" d="M1550.774,457.55a.259.259,0,1,0,.367,0A.26.26,0,0,0,1550.774,457.55Z" transform="translate(-1548.433 -449.596)" fill="#b7d3f3"/>
          </g>
        </g>
        <g id="Group_46204" data-name="Group 46204" transform="translate(6.191 2.65)">
          <path id="Path_42663" data-name="Path 42663" d="M1585.514,399.17a.259.259,0,1,1,.259.259A.259.259,0,0,1,1585.514,399.17Z" transform="translate(-1585.514 -395.93)" fill="#b7d3f3"/>
          <g id="Group_46202" data-name="Group 46202" transform="translate(0.224)">
            <rect id="Rectangle_20874" data-name="Rectangle 20874" width="0.071" height="3.24" fill="#b7d3f3"/>
          </g>
          <g id="Group_46203" data-name="Group 46203" transform="translate(0.161 1.804)">
            <rect id="Rectangle_20875" data-name="Rectangle 20875" width="2.184" height="0.212" transform="translate(0 1.349) rotate(-38.133)" fill="#b7d3f3"/>
          </g>
        </g>
      </g>
      <g id="Group_46212" data-name="Group 46212" transform="translate(19.176 37.614)">
        <g id="Group_46207" data-name="Group 46207" transform="translate(16.742 12.504)">
          <path id="Path_42664" data-name="Path 42664" d="M746.481,1037.213s-2.191-2.556-.135-4.18a5.829,5.829,0,0,1,2.726-.835s-1.735,2.909-1.174,3.2,1.7-3.381,1.7-3.381,3.418-.331,4.517.2c0,0-2.922,2.391-2.307,2.533s3.771-2.2,3.771-2.2,3.181.541,3.011,2.482-1.266,2.54-1.747,2.488-3.3-1.127-3.361-.732,1.635,1.684,2.823,1.745c0,0-2.242,2.473-3.733,1.759s-1.618-1.845-2.547-2.27-1.722-.423-1.339.01,2.065.853,2.6,1.793,1.008,1.574-.534,1.342-4.048-1.36-4.158-2.652Z" transform="translate(-742.778 -1031.912)" fill="#c8dbf4"/>
          <g id="Group_46206" data-name="Group 46206" transform="translate(0 3.148)">
            <path id="Path_42665" data-name="Path 42665" d="M745.022,1076.714s-8.639-.333-10.547,2.138a6.245,6.245,0,0,1-1.72,2.414l-.2.552s1.5-1.578,2.033-1.674C734.585,1080.143,733.747,1077.083,745.022,1076.714Z" transform="translate(-730.771 -1076.699)" fill="#c8dbf4"/>
            <path id="Path_42666" data-name="Path 42666" d="M709.2,1138.809a5.424,5.424,0,0,0-1.983,3.822l.336.03a8.771,8.771,0,0,1,1.663-3.525C710.284,1138.146,709.2,1138.809,709.2,1138.809Z" transform="translate(-707.214 -1134.242)" fill="#c8dbf4"/>
          </g>
        </g>
        <g id="Group_46209" data-name="Group 46209" transform="translate(0 5.564)">
          <path id="Path_42667" data-name="Path 42667" d="M481.775,942.185s3.486-1.952,1.859-4.6a6.92,6.92,0,0,0-2.7-2.045s.744,3.95,0,4.043-.511-4.462-.511-4.462-3.671-1.766-5.112-1.627c0,0,2.277,3.857,1.534,3.764s-3.3-4-3.3-4-3.764-.7-4.368,1.534.372,3.346.929,3.485,4.136.093,4.043.558-2.51,1.208-3.857.79c0,0,1.487,3.671,3.439,3.486s2.556-1.394,3.764-1.487,2.091.232,1.487.558-2.649.107-3.625.936-1.766,1.341.046,1.713,5.066.14,5.716-1.255Z" transform="translate(-468.99 -933.159)" fill="#c8dbf4"/>
          <g id="Group_46208" data-name="Group 46208" transform="translate(1.91 2.334)">
            <path id="Path_42668" data-name="Path 42668" d="M496.168,966.367s9.76,3.16,10.875,6.692a7.413,7.413,0,0,0,.93,3.393v.7s-1.023-2.37-1.58-2.7C506.392,974.453,508.576,971.386,496.168,966.367Z" transform="translate(-496.168 -966.367)" fill="#c8dbf4"/>
            <path id="Path_42669" data-name="Path 42669" d="M657.961,1104.121a6.437,6.437,0,0,1,.647,5.068l-.387-.1s.376-3.065-.411-4.606S657.961,1104.121,657.961,1104.121Z" transform="translate(-646.157 -1094.036)" fill="#c8dbf4"/>
          </g>
        </g>
        <g id="Group_46211" data-name="Group 46211" transform="translate(15.31)">
          <path id="Path_42670" data-name="Path 42670" d="M689.847,865.89s-4.595-2.573-2.45-6.065a9.123,9.123,0,0,1,3.553-2.7s-.98,5.207,0,5.33.674-5.881.674-5.881,4.839-2.328,6.739-2.144c0,0-3,5.085-2.021,4.962s4.349-5.268,4.349-5.268,4.962-.919,5.758,2.021-.49,4.411-1.225,4.595-5.452.123-5.33.735,3.308,1.593,5.085,1.042c0,0-1.96,4.84-4.533,4.595s-3.37-1.838-4.962-1.961-2.757.306-1.96.735,3.492.14,4.778,1.234,2.328,1.767-.061,2.258-6.677.184-7.535-1.654Z" transform="translate(-686.826 -853.992)" fill="#d4e4f8"/>
          <g id="Group_46210" data-name="Group 46210" transform="translate(0.594 3.076)">
            <path id="Path_42671" data-name="Path 42671" d="M727.932,897.766s-12.865,4.166-14.335,8.822a9.774,9.774,0,0,1-1.225,4.472v.919s1.348-3.124,2.083-3.553C714.455,908.425,711.576,904.382,727.932,897.766Z" transform="translate(-711.171 -897.766)" fill="#d4e4f8"/>
            <path id="Path_42672" data-name="Path 42672" d="M696.479,1079.353a8.485,8.485,0,0,0-.853,6.68l.51-.137s-.5-4.04.543-6.071S696.479,1079.353,696.479,1079.353Z" transform="translate(-695.277 -1066.059)" fill="#d4e4f8"/>
          </g>
        </g>
        <path id="Path_42673" data-name="Path 42673" d="M608.543,1176.066a9,9,0,0,0,9-9h-18A9,9,0,0,0,608.543,1176.066Z" transform="translate(-590.368 -1145.063)" fill="#d4e4f8"/>
        <path id="Path_42674" data-name="Path 42674" d="M616.024,1286.954H597.775a1.11,1.11,0,0,1,1.11-1.11h16.028a1.11,1.11,0,0,1,1.11,1.11Z" transform="translate(-588.724 -1255.493)" fill="#d4e4f8"/>
        <rect id="Rectangle_20876" data-name="Rectangle 20876" width="18.501" height="0.276" transform="translate(8.879 22.003)" fill="#9fc1f4"/>
      </g>
      <g id="Group_46217" data-name="Group 46217" transform="translate(16.405 69.075)">
        <path id="Path_42675" data-name="Path 42675" d="M461.516,1302.192v.864c0,.3-.1.549-.217.549H429.78c-.119,0-.217-.247-.217-.549v-.864c0-.3.1-.549.217-.549H461.3C461.418,1301.643,461.516,1301.891,461.516,1302.192Z" transform="translate(-429.563 -1301.643)" fill="#9abfe2"/>
        <path id="Path_42676" data-name="Path 42676" d="M547.927,1302.192v.864c0,.3-.09.549-.2.549H522.706c-.11,0-.2-.247-.2-.549v-.864c0-.3.09-.549.2-.549h25.022C547.837,1301.643,547.927,1301.891,547.927,1302.192Z" transform="translate(-515.974 -1301.643)" fill="#bad4f4"/>
        <rect id="Rectangle_20877" data-name="Rectangle 20877" width="22.376" height="32.614" transform="translate(1.6 1.963)" fill="#c8dbf4"/>
        <rect id="Rectangle_20878" data-name="Rectangle 20878" width="22.376" height="32.614" transform="translate(7.87 1.963)" fill="#dfebfd"/>
        <g id="Group_46216" data-name="Group 46216" transform="translate(9.073 2.884)">
          <g id="Group_46213" data-name="Group 46213">
            <path id="Path_42677" data-name="Path 42677" d="M578.634,1372.57H558.663v-29.892h19.971Zm-19.756-.216h19.54v-29.461h-19.54Z" transform="translate(-558.663 -1342.678)" fill="#b7d3f3"/>
          </g>
          <g id="Group_46214" data-name="Group 46214" transform="translate(0.108 9.889)">
            <rect id="Rectangle_20879" data-name="Rectangle 20879" width="19.756" height="0.216" fill="#b7d3f3"/>
          </g>
          <g id="Group_46215" data-name="Group 46215" transform="translate(0.108 19.97)">
            <rect id="Rectangle_20880" data-name="Rectangle 20880" width="19.756" height="0.216" fill="#b7d3f3"/>
          </g>
          <path id="Path_42678" data-name="Path 42678" d="M676.776,1361.549H673.11a.325.325,0,0,1-.323-.324h0a.324.324,0,0,1,.323-.323h3.666a.324.324,0,0,1,.323.323h0A.324.324,0,0,1,676.776,1361.549Z" transform="translate(-664.766 -1359.621)" fill="#b7d3f3"/>
          <path id="Path_42679" data-name="Path 42679" d="M676.776,1501.825H673.11a.324.324,0,0,1-.323-.324h0a.324.324,0,0,1,.323-.323h3.666a.324.324,0,0,1,.323.323h0A.324.324,0,0,1,676.776,1501.825Z" transform="translate(-664.766 -1490.039)" fill="#b7d3f3"/>
          <path id="Path_42680" data-name="Path 42680" d="M676.776,1648.051H673.11a.324.324,0,0,1-.323-.323h0a.325.325,0,0,1,.323-.324h3.666a.325.325,0,0,1,.323.324h0A.324.324,0,0,1,676.776,1648.051Z" transform="translate(-664.766 -1625.988)" fill="#b7d3f3"/>
        </g>
      </g>
      <g id="Group_46218" data-name="Group 46218" transform="translate(18.392 61.63)">
        <path id="Path_42681" data-name="Path 42681" d="M462.4,1201.64v4.532h-4.569v-4.546a1.168,1.168,0,0,1,.007-.13,1.393,1.393,0,0,1,.843-1.153.923.923,0,0,0,.578-.8l.034-.655h1.677l.011.653a.892.892,0,0,0,.56.8,1.413,1.413,0,0,1,.86,1.3Z" transform="translate(-457.833 -1198.667)" fill="#c8dbf4"/>
        <path id="Path_42682" data-name="Path 42682" d="M478.314,1196.22h-1.957l.052-.511h1.853Z" transform="translate(-475.055 -1195.709)" fill="#b7d3f3"/>
        <path id="Path_42683" data-name="Path 42683" d="M462.4,1236.089v2.922h-4.569v-2.937a1.172,1.172,0,0,1,.007-.13h4.554A1.413,1.413,0,0,1,462.4,1236.089Z" transform="translate(-457.833 -1233.116)" fill="#fff"/>
      </g>
      <g id="Group_46219" data-name="Group 46219" transform="translate(24.159 64.936)">
        <path id="Path_42684" data-name="Path 42684" d="M542.442,1246.075v2.535h-2.556v-2.542a.7.7,0,0,1,0-.073.78.78,0,0,1,.472-.645.516.516,0,0,0,.323-.445l.019-.366h.938l.006.365a.5.5,0,0,0,.313.447.787.787,0,0,1,.477.644A.8.8,0,0,1,542.442,1246.075Z" transform="translate(-539.886 -1244.412)" fill="#c8dbf4"/>
        <path id="Path_42685" data-name="Path 42685" d="M551.343,1243.043h-1.095l.029-.286h1.037Z" transform="translate(-549.52 -1242.757)" fill="#b7d3f3"/>
        <path id="Path_42686" data-name="Path 42686" d="M542.442,1265.345v1.635h-2.556v-1.643a.7.7,0,0,1,0-.073h2.548A.8.8,0,0,1,542.442,1265.345Z" transform="translate(-539.886 -1263.682)" fill="#fff"/>
      </g>
      <g id="Group_46221" data-name="Group 46221" transform="translate(118.86 8.255)">
        <rect id="Rectangle_20881" data-name="Rectangle 20881" width="52.344" height="95.685" fill="#d3e3f7"/>
        <rect id="Rectangle_20882" data-name="Rectangle 20882" width="47.812" height="94.004" transform="translate(2.298 1.681)" fill="#e5effb"/>
        <path id="Path_42687" data-name="Path 42687" d="M2484.98,1091.837a2.114,2.114,0,1,1,2.114,2.114A2.114,2.114,0,0,1,2484.98,1091.837Z" transform="translate(-2442.98 -1043.797)" fill="#d3e3f7"/>
        <g id="Group_46220" data-name="Group 46220" transform="translate(16.406 15.926)">
          <rect id="Rectangle_20883" data-name="Rectangle 20883" width="19.737" height="6.23" fill="#f5f9fd"/>
          <rect id="Rectangle_20884" data-name="Rectangle 20884" width="12.411" height="0.641" transform="translate(3.663 1.932)" fill="#d3e3f7"/>
          <rect id="Rectangle_20885" data-name="Rectangle 20885" width="8.937" height="0.641" transform="translate(5.4 3.658)" fill="#d3e3f7"/>
        </g>
      </g>
      <g id="Group_46222" data-name="Group 46222" transform="translate(135.028 23.944)">
        <path id="Path_42688" data-name="Path 42688" d="M2137.639,666.194h-20.211v-6.7h20.211Zm-19.737-.474h19.263v-5.757H2117.9Z" transform="translate(-2117.429 -659.49)" fill="#bad4f4"/>
      </g>
      <g id="Group_46226" data-name="Group 46226" transform="translate(97.804 17.091)">
        <path id="Path_42689" data-name="Path 42689" d="M1765.75,562.453a3.733,3.733,0,0,0-2.951-.316c-5.013-.589-6.476,5.258-6.407,7.269s.3,4.172-1.941,6.786c-6.467,7.549,7.077,7.882,7.077,7.882.114-6.031,7.344-3.831,7.028-3.219C1777.822,583.079,1769.475,564.386,1765.75,562.453Z" transform="translate(-1741.109 -561.971)" fill="#163560"/>
        <path id="Path_42690" data-name="Path 42690" d="M1593.07,905.506s-.881-1.342-1.592-1.368-2.026-.395-1.921-.132.921.29,1,.447-1.211.395-1.579.421-1.237,0-1.211.184a4.18,4.18,0,0,0,2.651.842,7.366,7.366,0,0,1,2.428.316Z" transform="translate(-1587.767 -879.88)" fill="#ffb27d"/>
        <path id="Path_42691" data-name="Path 42691" d="M1668.893,791a13.228,13.228,0,0,1-1.348,2.039,7.893,7.893,0,0,1-4.691,3.127,5.034,5.034,0,0,1-2.787-.452h0a12.709,12.709,0,0,1-4.315-3.608,2.025,2.025,0,0,1,.276-1.987s4.974,1.119,5.447.882,3.237-8.2,3.894-9.2,2.9-1.52,2.9-1.52Z" transform="translate(-1650.84 -764.942)" fill="#f9ddbf"/>
        <path id="Path_42692" data-name="Path 42692" d="M1726.531,926.921a7.891,7.891,0,0,1-4.691,3.127,5.031,5.031,0,0,1-2.786-.452c.1.013,2.556.317,3.537-1.437,1-1.79,2.082-4.632,3.568-3.684C1726.8,924.883,1726.77,925.9,1726.531,926.921Z" transform="translate(-1709.826 -898.822)" fill="#f2ccaa"/>
        <path id="Path_42693" data-name="Path 42693" d="M2035.93,1688s1.517,1.385,1.221,2.369-1.666,1.64-1.851,2.843-.925,1.859-1.592,1.859h-3.177s-.49-.846.694-1.1,1.631-1.668,1.557-2.98a23.154,23.154,0,0,1,.111-3.062l2.517-.583Z" transform="translate(-1999.322 -1608.256)" fill="#233862"/>
        <path id="Path_42694" data-name="Path 42694" d="M1811.5,1705.049s.546,5.867-.12,6.2l-8.527-.017s0-.984,1.37-1.2,3.776-1.021,4.183-2.807S1811.5,1705.049,1811.5,1705.049Z" transform="translate(-1787.737 -1624.713)" fill="#233862"/>
        <path id="Path_42695" data-name="Path 42695" d="M1822.55,730.59c-1.755-3.935-2.828-5.065-2.624-6.286.153-.909-.464-16.949-.464-16.949-.209-.064-.626-.122-.854-.173a2.14,2.14,0,0,1-1.563-1.36,10.917,10.917,0,0,1-.531-3.619l-.225.044-3.779.748s.086,1.19.088,2.31v.028a2.174,2.174,0,0,1-1.569,2.1c-.478.138-.893.256-.893.256a34.659,34.659,0,0,0-1.653,8.032c-.265,4.07,2.523,5.839-.021,13.972C1805.865,738,1823.519,732.764,1822.55,730.59Z" transform="translate(-1792.71 -692.347)" fill="#ffb27d"/>
        <path id="Path_42696" data-name="Path 42696" d="M1869.5,703.581s.086,1.19.088,2.31c2.115-.06,3.233-1.989,3.691-3.058Z" transform="translate(-1849.698 -692.933)" fill="#e8945b"/>
        <path id="Path_42697" data-name="Path 42697" d="M1837.4,616.884s5,.083,5.007-3.034.651-5.205-2.543-5.39-3.817,1-4.071,2.044S1836.1,616.782,1837.4,616.884Z" transform="translate(-1818.309 -605.175)" fill="#ffb27d"/>
        <path id="Path_42698" data-name="Path 42698" d="M1862.084,599.245s1.37,3.657,3.473,4.2,3.014-.023,3.014-.023a5.954,5.954,0,0,1-1.947-3.518S1863.118,597.505,1862.084,599.245Z" transform="translate(-1842.805 -596.037)" fill="#163560"/>
        <path id="Path_42699" data-name="Path 42699" d="M1833.4,603.962a3.1,3.1,0,0,0-1.434,1.121,5.039,5.039,0,0,0-.676,2.861s-1.032-2.485.128-3.891C1832.648,602.562,1833.4,603.962,1833.4,603.962Z" transform="translate(-1813.781 -600.457)" fill="#163560"/>
        <path id="Path_42700" data-name="Path 42700" d="M1851.036,698.753a1.257,1.257,0,0,1-1.036.422.92.92,0,0,1-.771-.509A3.359,3.359,0,0,1,1851.036,698.753Z" transform="translate(-1830.853 -688.978)" fill="#fff"/>
        <path id="Path_42701" data-name="Path 42701" d="M1814.258,782.6s-.019,2.373-.146,4.523a13.941,13.941,0,0,1-.42,3.224c-.513,1.184-1.092,1.377-1.092,1.377l-4.477,1.1-1.574.385-4.964-1.483s-2.261-6.311-1.353-9.863a27.309,27.309,0,0,1,2.295-6.02s4.051,3.966,9.325-.336Z" transform="translate(-1785.1 -760.493)" fill="#f9ddbf"/>
        <path id="Path_42702" data-name="Path 42702" d="M1895.628,921.747a13.941,13.941,0,0,1-.42,3.224c-.513,1.184-1.092,1.377-1.092,1.377l-4.477,1.1-1.945-.572s6.491-.983,5.772-6.568Z" transform="translate(-1866.616 -895.122)" fill="#f2ccaa"/>
        <path id="Path_42703" data-name="Path 42703" d="M1792.163,1019.914s-2.458,7.652-2.616,10.257,4.7,37.009,4.894,38.21c.185,1.132,1.589,1.853,1.589,1.853a2.128,2.128,0,0,0,1.569.121,3.881,3.881,0,0,0,1.684-.794s1.913-24.537.729-33.3a138.81,138.81,0,0,1-1.2-16.345Z" transform="translate(-1775.362 -987.73)" fill="#ed7d2b"/>
        <path id="Path_42704" data-name="Path 42704" d="M1847.944,1016.668s3.75,5.031,4.1,8.433.548,15.348,1.294,18.664,3.481,9.7,3.481,20.039a2.063,2.063,0,0,1-1.163.908,9.594,9.594,0,0,1-1.023.283,1.608,1.608,0,0,1-1.8-.854c-1.85-3.725-7.743-15.739-8.045-18.232-.214-1.765-2.075-13.445-6.133-20.3-.975-1.646.6-8.189.6-8.189Z" transform="translate(-1820.728 -984.712)" fill="#f99746"/>
        <path id="Path_42705" data-name="Path 42705" d="M1819.389,1003.106a5.155,5.155,0,0,0,2.948.82c2.342.047,8.144-.6,8.144-.6a4.788,4.788,0,0,1,.247,1.481s-7.087,1.788-11.193.261A2.6,2.6,0,0,1,1819.389,1003.106Z" transform="translate(-1802.981 -972.103)" fill="#233862"/>
        <g id="Group_46223" data-name="Group 46223" transform="translate(17.725 31.422)">
          <path id="Path_42706" data-name="Path 42706" d="M1841.043,1011.492a1.219,1.219,0,1,1,1.069-1.209A1.147,1.147,0,0,1,1841.043,1011.492Zm0-2.065a.869.869,0,1,0,.714.855A.8.8,0,0,0,1841.043,1009.427Z" transform="translate(-1839.975 -1009.073)" fill="#fff"/>
        </g>
        <rect id="Rectangle_20886" data-name="Rectangle 20886" width="11.409" height="6.395" transform="translate(24.059 40.202) rotate(-12.167)" fill="#163560"/>
        <path id="Path_42707" data-name="Path 42707" d="M1930.094,1102.193s3.118,2.612,6.583,1.7a6.923,6.923,0,0,0,4.569-4.108Z" transform="translate(-1906.035 -1061.99)" fill="#17467f"/>
        <g id="Group_46224" data-name="Group 46224" transform="translate(24.999 39.174)">
          <path id="Path_42708" data-name="Path 42708" d="M1944.1,1120.6a.62.62,0,1,1,.62-.619A.62.62,0,0,1,1944.1,1120.6Zm0-1.033a.414.414,0,1,0,.414.414A.414.414,0,0,0,1944.1,1119.572Z" transform="translate(-1943.477 -1119.366)" fill="#17467f"/>
        </g>
        <path id="Path_42709" data-name="Path 42709" d="M2081.47,1128.6a5.091,5.091,0,0,0,.176,1.343c.172.437.688,1.019.859,1.019s-.157-.91-.072-.892.5,1.515.8,1.552.573-1.679.416-2.353a4.579,4.579,0,0,0-.838-1.482Z" transform="translate(-2046.772 -1088.02)" fill="#ffb27d"/>
        <path id="Path_42710" data-name="Path 42710" d="M1937.27,775.5a6.094,6.094,0,0,1,4.258,3.311c1.151,2.268,1.941,9.4,2.753,11.65a70.583,70.583,0,0,1,2.448,9.636.552.552,0,0,1-.34.61l-1.018.4a.481.481,0,0,1-.591-.2c-.9-1.519-4.47-7.6-5.709-11.119a18.384,18.384,0,0,0-4.156-6.668Z" transform="translate(-1910.518 -760.498)" fill="#f9ddbf"/>
        <g id="Group_46225" data-name="Group 46225" transform="translate(24.872 15.007)">
          <path id="Path_42711" data-name="Path 42711" d="M1942.21,799.806c-.006-.1-.65-10.276-.527-16a23.83,23.83,0,0,1,.906-6.366,4.589,4.589,0,0,1,1.045-1.943l.21.062c-.016.025-1.724,2.595-1.845,8.253-.123,5.707.52,15.869.527,15.971Z" transform="translate(-1941.667 -775.5)" fill="#0c2442"/>
        </g>
      </g>
      <g id="Group_46228" data-name="Group 46228" transform="translate(61.122 8.829)">
        <path id="Path_42712" data-name="Path 42712" d="M1193.548,1750.171h5.259a12.725,12.725,0,0,0-.42-1.887,5.348,5.348,0,0,0-.3-.758c-.511-1.021-3.76-.372-3.76-.372a2.5,2.5,0,0,0-.537,1.246A10.442,10.442,0,0,0,1193.548,1750.171Z" transform="translate(-1184.572 -1655.408)" fill="#233862"/>
        <path id="Path_42713" data-name="Path 42713" d="M1323.122,649.828s4.19.736,5.138,3.209,6.3,42.426,6.3,42.426-2.65,2.1-8.339,1.346S1323.122,649.828,1323.122,649.828Z" transform="translate(-1304.492 -635.392)" fill="#91cecf"/>
        <path id="Path_42714" data-name="Path 42714" d="M1419.629,1720.2a2.85,2.85,0,0,0,.364,1.66h10.4a1.794,1.794,0,0,0-1.575-1.116,7.892,7.892,0,0,1-4.209-1.948,3.13,3.13,0,0,1-.815-1.476c-.489-2.179-4.046.667-4.046.667A17.6,17.6,0,0,0,1419.629,1720.2Z" transform="translate(-1394.762 -1627.094)" fill="#233862"/>
        <path id="Path_42715" data-name="Path 42715" d="M1263.442,1105.551c-1.162.371-3.384,1.5-4.8.97-.912-.344-6.01-15.091-6.341-21.542a16.463,16.463,0,0,0-.261-1.922c-.3-1.665-.83-3.952-1.438-6.476-1.632-6.764-3.838-15.226-3.791-17.93.074-4.2,12.509-.88,12.509-.88a44.92,44.92,0,0,1,1.026,8.429c.338,9.9,1.266,26.61,3.791,38.219A1,1,0,0,1,1263.442,1105.551Z" transform="translate(-1234.096 -1013.508)" fill="#204f74"/>
        <path id="Path_42716" data-name="Path 42716" d="M1176.052,1066.913l-6.574,47.646a12.865,12.865,0,0,1-5.132.139s-1.925-25.341-1.764-31.467-1.381-16.393.352-17.525S1176.052,1066.913,1176.052,1066.913Z" transform="translate(-1155.336 -1021.756)" fill="#204f74"/>
        <path id="Path_42717" data-name="Path 42717" d="M1162.1,643.405s6.908-4.467,11.864-2.183a9.289,9.289,0,0,1,2.335,2.091c1.791,1.974,5.291,33.326,5.291,33.326s-9.935,3.365-19.49-1.142Z" transform="translate(-1155.336 -626.787)" fill="#fff"/>
        <path id="Path_42718" data-name="Path 42718" d="M1336.5,648.215s6.994,2.866,7.942,5.069,4.026,15.727,4.026,17.313-5.361.355-6.224-2.2c-.717-2.124-3.134-8.649-4.409-12.776Z" transform="translate(-1317.481 -633.893)" fill="#abddda"/>
        <g id="Group_46227" data-name="Group 46227" transform="translate(9.107)">
          <path id="Path_42719" data-name="Path 42719" d="M1244.245,596.631a7.867,7.867,0,0,1-5.412-1.1,15.567,15.567,0,0,0,1.153-4.073c.006-.048.011-.095.016-.14a4.151,4.151,0,0,0,.019-.933h3.948s1.079.493,1.079.834q0,.273,0,.523c.008.454.026.85.05,1.191a10.867,10.867,0,0,0,.2,1.629S1245.786,596.328,1244.245,596.631Z" transform="translate(-1235.781 -580.124)" fill="#ffb27d"/>
          <path id="Path_42720" data-name="Path 42720" d="M1259.254,602.556a5.455,5.455,0,0,1-5.116-1.475c-.055-.06-.084-.1-.084-.1.032-.016.065-.03.1-.044,1.113-.451,3.639-.092,5.05.425C1259.212,601.82,1259.23,602.216,1259.254,602.556Z" transform="translate(-1249.932 -589.75)" fill="#e2915a"/>
          <path id="Path_42721" data-name="Path 42721" d="M1231.392,485.327c.534,2.876,4.245,2.782,5.849,2.6.451-.05.735-.108.735-.108.509-.136.793-.937.925-1.988a16.36,16.36,0,0,0-.42-5.908c-.528-1.174-1.523-2.444-5.26-1.528S1230.706,481.642,1231.392,485.327Z" transform="translate(-1228.163 -475.718)" fill="#ffb27d"/>
          <path id="Path_42722" data-name="Path 42722" d="M1205.861,447.025a8.55,8.55,0,0,0-2.577-2.1c-2.114-1.143-4.818.036-4.829.041-3.053,1.342-3.85,3.678-2.232,7.316,1.712,3.847,3.341,3.414,3.341,3.414s-.346-.215-.314-1.414c0-.068,0-.125.007-.174a.806.806,0,0,0-.255-.656c-.379-.339-.564-1.362-.247-1.647.383-.344.921.074,1.093.4a.469.469,0,0,0,.67.148c.95-.6.333-1.8,1.241-2.537s2.75-.118,4.112-.7C1207.655,448.44,1206.247,447.558,1205.861,447.025Z" transform="translate(-1195.404 -444.423)" fill="#233862"/>
        </g>
        <path id="Path_42723" data-name="Path 42723" d="M1149.23,697.051q-.9.232-1.789.38c-.524.089-1.044.155-1.567.2a25.46,25.46,0,0,1-9.4-1.154q-1.172-.336-2.428-.76c-.089-.03.229-9.209.595-18.677.037-.977.076-1.959.114-2.933.017-.413.032-.823.049-1.233.332-8.374.661-15.936.731-16.343.159-.921.307-1.707.469-2.387a6.049,6.049,0,0,1,2.341-4.007c.125-.095,1.149-.611,2.052-1.06.749-.372,1.413-.7,1.413-.7h0a3.948,3.948,0,0,1,1.029,1.786,64.513,64.513,0,0,1,1.946,6.487.051.051,0,0,1,0,.01h0c.332,1.3.571,2.319.639,2.61.115.492.268,1.444.447,2.735.243,1.757.534,4.141.841,6.846q.048.417.1.844.054.487.11.984c.012.107.024.213.034.32.118,1.071.238,2.177.356,3.3.1.929,1.508,1.6,1.605,2.546.056.555.173,5.675.324,7.309C1149.35,685.325,1149.273,696.5,1149.23,697.051Z" transform="translate(-1129.241 -634.044)" fill="#abddda"/>
        <path id="Path_42724" data-name="Path 42724" d="M1153.4,812.393c0,.019-.239,8.468,6.116,9.494s2.133,1.3,2.133,1.3-11.957-.508-12.155-.824S1153.4,812.393,1153.4,812.393Z" transform="translate(-1143.609 -786.532)" fill="#91cecf"/>
        <path id="Path_42725" data-name="Path 42725" d="M1133.137,976.456s-.119.085-.348.232l-.012.007a29.838,29.838,0,0,1-8.037,3.437q-.66.179-1.363.336c.037-.978.076-1.959.113-2.933a12.259,12.259,0,0,1-1.575-.218c.016-.129.034-.257.051-.386.533-.219,1.063-.43,1.573-.629.416-.162.819-.317,1.2-.461,1.721-.654,3-1.1,3-1.1l5.094,1.614Z" transform="translate(-1117.975 -937.474)" fill="#91cecf"/>
        <path id="Path_42726" data-name="Path 42726" d="M1082.34,672.884s-.655.163-1.7.373l-.011,0a41.749,41.749,0,0,1-8.037.9c-.426,0-.844-.021-1.249-.053a12.28,12.28,0,0,1-1.575-.218,4.9,4.9,0,0,1-2.516-1.188c-4.292-4.372,2.343-20.063,3.738-21.59,1.629-1.783,4.6-2.408,6.242-2.622l.2-.025c.577-.069.948-.083.968-.084h0s-.128.414-.344,1.116c-.084.272-.181.586-.287.938-1.008,3.3-2.953,9.79-3.811,13.449a9.276,9.276,0,0,0-.406,2.586c.335,1.25,3.8,1.892,6,2.177.917.118,1.612.174,1.768.186l.032,0,.127.521.3,1.25.3,1.227Z" transform="translate(-1065.829 -634.044)" fill="#abddda"/>
        <path id="Path_42727" data-name="Path 42727" d="M1276.087,852.85l-14.741-.621,2.991-18.371,14.741.621Z" transform="translate(-1247.605 -806.488)" fill="#233862"/>
        <path id="Path_42728" data-name="Path 42728" d="M1275.862,939.037s2.87-.2,3.014.469c.335,1.559-2.467,2.839-3.375,2.752S1275.2,938.933,1275.862,939.037Z" transform="translate(-1260.338 -904.249)" fill="#ffb27d"/>
        <path id="Path_42729" data-name="Path 42729" d="M1460.371,889.634s-2.745-.859-3.04-.241c-.687,1.439,1.743,3.333,2.647,3.458S1461.037,889.685,1460.371,889.634Z" transform="translate(-1429.703 -857.912)" fill="#ffb27d"/>
        <path id="Path_42730" data-name="Path 42730" d="M1224.976,635.252a5.356,5.356,0,0,0-1.812,1.444s4.513,7.835,4.492,7.761S1226.131,636.255,1224.976,635.252Z" transform="translate(-1212.106 -621.84)" fill="#91cecf"/>
        <path id="Path_42731" data-name="Path 42731" d="M1328.925,636.824a3.443,3.443,0,0,1,1.331,1.363l.536,6.84s-1.146-5.02-1.728-7.289A3.834,3.834,0,0,1,1328.925,636.824Z" transform="translate(-1310.435 -623.302)" fill="#91cecf"/>
        <path id="Path_42732" data-name="Path 42732" d="M1373.433,830.764a.669.669,0,0,1,.787-.451c.671.059,4.441.245,4.441.245s.727-.012.66.454Z" transform="translate(-1351.814 -803.189)" fill="#c65447"/>
        <path id="Path_42733" data-name="Path 42733" d="M1311.9,585.019a1.575,1.575,0,0,0,1.279.308c.468-.082.73-.691.73-.691A3.534,3.534,0,0,0,1311.9,585.019Z" transform="translate(-1294.61 -574.761)" fill="#fff"/>
      </g>
      <rect id="Rectangle_20887" data-name="Rectangle 20887" width="196.089" height="0.635" rx="0.318" transform="translate(0 103.591)" fill="#2e3552"/>
    </g>
  </g>
</svg>
