<svg xmlns="http://www.w3.org/2000/svg" xmlns:xlink="http://www.w3.org/1999/xlink" width="77" height="77" viewBox="0 0 77 77">
  <defs>
    <linearGradient id="linear-gradient" x1="0.5" x2="0.5" y2="1" gradientUnits="objectBoundingBox">
      <stop offset="0" stop-color="#438d76"/>
      <stop offset="1" stop-color="#2b6050"/>
    </linearGradient>
  </defs>
  <g id="Group_47095" data-name="Group 47095" transform="translate(-179 -2948)">
    <rect id="Rectangle_19610" data-name="Rectangle 19610" width="77" height="77" rx="8" transform="translate(179 2948)" fill="url(#linear-gradient)"/>
    <g id="heart" transform="translate(200.037 2962.482)">
      <path id="Path_42464" data-name="Path 42464" d="M21.608,33.446a17.831,17.831,0,0,1-4.529-4.411h1.773a.7.7,0,1,0,0-1.391H16.19a16.6,16.6,0,0,1-1.059-2.207,14.146,14.146,0,0,1-1.007-4.305.7.7,0,0,0-1.391.03,14.665,14.665,0,0,0,.846,4.083,26.207,26.207,0,0,0-.841,4.151.7.7,0,0,0,.6.775.706.706,0,0,0,.086.005.7.7,0,0,0,.689-.61c.054-.434.182-1.316.353-2.188.2.406.431.828.689,1.26a.684.684,0,0,0,.07.116,18.567,18.567,0,0,0,2.343,3.073,12.21,12.21,0,0,0,.044,3.091.7.7,0,1,0,1.357-.306,6.962,6.962,0,0,1-.082-1.514,20.044,20.044,0,0,0,1.932,1.5.7.7,0,1,0,.784-1.149Z" transform="translate(-4.156 3.853)" fill="#fff"/>
      <path id="Path_42465" data-name="Path 42465" d="M39.086,29.7c-.091-.527-.176-1.024-.257-1.52-.113-.691-.2-1.248-.26-1.753a15.266,15.266,0,0,1-.15-3.076c.353-4.5-1.176-7.33-2.892-9.065a3.475,3.475,0,0,0-1.033-6.855A25.214,25.214,0,0,0,31.4,7.9,11.481,11.481,0,0,0,29.77,6.383L30.6,3.637A2.451,2.451,0,1,0,25.9,2.223l-.639,2.122L25.2,4.332V2.451a2.451,2.451,0,1,0-4.9,0V4.407l-.046.012-.661-2.2a2.451,2.451,0,1,0-4.694,1.413l.99,3.289A12.626,12.626,0,0,0,14.43,8.616c-2.707-.05-5.084.018-5.55.033A3.475,3.475,0,0,0,8.986,15.6l.114,0c.314-.01.668-.018,1.043-.025a14.94,14.94,0,0,0-2.885,9.306c0,.042,0,.083,0,.125s0,.086,0,.128a14.324,14.324,0,0,0,.3,2.86.7.7,0,0,0,1.363-.277,12.935,12.935,0,0,1-.272-2.581c0-.065,0-.129-.006-.193,0-.032,0-.063,0-.095a13.516,13.516,0,0,1,2.565-8.388c-.118.584-.17.959-.18,1.028a3.475,3.475,0,0,0,6.888.929s0-.015.006-.04v0l0-.024V18.34l0-.031V18.3l.006-.034,0-.011.007-.042v-.007l.01-.055v0c.007-.041.016-.085.025-.134l0-.015.011-.058.005-.027.01-.052.007-.032.011-.053.007-.034.012-.055.008-.039.012-.056.009-.041.013-.06.009-.041.016-.068.008-.037.024-.1.009-.037.019-.08.013-.052.016-.065.014-.057.016-.064.016-.06.017-.063.017-.062.017-.064.018-.064.019-.066.019-.065.019-.067.02-.067.02-.068.02-.068.024-.079.039-.123.022-.069.025-.075.017-.053.073.007.1.01.19.02.087.01.242.029.019,0,.235.032.075.011.153.024.077.013.141.025.065.012.188.038A3.09,3.09,0,0,1,22.071,17.1v0l.049.062q.054.069.105.142c.02.028.039.057.058.086s.029.043.043.065a5.162,5.162,0,0,1,.51,1.081,7.933,7.933,0,0,1,.328,1.508,3.5,3.5,0,0,0,3.264,3.037c.066,0,.131.005.2.005h0c.062,0,.123,0,.184,0l.079-.006L27,23.065l.086-.011.1-.014.086-.016.1-.019.084-.02.1-.024.082-.024.1-.03.079-.028.1-.035.076-.031.094-.041.074-.035.093-.047.071-.038.092-.053.068-.041.09-.058.065-.043.089-.065.061-.046c.03-.024.06-.048.089-.073l.055-.046c.032-.028.063-.057.094-.086l.045-.041q.068-.065.132-.135a3.452,3.452,0,0,0,.9-2.8q-.083-.627-.213-1.231A14.939,14.939,0,0,1,31.9,20.893c-.108.871-1.318,2.263-2.2,3.019a.7.7,0,0,0,.9,1.057,13,13,0,0,0,1.322-1.345,8.608,8.608,0,0,0,.727-.983,12.457,12.457,0,0,1,.652,5.154.7.7,0,0,0,.636.75l.058,0a.7.7,0,0,0,.693-.639,14.024,14.024,0,0,0,.022-1.985,3.5,3.5,0,0,1,.562.523.7.7,0,0,0,1.132-.808,9.5,9.5,0,0,0-1.941-1.619,14.348,14.348,0,0,0-1.22-3.555.716.716,0,0,0-.048-.1A15.636,15.636,0,0,0,32,18.382a16.606,16.606,0,0,0-2.355-2.669,17.09,17.09,0,0,1,3.034-.964l.13-.029.018,0c.341-.074.646-.132.9-.175,2.461,1.93,3.605,4.932,3.309,8.7a16.554,16.554,0,0,0,.157,3.361c.067.521.152,1.093.268,1.8.082.5.168,1,.259,1.531a38.211,38.211,0,0,1,.817,7.956.7.7,0,0,0,.662.727h.033a.7.7,0,0,0,.694-.663A39.257,39.257,0,0,0,39.086,29.7Zm-26.9-16.724h0c-.026.072-.051.144-.077.216l-.032.091q-.039.111-.076.224l-.016.049q-.079.238-.154.481l0,.009c-.012.037-.024.074-.035.112h-.081c-.953,0-1.912.02-2.657.044a2.084,2.084,0,0,1-.132-4.166c.34-.011,1.708-.05,3.477-.05.367,0,.751,0,1.147.006q-.262.461-.5.954l0,.009q-.081.165-.159.333t-.141.311l-.049.112q-.044.1-.087.2l-.058.14-.071.173-.063.157-.06.154Q12.268,12.756,12.187,12.979Zm21.644.135-.037,0a20.076,20.076,0,0,0-4.835,1.376l-.026.012-.192.09-.057.027-.16.08-.067.034-.154.082-.061.033c-.07.039-.139.077-.207.118l0,0L28,14.995l-.023.016-.027.021-.026.022-.021.02-.029.029-.016.018-.028.036-.008.01-.006.009-.024.038-.012.021c-.007.012-.013.024-.018.036l-.012.025c0,.011-.009.022-.013.033s-.008.019-.011.029-.006.02-.009.031-.01.039-.013.058,0,.024-.006.036,0,.017,0,.026,0,.022,0,.034,0,0,0,.007,0,.015,0,.023,0,.029,0,.043,0,.015,0,.022,0,.028,0,.043,0,.016,0,.024,0,.018.005.027,0,.008,0,.012.005.019.008.028.007.022.011.033.008.022.012.032l.007.018c.154.35.292.71.41,1.07a13.509,13.509,0,0,1,.542,2.423,2.062,2.062,0,0,1-.537,1.677,2.1,2.1,0,0,1-3.62-1.163,9.3,9.3,0,0,0-.393-1.779,6.133,6.133,0,0,0-.939-1.782l-.01-.013-.029-.037-.007-.01-.01-.013a4.452,4.452,0,0,0-2.643-1.573l-.2-.041-.052-.01-.219-.039-.012,0-.227-.036-.06-.009-.253-.035-.021,0-.255-.031-.063-.007-.059-.007L19.1,14.4c.041-.091.082-.181.123-.269,1.466-3.086,3.012-3.086,3.52-3.086.06,0,.117,0,.175,0a8.68,8.68,0,0,1,1.52.791.7.7,0,0,0,.774-.007c.171-.117.349-.23.532-.342l.115-.069.172-.1.111-.064.21-.115.084-.045q.138-.073.279-.144l.127-.063.177-.086.141-.067.177-.081.139-.063.231-.1.081-.035a.7.7,0,1,0-.537-1.284c-.161.067-.319.137-.475.207l-.074.033q-.232.106-.457.217l-.032.016q-.211.1-.415.213l-.068.036q-.209.112-.411.229l-.027.015a6.121,6.121,0,0,0-2.26-.481c-.106,0-.2-.006-.29-.006a4.106,4.106,0,0,0-1.4.239c-1.33.479-2.442,1.683-3.372,3.641-.053.111-.1.225-.156.341l-.006.015c-.035.079-.069.158-.1.239l-.011.027-.007.016c-.027.065-.053.129-.078.194-.018.044-.035.087-.052.131l-.008.02c-.036.093-.072.186-.106.278h0v0h0a19.007,19.007,0,0,0-.67,2.267l-.011.049-.016.071-.008.036c-.014.065-.028.129-.041.189l-.008.04q-.021.1-.039.189l-.02.1-.014.077c-.02.105-.035.192-.046.258l-.008.049c-.007.046-.012.077-.014.091v.009a2.084,2.084,0,0,1-4.131-.557l0-.017v0a.007.007,0,0,0,0,0,21.356,21.356,0,0,1,.57-2.6q.239-.852.529-1.647v0q.068-.186.139-.369l.013-.033q.07-.18.142-.356l.024-.057q.059-.143.12-.283l.038-.087q.073-.167.149-.33t.146-.306l.07-.14.078-.154c.031-.06.063-.12.094-.179l.056-.105q.054-.1.109-.2l.044-.079q.059-.1.119-.207l.037-.062q.063-.107.128-.211l.032-.051q.067-.108.136-.214l.025-.038q.073-.111.147-.22a11.2,11.2,0,0,1,1.777-2.055.7.7,0,0,0,.2-.719l-1.115-3.7a1.06,1.06,0,1,1,2.03-.611l.863,2.865a.7.7,0,0,0,.9.456,8.182,8.182,0,0,1,1.111-.3.7.7,0,0,0,.561-.682V2.451a1.06,1.06,0,0,1,2.12,0V4.917A.7.7,0,0,0,24.4,5.6a10.413,10.413,0,0,1,1.163.239.7.7,0,0,0,.845-.471l.828-2.748a1.06,1.06,0,0,1,2.03.611L28.3,6.455a.7.7,0,0,0,.27.773,9.838,9.838,0,0,1,1.28,1.057l-.012,0-.268.076A.7.7,0,1,0,29.954,9.7l.311-.088L30.3,9.6c.213-.058.43-.115.649-.168l.014,0,.322-.076A24.107,24.107,0,0,1,34.6,8.82a2.084,2.084,0,0,1,.328,4.155C34.67,13,34.29,13.042,33.831,13.114Z" transform="translate(-5.516)" fill="#fff"/>
      <path id="Path_42466" data-name="Path 42466" d="M38.664,34.964a.7.7,0,0,0-.837.517c-.806,3.414-3.215,5.3-7.582,5.924-8.464,1.217-18.344-7.8-21.2-16.36a.7.7,0,1,0-1.32.44,28.773,28.773,0,0,0,8.983,12.522c3.938,3.2,8.118,4.9,11.961,4.9a12.436,12.436,0,0,0,1.77-.125,11.727,11.727,0,0,0,6.1-2.468A8.336,8.336,0,0,0,39.181,35.8.7.7,0,0,0,38.664,34.964Z" transform="translate(-5.105 4.628)" fill="#fff"/>
    </g>
  </g>
</svg>
