<svg xmlns="http://www.w3.org/2000/svg" xmlns:xlink="http://www.w3.org/1999/xlink" width="130" height="130" viewBox="0 0 130 130">
  <defs>
    <radialGradient id="radial-gradient" cx="0.5" cy="0.5" r="0.767" gradientUnits="objectBoundingBox">
      <stop offset="0" stop-color="#edebe7"/>
      <stop offset="0.506" stop-color="#edebe7"/>
      <stop offset="0.66" stop-color="#f9f9f9"/>
      <stop offset="1" stop-color="#c2c2c2"/>
    </radialGradient>
    <linearGradient id="linear-gradient" x1="1.022" y1="-0.424" x2="0.299" y2="0.855" gradientUnits="objectBoundingBox">
      <stop offset="0" stop-color="#e6e7e8"/>
      <stop offset="1" stop-color="#fff"/>
    </linearGradient>
    <linearGradient id="linear-gradient-2" x1="0.497" y1="0.774" x2="0.391" y2="0.177" gradientUnits="objectBoundingBox">
      <stop offset="0" stop-color="#89aacb"/>
      <stop offset="1" stop-color="#fff"/>
    </linearGradient>
    <linearGradient id="linear-gradient-4" x1="0.515" y1="0.881" x2="0.39" y2="0.127" gradientUnits="objectBoundingBox">
      <stop offset="0" stop-color="#747879"/>
      <stop offset="0.33" stop-color="#e6e7e8"/>
      <stop offset="1" stop-color="#595f60"/>
    </linearGradient>
    <radialGradient id="radial-gradient-2" cx="0.042" cy="0.251" fx="0.3916469007730484" fy="0.25074461102485657" r="0.353" gradientUnits="objectBoundingBox">
      <stop offset="0" stop-color="#26c2e7"/>
      <stop offset="0.215" stop-color="#0096d8"/>
      <stop offset="0.347" stop-color="#0052a4"/>
      <stop offset="1" stop-color="#293b97"/>
    </radialGradient>
    <radialGradient id="radial-gradient-3" cx="0.19" cy="0.826" r="1.494" gradientUnits="objectBoundingBox">
      <stop offset="0" stop-color="#26c2e7"/>
      <stop offset="0.27" stop-color="#0096d8"/>
      <stop offset="0.52" stop-color="#0052a4"/>
      <stop offset="1" stop-color="#293b97"/>
    </radialGradient>
    <radialGradient id="radial-gradient-4" cx="0.688" cy="0.823" r="0.774" gradientUnits="objectBoundingBox">
      <stop offset="0" stop-color="#26c2e7"/>
      <stop offset="0.388" stop-color="#0096d8"/>
      <stop offset="0.65" stop-color="#0052a4"/>
      <stop offset="1" stop-color="#293b97"/>
    </radialGradient>
    <radialGradient id="radial-gradient-5" cx="0.963" cy="0.724" fx="1.3076568272709848" fy="0.7244624495506287" r="0.348" xlink:href="#radial-gradient-2"/>
    <radialGradient id="radial-gradient-6" cx="0.81" cy="0.175" r="1.357" xlink:href="#radial-gradient-3"/>
    <radialGradient id="radial-gradient-7" cx="0.306" cy="0.186" r="0.778" xlink:href="#radial-gradient-4"/>
  </defs>
  <g id="Group_24" data-name="Group 24" transform="translate(-238.098 -324.976)">
    <rect id="Rectangle_4370" data-name="Rectangle 4370" width="130" height="130" rx="65" transform="translate(238.098 324.975)" fill="url(#radial-gradient)"/>
    <g id="Group_23" data-name="Group 23" transform="translate(259.845 357.119)">
      <g id="Group_14" data-name="Group 14" transform="translate(0 57.741)">
        <path id="Path_22501" data-name="Path 22501" d="M337.066,427.964c0,2.124-16.773,3.846-37.466,3.846s-37.466-1.722-37.466-3.846,16.773-3.846,37.466-3.846S337.066,425.84,337.066,427.964Z" transform="translate(-262.135 -424.118)" fill="#fff" fill-rule="evenodd"/>
        <path id="Path_22502" data-name="Path 22502" d="M333.7,429.706q-1.091.068-2.276.133c-8.143.442-19.393.717-31.819.717s-23.677-.275-31.82-.717q-1.182-.064-2.277-.133c-2.163-.487-3.369-1.027-3.369-1.6s1.206-1.109,3.368-1.595q1.094-.071,2.278-.135c8.144-.441,19.394-.717,31.82-.717s23.676.275,31.819.717q1.184.064,2.279.135c2.162.486,3.368,1.025,3.368,1.595S335.859,429.219,333.7,429.706Z" transform="translate(-262.135 -424.263)" fill="#fff" fill-rule="evenodd"/>
        <path id="Path_22503" data-name="Path 22503" d="M333.78,429.689q-1.181.073-2.469.145c-8.115.441-19.327.714-31.71.714s-23.6-.273-31.711-.714q-1.287-.071-2.467-.145c-2.112-.482-3.287-1.017-3.287-1.578s1.175-1.1,3.287-1.577q1.178-.076,2.467-.146c8.115-.441,19.327-.714,31.711-.714s23.6.274,31.71.714q1.29.071,2.469.146c2.112.48,3.286,1.016,3.286,1.577S335.891,429.207,333.78,429.689Z" transform="translate(-262.135 -424.264)" fill="#fff" fill-rule="evenodd"/>
        <path id="Path_22504" data-name="Path 22504" d="M333.85,429.672q-1.261.083-2.648.159c-8.089.438-19.261.71-31.6.71s-23.515-.273-31.6-.71q-1.385-.076-2.647-.159c-2.066-.476-3.216-1-3.216-1.56s1.15-1.084,3.215-1.56q1.26-.083,2.648-.157c8.089-.44,19.262-.711,31.6-.711s23.514.271,31.6.711q1.386.075,2.65.157c2.064.477,3.213,1,3.213,1.56S335.915,429.2,333.85,429.672Z" transform="translate(-262.135 -424.265)" fill="#fff" fill-rule="evenodd"/>
        <path id="Path_22505" data-name="Path 22505" d="M333.932,429.654q-1.346.088-2.838.169c-8.06.438-19.194.709-31.494.709s-23.434-.271-31.494-.709c-.994-.054-1.942-.111-2.838-.169-2.014-.472-3.134-.993-3.134-1.542s1.121-1.07,3.134-1.543c.9-.057,1.844-.115,2.838-.168,8.06-.439,19.194-.709,31.494-.709s23.434.271,31.494.709c.995.053,1.941.111,2.838.168,2.015.473,3.134.995,3.134,1.543S335.947,429.182,333.932,429.654Z" transform="translate(-262.135 -424.266)" fill="#fff" fill-rule="evenodd"/>
        <path id="Path_22506" data-name="Path 22506" d="M334.007,429.637q-1.426.094-3.022.181c-8.031.438-19.128.708-31.385.708s-23.354-.27-31.386-.708q-1.594-.086-3.022-.181c-1.966-.468-3.058-.983-3.058-1.524s1.092-1.056,3.058-1.524q1.427-.1,3.022-.181c8.032-.438,19.129-.707,31.386-.707s23.354.269,31.385.707q1.594.086,3.022.181c1.968.468,3.059.983,3.059,1.524S335.975,429.169,334.007,429.637Z" transform="translate(-262.135 -424.267)" fill="#fff" fill-rule="evenodd"/>
        <path id="Path_22507" data-name="Path 22507" d="M334.088,429.619q-1.509.1-3.21.195c-8,.435-19.062.7-31.277.7s-23.273-.27-31.278-.7q-1.7-.092-3.21-.195c-1.915-.461-2.977-.97-2.977-1.505s1.062-1.043,2.978-1.506c1-.067,2.077-.132,3.209-.194,8.005-.435,19.063-.7,31.278-.7s23.274.268,31.277.7q1.7.092,3.211.194c1.917.463,2.977.971,2.977,1.506S336,429.158,334.088,429.619Z" transform="translate(-262.135 -424.268)" fill="#fff" fill-rule="evenodd"/>
        <path id="Path_22508" data-name="Path 22508" d="M334.164,429.6c-1.057.071-2.191.14-3.393.206-7.977.434-19,.7-31.17.7s-23.192-.267-31.169-.7q-1.8-.1-3.4-.206c-1.868-.458-2.9-.961-2.9-1.488s1.033-1.029,2.9-1.486c1.057-.072,2.191-.142,3.394-.208,7.977-.433,19-.7,31.169-.7s23.193.268,31.17.7c1.2.065,2.336.135,3.393.208,1.869.457,2.9.959,2.9,1.486S336.031,429.144,334.164,429.6Z" transform="translate(-262.135 -424.268)" fill="#fff" fill-rule="evenodd"/>
        <path id="Path_22509" data-name="Path 22509" d="M334.237,429.584q-1.664.115-3.577.22c-7.948.431-18.93.7-31.06.7s-23.111-.266-31.06-.7c-1.272-.07-2.467-.143-3.576-.22-1.821-.454-2.829-.948-2.829-1.469s1.008-1.016,2.828-1.469c1.11-.077,2.305-.15,3.577-.218,7.949-.433,18.931-.7,31.06-.7s23.111.266,31.06.7q1.911.1,3.577.218c1.823.453,2.829.949,2.829,1.469S336.058,429.13,334.237,429.584Z" transform="translate(-262.135 -424.269)" fill="#fff" fill-rule="evenodd"/>
        <path id="Path_22510" data-name="Path 22510" d="M334.311,429.567c-1.16.082-2.416.16-3.758.232-7.921.43-18.864.7-30.952.7s-23.031-.266-30.953-.7c-1.342-.072-2.6-.15-3.757-.232-1.776-.448-2.756-.938-2.756-1.451s.98-1,2.756-1.45c1.159-.082,2.415-.16,3.757-.233,7.922-.43,18.865-.7,30.953-.7s23.031.266,30.952.7c1.343.072,2.6.15,3.758.233,1.775.448,2.755.937,2.755,1.45S336.085,429.119,334.311,429.567Z" transform="translate(-262.135 -424.27)" fill="#fff" fill-rule="evenodd"/>
        <path id="Path_22511" data-name="Path 22511" d="M334.388,429.547c-1.211.088-2.529.169-3.943.246-7.894.43-18.8.695-30.844.695s-22.95-.265-30.844-.695c-1.414-.077-2.734-.159-3.944-.246-1.726-.441-2.677-.924-2.677-1.43s.951-.988,2.677-1.431c1.211-.086,2.53-.169,3.944-.245,7.894-.429,18.8-.7,30.844-.7s22.95.266,30.844.7c1.415.076,2.733.159,3.943.245,1.728.443,2.678.925,2.678,1.431S336.116,429.106,334.388,429.547Z" transform="translate(-262.135 -424.271)" fill="#fff" fill-rule="evenodd"/>
        <path id="Path_22512" data-name="Path 22512" d="M334.466,429.529c-1.26.093-2.641.178-4.129.26-7.867.427-18.733.691-30.736.691s-22.87-.265-30.736-.691c-1.488-.082-2.869-.167-4.129-.26-1.678-.436-2.6-.912-2.6-1.411s.922-.974,2.6-1.41c1.26-.093,2.642-.18,4.13-.26,7.867-.428,18.732-.692,30.736-.692s22.869.265,30.736.692c1.488.08,2.869.167,4.13.26,1.677.436,2.6.911,2.6,1.41S336.144,429.093,334.466,429.529Z" transform="translate(-262.135 -424.272)" fill="#fff" fill-rule="evenodd"/>
        <path id="Path_22513" data-name="Path 22513" d="M334.539,429.51c-1.308.1-2.752.188-4.311.274-7.837.425-18.666.69-30.627.69s-22.789-.265-30.627-.69c-1.561-.085-3-.176-4.311-.274-1.631-.43-2.527-.9-2.527-1.391s.9-.96,2.527-1.391c1.309-.1,2.75-.188,4.311-.275,7.839-.424,18.667-.688,30.627-.688s22.789.264,30.627.688c1.561.086,3,.178,4.311.275,1.632.431,2.527.9,2.527,1.391S336.171,429.08,334.539,429.51Z" transform="translate(-262.135 -424.273)" fill="#fff" fill-rule="evenodd"/>
        <path id="Path_22514" data-name="Path 22514" d="M334.611,429.491c-1.357.1-2.859.2-4.492.287-7.809.425-18.6.688-30.519.688s-22.708-.263-30.519-.688c-1.634-.088-3.137-.186-4.492-.287-1.584-.425-2.455-.886-2.455-1.371s.87-.947,2.455-1.371c1.355-.1,2.859-.2,4.492-.288,7.81-.423,18.6-.687,30.519-.687s22.709.264,30.519.687c1.634.09,3.138.186,4.492.288,1.585.425,2.455.887,2.455,1.371S336.2,429.066,334.611,429.491Z" transform="translate(-262.135 -424.274)" fill="#fff" fill-rule="evenodd"/>
        <path id="Path_22515" data-name="Path 22515" d="M334.683,429.473c-1.4.106-2.965.207-4.672.3-7.783.422-18.535.685-30.411.685s-22.628-.263-30.411-.685c-1.706-.092-3.27-.194-4.672-.3-1.539-.42-2.383-.876-2.383-1.353s.844-.932,2.383-1.351c1.4-.108,2.966-.208,4.672-.3,7.783-.423,18.535-.685,30.411-.685s22.628.262,30.411.685c1.707.093,3.27.194,4.673.3,1.538.419,2.382.874,2.382,1.351S336.222,429.053,334.683,429.473Z" transform="translate(-262.135 -424.274)" fill="#fff" fill-rule="evenodd"/>
        <path id="Path_22516" data-name="Path 22516" d="M334.758,429.454c-1.447.112-3.073.218-4.855.314-7.755.422-18.469.682-30.3.682s-22.547-.26-30.3-.682c-1.782-.1-3.409-.2-4.857-.314-1.491-.414-2.307-.864-2.307-1.332s.815-.916,2.306-1.33c1.448-.114,3.074-.22,4.858-.316,7.755-.421,18.469-.681,30.3-.681s22.548.26,30.3.681c1.781.1,3.408.2,4.857.316,1.492.414,2.306.863,2.306,1.33S336.251,429.04,334.758,429.454Z" transform="translate(-262.135 -424.275)" fill="#fff" fill-rule="evenodd"/>
        <path id="Path_22517" data-name="Path 22517" d="M334.829,429.435c-1.491.117-3.179.227-5.035.328-7.727.42-18.4.68-30.193.68s-22.466-.259-30.193-.68c-1.857-.1-3.545-.211-5.036-.328-1.447-.411-2.236-.853-2.236-1.313s.79-.9,2.236-1.313c1.491-.118,3.179-.227,5.036-.328,7.727-.42,18.4-.68,30.193-.68s22.466.259,30.193.68c1.857.1,3.546.21,5.035.328,1.447.41,2.237.854,2.237,1.313S336.276,429.024,334.829,429.435Z" transform="translate(-262.135 -424.276)" fill="#fff" fill-rule="evenodd"/>
        <path id="Path_22518" data-name="Path 22518" d="M334.9,429.415c-1.533.123-3.281.238-5.214.343-7.7.418-18.335.676-30.085.676s-22.386-.258-30.086-.676c-1.933-.105-3.68-.22-5.214-.343-1.4-.4-2.166-.839-2.166-1.292s.765-.887,2.166-1.291c1.534-.123,3.281-.239,5.214-.343,7.7-.419,18.337-.677,30.086-.677s22.386.258,30.085.677c1.934.1,3.681.22,5.215.345,1.4.4,2.166.836,2.166,1.289S336.3,429.011,334.9,429.415Z" transform="translate(-262.135 -424.277)" fill="#fff" fill-rule="evenodd"/>
        <path id="Path_22519" data-name="Path 22519" d="M334.971,429.4c-1.575.129-3.383.248-5.394.359-7.671.416-18.27.674-29.977.674s-22.3-.257-29.977-.674c-2.01-.111-3.819-.23-5.395-.359-1.355-.4-2.094-.825-2.094-1.271s.738-.873,2.093-1.269c1.576-.13,3.385-.25,5.4-.36,7.672-.417,18.27-.675,29.977-.675s22.306.258,29.977.675c2.011.11,3.821.229,5.4.36,1.354.4,2.092.825,2.092,1.269S336.328,429,334.971,429.4Z" transform="translate(-262.135 -424.278)" fill="#fff" fill-rule="evenodd"/>
        <path id="Path_22520" data-name="Path 22520" d="M335.045,429.375c-1.616.134-3.487.26-5.576.374-7.644.415-18.2.672-29.868.672s-22.224-.257-29.868-.672c-2.089-.114-3.961-.24-5.577-.374-1.309-.392-2.021-.812-2.021-1.249s.711-.857,2.021-1.249c1.616-.135,3.487-.262,5.577-.374,7.644-.417,18.2-.672,29.868-.672s22.224.256,29.868.672c2.09.112,3.96.239,5.578.374,1.308.391,2.02.811,2.02,1.249S336.355,428.982,335.045,429.375Z" transform="translate(-262.135 -424.279)" fill="#fff" fill-rule="evenodd"/>
        <path id="Path_22521" data-name="Path 22521" d="M335.117,429.354c-1.657.141-3.589.272-5.757.39-7.616.414-18.137.67-29.759.67s-22.144-.256-29.759-.67c-2.168-.118-4.1-.248-5.756-.39-1.264-.385-1.95-.8-1.95-1.228s.686-.843,1.951-1.228c1.655-.141,3.587-.272,5.755-.391,7.616-.413,18.138-.669,29.759-.669s22.144.256,29.759.669c2.168.119,4.1.249,5.757.391,1.263.385,1.949.8,1.949,1.228S336.38,428.969,335.117,429.354Z" transform="translate(-262.135 -424.28)" fill="#fff" fill-rule="evenodd"/>
        <path id="Path_22522" data-name="Path 22522" d="M335.184,429.333c-1.693.148-3.686.284-5.932.406-7.588.413-18.071.667-29.651.667s-22.063-.254-29.652-.667c-2.245-.122-4.238-.259-5.93-.406-1.221-.38-1.883-.785-1.883-1.206s.662-.826,1.883-1.207c1.693-.147,3.685-.283,5.93-.405,7.589-.411,18.073-.667,29.652-.667s22.064.256,29.651.667c2.246.122,4.24.258,5.932.405,1.22.381,1.882.786,1.882,1.207S336.4,428.953,335.184,429.333Z" transform="translate(-262.135 -424.28)" fill="#fff" fill-rule="evenodd"/>
        <path id="Path_22523" data-name="Path 22523" d="M335.254,429.312c-7.343.651-20.563,1.086-35.653,1.086s-28.31-.435-35.653-1.086c-1.175-.372-1.812-.772-1.812-1.184s.637-.811,1.812-1.184c7.344-.651,20.563-1.086,35.653-1.086s28.31.435,35.654,1.086c1.174.373,1.811.771,1.811,1.184S336.429,428.939,335.254,429.312Z" transform="translate(-262.135 -424.281)" fill="#fff" fill-rule="evenodd"/>
        <path id="Path_22524" data-name="Path 22524" d="M335.325,429.291c-7.274.659-20.55,1.1-35.725,1.1s-28.452-.441-35.725-1.1c-1.13-.367-1.741-.757-1.741-1.163s.611-.795,1.74-1.163c7.274-.658,20.551-1.1,35.726-1.1s28.454.44,35.725,1.1c1.13.366,1.741.757,1.741,1.163S336.455,428.924,335.325,429.291Z" transform="translate(-262.135 -424.282)" fill="#fff" fill-rule="evenodd"/>
        <path id="Path_22525" data-name="Path 22525" d="M335.4,429.268c-7.2.667-20.535,1.116-35.8,1.116s-28.6-.449-35.8-1.116c-1.085-.36-1.669-.742-1.669-1.139s.584-.778,1.668-1.138c7.2-.667,20.536-1.115,35.8-1.115s28.6.449,35.8,1.115c1.085.36,1.669.742,1.669,1.139S336.482,428.909,335.4,429.268Z" transform="translate(-262.135 -424.283)" fill="#fff" fill-rule="evenodd"/>
        <path id="Path_22526" data-name="Path 22526" d="M335.462,429.247c-7.128.673-20.518,1.129-35.862,1.129s-28.735-.456-35.862-1.129c-1.042-.354-1.6-.729-1.6-1.117s.563-.763,1.6-1.116c7.127-.674,20.517-1.129,35.861-1.129s28.734.455,35.862,1.129c1.042.353,1.6.728,1.6,1.116S336.5,428.893,335.462,429.247Z" transform="translate(-262.135 -424.284)" fill="#fff" fill-rule="evenodd"/>
        <path id="Path_22527" data-name="Path 22527" d="M335.531,429.223c-7.048.684-20.5,1.146-35.931,1.146s-28.883-.462-35.931-1.146c-1-.345-1.535-.711-1.535-1.092s.538-.746,1.536-1.093c7.048-.683,20.5-1.144,35.93-1.144s28.882.461,35.931,1.144c1,.347,1.535.713,1.535,1.093S336.529,428.878,335.531,429.223Z" transform="translate(-262.135 -424.285)" fill="#fbfdff" fill-rule="evenodd"/>
        <path id="Path_22528" data-name="Path 22528" d="M335.6,429.2c-6.965.691-20.474,1.16-36,1.16s-29.034-.468-36-1.16c-.954-.339-1.467-.7-1.467-1.069s.513-.729,1.467-1.068c6.964-.692,20.474-1.161,36-1.161s29.034.468,36,1.161c.953.339,1.466.7,1.466,1.068S336.553,428.862,335.6,429.2Z" transform="translate(-262.135 -424.286)" fill="#fbfdff" fill-rule="evenodd"/>
        <path id="Path_22529" data-name="Path 22529" d="M335.669,429.177c-6.877.7-20.447,1.176-36.068,1.176s-29.192-.477-36.068-1.176c-.91-.333-1.4-.681-1.4-1.044s.487-.712,1.4-1.044c6.876-.7,20.448-1.176,36.068-1.176s29.191.477,36.068,1.176c.911.332,1.4.681,1.4,1.044S336.579,428.844,335.669,429.177Z" transform="translate(-262.135 -424.287)" fill="#fbfdff" fill-rule="evenodd"/>
        <path id="Path_22530" data-name="Path 22530" d="M335.732,429.153c-6.784.709-20.417,1.193-36.132,1.193s-29.348-.485-36.133-1.193c-.867-.324-1.333-.665-1.333-1.019s.466-.695,1.333-1.02c6.785-.708,20.419-1.191,36.133-1.191s29.348.484,36.132,1.191c.868.325,1.334.668,1.334,1.02S336.6,428.829,335.732,429.153Z" transform="translate(-262.135 -424.287)" fill="#fbfdff" fill-rule="evenodd"/>
        <path id="Path_22531" data-name="Path 22531" d="M335.8,429.129c-6.688.718-20.387,1.209-36.2,1.209s-29.51-.491-36.2-1.209c-.825-.318-1.267-.651-1.267-.995s.442-.678,1.268-.995c6.688-.716,20.385-1.209,36.2-1.209s29.511.491,36.2,1.209c.825.317,1.267.651,1.267.995S336.625,428.811,335.8,429.129Z" transform="translate(-262.135 -424.288)" fill="#fbfdff" fill-rule="evenodd"/>
        <path id="Path_22532" data-name="Path 22532" d="M335.87,429.1c-6.585.726-20.351,1.227-36.269,1.227s-29.683-.5-36.269-1.227c-.78-.309-1.2-.634-1.2-.969s.417-.658,1.2-.968c6.585-.728,20.35-1.228,36.269-1.228s29.684.5,36.269,1.228c.781.31,1.2.633,1.2.968S336.651,428.8,335.87,429.1Z" transform="translate(-262.135 -424.289)" fill="#fbfdff" fill-rule="evenodd"/>
        <path id="Path_22533" data-name="Path 22533" d="M335.933,429.078c-6.477.738-20.311,1.246-36.332,1.246s-29.855-.508-36.332-1.246c-.739-.3-1.133-.616-1.133-.941s.394-.642,1.133-.942c6.478-.737,20.311-1.246,36.332-1.246s29.855.509,36.332,1.246c.739.3,1.134.618,1.134.942S336.672,428.777,335.933,429.078Z" transform="translate(-262.135 -424.29)" fill="#fafafd" fill-rule="evenodd"/>
        <path id="Path_22534" data-name="Path 22534" d="M336,429.052c-6.362.746-20.266,1.264-36.4,1.264s-30.034-.518-36.4-1.264c-.7-.294-1.069-.6-1.069-.915s.372-.622,1.069-.914c6.363-.747,20.266-1.265,36.4-1.265s30.034.518,36.4,1.265c.7.294,1.069.6,1.069.914S336.694,428.759,336,429.052Z" transform="translate(-262.135 -424.291)" fill="#fafafd" fill-rule="evenodd"/>
        <path id="Path_22535" data-name="Path 22535" d="M336.063,429.025c-6.241.758-20.218,1.284-36.462,1.284s-30.221-.526-36.462-1.284c-.655-.285-1-.583-1-.887s.348-.6,1-.887c6.242-.757,20.219-1.283,36.462-1.283s30.221.526,36.463,1.283c.653.285,1,.582,1,.887S336.717,428.74,336.063,429.025Z" transform="translate(-262.135 -424.292)" fill="#fafafd" fill-rule="evenodd"/>
        <path id="Path_22536" data-name="Path 22536" d="M336.13,429c-6.112.767-20.167,1.3-36.53,1.3s-30.416-.537-36.529-1.3c-.612-.277-.937-.564-.937-.859s.324-.582.937-.859c6.111-.767,20.166-1.3,36.529-1.3s30.417.535,36.53,1.3c.613.277.936.564.936.859S336.743,428.721,336.13,429Z" transform="translate(-262.135 -424.293)" fill="#fafafd" fill-rule="evenodd"/>
        <path id="Path_22537" data-name="Path 22537" d="M336.191,428.969c-5.977.778-20.107,1.326-36.59,1.326s-30.614-.547-36.59-1.326c-.572-.268-.875-.545-.875-.829s.3-.562.875-.828c5.976-.779,20.107-1.326,36.59-1.326s30.614.546,36.59,1.326c.572.266.875.544.875.828S336.762,428.7,336.191,428.969Z" transform="translate(-262.135 -424.293)" fill="#f7f8f9" fill-rule="evenodd"/>
        <path id="Path_22538" data-name="Path 22538" d="M336.255,428.938c-5.827.79-20.042,1.348-36.655,1.348s-30.827-.558-36.655-1.347c-.529-.257-.81-.524-.81-.8s.281-.541.81-.8c5.828-.789,20.042-1.346,36.655-1.346s30.828.557,36.655,1.346c.529.258.811.525.811.8S336.785,428.682,336.255,428.938Z" transform="translate(-262.135 -424.294)" fill="#f7f8f9" fill-rule="evenodd"/>
        <path id="Path_22539" data-name="Path 22539" d="M336.321,428.908c-5.67.8-19.972,1.37-36.721,1.37s-31.05-.567-36.721-1.37c-.488-.247-.745-.5-.745-.767s.256-.519.744-.766c5.67-.8,19.973-1.371,36.722-1.371s31.05.569,36.721,1.371c.488.246.745.5.745.766S336.81,428.661,336.321,428.908Z" transform="translate(-262.135 -424.295)" fill="#f7f8f9" fill-rule="evenodd"/>
        <path id="Path_22540" data-name="Path 22540" d="M336.382,428.877c-5.505.814-19.895,1.394-36.781,1.394s-31.276-.58-36.781-1.394c-.448-.238-.685-.483-.685-.735s.236-.5.685-.735c5.5-.815,19.895-1.394,36.781-1.394s31.277.579,36.781,1.394c.447.238.684.485.684.735S336.829,428.639,336.382,428.877Z" transform="translate(-262.135 -424.296)" fill="#f7f8f9" fill-rule="evenodd"/>
        <path id="Path_22541" data-name="Path 22541" d="M336.447,428.844c-5.32.826-19.807,1.42-36.847,1.42s-31.527-.593-36.847-1.42c-.4-.227-.619-.461-.619-.7s.214-.472.619-.7c5.319-.825,19.806-1.42,36.847-1.42s31.527.594,36.847,1.42c.4.228.619.462.619.7S336.852,428.615,336.447,428.844Z" transform="translate(-262.135 -424.297)" fill="#f7f8f9" fill-rule="evenodd"/>
        <path id="Path_22542" data-name="Path 22542" d="M336.509,428.807c-5.121.842-19.71,1.449-36.908,1.449s-31.787-.607-36.908-1.448c-.365-.218-.557-.439-.557-.664s.192-.448.557-.663c5.12-.842,19.709-1.45,36.908-1.45s31.788.608,36.908,1.45c.366.216.557.437.557.663S336.875,428.591,336.509,428.807Z" transform="translate(-262.135 -424.298)" fill="#f7f8f9" fill-rule="evenodd"/>
        <path id="Path_22543" data-name="Path 22543" d="M336.568,428.772c-4.908.856-19.6,1.477-36.967,1.477s-32.06-.621-36.968-1.477c-.325-.2-.5-.413-.5-.627s.172-.423.5-.627c4.908-.854,19.6-1.477,36.968-1.477s32.061.622,36.969,1.477c.325.2.5.413.5.627S336.895,428.568,336.568,428.772Z" transform="translate(-262.135 -424.299)" fill="#f7f8f9" fill-rule="evenodd"/>
        <path id="Path_22544" data-name="Path 22544" d="M336.635,428.732c-4.662.872-19.476,1.51-37.034,1.51s-32.372-.638-37.035-1.51c-.284-.191-.43-.387-.43-.586s.147-.4.431-.585c4.662-.872,19.476-1.51,37.034-1.51s32.373.639,37.034,1.51c.285.19.431.386.431.585S336.919,428.541,336.635,428.732Z" transform="translate(-262.135 -424.299)" fill="#f7f6f7" fill-rule="evenodd"/>
        <path id="Path_22545" data-name="Path 22545" d="M336.693,428.69c-4.4.888-19.338,1.544-37.092,1.544s-32.692-.656-37.092-1.544a.582.582,0,0,1,0-1.086c4.4-.89,19.338-1.545,37.092-1.545s32.693.655,37.093,1.545a.582.582,0,0,1,0,1.086Z" transform="translate(-262.135 -424.3)" fill="#f7f6f7" fill-rule="evenodd"/>
        <path id="Path_22546" data-name="Path 22546" d="M336.756,428.644c-4.094.908-19.174,1.583-37.156,1.583s-33.061-.675-37.156-1.583a.553.553,0,0,1,0-.993c4.095-.907,19.175-1.584,37.156-1.584s33.062.677,37.156,1.584a.553.553,0,0,1,0,.993Z" transform="translate(-262.135 -424.301)" fill="#f7f6f7" fill-rule="evenodd"/>
        <path id="Path_22547" data-name="Path 22547" d="M336.814,428.594c-3.753.93-18.988,1.625-37.214,1.625s-33.462-.7-37.214-1.625a.52.52,0,0,1,0-.892c3.752-.93,18.987-1.626,37.214-1.626s33.461.7,37.214,1.626a.52.52,0,0,1,0,.892Z" transform="translate(-262.135 -424.302)" fill="#f4f4f7" fill-rule="evenodd"/>
        <path id="Path_22548" data-name="Path 22548" d="M336.878,428.537c-3.337.953-18.757,1.674-37.278,1.674s-33.942-.721-37.277-1.674a.566.566,0,0,1-.188-.388.557.557,0,0,1,.188-.386c3.335-.955,18.756-1.675,37.277-1.675s33.941.72,37.278,1.675a.556.556,0,0,1,.188.386A.565.565,0,0,1,336.878,428.537Z" transform="translate(-262.135 -424.303)" fill="#f4f4f7" fill-rule="evenodd"/>
        <path id="Path_22549" data-name="Path 22549" d="M336.936,428.472c-2.838.98-18.472,1.733-37.335,1.733s-34.5-.753-37.334-1.733a.459.459,0,0,1,0-.643c2.836-.98,18.47-1.732,37.334-1.732s34.5.751,37.335,1.732a.462.462,0,0,1,0,.643Z" transform="translate(-262.135 -424.304)" fill="#f4f4f7" fill-rule="evenodd"/>
        <path id="Path_22550" data-name="Path 22550" d="M336.994,428.385c-2.14,1.02-18.064,1.812-37.394,1.812s-35.25-.792-37.394-1.811a.465.465,0,0,1-.072-.235.46.46,0,0,1,.072-.234c2.143-1.019,18.065-1.811,37.394-1.811s35.254.792,37.394,1.811a.417.417,0,0,1,0,.468Z" transform="translate(-262.135 -424.305)" fill="#f4f4f4" fill-rule="evenodd"/>
        <path id="Path_22551" data-name="Path 22551" d="M337.055,428.235c-.8,1.086-17.263,1.953-37.455,1.953s-36.652-.866-37.456-1.953a.42.42,0,0,1-.01-.083.428.428,0,0,1,.01-.083c.8-1.087,17.264-1.954,37.456-1.954s36.652.866,37.455,1.954a.324.324,0,0,1,0,.167Z" transform="translate(-262.135 -424.306)" fill="#f4f4f4" fill-rule="evenodd"/>
        <path id="Path_22552" data-name="Path 22552" d="M336.95,428.153c0,1.122-16.716,2.029-37.336,2.029s-37.336-.907-37.336-2.029,16.716-2.029,37.336-2.029S336.949,427.033,336.95,428.153Z" transform="translate(-262.148 -424.306)" fill="#f4f4f4" fill-rule="evenodd"/>
        <path id="Path_22553" data-name="Path 22553" d="M336.812,428.154c0,1.117-16.646,2.021-37.182,2.021s-37.183-.9-37.183-2.021,16.648-2.021,37.183-2.021S336.812,427.038,336.812,428.154Z" transform="translate(-262.164 -424.307)" fill="#f1f3f4" fill-rule="evenodd"/>
        <path id="Path_22554" data-name="Path 22554" d="M336.675,428.154c0,1.111-16.579,2.012-37.03,2.012s-37.029-.9-37.029-2.012,16.579-2.012,37.029-2.012S336.675,427.044,336.675,428.154Z" transform="translate(-262.18 -424.308)" fill="#f1f3f4" fill-rule="evenodd"/>
        <path id="Path_22555" data-name="Path 22555" d="M336.538,428.155c0,1.107-16.51,2-36.877,2s-36.876-.9-36.876-2,16.51-2.005,36.876-2.005S336.538,427.048,336.538,428.155Z" transform="translate(-262.196 -424.309)" fill="#f1f3f4" fill-rule="evenodd"/>
        <path id="Path_22556" data-name="Path 22556" d="M336.4,428.156c0,1.1-16.442,2-36.723,2s-36.723-.893-36.723-2,16.442-2,36.723-2S336.4,427.054,336.4,428.156Z" transform="translate(-262.212 -424.31)" fill="#f1f3f4" fill-rule="evenodd"/>
        <path id="Path_22557" data-name="Path 22557" d="M336.264,428.157c0,1.1-16.374,1.988-36.57,1.988s-36.569-.891-36.569-1.988,16.373-1.988,36.569-1.988S336.264,427.06,336.264,428.157Z" transform="translate(-262.228 -424.311)" fill="#f1f3f4" fill-rule="evenodd"/>
        <path id="Path_22558" data-name="Path 22558" d="M336.126,428.158c0,1.092-16.3,1.98-36.416,1.98s-36.416-.888-36.416-1.98,16.3-1.979,36.416-1.979S336.126,427.065,336.126,428.158Z" transform="translate(-262.244 -424.312)" fill="#f1f1f3" fill-rule="evenodd"/>
        <path id="Path_22559" data-name="Path 22559" d="M335.988,428.159c0,1.089-16.236,1.971-36.263,1.971s-36.263-.882-36.263-1.971,16.236-1.97,36.263-1.97S335.988,427.07,335.988,428.159Z" transform="translate(-262.26 -424.313)" fill="#f1f1f3" fill-rule="evenodd"/>
        <path id="Path_22560" data-name="Path 22560" d="M335.851,428.16c0,1.085-16.167,1.963-36.11,1.963s-36.11-.879-36.11-1.963,16.167-1.962,36.11-1.962S335.851,427.076,335.851,428.16Z" transform="translate(-262.276 -424.313)" fill="#f1f1f3" fill-rule="evenodd"/>
        <path id="Path_22561" data-name="Path 22561" d="M335.714,428.16c0,1.079-16.1,1.954-35.957,1.954S263.8,429.24,263.8,428.16s16.1-1.953,35.956-1.953S335.714,427.082,335.714,428.16Z" transform="translate(-262.291 -424.314)" fill="#f1f1f3" fill-rule="evenodd"/>
        <path id="Path_22562" data-name="Path 22562" d="M335.576,428.161c0,1.075-16.029,1.946-35.8,1.946s-35.8-.872-35.8-1.946,16.029-1.945,35.8-1.945S335.576,427.087,335.576,428.161Z" transform="translate(-262.307 -424.315)" fill="#eff0f3" fill-rule="evenodd"/>
        <path id="Path_22563" data-name="Path 22563" d="M335.438,428.162c0,1.07-15.961,1.937-35.65,1.937s-35.65-.867-35.65-1.937,15.962-1.937,35.65-1.937S335.438,427.092,335.438,428.162Z" transform="translate(-262.323 -424.316)" fill="#eff0f3" fill-rule="evenodd"/>
        <path id="Path_22564" data-name="Path 22564" d="M335.3,428.163c0,1.066-15.894,1.929-35.5,1.929s-35.5-.863-35.5-1.929,15.893-1.93,35.5-1.93S335.3,427.1,335.3,428.163Z" transform="translate(-262.339 -424.317)" fill="#efeeef" fill-rule="evenodd"/>
        <path id="Path_22565" data-name="Path 22565" d="M335.163,428.164c0,1.06-15.823,1.92-35.343,1.92s-35.343-.859-35.343-1.92,15.824-1.921,35.343-1.921S335.163,427.1,335.163,428.164Z" transform="translate(-262.355 -424.318)" fill="#efeeef" fill-rule="evenodd"/>
        <path id="Path_22566" data-name="Path 22566" d="M335.027,428.165c0,1.056-15.756,1.913-35.19,1.913s-35.19-.857-35.19-1.913,15.756-1.913,35.19-1.913S335.027,427.108,335.027,428.165Z" transform="translate(-262.371 -424.318)" fill="#efeeef" fill-rule="evenodd"/>
        <path id="Path_22567" data-name="Path 22567" d="M334.889,428.166c0,1.051-15.685,1.9-35.036,1.9s-35.037-.854-35.037-1.9,15.687-1.9,35.037-1.9S334.889,427.114,334.889,428.166Z" transform="translate(-262.387 -424.319)" fill="#ecedef" fill-rule="evenodd"/>
        <path id="Path_22568" data-name="Path 22568" d="M334.75,428.167c0,1.047-15.616,1.9-34.882,1.9s-34.883-.848-34.883-1.9,15.617-1.9,34.883-1.9S334.75,427.121,334.75,428.167Z" transform="translate(-262.403 -424.32)" fill="#ecedef" fill-rule="evenodd"/>
        <path id="Path_22569" data-name="Path 22569" d="M334.614,428.167c0,1.042-15.55,1.886-34.73,1.886s-34.73-.844-34.73-1.886,15.549-1.886,34.73-1.886S334.614,427.125,334.614,428.167Z" transform="translate(-262.419 -424.321)" fill="#ecedef" fill-rule="evenodd"/>
        <path id="Path_22570" data-name="Path 22570" d="M334.476,428.168c0,1.037-15.479,1.88-34.576,1.88s-34.577-.843-34.577-1.88,15.48-1.879,34.577-1.879S334.476,427.131,334.476,428.168Z" transform="translate(-262.434 -424.322)" fill="#ecedef" fill-rule="evenodd"/>
        <path id="Path_22571" data-name="Path 22571" d="M334.34,428.169c0,1.034-15.412,1.871-34.424,1.871s-34.424-.837-34.424-1.871,15.412-1.87,34.424-1.87S334.34,427.135,334.34,428.169Z" transform="translate(-262.45 -424.323)" fill="#eaeaec" fill-rule="evenodd"/>
        <path id="Path_22572" data-name="Path 22572" d="M334.2,428.17c0,1.028-15.343,1.862-34.271,1.862s-34.27-.834-34.27-1.862,15.343-1.862,34.27-1.862S334.2,427.142,334.2,428.17Z" transform="translate(-262.466 -424.324)" fill="#eaeaec" fill-rule="evenodd"/>
        <path id="Path_22573" data-name="Path 22573" d="M334.065,428.171c0,1.023-15.276,1.853-34.118,1.853s-34.117-.83-34.117-1.853,15.275-1.854,34.117-1.854S334.065,427.147,334.065,428.171Z" transform="translate(-262.482 -424.325)" fill="#eaeaec" fill-rule="evenodd"/>
        <path id="Path_22574" data-name="Path 22574" d="M333.928,428.172c0,1.019-15.207,1.845-33.964,1.845S266,429.191,266,428.172s15.206-1.846,33.964-1.846S333.927,427.151,333.928,428.172Z" transform="translate(-262.498 -424.325)" fill="#eaeaec" fill-rule="evenodd"/>
        <path id="Path_22575" data-name="Path 22575" d="M333.791,428.173c0,1.015-15.138,1.838-33.811,1.838s-33.81-.823-33.81-1.838,15.137-1.838,33.81-1.838S333.791,427.158,333.791,428.173Z" transform="translate(-262.514 -424.326)" fill="#eaeaec" fill-rule="evenodd"/>
        <path id="Path_22576" data-name="Path 22576" d="M333.653,428.173c0,1.01-15.07,1.829-33.658,1.829s-33.657-.819-33.657-1.829,15.069-1.829,33.657-1.829S333.653,427.164,333.653,428.173Z" transform="translate(-262.53 -424.327)" fill="#e7e9ec" fill-rule="evenodd"/>
        <path id="Path_22577" data-name="Path 22577" d="M333.514,428.174c0,1.007-15,1.821-33.5,1.821s-33.5-.815-33.5-1.821,15-1.821,33.5-1.821S333.514,427.168,333.514,428.174Z" transform="translate(-262.546 -424.328)" fill="#e7e9ec" fill-rule="evenodd"/>
        <ellipse id="Ellipse_353" data-name="Ellipse 353" cx="33.351" cy="1.812" rx="33.351" ry="1.812" transform="translate(4.115 2.034)" fill="#e7e9ec"/>
        <path id="Path_22578" data-name="Path 22578" d="M333.24,428.176c0,1-14.862,1.8-33.2,1.8s-33.2-.808-33.2-1.8,14.862-1.8,33.2-1.8S333.24,427.181,333.24,428.176Z" transform="translate(-262.577 -424.33)" fill="#e4e6ea" fill-rule="evenodd"/>
        <path id="Path_22579" data-name="Path 22579" d="M333.1,428.177c0,.992-14.794,1.8-33.044,1.8s-33.044-.8-33.044-1.8,14.794-1.795,33.044-1.795S333.1,427.187,333.1,428.177Z" transform="translate(-262.593 -424.331)" fill="#e5e6e9" fill-rule="evenodd"/>
        <path id="Path_22580" data-name="Path 22580" d="M332.965,428.178c0,.987-14.726,1.788-32.891,1.788s-32.891-.8-32.891-1.788,14.726-1.788,32.891-1.788S332.965,427.19,332.965,428.178Z" transform="translate(-262.609 -424.331)" fill="#e5e6e9" fill-rule="evenodd"/>
        <path id="Path_22581" data-name="Path 22581" d="M332.827,428.179c0,.982-14.657,1.778-32.737,1.778s-32.738-.8-32.738-1.778S282.01,426.4,300.09,426.4,332.827,427.2,332.827,428.179Z" transform="translate(-262.625 -424.332)" fill="#e5e6e9" fill-rule="evenodd"/>
        <path id="Path_22582" data-name="Path 22582" d="M332.691,428.179c0,.979-14.588,1.77-32.584,1.77s-32.584-.791-32.584-1.77,14.589-1.77,32.584-1.77S332.69,427.2,332.691,428.179Z" transform="translate(-262.641 -424.333)" fill="#e2e3e7" fill-rule="evenodd"/>
        <path id="Path_22583" data-name="Path 22583" d="M332.553,428.18c0,.974-14.519,1.762-32.43,1.762s-32.431-.788-32.431-1.762,14.52-1.762,32.431-1.762S332.553,427.207,332.553,428.18Z" transform="translate(-262.657 -424.334)" fill="#e2e3e7" fill-rule="evenodd"/>
        <path id="Path_22584" data-name="Path 22584" d="M332.415,428.181c0,.969-14.45,1.754-32.277,1.754s-32.278-.786-32.278-1.754,14.452-1.754,32.278-1.754S332.415,427.213,332.415,428.181Z" transform="translate(-262.673 -424.335)" fill="#dfe2e7" fill-rule="evenodd"/>
        <path id="Path_22585" data-name="Path 22585" d="M332.278,428.182c0,.965-14.383,1.746-32.124,1.746s-32.124-.781-32.124-1.746,14.382-1.746,32.124-1.746S332.278,427.217,332.278,428.182Z" transform="translate(-262.689 -424.336)" fill="#dfe2e7" fill-rule="evenodd"/>
        <path id="Path_22586" data-name="Path 22586" d="M332.141,428.183c0,.96-14.313,1.737-31.971,1.737s-31.972-.777-31.972-1.737,14.315-1.738,31.972-1.738S332.141,427.224,332.141,428.183Z" transform="translate(-262.704 -424.337)" fill="#dfe2e7" fill-rule="evenodd"/>
        <ellipse id="Ellipse_354" data-name="Ellipse 354" cx="31.818" cy="1.729" rx="31.818" ry="1.729" transform="translate(5.648 2.118)" fill="#e0e2e5"/>
        <path id="Path_22587" data-name="Path 22587" d="M331.866,428.185c0,.95-14.176,1.722-31.664,1.722s-31.664-.772-31.664-1.722,14.177-1.721,31.664-1.721S331.866,427.235,331.866,428.185Z" transform="translate(-262.736 -424.338)" fill="#dfe0e4" fill-rule="evenodd"/>
        <path id="Path_22588" data-name="Path 22588" d="M331.729,428.185c0,.946-14.109,1.713-31.512,1.713s-31.512-.767-31.512-1.713,14.109-1.712,31.512-1.712S331.729,427.24,331.729,428.185Z" transform="translate(-262.752 -424.339)" fill="#dde0e4" fill-rule="evenodd"/>
        <path id="Path_22589" data-name="Path 22589" d="M331.592,428.186c0,.941-14.04,1.705-31.358,1.705s-31.359-.764-31.359-1.705,14.041-1.7,31.359-1.7S331.592,427.245,331.592,428.186Z" transform="translate(-262.768 -424.34)" fill="#dde0e4" fill-rule="evenodd"/>
        <path id="Path_22590" data-name="Path 22590" d="M331.454,428.187c0,.936-13.971,1.7-31.2,1.7s-31.2-.76-31.2-1.7,13.971-1.7,31.2-1.7S331.454,427.251,331.454,428.187Z" transform="translate(-262.784 -424.341)" fill="#dde0e4" fill-rule="evenodd"/>
        <path id="Path_22591" data-name="Path 22591" d="M331.317,428.188c0,.932-13.9,1.688-31.051,1.688s-31.051-.756-31.051-1.688,13.9-1.687,31.051-1.687S331.317,427.256,331.317,428.188Z" transform="translate(-262.8 -424.342)" fill="#dbdde1" fill-rule="evenodd"/>
        <path id="Path_22592" data-name="Path 22592" d="M331.18,428.189c0,.928-13.836,1.679-30.9,1.679s-30.9-.751-30.9-1.679,13.833-1.679,30.9-1.679S331.18,427.261,331.18,428.189Z" transform="translate(-262.816 -424.343)" fill="#dbdde1" fill-rule="evenodd"/>
        <path id="Path_22593" data-name="Path 22593" d="M331.042,428.19c0,.922-13.764,1.671-30.745,1.671s-30.745-.748-30.745-1.671,13.765-1.67,30.745-1.67S331.042,427.268,331.042,428.19Z" transform="translate(-262.832 -424.344)" fill="#d7dade" fill-rule="evenodd"/>
        <path id="Path_22594" data-name="Path 22594" d="M330.9,428.191c0,.919-13.7,1.662-30.591,1.662s-30.591-.743-30.591-1.662,13.7-1.663,30.591-1.663S330.9,427.273,330.9,428.191Z" transform="translate(-262.848 -424.344)" fill="#d5d9de" fill-rule="evenodd"/>
        <path id="Path_22595" data-name="Path 22595" d="M330.768,428.191c0,.913-13.627,1.655-30.439,1.655s-30.438-.741-30.438-1.655,13.627-1.655,30.438-1.655S330.768,427.278,330.768,428.191Z" transform="translate(-262.863 -424.345)" fill="#d5d7dd" fill-rule="evenodd"/>
        <path id="Path_22596" data-name="Path 22596" d="M330.63,428.192c0,.909-13.559,1.646-30.285,1.646s-30.285-.738-30.285-1.646,13.559-1.646,30.285-1.646S330.63,427.284,330.63,428.192Z" transform="translate(-262.879 -424.346)" fill="#d2d6db" fill-rule="evenodd"/>
        <ellipse id="Ellipse_355" data-name="Ellipse 355" cx="30.132" cy="1.638" rx="30.132" ry="1.638" transform="translate(7.334 2.209)" fill="#d2d6db"/>
        <path id="Path_22597" data-name="Path 22597" d="M330.355,428.194c0,.9-13.422,1.63-29.979,1.63s-29.979-.73-29.979-1.63,13.422-1.629,29.979-1.629S330.355,427.294,330.355,428.194Z" transform="translate(-262.911 -424.348)" fill="#d2d4da" fill-rule="evenodd"/>
        <path id="Path_22598" data-name="Path 22598" d="M330.218,428.195c0,.9-13.354,1.621-29.825,1.621s-29.825-.726-29.825-1.621,13.354-1.621,29.825-1.621S330.218,427.3,330.218,428.195Z" transform="translate(-262.927 -424.349)" fill="#d0d3da" fill-rule="evenodd"/>
        <path id="Path_22599" data-name="Path 22599" d="M330.08,428.2c0,.892-13.284,1.613-29.671,1.613s-29.672-.721-29.672-1.613,13.285-1.612,29.672-1.612S330.08,427.305,330.08,428.2Z" transform="translate(-262.943 -424.35)" fill="#d0d3da" fill-rule="evenodd"/>
        <path id="Path_22600" data-name="Path 22600" d="M329.943,428.2c0,.886-13.216,1.6-29.519,1.6s-29.518-.719-29.518-1.6,13.216-1.6,29.518-1.6S329.943,427.311,329.943,428.2Z" transform="translate(-262.959 -424.35)" fill="#d0d3d8" fill-rule="evenodd"/>
        <path id="Path_22601" data-name="Path 22601" d="M329.806,428.2c0,.882-13.148,1.595-29.366,1.595s-29.365-.713-29.365-1.595,13.147-1.595,29.365-1.595S329.806,427.317,329.806,428.2Z" transform="translate(-262.975 -424.351)" fill="#d0d3d8" fill-rule="evenodd"/>
        <path id="Path_22602" data-name="Path 22602" d="M329.668,428.2c0,.877-13.079,1.587-29.212,1.587s-29.212-.71-29.212-1.587,13.078-1.587,29.212-1.587S329.668,427.321,329.668,428.2Z" transform="translate(-262.991 -424.352)" fill="#ced1d7" fill-rule="evenodd"/>
        <path id="Path_22603" data-name="Path 22603" d="M329.532,428.2c0,.872-13.011,1.579-29.06,1.579s-29.059-.708-29.059-1.579,13.01-1.579,29.059-1.579S329.532,427.328,329.532,428.2Z" transform="translate(-263.006 -424.353)" fill="#ced1d7" fill-rule="evenodd"/>
        <path id="Path_22604" data-name="Path 22604" d="M329.393,428.2c0,.867-12.942,1.571-28.906,1.571s-28.906-.7-28.906-1.571,12.942-1.571,28.906-1.571S329.393,427.333,329.393,428.2Z" transform="translate(-263.022 -424.354)" fill="#cbd0d5" fill-rule="evenodd"/>
        <path id="Path_22605" data-name="Path 22605" d="M329.256,428.2c0,.863-12.873,1.563-28.753,1.563s-28.753-.7-28.753-1.563,12.873-1.563,28.753-1.563S329.256,427.337,329.256,428.2Z" transform="translate(-263.038 -424.355)" fill="#ccced4" fill-rule="evenodd"/>
        <path id="Path_22606" data-name="Path 22606" d="M329.119,428.2c0,.859-12.8,1.554-28.6,1.554s-28.6-.695-28.6-1.554,12.8-1.554,28.6-1.554S329.119,427.344,329.119,428.2Z" transform="translate(-263.054 -424.356)" fill="#ccced4" fill-rule="evenodd"/>
        <path id="Path_22607" data-name="Path 22607" d="M328.981,428.2c0,.854-12.735,1.546-28.445,1.546s-28.445-.691-28.445-1.546,12.735-1.546,28.445-1.546S328.981,427.349,328.981,428.2Z" transform="translate(-263.07 -424.356)" fill="#c9cdd4" fill-rule="evenodd"/>
        <path id="Path_22608" data-name="Path 22608" d="M328.844,428.2c0,.85-12.667,1.539-28.292,1.539s-28.292-.689-28.292-1.539,12.666-1.538,28.292-1.538S328.844,427.356,328.844,428.2Z" transform="translate(-263.086 -424.357)" fill="#c9cdd2" fill-rule="evenodd"/>
        <path id="Path_22609" data-name="Path 22609" d="M328.706,428.2c0,.844-12.6,1.529-28.139,1.529s-28.139-.685-28.139-1.529,12.6-1.529,28.139-1.529S328.706,427.36,328.706,428.2Z" transform="translate(-263.102 -424.358)" fill="#c5c9cf" fill-rule="evenodd"/>
        <path id="Path_22610" data-name="Path 22610" d="M328.569,428.205c0,.84-12.529,1.522-27.986,1.522s-27.986-.682-27.986-1.522,12.529-1.52,27.986-1.52S328.569,427.365,328.569,428.205Z" transform="translate(-263.118 -424.359)" fill="#c5c9cf" fill-rule="evenodd"/>
        <path id="Path_22611" data-name="Path 22611" d="M328.431,428.206c0,.835-12.461,1.512-27.832,1.512s-27.833-.676-27.833-1.512,12.461-1.512,27.833-1.512S328.431,427.371,328.431,428.206Z" transform="translate(-263.133 -424.36)" fill="#c5c9cf" fill-rule="evenodd"/>
        <path id="Path_22612" data-name="Path 22612" d="M328.295,428.207c0,.831-12.393,1.5-27.68,1.5s-27.68-.673-27.68-1.5,12.392-1.5,27.68-1.5S328.295,427.376,328.295,428.207Z" transform="translate(-263.149 -424.361)" fill="#c3c6cc" fill-rule="evenodd"/>
        <path id="Path_22613" data-name="Path 22613" d="M328.157,428.208c0,.825-12.325,1.5-27.527,1.5s-27.527-.671-27.527-1.5,12.324-1.5,27.527-1.5S328.157,427.382,328.157,428.208Z" transform="translate(-263.165 -424.362)" fill="#c3c6cc" fill-rule="evenodd"/>
        <path id="Path_22614" data-name="Path 22614" d="M328.018,428.209c0,.823-12.254,1.488-27.372,1.488s-27.373-.665-27.373-1.488,12.255-1.488,27.373-1.488S328.018,427.388,328.018,428.209Z" transform="translate(-263.181 -424.362)" fill="#c0c5cc" fill-rule="evenodd"/>
        <path id="Path_22615" data-name="Path 22615" d="M327.882,428.21c0,.818-12.187,1.479-27.22,1.479s-27.22-.661-27.22-1.479,12.187-1.479,27.22-1.479S327.882,427.392,327.882,428.21Z" transform="translate(-263.197 -424.363)" fill="#c0c4cb" fill-rule="evenodd"/>
        <path id="Path_22616" data-name="Path 22616" d="M327.745,428.21c0,.812-12.118,1.471-27.066,1.471s-27.066-.659-27.066-1.471,12.118-1.471,27.066-1.471S327.744,427.4,327.745,428.21Z" transform="translate(-263.213 -424.364)" fill="#bec3c9" fill-rule="evenodd"/>
        <path id="Path_22617" data-name="Path 22617" d="M327.607,428.211c0,.807-12.048,1.463-26.912,1.463s-26.913-.656-26.913-1.463,12.05-1.462,26.913-1.462S327.607,427.4,327.607,428.211Z" transform="translate(-263.229 -424.365)" fill="#bec3c9" fill-rule="evenodd"/>
        <path id="Path_22618" data-name="Path 22618" d="M327.47,428.212c0,.8-11.981,1.455-26.76,1.455s-26.76-.651-26.76-1.455,11.981-1.452,26.76-1.452S327.47,427.409,327.47,428.212Z" transform="translate(-263.245 -424.366)" fill="#bcc2c9" fill-rule="evenodd"/>
        <path id="Path_22619" data-name="Path 22619" d="M327.333,428.213c0,.8-11.913,1.447-26.607,1.447s-26.607-.649-26.607-1.447,11.913-1.445,26.607-1.445S327.333,427.415,327.333,428.213Z" transform="translate(-263.261 -424.367)" fill="#bcc0c8" fill-rule="evenodd"/>
        <path id="Path_22620" data-name="Path 22620" d="M327.2,428.214c0,.793-11.844,1.437-26.454,1.437s-26.453-.644-26.453-1.437,11.843-1.437,26.453-1.437S327.2,427.42,327.2,428.214Z" transform="translate(-263.277 -424.368)" fill="#bcc0c7" fill-rule="evenodd"/>
        <path id="Path_22621" data-name="Path 22621" d="M327.059,428.215c0,.789-11.776,1.429-26.3,1.429s-26.3-.64-26.3-1.429,11.775-1.43,26.3-1.43S327.059,427.425,327.059,428.215Z" transform="translate(-263.292 -424.368)" fill="#babec6" fill-rule="evenodd"/>
        <path id="Path_22622" data-name="Path 22622" d="M326.921,428.216c0,.786-11.706,1.422-26.147,1.422s-26.147-.636-26.147-1.422,11.706-1.421,26.147-1.421S326.921,427.431,326.921,428.216Z" transform="translate(-263.308 -424.369)" fill="#babec6" fill-rule="evenodd"/>
        <path id="Path_22623" data-name="Path 22623" d="M326.783,428.217c0,.78-11.638,1.412-25.994,1.412S274.8,429,274.8,428.217s11.638-1.412,25.994-1.412S326.783,427.437,326.783,428.217Z" transform="translate(-263.324 -424.37)" fill="#b8bcc3" fill-rule="evenodd"/>
        <path id="Path_22624" data-name="Path 22624" d="M326.646,428.217c0,.776-11.571,1.4-25.84,1.4s-25.841-.628-25.841-1.4,11.569-1.4,25.841-1.4S326.646,427.442,326.646,428.217Z" transform="translate(-263.34 -424.371)" fill="#b6bbc2" fill-rule="evenodd"/>
        <path id="Path_22625" data-name="Path 22625" d="M326.509,428.218c0,.771-11.5,1.4-25.687,1.4s-25.686-.624-25.686-1.4,11.5-1.4,25.686-1.4S326.509,427.447,326.509,428.218Z" transform="translate(-263.356 -424.372)" fill="#b4b9c1" fill-rule="evenodd"/>
        <path id="Path_22626" data-name="Path 22626" d="M326.371,428.219c0,.767-11.432,1.388-25.533,1.388s-25.533-.622-25.533-1.388,11.431-1.388,25.533-1.388S326.371,427.453,326.371,428.219Z" transform="translate(-263.372 -424.373)" fill="#b4b9c0" fill-rule="evenodd"/>
        <path id="Path_22627" data-name="Path 22627" d="M326.233,428.22c0,.761-11.362,1.38-25.38,1.38s-25.38-.619-25.38-1.38,11.363-1.38,25.38-1.38S326.233,427.459,326.233,428.22Z" transform="translate(-263.388 -424.374)" fill="#b4b7bf" fill-rule="evenodd"/>
        <path id="Path_22628" data-name="Path 22628" d="M326.1,428.221c0,.757-11.3,1.371-25.228,1.371s-25.227-.614-25.227-1.371,11.294-1.371,25.227-1.371S326.1,427.463,326.1,428.221Z" transform="translate(-263.404 -424.375)" fill="#b0b5bd" fill-rule="evenodd"/>
        <path id="Path_22629" data-name="Path 22629" d="M325.958,428.222c0,.752-11.225,1.363-25.073,1.363s-25.074-.611-25.074-1.363,11.226-1.363,25.074-1.363S325.958,427.469,325.958,428.222Z" transform="translate(-263.419 -424.375)" fill="#aeb5bd" fill-rule="evenodd"/>
        <path id="Path_22630" data-name="Path 22630" d="M325.821,428.223c0,.749-11.157,1.355-24.92,1.355s-24.921-.605-24.921-1.355,11.157-1.354,24.921-1.354S325.821,427.476,325.821,428.223Z" transform="translate(-263.435 -424.376)" fill="#aeb5bc" fill-rule="evenodd"/>
        <path id="Path_22631" data-name="Path 22631" d="M325.684,428.224c0,.744-11.089,1.346-24.768,1.346s-24.768-.6-24.768-1.346,11.09-1.346,24.768-1.346S325.684,427.481,325.684,428.224Z" transform="translate(-263.451 -424.377)" fill="#acb2bb" fill-rule="evenodd"/>
        <path id="Path_22632" data-name="Path 22632" d="M325.546,428.224c0,.738-11.02,1.339-24.614,1.339s-24.615-.6-24.615-1.339,11.021-1.336,24.615-1.336S325.546,427.486,325.546,428.224Z" transform="translate(-263.467 -424.378)" fill="#acb2b9" fill-rule="evenodd"/>
        <path id="Path_22633" data-name="Path 22633" d="M325.409,428.225c0,.735-10.951,1.329-24.461,1.329s-24.461-.594-24.461-1.329,10.952-1.328,24.461-1.328S325.409,427.491,325.409,428.225Z" transform="translate(-263.483 -424.379)" fill="#aab0b8" fill-rule="evenodd"/>
        <path id="Path_22634" data-name="Path 22634" d="M325.272,428.226c0,.73-10.884,1.32-24.307,1.32s-24.307-.59-24.307-1.32,10.883-1.321,24.307-1.321S325.272,427.5,325.272,428.226Z" transform="translate(-263.499 -424.38)" fill="#aab0b8" fill-rule="evenodd"/>
        <path id="Path_22635" data-name="Path 22635" d="M325.134,428.227c0,.724-10.813,1.313-24.153,1.313s-24.154-.589-24.154-1.313,10.815-1.313,24.154-1.313S325.134,427.5,325.134,428.227Z" transform="translate(-263.515 -424.381)" fill="#a9aeb5" fill-rule="evenodd"/>
        <path id="Path_22636" data-name="Path 22636" d="M325,428.228c0,.72-10.747,1.3-24,1.3s-24-.584-24-1.3,10.746-1.3,24-1.3S325,427.507,325,428.228Z" transform="translate(-263.531 -424.381)" fill="#a6acb4" fill-rule="evenodd"/>
        <path id="Path_22637" data-name="Path 22637" d="M324.86,428.229c0,.716-10.677,1.3-23.848,1.3s-23.847-.58-23.847-1.3,10.676-1.3,23.847-1.3S324.86,427.512,324.86,428.229Z" transform="translate(-263.547 -424.382)" fill="#a4acb4" fill-rule="evenodd"/>
        <path id="Path_22638" data-name="Path 22638" d="M324.723,428.229c0,.711-10.608,1.288-23.695,1.288s-23.695-.576-23.695-1.288,10.608-1.288,23.695-1.288S324.723,427.519,324.723,428.229Z" transform="translate(-263.562 -424.383)" fill="#a4aab2" fill-rule="evenodd"/>
        <path id="Path_22639" data-name="Path 22639" d="M324.585,428.23c0,.707-10.54,1.279-23.541,1.279s-23.541-.572-23.541-1.279,10.54-1.279,23.541-1.279S324.585,427.525,324.585,428.23Z" transform="translate(-263.578 -424.384)" fill="#a4aab2" fill-rule="evenodd"/>
        <path id="Path_22640" data-name="Path 22640" d="M324.448,428.231c0,.7-10.472,1.272-23.389,1.272s-23.388-.57-23.388-1.272,10.471-1.272,23.388-1.272S324.448,427.529,324.448,428.231Z" transform="translate(-263.594 -424.385)" fill="#a1a8b1" fill-rule="evenodd"/>
        <path id="Path_22641" data-name="Path 22641" d="M324.31,428.232c0,.7-10.4,1.264-23.235,1.264s-23.234-.566-23.234-1.264,10.4-1.261,23.234-1.261S324.31,427.535,324.31,428.232Z" transform="translate(-263.61 -424.386)" fill="#9fa6ae" fill-rule="evenodd"/>
        <path id="Path_22642" data-name="Path 22642" d="M324.172,428.233c0,.693-10.333,1.254-23.081,1.254s-23.081-.561-23.081-1.254,10.333-1.253,23.081-1.253S324.172,427.54,324.172,428.233Z" transform="translate(-263.626 -424.387)" fill="#9fa6ae" fill-rule="evenodd"/>
        <path id="Path_22643" data-name="Path 22643" d="M324.036,428.234c0,.688-10.266,1.246-22.928,1.246s-22.928-.558-22.928-1.246,10.266-1.247,22.928-1.247S324.036,427.546,324.036,428.234Z" transform="translate(-263.642 -424.387)" fill="#9ea5ab" fill-rule="evenodd"/>
        <path id="Path_22644" data-name="Path 22644" d="M323.9,428.235c0,.683-10.2,1.238-22.776,1.238s-22.774-.555-22.774-1.238S288.545,427,301.123,427,323.9,427.551,323.9,428.235Z" transform="translate(-263.658 -424.388)" fill="#9ca2ab" fill-rule="evenodd"/>
        <path id="Path_22645" data-name="Path 22645" d="M323.76,428.236c0,.68-10.128,1.23-22.621,1.23s-22.621-.551-22.621-1.23,10.128-1.229,22.621-1.229S323.76,427.555,323.76,428.236Z" transform="translate(-263.674 -424.389)" fill="#9ca2a9" fill-rule="evenodd"/>
        <path id="Path_22646" data-name="Path 22646" d="M323.623,428.236c0,.673-10.059,1.22-22.468,1.22s-22.468-.547-22.468-1.22,10.059-1.22,22.468-1.22S323.623,427.562,323.623,428.236Z" transform="translate(-263.69 -424.39)" fill="#9aa0a8" fill-rule="evenodd"/>
        <path id="Path_22647" data-name="Path 22647" d="M323.486,428.237c0,.67-9.991,1.212-22.315,1.212s-22.315-.543-22.315-1.212,9.99-1.213,22.315-1.213S323.486,427.568,323.486,428.237Z" transform="translate(-263.705 -424.391)" fill="#999fa7" fill-rule="evenodd"/>
        <path id="Path_22648" data-name="Path 22648" d="M323.348,428.238c0,.666-9.922,1.2-22.161,1.2s-22.162-.538-22.162-1.2,9.923-1.205,22.162-1.205S323.348,427.573,323.348,428.238Z" transform="translate(-263.721 -424.392)" fill="#979ea6" fill-rule="evenodd"/>
        <path id="Path_22649" data-name="Path 22649" d="M323.211,428.239c0,.661-9.855,1.2-22.009,1.2s-22.009-.536-22.009-1.2,9.854-1.2,22.009-1.2S323.211,427.579,323.211,428.239Z" transform="translate(-263.737 -424.393)" fill="#969ca3" fill-rule="evenodd"/>
        <path id="Path_22650" data-name="Path 22650" d="M323.073,428.24c0,.656-9.784,1.189-21.855,1.189s-21.855-.533-21.855-1.189,9.785-1.187,21.855-1.187S323.073,427.584,323.073,428.24Z" transform="translate(-263.753 -424.394)" fill="#949ba3" fill-rule="evenodd"/>
        <path id="Path_22651" data-name="Path 22651" d="M322.936,428.241c0,.651-9.716,1.18-21.7,1.18s-21.7-.529-21.7-1.18,9.716-1.18,21.7-1.18S322.936,427.59,322.936,428.241Z" transform="translate(-263.769 -424.394)" fill="#9299a1" fill-rule="evenodd"/>
        <path id="Path_22652" data-name="Path 22652" d="M322.8,428.242c0,.647-9.648,1.171-21.549,1.171s-21.548-.524-21.548-1.171,9.648-1.172,21.548-1.172S322.8,427.595,322.8,428.242Z" transform="translate(-263.785 -424.395)" fill="#9098a0" fill-rule="evenodd"/>
        <path id="Path_22653" data-name="Path 22653" d="M322.662,428.242c0,.642-9.58,1.163-21.4,1.163s-21.4-.52-21.4-1.163,9.579-1.163,21.4-1.163S322.662,427.6,322.662,428.242Z" transform="translate(-263.801 -424.396)" fill="#8f979e" fill-rule="evenodd"/>
        <path id="Path_22654" data-name="Path 22654" d="M322.524,428.243c0,.637-9.509,1.155-21.242,1.155s-21.242-.518-21.242-1.155,9.51-1.153,21.242-1.153S322.524,427.606,322.524,428.243Z" transform="translate(-263.817 -424.397)" fill="#8d959e" fill-rule="evenodd"/>
        <path id="Path_22655" data-name="Path 22655" d="M322.387,428.244c0,.633-9.441,1.145-21.089,1.145s-21.089-.512-21.089-1.145S289.65,427.1,301.3,427.1,322.387,427.611,322.387,428.244Z" transform="translate(-263.833 -424.398)" fill="#8c929a" fill-rule="evenodd"/>
        <path id="Path_22656" data-name="Path 22656" d="M322.251,428.245c0,.629-9.374,1.137-20.937,1.137s-20.936-.508-20.936-1.137,9.373-1.138,20.936-1.138S322.251,427.616,322.251,428.245Z" transform="translate(-263.848 -424.399)" fill="#8c929a" fill-rule="evenodd"/>
        <path id="Path_22657" data-name="Path 22657" d="M322.112,428.246c0,.623-9.3,1.129-20.782,1.129s-20.782-.506-20.782-1.129,9.3-1.13,20.782-1.13S322.112,427.623,322.112,428.246Z" transform="translate(-263.864 -424.4)" fill="#8b9198" fill-rule="evenodd"/>
        <path id="Path_22658" data-name="Path 22658" d="M321.974,428.247c0,.62-9.236,1.122-20.629,1.122s-20.629-.5-20.629-1.122,9.236-1.122,20.629-1.122S321.974,427.628,321.974,428.247Z" transform="translate(-263.88 -424.4)" fill="#878f96" fill-rule="evenodd"/>
        <path id="Path_22659" data-name="Path 22659" d="M321.837,428.248c0,.614-9.168,1.113-20.476,1.113s-20.476-.5-20.476-1.113,9.167-1.113,20.476-1.113S321.837,427.633,321.837,428.248Z" transform="translate(-263.896 -424.401)" fill="#868d94" fill-rule="evenodd"/>
        <path id="Path_22660" data-name="Path 22660" d="M321.7,428.249c0,.61-9.1,1.1-20.322,1.1s-20.322-.495-20.322-1.1,9.1-1.1,20.322-1.1S321.7,427.639,321.7,428.249Z" transform="translate(-263.912 -424.402)" fill="#858c93" fill-rule="evenodd"/>
        <path id="Path_22661" data-name="Path 22661" d="M321.563,428.249c0,.606-9.031,1.1-20.169,1.1s-20.169-.49-20.169-1.1,9.03-1.1,20.169-1.1S321.563,427.643,321.563,428.249Z" transform="translate(-263.928 -424.403)" fill="#828991" fill-rule="evenodd"/>
        <ellipse id="Ellipse_356" data-name="Ellipse 356" cx="20.016" cy="1.088" rx="20.016" ry="1.088" transform="translate(17.45 2.758)" fill="#828990"/>
        <path id="Path_22662" data-name="Path 22662" d="M321.288,428.251c0,.6-8.893,1.079-19.863,1.079s-19.862-.483-19.862-1.079,8.892-1.078,19.862-1.078S321.288,427.655,321.288,428.251Z" transform="translate(-263.96 -424.405)" fill="#80878f" fill-rule="evenodd"/>
        <path id="Path_22663" data-name="Path 22663" d="M321.15,428.252c0,.593-8.824,1.071-19.709,1.071s-19.709-.478-19.709-1.071,8.824-1.07,19.709-1.07S321.15,427.66,321.15,428.252Z" transform="translate(-263.976 -424.406)" fill="#7d868c" fill-rule="evenodd"/>
        <path id="Path_22664" data-name="Path 22664" d="M321.013,428.253c0,.587-8.755,1.063-19.556,1.063s-19.556-.476-19.556-1.063,8.755-1.063,19.556-1.063S321.013,427.667,321.013,428.253Z" transform="translate(-263.991 -424.406)" fill="#7d848c" fill-rule="evenodd"/>
        <path id="Path_22665" data-name="Path 22665" d="M320.875,428.254c0,.583-8.686,1.054-19.4,1.054s-19.4-.471-19.4-1.054,8.687-1.055,19.4-1.055S320.875,427.672,320.875,428.254Z" transform="translate(-264.007 -424.407)" fill="#7c8389" fill-rule="evenodd"/>
        <path id="Path_22666" data-name="Path 22666" d="M320.737,428.255c0,.578-8.617,1.047-19.249,1.047s-19.25-.468-19.25-1.047,8.618-1.046,19.25-1.046S320.737,427.677,320.737,428.255Z" transform="translate(-264.023 -424.408)" fill="#798087" fill-rule="evenodd"/>
        <path id="Path_22667" data-name="Path 22667" d="M320.6,428.255c0,.574-8.55,1.037-19.1,1.037s-19.1-.464-19.1-1.037,8.55-1.037,19.1-1.037S320.6,427.683,320.6,428.255Z" transform="translate(-264.039 -424.409)" fill="#767f85" fill-rule="evenodd"/>
        <path id="Path_22668" data-name="Path 22668" d="M320.463,428.256c0,.569-8.481,1.029-18.943,1.029s-18.943-.46-18.943-1.029,8.481-1.029,18.943-1.029S320.463,427.688,320.463,428.256Z" transform="translate(-264.055 -424.41)" fill="#757d83" fill-rule="evenodd"/>
        <path id="Path_22669" data-name="Path 22669" d="M320.326,428.257c0,.564-8.413,1.021-18.789,1.021s-18.789-.458-18.789-1.021,8.412-1.022,18.789-1.022S320.326,427.693,320.326,428.257Z" transform="translate(-264.071 -424.411)" fill="#747c81" fill-rule="evenodd"/>
        <path id="Path_22670" data-name="Path 22670" d="M320.189,428.258c0,.56-8.343,1.013-18.636,1.013s-18.636-.453-18.636-1.013,8.343-1.013,18.636-1.013S320.189,427.7,320.189,428.258Z" transform="translate(-264.087 -424.412)" fill="#71797e" fill-rule="evenodd"/>
        <path id="Path_22671" data-name="Path 22671" d="M320.051,428.259c0,.555-8.275,1.006-18.483,1.006s-18.483-.45-18.483-1.006,8.275-1,18.483-1S320.051,427.7,320.051,428.259Z" transform="translate(-264.103 -424.413)" fill="#71797e" fill-rule="evenodd"/>
        <path id="Path_22672" data-name="Path 22672" d="M319.914,428.26c0,.551-8.207,1-18.33,1s-18.33-.446-18.33-1,8.206-.995,18.33-.995S319.914,427.711,319.914,428.26Z" transform="translate(-264.118 -424.414)" fill="#6f777c" fill-rule="evenodd"/>
        <path id="Path_22673" data-name="Path 22673" d="M319.777,428.261c0,.545-8.138.988-18.177.988s-18.177-.442-18.177-.988,8.138-.988,18.177-.988S319.777,427.715,319.777,428.261Z" transform="translate(-264.134 -424.414)" fill="#6c7479" fill-rule="evenodd"/>
        <path id="Path_22674" data-name="Path 22674" d="M319.64,428.261c0,.541-8.07.979-18.024.979s-18.023-.439-18.023-.979,8.069-.979,18.023-.979S319.64,427.721,319.64,428.261Z" transform="translate(-264.15 -424.415)" fill="#697278" fill-rule="evenodd"/>
        <path id="Path_22675" data-name="Path 22675" d="M319.5,428.262c0,.536-8,.972-17.87.972s-17.871-.437-17.871-.972,8-.97,17.871-.97S319.5,427.727,319.5,428.262Z" transform="translate(-264.166 -424.416)" fill="#697176" fill-rule="evenodd"/>
        <path id="Path_22676" data-name="Path 22676" d="M319.365,428.263c0,.532-7.933.962-17.717.962s-17.717-.43-17.717-.962,7.932-.962,17.717-.962S319.365,427.731,319.365,428.263Z" transform="translate(-264.182 -424.417)" fill="#676f73" fill-rule="evenodd"/>
        <path id="Path_22677" data-name="Path 22677" d="M319.227,428.264c0,.526-7.864.954-17.563.954s-17.563-.428-17.563-.954,7.863-.954,17.563-.954S319.226,427.737,319.227,428.264Z" transform="translate(-264.198 -424.418)" fill="#646d72" fill-rule="evenodd"/>
        <path id="Path_22678" data-name="Path 22678" d="M319.089,428.265c0,.523-7.793.946-17.409.946s-17.41-.423-17.41-.946,7.8-.947,17.41-.947S319.089,427.743,319.089,428.265Z" transform="translate(-264.214 -424.419)" fill="#62696e" fill-rule="evenodd"/>
        <path id="Path_22679" data-name="Path 22679" d="M318.952,428.266c0,.519-7.726.938-17.257.938s-17.257-.419-17.257-.938,7.727-.939,17.257-.939S318.952,427.748,318.952,428.266Z" transform="translate(-264.23 -424.419)" fill="#62696e" fill-rule="evenodd"/>
        <path id="Path_22680" data-name="Path 22680" d="M318.814,428.267c0,.513-7.657.93-17.1.93s-17.1-.417-17.1-.93,7.658-.93,17.1-.93S318.814,427.754,318.814,428.267Z" transform="translate(-264.246 -424.42)" fill="#5f686c" fill-rule="evenodd"/>
        <path id="Path_22681" data-name="Path 22681" d="M318.677,428.268c0,.508-7.588.922-16.95.922s-16.95-.413-16.95-.922,7.588-.921,16.95-.921S318.677,427.759,318.677,428.268Z" transform="translate(-264.262 -424.421)" fill="#5c6468" fill-rule="evenodd"/>
        <path id="Path_22682" data-name="Path 22682" d="M318.54,428.268c0,.5-7.52.913-16.8.913s-16.8-.409-16.8-.913,7.52-.912,16.8-.912S318.54,427.765,318.54,428.268Z" transform="translate(-264.277 -424.422)" fill="#5b6266" fill-rule="evenodd"/>
        <path id="Path_22683" data-name="Path 22683" d="M318.4,428.269c0,.5-7.452.9-16.644.9s-16.644-.4-16.644-.9,7.452-.905,16.644-.905S318.4,427.771,318.4,428.269Z" transform="translate(-264.293 -424.423)" fill="#586064" fill-rule="evenodd"/>
        <path id="Path_22684" data-name="Path 22684" d="M318.265,428.27c0,.495-7.384.9-16.491.9s-16.491-.4-16.491-.9,7.384-.9,16.491-.9S318.265,427.775,318.265,428.27Z" transform="translate(-264.309 -424.424)" fill="#565e61" fill-rule="evenodd"/>
        <path id="Path_22685" data-name="Path 22685" d="M318.128,428.271c0,.49-7.315.888-16.338.888s-16.337-.4-16.337-.888,7.314-.887,16.337-.887S318.128,427.78,318.128,428.271Z" transform="translate(-264.325 -424.425)" fill="#555d60" fill-rule="evenodd"/>
        <path id="Path_22686" data-name="Path 22686" d="M317.99,428.272c0,.486-7.245.88-16.183.88s-16.184-.394-16.184-.88,7.246-.879,16.184-.879S317.99,427.786,317.99,428.272Z" transform="translate(-264.341 -424.426)" fill="#555d60" fill-rule="evenodd"/>
        <path id="Path_22687" data-name="Path 22687" d="M317.6,428.274c0,.473-7.051.857-15.748.857s-15.747-.384-15.747-.857,7.05-.855,15.747-.855S317.6,427.8,317.6,428.274Z" transform="translate(-264.386 -424.428)" fill="#525a5e" fill-rule="evenodd"/>
        <path id="Path_22688" data-name="Path 22688" d="M317.207,428.277c0,.459-6.855.832-15.31.832s-15.309-.372-15.309-.832,6.854-.833,15.309-.833S317.207,427.817,317.207,428.277Z" transform="translate(-264.432 -424.43)" fill="#51595d" fill-rule="evenodd"/>
        <path id="Path_22689" data-name="Path 22689" d="M316.815,428.279c0,.446-6.659.807-14.872.807s-14.871-.362-14.871-.807,6.658-.807,14.871-.807S316.815,427.834,316.815,428.279Z" transform="translate(-264.477 -424.433)" fill="#50585b" fill-rule="evenodd"/>
        <path id="Path_22690" data-name="Path 22690" d="M316.423,428.282c0,.433-6.463.786-14.435.786s-14.435-.352-14.435-.786,6.463-.785,14.435-.785S316.423,427.849,316.423,428.282Z" transform="translate(-264.522 -424.435)" fill="#50575b" fill-rule="evenodd"/>
        <path id="Path_22691" data-name="Path 22691" d="M316.031,428.284c0,.42-6.267.761-14,.761s-14-.342-14-.761,6.267-.761,14-.761S316.031,427.865,316.031,428.284Z" transform="translate(-264.568 -424.438)" fill="#4f5659" fill-rule="evenodd"/>
        <path id="Path_22692" data-name="Path 22692" d="M315.638,428.287c0,.407-6.071.738-13.559.738s-13.559-.331-13.559-.738,6.071-.737,13.559-.737S315.638,427.88,315.638,428.287Z" transform="translate(-264.613 -424.44)" fill="#4f5659" fill-rule="evenodd"/>
        <path id="Path_22693" data-name="Path 22693" d="M315.247,428.289c0,.4-5.876.713-13.123.713S289,428.684,289,428.289s5.874-.712,13.122-.712S315.247,427.9,315.247,428.289Z" transform="translate(-264.658 -424.443)" fill="#4d5457" fill-rule="evenodd"/>
        <path id="Path_22694" data-name="Path 22694" d="M314.854,428.292c0,.381-5.679.69-12.685.69s-12.685-.309-12.685-.69,5.679-.689,12.685-.689S314.854,427.91,314.854,428.292Z" transform="translate(-264.704 -424.445)" fill="#4c5356" fill-rule="evenodd"/>
        <path id="Path_22695" data-name="Path 22695" d="M314.462,428.294c0,.369-5.484.666-12.247.666s-12.247-.3-12.247-.666,5.484-.665,12.247-.665S314.462,427.925,314.462,428.294Z" transform="translate(-264.749 -424.448)" fill="#4c5355" fill-rule="evenodd"/>
        <ellipse id="Ellipse_357" data-name="Ellipse 357" cx="11.81" cy="0.642" rx="11.81" ry="0.642" transform="translate(25.656 3.205)" fill="#495154"/>
        <path id="Path_22696" data-name="Path 22696" d="M313.677,428.3c0,.342-5.091.619-11.372.619s-11.372-.277-11.372-.619,5.091-.619,11.372-.619S313.677,427.957,313.677,428.3Z" transform="translate(-264.84 -424.453)" fill="#4a5052" fill-rule="evenodd"/>
        <path id="Path_22697" data-name="Path 22697" d="M313.286,428.3c0,.329-4.9.594-10.935.594s-10.935-.265-10.935-.594,4.9-.594,10.935-.594S313.286,427.973,313.286,428.3Z" transform="translate(-264.885 -424.455)" fill="#474e51" fill-rule="evenodd"/>
        <path id="Path_22698" data-name="Path 22698" d="M312.894,428.3c0,.315-4.7.571-10.5.571s-10.5-.256-10.5-.571,4.7-.57,10.5-.57S312.894,427.99,312.894,428.3Z" transform="translate(-264.93 -424.458)" fill="#464d50" fill-rule="evenodd"/>
        <path id="Path_22699" data-name="Path 22699" d="M312.5,428.306c0,.3-4.505.547-10.061.547s-10.06-.245-10.06-.547,4.5-.546,10.06-.546S312.5,428,312.5,428.306Z" transform="translate(-264.976 -424.46)" fill="#474c4f" fill-rule="evenodd"/>
        <path id="Path_22700" data-name="Path 22700" d="M312.109,428.309c0,.289-4.307.523-9.623.523s-9.623-.234-9.623-.523,4.308-.524,9.623-.524S312.109,428.02,312.109,428.309Z" transform="translate(-265.021 -424.462)" fill="#464b4e" fill-rule="evenodd"/>
        <path id="Path_22701" data-name="Path 22701" d="M311.718,428.311c0,.275-4.113.5-9.186.5s-9.186-.225-9.186-.5,4.113-.5,9.186-.5S311.718,428.037,311.718,428.311Z" transform="translate(-265.066 -424.465)" fill="#45494c" fill-rule="evenodd"/>
        <path id="Path_22702" data-name="Path 22702" d="M311.325,428.314c0,.262-3.918.477-8.748.477s-8.748-.215-8.748-.477,3.916-.477,8.748-.477S311.325,428.051,311.325,428.314Z" transform="translate(-265.112 -424.467)" fill="#44484b" fill-rule="evenodd"/>
        <path id="Path_22703" data-name="Path 22703" d="M310.933,428.316c0,.25-3.72.451-8.311.451s-8.311-.2-8.311-.451,3.721-.452,8.311-.452S310.933,428.067,310.933,428.316Z" transform="translate(-265.157 -424.47)" fill="#42484a" fill-rule="evenodd"/>
        <path id="Path_22704" data-name="Path 22704" d="M310.542,428.319c0,.236-3.526.429-7.874.429s-7.873-.193-7.873-.429,3.525-.427,7.873-.427S310.542,428.083,310.542,428.319Z" transform="translate(-265.202 -424.472)" fill="#434749" fill-rule="evenodd"/>
        <path id="Path_22705" data-name="Path 22705" d="M310.148,428.321c0,.223-3.328.405-7.435.405s-7.436-.182-7.436-.405,3.33-.4,7.436-.4S310.148,428.1,310.148,428.321Z" transform="translate(-265.248 -424.475)" fill="#424547" fill-rule="evenodd"/>
        <path id="Path_22706" data-name="Path 22706" d="M309.757,428.323c0,.209-3.133.381-7,.381s-7-.171-7-.381,3.133-.381,7-.381S309.757,428.114,309.757,428.323Z" transform="translate(-265.293 -424.477)" fill="#404548" fill-rule="evenodd"/>
        <path id="Path_22707" data-name="Path 22707" d="M309.366,428.326c0,.2-2.938.356-6.562.356s-6.561-.159-6.561-.356,2.938-.356,6.561-.356S309.366,428.13,309.366,428.326Z" transform="translate(-265.338 -424.48)" fill="#3f4446" fill-rule="evenodd"/>
        <path id="Path_22708" data-name="Path 22708" d="M308.973,428.329c0,.184-2.741.333-6.123.333s-6.123-.149-6.123-.333,2.741-.332,6.123-.332S308.973,428.146,308.973,428.329Z" transform="translate(-265.384 -424.482)" fill="#3f4245" fill-rule="evenodd"/>
        <path id="Path_22709" data-name="Path 22709" d="M308.581,428.331c0,.171-2.545.309-5.687.309s-5.687-.138-5.687-.309,2.547-.309,5.687-.309S308.581,428.16,308.581,428.331Z" transform="translate(-265.429 -424.485)" fill="#3e4143" fill-rule="evenodd"/>
        <path id="Path_22710" data-name="Path 22710" d="M308.189,428.333a48.56,48.56,0,0,1-10.5,0,48.565,48.565,0,0,1,10.5,0Z" transform="translate(-265.474 -424.487)" fill="#3b4042" fill-rule="evenodd"/>
        <path id="Path_22711" data-name="Path 22711" d="M307.8,428.336a44.329,44.329,0,0,1-9.623,0,44.334,44.334,0,0,1,9.623,0Z" transform="translate(-265.52 -424.49)" fill="#3b4042" fill-rule="evenodd"/>
        <path id="Path_22712" data-name="Path 22712" d="M307.4,428.338a40.253,40.253,0,0,1-8.747,0,40.258,40.258,0,0,1,8.747,0Z" transform="translate(-265.565 -424.492)" fill="#3c3e40" fill-rule="evenodd"/>
        <path id="Path_22713" data-name="Path 22713" d="M307.013,428.341a36.34,36.34,0,0,1-7.873,0,36.345,36.345,0,0,1,7.873,0Z" transform="translate(-265.611 -424.495)" fill="#3b3d3f" fill-rule="evenodd"/>
        <path id="Path_22714" data-name="Path 22714" d="M306.621,428.343a32.118,32.118,0,0,1-7,0,32.123,32.123,0,0,1,7,0Z" transform="translate(-265.656 -424.497)" fill="#383d3e" fill-rule="evenodd"/>
        <path id="Path_22715" data-name="Path 22715" d="M306.228,428.346a28.2,28.2,0,0,1-6.123,0,28.351,28.351,0,0,1,6.123,0Z" transform="translate(-265.701 -424.5)" fill="#373b3c" fill-rule="evenodd"/>
        <path id="Path_22716" data-name="Path 22716" d="M305.836,428.348a23.968,23.968,0,0,1-5.248,0,24.274,24.274,0,0,1,5.248,0Z" transform="translate(-265.746 -424.502)" fill="#363a3b" fill-rule="evenodd"/>
        <path id="Path_22717" data-name="Path 22717" d="M305.445,428.351a20.215,20.215,0,0,1-4.375,0,20.061,20.061,0,0,1,4.375,0Z" transform="translate(-265.792 -424.504)" fill="#38393b" fill-rule="evenodd"/>
        <path id="Path_22718" data-name="Path 22718" d="M305.052,428.353a15.985,15.985,0,0,1-3.5,0,16.289,16.289,0,0,1,3.5,0Z" transform="translate(-265.837 -424.507)" fill="#373839" fill-rule="evenodd"/>
        <path id="Path_22719" data-name="Path 22719" d="M304.661,428.356a12.221,12.221,0,0,1-2.625,0,12.071,12.071,0,0,1,2.625,0Z" transform="translate(-265.883 -424.509)" fill="#343738" fill-rule="evenodd"/>
        <path id="Path_22720" data-name="Path 22720" d="M304.269,428.358a8,8,0,0,1-1.75,0,8.3,8.3,0,0,1,1.75,0Z" transform="translate(-265.928 -424.512)" fill="#343738" fill-rule="evenodd"/>
        <path id="Path_22721" data-name="Path 22721" d="M303.876,428.36a3.93,3.93,0,1,1-.438-.024A2.037,2.037,0,0,1,303.876,428.36Z" transform="translate(-265.973 -424.514)" fill="#333637" fill-rule="evenodd"/>
      </g>
      <g id="Group_22" data-name="Group 22" transform="translate(11.375 0)">
        <g id="Group_19" data-name="Group 19">
          <rect id="Rectangle_4371" data-name="Rectangle 4371" width="65.874" height="45.948" transform="translate(0.119 16.686) rotate(-14.526)" fill="url(#linear-gradient)"/>
          <g id="Group_15" data-name="Group 15" transform="translate(41.299 0.001)">
            <path id="Path_22722" data-name="Path 22722" d="M342.9,360.393l-20.007,19.862c-.674.612-2.685,2.222-2.624,3.225.073,1.193,3.412,2.973,4.314,3.529l29.931,18.2Z" transform="translate(-320.268 -360.393)" fill-rule="evenodd" fill="url(#linear-gradient-2)"/>
            <path id="Path_22723" data-name="Path 22723" d="M342.866,360.572l-19.908,19.761c-3.7,3.38-3.7,3.3,1.677,6.622l29.755,18.1Z" transform="translate(-320.277 -360.41)" fill-rule="evenodd" fill="url(#linear-gradient-2)"/>
          </g>
          <g id="Group_16" data-name="Group 16" transform="translate(11.614 21.701)">
            <path id="Path_22724" data-name="Path 22724" d="M351.43,407.461,314.86,384.9c-3.382-1.178-3.678-.486-5.909,1.945l-21.444,37.173Z" transform="translate(-287.507 -384.342)" fill-rule="evenodd" fill="url(#linear-gradient-4)"/>
            <path id="Path_22725" data-name="Path 22725" d="M351.236,407.439,287.7,423.9l21.34-37c2.179-2.373,2.431-3.091,5.807-1.913Z" transform="translate(-287.525 -384.351)" fill-rule="evenodd" fill="url(#linear-gradient-2)"/>
          </g>
          <g id="Group_17" data-name="Group 17" transform="translate(0.002 16.569)">
            <path id="Path_22726" data-name="Path 22726" d="M274.691,378.678,286.3,423.491l18.277-31.085c.492-.879,2.4-3.869,1.854-4.9-.455-.867-3.245-1.292-4.134-1.5Z" transform="translate(-274.691 -378.678)" fill-rule="evenodd" fill="url(#linear-gradient-2)"/>
            <path id="Path_22727" data-name="Path 22727" d="M274.82,378.808l27.471,7.288c4.879,1.155,5.32.765,2.228,6.279l-18.174,30.912Z" transform="translate(-274.703 -378.69)" fill-rule="evenodd" fill="url(#linear-gradient-2)"/>
          </g>
          <g id="Group_18" data-name="Group 18">
            <path id="Path_22728" data-name="Path 22728" d="M338.621,360.392l-63.932,16.567,34.078,11.533c3.122,1.04,3.71,1.5,6.094-1.17Z" transform="translate(-274.689 -360.392)" fill-rule="evenodd" fill="url(#linear-gradient-2)"/>
            <path id="Path_22729" data-name="Path 22729" d="M338.407,360.557l-63.395,16.427,33.811,11.443c3.057,1.018,3.624,1.523,6.005-1.145Z" transform="translate(-274.719 -360.408)" fill-rule="evenodd" fill="url(#linear-gradient-2)"/>
          </g>
        </g>
        <g id="Group_20" data-name="Group 20" transform="translate(1.589 8.088)">
          <path id="Path_22730" data-name="Path 22730" d="M291.432,397.837l-1.191-3.005-2.047,3.084.68,3.777,2.558-3.856Zm-.638-22.8,3.51-1.392,2.206-2.292-4.385,1.74-.743-.226-.716-.159-.691-.1-.664-.035-.638.016-.611.075-.584.128-.553.172-.523.223-.494.264-.461.3-.431.342-.4.381-.366.41-.33.443-.3.47-.262.494-.225.513-.19.537-.15.552-.115.564-.074.578-.035.584,0,.593.044.592.086.593.13.592.172.586.215.579.26.568.3.557.352.538.3.409.312.4.321.392.332.384.342.376.348.368.357.362.365.354.371.343.377.343.382.337.385.327.392.323.4.319.4.316.4.306.265.2.266.2.268.2.268.195.27.2.273.193.271.191.275.192.273.188.275.186.276.187.276.185.277.183.279.185.279.181.28.179,2.791-4.212-2.32-1.3-2.233,3.368-.224-.143-.224-.145-.221-.148-.222-.148-.221-.147-.221-.15-.22-.149-.218-.156-.219-.149-.217-.154-.218-.154-.216-.153-.216-.159-.214-.159-.212-.159-.215-.159-.317-.249-.321-.249-.314-.256-.313-.258-.311-.265-.305-.265-.3-.274-.3-.278-.292-.284-.285-.288-.28-.294-.274-.3-.265-.3-.256-.314-.25-.322-.239-.327-.28-.43-.245-.446-.207-.455-.172-.461-.137-.471-.1-.474-.07-.476-.037-.476,0-.468.03-.471.06-.459.091-.454.122-.441.15-.429.179-.41.21-.394.236-.377.266-.353.291-.327.318-.3.344-.276.371-.242.4-.213.418-.178.444-.138.467-.1.487-.057.51-.017.532.03.553.076.574.13Z" transform="translate(-277.018 -369.509)" fill-rule="evenodd" fill="url(#radial-gradient-2)"/>
          <path id="Path_22731" data-name="Path 22731" d="M291.658,375.032l1.285-1.952.034.012,4.386-1.74-2.206,2.293Z" transform="translate(-277.872 -369.509)" fill-rule="evenodd" fill="url(#radial-gradient-3)"/>
          <path id="Path_22732" data-name="Path 22732" d="M295.935,371.162c-6.13-2.281-15.448-3.735-18.63,3.7-1.829,4.281-.558,9.06,2.037,12.752A32.454,32.454,0,0,0,286.2,394.4c1.5,1.148,3.066,2.22,4.657,3.244L288.3,401.5l11.565-.962-3.36-11.418-2.791,4.212c-1.5-.96-2.962-1.962-4.373-3.04a27.159,27.159,0,0,1-5.774-5.662c-3.984-5.662-.051-14.486,7.983-11.73Z" transform="translate(-276.443 -369.318)" fill="url(#radial-gradient-4)"/>
        </g>
        <g id="Group_21" data-name="Group 21" transform="translate(48.222 20.139)">
          <path id="Path_22733" data-name="Path 22733" d="M337.518,386.636l1.388,2.918,1.837-3.214-.931-3.722-2.294,4.018Zm2.161,22.7-3.411,1.624-2.046,2.436,4.258-2.031.757.176.726.111.7.053.665-.011.635-.06.6-.113.574-.168.541-.209.507-.255.476-.3.441-.334.4-.372.373-.405.338-.437.3-.461.266-.49.227-.507.19-.53.153-.549.114-.56.076-.57.036-.58,0-.587-.044-.59-.084-.587-.126-.585-.169-.583-.211-.574-.255-.565-.3-.547-.342-.536-.386-.512-.324-.389-.337-.38-.347-.371-.358-.361-.365-.352-.372-.343-.38-.339-.389-.326-.392-.32-.4-.317-.405-.311-.406-.3-.412-.3-.419-.291-.415-.287-.419-.279-.28-.186-.278-.178-.281-.181-.281-.175-.283-.176-.285-.175-.283-.175-.286-.172-.287-.17-.286-.166-.287-.169-.288-.166-.289-.165-.291-.163-.291-.164-.291-.161-2.5,4.389,2.4,1.139,2-3.509.234.128.234.133.23.131.232.13.231.132.228.135.232.132.227.14.229.137.227.137.227.14.226.14.226.142.225.143.224.146.224.144.333.227.336.23.33.231.329.241.328.241.322.247.322.249.313.26.312.262.3.269.3.274.293.285.285.285.277.3.271.3.261.31.307.412.275.427.236.439.2.451.169.458.135.466.1.47.069.473.034.469,0,.473-.029.461-.061.458-.094.449-.12.438-.152.422-.183.408-.211.391-.24.371-.271.346-.3.323-.326.3-.351.265-.382.238-.4.206-.434.168-.458.131-.482.092-.507.05-.533.005-.556-.04-.581-.089Z" transform="translate(-328.337 -382.618)" fill-rule="evenodd" fill="url(#radial-gradient-5)"/>
          <path id="Path_22734" data-name="Path 22734" d="M339.851,412.117l-1.151,2.033-.036-.011-4.258,2.031,2.046-2.436Z" transform="translate(-328.52 -385.389)" fill-rule="evenodd" fill="url(#radial-gradient-6)"/>
          <path id="Path_22735" data-name="Path 22735" d="M333.795,413.4c6.267,1.864,15.663,2.695,18.34-4.944,1.539-4.394-.049-9.075-2.884-12.585a32.522,32.522,0,0,0-7.3-6.313c-1.577-1.045-3.208-2.009-4.864-2.924l2.294-4.018-11.476,1.731,4.115,11.167,2.5-4.389c1.554.858,3.086,1.76,4.567,2.742a27.139,27.139,0,0,1,6.14,5.264c4.353,5.38,1.019,14.448-7.182,12.236Z" transform="translate(-327.91 -382.618)" fill="url(#radial-gradient-7)"/>
        </g>
      </g>
    </g>
  </g>
</svg>
