<svg xmlns="http://www.w3.org/2000/svg" width="99.703" height="66.935" viewBox="0 0 99.703 66.935">
  <g id="Group_47658" data-name="Group 47658" transform="translate(-126.522 -65.144)">
    <path id="Path_42467" data-name="Path 42467" d="M625.147,461.573a41.547,41.547,0,0,1-1.906,12.481H543.906a41.578,41.578,0,1,1,81.241-12.481Z" transform="translate(-407.332 -342.226)" fill="#c8def9"/>
    <ellipse id="Ellipse_367" data-name="Ellipse 367" cx="7.046" cy="7.352" rx="7.046" ry="7.352" transform="translate(188.837 91.643)" fill="#fff"/>
    <path id="Path_42468" data-name="Path 42468" d="M1376.747,228.1a9.681,9.681,0,0,1-3.18.534h-.021a9.681,9.681,0,0,1-5.739-1.893,9.926,9.926,0,0,1-.979-.825c-.059-.057-.118-.115-.175-.174q-.253-.255-.486-.528a9.79,9.79,0,0,1-.923-1.276l-.185.041a9.977,9.977,0,0,0,1.559,1.984l.034.034a10.086,10.086,0,0,0,.923.8,9.952,9.952,0,0,0,1.87,1.124,9.85,9.85,0,0,0,4.121.9h.03a9.871,9.871,0,0,0,3.183-.535C1376.768,228.22,1376.757,228.16,1376.747,228.1Zm1.428-17.962-.168-.086a9.849,9.849,0,0,0-1.993-.746l-.2-.05a9.9,9.9,0,0,0-12.151,9.651q0,.45.04.89c0,.03.005.06.009.09s.005.06.009.09a9.815,9.815,0,0,0,.849,3.07,9.973,9.973,0,0,0,2.053,2.917l.034.034a10.086,10.086,0,0,0,.923.8,9.952,9.952,0,0,0,1.87,1.124,9.85,9.85,0,0,0,4.121.9h.03a9.906,9.906,0,0,0,4.579-18.675Zm3.708,13.808a9.73,9.73,0,0,1-.739,1.053,9.839,9.839,0,0,1-1.487,1.486,9.681,9.681,0,0,1-6.091,2.148h-.021a9.681,9.681,0,0,1-5.739-1.893,9.926,9.926,0,0,1-.979-.825c-.059-.057-.118-.115-.175-.174q-.253-.255-.486-.528a9.79,9.79,0,0,1-.923-1.276,9.651,9.651,0,0,1-1.346-3.962c0-.03-.007-.06-.01-.09s-.006-.06-.009-.09q-.04-.439-.04-.89a9.732,9.732,0,0,1,11.821-9.5l.206.047a9.65,9.65,0,0,1,2.007.733c.057.028.113.056.169.085a9.719,9.719,0,0,1,3.841,13.675Z" transform="translate(-1179.807 -143.856)" fill="#deedff"/>
    <path id="Path_42469" data-name="Path 42469" d="M751.044,741.483a9.726,9.726,0,0,1-7.609-.014v.195a9.845,9.845,0,0,0,3.822.767,9.96,9.96,0,0,0,1.275-.081,9.831,9.831,0,0,0,2.777-.786A2.466,2.466,0,0,0,751.044,741.483Zm4.776-13.936-.053-.09c-.017-.03-.036-.06-.054-.09a9.911,9.911,0,0,0-8.457-4.751c-.223,0-.444.007-.663.022a9.907,9.907,0,0,0-3.339,18.947l.09.039.09.038a9.845,9.845,0,0,0,3.822.767,9.96,9.96,0,0,0,1.275-.081,9.914,9.914,0,0,0,8.63-9.564c0-.087,0-.174,0-.262A9.846,9.846,0,0,0,755.821,727.547Zm-4.776,13.936a9.726,9.726,0,0,1-7.609-.014l-.09-.039-.09-.041a9.726,9.726,0,0,1,3.385-18.574q.306-.019.616-.019a9.729,9.729,0,0,1,8.245,4.571l.056.09c.019.03.037.06.054.09a9.721,9.721,0,0,1-4.568,13.936Z" transform="translate(-590.988 -626.728)" fill="#fff"/>
    <rect id="Rectangle_20812" data-name="Rectangle 20812" width="34.309" height="60.654" rx="17.155" transform="translate(160.655 71.425)" fill="#404040"/>
    <rect id="Rectangle_20813" data-name="Rectangle 20813" width="31.966" height="54.713" transform="translate(162.234 75.021)" fill="#deedff"/>
    <rect id="Rectangle_20814" data-name="Rectangle 20814" width="17.767" height="3.676" transform="translate(174.134 81.227)" fill="#204f74"/>
    <rect id="Rectangle_20815" data-name="Rectangle 20815" width="31.966" height="2.694" transform="translate(162.234 127.04)" fill="#fff"/>
    <rect id="Rectangle_20816" data-name="Rectangle 20816" width="13.479" height="4.901" transform="translate(178.422 86.129)" fill="#2f8168" opacity="0.8"/>
    <path id="Path_42470" data-name="Path 42470" d="M924.441,1321.68H851.59a.09.09,0,1,1,0-.18h72.851a.09.09,0,0,1,0,.18Z" transform="translate(-698.305 -1189.761)" fill="#404040"/>
    <path id="Path_42471" data-name="Path 42471" d="M465.189,1322.179h-17.6a.09.09,0,1,1,0-.18h17.6a.09.09,0,1,1,0,.18Z" transform="translate(-318.489 -1190.231)" fill="#404040"/>
    <rect id="Rectangle_20817" data-name="Rectangle 20817" width="2.305" height="2.305" transform="translate(126.522 114.046)" fill="#a6cae2"/>
    <rect id="Rectangle_20818" data-name="Rectangle 20818" width="2.305" height="2.305" transform="translate(128.854 111.714)" fill="#deedff"/>
    <path id="Path_42472" data-name="Path 42472" d="M506.9,1132.617a2.247,2.247,0,1,0,2.245,2.245A2.248,2.248,0,0,0,506.9,1132.617Zm0,4.31a2.065,2.065,0,1,1,2.028-1.672A2.068,2.068,0,0,1,506.9,1136.927Z" transform="translate(-372.227 -1012.185)" fill="#fff"/>
    <path id="Path_42473" data-name="Path 42473" d="M1601.625,811.627a.9.9,0,0,0-.127-.01.838.838,0,1,0,0,1.676.827.827,0,0,0,.134-.011.838.838,0,0,0-.007-1.656Zm.025,1.469a.641.641,0,0,1-.153.018.658.658,0,1,1,.153-.018Z" transform="translate(-1402.619 -710.4)" fill="#deedff"/>
    <path id="Path_42474" data-name="Path 42474" d="M1724.81,262.659l1.606-1.085.024,1.675,1.955-1.457-.362,2.6-.178-.025.3-2.176-1.892,1.411-.024-1.694-1.331.9Z" transform="translate(-1519.338 -193.284)" fill="#6397ff"/>
    <path id="Path_42475" data-name="Path 42475" d="M496.594,777.547l-.26-1.921,1.512.721-.44-2.4,2.171,1.478-.1.148-1.816-1.236.426,2.321-1.529-.729.216,1.591Z" transform="translate(-364.399 -674.987)" fill="#deedff"/>
    <rect id="Rectangle_20819" data-name="Rectangle 20819" width="2.035" height="2.035" transform="translate(148.415 113.297) rotate(-42.136)" fill="#fff"/>
    <rect id="Rectangle_20820" data-name="Rectangle 20820" width="1.197" height="1.197" transform="matrix(0.898, 0.439, -0.439, 0.898, 152.691, 118.195)" fill="#2f8168"/>
    <path id="Path_42476" data-name="Path 42476" d="M1763.727,921.61l2.107,1.048-1.279,1.469Z" transform="translate(-1555.925 -813.809)" fill="#fff"/>
    <ellipse id="Ellipse_368" data-name="Ellipse 368" cx="0.306" cy="0.613" rx="0.306" ry="0.613" transform="translate(220.083 125.952)" fill="#6397ff"/>
    <circle id="Ellipse_369" data-name="Ellipse 369" cx="0.306" cy="0.306" r="0.306" transform="translate(223.759 112.473)" fill="#519686"/>
    <circle id="Ellipse_370" data-name="Ellipse 370" cx="0.306" cy="0.306" r="0.306" transform="translate(212.119 69.587)" fill="#f8ac9f"/>
    <circle id="Ellipse_371" data-name="Ellipse 371" cx="0.306" cy="0.306" r="0.306" transform="translate(128.796 97.769)" fill="#2f8168"/>
    <ellipse id="Ellipse_372" data-name="Ellipse 372" cx="0.306" rx="0.306" transform="translate(203.541 122.276)" fill="#fff"/>
    <circle id="Ellipse_373" data-name="Ellipse 373" cx="0.306" cy="0.306" r="0.306" transform="translate(139.824 124.114)" fill="#fff"/>
    <ellipse id="Ellipse_374" data-name="Ellipse 374" cy="0.306" ry="0.306" transform="translate(155.754 111.248)" fill="#fff"/>
    <circle id="Ellipse_375" data-name="Ellipse 375" cx="0.306" cy="0.306" r="0.306" transform="translate(210.281 106.346)" fill="#6397ff"/>
    <circle id="Ellipse_376" data-name="Ellipse 376" cx="0.613" cy="0.613" r="0.613" transform="translate(220.083 110.635)" fill="#deedff"/>
    <rect id="Rectangle_20821" data-name="Rectangle 20821" width="2.305" height="2.305" transform="translate(208.113 118.596)" fill="#2f8168" opacity="0.8"/>
    <rect id="Rectangle_20822" data-name="Rectangle 20822" width="2.305" height="2.305" transform="translate(210.445 116.264)" fill="#a6cae2"/>
    <path id="Path_42477" data-name="Path 42477" d="M1097.879,1144.2l16.581.778-3.124,3.978-9.965-2.378Z" transform="translate(-929.935 -1023.071)" fill="#404040"/>
    <path id="Path_42478" data-name="Path 42478" d="M1289.879,1230.07l6.465,2.394a1.438,1.438,0,1,0,1.083-2.625c-.254-.092-.508-.182-.756-.289l-5.475-2.354Z" transform="translate(-1110.442 -1101.103)" fill="#404040"/>
    <path id="Path_42479" data-name="Path 42479" d="M1065.813,1228.472l-6.265,2.878a1.451,1.451,0,1,0,1.312,2.5l6.053-2.413Z" transform="translate(-892.891 -1102.302)" fill="#404040"/>
    <path id="Path_42480" data-name="Path 42480" d="M1037.208,666.625c-2.159,1.312-.936,4-2.634,7.213-2.366,4.472-6.966,3.5-8.68,7.542-.979,2.31-.74,5.7,1.018,7.363,4.924,4.655,22.418-3.639,22.148-9.159a6.97,6.97,0,0,0-.778-2.394c-1.367-2.836-3.05-2.751-4.609-5.148-1.72-2.644-.719-4.352-2.394-5.417A4.067,4.067,0,0,0,1037.208,666.625Z" transform="translate(-861.722 -573.574)" fill="#404040"/>
    <path id="Path_42481" data-name="Path 42481" d="M1162.678,825.171c-.141,3.033-2.64,6.405-6.405,6.405a6.409,6.409,0,0,1-3.651-11.673,6.021,6.021,0,0,1,2.873-1.137,6.687,6.687,0,0,1,1.2,0,9.939,9.939,0,0,1,2.873.6C1161.312,820.1,1162.794,822.668,1162.678,825.171Z" transform="translate(-978.811 -717.095)" fill="#f78771"/>
    <rect id="Rectangle_20823" data-name="Rectangle 20823" width="2.543" height="3.984" transform="translate(176.052 99.508)" fill="#f78771"/>
    <path id="Path_42482" data-name="Path 42482" d="M1118.084,845.477a14.185,14.185,0,0,1-18.192,1.666,13.229,13.229,0,0,1-1.092-.818l2.016-6.242,3.373-10.444h0l1.2-.443,0,0a3.945,3.945,0,0,0,.962,1.033,3.271,3.271,0,0,0,1.128.543,3.767,3.767,0,0,0,3.281-.831,4.518,4.518,0,0,0,.779-.82,13.605,13.605,0,0,1,1.364.485l3.419,10.485Q1117.205,842.782,1118.084,845.477Z" transform="translate(-930.8 -726.853)" fill="#fff"/>
    <path id="Path_42483" data-name="Path 42483" d="M1273.815,900.948a2.875,2.875,0,0,1-1.437.718c-2.5.517-5.509-1.829-7.782-5.806a2.027,2.027,0,0,1-.718-.6,2.211,2.211,0,0,1-.359-1.676c-.86-1.131-.964-1.432-.9-1.5.184-.177,1.8,1.34,4.716,3.591,1.117.864,2.052,1.548,2.67,1.992l-.754-1.677-1.216-2.707-1.346-2.995,3.891-2.095a39.544,39.544,0,0,1,2.428,4.531c.324.722.6,1.418.83,2.081C1274.818,897.644,1274.895,899.871,1273.815,900.948Z" transform="translate(-1084.8 -782.396)" fill="#f78771"/>
    <path id="Path_42484" data-name="Path 42484" d="M1359.162,950.747a7.928,7.928,0,0,1-4.588,1.185l-1.216-2.707,1.917-1.528,2.694.658.364.311C1358.657,949.388,1358.934,950.084,1359.162,950.747Z" transform="translate(-1170.122 -838.334)" fill="#404040"/>
    <path id="Path_42485" data-name="Path 42485" d="M1308.372,837.762a6.534,6.534,0,0,1-2.289,1.78,6.779,6.779,0,0,1-1.842.545,8.04,8.04,0,0,1-2.677-.011l-2.3-7.357q-.29-1.391-.581-2.782a4.514,4.514,0,0,0,.779-.82,13.572,13.572,0,0,1,1.364.485,13.294,13.294,0,0,1,7.55,8.16Z" transform="translate(-1118.715 -726.853)" fill="#fff"/>
    <rect id="Rectangle_20824" data-name="Rectangle 20824" width="2.694" height="5.028" rx="1.347" transform="translate(176.025 109.033)" fill="#404040"/>
    <path id="Path_42486" data-name="Path 42486" d="M1065.63,895.866a3.329,3.329,0,0,1-.24,1.377,3.457,3.457,0,0,1-1.5,1.676c-.543.783-4.446,6.291-8.183,5.853a2.387,2.387,0,0,1-1.441-.593c-1.18-1.15-.526-3.8.58-6.411a41.459,41.459,0,0,1,2.057-4.114c.744-1.316,1.355-2.266,1.479-2.457l3.532,2.155a29.387,29.387,0,0,0-2.873,6.7l-.934.76c.683-.485,1.469-1.077,2.311-1.778,2.767-2.3,4.519-4.437,5.088-4.07C1065.624,895.041,1065.735,895.244,1065.63,895.866Z" transform="translate(-888.348 -785.216)" fill="#f78771"/>
    <path id="Path_42487" data-name="Path 42487" d="M1079.73,933.92l-.4,1.046-1.21,2.372a9.855,9.855,0,0,1-4.318-.976,41.485,41.485,0,0,1,2.057-4.114Z" transform="translate(-907.297 -823.809)" fill="#404040"/>
    <path id="Path_42488" data-name="Path 42488" d="M1073.742,831.39q-.261,1.247-.521,2.494l-.865,5.562c-.085.081-2.02,1.884-3.338,1.87a7.186,7.186,0,0,1-.816-.069,6.494,6.494,0,0,1-4.093-2.32,13.292,13.292,0,0,1,7.466-8.125h0c.431-.183.836-.328,1.2-.444l0,0A3.943,3.943,0,0,0,1073.742,831.39Z" transform="translate(-898.187 -728.018)" fill="#fff"/>
    <path id="Path_42489" data-name="Path 42489" d="M1149.508,1099.458a4.181,4.181,0,0,1-2.054,2.434,35.016,35.016,0,0,1-6.154,3.587,38.793,38.793,0,0,1-11.425,2.292,2.379,2.379,0,0,1-1.526-1.381,2.322,2.322,0,0,1,.083-1.77l4.313-2.358,3.622-1.981,8.056-4.405a3.517,3.517,0,0,1,5.057,2.051A3.2,3.2,0,0,1,1149.508,1099.458Z" transform="translate(-958.451 -977.23)" fill="#204f74"/>
    <path id="Path_42490" data-name="Path 42490" d="M1249.467,1099.383a.09.09,0,0,1-.043-.168l8.871-4.851a3.606,3.606,0,0,1,5.186,2.106,3.312,3.312,0,0,1,.028,1.575,2.857,2.857,0,0,1-.2.582.09.09,0,1,1-.163-.075,2.679,2.679,0,0,0,.184-.546,3.132,3.132,0,0,0-.026-1.488,3.427,3.427,0,0,0-4.927-2l-8.871,4.851A.087.087,0,0,1,1249.467,1099.383Z" transform="translate(-1072.365 -975.797)" fill="#404040"/>
    <path id="Path_42491" data-name="Path 42491" d="M1206.113,759.371a2.679,2.679,0,0,0,1.653,1.758,2.489,2.489,0,0,0,1.683-.1l-2.916-2.9Z" transform="translate(-1031.69 -660.118)" fill="#404040"/>
    <ellipse id="Ellipse_377" data-name="Ellipse 377" cx="2.706" cy="3.348" rx="2.706" ry="3.348" transform="translate(174.708 94.338)" fill="#f78771"/>
    <path id="Path_42492" data-name="Path 42492" d="M1241.879,686.787a4.115,4.115,0,0,0,4.31,3.681l-1.676-3.771Z" transform="translate(-1065.315 -592.958)" fill="#404040"/>
    <path id="Path_42493" data-name="Path 42493" d="M1083.133,691.1a3.238,3.238,0,0,0-1.257.6c-2.161,1.715-.541,5.414-1.8,8.081-.728,1.547-2.649,3.229-7.842,3.891l-.359-.838c4.186-1.144,5.931-2.955,6.7-4.549,1.276-2.63.43-5.742,2.334-6.884A3.222,3.222,0,0,1,1083.133,691.1Z" transform="translate(-905.492 -597.029)" fill="#404040"/>
    <path id="Path_42494" data-name="Path 42494" d="M1106.969,995.924a.09.09,0,0,1-.057-.159l5.567-4.549a.09.09,0,1,1,.114.139l-5.567,4.549A.089.089,0,0,1,1106.969,995.924Z" transform="translate(-938.397 -879.229)" fill="#404040"/>
    <path id="Path_42495" data-name="Path 42495" d="M1183.969,972.362a.09.09,0,0,1-.06-.157,11.782,11.782,0,0,0,2.317-2.852.089.089,0,0,1,.035-.034,3.549,3.549,0,0,0,1.11-.934,3.692,3.692,0,0,0,.759-2.1.09.09,0,1,1,.18.007,3.872,3.872,0,0,1-.8,2.207,3.717,3.717,0,0,1-1.143.969,11.966,11.966,0,0,1-2.34,2.874A.09.09,0,0,1,1183.969,972.362Z" transform="translate(-1010.788 -855.726)" fill="#404040"/>
    <path id="Path_42496" data-name="Path 42496" d="M1139.248,954.2l-1.7,5.427,1.037-.877Q1138.919,956.472,1139.248,954.2Z" transform="translate(-967.234 -844.445)" fill="#404040"/>
    <path id="Path_42497" data-name="Path 42497" d="M1213.5,1180.591l-3.241.586-6.278-2.834,3.622-1.98Z" transform="translate(-1029.685 -1053.312)" fill="#404040"/>
    <path id="Path_42498" data-name="Path 42498" d="M1034.623,1107.546a2.378,2.378,0,0,0,1.525-1.381,2.322,2.322,0,0,0-.083-1.77l-16.051-8.777a3.347,3.347,0,0,0-2.468-.311,4,4,0,0,0-2.53,2.394,3.656,3.656,0,0,0-.229,1.447c.084,1.314,1.122,2.6,3.719,4.178a30.252,30.252,0,0,0,12.511,3.951C1032.541,1107.454,1033.8,1107.519,1034.623,1107.546Z" transform="translate(-851.812 -977.005)" fill="#204f74"/>
    <path id="Path_42499" data-name="Path 42499" d="M1024.969,1105.125a.08.08,0,0,1-.021,0,27.78,27.78,0,0,1-7.9-3.146c-2.51-1.521-3.671-2.832-3.762-4.25a3.73,3.73,0,0,1,.235-1.485,4.09,4.09,0,0,1,2.59-2.449,3.418,3.418,0,0,1,2.534.319l15.612,8.537a.09.09,0,1,1-.086.157l-15.612-8.537a3.241,3.241,0,0,0-2.4-.3,3.906,3.906,0,0,0-2.469,2.34,3.6,3.6,0,0,0-.223,1.409c.087,1.353,1.22,2.619,3.675,4.107a27.6,27.6,0,0,0,7.849,3.125.09.09,0,0,1-.021.177Z" transform="translate(-850.401 -975.578)" fill="#404040"/>
    <path id="Path_42500" data-name="Path 42500" d="M1332.731,933.029a.09.09,0,0,1-.082-.053l-3.262-7.153a.09.09,0,0,1,.163-.074l3.262,7.153a.09.09,0,0,1-.082.127Z" transform="translate(-1147.577 -817.65)" fill="#404040"/>
    <ellipse id="Ellipse_378" data-name="Ellipse 378" cx="0.14" cy="0.21" rx="0.14" ry="0.21" transform="translate(176.496 96.882)" fill="#404040"/>
    <ellipse id="Ellipse_379" data-name="Ellipse 379" cx="0.14" cy="0.21" rx="0.14" ry="0.21" transform="translate(178.359 96.882)" fill="#404040"/>
    <path id="Path_42501" data-name="Path 42501" d="M1257.235,752.8a.09.09,0,0,1-.09-.09v-.419a.09.09,0,1,1,.18,0v.419A.09.09,0,0,1,1257.235,752.8Z" transform="translate(-1079.667 -654.537)" fill="#404040"/>
    <path id="Path_42502" data-name="Path 42502" d="M1233.747,725.642c-.1.042-.306.152-.292.259s.286.207.51.162.462-.256.426-.37S1234,725.539,1233.747,725.642Z" transform="translate(-1057.395 -629.513)" fill="#404040"/>
    <path id="Path_42503" data-name="Path 42503" d="M1260.085,951.042a.09.09,0,0,1-.069-.032c-1.526-1.827-1.427-1.923-1.341-2.008s.175-.17,1.708,1.164a.09.09,0,0,1-.118.135,10.387,10.387,0,0,0-1.417-1.122,12.434,12.434,0,0,0,1.306,1.715.09.09,0,0,1-.069.147Z" transform="translate(-1081.067 -839.524)" fill="#404040"/>
    <path id="Path_42504" data-name="Path 42504" d="M1285.94,1007.9a1.239,1.239,0,0,1-.531-.117,1.26,1.26,0,0,1-.516-.451.09.09,0,1,1,.15-.1,1.084,1.084,0,0,0,.442.387,1.115,1.115,0,0,0,.775.055.09.09,0,0,1,.051.172A1.338,1.338,0,0,1,1285.94,1007.9Z" transform="translate(-1105.741 -894.272)" fill="#404040"/>
    <path id="Path_42505" data-name="Path 42505" d="M1229.969,953.553a.09.09,0,0,1-.063-.154,7.367,7.367,0,0,0,1.225-1.356,5.009,5.009,0,0,0-1.114.6.09.09,0,1,1-.1-.152c1.132-.708,1.293-.681,1.375-.579s.008.249-.256.562c-.21.25-.55.605-1.008,1.055A.09.09,0,0,1,1229.969,953.553Z" transform="translate(-1054.034 -842.245)" fill="#404040"/>
    <path id="Path_42506" data-name="Path 42506" d="M1246.969,952.522a.087.087,0,0,1-.046-.013.09.09,0,0,1-.031-.123,7.576,7.576,0,0,0,.577-1.076,3.663,3.663,0,0,0-.376.347.09.09,0,1,1-.128-.126c.439-.447.565-.5.656-.428s.046.223-.068.465c-.1.211-.271.517-.506.911A.09.09,0,0,1,1246.969,952.522Z" transform="translate(-1070.016 -841.513)" fill="#404040"/>
    <path id="Path_42507" data-name="Path 42507" d="M1349.871,1019.326a.089.089,0,0,1-.055-.019l-3.062-2.359a.09.09,0,1,1,.11-.142l3.062,2.359a.09.09,0,0,1-.055.161Z" transform="translate(-1163.88 -903.289)" fill="#404040"/>
    <ellipse id="Ellipse_380" data-name="Ellipse 380" cx="16.236" cy="16.542" rx="16.236" ry="16.542" transform="translate(136.761 75.101)" fill="#404040"/>
    <path id="Path_49421" data-name="Path 49421" d="M16.222,0A16.222,16.222,0,1,1,0,16.222,16.222,16.222,0,0,1,16.222,0Z" transform="translate(135.693 74.055)" fill="#204f74"/>
    <path id="Path_42508" data-name="Path 42508" d="M573.937,389A16.315,16.315,0,0,1,560.1,364.04a.09.09,0,0,1,.152.1,16.134,16.134,0,1,0,13.682-7.581,16.346,16.346,0,0,0-2.127.139.09.09,0,1,1-.023-.178,16.512,16.512,0,0,1,2.151-.141,16.312,16.312,0,0,1,0,32.624Z" transform="translate(-422.022 -282.409)" fill="#404040"/>
    <path id="Path_42509" data-name="Path 42509" d="M642.621,428.63a12.75,12.75,0,0,1-12.75,12.75q-.413,0-.819-.026h0a12.751,12.751,0,0,1-.1-25.442h0q.457-.032.923-.033A12.75,12.75,0,0,1,642.621,428.63Z" transform="translate(-477.955 -338.352)" fill="#deedff"/>
    <path id="Path_42510" data-name="Path 42510" d="M640.878,429.155a12.751,12.751,0,0,1-11.826,12.717h0a12.751,12.751,0,0,1-.1-25.442h0A12.751,12.751,0,0,1,640.878,429.155Z" transform="translate(-477.955 -338.869)" fill="#fff"/>
    <path id="Path_42511" data-name="Path 42511" d="M824.449,529.285h0a.449.449,0,0,1-.449-.449v-5.387a.449.449,0,0,1,.449-.449h0a.449.449,0,0,1,.449.449v5.387A.449.449,0,0,1,824.449,529.285Z" transform="translate(-672.451 -439.06)" fill="#ffe5e5"/>
    <path id="Path_42512" data-name="Path 42512" d="M829.312,626.312h0a.449.449,0,0,1,.635,0l6.227,6.227a.449.449,0,0,1,0,.635h0a.449.449,0,0,1-.635,0l-6.226-6.227A.449.449,0,0,1,829.312,626.312Z" transform="translate(-677.321 -536.064)" fill="#ffe5e5"/>
    <circle id="Ellipse_382" data-name="Ellipse 382" cx="1.497" cy="1.497" r="1.497" transform="translate(150.419 88.781)" fill="#2f8168" opacity="0.8"/>
    <rect id="Rectangle_20825" data-name="Rectangle 20825" width="31.246" height="24.507" rx="12.253" transform="translate(184.549 75.101)" fill="#404040"/>
    <rect id="Rectangle_20826" data-name="Rectangle 20826" width="30.828" height="24.663" rx="12.331" transform="translate(183.476 73.644)" fill="#fff"/>
    <path id="Path_42513" data-name="Path 42513" d="M1384.23,374.342h-25.738a2.638,2.638,0,0,1-2.635-2.635V352.135a2.638,2.638,0,0,1,2.635-2.635h25.738a2.638,2.638,0,0,1,2.635,2.635v19.572A2.638,2.638,0,0,1,1384.23,374.342Zm-25.738-24.663a2.458,2.458,0,0,0-2.456,2.455v19.572a2.458,2.458,0,0,0,2.456,2.456h25.738a2.458,2.458,0,0,0,2.455-2.456V352.135a2.458,2.458,0,0,0-2.455-2.455Z" transform="translate(-1172.471 -275.946)" fill="#404040"/>
    <rect id="Rectangle_20827" data-name="Rectangle 20827" width="11.312" height="0.761" transform="translate(193.235 76.816)" fill="#2f8168" opacity="0.8"/>
    <g id="Group_46126" data-name="Group 46126" transform="translate(185.349 79.46)">
      <rect id="Rectangle_20828" data-name="Rectangle 20828" width="2.937" height="2.774" fill="#a6cae2"/>
    </g>
    <g id="Group_46127" data-name="Group 46127" transform="translate(189.373 79.46)">
      <rect id="Rectangle_20829" data-name="Rectangle 20829" width="2.937" height="2.774" fill="#a6cae2"/>
    </g>
    <g id="Group_46128" data-name="Group 46128" transform="translate(193.398 79.46)">
      <rect id="Rectangle_20830" data-name="Rectangle 20830" width="2.937" height="2.774" fill="#a6cae2"/>
    </g>
    <g id="Group_46129" data-name="Group 46129" transform="translate(197.422 79.46)">
      <rect id="Rectangle_20831" data-name="Rectangle 20831" width="2.937" height="2.774" fill="#a6cae2"/>
    </g>
    <g id="Group_46130" data-name="Group 46130" transform="translate(201.447 79.46)">
      <rect id="Rectangle_20832" data-name="Rectangle 20832" width="2.937" height="2.774" fill="#ffe5e5"/>
    </g>
    <g id="Group_46131" data-name="Group 46131" transform="translate(205.471 79.46)" opacity="0.8">
      <rect id="Rectangle_20833" data-name="Rectangle 20833" width="2.937" height="2.774" fill="#2f8168"/>
    </g>
    <g id="Group_46132" data-name="Group 46132" transform="translate(209.495 79.46)" opacity="0.8">
      <rect id="Rectangle_20834" data-name="Rectangle 20834" width="2.937" height="2.774" fill="#2f8168"/>
    </g>
    <g id="Group_46133" data-name="Group 46133" transform="translate(185.349 83.321)">
      <rect id="Rectangle_20835" data-name="Rectangle 20835" width="2.937" height="2.774" fill="#deedff"/>
    </g>
    <g id="Group_46134" data-name="Group 46134" transform="translate(189.373 83.321)">
      <rect id="Rectangle_20836" data-name="Rectangle 20836" width="2.937" height="2.774" fill="#deedff"/>
    </g>
    <g id="Group_46135" data-name="Group 46135" transform="translate(193.398 83.321)">
      <rect id="Rectangle_20837" data-name="Rectangle 20837" width="2.937" height="2.774" fill="#deedff"/>
    </g>
    <g id="Group_46136" data-name="Group 46136" transform="translate(197.422 83.321)">
      <rect id="Rectangle_20838" data-name="Rectangle 20838" width="2.937" height="2.774" fill="#deedff"/>
    </g>
    <g id="Group_46137" data-name="Group 46137" transform="translate(201.447 83.321)">
      <rect id="Rectangle_20839" data-name="Rectangle 20839" width="2.937" height="2.774" fill="#deedff"/>
    </g>
    <g id="Group_46138" data-name="Group 46138" transform="translate(205.471 83.321)">
      <rect id="Rectangle_20840" data-name="Rectangle 20840" width="2.937" height="2.774" fill="#deedff"/>
    </g>
    <g id="Group_46139" data-name="Group 46139" transform="translate(209.495 83.321)">
      <rect id="Rectangle_20841" data-name="Rectangle 20841" width="2.937" height="2.774" fill="#deedff"/>
    </g>
    <g id="Group_46140" data-name="Group 46140" transform="translate(185.349 87.182)">
      <rect id="Rectangle_20842" data-name="Rectangle 20842" width="2.937" height="2.774" fill="#deedff"/>
    </g>
    <g id="Group_46141" data-name="Group 46141" transform="translate(189.373 87.182)">
      <rect id="Rectangle_20843" data-name="Rectangle 20843" width="2.937" height="2.774" fill="#deedff"/>
    </g>
    <g id="Group_46142" data-name="Group 46142" transform="translate(193.398 87.182)">
      <rect id="Rectangle_20844" data-name="Rectangle 20844" width="2.937" height="2.774" fill="#deedff"/>
    </g>
    <g id="Group_46143" data-name="Group 46143" transform="translate(197.422 87.182)">
      <rect id="Rectangle_20845" data-name="Rectangle 20845" width="2.937" height="2.774" fill="#deedff"/>
    </g>
    <g id="Group_46144" data-name="Group 46144" transform="translate(201.447 87.182)">
      <rect id="Rectangle_20846" data-name="Rectangle 20846" width="2.937" height="2.774" fill="#deedff"/>
    </g>
    <g id="Group_46145" data-name="Group 46145" transform="translate(205.471 87.182)">
      <rect id="Rectangle_20847" data-name="Rectangle 20847" width="2.937" height="2.774" fill="#deedff"/>
    </g>
    <g id="Group_46146" data-name="Group 46146" transform="translate(209.495 87.182)">
      <rect id="Rectangle_20848" data-name="Rectangle 20848" width="2.937" height="2.774" fill="#deedff"/>
    </g>
    <g id="Group_46147" data-name="Group 46147" transform="translate(185.349 91.043)">
      <rect id="Rectangle_20849" data-name="Rectangle 20849" width="2.937" height="2.774" fill="#deedff"/>
    </g>
    <g id="Group_46148" data-name="Group 46148" transform="translate(189.373 91.043)">
      <rect id="Rectangle_20850" data-name="Rectangle 20850" width="2.937" height="2.774" fill="#deedff"/>
    </g>
    <g id="Group_46149" data-name="Group 46149" transform="translate(193.398 91.043)">
      <rect id="Rectangle_20851" data-name="Rectangle 20851" width="2.937" height="2.774" fill="#deedff"/>
    </g>
    <g id="Group_46150" data-name="Group 46150" transform="translate(197.422 91.043)">
      <rect id="Rectangle_20852" data-name="Rectangle 20852" width="2.937" height="2.774" fill="#deedff"/>
    </g>
    <g id="Group_46151" data-name="Group 46151" transform="translate(201.447 91.043)">
      <rect id="Rectangle_20853" data-name="Rectangle 20853" width="2.937" height="2.774" fill="#deedff"/>
    </g>
    <g id="Group_46152" data-name="Group 46152" transform="translate(205.471 91.043)">
      <rect id="Rectangle_20854" data-name="Rectangle 20854" width="2.937" height="2.774" fill="#deedff"/>
    </g>
    <g id="Group_46153" data-name="Group 46153" transform="translate(209.495 91.043)">
      <rect id="Rectangle_20855" data-name="Rectangle 20855" width="2.937" height="2.774" fill="#deedff"/>
    </g>
    <circle id="Ellipse_383" data-name="Ellipse 383" cx="0.306" cy="0.306" r="0.306" transform="translate(145.338 96.544)" fill="#deedff"/>
    <path id="Path_42514" data-name="Path 42514" d="M1250.958,775a.457.457,0,1,0,.9,0Z" transform="translate(-1073.849 -675.975)" fill="#fff"/>
  </g>
</svg>
