<svg xmlns="http://www.w3.org/2000/svg" width="29" height="29" viewBox="0 0 29 29">
  <g id="Group_49178" data-name="Group 49178" transform="translate(-1005 -800)">
    <g id="Group_49152" data-name="Group 49152" transform="translate(1005 800)">
      <circle id="Ellipse_363" data-name="Ellipse 363" cx="14.5" cy="14.5" r="14.5" transform="translate(-0.001 0)" fill="#df493a"/>
      <g id="Page-1" transform="translate(1.954 7.953)">
        <g id="Dribbble-Light-Preview">
          <g id="icons">
            <path id="google_plus-_165_" data-name="google_plus-[#165]" d="M386.027,7288.762v-2.3h-2.448v2.3h-2.447v2.3h2.447v2.3h2.448v-2.3h2.447v-2.3Zm-6.853,0a6.669,6.669,0,0,1,.122,1.484,7.193,7.193,0,0,1-7.493,7.44,7.357,7.357,0,1,1,0-14.686,7.714,7.714,0,0,1,5.229,1.91l-2.118,1.9a4.536,4.536,0,0,0-3.111-1.187,4.669,4.669,0,0,0-4.838,4.542,4.59,4.59,0,0,0,4.838,4.438,4.32,4.32,0,0,0,4.426-3.535h-4.887v-2.3Z" transform="translate(-364 -7283)" fill="#fff" fill-rule="evenodd"/>
          </g>
        </g>
      </g>
    </g>
  </g>
</svg>
