<svg xmlns="http://www.w3.org/2000/svg" xmlns:xlink="http://www.w3.org/1999/xlink" width="159.377" height="132.133" viewBox="0 0 159.377 132.133">
  <defs>
    <clipPath id="clip-path">
      <path id="Path_43948" data-name="Path 43948" d="M55.777,170.459a21.631,21.631,0,0,1-9.068-2.01,15.915,15.915,0,0,1-8.163-8.755c-2.931-8.225,2-16.445,2.828-24.565.961-9.455-5.059-17.5-4.795-26.818a37.1,37.1,0,0,1,9.86-23.72,38.835,38.835,0,0,1,25.078-12.4c13.036-1.129,25.292,2.659,36.686-5.755,6.6-4.877,12.6-10.918,20.32-13.713a25.356,25.356,0,0,1,19.217.677,21.753,21.753,0,0,1,11.985,14.8c2.115,10-3.408,21.354,1.7,30.21,5.55,9.62,19.737,9.707,27.928,17.207,6.147,5.628,7.97,15.065,5.573,23.047-2.849,9.491-10.722,16.592-19.47,20.719-8.153,3.846-17.161,5.466-26.094,6.678a322.734,322.734,0,0,1-53.914,2.827c-5.7-.187-11.593-1.808-17.264-1.408C71.015,167.989,63.21,170.611,55.777,170.459Z" transform="translate(-36.571 -51.161)" fill="none"/>
    </clipPath>
  </defs>
  <g id="Group_46919" data-name="Group 46919" transform="translate(-36.571 -51.161)">
    <g id="OBJECTS" transform="translate(36.571 51.161)">
      <g id="Group_46528" data-name="Group 46528" transform="translate(0)">
        <g id="Group_46527" data-name="Group 46527">
          <g id="Group_46526" data-name="Group 46526" clip-path="url(#clip-path)">
            <g id="Group_46525" data-name="Group 46525" transform="translate(16.949 18.185)">
              <g id="Group_46516" data-name="Group 46516" transform="translate(9.373)" opacity="0.5">
                <g id="Group_46514" data-name="Group 46514">
                  <rect id="Rectangle_20983" data-name="Rectangle 20983" width="31.898" height="8.658" fill="#fff"/>
                </g>
                <g id="Group_46515" data-name="Group 46515" transform="translate(0 12.393)">
                  <rect id="Rectangle_20984" data-name="Rectangle 20984" width="31.898" height="93.84" fill="#fff"/>
                </g>
              </g>
              <g id="Group_46519" data-name="Group 46519" transform="translate(46.734)" opacity="0.5">
                <g id="Group_46517" data-name="Group 46517">
                  <rect id="Rectangle_20985" data-name="Rectangle 20985" width="31.898" height="8.658" fill="#fff"/>
                </g>
                <g id="Group_46518" data-name="Group 46518" transform="translate(0 12.393)">
                  <rect id="Rectangle_20986" data-name="Rectangle 20986" width="31.898" height="93.84" fill="#fff"/>
                </g>
              </g>
              <g id="Group_46522" data-name="Group 46522" transform="translate(84.095)" opacity="0.5">
                <g id="Group_46520" data-name="Group 46520">
                  <rect id="Rectangle_20987" data-name="Rectangle 20987" width="31.898" height="8.658" fill="#fff"/>
                </g>
                <g id="Group_46521" data-name="Group 46521" transform="translate(0 12.393)">
                  <rect id="Rectangle_20988" data-name="Rectangle 20988" width="31.898" height="93.84" fill="#fff"/>
                </g>
              </g>
              <g id="Group_46523" data-name="Group 46523" transform="translate(0 34.655)" opacity="0.5">
                <rect id="Rectangle_20989" data-name="Rectangle 20989" width="33.656" height="71.578" fill="#fff"/>
              </g>
              <g id="Group_46524" data-name="Group 46524" transform="translate(9.361 34.655)" opacity="0.5">
                <rect id="Rectangle_20990" data-name="Rectangle 20990" width="24.295" height="71.578" fill="#adcaff"/>
              </g>
            </g>
          </g>
        </g>
      </g>
      <g id="Group_46529" data-name="Group 46529" transform="translate(6.571 125.443)" opacity="0.1">
        <ellipse id="Ellipse_421" data-name="Ellipse 421" cx="70.939" cy="3.345" rx="70.939" ry="3.345"/>
      </g>
      <g id="Group_46650" data-name="Group 46650" transform="translate(12.361 29.523)">
        <g id="Group_46537" data-name="Group 46537" transform="translate(66.843)">
          <g id="Group_46530" data-name="Group 46530" transform="translate(10.92 0.323)">
            <path id="Path_43949" data-name="Path 43949" d="M286.915,137.7a2.18,2.18,0,1,1,2.181-2.18A2.183,2.183,0,0,1,286.915,137.7Zm0-3.137a.956.956,0,1,0,.957.956A.957.957,0,0,0,286.915,134.568Z" transform="translate(-284.735 -133.344)" fill="#fff"/>
          </g>
          <g id="Group_46531" data-name="Group 46531" transform="translate(6.622 0.153)">
            <path id="Path_43950" data-name="Path 43950" d="M279.405,137.6h-6.044a.459.459,0,0,1,0-.918h5.585v-3.345a.459.459,0,1,1,.918,0v3.8A.459.459,0,0,1,279.405,137.6Z" transform="translate(-272.902 -132.876)" fill="#8cb5ff"/>
          </g>
          <g id="Group_46532" data-name="Group 46532" transform="translate(0 91.592)">
            <path id="Path_43951" data-name="Path 43951" d="M268.218,392.706a.612.612,0,0,1-.612-.612v-.349a5.857,5.857,0,0,0-11.715,0v.349a.612.612,0,1,1-1.224,0v-.349a7.081,7.081,0,1,1,14.163,0v.349A.612.612,0,0,1,268.218,392.706Z" transform="translate(-254.667 -384.663)" fill="#8cb5ff"/>
          </g>
          <g id="Group_46533" data-name="Group 46533" transform="translate(6.469)">
            <path id="Path_43952" data-name="Path 43952" d="M273.092,232.09a.612.612,0,0,1-.612-.612V133.067a.612.612,0,0,1,1.224,0v98.411A.612.612,0,0,1,273.092,232.09Z" transform="translate(-272.48 -132.455)" fill="#8cb5ff"/>
          </g>
          <g id="Group_46534" data-name="Group 46534" transform="translate(8.688 2.12)">
            <rect id="Rectangle_20991" data-name="Rectangle 20991" width="8.874" height="14.299" rx="4.437" transform="translate(8.874 14.299) rotate(180)" fill="#fff"/>
          </g>
          <g id="Group_46535" data-name="Group 46535" transform="translate(9.674 10.954)">
            <path id="Path_43953" data-name="Path 43953" d="M288.208,162.617v2.869a1.666,1.666,0,0,1-1.667,1.667h-3.571a1.667,1.667,0,0,1-1.667-1.667v-2.869Z" transform="translate(-281.304 -162.617)" fill="#fd6e90"/>
          </g>
          <g id="Group_46536" data-name="Group 46536" transform="translate(12.973 16.42)">
            <rect id="Rectangle_20992" data-name="Rectangle 20992" width="0.306" height="26.986" fill="#fff"/>
          </g>
        </g>
        <g id="Group_46541" data-name="Group 46541" transform="translate(61.654 22.031)">
          <g id="Group_46538" data-name="Group 46538">
            <path id="Path_43954" data-name="Path 43954" d="M249.3,206.212l-.326.193c-1.011.6-1.807-.09-2.406-1.105l-5.89-8.769a2.135,2.135,0,0,1,.746-2.922l.326-.193a2.127,2.127,0,0,1,2.915.754l4.829,9.4C250.09,204.582,250.308,205.613,249.3,206.212Z" transform="translate(-240.378 -193.12)" fill="#00a9bf"/>
          </g>
          <g id="Group_46539" data-name="Group 46539" transform="translate(7.893 9.635)">
            <path id="Path_43955" data-name="Path 43955" d="M275.985,222.709l-.4,2.274-13.47-1.459.056-3.872Z" transform="translate(-262.111 -219.652)" fill="#00a9bf"/>
          </g>
          <g id="Group_46540" data-name="Group 46540" transform="translate(21.097 12.413)">
            <path id="Path_43956" data-name="Path 43956" d="M298.47,229.816c-.02.109.767.514.868.564a3.176,3.176,0,0,0,1.6.284,6.62,6.62,0,0,0,2.272-.541,5.149,5.149,0,0,0,.994-.585,4.716,4.716,0,0,0,.454-.39l0,0a.365.365,0,0,0-.119-.585c-.112-.051-.207-.1-.237-.107-.392-.147-.772-.3-1.174-.41-1.2-.328-2.889-1.161-4.089-.485C298.8,228.575,298.706,228.8,298.47,229.816Z" transform="translate(-298.47 -227.299)" fill="#ebaeae"/>
          </g>
        </g>
        <g id="Group_46565" data-name="Group 46565" transform="translate(49.201 2.722)">
          <g id="Group_46544" data-name="Group 46544" transform="translate(7.148 83.893)">
            <g id="Group_46542" data-name="Group 46542" transform="translate(0.256 2.799)">
              <path id="Path_43957" data-name="Path 43957" d="M229.671,380.859l-.856,5.335-2.34-7.529Z" transform="translate(-226.475 -378.664)" fill="#ebaeae"/>
            </g>
            <g id="Group_46543" data-name="Group 46543" transform="translate(0 0)">
              <path id="Path_43958" data-name="Path 43958" d="M225.77,374.6c1.148.629,2.3.721,3.452,1.349.34-.6,1-1.829,1.74-3.279-1.151-.572-2.18-1.118-3.318-1.715A32.581,32.581,0,0,0,225.77,374.6Z" transform="translate(-225.77 -370.957)" fill="#ebaeae"/>
            </g>
          </g>
          <g id="Group_46545" data-name="Group 46545" transform="translate(5.323 86.542)">
            <rect id="Rectangle_20993" data-name="Rectangle 20993" width="3.873" height="4.273" transform="translate(0 0)" fill="#ebaeae"/>
          </g>
          <g id="Group_46546" data-name="Group 46546" transform="translate(5.309 90.814)">
            <path id="Path_43959" data-name="Path 43959" d="M229.427,393.923v1.541h-4.675c-.08-.218-1.653-.833-1.733-1.051a6.614,6.614,0,0,0-.65,1.051h-1.131l-.532-5.447,4.581,1.1,1.3,2.016Z" transform="translate(-220.707 -390.016)" fill="#45c0d0"/>
          </g>
          <g id="Group_46547" data-name="Group 46547" transform="translate(5.309 90.814)">
            <path id="Path_43960" data-name="Path 43960" d="M224.58,390.016l2.006,3.117-5.758-1.879-.121-1.238Z" transform="translate(-220.707 -390.016)" fill="#ebaeae"/>
          </g>
          <g id="Group_46548" data-name="Group 46548" transform="translate(10.812 39.403)">
            <path id="Path_43961" data-name="Path 43961" d="M240.34,277.984c.179.142.453.016.637,0,2.283-.174,2.634-1.779,2.844-3.993.573-5.928-.152-18.763-.3-23.522a22.506,22.506,0,0,1-3.544-1.983c-.167-.111-.469.072-.643.1a3.864,3.864,0,0,0-3.472,4.015c.757,5.634,2.126,15.97,2.106,20.534S238.125,276.227,240.34,277.984Z" transform="translate(-235.859 -248.452)" fill="#00a9bf"/>
          </g>
          <g id="Group_46549" data-name="Group 46549" transform="translate(8.298 64.709)">
            <path id="Path_43962" data-name="Path 43962" d="M228.938,338.537c1.145.6,2.219,1.207,3.352,1.829,4.627-8.977,6.11-11.428,7.115-21.9-1.929-.223-3.9-.22-5.843-.336C233.267,327.466,231.928,331.669,228.938,338.537Z" transform="translate(-228.938 -318.132)" fill="#00a9bf"/>
          </g>
          <g id="Group_46552" data-name="Group 46552">
            <g id="Group_46550" data-name="Group 46550" transform="translate(1.88 19.605)">
              <path id="Path_43963" data-name="Path 43963" d="M212,193.935a2.266,2.266,0,0,0-.733.393Z" transform="translate(-211.265 -193.935)" fill="#005875"/>
            </g>
            <g id="Group_46551" data-name="Group 46551">
              <path id="Path_43964" data-name="Path 43964" d="M220.846,145.836c.019-2.005-.521-4.075-2.26-5.134-1.96-1.193-4.654-.792-6.689.009a9.023,9.023,0,0,0-3.374,2.195,4.184,4.184,0,0,0-1.212,3.1c.074.813.583,1.717.329,2.528-.224.716-1.02,1.117-1.371,1.768a1.624,1.624,0,0,0,.33,1.923c.646.61,1.687.7,2.452,1.177a2.3,2.3,0,0,1,1.084,1.752c.049.723-.276,1.431-.254,2.155a.529.529,0,0,0,.243.5.665.665,0,0,0,.351.029c1.534-.169,3.037-1.051,4.522-.66a3.489,3.489,0,0,0,.978.221,1.834,1.834,0,0,0,1.116-.545,1.878,1.878,0,0,0,.418-.406c.249-.506.1-.729.613-1.138a5.475,5.475,0,0,0,1.312-1.105c.507-.77.171-1.611.242-2.436a16.667,16.667,0,0,1,.743-2.872A12.384,12.384,0,0,0,220.846,145.836Z" transform="translate(-206.087 -139.951)" fill="#7193cf"/>
            </g>
          </g>
          <g id="Group_46553" data-name="Group 46553" transform="translate(1.1 14.056)">
            <path id="Path_43965" data-name="Path 43965" d="M213,203.656l12.4-1.328s-.467-19.287-.47-19.312c-.2-1.91-1.515-2.862-3.2-3.307-.874-.23-1.774-.34-2.663-.492-.441-.075-2.117-.694-2.446-.533l-1.314.642c-1.139.557-2.286,1.04-3.462,1.512-1.639.658-2.9,1.936-2.7,3.832Z" transform="translate(-209.115 -178.657)" fill="#45c0d0"/>
          </g>
          <g id="Group_46554" data-name="Group 46554" transform="translate(8.4 17.896)">
            <path id="Path_43966" data-name="Path 43966" d="M229.866,196.559l6.767-.725a2.441,2.441,0,0,0,2.1-3.044l-1.089-3.56-8.423,1.227Z" transform="translate(-229.217 -189.23)" fill="#45c0d0"/>
          </g>
          <g id="Group_46555" data-name="Group 46555" transform="translate(2.755 36.087)">
            <path id="Path_43967" data-name="Path 43967" d="M218.824,251.248l10.565-6.593-1.091-5.336-12.713.506c-.472,0-1.925,5.5-1.912,6.123C213.718,248.171,216.522,251.248,218.824,251.248Z" transform="translate(-213.673 -239.319)" fill="#45c0d0"/>
          </g>
          <g id="Group_46556" data-name="Group 46556" transform="translate(2.769 41.825)">
            <path id="Path_43968" data-name="Path 43968" d="M217.92,280.717h.652c2.021,0,2.6-1.718,2.6-3.746l1.06-18.15a3.666,3.666,0,0,0-3.659-3.672h-.652c-2.021,0-4.209-.384-4.209,1.644l1.61,20.178C215.321,279,215.9,280.717,217.92,280.717Z" transform="translate(-213.711 -255.12)" fill="#45c0d0"/>
          </g>
          <g id="Group_46557" data-name="Group 46557" transform="translate(4.378 63.676)">
            <path id="Path_43969" data-name="Path 43969" d="M219.088,339.685h3.873l1.033-24.4h-5.851Z" transform="translate(-218.143 -315.288)" fill="#45c0d0"/>
          </g>
          <g id="Group_46558" data-name="Group 46558" transform="translate(6.395 9.952)">
            <path id="Path_43970" data-name="Path 43970" d="M226.154,173.559h0a1.828,1.828,0,0,0,1.623-2.011l-.446-4.193-3.635.39.446,4.19A1.829,1.829,0,0,0,226.154,173.559Z" transform="translate(-223.696 -167.355)" fill="#ebaeae"/>
          </g>
          <g id="Group_46559" data-name="Group 46559" transform="translate(6.288 8.948)">
            <path id="Path_43971" data-name="Path 43971" d="M223.4,164.981l3.636-.39.5,4.675a4.288,4.288,0,0,1-3.84-2.688,6.8,6.8,0,0,1-.238-1.081Z" transform="translate(-223.401 -164.591)" fill="#fd6e90"/>
          </g>
          <g id="Group_46560" data-name="Group 46560" transform="translate(4.857 1.473)">
            <path id="Path_43972" data-name="Path 43972" d="M225.7,154.957a2.191,2.191,0,0,0,.772-.483,3.984,3.984,0,0,0,.986-2.809c.005-.519-.787-7.655-.779-7.657l-7.217.774.417,3.924a19.281,19.281,0,0,0,.465,3.775A4.354,4.354,0,0,0,225.7,154.957Z" transform="translate(-219.463 -144.008)" fill="#ebaeae"/>
          </g>
          <g id="Group_46561" data-name="Group 46561" transform="translate(10.392 6.134)">
            <path id="Path_43973" data-name="Path 43973" d="M235.25,159.3a.116.116,0,0,1-.112-.089l-.095-.394a.116.116,0,0,1,.106-.143l.526-.027-.956-1.631a.116.116,0,0,1,.2-.117l1.052,1.8a.116.116,0,0,1-.094.174l-.577.029.062.258a.116.116,0,0,1-.113.143Z" transform="translate(-234.703 -156.841)" fill="#fd6e90"/>
          </g>
          <g id="Group_46562" data-name="Group 46562" transform="translate(2.877 0.758)">
            <path id="Path_43974" data-name="Path 43974" d="M214.749,152.091a3.619,3.619,0,0,1-.125-.409c-.547-2.221-1.067-4.688.022-6.7a7.215,7.215,0,0,1,2.334-2.388c1.088-.752,6.787-.789,7.024.192.56,4.743-4.307.768-5.844,1.937-2.034,1.547,1.827,4.707-2.171,4.4C215.623,149.091,215.115,151.953,214.749,152.091Z" transform="translate(-214.008 -142.039)" fill="#7193cf"/>
          </g>
          <g id="Group_46563" data-name="Group 46563" transform="translate(6.577 14.056)">
            <path id="Path_43975" data-name="Path 43975" d="M227.414,184.215a29.746,29.746,0,0,1,1.208-5.007,9.383,9.383,0,0,0-2.405-.525l-1.314.642c-.235.115-.47.225-.706.334A43.475,43.475,0,0,0,227.414,184.215Z" transform="translate(-224.197 -178.656)" fill="#ebaeae"/>
          </g>
          <g id="Group_46564" data-name="Group 46564" transform="translate(5.259 19.478)">
            <path id="Path_43976" data-name="Path 43976" d="M224.771,203.315c-.692-3.1-3.721-9.806-4.2-9.728a51.245,51.245,0,0,0,1.629,10.241,5.473,5.473,0,0,0,1.031,2.293,5.782,5.782,0,0,0,2.306,1.355c2.359.928,4.745,1.829,7.116,2.744C232.637,209.678,228.783,205.939,224.771,203.315Z" transform="translate(-220.568 -193.586)" fill="#00a9bf"/>
          </g>
        </g>
        <g id="Group_46620" data-name="Group 46620" transform="translate(0.113 37.738)">
          <g id="Group_46585" data-name="Group 46585" transform="translate(5.908 23.561)">
            <g id="Group_46567" data-name="Group 46567" transform="translate(39.314)">
              <g id="Group_46566" data-name="Group 46566">
                <path id="Path_43977" data-name="Path 43977" d="M199.72,332.259a1.068,1.068,0,0,1-1.024-.768L195.484,320.5a1.07,1.07,0,0,1-.043-.3V302.314a1.067,1.067,0,0,1,2.134,0V320.05l3.168,10.842a1.07,1.07,0,0,1-1.025,1.367Z" transform="translate(-195.442 -301.247)" fill="#adcaff"/>
              </g>
            </g>
            <g id="Group_46569" data-name="Group 46569" transform="translate(3.37)">
              <g id="Group_46568" data-name="Group 46568">
                <path id="Path_43978" data-name="Path 43978" d="M97.535,332.259a1.07,1.07,0,0,1-1.025-1.367l3.168-10.842V302.314a1.067,1.067,0,0,1,2.134,0V320.2a1.071,1.071,0,0,1-.042.3l-3.211,10.988A1.068,1.068,0,0,1,97.535,332.259Z" transform="translate(-96.466 -301.247)" fill="#8cb5ff"/>
              </g>
            </g>
            <g id="Group_46570" data-name="Group 46570" transform="translate(7.425 17.58)">
              <path id="Path_43979" data-name="Path 43979" d="M140.283,351.788H108.7a1.067,1.067,0,1,1,0-2.134h31.584a1.067,1.067,0,0,1,0,2.134Z" transform="translate(-107.632 -349.654)" fill="#adcaff"/>
            </g>
            <g id="Group_46571" data-name="Group 46571" transform="translate(40.366 18.815)">
              <path id="Path_43980" data-name="Path 43980" d="M198.339,353.057" transform="translate(-198.339 -353.057)" fill="none" stroke="#adcaff" stroke-linecap="round" stroke-linejoin="round" stroke-width="5.877"/>
            </g>
            <g id="Group_46576" data-name="Group 46576" transform="translate(39.155 30.017)">
              <g id="Group_46572" data-name="Group 46572" transform="translate(2.24)">
                <path id="Path_43981" data-name="Path 43981" d="M202.805,389.749h0a1.632,1.632,0,0,1-1.632-1.632V383.9h3.264v4.215A1.632,1.632,0,0,1,202.805,389.749Z" transform="translate(-201.173 -383.902)" fill="#7193cf"/>
              </g>
              <g id="Group_46573" data-name="Group 46573" transform="translate(0 1.558)">
                <path id="Path_43982" data-name="Path 43982" d="M200.733,388.306c0,1.066.81,5.065.038,6.628h-2.4a3.37,3.37,0,1,1,0-6.74A13.675,13.675,0,0,1,200.733,388.306Z" transform="translate(-195.004 -388.193)" fill="#7193cf"/>
              </g>
              <g id="Group_46574" data-name="Group 46574" transform="translate(2.134 1.558)">
                <circle id="Ellipse_422" data-name="Ellipse 422" cx="3.37" cy="3.37" r="3.37" fill="#adcaff"/>
              </g>
              <g id="Group_46575" data-name="Group 46575" transform="translate(3.872)">
                <path id="Path_43983" data-name="Path 43983" d="M207.3,389.749h0a1.632,1.632,0,0,1-1.632-1.632V383.9h3.264v4.215A1.632,1.632,0,0,1,207.3,389.749Z" transform="translate(-205.667 -383.902)" fill="#8cb5ff"/>
              </g>
            </g>
            <g id="Group_46583" data-name="Group 46583" transform="translate(0 29.153)">
              <g id="Group_46581" data-name="Group 46581" transform="translate(0 0.865)">
                <g id="Group_46577" data-name="Group 46577" transform="translate(2.24)">
                  <path id="Path_43984" data-name="Path 43984" d="M94.988,389.749h0a1.632,1.632,0,0,1-1.632-1.632V383.9H96.62v4.215A1.632,1.632,0,0,1,94.988,389.749Z" transform="translate(-93.356 -383.902)" fill="#7193cf"/>
                </g>
                <g id="Group_46578" data-name="Group 46578" transform="translate(0 1.558)">
                  <path id="Path_43985" data-name="Path 43985" d="M92.916,388.306c0,1.066.81,5.065.037,6.628h-2.4a3.37,3.37,0,1,1,0-6.74A13.684,13.684,0,0,1,92.916,388.306Z" transform="translate(-87.187 -388.193)" fill="#adcaff"/>
                </g>
                <g id="Group_46579" data-name="Group 46579" transform="translate(2.135 1.558)">
                  <circle id="Ellipse_423" data-name="Ellipse 423" cx="3.37" cy="3.37" r="3.37" fill="#7193cf"/>
                </g>
                <g id="Group_46580" data-name="Group 46580" transform="translate(3.872)">
                  <path id="Path_43986" data-name="Path 43986" d="M99.482,389.749h0a1.632,1.632,0,0,1-1.632-1.632V383.9h3.264v4.215A1.632,1.632,0,0,1,99.482,389.749Z" transform="translate(-97.85 -383.902)" fill="#adcaff"/>
                </g>
              </g>
              <g id="Group_46582" data-name="Group 46582" transform="translate(2.24)">
                <rect id="Rectangle_20994" data-name="Rectangle 20994" width="4.896" height="1.056" fill="#adcaff"/>
              </g>
            </g>
            <g id="Group_46584" data-name="Group 46584" transform="translate(41.395 29.153)">
              <rect id="Rectangle_20995" data-name="Rectangle 20995" width="4.896" height="1.056" fill="#8cb5ff"/>
            </g>
          </g>
          <g id="Group_46605" data-name="Group 46605" transform="translate(82.154 23.609)">
            <g id="Group_46587" data-name="Group 46587" transform="translate(39.314)">
              <g id="Group_46586" data-name="Group 46586">
                <path id="Path_43987" data-name="Path 43987" d="M409.669,332.391a1.068,1.068,0,0,1-1.024-.768l-3.211-10.989a1.057,1.057,0,0,1-.043-.3V302.446a1.067,1.067,0,0,1,2.134,0v17.736l3.168,10.842a1.068,1.068,0,0,1-1.024,1.367Z" transform="translate(-405.391 -301.379)" fill="#adcaff"/>
              </g>
            </g>
            <g id="Group_46589" data-name="Group 46589" transform="translate(3.37)">
              <g id="Group_46588" data-name="Group 46588">
                <path id="Path_43988" data-name="Path 43988" d="M307.484,332.391a1.068,1.068,0,0,1-1.025-1.367l3.169-10.842V302.446a1.067,1.067,0,0,1,2.134,0v17.889a1.067,1.067,0,0,1-.043.3l-3.211,10.989A1.068,1.068,0,0,1,307.484,332.391Z" transform="translate(-306.416 -301.379)" fill="#8cb5ff"/>
              </g>
            </g>
            <g id="Group_46590" data-name="Group 46590" transform="translate(7.425 17.58)">
              <path id="Path_43989" data-name="Path 43989" d="M350.233,351.92H318.649a1.067,1.067,0,0,1,0-2.134h31.584a1.067,1.067,0,1,1,0,2.134Z" transform="translate(-317.582 -349.786)" fill="#adcaff"/>
            </g>
            <g id="Group_46591" data-name="Group 46591" transform="translate(40.366 18.815)">
              <path id="Path_43990" data-name="Path 43990" d="M408.289,353.188" transform="translate(-408.289 -353.188)" fill="none" stroke="#adcaff" stroke-linecap="round" stroke-linejoin="round" stroke-width="5.877"/>
            </g>
            <g id="Group_46596" data-name="Group 46596" transform="translate(39.155 30.017)">
              <g id="Group_46592" data-name="Group 46592" transform="translate(2.24)">
                <path id="Path_43991" data-name="Path 43991" d="M412.755,389.881h0a1.632,1.632,0,0,1-1.632-1.632v-4.214h3.264v4.214A1.632,1.632,0,0,1,412.755,389.881Z" transform="translate(-411.123 -384.034)" fill="#7193cf"/>
              </g>
              <g id="Group_46593" data-name="Group 46593" transform="translate(0 1.558)">
                <path id="Path_43992" data-name="Path 43992" d="M410.683,388.437c0,1.066.81,5.066.037,6.628h-2.4a3.37,3.37,0,0,1,0-6.74A13.726,13.726,0,0,1,410.683,388.437Z" transform="translate(-404.954 -388.325)" fill="#7193cf"/>
              </g>
              <g id="Group_46594" data-name="Group 46594" transform="translate(2.134 1.558)">
                <circle id="Ellipse_424" data-name="Ellipse 424" cx="3.37" cy="3.37" r="3.37" fill="#adcaff"/>
              </g>
              <g id="Group_46595" data-name="Group 46595" transform="translate(3.872)">
                <path id="Path_43993" data-name="Path 43993" d="M417.249,389.881h0a1.632,1.632,0,0,1-1.632-1.632v-4.214h3.264v4.214A1.632,1.632,0,0,1,417.249,389.881Z" transform="translate(-415.617 -384.034)" fill="#8cb5ff"/>
              </g>
            </g>
            <g id="Group_46603" data-name="Group 46603" transform="translate(0 29.152)">
              <g id="Group_46601" data-name="Group 46601" transform="translate(0 0.865)">
                <g id="Group_46597" data-name="Group 46597" transform="translate(2.24)">
                  <path id="Path_43994" data-name="Path 43994" d="M304.938,389.881h0a1.632,1.632,0,0,1-1.632-1.632v-4.214h3.264v4.214A1.632,1.632,0,0,1,304.938,389.881Z" transform="translate(-303.306 -384.034)" fill="#7193cf"/>
                </g>
                <g id="Group_46598" data-name="Group 46598" transform="translate(0 1.558)">
                  <path id="Path_43995" data-name="Path 43995" d="M302.866,388.437c0,1.066.81,5.066.037,6.628h-2.4a3.37,3.37,0,1,1,0-6.74A13.732,13.732,0,0,1,302.866,388.437Z" transform="translate(-297.137 -388.325)" fill="#adcaff"/>
                </g>
                <g id="Group_46599" data-name="Group 46599" transform="translate(2.134 1.558)">
                  <circle id="Ellipse_425" data-name="Ellipse 425" cx="3.37" cy="3.37" r="3.37" fill="#7193cf"/>
                </g>
                <g id="Group_46600" data-name="Group 46600" transform="translate(3.872)">
                  <path id="Path_43996" data-name="Path 43996" d="M309.432,389.881h0a1.632,1.632,0,0,1-1.632-1.632v-4.214h3.264v4.214A1.632,1.632,0,0,1,309.432,389.881Z" transform="translate(-307.8 -384.034)" fill="#adcaff"/>
                </g>
              </g>
              <g id="Group_46602" data-name="Group 46602" transform="translate(2.24)">
                <rect id="Rectangle_20996" data-name="Rectangle 20996" width="4.896" height="1.056" fill="#adcaff"/>
              </g>
            </g>
            <g id="Group_46604" data-name="Group 46604" transform="translate(41.395 29.152)">
              <rect id="Rectangle_20997" data-name="Rectangle 20997" width="4.896" height="1.056" fill="#8cb5ff"/>
            </g>
          </g>
          <g id="Group_46612" data-name="Group 46612" transform="translate(77.701)">
            <g id="Group_46607" data-name="Group 46607" transform="translate(1.123)">
              <g id="Group_46606" data-name="Group 46606">
                <path id="Path_43997" data-name="Path 43997" d="M333.35,261.045H287.968V236.369H333.35Zm-42.8-2.584h40.214V238.953H290.552Z" transform="translate(-287.968 -236.369)" fill="#adcaff"/>
              </g>
            </g>
            <g id="Group_46609" data-name="Group 46609">
              <g id="Group_46608" data-name="Group 46608">
                <path id="Path_43998" data-name="Path 43998" d="M330.257,261.045H284.875V236.369h45.381Z" transform="translate(-284.875 -236.369)" fill="#7193cf"/>
              </g>
            </g>
            <g id="Group_46610" data-name="Group 46610" transform="translate(0.786 6.01)">
              <rect id="Rectangle_20998" data-name="Rectangle 20998" width="43.303" height="16.869" fill="#7193cf"/>
            </g>
            <g id="Group_46611" data-name="Group 46611" transform="translate(13.93 4.939)" opacity="0.1">
              <path id="Path_43999" data-name="Path 43999" d="M346.272,266.786h-23.04l10.185-15.746,19.606-1.07Z" transform="translate(-323.232 -249.97)"/>
            </g>
          </g>
          <g id="Group_46616" data-name="Group 46616" transform="translate(65.934 1.079)">
            <g id="Group_46614" data-name="Group 46614" transform="translate(29.81)">
              <g id="Group_46613" data-name="Group 46613">
                <path id="Path_44000" data-name="Path 44000" d="M360.237,243.2l-18.957,19.561-6.72-1.292,22.5-22.129Z" transform="translate(-334.559 -239.341)" fill="#8cb5ff"/>
              </g>
            </g>
            <g id="Group_46615" data-name="Group 46615">
              <path id="Path_44001" data-name="Path 44001" d="M275.67,239.341,252.475,261.47l29.153.786,23.152-22.915Z" transform="translate(-252.475 -239.341)" fill="#fff"/>
            </g>
          </g>
          <g id="Group_46617" data-name="Group 46617" transform="translate(0 18.835)">
            <rect id="Rectangle_20999" data-name="Rectangle 20999" width="123.082" height="5.841" fill="#8cb5ff"/>
          </g>
          <g id="Group_46618" data-name="Group 46618" transform="translate(0 24.676)">
            <rect id="Rectangle_21000" data-name="Rectangle 21000" width="45.176" height="7.47" fill="#8cb5ff"/>
          </g>
          <g id="Group_46619" data-name="Group 46619" transform="translate(45.176 24.676)">
            <rect id="Rectangle_21001" data-name="Rectangle 21001" width="79.03" height="7.47" transform="translate(0)" fill="#adcaff"/>
          </g>
        </g>
        <g id="Group_46623" data-name="Group 46623" transform="translate(67.73 42.273)">
          <g id="Group_46621" data-name="Group 46621" transform="translate(6.398)">
            <path id="Path_44002" data-name="Path 44002" d="M274.727,250.874l.224,2.683,16.672-.069-.492-4.629Z" transform="translate(-274.727 -248.858)" fill="#ebaeae"/>
          </g>
          <g id="Group_46622" data-name="Group 46622" transform="translate(0 1.485)">
            <path id="Path_44003" data-name="Path 44003" d="M264.044,256.147a7.627,7.627,0,0,1-6.7-1.194c-1.348-.909,3.434-2.962,6.285-1.489C264.71,254.023,263.88,254.939,264.044,256.147Z" transform="translate(-257.109 -252.947)" fill="#ebaeae"/>
          </g>
        </g>
        <g id="Group_46624" data-name="Group 46624" transform="translate(78.263 29.934)">
          <path id="Path_44004" data-name="Path 44004" d="M286.112,241.825h19.531s5.285-18.338,5.295-18.369c1.581-5.19-5.25-7.5-9.079-8.229-3.122-.6-7.939-.862-9.039,3.007Z" transform="translate(-286.112 -214.88)" fill="#45c0d0"/>
        </g>
        <g id="Group_46630" data-name="Group 46630" transform="translate(89.545 15.235)">
          <g id="Group_46625" data-name="Group 46625" transform="translate(2.988 10.971)">
            <path id="Path_44005" data-name="Path 44005" d="M326.948,211.035h0a1.878,1.878,0,0,1-1.511-2.183l.771-4.237,3.694.672-.771,4.237A1.877,1.877,0,0,1,326.948,211.035Z" transform="translate(-325.407 -204.615)" fill="#ebaeae"/>
          </g>
          <g id="Group_46626" data-name="Group 46626" transform="translate(3.113 9.954)">
            <path id="Path_44006" data-name="Path 44006" d="M330.308,202.488l-3.694-.672-.861,4.733a4.4,4.4,0,0,0,4.135-2.453,7.007,7.007,0,0,0,.325-1.086Z" transform="translate(-325.752 -201.816)" fill="#fd6e90"/>
          </g>
          <g id="Group_46627" data-name="Group 46627" transform="translate(0.947 2.163)">
            <path id="Path_44007" data-name="Path 44007" d="M321.352,191.611a2.257,2.257,0,0,1-.755-.551,4.069,4.069,0,0,1-.8-2.941c.033-.53,1.383-7.754,1.375-7.755l7.333,1.335q-.361,1.987-.723,3.973a19.658,19.658,0,0,1-.76,3.818A4.478,4.478,0,0,1,321.352,191.611Z" transform="translate(-319.787 -180.363)" fill="#ebaeae"/>
          </g>
          <g id="Group_46628" data-name="Group 46628" transform="translate(2.25 7.04)">
            <path id="Path_44008" data-name="Path 44008" d="M324.095,196.262a.119.119,0,0,1-.035-.005.116.116,0,0,1-.075-.146l.084-.261-.592-.074a.116.116,0,0,1-.081-.181l1.213-1.753a.116.116,0,1,1,.19.132l-1.1,1.6.541.068a.114.114,0,0,1,.083.053.118.118,0,0,1,.013.1l-.127.394A.117.117,0,0,1,324.095,196.262Z" transform="translate(-323.375 -193.792)" fill="#fd6e90"/>
          </g>
          <g id="Group_46629" data-name="Group 46629">
            <path id="Path_44009" data-name="Path 44009" d="M325.821,185.835a1.271,1.271,0,0,1-1.386-.936,2.469,2.469,0,0,1,.271-1.777,3.95,3.95,0,0,0,.423-.966.873.873,0,0,0-.333-.933c-.151-.087-.336-.107-.483-.2a.911.911,0,0,1-.293-.918,4.144,4.144,0,0,0,.142-1.007,1.6,1.6,0,0,0-1.636-1.221,11.878,11.878,0,0,0-2.194.378,3.117,3.117,0,0,1-2.427-.489,1.778,1.778,0,0,1-.5-2.266,2.223,2.223,0,0,1,2.221-.715c.813.125,1.59.459,2.411.5a9.007,9.007,0,0,0,2.918-.6,4.088,4.088,0,0,1,2.926,0,2.417,2.417,0,0,1,1.205,2.755c-.233.794-.887,1.571-.593,2.344.188.494.718.784.947,1.261.789,1.641-1.235,1.4-1.959,1.884C326.529,183.562,327.248,185.512,325.821,185.835Z" transform="translate(-317.18 -174.406)" fill="#fd6e90"/>
          </g>
        </g>
        <g id="Group_46631" data-name="Group 46631" transform="translate(91.974 29.988)">
          <path id="Path_44010" data-name="Path 44010" d="M323.867,215.03l.077,4.33,6.217-2.816a22.769,22.769,0,0,0-4.2-1.222A20.128,20.128,0,0,0,323.867,215.03Z" transform="translate(-323.867 -215.03)" fill="#ebaeae"/>
        </g>
        <g id="Group_46632" data-name="Group 46632" transform="translate(46.269 45.673)">
          <path id="Path_44011" data-name="Path 44011" d="M244.352,278.372l-27.905,6.25a9.52,9.52,0,0,1-11.6-9.289V263.616l-6.833-5.4h36.448A14.339,14.339,0,0,1,248.8,272.559v.257A5.694,5.694,0,0,1,244.352,278.372Z" transform="translate(-198.014 -258.22)" fill="#fff"/>
        </g>
        <g id="Group_46633" data-name="Group 46633" transform="translate(24.146 45.565)">
          <path id="Path_44012" data-name="Path 44012" d="M166.053,269.916l-28.956-.987v-6.06a4.948,4.948,0,0,1,4.948-4.949H160.59a5.5,5.5,0,0,1,5.5,5.5Z" transform="translate(-137.097 -257.921)" fill="#8cb5ff"/>
        </g>
        <g id="Group_46640" data-name="Group 46640" transform="translate(0 42.981)">
          <g id="Group_46635" data-name="Group 46635" transform="translate(1.124)">
            <g id="Group_46634" data-name="Group 46634">
              <path id="Path_44013" data-name="Path 44013" d="M119.085,270.239H73.7V250.806h45.382Zm-42.8-2.583H116.5V253.39H76.287Z" transform="translate(-73.703 -250.806)" fill="#adcaff"/>
            </g>
          </g>
          <g id="Group_46636" data-name="Group 46636" transform="translate(1.124 6.01)">
            <rect id="Rectangle_21002" data-name="Rectangle 21002" width="43.303" height="11.626" fill="#147f7d"/>
          </g>
          <g id="Group_46638" data-name="Group 46638">
            <g id="Group_46637" data-name="Group 46637">
              <path id="Path_44014" data-name="Path 44014" d="M115.991,270.239H70.609V250.806h45.382Zm-42.8-2.583h40.214V253.39H73.193Z" transform="translate(-70.609 -250.806)" fill="#7193cf"/>
            </g>
          </g>
          <g id="Group_46639" data-name="Group 46639" transform="translate(0 6.01)">
            <rect id="Rectangle_21003" data-name="Rectangle 21003" width="43.303" height="11.626" fill="#7193cf"/>
          </g>
        </g>
        <g id="Group_46645" data-name="Group 46645" transform="translate(70.495 32.968)">
          <g id="Group_46641" data-name="Group 46641" transform="translate(20.979 2.699)">
            <path id="Path_44015" data-name="Path 44015" d="M323.461,245.526l.4.184c1.249.569,2.089-.327,2.658-1.576l5.748-10.883c.569-1.249-1-.328-2.251-.9,0,0-2.108-2.6-2.677-1.347l-4.437,11.48C322.336,243.736,322.212,244.957,323.461,245.526Z" transform="translate(-322.491 -230.667)" fill="#ebaeae"/>
          </g>
          <g id="Group_46642" data-name="Group 46642" transform="translate(6.398 13.083)">
            <path id="Path_44016" data-name="Path 44016" d="M282.342,261.276l.224,2.683,16.672-.069-.492-4.63Z" transform="translate(-282.342 -259.26)" fill="#ebaeae"/>
          </g>
          <g id="Group_46643" data-name="Group 46643" transform="translate(0 14.568)">
            <path id="Path_44017" data-name="Path 44017" d="M271.66,266.549a7.626,7.626,0,0,1-6.7-1.194c-1.348-.909,3.434-2.962,6.284-1.489C272.326,264.425,271.5,265.341,271.66,266.549Z" transform="translate(-264.725 -263.349)" fill="#ebaeae"/>
          </g>
          <g id="Group_46644" data-name="Group 46644" transform="translate(22.475)">
            <path id="Path_44018" data-name="Path 44018" d="M326.612,232.405l5.772,2.332,4.011-6.973-6.879-4.529Z" transform="translate(-326.612 -223.235)" fill="#45c0d0"/>
          </g>
        </g>
        <g id="Group_46649" data-name="Group 46649" transform="translate(50.997 21.224)">
          <g id="Group_46646" data-name="Group 46646">
            <path id="Path_44019" data-name="Path 44019" d="M216.616,205.375l-.368.093c-1.139.287-1.708-.6-1.993-1.743L211.1,193.644a2.135,2.135,0,0,1,1.545-2.589l.368-.093a2.126,2.126,0,0,1,2.58,1.551l1.961,10.382C217.839,204.038,217.755,205.089,216.616,205.375Z" transform="translate(-211.035 -190.897)" fill="#45c0d0"/>
          </g>
          <g id="Group_46647" data-name="Group 46647" transform="translate(4.479 10.888)">
            <path id="Path_44020" data-name="Path 44020" d="M236.9,227.734l-1.034,2.066-12.5-5.226,1.154-3.7Z" transform="translate(-223.367 -220.878)" fill="#45c0d0"/>
          </g>
          <g id="Group_46648" data-name="Group 46648" transform="translate(16.732 17.647)">
            <path id="Path_44021" data-name="Path 44021" d="M257.111,241.542c-.05.1.59.711.672.787a3.173,3.173,0,0,0,1.451.726,6.621,6.621,0,0,0,2.332.126,5.164,5.164,0,0,0,1.119-.279,4.68,4.68,0,0,0,.546-.245l0,0a.365.365,0,0,0,.052-.6c-.093-.08-.171-.15-.2-.169-.333-.252-.655-.507-1.01-.727-1.059-.656-2.44-1.935-3.783-1.627C257.782,240.446,257.627,240.632,257.111,241.542Z" transform="translate(-257.108 -239.49)" fill="#ebaeae"/>
          </g>
        </g>
      </g>
    </g>
  </g>
</svg>
