<svg id="Group_1_" data-name="Group (1)" xmlns="http://www.w3.org/2000/svg" width="37.175" height="40.911" viewBox="0 0 37.175 40.911">
  <path id="Path_42389" data-name="Path 42389" d="M36.416,9.171a.7.7,0,1,0-.7-.7A.7.7,0,0,0,36.416,9.171Z" transform="translate(0.057 0.177)" fill="#fff"/>
  <path id="Path_42390" data-name="Path 42390" d="M24.165,1.756C21.613,0,19.1-.442,16.7.442,9.94,2.926,6.561,15.15,6.421,15.669a.7.7,0,0,0,1.353.367c.033-.12,3.33-12.045,9.414-14.278,1.976-.726,4-.347,6.182,1.155,4.466,3.07,6.648,8.234,5.987,14.167C28.65,23.439,24.8,29.221,20,31.142A13.508,13.508,0,0,0,15.467,34.4c-1.574,1.54-2.714,2.65-4.973,2.105-1.164-.281-1.858-1.928-2.528-3.52-.24-.573-.469-1.113-.723-1.607A.7.7,0,0,0,6,32.019c.23.445.447.961.677,1.507.768,1.824,1.638,3.892,3.491,4.34a6.194,6.194,0,0,0,1.456.185c2.116,0,3.44-1.295,4.827-2.651a12.175,12.175,0,0,1,4.073-2.956c5.261-2.1,9.468-8.359,10.231-15.21C31.472,10.77,29.071,5.129,24.165,1.756Z" transform="translate(-0.621 0)" fill="#fff"/>
  <path id="Path_42391" data-name="Path 42391" d="M24,22.244a.7.7,0,0,0-.941.314c-1.286,2.572-2.946,4.256-4.676,4.744a5.092,5.092,0,0,1-4.145-.817,3.366,3.366,0,0,0-3.063-.541,3.221,3.221,0,0,0-1.714,2.044.7.7,0,0,0,.5.857.693.693,0,0,0,.179.024.7.7,0,0,0,.677-.523,1.832,1.832,0,0,1,.875-1.1,2.224,2.224,0,0,1,1.8.428,6.435,6.435,0,0,0,5.269.977c2.71-.764,4.513-3.395,5.549-5.467A.7.7,0,0,0,24,22.244Z" transform="translate(-0.541 0.505)" fill="#fff"/>
  <path id="Path_42392" data-name="Path 42392" d="M31.6,30.415v1.4a.7.7,0,0,0,1.4,0v-1.4a.7.7,0,0,0-1.4,0Z" transform="translate(-0.036 0.677)" fill="#fff"/>
  <path id="Path_42393" data-name="Path 42393" d="M32.3,33.828a.7.7,0,0,0-.7.7v1.4a.7.7,0,0,0,1.4,0v-1.4A.7.7,0,0,0,32.3,33.828Z" transform="translate(-0.036 0.77)" fill="#fff"/>
  <path id="Path_42394" data-name="Path 42394" d="M30.961,32.456h-1.4a.7.7,0,1,0,0,1.4h1.4a.7.7,0,1,0,0-1.4Z" transform="translate(-0.099 0.739)" fill="#fff"/>
  <path id="Path_42395" data-name="Path 42395" d="M35.075,32.456h-1.4a.7.7,0,1,0,0,1.4h1.4a.7.7,0,1,0,0-1.4Z" transform="translate(-0.005 0.739)" fill="#fff"/>
  <path id="Path_42396" data-name="Path 42396" d="M7.753,22.553a.7.7,0,0,0,.7.7h3.217a5.611,5.611,0,1,0,5.2-7.716,5.526,5.526,0,0,0-2,.39,5.745,5.745,0,0,1-.447-6.163c.008,0,.016,0,.024,0,.029-.01,2.89-.992,4.6.32,1.061.815,1.509,2.4,1.332,4.7a.7.7,0,0,0,.645.753l.055,0a.7.7,0,0,0,.7-.648C22,12.08,21.363,10.086,19.9,8.966a5.655,5.655,0,0,0-4.053-.92,5.759,5.759,0,0,1,8.627,1.54.7.7,0,0,0,1.21-.71A7.165,7.165,0,1,0,13.624,16.6a5.623,5.623,0,0,0-1.953,2.451H8.455a.7.7,0,0,0-.7.7v.765H4.267A3.532,3.532,0,0,0,.739,24.041V40.088a.7.7,0,1,0,1.4,0V24.041a2.128,2.128,0,0,1,2.125-2.126H7.753Zm1.4-2.1h3.012a.7.7,0,0,0,.672-.5,4.208,4.208,0,1,1,0,2.405.7.7,0,0,0-.672-.5H9.156Z" transform="translate(-0.739 0.121)" fill="#fff"/>
  <path id="Path_42397" data-name="Path 42397" d="M24.368,20.9a.7.7,0,0,0,.973-.194,9.473,9.473,0,0,0,.745-9.12.7.7,0,1,0-1.255.627,8.15,8.15,0,0,1-.658,7.714A.7.7,0,0,0,24.368,20.9Z" transform="translate(-0.208 0.255)" fill="#fff"/>
  <path id="Path_42398" data-name="Path 42398" d="M33.12,5.582a2.164,2.164,0,1,0-2.163-2.164A2.166,2.166,0,0,0,33.12,5.582Zm0-2.924a.761.761,0,1,1-.76.761A.761.761,0,0,1,33.12,2.657Z" transform="translate(-0.051 0.029)" fill="#fff"/>
  <path id="Path_42399" data-name="Path 42399" d="M16.575,23.666a2.806,2.806,0,1,0-2.806-2.806A2.809,2.809,0,0,0,16.575,23.666Zm0-4.208a1.4,1.4,0,1,1-1.4,1.4A1.4,1.4,0,0,1,16.575,19.458Z" transform="translate(-0.442 0.411)" fill="#fff"/>
</svg>
