<svg xmlns="http://www.w3.org/2000/svg" xmlns:xlink="http://www.w3.org/1999/xlink" width="88.052" height="73" viewBox="0 0 88.052 73">
  <defs>
    <clipPath id="clip-path">
      <path id="Path_43948" data-name="Path 43948" d="M47.182,117.07a11.95,11.95,0,0,1-5.01-1.11,8.792,8.792,0,0,1-4.51-4.837c-1.619-4.544,1.107-9.085,1.562-13.572.531-5.224-2.795-9.671-2.649-14.816a20.494,20.494,0,0,1,5.448-13.1,21.455,21.455,0,0,1,13.855-6.849c7.2-.624,13.973,1.469,20.268-3.18,3.648-2.694,6.962-6.032,11.226-7.576A14.009,14.009,0,0,1,97.99,52.4a12.018,12.018,0,0,1,6.621,8.177c1.168,5.527-1.883,11.8.94,16.69,3.066,5.315,10.9,5.363,15.43,9.506,3.4,3.109,4.4,8.323,3.079,12.733-1.574,5.243-5.923,9.167-10.757,11.447-4.5,2.125-9.481,3.02-14.416,3.69A178.3,178.3,0,0,1,69.1,116.2c-3.147-.1-6.4-1-9.538-.778C55.6,115.706,51.288,117.154,47.182,117.07Z" transform="translate(-36.571 -51.161)" fill="none"/>
    </clipPath>
  </defs>
  <g id="Group_49148" data-name="Group 49148" transform="translate(-36.571 -51.161)">
    <g id="OBJECTS" transform="translate(36.571 51.161)">
      <g id="Group_46528" data-name="Group 46528" transform="translate(0)">
        <g id="Group_46527" data-name="Group 46527">
          <g id="Group_46526" data-name="Group 46526" clip-path="url(#clip-path)">
            <g id="Group_46525" data-name="Group 46525" transform="translate(9.364 10.047)">
              <g id="Group_46516" data-name="Group 46516" transform="translate(5.178)" opacity="0.5">
                <g id="Group_46514" data-name="Group 46514">
                  <rect id="Rectangle_20983" data-name="Rectangle 20983" width="17.623" height="4.783" fill="#fff"/>
                </g>
                <g id="Group_46515" data-name="Group 46515" transform="translate(0 6.847)">
                  <rect id="Rectangle_20984" data-name="Rectangle 20984" width="17.623" height="51.844" fill="#fff"/>
                </g>
              </g>
              <g id="Group_46519" data-name="Group 46519" transform="translate(25.819)" opacity="0.5">
                <g id="Group_46517" data-name="Group 46517">
                  <rect id="Rectangle_20985" data-name="Rectangle 20985" width="17.623" height="4.783" fill="#fff"/>
                </g>
                <g id="Group_46518" data-name="Group 46518" transform="translate(0 6.847)">
                  <rect id="Rectangle_20986" data-name="Rectangle 20986" width="17.623" height="51.844" fill="#fff"/>
                </g>
              </g>
              <g id="Group_46522" data-name="Group 46522" transform="translate(46.461)" opacity="0.5">
                <g id="Group_46520" data-name="Group 46520">
                  <rect id="Rectangle_20987" data-name="Rectangle 20987" width="17.623" height="4.783" fill="#fff"/>
                </g>
                <g id="Group_46521" data-name="Group 46521" transform="translate(0 6.847)">
                  <rect id="Rectangle_20988" data-name="Rectangle 20988" width="17.623" height="51.844" fill="#fff"/>
                </g>
              </g>
              <g id="Group_46523" data-name="Group 46523" transform="translate(0 19.146)" opacity="0.5">
                <rect id="Rectangle_20989" data-name="Rectangle 20989" width="18.594" height="39.545" fill="#fff"/>
              </g>
              <g id="Group_46524" data-name="Group 46524" transform="translate(5.172 19.146)" opacity="0.5">
                <rect id="Rectangle_20990" data-name="Rectangle 20990" width="13.422" height="39.545" fill="#adcaff"/>
              </g>
            </g>
          </g>
        </g>
      </g>
      <g id="Group_46529" data-name="Group 46529" transform="translate(3.63 69.304)" opacity="0.1">
        <ellipse id="Ellipse_421" data-name="Ellipse 421" cx="39.192" cy="1.848" rx="39.192" ry="1.848"/>
      </g>
      <g id="Group_46650" data-name="Group 46650" transform="translate(6.829 16.311)">
        <g id="Group_46537" data-name="Group 46537" transform="translate(36.929)">
          <g id="Group_46530" data-name="Group 46530" transform="translate(6.033 0.178)">
            <path id="Path_43949" data-name="Path 43949" d="M285.94,135.753a1.2,1.2,0,1,1,1.2-1.2A1.206,1.206,0,0,1,285.94,135.753Zm0-1.733a.528.528,0,1,0,.529.528A.529.529,0,0,0,285.94,134.02Z" transform="translate(-284.735 -133.344)" fill="#fff"/>
          </g>
          <g id="Group_46531" data-name="Group 46531" transform="translate(3.659 0.084)">
            <path id="Path_43950" data-name="Path 43950" d="M276.495,135.485h-3.339a.254.254,0,0,1,0-.507h3.086V133.13a.254.254,0,1,1,.507,0v2.1A.254.254,0,0,1,276.495,135.485Z" transform="translate(-272.902 -132.876)" fill="#8cb5ff"/>
          </g>
          <g id="Group_46532" data-name="Group 46532" transform="translate(0 50.603)">
            <path id="Path_43951" data-name="Path 43951" d="M262.153,389.107a.338.338,0,0,1-.338-.338v-.193a3.236,3.236,0,0,0-6.472,0v.193a.338.338,0,1,1-.676,0v-.193a3.912,3.912,0,1,1,7.825,0v.193A.338.338,0,0,1,262.153,389.107Z" transform="translate(-254.667 -384.663)" fill="#8cb5ff"/>
          </g>
          <g id="Group_46533" data-name="Group 46533" transform="translate(3.574)">
            <path id="Path_43952" data-name="Path 43952" d="M272.818,187.5a.338.338,0,0,1-.338-.338v-54.37a.338.338,0,0,1,.676,0v54.37A.338.338,0,0,1,272.818,187.5Z" transform="translate(-272.48 -132.455)" fill="#8cb5ff"/>
          </g>
          <g id="Group_46534" data-name="Group 46534" transform="translate(4.8 1.172)">
            <rect id="Rectangle_20991" data-name="Rectangle 20991" width="4.903" height="7.9" rx="2.451" transform="translate(4.903 7.9) rotate(180)" fill="#fff"/>
          </g>
          <g id="Group_46535" data-name="Group 46535" transform="translate(5.344 6.052)">
            <path id="Path_43953" data-name="Path 43953" d="M285.118,162.617V164.2a.921.921,0,0,1-.921.921h-1.973a.921.921,0,0,1-.921-.921v-1.585Z" transform="translate(-281.304 -162.617)" fill="#fd6e90"/>
          </g>
          <g id="Group_46536" data-name="Group 46536" transform="translate(7.167 9.072)">
            <rect id="Rectangle_20992" data-name="Rectangle 20992" width="0.169" height="14.909" fill="#fff"/>
          </g>
        </g>
        <g id="Group_46541" data-name="Group 46541" transform="translate(34.062 12.172)">
          <g id="Group_46538" data-name="Group 46538">
            <path id="Path_43954" data-name="Path 43954" d="M245.306,200.353l-.18.107c-.559.331-1-.05-1.329-.611L240.542,195a1.18,1.18,0,0,1,.412-1.614l.18-.107a1.175,1.175,0,0,1,1.61.417l2.668,5.192C245.744,199.452,245.864,200.022,245.306,200.353Z" transform="translate(-240.378 -193.12)" fill="#00a9bf"/>
          </g>
          <g id="Group_46539" data-name="Group 46539" transform="translate(4.36 5.323)">
            <path id="Path_43955" data-name="Path 43955" d="M269.776,221.34l-.223,1.256-7.442-.806.031-2.139Z" transform="translate(-262.111 -219.652)" fill="#00a9bf"/>
          </g>
          <g id="Group_46540" data-name="Group 46540" transform="translate(11.656 6.858)">
            <path id="Path_43956" data-name="Path 43956" d="M298.47,228.689c-.011.06.424.284.479.312a1.755,1.755,0,0,0,.883.157,3.657,3.657,0,0,0,1.255-.3,2.843,2.843,0,0,0,.549-.323,2.607,2.607,0,0,0,.251-.215l0,0a.2.2,0,0,0-.066-.323c-.062-.028-.114-.053-.131-.059-.216-.081-.427-.166-.649-.227-.664-.181-1.6-.642-2.259-.268C298.654,228,298.6,228.126,298.47,228.689Z" transform="translate(-298.47 -227.299)" fill="#ebaeae"/>
          </g>
        </g>
        <g id="Group_46565" data-name="Group 46565" transform="translate(27.182 1.504)">
          <g id="Group_46544" data-name="Group 46544" transform="translate(3.949 46.349)">
            <g id="Group_46542" data-name="Group 46542" transform="translate(0.141 1.546)">
              <path id="Path_43957" data-name="Path 43957" d="M228.24,379.876l-.473,2.947-1.293-4.16Z" transform="translate(-226.475 -378.664)" fill="#ebaeae"/>
            </g>
            <g id="Group_46543" data-name="Group 46543" transform="translate(0 0)">
              <path id="Path_43958" data-name="Path 43958" d="M225.77,372.971c.634.347,1.273.4,1.907.745.188-.33.555-1.011.961-1.812-.636-.316-1.2-.618-1.833-.947A18.009,18.009,0,0,0,225.77,372.971Z" transform="translate(-225.77 -370.957)" fill="#ebaeae"/>
            </g>
          </g>
          <g id="Group_46545" data-name="Group 46545" transform="translate(2.941 47.812)">
            <rect id="Rectangle_20993" data-name="Rectangle 20993" width="2.14" height="2.361" transform="translate(0 0)" fill="#ebaeae"/>
          </g>
          <g id="Group_46546" data-name="Group 46546" transform="translate(2.933 50.173)">
            <path id="Path_43959" data-name="Path 43959" d="M225.525,392.174v.851h-2.583c-.044-.12-.913-.46-.958-.581a3.653,3.653,0,0,0-.359.581H221l-.294-3.01,2.531.608.717,1.114Z" transform="translate(-220.707 -390.016)" fill="#45c0d0"/>
          </g>
          <g id="Group_46547" data-name="Group 46547" transform="translate(2.933 50.173)">
            <path id="Path_43960" data-name="Path 43960" d="M222.847,390.016l1.108,1.722-3.181-1.038-.067-.684Z" transform="translate(-220.707 -390.016)" fill="#ebaeae"/>
          </g>
          <g id="Group_46548" data-name="Group 46548" transform="translate(5.973 21.769)">
            <path id="Path_43961" data-name="Path 43961" d="M238.334,264.768c.1.078.25.009.352,0,1.261-.1,1.455-.983,1.571-2.206.316-3.275-.084-10.366-.167-13a12.434,12.434,0,0,1-1.958-1.1c-.092-.062-.259.04-.355.057a2.135,2.135,0,0,0-1.918,2.218c.418,3.113,1.175,8.823,1.164,11.344S237.111,263.8,238.334,264.768Z" transform="translate(-235.859 -248.452)" fill="#00a9bf"/>
          </g>
          <g id="Group_46549" data-name="Group 46549" transform="translate(4.585 35.75)">
            <path id="Path_43962" data-name="Path 43962" d="M228.938,329.405c.632.331,1.226.667,1.852,1.01,2.557-4.96,3.376-6.314,3.931-12.1-1.066-.123-2.156-.122-3.228-.186A25.628,25.628,0,0,1,228.938,329.405Z" transform="translate(-228.938 -318.132)" fill="#00a9bf"/>
          </g>
          <g id="Group_46552" data-name="Group 46552">
            <g id="Group_46550" data-name="Group 46550" transform="translate(1.039 10.831)">
              <path id="Path_43963" data-name="Path 43963" d="M211.67,193.935a1.252,1.252,0,0,0-.4.217Z" transform="translate(-211.265 -193.935)" fill="#005875"/>
            </g>
            <g id="Group_46551" data-name="Group 46551">
              <path id="Path_43964" data-name="Path 43964" d="M214.241,143.2a3.117,3.117,0,0,0-1.249-2.836,4.341,4.341,0,0,0-3.7,0,4.985,4.985,0,0,0-1.864,1.212,2.311,2.311,0,0,0-.669,1.715c.041.449.322.949.182,1.4-.124.4-.564.617-.757.977a.9.9,0,0,0,.182,1.063c.357.337.932.384,1.355.65a1.269,1.269,0,0,1,.6.968c.027.4-.152.791-.14,1.191a.292.292,0,0,0,.134.274.368.368,0,0,0,.194.016c.848-.093,1.678-.58,2.5-.365a1.927,1.927,0,0,0,.541.122,1.013,1.013,0,0,0,.617-.3,1.038,1.038,0,0,0,.231-.224c.138-.279.055-.4.338-.629a3.025,3.025,0,0,0,.725-.611c.28-.426.094-.89.134-1.346a9.21,9.21,0,0,1,.411-1.587A6.843,6.843,0,0,0,214.241,143.2Z" transform="translate(-206.087 -139.951)" fill="#7193cf"/>
            </g>
          </g>
          <g id="Group_46553" data-name="Group 46553" transform="translate(0.608 7.766)">
            <path id="Path_43965" data-name="Path 43965" d="M211.262,192.468l6.848-.734s-.258-10.656-.26-10.669a2.088,2.088,0,0,0-1.771-1.827c-.483-.127-.98-.188-1.471-.272-.244-.042-1.169-.383-1.351-.295l-.726.355c-.629.308-1.263.574-1.913.835a2.054,2.054,0,0,0-1.491,2.117Z" transform="translate(-209.115 -178.657)" fill="#45c0d0"/>
          </g>
          <g id="Group_46554" data-name="Group 46554" transform="translate(4.641 9.887)">
            <path id="Path_43966" data-name="Path 43966" d="M229.576,193.279l3.739-.4a1.349,1.349,0,0,0,1.158-1.682l-.6-1.967-4.653.678Z" transform="translate(-229.217 -189.23)" fill="#45c0d0"/>
          </g>
          <g id="Group_46555" data-name="Group 46555" transform="translate(1.522 19.937)">
            <path id="Path_43967" data-name="Path 43967" d="M216.518,245.909l5.837-3.643-.6-2.948-7.024.279c-.261,0-1.063,3.04-1.056,3.383A3.5,3.5,0,0,0,216.518,245.909Z" transform="translate(-213.673 -239.319)" fill="#45c0d0"/>
          </g>
          <g id="Group_46556" data-name="Group 46556" transform="translate(1.53 23.107)">
            <path id="Path_43968" data-name="Path 43968" d="M216.036,269.262h.36c1.117,0,1.436-.949,1.436-2.07l.586-10.027a2.025,2.025,0,0,0-2.022-2.029h-.36c-1.116,0-2.325-.212-2.325.908l.889,11.148C214.6,268.313,214.92,269.262,216.036,269.262Z" transform="translate(-213.711 -255.12)" fill="#45c0d0"/>
          </g>
          <g id="Group_46557" data-name="Group 46557" transform="translate(2.419 35.179)">
            <path id="Path_43969" data-name="Path 43969" d="M218.665,328.767h2.14l.571-13.479h-3.232Z" transform="translate(-218.143 -315.288)" fill="#45c0d0"/>
          </g>
          <g id="Group_46558" data-name="Group 46558" transform="translate(3.533 5.498)">
            <path id="Path_43970" data-name="Path 43970" d="M225.054,170.783h0a1.01,1.01,0,0,0,.9-1.111l-.246-2.316-2.008.215.246,2.315A1.01,1.01,0,0,0,225.054,170.783Z" transform="translate(-223.696 -167.355)" fill="#ebaeae"/>
          </g>
          <g id="Group_46559" data-name="Group 46559" transform="translate(3.474 4.944)">
            <path id="Path_43971" data-name="Path 43971" d="M223.4,164.806l2.009-.215.275,2.583a2.369,2.369,0,0,1-2.122-1.485,3.757,3.757,0,0,1-.131-.6Z" transform="translate(-223.401 -164.591)" fill="#fd6e90"/>
          </g>
          <g id="Group_46560" data-name="Group 46560" transform="translate(2.684 0.814)">
            <path id="Path_43972" data-name="Path 43972" d="M222.91,150.057a1.21,1.21,0,0,0,.427-.267,2.2,2.2,0,0,0,.545-1.552c0-.287-.435-4.229-.431-4.23l-3.987.427.231,2.168a10.652,10.652,0,0,0,.257,2.086A2.406,2.406,0,0,0,222.91,150.057Z" transform="translate(-219.463 -144.008)" fill="#ebaeae"/>
          </g>
          <g id="Group_46561" data-name="Group 46561" transform="translate(5.741 3.389)">
            <path id="Path_43973" data-name="Path 43973" d="M235.005,158.2a.064.064,0,0,1-.062-.049l-.052-.217a.064.064,0,0,1,.059-.079l.291-.015-.528-.9a.064.064,0,0,1,.11-.065l.581.992a.064.064,0,0,1-.052.1l-.319.016.035.142a.064.064,0,0,1-.047.077Z" transform="translate(-234.703 -156.841)" fill="#fd6e90"/>
          </g>
          <g id="Group_46562" data-name="Group 46562" transform="translate(1.589 0.419)">
            <path id="Path_43974" data-name="Path 43974" d="M214.418,147.593a2,2,0,0,1-.069-.226,5.217,5.217,0,0,1,.012-3.7,3.986,3.986,0,0,1,1.29-1.319c.6-.416,3.75-.436,3.881.106.309,2.62-2.38.424-3.229,1.07-1.124.855,1.009,2.6-1.2,2.428C214.9,145.935,214.62,147.516,214.418,147.593Z" transform="translate(-214.008 -142.039)" fill="#7193cf"/>
          </g>
          <g id="Group_46563" data-name="Group 46563" transform="translate(3.633 7.766)">
            <path id="Path_43975" data-name="Path 43975" d="M225.974,181.727a16.432,16.432,0,0,1,.667-2.766,5.184,5.184,0,0,0-1.329-.29l-.726.355c-.13.063-.26.124-.39.184A24.019,24.019,0,0,0,225.974,181.727Z" transform="translate(-224.197 -178.656)" fill="#ebaeae"/>
          </g>
          <g id="Group_46564" data-name="Group 46564" transform="translate(2.905 10.761)">
            <path id="Path_43976" data-name="Path 43976" d="M222.89,198.961c-.382-1.711-2.056-5.418-2.322-5.375a28.313,28.313,0,0,0,.9,5.658,3.024,3.024,0,0,0,.57,1.267,3.2,3.2,0,0,0,1.274.749c1.3.513,2.622,1.01,3.932,1.516C227.236,202.476,225.107,200.411,222.89,198.961Z" transform="translate(-220.568 -193.586)" fill="#00a9bf"/>
          </g>
        </g>
        <g id="Group_46620" data-name="Group 46620" transform="translate(0.062 20.849)">
          <g id="Group_46585" data-name="Group 46585" transform="translate(3.264 13.017)">
            <g id="Group_46567" data-name="Group 46567" transform="translate(21.72)">
              <g id="Group_46566" data-name="Group 46566">
                <path id="Path_43977" data-name="Path 43977" d="M197.805,318.381a.59.59,0,0,1-.566-.425l-1.774-6.071a.591.591,0,0,1-.023-.166v-9.883a.59.59,0,0,1,1.179,0v9.8l1.75,5.99a.591.591,0,0,1-.566.755Z" transform="translate(-195.442 -301.247)" fill="#adcaff"/>
              </g>
            </g>
            <g id="Group_46569" data-name="Group 46569" transform="translate(1.862)">
              <g id="Group_46568" data-name="Group 46568">
                <path id="Path_43978" data-name="Path 43978" d="M97.057,318.381a.591.591,0,0,1-.566-.755l1.75-5.99v-9.8a.59.59,0,0,1,1.179,0v9.883a.592.592,0,0,1-.023.166l-1.774,6.071A.59.59,0,0,1,97.057,318.381Z" transform="translate(-96.466 -301.247)" fill="#8cb5ff"/>
              </g>
            </g>
            <g id="Group_46570" data-name="Group 46570" transform="translate(4.102 9.712)">
              <path id="Path_43979" data-name="Path 43979" d="M125.671,350.833H108.222a.59.59,0,1,1,0-1.179h17.449a.59.59,0,0,1,0,1.179Z" transform="translate(-107.632 -349.654)" fill="#adcaff"/>
            </g>
            <g id="Group_46571" data-name="Group 46571" transform="translate(22.301 10.395)">
              <path id="Path_43980" data-name="Path 43980" d="M198.339,353.057" transform="translate(-198.339 -353.057)" fill="none" stroke="#adcaff" stroke-linecap="round" stroke-linejoin="round" stroke-width="5.877"/>
            </g>
            <g id="Group_46576" data-name="Group 46576" transform="translate(21.632 16.584)">
              <g id="Group_46572" data-name="Group 46572" transform="translate(1.238)">
                <path id="Path_43981" data-name="Path 43981" d="M202.075,387.132h0a.9.9,0,0,1-.9-.9V383.9h1.8v2.328A.9.9,0,0,1,202.075,387.132Z" transform="translate(-201.173 -383.902)" fill="#7193cf"/>
              </g>
              <g id="Group_46573" data-name="Group 46573" transform="translate(0 0.861)">
                <path id="Path_43982" data-name="Path 43982" d="M198.169,388.255c0,.589.448,2.8.021,3.662h-1.324a1.862,1.862,0,0,1,0-3.724A7.554,7.554,0,0,1,198.169,388.255Z" transform="translate(-195.004 -388.193)" fill="#7193cf"/>
              </g>
              <g id="Group_46574" data-name="Group 46574" transform="translate(1.179 0.861)">
                <circle id="Ellipse_422" data-name="Ellipse 422" cx="1.862" cy="1.862" r="1.862" fill="#adcaff"/>
              </g>
              <g id="Group_46575" data-name="Group 46575" transform="translate(2.139)">
                <path id="Path_43983" data-name="Path 43983" d="M206.569,387.132h0a.9.9,0,0,1-.9-.9V383.9h1.8v2.328A.9.9,0,0,1,206.569,387.132Z" transform="translate(-205.667 -383.902)" fill="#8cb5ff"/>
              </g>
            </g>
            <g id="Group_46583" data-name="Group 46583" transform="translate(0 16.106)">
              <g id="Group_46581" data-name="Group 46581" transform="translate(0 0.478)">
                <g id="Group_46577" data-name="Group 46577" transform="translate(1.238)">
                  <path id="Path_43984" data-name="Path 43984" d="M94.258,387.132h0a.9.9,0,0,1-.9-.9V383.9h1.8v2.328A.9.9,0,0,1,94.258,387.132Z" transform="translate(-93.356 -383.902)" fill="#7193cf"/>
                </g>
                <g id="Group_46578" data-name="Group 46578" transform="translate(0 0.861)">
                  <path id="Path_43985" data-name="Path 43985" d="M90.352,388.255c0,.589.448,2.8.021,3.662H89.049a1.862,1.862,0,0,1,0-3.724A7.559,7.559,0,0,1,90.352,388.255Z" transform="translate(-87.187 -388.193)" fill="#adcaff"/>
                </g>
                <g id="Group_46579" data-name="Group 46579" transform="translate(1.179 0.861)">
                  <circle id="Ellipse_423" data-name="Ellipse 423" cx="1.862" cy="1.862" r="1.862" fill="#7193cf"/>
                </g>
                <g id="Group_46580" data-name="Group 46580" transform="translate(2.139)">
                  <path id="Path_43986" data-name="Path 43986" d="M98.752,387.132h0a.9.9,0,0,1-.9-.9V383.9h1.8v2.328A.9.9,0,0,1,98.752,387.132Z" transform="translate(-97.85 -383.902)" fill="#adcaff"/>
                </g>
              </g>
              <g id="Group_46582" data-name="Group 46582" transform="translate(1.238)">
                <rect id="Rectangle_20994" data-name="Rectangle 20994" width="2.705" height="0.584" fill="#adcaff"/>
              </g>
            </g>
            <g id="Group_46584" data-name="Group 46584" transform="translate(22.87 16.106)">
              <rect id="Rectangle_20995" data-name="Rectangle 20995" width="2.705" height="0.584" fill="#8cb5ff"/>
            </g>
          </g>
          <g id="Group_46605" data-name="Group 46605" transform="translate(45.388 13.044)">
            <g id="Group_46587" data-name="Group 46587" transform="translate(21.72)">
              <g id="Group_46586" data-name="Group 46586">
                <path id="Path_43987" data-name="Path 43987" d="M407.755,318.512a.59.59,0,0,1-.566-.424l-1.774-6.071a.584.584,0,0,1-.024-.165v-9.883a.59.59,0,0,1,1.179,0v9.8l1.75,5.99a.59.59,0,0,1-.566.755Z" transform="translate(-405.391 -301.379)" fill="#adcaff"/>
              </g>
            </g>
            <g id="Group_46589" data-name="Group 46589" transform="translate(1.862)">
              <g id="Group_46588" data-name="Group 46588">
                <path id="Path_43988" data-name="Path 43988" d="M307.006,318.512a.59.59,0,0,1-.566-.755l1.751-5.99v-9.8a.59.59,0,0,1,1.179,0v9.883a.59.59,0,0,1-.024.165l-1.774,6.071A.59.59,0,0,1,307.006,318.512Z" transform="translate(-306.416 -301.379)" fill="#8cb5ff"/>
              </g>
            </g>
            <g id="Group_46590" data-name="Group 46590" transform="translate(4.102 9.712)">
              <path id="Path_43989" data-name="Path 43989" d="M335.621,350.965H318.172a.59.59,0,0,1,0-1.179h17.449a.59.59,0,1,1,0,1.179Z" transform="translate(-317.582 -349.786)" fill="#adcaff"/>
            </g>
            <g id="Group_46591" data-name="Group 46591" transform="translate(22.301 10.395)">
              <path id="Path_43990" data-name="Path 43990" d="M408.289,353.188" transform="translate(-408.289 -353.188)" fill="none" stroke="#adcaff" stroke-linecap="round" stroke-linejoin="round" stroke-width="5.877"/>
            </g>
            <g id="Group_46596" data-name="Group 46596" transform="translate(21.632 16.584)">
              <g id="Group_46592" data-name="Group 46592" transform="translate(1.238)">
                <path id="Path_43991" data-name="Path 43991" d="M412.025,387.264h0a.9.9,0,0,1-.9-.9v-2.328h1.8v2.328A.9.9,0,0,1,412.025,387.264Z" transform="translate(-411.123 -384.034)" fill="#7193cf"/>
              </g>
              <g id="Group_46593" data-name="Group 46593" transform="translate(0 0.861)">
                <path id="Path_43992" data-name="Path 43992" d="M408.119,388.387c0,.589.448,2.8.021,3.662h-1.324a1.862,1.862,0,0,1,0-3.724A7.585,7.585,0,0,1,408.119,388.387Z" transform="translate(-404.954 -388.325)" fill="#7193cf"/>
              </g>
              <g id="Group_46594" data-name="Group 46594" transform="translate(1.179 0.861)">
                <circle id="Ellipse_424" data-name="Ellipse 424" cx="1.862" cy="1.862" r="1.862" fill="#adcaff"/>
              </g>
              <g id="Group_46595" data-name="Group 46595" transform="translate(2.139)">
                <path id="Path_43993" data-name="Path 43993" d="M416.519,387.264h0a.9.9,0,0,1-.9-.9v-2.328h1.8v2.328A.9.9,0,0,1,416.519,387.264Z" transform="translate(-415.617 -384.034)" fill="#8cb5ff"/>
              </g>
            </g>
            <g id="Group_46603" data-name="Group 46603" transform="translate(0 16.106)">
              <g id="Group_46601" data-name="Group 46601" transform="translate(0 0.478)">
                <g id="Group_46597" data-name="Group 46597" transform="translate(1.238)">
                  <path id="Path_43994" data-name="Path 43994" d="M304.208,387.264h0a.9.9,0,0,1-.9-.9v-2.328h1.8v2.328A.9.9,0,0,1,304.208,387.264Z" transform="translate(-303.306 -384.034)" fill="#7193cf"/>
                </g>
                <g id="Group_46598" data-name="Group 46598" transform="translate(0 0.861)">
                  <path id="Path_43995" data-name="Path 43995" d="M300.3,388.387c0,.589.447,2.8.021,3.662H299a1.862,1.862,0,1,1,0-3.724A7.587,7.587,0,0,1,300.3,388.387Z" transform="translate(-297.137 -388.325)" fill="#adcaff"/>
                </g>
                <g id="Group_46599" data-name="Group 46599" transform="translate(1.179 0.861)">
                  <circle id="Ellipse_425" data-name="Ellipse 425" cx="1.862" cy="1.862" r="1.862" fill="#7193cf"/>
                </g>
                <g id="Group_46600" data-name="Group 46600" transform="translate(2.139)">
                  <path id="Path_43996" data-name="Path 43996" d="M308.7,387.264h0a.9.9,0,0,1-.9-.9v-2.328h1.8v2.328A.9.9,0,0,1,308.7,387.264Z" transform="translate(-307.8 -384.034)" fill="#adcaff"/>
                </g>
              </g>
              <g id="Group_46602" data-name="Group 46602" transform="translate(1.238)">
                <rect id="Rectangle_20996" data-name="Rectangle 20996" width="2.705" height="0.584" fill="#adcaff"/>
              </g>
            </g>
            <g id="Group_46604" data-name="Group 46604" transform="translate(22.87 16.106)">
              <rect id="Rectangle_20997" data-name="Rectangle 20997" width="2.705" height="0.584" fill="#8cb5ff"/>
            </g>
          </g>
          <g id="Group_46612" data-name="Group 46612" transform="translate(42.928)">
            <g id="Group_46607" data-name="Group 46607" transform="translate(0.621)">
              <g id="Group_46606" data-name="Group 46606">
                <path id="Path_43997" data-name="Path 43997" d="M313.04,250H287.968V236.369H313.04ZM289.4,248.575h22.217V237.8H289.4Z" transform="translate(-287.968 -236.369)" fill="#adcaff"/>
              </g>
            </g>
            <g id="Group_46609" data-name="Group 46609">
              <g id="Group_46608" data-name="Group 46608">
                <path id="Path_43998" data-name="Path 43998" d="M309.947,250H284.875V236.369h25.072Z" transform="translate(-284.875 -236.369)" fill="#7193cf"/>
              </g>
            </g>
            <g id="Group_46610" data-name="Group 46610" transform="translate(0.434 3.32)">
              <rect id="Rectangle_20998" data-name="Rectangle 20998" width="23.924" height="9.32" fill="#7193cf"/>
            </g>
            <g id="Group_46611" data-name="Group 46611" transform="translate(7.696 2.729)" opacity="0.1">
              <path id="Path_43999" data-name="Path 43999" d="M335.961,259.26H323.232l5.627-8.7,10.832-.591Z" transform="translate(-323.232 -249.97)"/>
            </g>
          </g>
          <g id="Group_46616" data-name="Group 46616" transform="translate(36.427 0.596)">
            <g id="Group_46614" data-name="Group 46614" transform="translate(16.469)">
              <g id="Group_46613" data-name="Group 46613">
                <path id="Path_44000" data-name="Path 44000" d="M348.745,241.473,338.272,252.28l-3.713-.714,12.428-12.226Z" transform="translate(-334.559 -239.341)" fill="#8cb5ff"/>
              </g>
            </g>
            <g id="Group_46615" data-name="Group 46615">
              <path id="Path_44001" data-name="Path 44001" d="M265.289,239.341l-12.815,12.226,16.106.435,12.791-12.66Z" transform="translate(-252.475 -239.341)" fill="#fff"/>
            </g>
          </g>
          <g id="Group_46617" data-name="Group 46617" transform="translate(0 10.406)">
            <rect id="Rectangle_20999" data-name="Rectangle 20999" width="68" height="3.227" fill="#8cb5ff"/>
          </g>
          <g id="Group_46618" data-name="Group 46618" transform="translate(0 13.633)">
            <rect id="Rectangle_21000" data-name="Rectangle 21000" width="24.959" height="4.127" fill="#8cb5ff"/>
          </g>
          <g id="Group_46619" data-name="Group 46619" transform="translate(24.959 13.633)">
            <rect id="Rectangle_21001" data-name="Rectangle 21001" width="43.662" height="4.127" transform="translate(0)" fill="#adcaff"/>
          </g>
        </g>
        <g id="Group_46623" data-name="Group 46623" transform="translate(37.419 23.355)">
          <g id="Group_46621" data-name="Group 46621" transform="translate(3.535)">
            <path id="Path_44002" data-name="Path 44002" d="M274.727,249.972l.124,1.482,9.211-.038-.272-2.558Z" transform="translate(-274.727 -248.858)" fill="#ebaeae"/>
          </g>
          <g id="Group_46622" data-name="Group 46622" transform="translate(0 0.82)">
            <path id="Path_44003" data-name="Path 44003" d="M260.94,254.715a4.214,4.214,0,0,1-3.7-.66c-.745-.5,1.9-1.636,3.472-.823C261.308,253.541,260.849,254.048,260.94,254.715Z" transform="translate(-257.109 -252.947)" fill="#ebaeae"/>
          </g>
        </g>
        <g id="Group_46624" data-name="Group 46624" transform="translate(43.238 16.538)">
          <path id="Path_44004" data-name="Path 44004" d="M286.112,229.767H296.9s2.92-10.131,2.925-10.149c.873-2.867-2.9-4.141-5.016-4.546-1.725-.33-4.386-.476-4.994,1.661Z" transform="translate(-286.112 -214.88)" fill="#45c0d0"/>
        </g>
        <g id="Group_46630" data-name="Group 46630" transform="translate(49.472 8.417)">
          <g id="Group_46625" data-name="Group 46625" transform="translate(1.651 6.061)">
            <path id="Path_44005" data-name="Path 44005" d="M326.258,208.162h0a1.037,1.037,0,0,1-.835-1.206l.426-2.341,2.041.371-.426,2.341A1.037,1.037,0,0,1,326.258,208.162Z" transform="translate(-325.407 -204.615)" fill="#ebaeae"/>
          </g>
          <g id="Group_46626" data-name="Group 46626" transform="translate(1.72 5.499)">
            <path id="Path_44006" data-name="Path 44006" d="M328.269,202.187l-2.041-.371-.476,2.615a2.433,2.433,0,0,0,2.285-1.355,3.877,3.877,0,0,0,.18-.6Z" transform="translate(-325.752 -201.816)" fill="#fd6e90"/>
          </g>
          <g id="Group_46627" data-name="Group 46627" transform="translate(0.523 1.195)">
            <path id="Path_44007" data-name="Path 44007" d="M320.651,186.577a1.247,1.247,0,0,1-.417-.3,2.248,2.248,0,0,1-.441-1.625c.018-.293.764-4.284.759-4.284l4.052.737-.4,2.195a10.857,10.857,0,0,1-.42,2.109A2.474,2.474,0,0,1,320.651,186.577Z" transform="translate(-319.787 -180.363)" fill="#ebaeae"/>
          </g>
          <g id="Group_46628" data-name="Group 46628" transform="translate(1.243 3.89)">
            <path id="Path_44008" data-name="Path 44008" d="M323.773,195.157a.066.066,0,0,1-.02,0,.064.064,0,0,1-.041-.081l.046-.144-.327-.041a.064.064,0,0,1-.045-.1l.67-.968a.064.064,0,1,1,.105.073l-.61.882.3.038a.063.063,0,0,1,.046.029.065.065,0,0,1,.007.054l-.07.218A.064.064,0,0,1,323.773,195.157Z" transform="translate(-323.375 -193.792)" fill="#fd6e90"/>
          </g>
          <g id="Group_46629" data-name="Group 46629">
            <path id="Path_44009" data-name="Path 44009" d="M321.954,180.72a.7.7,0,0,1-.766-.517,1.364,1.364,0,0,1,.15-.982,2.181,2.181,0,0,0,.234-.533.483.483,0,0,0-.184-.515c-.084-.048-.185-.059-.267-.111a.5.5,0,0,1-.162-.507,2.291,2.291,0,0,0,.078-.556.886.886,0,0,0-.9-.675,6.568,6.568,0,0,0-1.212.209,1.722,1.722,0,0,1-1.341-.27.982.982,0,0,1-.274-1.252,1.228,1.228,0,0,1,1.227-.4c.449.069.879.254,1.332.277a4.977,4.977,0,0,0,1.612-.334,2.259,2.259,0,0,1,1.616,0,1.335,1.335,0,0,1,.666,1.522c-.129.438-.49.868-.327,1.295.1.273.4.433.523.7.436.906-.683.773-1.082,1.041C322.345,179.465,322.742,180.542,321.954,180.72Z" transform="translate(-317.18 -174.406)" fill="#fd6e90"/>
          </g>
        </g>
        <g id="Group_46631" data-name="Group 46631" transform="translate(50.813 16.568)">
          <path id="Path_44010" data-name="Path 44010" d="M323.867,215.03l.042,2.392,3.435-1.556a12.581,12.581,0,0,0-2.322-.675A11.119,11.119,0,0,0,323.867,215.03Z" transform="translate(-323.867 -215.03)" fill="#ebaeae"/>
        </g>
        <g id="Group_46632" data-name="Group 46632" transform="translate(25.562 25.233)">
          <path id="Path_44011" data-name="Path 44011" d="M223.615,269.354,208.2,272.807a5.259,5.259,0,0,1-6.409-5.132V261.2l-3.775-2.981h20.137a7.922,7.922,0,0,1,7.922,7.922v.142A3.146,3.146,0,0,1,223.615,269.354Z" transform="translate(-198.014 -258.22)" fill="#fff"/>
        </g>
        <g id="Group_46633" data-name="Group 46633" transform="translate(13.34 25.173)">
          <path id="Path_44012" data-name="Path 44012" d="M153.095,264.548l-16-.545v-3.348a2.734,2.734,0,0,1,2.734-2.734h10.246a3.041,3.041,0,0,1,3.041,3.041Z" transform="translate(-137.097 -257.921)" fill="#8cb5ff"/>
        </g>
        <g id="Group_46640" data-name="Group 46640" transform="translate(0 23.746)">
          <g id="Group_46635" data-name="Group 46635" transform="translate(0.621)">
            <g id="Group_46634" data-name="Group 46634">
              <path id="Path_44013" data-name="Path 44013" d="M98.775,261.542H73.7V250.806H98.775ZM75.13,260.115H97.348v-7.882H75.13Z" transform="translate(-73.703 -250.806)" fill="#adcaff"/>
            </g>
          </g>
          <g id="Group_46636" data-name="Group 46636" transform="translate(0.621 3.32)">
            <rect id="Rectangle_21002" data-name="Rectangle 21002" width="23.924" height="6.423" fill="#147f7d"/>
          </g>
          <g id="Group_46638" data-name="Group 46638">
            <g id="Group_46637" data-name="Group 46637">
              <path id="Path_44014" data-name="Path 44014" d="M95.681,261.542H70.609V250.806H95.681Zm-23.645-1.427H94.254v-7.882H72.037Z" transform="translate(-70.609 -250.806)" fill="#7193cf"/>
            </g>
          </g>
          <g id="Group_46639" data-name="Group 46639" transform="translate(0 3.32)">
            <rect id="Rectangle_21003" data-name="Rectangle 21003" width="23.924" height="6.423" fill="#7193cf"/>
          </g>
        </g>
        <g id="Group_46645" data-name="Group 46645" transform="translate(38.947 18.214)">
          <g id="Group_46641" data-name="Group 46641" transform="translate(11.59 1.491)">
            <path id="Path_44015" data-name="Path 44015" d="M323.027,238.876l.223.1c.69.314,1.154-.18,1.468-.871l3.175-6.012c.314-.69-.553-.181-1.244-.5,0,0-1.164-1.434-1.479-.744L322.72,237.2C322.406,237.887,322.337,238.562,323.027,238.876Z" transform="translate(-322.491 -230.667)" fill="#ebaeae"/>
          </g>
          <g id="Group_46642" data-name="Group 46642" transform="translate(3.535 7.228)">
            <path id="Path_44016" data-name="Path 44016" d="M282.342,260.373l.124,1.482,9.211-.038-.272-2.558Z" transform="translate(-282.342 -259.26)" fill="#ebaeae"/>
          </g>
          <g id="Group_46643" data-name="Group 46643" transform="translate(0 8.048)">
            <path id="Path_44017" data-name="Path 44017" d="M268.556,265.117a4.213,4.213,0,0,1-3.7-.66c-.745-.5,1.9-1.636,3.472-.823C268.924,263.943,268.465,264.45,268.556,265.117Z" transform="translate(-264.725 -263.349)" fill="#ebaeae"/>
          </g>
          <g id="Group_46644" data-name="Group 46644" transform="translate(12.417)">
            <path id="Path_44018" data-name="Path 44018" d="M326.612,228.3l3.189,1.288,2.216-3.852-3.8-2.5Z" transform="translate(-326.612 -223.235)" fill="#45c0d0"/>
          </g>
        </g>
        <g id="Group_46649" data-name="Group 46649" transform="translate(28.175 11.726)">
          <g id="Group_46646" data-name="Group 46646">
            <path id="Path_44019" data-name="Path 44019" d="M214.118,198.9l-.2.051c-.629.159-.943-.331-1.1-.963l-1.744-5.57a1.179,1.179,0,0,1,.854-1.431l.2-.051a1.175,1.175,0,0,1,1.426.857l1.083,5.736C214.794,198.157,214.747,198.737,214.118,198.9Z" transform="translate(-211.035 -190.897)" fill="#45c0d0"/>
          </g>
          <g id="Group_46647" data-name="Group 46647" transform="translate(2.474 6.015)">
            <path id="Path_44020" data-name="Path 44020" d="M230.844,224.666l-.571,1.141-6.906-2.887.637-2.042Z" transform="translate(-223.367 -220.878)" fill="#45c0d0"/>
          </g>
          <g id="Group_46648" data-name="Group 46648" transform="translate(9.244 9.75)">
            <path id="Path_44021" data-name="Path 44021" d="M257.11,240.623c-.028.055.326.393.371.435a1.753,1.753,0,0,0,.8.4,3.657,3.657,0,0,0,1.288.07,2.853,2.853,0,0,0,.618-.154,2.578,2.578,0,0,0,.3-.135h0a.2.2,0,0,0,.029-.329c-.052-.044-.095-.083-.109-.094-.184-.139-.362-.28-.558-.4-.585-.362-1.348-1.069-2.09-.9C257.48,240.018,257.395,240.121,257.11,240.623Z" transform="translate(-257.108 -239.49)" fill="#ebaeae"/>
          </g>
        </g>
      </g>
    </g>
  </g>
</svg>
