<svg xmlns="http://www.w3.org/2000/svg" width="17.496" height="18.461" viewBox="0 0 17.496 18.461">
  <g id="Group_49182" data-name="Group 49182" transform="translate(-58.569 -954.174)">
    <circle id="Ellipse_359" data-name="Ellipse 359" cx="2.544" cy="2.544" r="2.544" transform="translate(64.773 960.86)" fill="none" stroke="#94afa7" stroke-width="1.5"/>
    <path id="Path_42271" data-name="Path 42271" d="M12.064,2.129A4.23,4.23,0,0,0,10.567,2a4.23,4.23,0,0,0-1.5.129,1.7,1.7,0,0,0-.918.918,2.09,2.09,0,0,0-.121.732,1.34,1.34,0,0,1-2,1.154,2.09,2.09,0,0,0-.695-.261,1.7,1.7,0,0,0-1.254.336,4.23,4.23,0,0,0-.86,1.232A4.23,4.23,0,0,0,2.586,7.6a1.7,1.7,0,0,0,.336,1.254,2.09,2.09,0,0,0,.573.471,1.34,1.34,0,0,1,0,2.308,2.091,2.091,0,0,0-.573.471,1.7,1.7,0,0,0-.336,1.254,4.23,4.23,0,0,0,.637,1.361,4.229,4.229,0,0,0,.86,1.232,1.7,1.7,0,0,0,1.254.336,2.091,2.091,0,0,0,.695-.261,1.34,1.34,0,0,1,2,1.154,2.091,2.091,0,0,0,.121.732,1.7,1.7,0,0,0,.918.918,4.231,4.231,0,0,0,1.5.129,4.231,4.231,0,0,0,1.5-.129,1.7,1.7,0,0,0,.918-.918,2.09,2.09,0,0,0,.121-.732,1.34,1.34,0,0,1,2-1.154,2.09,2.09,0,0,0,.695.261,1.7,1.7,0,0,0,1.254-.336,4.229,4.229,0,0,0,.86-1.232,4.228,4.228,0,0,0,.637-1.361,1.7,1.7,0,0,0-.336-1.254,2.09,2.09,0,0,0-.573-.471,1.34,1.34,0,0,1,0-2.308,2.09,2.09,0,0,0,.573-.471A1.7,1.7,0,0,0,18.548,7.6a4.229,4.229,0,0,0-.637-1.361,4.23,4.23,0,0,0-.86-1.232A1.7,1.7,0,0,0,15.8,4.672a2.091,2.091,0,0,0-.695.261,1.34,1.34,0,0,1-2-1.154,2.089,2.089,0,0,0-.121-.732A1.7,1.7,0,0,0,12.064,2.129Z" transform="translate(56.75 952.924)" fill="none" stroke="#94afa7" stroke-width="1.5"/>
  </g>
</svg>
