<svg id="Group_46198" data-name="Group 46198" xmlns="http://www.w3.org/2000/svg" width="97.233" height="82.578" viewBox="0 0 97.233 82.578">
  <path id="Path_42515" data-name="Path 42515" d="M657.565,361.677q0,2.163-.212,4.274-.033.333-.071.664h-5.29v1.722h5.056a42.3,42.3,0,0,1-4.46,13.341H577.348a42.6,42.6,0,0,1,70.277-47.353v1.293h1.042q.247.318.488.643l.116.157.224.307a42.438,42.438,0,0,1,5.942,11.624h-.557v10.517h2.592Q657.565,360.26,657.565,361.677Z" transform="translate(-564.075 -308.506)" fill="#ffe5e5"/>
  <rect id="Rectangle_20857" data-name="Rectangle 20857" width="32.141" height="12.499" transform="translate(63.984 47.546)" fill="#fff"/>
  <rect id="Rectangle_20858" data-name="Rectangle 20858" width="15.475" height="13.69" transform="translate(75.293 39.808)" fill="#ffe5e5"/>
  <rect id="Rectangle_20859" data-name="Rectangle 20859" width="15.475" height="13.69" transform="translate(40.771 8.858)" fill="#ffe5e5"/>
  <rect id="Rectangle_20860" data-name="Rectangle 20860" width="15.475" height="13.094" transform="translate(68.15 21.953)" fill="#ffe5e5"/>
  <path id="Path_42516" data-name="Path 42516" d="M580.659,1054.539h-.015a22.317,22.317,0,0,1-6.562-2.1,14.515,14.515,0,0,1-5.2-4.331,12.558,12.558,0,0,1,8.322-19.8.092.092,0,1,1,.027.182,12.374,12.374,0,0,0-8.2,19.5c2.353,3.244,6.488,5.5,11.644,6.362a.092.092,0,0,1-.015.183Z" transform="translate(-558.585 -974.113)" fill="#fff"/>
  <rect id="Rectangle_20861" data-name="Rectangle 20861" width="10.118" height="20.237" transform="translate(84.221 19.572)" fill="#fff"/>
  <rect id="Rectangle_20862" data-name="Rectangle 20862" width="10.714" height="10.714" transform="translate(85.411 59.45)" fill="#fff"/>
  <circle id="Ellipse_384" data-name="Ellipse 384" cx="13.392" cy="13.392" r="13.392" transform="translate(0.893 24.929)" fill="#fff"/>
  <rect id="Rectangle_20863" data-name="Rectangle 20863" width="21.427" height="2.976" transform="translate(72.912 70.164)" fill="#ffe5e5"/>
  <circle id="Ellipse_385" data-name="Ellipse 385" cx="13.392" cy="13.392" r="13.392" transform="translate(2.083 21.357)" fill="#ffe5e5"/>
  <path id="Path_42517" data-name="Path 42517" d="M1352.61,1285.8a.075.075,0,0,1,0-.015,22.327,22.327,0,0,1,3.355-6.019,14.514,14.514,0,0,1,5.27-4.247,12.559,12.559,0,0,1,17.771,12.056.092.092,0,1,1-.184-.01,12.374,12.374,0,0,0-17.509-11.878c-3.644,1.668-6.673,5.278-8.53,10.164a.092.092,0,0,1-.177-.051Z" transform="translate(-1296.328 -1205.081)" fill="#fff"/>
  <path id="Path_42518" data-name="Path 42518" d="M1045.735,250l-22.3,22.3h27.587l13.891-13.891Z" transform="translate(-987.402 -243.675)" fill="#fff"/>
  <path id="Path_42519" data-name="Path 42519" d="M1161.735,369.437l-22.3,22.3h27.587l13.891-13.891Z" transform="translate(-1096.267 -355.767)" fill="#fff"/>
  <path id="Path_42520" data-name="Path 42520" d="M577.552,668.1a2.552,2.552,0,1,1,2.552-2.552A2.555,2.555,0,0,1,577.552,668.1Zm0-4.92a2.368,2.368,0,1,0,2.368,2.368A2.371,2.371,0,0,0,577.552,663.184Z" transform="translate(-566.544 -631.275)" fill="#fff"/>
  <path id="Path_42521" data-name="Path 42521" d="M937.571,1214.958l-.364.487-2.255,3.017a1.9,1.9,0,0,1-2.662.385l-.543-.4a1.9,1.9,0,0,1-.385-2.662l1.441-1.929,1.176-1.575a1.9,1.9,0,0,1,2.662-.385l.543.406A1.9,1.9,0,0,1,937.571,1214.958Z" transform="translate(-900.635 -1146.053)" fill="#204f74"/>
  <path id="Path_42522" data-name="Path 42522" d="M1447.384,1218.441l-.543.4a1.9,1.9,0,0,1-2.662-.385l-1.669-2.233-.949-1.27a1.9,1.9,0,0,1,.385-2.662l.543-.406a1.9,1.9,0,0,1,2.662.385l.789,1.056,1.829,2.448A1.9,1.9,0,0,1,1447.384,1218.441Z" transform="translate(-1379.455 -1146.053)" fill="#204f74"/>
  <path id="Path_42523" data-name="Path 42523" d="M965.344,1214.958l-.364.487-4.4-1.594,1.177-1.575a1.9,1.9,0,0,1,2.662-.385l.543.406A1.9,1.9,0,0,1,965.344,1214.958Z" transform="translate(-928.408 -1146.053)" fill="#404040"/>
  <path id="Path_42524" data-name="Path 42524" d="M1445.94,1213.331l-3.429,2.9-.949-1.27a1.9,1.9,0,0,1,.385-2.662l.543-.406a1.9,1.9,0,0,1,2.662.385Z" transform="translate(-1379.455 -1146.053)" fill="#404040"/>
  <circle id="Ellipse_386" data-name="Ellipse 386" cx="24.69" cy="24.69" r="24.69" transform="translate(25.332 17.799)" fill="#fff"/>
  <path id="Path_42525" data-name="Path 42525" d="M811.77,385.29a28.24,28.24,0,1,0,28.239,28.24A28.24,28.24,0,0,0,811.77,385.29Zm0,51.884q-.3,0-.6-.008a23.629,23.629,0,1,1,.6.008Z" transform="translate(-762.249 -370.644)" fill="#204f74"/>
  <path id="Path_42526" data-name="Path 42526" d="M810.359,440.454a28.332,28.332,0,1,1,0-56.664,28.66,28.66,0,0,1,4.178.306.092.092,0,0,1-.027.182,28.482,28.482,0,0,0-4.152-.3,28.148,28.148,0,1,0,27.99,31.142.092.092,0,0,1,.183.02,28.336,28.336,0,0,1-28.174,25.319Z" transform="translate(-760.838 -369.237)" fill="#404040"/>
  <path id="Path_42527" data-name="Path 42527" d="M872.11,528.96a.091.091,0,0,1-.033-.006,23.746,23.746,0,0,1-.2-44.328.092.092,0,0,1,.067.172,23.415,23.415,0,0,0-15,21.953,23.681,23.681,0,0,0,15.206,22.03.092.092,0,0,1-.033.178Z" transform="translate(-830.969 -463.865)" fill="#404040"/>
  <path id="Path_42528" data-name="Path 42528" d="M1365.311,1168.825a.092.092,0,0,1-.03-.179,23.477,23.477,0,0,0,5.166-2.5.092.092,0,0,1,.1.155,23.656,23.656,0,0,1-5.207,2.522A.1.1,0,0,1,1365.311,1168.825Z" transform="translate(-1308.163 -1103.46)" fill="#404040"/>
  <path id="Path_42529" data-name="Path 42529" d="M1518.657,1042.414a.092.092,0,0,1-.067-.156,23.65,23.65,0,0,0,3.315-4.371.092.092,0,0,1,.159.094,23.843,23.843,0,0,1-3.341,4.405A.092.092,0,0,1,1518.657,1042.414Z" transform="translate(-1452.078 -983.063)" fill="#404040"/>
  <path id="Path_42530" data-name="Path 42530" d="M1572.772,961.16a.092.092,0,0,1-.079-.139A23.445,23.445,0,0,0,1574.9,956a.092.092,0,0,1,.177.054,23.643,23.643,0,0,1-2.23,5.057A.092.092,0,0,1,1572.772,961.16Z" transform="translate(-1502.865 -906.197)" fill="#404040"/>
  <path id="Path_44931" data-name="Path 44931" d="M11.442,0A11.442,11.442,0,1,1,0,11.442,11.442,11.442,0,0,1,11.442,0Z" transform="translate(57.62 5.975)" fill="#f69393"/>
  <path id="Path_42531" data-name="Path 42531" d="M1471.116,328.163c-2.234-2.293-1.51-2.751-1.811-5.956a4.127,4.127,0,0,0-1.026-2.243,10.247,10.247,0,0,0-2.043-1.387c-.425-.31-.713-.681-1.282-.652-.569-.029-.857.342-1.283.652a10.242,10.242,0,0,0-2.043,1.387,4.128,4.128,0,0,0-1.026,2.243c-.3,3.205.424,3.663-1.81,5.956a.328.328,0,0,0,.219.559h.006c1.96.015,3.92.009,5.88.009h.118c1.96,0,3.92.006,5.88-.009h.006A.328.328,0,0,0,1471.116,328.163Z" transform="translate(-1395.891 -307.421)" fill="#fff"/>
  <path id="Path_42532" data-name="Path 42532" d="M1531.446,517.845h3.563a1.652,1.652,0,0,1-1.774,1.682A1.67,1.67,0,0,1,1531.446,517.845Z" transform="translate(-1464.167 -495.047)" fill="#fff"/>
  <g id="Group_46155" data-name="Group 46155" transform="translate(62.266 9.923)">
    <path id="Path_42533" data-name="Path 42533" d="M1450.374,311.622a.431.431,0,0,1-.412-.557,4.046,4.046,0,0,1,2.281-2.535.43.43,0,1,1,.338.792,3.185,3.185,0,0,0-1.8,2A.431.431,0,0,1,1450.374,311.622Z" transform="translate(-1449.944 -308.496)" fill="#fff"/>
  </g>
  <g id="Group_46156" data-name="Group 46156" transform="translate(72.957 9.923)">
    <path id="Path_42534" data-name="Path 42534" d="M1626.238,311.622a.431.431,0,0,1-.411-.3,3.184,3.184,0,0,0-1.8-2,.431.431,0,1,1,.338-.792,4.047,4.047,0,0,1,2.281,2.535.431.431,0,0,1-.412.557Z" transform="translate(-1623.77 -308.496)" fill="#fff"/>
  </g>
  <path id="Path_42535" data-name="Path 42535" d="M1553.861,150.688a.43.43,0,0,1-.43-.431v-2.672a.431.431,0,1,1,.861,0v2.672A.431.431,0,0,1,1553.861,150.688Z" transform="translate(-1484.8 -147.155)" fill="#a6cae2"/>
  <g id="Group_46157" data-name="Group 46157" transform="translate(59.2 3.067)">
    <path id="Path_42536" data-name="Path 42536" d="M1402.145,200a.43.43,0,0,1-.341-.168l-1.632-2.116a.431.431,0,0,1,.682-.526l1.632,2.116a.431.431,0,0,1-.341.693Z" transform="translate(-1400.082 -197.028)" fill="#a6cae2"/>
  </g>
  <g id="Group_46158" data-name="Group 46158" transform="translate(75.946 3.309)">
    <path id="Path_42537" data-name="Path 42537" d="M1672.809,203.453a.43.43,0,0,1-.263-.771l2.116-1.632a.43.43,0,1,1,.526.682l-2.115,1.632A.429.429,0,0,1,1672.809,203.453Z" transform="translate(-1672.378 -200.961)" fill="#a6cae2"/>
  </g>
  <path id="Path_42538" data-name="Path 42538" d="M1384.423,363.728a11.547,11.547,0,0,1-11.534-11.534,11.419,11.419,0,0,1,1.171-5.07.092.092,0,0,1,.166.081,11.237,11.237,0,0,0-1.152,4.988,11.35,11.35,0,0,0,20.911,6.116.092.092,0,1,1,.155.1A11.5,11.5,0,0,1,1384.423,363.728Z" transform="translate(-1315.362 -334.778)" fill="#404040"/>
  <path id="Path_42539" data-name="Path 42539" d="M1596.6,251.2a.092.092,0,0,1-.081-.049,11.407,11.407,0,0,0-8.231-5.869.092.092,0,0,1,.029-.182,11.593,11.593,0,0,1,8.365,5.965.092.092,0,0,1-.081.136Z" transform="translate(-1517.444 -239.071)" fill="#404040"/>
  <g id="Group_46162" data-name="Group 46162" transform="translate(48.968 21.112)">
    <g id="Group_46159" data-name="Group 46159" transform="translate(0 0)">
      <path id="Path_42540" data-name="Path 42540" d="M1242.706,499.44v0Z" transform="translate(-1242.153 -498.886)" fill="#404040"/>
      <path id="Path_42541" data-name="Path 42541" d="M1234.26,494.717a.553.553,0,0,1-.553-.554v-3.17a.554.554,0,0,1,1.107,0v3.17A.554.554,0,0,1,1234.26,494.717Z" transform="translate(-1233.706 -490.44)" fill="#404040"/>
    </g>
    <g id="Group_46161" data-name="Group 46161" transform="translate(0 37.653)">
      <g id="Group_46160" data-name="Group 46160">
        <path id="Path_42542" data-name="Path 42542" d="M1242.706,1111.679v0Z" transform="translate(-1242.153 -1111.125)" fill="#404040"/>
        <path id="Path_42543" data-name="Path 42543" d="M1234.26,1106.955a.553.553,0,0,1-.553-.553v-3.169a.554.554,0,1,1,1.107,0v3.169A.553.553,0,0,1,1234.26,1106.955Z" transform="translate(-1233.706 -1102.679)" fill="#404040"/>
      </g>
    </g>
  </g>
  <g id="Group_46166" data-name="Group 46166" transform="translate(28.556 41.524)">
    <g id="Group_46163" data-name="Group 46163" transform="translate(37.653)">
      <path id="Path_42544" data-name="Path 42544" d="M1526.227,831.327h0Z" transform="translate(-1522.505 -830.773)" fill="#404040"/>
      <path id="Path_42545" data-name="Path 42545" d="M1517.781,823.434h-3.169a.553.553,0,1,1,0-1.107h3.169a.553.553,0,1,1,0,1.107Z" transform="translate(-1514.058 -822.327)" fill="#404040"/>
    </g>
    <g id="Group_46165" data-name="Group 46165" transform="translate(0)">
      <g id="Group_46164" data-name="Group 46164">
        <path id="Path_42546" data-name="Path 42546" d="M913.988,831.327h0Z" transform="translate(-910.265 -830.773)" fill="#404040"/>
        <path id="Path_42547" data-name="Path 42547" d="M905.542,823.434h-3.169a.553.553,0,0,1,0-1.107h3.169a.553.553,0,1,1,0,1.107Z" transform="translate(-901.819 -822.327)" fill="#404040"/>
      </g>
    </g>
  </g>
  <path id="Path_42548" data-name="Path 42548" d="M1247.443,675.088a.613.613,0,0,1-.435-.18l-12.06-12.06a.615.615,0,0,1-.18-.435V650.845a.615.615,0,1,1,1.23,0v11.314l11.88,11.88a.615.615,0,0,1-.435,1.05Z" transform="translate(-1185.735 -619.29)" fill="#404040"/>
  <path id="Path_42549" data-name="Path 42549" d="M1245.744,712.878a.308.308,0,0,1-.184-.554l11.505-8.589a.307.307,0,1,1,.368.493l-11.505,8.589A.307.307,0,0,1,1245.744,712.878Z" transform="translate(-1195.747 -669.447)" fill="#6363c1"/>
  <circle id="Ellipse_388" data-name="Ellipse 388" cx="1.743" cy="1.743" r="1.743" transform="translate(47.946 41.319)" fill="#6363c1"/>
  <path id="Path_42550" data-name="Path 42550" d="M1217.427,821.161a1.835,1.835,0,1,1,0-3.671.092.092,0,0,1,0,.185,1.651,1.651,0,1,0,1.318,2.645.092.092,0,1,1,.147.111A1.822,1.822,0,0,1,1217.427,821.161Z" transform="translate(-1167.739 -776.264)" fill="#404040"/>
  <g id="Group_46167" data-name="Group 46167" transform="translate(48.821 43.199)">
    <path id="Path_42551" data-name="Path 42551" d="M1231.478,849.871a.154.154,0,0,0,0-.307.154.154,0,0,0,0,.307Z" transform="translate(-1231.329 -849.564)" fill="#404040"/>
  </g>
  <g id="Group_46168" data-name="Group 46168" transform="translate(55.558 23.508)">
    <path id="Path_42552" data-name="Path 42552" d="M1341.01,529.7a.154.154,0,0,0,0-.307.154.154,0,0,0,0,.307Z" transform="translate(-1340.862 -529.394)" fill="#404040"/>
  </g>
  <g id="Group_46169" data-name="Group 46169" transform="translate(36.809 49.747)">
    <path id="Path_42553" data-name="Path 42553" d="M1036.159,956.339a.154.154,0,0,0,0-.307.154.154,0,0,0,0,.307Z" transform="translate(-1036.011 -956.032)" fill="#404040"/>
  </g>
  <g id="Group_46170" data-name="Group 46170" transform="translate(65.309 48.899)">
    <path id="Path_42554" data-name="Path 42554" d="M1499.563,942.553a.154.154,0,0,0,0-.307.154.154,0,0,0,0,.307Z" transform="translate(-1499.415 -942.245)" fill="#404040"/>
  </g>
  <path id="Path_42555" data-name="Path 42555" d="M1331.818,425.02a.154.154,0,0,0,0-.307.154.154,0,0,0,0,.307Z" transform="translate(-1276.677 -407.643)" fill="#a6cae2"/>
  <path id="Path_42556" data-name="Path 42556" d="M1619.818,650.021a.154.154,0,0,0,0-.308.154.154,0,0,0,0,.308Z" transform="translate(-1546.965 -618.805)" fill="#404040"/>
  <path id="Path_42557" data-name="Path 42557" d="M1242.819,1264.021a.154.154,0,0,0,0-.308.154.154,0,0,0,0,.308Z" transform="translate(-1193.151 -1195.043)" fill="#fff"/>
  <path id="Path_42558" data-name="Path 42558" d="M776.364,1259.763c-.607-.519-.911-1.024-.785-1.208s.609-.093,1.16.138Z" transform="translate(-754.76 -1190.116)" fill="#f69393"/>
  <path id="Path_42559" data-name="Path 42559" d="M787.44,1176.078v0l-.282,3.17-.008.089-.005.066-.089,1-.2,2.273-.149,1.674-2.715-.241.191-2.152.167-1.883.031-.344.012-.13.007-.075.346-3.891.009-.094.035,0,1.44.128a2.277,2.277,0,0,0,.426.234l.065.026.056.02.057.02c.045.014.089.027.132.038l.058.014.081.017.084.014.079.011C787.329,1176.073,787.388,1176.076,787.44,1176.078Z" transform="translate(-762.68 -1112.293)" fill="#f8ac9f"/>
  <path id="Path_42560" data-name="Path 42560" d="M673.708,1172.087l-.121,1.354-.179,2.016-.033.373-.011.123-.017.2-.182,2.045-2.715-.241.133-1.5.018-.2,0-.03.039-.436.329-3.7.055-.627.15.014.651.058.384.034a1.643,1.643,0,0,0,1.049.557A1.506,1.506,0,0,0,673.708,1172.087Z" transform="translate(-656.123 -1108.455)" fill="#f8ac9f"/>
  <path id="Path_42561" data-name="Path 42561" d="M676.655,1172.087l-.12,1.354-.179,2.016a10.864,10.864,0,0,1-1.288.241,10.664,10.664,0,0,1-1.477.083l.329-3.7.055-.627.15.014.651.058.384.034a1.643,1.643,0,0,0,1.049.557A1.506,1.506,0,0,0,676.655,1172.087Z" transform="translate(-659.07 -1108.455)" fill="#404040"/>
  <path id="Path_42562" data-name="Path 42562" d="M673.364,1244.68l-.017.2-.182,2.046-2.715-.241.133-1.5.018-.2c.491-.028,1-.069,1.535-.129Q672.771,1244.774,673.364,1244.68Z" transform="translate(-656.123 -1177.181)" fill="#fff"/>
  <path id="Path_42563" data-name="Path 42563" d="M789.975,1249.59l-.2,2.273-2.673-.72.167-1.882c.354.068.725.129,1.113.181C788.94,1249.516,789.473,1249.563,789.975,1249.59Z" transform="translate(-765.599 -1181.479)" fill="#fff"/>
  <path id="Path_42564" data-name="Path 42564" d="M793.559,1176.125v0l-.282,3.171-.008.089a8.392,8.392,0,0,1-2.759.261l.007-.075.346-3.891.043-.091,1.44.128a2.273,2.273,0,0,0,.426.234l.065.026.056.02.057.02c.045.014.089.027.132.038l.058.014.081.017.084.014.079.011C793.448,1176.119,793.507,1176.123,793.559,1176.125Z" transform="translate(-768.799 -1112.34)" fill="#404040"/>
  <path id="Path_42565" data-name="Path 42565" d="M737.84,456.633c-.1-.617-.041-1.043.124-1.074.149-.028.364.272.452.4Z" transform="translate(-719.324 -436.59)" fill="#a6cae2"/>
  <path id="Path_42566" data-name="Path 42566" d="M821.719,463.607c.054-.367.045-.708-.067-.779-.135-.085-.439.209-.7.794Z" transform="translate(-797.366 -443.4)" fill="#a6cae2"/>
  <path id="Path_42567" data-name="Path 42567" d="M730.614,318.567c.011-2.127-3.348-3.867-4.522-3.145a1.359,1.359,0,0,0-.555,1,2.846,2.846,0,0,0-1.785,1.074,2.815,2.815,0,0,0,.22,3.486,3.044,3.044,0,0,0,2.38.742C728.161,321.647,730.6,320.377,730.614,318.567Z" transform="translate(-705.677 -304.917)" fill="#404040"/>
  <ellipse id="Ellipse_389" data-name="Ellipse 389" cx="4.659" cy="3.93" rx="4.659" ry="3.93" transform="matrix(0.197, -0.98, 0.98, 0.197, 19.633, 36.471)" fill="#404040"/>
  <path id="Path_42568" data-name="Path 42568" d="M659.036,736.827c0,.031-.006.06-.009.091q-.322,3-.686,6.052h0q-.7,5.831-1.555,11.827-.423,2.947-.873,5.844-.133.852-.267,1.7a4.881,4.881,0,0,1-2.979,1.332,4.768,4.768,0,0,1-2.346-.444q.11-.852.212-1.72c.4-3.354.717-6.884.929-10.577.3-5.239.35-10.2.226-14.828q-.048-1.794-.13-3.523l6.561,1.046c.019.065.038.13.055.195Z" transform="translate(-637.231 -696.576)" fill="#204f74"/>
  <path id="Path_42569" data-name="Path 42569" d="M777.42,742.648q-.3,3.556-.772,6.867-.146,1.048-.306,2.071a6.709,6.709,0,0,1-2.219.507c-.12.006-.24.009-.356.009a6.725,6.725,0,0,1-2.338-.421c.032-.77.063-1.488.092-2.159.357-8.419.384-9.22.384-9.22.068-2.043.117-4.485.108-7.3q0-.757-.011-1.552h0q-.008-.754-.022-1.541-.038-2.089-.124-4.4-.058-1.528-.141-3.15l.119-.059,4.059-2,.1.007,1.555,2q.042.563.077,1.133A129.387,129.387,0,0,1,777.42,742.648Z" transform="translate(-750.893 -685.06)" fill="#204f74"/>
  <path id="Path_42570" data-name="Path 42570" d="M682.828,723.455a13.064,13.064,0,0,1-3.914,1.732c-.345.088-.687.16-1.024.217q-.42.07-.832.112a14.26,14.26,0,0,1-6.508-.925q-.049-1.794-.131-3.524l6.561,1.046.056.195,4.059-1.995.1.007,1.555,2Q682.792,722.884,682.828,723.455Z" transform="translate(-656.095 -685.062)" fill="#404040"/>
  <path id="Path_42571" data-name="Path 42571" d="M824.731,479.81c-.453.191-.946.383-1.476.568l-.185.064a25.2,25.2,0,0,1-2.46.7c-.653.15-1.283.267-1.885.358l-.21.031q-.682.1-1.313.151a2.679,2.679,0,0,1-2.551-1.33l-4.056-7.007q.444-2.313.887-4.627a14.445,14.445,0,0,1,1.461.287l.051.013a6,6,0,0,1,2.562,2.05A19.865,19.865,0,0,1,817.7,475.2c.034.087.067.171.1.252.217.565.357.98.4,1.121l3.784-.823.2-.042,1.85-.4a8.891,8.891,0,0,0,.7,4.5Z" transform="translate(-787.649 -448.941)" fill="#f69393"/>
  <path id="Path_42572" data-name="Path 42572" d="M815.9,518.329c-.068.508-.312,2.343-1.092,2.495-.9.176-2.3-1.951-2.69-3.913a8.091,8.091,0,0,1,1.438-5.935C814.688,512.485,816.315,515.206,815.9,518.329Z" transform="translate(-788.961 -488.601)" fill="#404040"/>
  <path id="Path_42573" data-name="Path 42573" d="M692.407,479.473a10.064,10.064,0,0,1-4.215,2.25A11.046,11.046,0,0,1,679.562,480l1.653-7.292q.4-1.748.792-3.5.874-3.853,1.747-7.706l.444.063c.3,0,.544.008.714.013a25.711,25.711,0,0,1,3.216.3c.164.026.3.049.38.063.608,1.479,1.19,3.086,1.712,4.818q.283.94.522,1.857c.372,1.421.669,2.8.906,4.13A53.729,53.729,0,0,1,692.407,479.473Z" transform="translate(-664.675 -442.169)" fill="#fff"/>
  <path id="Path_42574" data-name="Path 42574" d="M709.166,581.37a12.048,12.048,0,0,1-3.964,1.3,12.286,12.286,0,0,1-6.4-.826l-.068-.524q-.253-1.939-.5-3.877a13.085,13.085,0,0,0,6.657.789,12.674,12.674,0,0,0,3.375-1C708.632,578.661,708.929,580.04,709.166,581.37Z" transform="translate(-682.193 -550.789)" fill="#f69393"/>
  <path id="Path_42575" data-name="Path 42575" d="M710.857,649.537a12.541,12.541,0,0,1-4.755-.953.092.092,0,1,1,.07-.171,12.189,12.189,0,0,0,6.353.82,11.9,11.9,0,0,0,3.273-.966.092.092,0,0,1,.077.168,12.08,12.08,0,0,1-3.324.981A11.944,11.944,0,0,1,710.857,649.537Z" transform="translate(-689.529 -617.441)" fill="#404040"/>
  <path id="Path_42576" data-name="Path 42576" d="M753.907,461.5c1.078,2.787,2.29,4.608,3.043,4.437.96-.217.954-3.625.951-4.057l-3.106-.317Z" transform="translate(-734.448 -442.169)" fill="#f8ac9f"/>
  <path id="Path_42577" data-name="Path 42577" d="M668.1,740.718a4.181,4.181,0,0,1-1.777,2.068,17.138,17.138,0,0,1-.254-1.711c-.03-.306-.05-.6-.063-.887l-.016-.032-.75-1.446-1.009-1.945,1.34-.034,1.086-.027.11,0,.044.133.787,2.369Q667.853,739.959,668.1,740.718Z" transform="translate(-650.29 -700.442)" fill="#f8ac9f"/>
  <rect id="Rectangle_20864" data-name="Rectangle 20864" width="2.751" height="6.043" transform="translate(19.91 14.878) rotate(-3.615)" fill="#f8ac9f"/>
  <path id="Path_42578" data-name="Path 42578" d="M782.058,420.029l.054.858c-.092-.053-.185-.112-.279-.177a4.513,4.513,0,0,1-1.553-1.9Z" transform="translate(-759.199 -402.1)" fill="#404040"/>
  <path id="Path_42579" data-name="Path 42579" d="M766.738,345.571c.757,1.25.913,3.243-.089,3.977-1.111.814-3.386-.111-4.223-1.723-.692-1.332-.539-3.4.647-4.013C764.276,343.188,765.993,344.34,766.738,345.571Z" transform="translate(-742.055 -331.553)" fill="#f8ac9f"/>
  <path id="Path_42580" data-name="Path 42580" d="M778.873,396.8c.527.043.929.4.9.792a.864.864,0,0,1-1.014.635c-.527-.043-.929-.4-.9-.792A.864.864,0,0,1,778.873,396.8Z" transform="translate(-756.925 -381.443)" fill="#f8ac9f"/>
  <path id="Path_42581" data-name="Path 42581" d="M710.617,774.376l.7.507q1.184.467,1.268.317.108-.192-1.585-1.395Z" transform="translate(-693.82 -735.265)" fill="#f8ac9f"/>
  <path id="Path_42582" data-name="Path 42582" d="M682.985,739.147a5.9,5.9,0,0,1-1.9,1.078,2.079,2.079,0,0,0-.449-1.478l.332-1.979,1.086-.027.153.13q.187.584.393,1.184Q682.789,738.612,682.985,739.147Z" transform="translate(-665.681 -700.481)" fill="#404040"/>
  <path id="Path_42583" data-name="Path 42583" d="M626.782,476.115q-.08.207-.162.41l.225.593.084.224.388,1.022a4.209,4.209,0,0,1-2.219,2.789,3.947,3.947,0,0,1-2.409.253q-.215-.431-.432-.911c-.027-.059-.054-.119-.08-.179q-.212-.477-.42-1c-.3-.754-.586-1.58-.842-2.473a26.853,26.853,0,0,1-.844-4.154,4.894,4.894,0,0,1,.191-2.061,22.662,22.662,0,0,1,2.365-5.194,8.408,8.408,0,0,1,2.472-2.789,7.5,7.5,0,0,1,2.789-1.141,26.93,26.93,0,0,1-.57,13.058Q627.069,475.366,626.782,476.115Z" transform="translate(-608.809 -442.169)" fill="#f69393"/>
  <g id="Group_46171" data-name="Group 46171" transform="translate(13.369 34.949)">
    <path id="Path_42584" data-name="Path 42584" d="M659.544,715.416a6.823,6.823,0,0,1-4.667,3.2c.026.06.053.12.08.179a7.013,7.013,0,0,0,4.672-3.154Z" transform="translate(-654.877 -715.416)" fill="#fff"/>
  </g>
  <g id="Group_46172" data-name="Group 46172" transform="translate(34.286 26.771)">
    <path id="Path_42585" data-name="Path 42585" d="M995.738,586.066a6.851,6.851,0,0,1-.5-3.611l-.2.042a7.041,7.041,0,0,0,.524,3.644,6.924,6.924,0,0,0,.56,1.044l.185-.064A6.788,6.788,0,0,1,995.738,586.066Z" transform="translate(-994.988 -582.455)" fill="#fff"/>
  </g>
  <path id="Path_42586" data-name="Path 42586" d="M677.257,800.626a.092.092,0,0,1-.029-.18,4.953,4.953,0,0,0,1.708-.967,5.328,5.328,0,0,0,1.374-1.867.092.092,0,0,1,.169.075,5.515,5.515,0,0,1-1.422,1.932,5.136,5.136,0,0,1-1.771,1A.09.09,0,0,1,677.257,800.626Z" transform="translate(-662.425 -757.556)" fill="#404040"/>
  <path id="Path_42587" data-name="Path 42587" d="M699.56,571.789a.092.092,0,0,1-.085-.056l-.75-1.739-.188-.435-.821-1.9a6.465,6.465,0,0,1-.361-4.065l.468-1.995a.092.092,0,1,1,.18.042l-.468,1.995a6.281,6.281,0,0,0,.351,3.949l.821,1.9.188.435.751,1.739a.092.092,0,0,1-.085.129Z" transform="translate(-681.21 -536.042)" fill="#404040"/>
  <path id="Path_42588" data-name="Path 42588" d="M909.681,582.563a.092.092,0,0,1-.02-.182l5.705-1.268a.092.092,0,1,1,.04.18l-5.7,1.268Z" transform="translate(-880.555 -554.422)" fill="#404040"/>
  <path id="Path_42589" data-name="Path 42589" d="M749.963,841.78h-.016a.092.092,0,0,1-.075-.107c.71-4.042,1.263-8.16,1.645-12.242.186-1.993.336-4.018.443-6.018a.092.092,0,0,1,.184.01c-.108,2-.257,4.03-.444,6.026-.382,4.086-.936,8.21-1.647,12.257A.092.092,0,0,1,749.963,841.78Z" transform="translate(-730.66 -781.739)" fill="#404040"/>
  <path id="Path_42590" data-name="Path 42590" d="M781,833c1.16,1.957-.1,4.6-.494,5.351-.028-.8-.036-1.634-.017-2.508.025-1.162.095-2.26.194-3.286A3.229,3.229,0,0,1,781,833Z" transform="translate(-759.382 -790.402)" fill="#404040"/>
  <path id="Path_42591" data-name="Path 42591" d="M852.23,790.589a.091.091,0,0,1-.059-.021,3.856,3.856,0,0,1-.9-1.088,4.353,4.353,0,0,1-.428-1.085.092.092,0,1,1,.179-.045,4.172,4.172,0,0,0,.41,1.039,3.676,3.676,0,0,0,.859,1.036.092.092,0,0,1-.059.163Z" transform="translate(-825.417 -748.851)" fill="#404040"/>
  <path id="Path_42592" data-name="Path 42592" d="M744.387,333.01a2.213,2.213,0,1,1-2.3,3.782,1.812,1.812,0,0,1-.573-.376,2.509,2.509,0,0,1-.416-2.238Z" transform="translate(-722.336 -321.58)" fill="#404040"/>
  <path id="Path_42593" data-name="Path 42593" d="M750.134,385.089a.818.818,0,1,1-1.256.372A.947.947,0,0,1,750.134,385.089Z" transform="translate(-729.693 -370.376)" fill="#f8ac9f"/>
  <path id="Path_42594" data-name="Path 42594" d="M834.386,378.816c.025.13-.02.249-.1.265s-.168-.077-.193-.207.02-.249.1-.265S834.361,378.686,834.386,378.816Z" transform="translate(-809.694 -364.372)" fill="#404040"/>
  <path id="Path_42595" data-name="Path 42595" d="M816.765,380.907c.025.13-.02.249-.1.265s-.168-.077-.193-.207.02-.249.1-.265S816.74,380.777,816.765,380.907Z" transform="translate(-793.157 -366.335)" fill="#404040"/>
  <path id="Path_42596" data-name="Path 42596" d="M804.315,362.113a.674.674,0,0,0-.807.157.126.126,0,0,0,.021.11.683.683,0,0,0,.828-.048A.183.183,0,0,0,804.315,362.113Z" transform="translate(-780.993 -348.821)" fill="#404040"/>
  <path id="Path_42597" data-name="Path 42597" d="M828.765,360.569a.673.673,0,0,0-.807.157.126.126,0,0,0,.021.11.683.683,0,0,0,.828-.048A.183.183,0,0,0,828.765,360.569Z" transform="translate(-803.94 -347.371)" fill="#404040"/>
  <path id="Path_42598" data-name="Path 42598" d="M756.4,393.1a.092.092,0,0,1-.066-.028,1.1,1.1,0,0,0-.331-.232,1.109,1.109,0,0,0-.449-.1.092.092,0,0,1,0-.185h0a1.3,1.3,0,0,1,.525.115,1.281,1.281,0,0,1,.387.271.092.092,0,0,1-.066.157Z" transform="translate(-735.904 -377.467)" fill="#404040"/>
  <path id="Path_42599" data-name="Path 42599" d="M832.966,390.247a.092.092,0,0,1-.077-.143l.135-.206-.211-.418a.092.092,0,0,1,.165-.083l.235.466a.092.092,0,0,1-.005.092l-.164.25A.092.092,0,0,1,832.966,390.247Z" transform="translate(-808.492 -374.452)" fill="#404040"/>
  <path id="Path_42600" data-name="Path 42600" d="M815.074,407.281a.744.744,0,0,1-.694-.463.092.092,0,1,1,.17-.072.574.574,0,0,0,.325.315.587.587,0,0,0,.258.032.092.092,0,0,1,.017.184Q815.112,407.281,815.074,407.281Z" transform="translate(-791.195 -390.728)" fill="#404040"/>
  <path id="Path_42601" data-name="Path 42601" d="M1026.13,578.689c-.262.037-.565-.472-.782-1.241-.01-.034-.019-.068-.028-.1a7.769,7.769,0,0,1-.177-.891,6.934,6.934,0,0,1-.065-1.421c0-.008,0-.015,0-.021.043-.567.182-.947.394-.978.166-.023.348.172.515.513l.026.057a6.246,6.246,0,0,1,.446,1.663c.016.115.03.229.041.34,0,.025.006.05.007.075C1026.607,577.78,1026.454,578.644,1026.13,578.689Z" transform="translate(-988.929 -547.781)" fill="#404040"/>
  <g id="Group_46174" data-name="Group 46174" transform="translate(36.136 24.679)">
    <g id="Group_46173" data-name="Group 46173" transform="translate(0 0)">
      <path id="Path_42602" data-name="Path 42602" d="M1032.662,550.746l-.06.021.085.032.079.033q.232.1.225.172-.022.24-2.48.257c1.464.288,1.795.426,1.786.5a10.446,10.446,0,0,1-3.476-.042c-.353-.042-.647-.087-.858-.121q-.7.492-1.463.983-.252.163-.51.324l-.209.131c-.155.1-.309.19-.463.282a7.768,7.768,0,0,1-.177-.891,6.934,6.934,0,0,1-.065-1.421l.277-.127.66-.3,1.53-.7a7.727,7.727,0,0,1,.8-.539c1.023-.606,2.308-1.063,2.425-.861.05.083-.079.313-.876.965-.032.027-.066.055-.1.082l.1,0h0c.313-.01.595-.018.849-.022h.005a5.845,5.845,0,0,1,1.97.094c.014.157-1.963.432-1.946.588s2.325.038,2.345.254C1033.118,550.511,1032.859,550.67,1032.662,550.746Z" transform="translate(-1025.065 -548.43)" fill="#f8ac9f"/>
    </g>
  </g>
  <g id="Group_46176" data-name="Group 46176" transform="translate(39.624 25.557)">
    <g id="Group_46175" data-name="Group 46175" transform="translate(0 0)">
      <path id="Path_42603" data-name="Path 42603" d="M1081.8,564.05a.1.1,0,0,1,.074-.151,1.105,1.105,0,0,0,.741-.322,1.123,1.123,0,0,0,.316-.769.1.1,0,1,1,.19,0,1.279,1.279,0,0,1-1.241,1.281A.1.1,0,0,1,1081.8,564.05Z" transform="translate(-1081.783 -562.713)" fill="#404040"/>
    </g>
  </g>
  <g id="Group_46178" data-name="Group 46178" transform="translate(41.464 25.934)">
    <g id="Group_46177" data-name="Group 46177" transform="translate(0 0)">
      <path id="Path_42604" data-name="Path 42604" d="M1111.72,570.516a.1.1,0,0,1-.016-.075l.314-1.529a.1.1,0,0,1,.186.038l-.314,1.529a.1.1,0,0,1-.112.074A.094.094,0,0,1,1111.72,570.516Z" transform="translate(-1111.702 -568.835)" fill="#404040"/>
    </g>
  </g>
  <g id="Group_46180" data-name="Group 46180" transform="translate(41.671 26.921)">
    <g id="Group_46179" data-name="Group 46179" transform="translate(0 0)">
      <path id="Path_42605" data-name="Path 42605" d="M1115.08,585.041a.093.093,0,0,1-.018-.058.1.1,0,0,1,.1-.093l2.107.04a.1.1,0,0,1,0,.19l-2.107-.04A.1.1,0,0,1,1115.08,585.041Z" transform="translate(-1115.062 -584.89)" fill="#404040"/>
    </g>
  </g>
  <path id="Path_42606" data-name="Path 42606" d="M699.876,582.6l-.637-1.476a6.418,6.418,0,0,1-.512-2.961c.022-.342.116-.818.156-1.046.088-.505.179-.919.246-1.2a55.8,55.8,0,0,1,.7,5.832Q699.855,582.171,699.876,582.6Z" transform="translate(-682.649 -549.541)" fill="#404040"/>
  <path id="Path_42607" data-name="Path 42607" d="M890.246,666.612c-.212.388-.194.763-.055.858s.514-.043.776-.457Z" transform="translate(-862.252 -634.665)" fill="#a6cae2"/>
  <path id="Path_42608" data-name="Path 42608" d="M615.465,617.827q-.8-.18-.887,0-.12.234.951,1.078Z" transform="translate(-603.676 -588.795)" fill="#a6cae2"/>
  <path id="Path_42609" data-name="Path 42609" d="M614.225,628.64q-.529-.22-.507-.317t.761-.063Z" transform="translate(-602.88 -598.658)" fill="#a6cae2"/>
  <path id="Path_42610" data-name="Path 42610" d="M883.871,663.52c-.242.249-.378.49-.317.57s.354.014.7-.19Z" transform="translate(-856.108 -631.763)" fill="#a6cae2"/>
  <path id="Path_42611" data-name="Path 42611" d="M717.442,775.408a5.64,5.64,0,0,1-1.5-.427.092.092,0,0,1,.064-.173,4.964,4.964,0,0,0,1.453.416,6.756,6.756,0,0,0-1.6-1.2.092.092,0,0,1,.1-.155c1.678,1.092,1.752,1.309,1.68,1.451C717.614,775.367,717.571,775.408,717.442,775.408Zm.028-.154h0Z" transform="translate(-698.7 -735.309)" fill="#404040"/>
  <g id="Group_46181" data-name="Group 46181" transform="translate(15.215 47.961)">
    <path id="Path_42612" data-name="Path 42612" d="M685.08,946.133c.194-.951.379-1.906.553-2.854a153.759,153.759,0,0,0,2.092-16.185.092.092,0,1,0-.184-.014,153.275,153.275,0,0,1-2.09,16.165c-.177.962-.365,1.93-.562,2.895Z" transform="translate(-684.89 -926.996)" fill="#fff"/>
  </g>
  <g id="Group_46182" data-name="Group 46182" transform="translate(24.516 49.243)">
    <path id="Path_42613" data-name="Path 42613" d="M836.223,954.27h0a.092.092,0,0,1-.089-.1c.083-2.071.1-4.17.037-6.239a.092.092,0,0,1,.184-.005c.058,2.073.046,4.176-.038,6.252A.092.092,0,0,1,836.223,954.27Z" transform="translate(-836.131 -947.84)" fill="#deedff"/>
  </g>
  <g id="Group_46183" data-name="Group 46183" transform="translate(23.33 59.661)">
    <path id="Path_42614" data-name="Path 42614" d="M817.041,1124.585c.4-2.4.708-4.83.916-7.25a.092.092,0,0,0-.184-.015c-.209,2.43-.518,4.869-.923,7.282Z" transform="translate(-816.85 -1117.234)" fill="#deedff"/>
  </g>
  <g id="Group_46185" data-name="Group 46185" transform="translate(21.019 29.693)">
    <g id="Group_46184" data-name="Group 46184" transform="translate(0)">
      <path id="Path_42615" data-name="Path 42615" d="M779.378,630.187a.115.115,0,0,0,0-.231.115.115,0,0,0,0,.231Z" transform="translate(-779.267 -629.956)" fill="#fff"/>
    </g>
  </g>
  <g id="Group_46187" data-name="Group 46187" transform="translate(24.288 25.679)">
    <g id="Group_46186" data-name="Group 46186" transform="translate(0 0)">
      <path id="Path_42616" data-name="Path 42616" d="M832.536,564.924a.115.115,0,0,0,0-.231.115.115,0,0,0,0,.231Z" transform="translate(-832.425 -564.693)" fill="#f78771"/>
    </g>
  </g>
  <g id="Group_46189" data-name="Group 46189" transform="translate(24.709 35.034)">
    <g id="Group_46188" data-name="Group 46188" transform="translate(0)">
      <path id="Path_42617" data-name="Path 42617" d="M839.378,717.03a.115.115,0,0,0,0-.231.115.115,0,0,0,0,.231Z" transform="translate(-839.267 -716.799)" fill="#f78771"/>
    </g>
  </g>
  <g id="Group_46191" data-name="Group 46191" transform="translate(13.542 32.347)">
    <g id="Group_46190" data-name="Group 46190" transform="translate(0 0)">
      <path id="Path_42618" data-name="Path 42618" d="M657.8,673.345a.115.115,0,0,0,0-.231.115.115,0,0,0,0,.231Z" transform="translate(-657.688 -673.114)" fill="#fff"/>
    </g>
  </g>
  <g id="Group_46193" data-name="Group 46193" transform="translate(17.297 22.992)">
    <g id="Group_46192" data-name="Group 46192" transform="translate(0 0)">
      <path id="Path_42619" data-name="Path 42619" d="M718.851,521.24a.115.115,0,0,0,0-.231.115.115,0,0,0,0,.231Z" transform="translate(-718.74 -521.009)" fill="#fff"/>
    </g>
  </g>
  <g id="Group_46195" data-name="Group 46195" transform="translate(31.83 30.081)">
    <g id="Group_46194" data-name="Group 46194" transform="translate(0 0)">
      <path id="Path_42620" data-name="Path 42620" d="M955.168,636.5a.115.115,0,0,0,0-.231.115.115,0,0,0,0,.231Z" transform="translate(-955.057 -636.272)" fill="#fff"/>
    </g>
  </g>
  <g id="Group_46196" data-name="Group 46196" transform="translate(11.125 68.131)">
    <path id="Path_42621" data-name="Path 42621" d="M624.806,1259.917l-.006-.026q-.051-.23-.1-.472-.071-.369-.129-.768h0c-.03-.208-.057-.424-.081-.643q-.041-.376-.062-.734c0-.035,0-.069-.007-.1a17.692,17.692,0,0,1-.013-1.784h0c0-.065.006-.13.009-.194l-.384.4a.4.4,0,0,1-.624-.053l-.032-.047a1.208,1.208,0,0,0-.961-.531c-.042,0-.085,0-.128,0a3.4,3.4,0,0,0-.536.047.805.805,0,0,0-.448.237h0a.813.813,0,0,0-.191.314,6.476,6.476,0,0,1-1.392,2.376c-.119.128-.238.246-.357.355s-.26.229-.387.328a1.294,1.294,0,0,0-.113.1,1.508,1.508,0,0,0-.346.494,1.583,1.583,0,0,0-.116.416,1.463,1.463,0,0,0-.013.164c0,.034,0,.069,0,.1,0,.01,0,.02,0,.031h6.418A.037.037,0,0,0,624.806,1259.917Zm-1.129-.405,0-.006a1.389,1.389,0,0,1,.148-.089S623.763,1259.458,623.678,1259.512Z" transform="translate(-618.39 -1254.956)" fill="#f69393"/>
  </g>
  <path id="Path_42622" data-name="Path 42622" d="M786.184,1262.8a2,2,0,0,1-1.4,1.635c-.125.091-7.3,0-7.433.031.153-.706.294-1.466.409-2.276s.2-1.606.246-2.337c1.1,1.025,1.6,1.119,1.845.984.35-.192.359-.932.861-1.046a.556.556,0,0,1,.246,0c.487.115.66.94.738,1.168.2.583,1.125,1.223,4.386,1.427C786.2,1262.452,786.166,1262.652,786.184,1262.8Z" transform="translate(-756.449 -1191.347)" fill="#f69393"/>
  <path id="Path_42623" data-name="Path 42623" d="M835.592,1266.792a.092.092,0,0,1-.033-.178,1.99,1.99,0,0,0,.558-.323,2.023,2.023,0,0,0,.559-.735.092.092,0,0,1,.168.076,2.212,2.212,0,0,1-.61.8,2.178,2.178,0,0,1-.61.353A.091.091,0,0,1,835.592,1266.792Z" transform="translate(-811.022 -1196.721)" fill="#deedff"/>
  <path id="Path_42624" data-name="Path 42624" d="M845.211,1271.256a.092.092,0,0,1-.039-.176,1.989,1.989,0,0,0,.536-.36,2.026,2.026,0,0,0,.509-.771.092.092,0,1,1,.173.064,2.213,2.213,0,0,1-.555.841,2.176,2.176,0,0,1-.585.393A.091.091,0,0,1,845.211,1271.256Z" transform="translate(-820.049 -1200.841)" fill="#deedff"/>
  <path id="Path_42625" data-name="Path 42625" d="M660.18,1265.007a2.166,2.166,0,0,1-1.275-.411.092.092,0,0,1,.108-.15,1.988,1.988,0,0,0,.578.288,2.022,2.022,0,0,0,.921.061.092.092,0,0,1,.03.182A2.243,2.243,0,0,1,660.18,1265.007Z" transform="translate(-645.252 -1195.716)" fill="#deedff"/>
  <path id="Path_42626" data-name="Path 42626" d="M655.9,1275.781a2.167,2.167,0,0,1-1.152-.33.092.092,0,0,1,.1-.157,1.99,1.99,0,0,0,.6.249,2.025,2.025,0,0,0,.923,0,.092.092,0,0,1,.042.18A2.234,2.234,0,0,1,655.9,1275.781Z" transform="translate(-641.347 -1205.899)" fill="#deedff"/>
  <path id="Path_42627" data-name="Path 42627" d="M783.823,1297.151a1.57,1.57,0,1,1,2.891.062Z" transform="translate(-762.513 -1224.405)" fill="#deedff"/>
  <path id="Path_42628" data-name="Path 42628" d="M698.3,1294.756l-1.48-.031a1.967,1.967,0,0,1,1.207-2.115c.015.239.035.484.062.734.024.219.051.435.081.643h0Q698.232,1294.388,698.3,1294.756Z" transform="translate(-680.864 -1222.163)" fill="#deedff"/>
  <g id="Group_46197" data-name="Group 46197" transform="translate(20.901 71.105)">
    <path id="Path_42629" data-name="Path 42629" d="M786.184,1303.655a1.557,1.557,0,0,1-.532,1.082,2.033,2.033,0,0,1-.868.553c-.037.012-.073.022-.107.031H777.35l.006-.031c.04-.21.079-.422.12-.633l4.157.035,2.974.026a1.409,1.409,0,0,0,.834-.333,2.324,2.324,0,0,0,.7-1.076A1.3,1.3,0,0,1,786.184,1303.655Z" transform="translate(-777.35 -1303.31)" fill="#404040"/>
  </g>
  <path id="Path_42630" data-name="Path 42630" d="M624.573,1315h0l-.747.339v0a6.971,6.971,0,0,1-5.307.221,1.571,1.571,0,0,0-.116.416,1.409,1.409,0,0,0-.013.164c0,.045,0,.089,0,.134H624.8l.006,0Z" transform="translate(-607.262 -1243.176)" fill="#404040"/>
  <path id="Path_42631" data-name="Path 42631" d="M732.648,461.5c-.045-.287-.025-.524.061-.553s.274.165.431.492Z" transform="translate(-714.474 -441.647)" fill="#a6cae2"/>
  <path id="Path_42632" data-name="Path 42632" d="M829.945,466.564c.16-.242.335-.4.419-.367s.091.307-.014.654Z" transform="translate(-805.809 -446.57)" fill="#a6cae2"/>
  <path id="Path_42633" data-name="Path 42633" d="M1677.449,385.1a.115.115,0,0,0,0-.231.115.115,0,0,0,0,.231Z" transform="translate(-1601.086 -370.25)" fill="#fff"/>
  <path id="Path_42634" data-name="Path 42634" d="M1024.5,958.013a.092.092,0,0,1-.065-.157l6.329-6.329a.092.092,0,1,1,.13.13l-6.329,6.329A.092.092,0,0,1,1024.5,958.013Z" transform="translate(-988.309 -902.032)" fill="#a6cae2"/>
  <path id="Path_42635" data-name="Path 42635" d="M1080.5,939.013a.092.092,0,0,1-.065-.157l6.329-6.329a.092.092,0,0,1,.131.13l-6.329,6.329A.092.092,0,0,1,1080.5,939.013Z" transform="translate(-1040.865 -884.2)" fill="#f8ac9f"/>
  <path id="Path_42636" data-name="Path 42636" d="M1374.078,1335.6h-26.836a.092.092,0,0,1,0-.185h26.836a.092.092,0,1,1,0,.185Z" transform="translate(-1291.206 -1262.34)" fill="#404040"/>
  <path id="Path_42637" data-name="Path 42637" d="M1894.2,1335.6h-7.955a.092.092,0,1,1,0-.185h7.955a.092.092,0,1,1,0,.185Z" transform="translate(-1797.056 -1262.34)" fill="#404040"/>
  <path id="Path_42638" data-name="Path 42638" d="M480.05,1335.439H437.592a.092.092,0,0,1,0-.185H480.05a.092.092,0,0,1,0,.185Z" transform="translate(-437.5 -1262.185)" fill="#404040"/>
  <path id="Path_42639" data-name="Path 42639" d="M1814.5,408.175a.092.092,0,0,1-.092-.092v-2.491a.092.092,0,1,1,.185,0v2.491A.092.092,0,0,1,1814.5,408.175Z" transform="translate(-1729.724 -389.611)" fill="#404040"/>
  <path id="Path_42640" data-name="Path 42640" d="M1796.738,425.934h-2.491a.092.092,0,1,1,0-.184h2.491a.092.092,0,0,1,0,.184Z" transform="translate(-1710.719 -408.616)" fill="#404040"/>
  <path id="Path_42641" data-name="Path 42641" d="M471,962.13a.092.092,0,0,1-.092-.092v-1.445a.092.092,0,1,1,.184,0v1.445A.092.092,0,0,1,471,962.13Z" transform="translate(-468.851 -910.478)" fill="#404040"/>
  <path id="Path_42642" data-name="Path 42642" d="M460.692,972.435h-1.445a.092.092,0,1,1,0-.185h1.445a.092.092,0,1,1,0,.185Z" transform="translate(-457.823 -921.506)" fill="#404040"/>
  <path id="Path_42643" data-name="Path 42643" d="M1691.727,1180.4a.114.114,0,0,1-.114-.114V1178.5a.114.114,0,0,1,.227,0v1.778A.114.114,0,0,1,1691.727,1180.4Z" transform="translate(-1614.484 -1114.968)" fill="#404040"/>
  <path id="Path_42644" data-name="Path 42644" d="M1679.047,1193.076h-1.779a.114.114,0,0,1,0-.227h1.779a.114.114,0,0,1,0,.227Z" transform="translate(-1600.915 -1128.538)" fill="#404040"/>
  <path id="Path_42645" data-name="Path 42645" d="M1883.235,1184.974l.035,1.991-1.456-.917.161,2.5-2.038-1.769.121-.139,1.7,1.479-.156-2.42,1.473.928-.029-1.65Z" transform="translate(-1791.225 -1121.147)" fill="#a6cae2"/>
  <path id="Path_42646" data-name="Path 42646" d="M900.767,247.247l-1.968.3.712-1.566-2.456.5,1.477-2.258.154.1-1.236,1.888,2.377-.481-.721,1.584,1.631-.251Z" transform="translate(-868.792 -238.253)" fill="#f8ac9f"/>
  <path id="Path_42647" data-name="Path 42647" d="M1769.668,692.367l-1.964,1.307-1.307-1.964,1.964-1.307Zm-1.913,1.052,1.657-1.1-1.1-1.657-1.657,1.1Z" transform="translate(-1684.668 -656.993)" fill="#fff"/>
  <path id="Path_42648" data-name="Path 42648" d="M557.958,697.49l1.8-1.526,1.526,1.8-1.8,1.526Zm1.778-1.266-1.518,1.287,1.287,1.518,1.518-1.287Z" transform="translate(-550.55 -662.212)" fill="#6363c1"/>
  <path id="Path_42649" data-name="Path 42649" d="M1774.552,1101.1a2.552,2.552,0,1,1,2.552-2.552A2.555,2.555,0,0,1,1774.552,1101.1Zm0-4.92a2.368,2.368,0,1,0,2.368,2.368A2.37,2.37,0,0,0,1774.552,1096.184Z" transform="translate(-1689.927 -1037.645)" fill="#fff"/>
  <circle id="Ellipse_390" data-name="Ellipse 390" cx="0.595" cy="0.595" r="0.595" transform="translate(8.63 60.64)" fill="#6397ff"/>
  <circle id="Ellipse_391" data-name="Ellipse 391" cx="0.595" cy="0.595" r="0.595" transform="translate(84.221 34.452)" fill="#6363c1"/>
  <ellipse id="Ellipse_392" data-name="Ellipse 392" cx="0.298" cy="0.595" rx="0.298" ry="0.595" transform="translate(33.629 5.882)" fill="#6363c1"/>
  <circle id="Ellipse_393" data-name="Ellipse 393" cx="0.298" cy="0.298" r="0.298" transform="translate(94.339 61.236)" fill="#6397ff"/>
  <rect id="Rectangle_20865" data-name="Rectangle 20865" width="4.762" height="1.19" transform="translate(6.25 64.807)" fill="#deedff"/>
  <rect id="Rectangle_20866" data-name="Rectangle 20866" width="4.762" height="0.595" transform="translate(83.03 27.309)" fill="#deedff"/>
  <rect id="Rectangle_20867" data-name="Rectangle 20867" width="4.762" height="1.19" transform="translate(74.697 67.188)" fill="#deedff"/>
  <rect id="Rectangle_20868" data-name="Rectangle 20868" width="3.571" height="1.19" transform="translate(88.982 29.69)" fill="#deedff"/>
  <path id="Path_42650" data-name="Path 42650" d="M1778.659,743.54h-.015a22.328,22.328,0,0,1-6.562-2.1,14.515,14.515,0,0,1-5.2-4.331,12.558,12.558,0,0,1,8.322-19.8.092.092,0,0,1,.027.182,12.374,12.374,0,0,0-8.2,19.5c2.353,3.244,6.488,5.5,11.644,6.362a.092.092,0,0,1-.015.183Z" transform="translate(-1682.906 -682.242)" fill="#fff"/>
  <rect id="Rectangle_20869" data-name="Rectangle 20869" width="4.797" height="1.107" transform="translate(87.731 46.347)" fill="#f69393"/>
  <rect id="Rectangle_20870" data-name="Rectangle 20870" width="2.381" height="1.19" transform="translate(84.221 46.356)" fill="#fff"/>
</svg>
