<svg xmlns="http://www.w3.org/2000/svg" width="356.997" height="285.224" viewBox="0 0 356.997 285.224">
  <g id="Group_49428" data-name="Group 49428" transform="translate(-145.384 -382.229)">
    <g id="Group_49427" data-name="Group 49427" transform="translate(145.384 382.229)">
      <g id="Group_49392" data-name="Group 49392" transform="translate(48.328 42.474)" opacity="0.3">
        <path id="Path_49435" data-name="Path 49435" d="M686.524,737.484h-2.993c-9.844,0-17.824-8.235-17.824-18.394h0a15.117,15.117,0,0,0-14.873-15.349h-19.7a18.206,18.206,0,0,0,8.275-15.609h0c0-9.836-7.151-17.811-15.972-17.811h-5.784a25.342,25.342,0,0,1-19.535-9.08,44.625,44.625,0,0,0-68.747,0,25.342,25.342,0,0,1-19.534,9.08h-7.279c-7.925,0-14.35,7.164-14.35,16h0c0,10.591-7.7,19.176-17.2,19.176h-2.888c-9.736,0-17.629,8.8-17.629,19.658h0c0,10.857,7.893,19.658,17.629,19.658,9.5,0,17.2,8.586,17.2,19.176v3.656A16.74,16.74,0,0,0,490.554,780h-29.84a16.26,16.26,0,0,0-16.26,16.26h0a16.26,16.26,0,0,0,16.26,16.26h102.5q.8,0,1.587-.077h89.024A15.117,15.117,0,0,0,668.7,797.1v-3.507c0-10.159,7.98-18.394,17.824-18.394h0c10.091,0,18.271-8.442,18.271-18.856h0C704.8,745.926,696.615,737.484,686.524,737.484Z" transform="translate(-444.454 -645.075)" fill="#9bc1f9"/>
      </g>
      <g id="Group_49393" data-name="Group 49393" transform="translate(136.148 58.332)">
        <path id="Path_49436" data-name="Path 49436" d="M1022.263,760.1l3.517-2.13-1-2.629-1-2.627-4.046.737a15.472,15.472,0,0,0-3.436-3.655l.981-3.993-2.564-1.154-2.564-1.156-2.338,3.382a15.431,15.431,0,0,0-5.014-.152l-2.13-3.519-2.629,1-2.627,1,.737,4.046a15.459,15.459,0,0,0-3.655,3.436l-3.993-.981-2.307,5.128,3.38,2.34a15.5,15.5,0,0,0-.151,5.014l-3.517,2.128,1,2.629,1,2.629,4.044-.737a15.515,15.515,0,0,0,3.438,3.655l-.981,3.993,2.564,1.154,2.562,1.154,2.34-3.38a15.427,15.427,0,0,0,5.014.152l2.13,3.517,2.627-1,2.63-1-.736-4.044a15.418,15.418,0,0,0,3.652-3.438l3.993.981,1.154-2.564,1.156-2.562-3.382-2.34A15.423,15.423,0,0,0,1022.263,760.1Zm-11.677,11.9a10.546,10.546,0,1,1,6.125-13.6A10.544,10.544,0,0,1,1010.586,772.006Z" transform="translate(-987.916 -743.208)" fill="#fff"/>
      </g>
      <g id="Group_49394" data-name="Group 49394" transform="translate(224.331 155.709)">
        <path id="Path_49437" data-name="Path 49437" d="M1567.976,1362.714l3.517-2.13-1-2.629-1-2.627-4.046.737a15.473,15.473,0,0,0-3.436-3.655l.981-3.993-2.564-1.153-2.564-1.156-2.338,3.382a15.439,15.439,0,0,0-5.014-.152l-2.131-3.52-2.629,1-2.627,1,.737,4.046a15.47,15.47,0,0,0-3.655,3.436l-3.993-.982-2.307,5.128,3.38,2.34a15.5,15.5,0,0,0-.152,5.014l-3.517,2.128,1,2.629,1,2.63,4.044-.736a15.52,15.52,0,0,0,3.438,3.655l-.981,3.993,2.564,1.154,2.561,1.154,2.34-3.38a15.435,15.435,0,0,0,5.014.151l2.13,3.517,2.627-.995,2.63-1-.737-4.044a15.418,15.418,0,0,0,3.652-3.438l3.993.981,1.154-2.564,1.156-2.562-3.382-2.34A15.426,15.426,0,0,0,1567.976,1362.714Zm-11.677,11.9a10.546,10.546,0,1,1,6.126-13.6A10.544,10.544,0,0,1,1556.3,1374.615Z" transform="translate(-1533.629 -1345.818)" fill="#fff"/>
      </g>
      <g id="Group_49397" data-name="Group 49397" transform="translate(77.136 166.259)">
        <g id="Group_49396" data-name="Group 49396" transform="translate(0)" style="mix-blend-mode: multiply;isolation: isolate">
          <g id="Group_49395" data-name="Group 49395">
            <path id="Path_49438" data-name="Path 49438" d="M654.556,1421.349a15.457,15.457,0,0,0-3.437-3.653l.981-3.993-2.563-1.154-2.563-1.154-2.339,3.381a15.45,15.45,0,0,0-5.013-.152l-2.13-3.518-2.629,1-2.629,1,.737,4.046a15.452,15.452,0,0,0-3.653,3.437l-3.992-.981-1.154,2.563-1.154,2.563,3.381,2.34a15.462,15.462,0,0,0-.152,5.014l-3.517,2.13,1,2.629,1,2.629,4.045-.737a15.467,15.467,0,0,0,3.437,3.654l-.981,3.993,2.563,1.155,2.563,1.154,2.339-3.381a15.459,15.459,0,0,0,5.013.152l2.129,3.518,2.629-1,2.629-1-.737-4.046A15.448,15.448,0,0,0,654,1439.5l3.993.981,1.154-2.563,1.154-2.563-3.381-2.34a15.454,15.454,0,0,0,.152-5.014l3.517-2.13-1-2.629-1-2.629ZM645.4,1439.9a10.547,10.547,0,1,1,6.124-13.6A10.546,10.546,0,0,1,645.4,1439.9Z" transform="translate(-622.728 -1411.105)" fill="#92bff8"/>
          </g>
        </g>
      </g>
      <g id="Group_49398" data-name="Group 49398" transform="translate(0 209.339)">
        <rect id="Rectangle_21614" data-name="Rectangle 21614" width="356.997" height="1.166" fill="#1d3b77"/>
      </g>
      <g id="Group_49400" data-name="Group 49400" transform="translate(201.739 46.679)">
        <g id="Group_49399" data-name="Group 49399">
          <path id="Path_49439" data-name="Path 49439" d="M1423.354,694.206c1.5-4.177-1.222-8.134-6.764-10.119a15.336,15.336,0,0,0-14.622,1.88l-8.147-9.749c7.109-5.342,16.711-6.9,28.221-2.781,12.789,4.581,19.609,13.47,16,23.531-4.887,13.641-19.76,10.044-23,19.082l-12.874-4.612C1406.45,699.5,1420.7,701.623,1423.354,694.206Zm-27.772,30.262c1.558-4.348,6.129-6.366,10.9-4.656s7.024,6.172,5.467,10.52a8.706,8.706,0,0,1-16.369-5.864Z" transform="translate(-1393.82 -671.094)" fill="#f89f9f"/>
        </g>
      </g>
      <g id="Group_49402" data-name="Group 49402" transform="translate(144.131 0)">
        <g id="Group_49401" data-name="Group 49401">
          <path id="Path_49440" data-name="Path 49440" d="M1071.191,401.338c0-4.437-3.894-7.245-9.781-7.245a15.337,15.337,0,0,0-13.132,6.7l-10.958-6.43c4.891-7.426,13.4-12.135,25.63-12.135,13.584,0,23,6.068,23,16.754,0,14.49-15.215,16.12-15.215,25.72h-13.675C1057.063,412.024,1071.191,409.217,1071.191,401.338Zm-15.939,37.855c0-4.619,3.623-8.06,8.694-8.06s8.694,3.441,8.694,8.06a8.707,8.707,0,0,1-17.388,0Z" transform="translate(-1037.32 -382.229)" fill="#204f74"/>
        </g>
      </g>
      <g id="Group_49404" data-name="Group 49404" transform="translate(76.138 43.81)">
        <g id="Group_49403" data-name="Group 49403" transform="translate(0)">
          <path id="Path_49441" data-name="Path 49441" d="M651,670.9c-1.278-4.249-5.816-5.817-11.453-4.121a15.337,15.337,0,0,0-10.645,10.2l-12.346-3c2.545-8.52,9.341-15.481,21.049-19,13.009-3.912,23.776-.814,26.853,9.42,4.173,13.876-9.928,19.819-7.163,29.012l-13.1,3.938C640.548,685.207,653.269,678.449,651,670.9Zm-4.362,40.842c-1.33-4.423,1.148-8.762,6-10.222s9.317.792,10.647,5.215a8.706,8.706,0,0,1-16.651,5.007Z" transform="translate(-616.556 -653.344)" fill="#f89f9f"/>
        </g>
      </g>
      <g id="Group_49406" data-name="Group 49406" transform="translate(83.226 124.41)">
        <g id="Group_49405" data-name="Group 49405">
          <path id="Path_49442" data-name="Path 49442" d="M677.956,1161.651c-1.585-1.962-4.31-1.813-6.913.29a8.719,8.719,0,0,0-3.413,7.655l-7.143,1.071c-.49-5.031,1.592-10.154,7-14.522,6.007-4.853,12.339-5.534,16.157-.809,5.176,6.407-.969,12.563,2.46,16.808l-6.047,4.885C675.527,1171.423,680.771,1165.135,677.956,1161.651Zm6.475,22.433a4.956,4.956,0,0,1,7.689-6.212,4.949,4.949,0,0,1-7.689,6.212Z" transform="translate(-660.418 -1152.127)" fill="#204f74"/>
        </g>
      </g>
      <g id="Group_49408" data-name="Group 49408" transform="translate(218.625 129.408)">
        <g id="Group_49407" data-name="Group 49407">
          <path id="Path_49443" data-name="Path 49443" d="M1510.755,1192.2c.906-1.149.472-2.671-1.052-3.873a5.056,5.056,0,0,0-4.768-.947l-1.523-3.9c2.783-.923,5.948-.4,9.113,2.093,3.516,2.775,4.715,6.269,2.532,9.035-2.959,3.751-7.231,1.065-9.191,3.55l-3.54-2.793C1504.916,1192.083,1509.146,1194.242,1510.755,1192.2Zm-11.858,6.544a2.875,2.875,0,0,1,4.5,3.552,2.871,2.871,0,0,1-4.5-3.552Z" transform="translate(-1498.319 -1183.052)" fill="#204f74"/>
        </g>
      </g>
      <g id="Group_49426" data-name="Group 49426" transform="translate(130.921 72.608)">
        <g id="Group_49409" data-name="Group 49409" transform="translate(33.261 33.335)">
          <path id="Path_49444" data-name="Path 49444" d="M1171.267,1039.092a9.186,9.186,0,0,1-2.368,1.53,10.108,10.108,0,0,1-7.5.124c.19-.391.359-.77.5-1.145s.272-.76.375-1.12c.061-.221.113-.431.159-.637a8.388,8.388,0,0,0,1.839,1.258.618.618,0,0,0,.082.046,7.639,7.639,0,0,0,1.083.431A8.037,8.037,0,0,0,1171.267,1039.092Z" transform="translate(-1161.401 -1037.844)" fill="#e75e6e"/>
        </g>
        <g id="Group_49410" data-name="Group 49410" transform="translate(30.585 33.006)">
          <path id="Path_49445" data-name="Path 49445" d="M1163.315,1042.729a12.339,12.339,0,0,1-10.769,4.4,12.146,12.146,0,0,1-7.7-4.34,12.241,12.241,0,0,0,1.736-2.1,15.51,15.51,0,0,0,.8-1.366c.051-.093.1-.19.144-.282a10.108,10.108,0,0,0,7.5-.124,9.189,9.189,0,0,0,2.367-1.531,11.053,11.053,0,0,0,1.916-1.161q.27-.2.524-.416a13.8,13.8,0,0,0,.493,1.9,12.5,12.5,0,0,0,2.912,4.935Z" transform="translate(-1144.842 -1035.811)" fill="#fbcba5"/>
        </g>
        <g id="Group_49411" data-name="Group 49411" transform="translate(1.676 39.924)">
          <path id="Path_49446" data-name="Path 49446" d="M1042.422,1123.768c-.113.334-.241.678-.39,1.032a16.306,16.306,0,0,1-6.949,7.781v-19.937a1.975,1.975,0,0,0-1.977-1.977H975.488a1.979,1.979,0,0,0-1.982,1.977v19.993a16.426,16.426,0,0,1-5.921-5.875,15.4,15.4,0,0,1-1.443-3.369,5.175,5.175,0,0,1-.046-2.686c1.042-4.191,2.039-7.668,2.814-10.225.935-3.087,1.782-5.619,2.547-7.724a73.855,73.855,0,0,1,3.677-8.618,28.334,28.334,0,0,1,4.227-6.625,15.732,15.732,0,0,1,1.438-1.382,26.051,26.051,0,0,1,7.2-4.206c2.629-.991,3.518-.8,5.336-2.024a11.29,11.29,0,0,0,1.515-1.222,12.146,12.146,0,0,0,7.7,4.34,12.339,12.339,0,0,0,10.77-4.4c.791.771,1.767,1.4,6.789,3.472,4.977,2.054,5.11,1.885,6.225,2.588,2.444,1.531,3.836,3.6,5.582,6.795a107.313,107.313,0,0,1,8.33,20.3c.622,2,1.418,4.694,2.286,7.924A7.078,7.078,0,0,1,1042.422,1123.768Z" transform="translate(-965.94 -1078.62)" fill="#f89f9f"/>
        </g>
        <g id="Group_49412" data-name="Group 49412">
          <path id="Path_49447" data-name="Path 49447" d="M1013.924,850.491c-.01,2-.026,4.858-2.07,7.293a9.689,9.689,0,0,1-5.218,3.081,9.944,9.944,0,0,1-2.7.216c1.463-2.788,1.587-5.927,1.721-9.023a8.435,8.435,0,0,1-2.414-.308c-2.065-.575-3.328-1.782-5.47-3.96-2.316-2.352-4.247-4.386-5.721-5.973-.565,1.525-.95,2.788-1.2,3.646a20.206,20.206,0,0,1-1.946,5.47c-1.027,1.731-1.607,1.777-1.823,1.761-.416-.036-.77-.411-1.258-1.319a12.287,12.287,0,0,1-.611-1.341,17.912,17.912,0,0,0,.658,8.119,15.911,15.911,0,0,0,3.7,6.461v.005c.1.093.2.185.293.272-.046.206-.1.416-.159.637-.1.36-.226.734-.375,1.119s-.308.755-.5,1.146c-.046.092-.092.19-.144.282a15.5,15.5,0,0,1-.8,1.366,12.249,12.249,0,0,1-1.736,2.1,11.31,11.31,0,0,1-1.515,1.222c-1.818,1.228-2.707,1.032-5.336,2.024a26.061,26.061,0,0,0-7.2,4.206,15.748,15.748,0,0,0-1.438,1.382A28.322,28.322,0,0,0,966.439,887a73.864,73.864,0,0,0-3.677,8.618,10.726,10.726,0,0,1-5.033-3.7,11.633,11.633,0,0,1-2.142-7.421,12.208,12.208,0,0,1,3.02-7.1c.991-1.094,2.557-1.957,5.659-3.647,5.182-2.819,5.8-2.619,7.729-4.211a17.9,17.9,0,0,0,4.524-5.659,21.819,21.819,0,0,0,2.08-8.423c.442-4.273-.262-4.447.185-7.734a18.988,18.988,0,0,1,3.456-9.3,17.443,17.443,0,0,1,8.993-6.1,16.838,16.838,0,0,1,11.566.565,17.655,17.655,0,0,1,7.734,7.164A18.656,18.656,0,0,1,1013.924,850.491Z" transform="translate(-955.569 -831.557)" fill="#1a1943"/>
        </g>
        <g id="Group_49413" data-name="Group 49413" transform="translate(53.94 53.441)">
          <path id="Path_49448" data-name="Path 49448" d="M1296.049,1181.906c-.081-.4-.157-.753-.235-1.073a83.935,83.935,0,0,0-6.446-18.44l.252-.123a84.236,84.236,0,0,1,6.466,18.5c.077.321.156.676.237,1.082Z" transform="translate(-1289.369 -1162.271)" fill="#2a458a"/>
        </g>
        <g id="Group_49414" data-name="Group 49414" transform="translate(20.216 59.042)">
          <path id="Path_49449" data-name="Path 49449" d="M1080.95,1210.953l-.279-.028c.037-.372.067-.724.092-1.074.145-1.748.257-3.361.344-4.933.146-2.689.236-5.376.267-7.985l.28,0c-.031,2.613-.121,5.3-.267,8-.087,1.575-.2,3.19-.344,4.939C1081.018,1210.223,1080.987,1210.577,1080.95,1210.953Z" transform="translate(-1080.671 -1196.932)" fill="#2a458a"/>
        </g>
        <g id="Group_49415" data-name="Group 49415" transform="translate(9.241 73.049)">
          <path id="Path_49450" data-name="Path 49450" d="M1074.335,1285.589v38.584a1.98,1.98,0,0,1-1.289,1.854,1.9,1.9,0,0,1-.688.123H1014.74a1.918,1.918,0,0,1-.688-.123,1.984,1.984,0,0,1-1.294-1.854v-38.584a1.979,1.979,0,0,1,1.982-1.977h57.617A1.975,1.975,0,0,1,1074.335,1285.589Z" transform="translate(-1012.758 -1283.612)" fill="#fff"/>
        </g>
        <g id="Group_49416" data-name="Group 49416" transform="translate(9.241 71.97)">
          <path id="Path_49451" data-name="Path 49451" d="M1074.335,1278.914v1.079a1.975,1.975,0,0,0-1.977-1.977H1014.74a1.979,1.979,0,0,0-1.982,1.977v-1.079a1.979,1.979,0,0,1,1.982-1.977h57.617A1.975,1.975,0,0,1,1074.335,1278.914Z" transform="translate(-1012.758 -1276.937)" fill="#b4b6b5"/>
        </g>
        <g id="Group_49417" data-name="Group 49417" transform="translate(10.535 115.465)">
          <path id="Path_49452" data-name="Path 49452" d="M1079.761,1546.1v1.3a1.153,1.153,0,0,1-1.156,1.151h-56.688a1.148,1.148,0,0,1-1.15-1.151v-1.3a1.922,1.922,0,0,0,.688.123h57.617A1.9,1.9,0,0,0,1079.761,1546.1Z" transform="translate(-1020.767 -1546.096)" fill="#ccc"/>
        </g>
        <g id="Group_49418" data-name="Group 49418" transform="translate(57.265 117.92)">
          <path id="Path_49453" data-name="Path 49453" d="M1319.875,1565.87a16.588,16.588,0,0,1-1.777,7.919c-.421-.935-.955-2.116-1.633-3.616-1.69-3.734-2.2-4.874-3.323-6.188a13.144,13.144,0,0,0-3.195-2.7h9.141A16.426,16.426,0,0,1,1319.875,1565.87Z" transform="translate(-1309.948 -1561.289)" fill="#404654"/>
        </g>
        <g id="Group_49419" data-name="Group 49419" transform="translate(13.679 117.92)">
          <path id="Path_49454" data-name="Path 49454" d="M1106.568,1612q-1.156.639-2.357,1.351c-.642.385-1.294.781-1.952,1.191q-2.273,1.425-4.268,2.855c-.236.164-.467.334-.7.5-1.448-1.72-2.891-3.533-4.309-5.444a115.65,115.65,0,0,1-14.534-26.1c.493-4.335.462-6.682-.544-9.383-.57-1.536-1.839-4.781-5.084-6.286a7.022,7.022,0,0,0-5.624-.354c-1.926.847-2.768,2.614-3.651,4.545a15.7,15.7,0,0,0-1.13,3.43c-.683.231-1.407.452-2.162.667-4.879,1.376-7.319,2.065-10.323,1.346a13.443,13.443,0,0,1-8.432-6.553c-1.834-3.595-1.264-7.041-.9-9.244a19.1,19.1,0,0,1,.842-3.231h42.364a13.144,13.144,0,0,1,3.195,2.7c1.125,1.315,1.633,2.455,3.323,6.188.678,1.5,1.212,2.681,1.633,3.616,1.751,3.877,1.6,3.492,1.777,3.924,3.051,7.4,5.634,14.529,6.908,18.042C1101.894,1599.211,1103.933,1604.814,1106.568,1612Z" transform="translate(-1040.22 -1561.289)" fill="#404654"/>
        </g>
        <g id="Group_49420" data-name="Group 49420" transform="translate(30.185 126.499)">
          <path id="Path_49455" data-name="Path 49455" d="M1164.088,1630.862c-.072.637-.154,1.315-.246,2.044-1.238,9.758-2.573,16.033-2.573,16.033-1.223,5.767-1.792,7.467-3.287,13.882-1.479,6.322-2.557,11.643-3.292,15.5-.93-.206-1.88-.406-2.84-.6q-1.54-.316-3.143-.6c-1.541-.283-3.056-.529-4.535-.75-.606-.1-1.212-.185-1.808-.267,1.063-4.987,1.674-9.085,2.034-11.848.375-2.886.755-7.709,1.495-17.23.488-6.276.734-9.408.781-10.174.138-2.357.282-5.315.714-9.393a46.008,46.008,0,0,1,.668-4.648,15.7,15.7,0,0,1,1.13-3.43c.883-1.931,1.725-3.7,3.651-4.545a7.021,7.021,0,0,1,5.624.354c3.246,1.5,4.514,4.75,5.084,6.286C1164.55,1624.181,1164.581,1626.528,1164.088,1630.862Z" transform="translate(-1142.364 -1614.379)" fill="#404654"/>
        </g>
        <g id="Group_49421" data-name="Group 49421" transform="translate(71.45 169.98)">
          <path id="Path_49456" data-name="Path 49456" d="M1408.221,1889.885a6.267,6.267,0,0,0-1.536,1.479,5.06,5.06,0,0,0-1.058,2.3c-.118.806.087,1.058-.123,1.495-.2.4-.673.8-1.8.975a21.3,21.3,0,0,1-4.509-5.459v-.005c-.231-.4-.447-.806-.652-1.232-.319-.662-.585-1.31-.812-1.931q2-1.425,4.268-2.855c.657-.411,1.31-.806,1.952-1.192.267.56.57,1.135.9,1.72.37.647.755,1.259,1.14,1.834A29.006,29.006,0,0,0,1408.221,1889.885Z" transform="translate(-1397.729 -1883.46)" fill="#fbcba5"/>
        </g>
        <g id="Group_49422" data-name="Group 49422" transform="translate(72.914 173.534)">
          <path id="Path_49457" data-name="Path 49457" d="M1429.009,1919.222a3.648,3.648,0,0,1-1.52,2.27,8.918,8.918,0,0,1-5.285,1.833,9.823,9.823,0,0,1-4.879-.683,16.1,16.1,0,0,1-3.3-2.424c-.5-.421-1.695-1.572-4.068-3.857a10.372,10.372,0,0,1-1.525-1.618,8.833,8.833,0,0,1-1.428-3.507,10.419,10.419,0,0,1-.221-2.121,21.3,21.3,0,0,0,4.509,5.459c1.13-.18,1.6-.58,1.8-.976.211-.437.005-.688.123-1.495a5.058,5.058,0,0,1,1.058-2.3,6.261,6.261,0,0,1,1.536-1.479,28.929,28.929,0,0,1-2.229-2.871,21.1,21.1,0,0,1,2.8,1.489,28.986,28.986,0,0,1,3.267,2.491c1.078.9,1.161,1.053,3.385,3.015,1.263,1.109,1.895,1.664,2.146,1.864,1.736,1.355,2.383,1.5,3.076,2.547A3.466,3.466,0,0,1,1429.009,1919.222Z" transform="translate(-1406.787 -1905.453)" fill="#1a1943"/>
        </g>
        <g id="Group_49423" data-name="Group 49423" transform="translate(31.186 188.494)">
          <path id="Path_49458" data-name="Path 49458" d="M1157.045,1999.383c-.041.806-.082,1.618-.118,2.445v0c-.02.478-.036.961-.051,1.443-.01.3-.015.6-.026.888v.006c-.273.59-.493,1.114-.668,1.576-.508,1.31-.868,2.532-1.977,3.025a2.711,2.711,0,0,1-1.566.159,4.109,4.109,0,0,0-.7-2.265,4.354,4.354,0,0,0-2.624-1.684,4.675,4.675,0,0,0-.755-.134,17.1,17.1,0,0,0,.56-2.3c0-.005,0-.005.005-.005.046-.256.087-.524.123-.8a18.42,18.42,0,0,0,.118-3.718c1.479.22,2.994.467,4.535.75Q1155.5,1999.067,1157.045,1999.383Z" transform="translate(-1148.561 -1998.032)" fill="#fbcba5"/>
        </g>
        <g id="Group_49424" data-name="Group 49424" transform="translate(24.159 192.295)">
          <path id="Path_49459" data-name="Path 49459" d="M1120.983,2029.973a24.221,24.221,0,0,1-1.91,5.249,12.321,12.321,0,0,1-2.758,4,10.205,10.205,0,0,1-5.141,2.4c-1.551.272-3.092.54-4.417-.4a4.218,4.218,0,0,1-1.664-2.671c-.051-.416-.051-.986,1.058-3.523.616-1.412.786-1.623,1.546-3.256.354-.754.806-1.8,1.705-3.883,1.1-2.542,1.058-2.486,1.212-2.778.087-.165.185-.344.3-.529a13.3,13.3,0,0,1,1.751-2.306,17.086,17.086,0,0,1-.56,2.3,4.672,4.672,0,0,1,.755.134,4.355,4.355,0,0,1,2.624,1.684,4.109,4.109,0,0,1,.7,2.265,2.708,2.708,0,0,0,1.566-.159c1.109-.493,1.469-1.716,1.977-3.025.175-.462.4-.986.668-1.577v-.005c.01-.293.016-.59.026-.888.015-.483.031-.965.051-1.443a11.732,11.732,0,0,1,.462,1.238,12.653,12.653,0,0,1,.406,1.551,10.429,10.429,0,0,1,.226,1.772A11.965,11.965,0,0,1,1120.983,2029.973Z" transform="translate(-1105.076 -2021.55)" fill="#1a1943"/>
        </g>
        <g id="Group_49425" data-name="Group 49425" transform="translate(29.453 10.26)">
          <path id="Path_49460" data-name="Path 49460" d="M1158.468,905.291c-.134,3.1-.257,6.235-1.72,9.023a.459.459,0,0,0-.026.052,11.854,11.854,0,0,1-2.773,3.431q-.254.216-.524.416a11.067,11.067,0,0,1-1.916,1.161,8.036,8.036,0,0,1-5.829.488,7.639,7.639,0,0,1-1.084-.431.665.665,0,0,1-.082-.046,8.394,8.394,0,0,1-1.839-1.258c-.1-.087-.2-.18-.293-.272v-.005a15.912,15.912,0,0,1-3.7-6.461,17.908,17.908,0,0,1-.658-8.119,12.245,12.245,0,0,0,.612,1.34c.488.909.842,1.284,1.258,1.32.216.016.8-.03,1.823-1.761a20.193,20.193,0,0,0,1.946-5.47c.247-.858.632-2.121,1.2-3.646,1.474,1.587,3.405,3.62,5.721,5.972,2.142,2.178,3.4,3.384,5.469,3.96A8.438,8.438,0,0,0,1158.468,905.291Z" transform="translate(-1137.835 -895.05)" fill="#fbcba5"/>
        </g>
      </g>
    </g>
  </g>
</svg>
