<svg xmlns="http://www.w3.org/2000/svg" width="72.173" height="67.988" viewBox="0 0 72.173 67.988">
  <g id="Group_49168" data-name="Group 49168" transform="translate(12807.006 15323.272)">
    <g id="man_753262" transform="translate(-12897.027 -15373.051)">
      <g id="Group_49166" data-name="Group 49166" transform="translate(155.022 49.778)">
        <path id="Path_49419" data-name="Path 49419" d="M162.2,135.237v4.617a.568.568,0,1,1-1.136,0v-4.261a.284.284,0,1,0-.568,0v10.8a.712.712,0,0,1-.71.71.671.671,0,0,1-.71-.71v-4.9h-.923v4.9a.712.712,0,0,1-.71.71.671.671,0,0,1-.71-.71V135.663a.284.284,0,1,0-.568,0v4.261a.568.568,0,0,1-1.136,0v-4.617a1.728,1.728,0,0,1,1.7-1.7h3.693A1.644,1.644,0,0,1,162.2,135.237Z" transform="translate(-155.022 -129.413)" fill="#2b6050"/>
        <circle id="Ellipse_628" data-name="Ellipse 628" cx="1.705" cy="1.705" r="1.705" transform="translate(1.918 0)" fill="#2b6050"/>
      </g>
    </g>
    <g id="man_753262-2" data-name="man_753262" transform="translate(-12910.027 -15373.051)">
      <g id="Group_49166-2" data-name="Group 49166" transform="translate(155.022 49.778)">
        <path id="Path_49419-2" data-name="Path 49419" d="M162.2,135.237v4.617a.568.568,0,1,1-1.136,0v-4.261a.284.284,0,1,0-.568,0v10.8a.712.712,0,0,1-.71.71.671.671,0,0,1-.71-.71v-4.9h-.923v4.9a.712.712,0,0,1-.71.71.671.671,0,0,1-.71-.71V135.663a.284.284,0,1,0-.568,0v4.261a.568.568,0,0,1-1.136,0v-4.617a1.728,1.728,0,0,1,1.7-1.7h3.693A1.644,1.644,0,0,1,162.2,135.237Z" transform="translate(-155.022 -129.413)" fill="#2b6050"/>
        <circle id="Ellipse_628-2" data-name="Ellipse 628" cx="1.705" cy="1.705" r="1.705" transform="translate(1.918 0)" fill="#2b6050"/>
      </g>
    </g>
    <g id="man_753262-3" data-name="man_753262" transform="translate(-12923.027 -15373.051)">
      <g id="Group_49166-3" data-name="Group 49166" transform="translate(155.022 49.778)">
        <path id="Path_49419-3" data-name="Path 49419" d="M162.2,135.237v4.617a.568.568,0,1,1-1.136,0v-4.261a.284.284,0,1,0-.568,0v10.8a.712.712,0,0,1-.71.71.671.671,0,0,1-.71-.71v-4.9h-.923v4.9a.712.712,0,0,1-.71.71.671.671,0,0,1-.71-.71V135.663a.284.284,0,1,0-.568,0v4.261a.568.568,0,0,1-1.136,0v-4.617a1.728,1.728,0,0,1,1.7-1.7h3.693A1.644,1.644,0,0,1,162.2,135.237Z" transform="translate(-155.022 -129.413)" fill="#2b6050"/>
        <circle id="Ellipse_628-3" data-name="Ellipse 628" cx="1.705" cy="1.705" r="1.705" transform="translate(1.918 0)" fill="#2b6050"/>
      </g>
    </g>
    <g id="man_753262-4" data-name="man_753262" transform="translate(-12936.027 -15373.051)">
      <g id="Group_49166-4" data-name="Group 49166" transform="translate(155.022 49.778)">
        <path id="Path_49419-4" data-name="Path 49419" d="M162.2,135.237v4.617a.568.568,0,1,1-1.136,0v-4.261a.284.284,0,1,0-.568,0v10.8a.712.712,0,0,1-.71.71.671.671,0,0,1-.71-.71v-4.9h-.923v4.9a.712.712,0,0,1-.71.71.671.671,0,0,1-.71-.71V135.663a.284.284,0,1,0-.568,0v4.261a.568.568,0,0,1-1.136,0v-4.617a1.728,1.728,0,0,1,1.7-1.7h3.693A1.644,1.644,0,0,1,162.2,135.237Z" transform="translate(-155.022 -129.413)" fill="#2b6050"/>
        <circle id="Ellipse_628-4" data-name="Ellipse 628" cx="1.705" cy="1.705" r="1.705" transform="translate(1.918 0)" fill="#2b6050"/>
      </g>
    </g>
    <g id="man_753262-5" data-name="man_753262" transform="translate(-12949.027 -15373.051)">
      <g id="Group_49166-5" data-name="Group 49166" transform="translate(155.022 49.778)">
        <path id="Path_49419-5" data-name="Path 49419" d="M162.2,135.237v4.617a.568.568,0,1,1-1.136,0v-4.261a.284.284,0,1,0-.568,0v10.8a.712.712,0,0,1-.71.71.671.671,0,0,1-.71-.71v-4.9h-.923v4.9a.712.712,0,0,1-.71.71.671.671,0,0,1-.71-.71V135.663a.284.284,0,1,0-.568,0v4.261a.568.568,0,0,1-1.136,0v-4.617a1.728,1.728,0,0,1,1.7-1.7h3.693A1.644,1.644,0,0,1,162.2,135.237Z" transform="translate(-155.022 -129.413)" fill="#2b6050"/>
        <circle id="Ellipse_628-5" data-name="Ellipse 628" cx="1.705" cy="1.705" r="1.705" transform="translate(1.918 0)" fill="#2b6050"/>
      </g>
    </g>
    <g id="man_753262-6" data-name="man_753262" transform="translate(-12962.027 -15373.051)">
      <g id="Group_49166-6" data-name="Group 49166" transform="translate(155.022 49.778)">
        <path id="Path_49419-6" data-name="Path 49419" d="M162.2,135.237v4.617a.568.568,0,1,1-1.136,0v-4.261a.284.284,0,1,0-.568,0v10.8a.712.712,0,0,1-.71.71.671.671,0,0,1-.71-.71v-4.9h-.923v4.9a.712.712,0,0,1-.71.71.671.671,0,0,1-.71-.71V135.663a.284.284,0,1,0-.568,0v4.261a.568.568,0,0,1-1.136,0v-4.617a1.728,1.728,0,0,1,1.7-1.7h3.693A1.644,1.644,0,0,1,162.2,135.237Z" transform="translate(-155.022 -129.413)" fill="#2b6050"/>
        <circle id="Ellipse_628-6" data-name="Ellipse 628" cx="1.705" cy="1.705" r="1.705" transform="translate(1.918 0)" fill="#2b6050"/>
      </g>
    </g>
    <g id="man_753262-7" data-name="man_753262" transform="translate(-12897.027 -15347.899)">
      <g id="Group_49166-7" data-name="Group 49166" transform="translate(155.022 49.778)">
        <path id="Path_49419-7" data-name="Path 49419" d="M162.2,135.237v4.617a.568.568,0,1,1-1.136,0v-4.261a.284.284,0,1,0-.568,0v10.8a.712.712,0,0,1-.71.71.671.671,0,0,1-.71-.71v-4.9h-.923v4.9a.712.712,0,0,1-.71.71.671.671,0,0,1-.71-.71V135.663a.284.284,0,1,0-.568,0v4.261a.568.568,0,0,1-1.136,0v-4.617a1.728,1.728,0,0,1,1.7-1.7h3.693A1.644,1.644,0,0,1,162.2,135.237Z" transform="translate(-155.022 -129.413)" fill="#2b6050"/>
        <circle id="Ellipse_628-7" data-name="Ellipse 628" cx="1.705" cy="1.705" r="1.705" transform="translate(1.918 0)" fill="#2b6050"/>
      </g>
    </g>
    <g id="man_753262-8" data-name="man_753262" transform="translate(-12910.027 -15347.899)">
      <g id="Group_49166-8" data-name="Group 49166" transform="translate(155.022 49.778)">
        <path id="Path_49419-8" data-name="Path 49419" d="M162.2,135.237v4.617a.568.568,0,1,1-1.136,0v-4.261a.284.284,0,1,0-.568,0v10.8a.712.712,0,0,1-.71.71.671.671,0,0,1-.71-.71v-4.9h-.923v4.9a.712.712,0,0,1-.71.71.671.671,0,0,1-.71-.71V135.663a.284.284,0,1,0-.568,0v4.261a.568.568,0,0,1-1.136,0v-4.617a1.728,1.728,0,0,1,1.7-1.7h3.693A1.644,1.644,0,0,1,162.2,135.237Z" transform="translate(-155.022 -129.413)" fill="#2b6050"/>
        <circle id="Ellipse_628-8" data-name="Ellipse 628" cx="1.705" cy="1.705" r="1.705" transform="translate(1.918 0)" fill="#2b6050"/>
      </g>
    </g>
    <g id="man_753262-9" data-name="man_753262" transform="translate(-12923.027 -15347.899)">
      <g id="Group_49166-9" data-name="Group 49166" transform="translate(155.022 49.778)">
        <path id="Path_49419-9" data-name="Path 49419" d="M162.2,135.237v4.617a.568.568,0,1,1-1.136,0v-4.261a.284.284,0,1,0-.568,0v10.8a.712.712,0,0,1-.71.71.671.671,0,0,1-.71-.71v-4.9h-.923v4.9a.712.712,0,0,1-.71.71.671.671,0,0,1-.71-.71V135.663a.284.284,0,1,0-.568,0v4.261a.568.568,0,0,1-1.136,0v-4.617a1.728,1.728,0,0,1,1.7-1.7h3.693A1.644,1.644,0,0,1,162.2,135.237Z" transform="translate(-155.022 -129.413)" fill="#2b6050"/>
        <circle id="Ellipse_628-9" data-name="Ellipse 628" cx="1.705" cy="1.705" r="1.705" transform="translate(1.918 0)" fill="#2b6050"/>
      </g>
    </g>
    <g id="man_753262-10" data-name="man_753262" transform="translate(-12936.027 -15347.899)">
      <g id="Group_49166-10" data-name="Group 49166" transform="translate(155.022 49.778)">
        <path id="Path_49419-10" data-name="Path 49419" d="M162.2,135.237v4.617a.568.568,0,1,1-1.136,0v-4.261a.284.284,0,1,0-.568,0v10.8a.712.712,0,0,1-.71.71.671.671,0,0,1-.71-.71v-4.9h-.923v4.9a.712.712,0,0,1-.71.71.671.671,0,0,1-.71-.71V135.663a.284.284,0,1,0-.568,0v4.261a.568.568,0,0,1-1.136,0v-4.617a1.728,1.728,0,0,1,1.7-1.7h3.693A1.644,1.644,0,0,1,162.2,135.237Z" transform="translate(-155.022 -129.413)" fill="#2b6050"/>
        <circle id="Ellipse_628-10" data-name="Ellipse 628" cx="1.705" cy="1.705" r="1.705" transform="translate(1.918 0)" fill="#2b6050"/>
      </g>
    </g>
    <g id="man_753262-11" data-name="man_753262" transform="translate(-12949.027 -15347.899)">
      <g id="Group_49166-11" data-name="Group 49166" transform="translate(155.022 49.778)">
        <path id="Path_49419-11" data-name="Path 49419" d="M162.2,135.237v4.617a.568.568,0,1,1-1.136,0v-4.261a.284.284,0,1,0-.568,0v10.8a.712.712,0,0,1-.71.71.671.671,0,0,1-.71-.71v-4.9h-.923v4.9a.712.712,0,0,1-.71.71.671.671,0,0,1-.71-.71V135.663a.284.284,0,1,0-.568,0v4.261a.568.568,0,0,1-1.136,0v-4.617a1.728,1.728,0,0,1,1.7-1.7h3.693A1.644,1.644,0,0,1,162.2,135.237Z" transform="translate(-155.022 -129.413)" fill="#2b6050"/>
        <circle id="Ellipse_628-11" data-name="Ellipse 628" cx="1.705" cy="1.705" r="1.705" transform="translate(1.918 0)" fill="#2b6050"/>
      </g>
    </g>
    <g id="man_753262-12" data-name="man_753262" transform="translate(-12962.027 -15347.899)">
      <g id="Group_49166-12" data-name="Group 49166" transform="translate(155.022 49.778)">
        <path id="Path_49419-12" data-name="Path 49419" d="M162.2,135.237v4.617a.568.568,0,1,1-1.136,0v-4.261a.284.284,0,1,0-.568,0v10.8a.712.712,0,0,1-.71.71.671.671,0,0,1-.71-.71v-4.9h-.923v4.9a.712.712,0,0,1-.71.71.671.671,0,0,1-.71-.71V135.663a.284.284,0,1,0-.568,0v4.261a.568.568,0,0,1-1.136,0v-4.617a1.728,1.728,0,0,1,1.7-1.7h3.693A1.644,1.644,0,0,1,162.2,135.237Z" transform="translate(-155.022 -129.413)" fill="#2b6050"/>
        <circle id="Ellipse_628-12" data-name="Ellipse 628" cx="1.705" cy="1.705" r="1.705" transform="translate(1.918 0)" fill="#2b6050"/>
      </g>
    </g>
    <g id="man_753262-13" data-name="man_753262" transform="translate(-12897.027 -15322.748)">
      <g id="Group_49166-13" data-name="Group 49166" transform="translate(155.022 49.778)">
        <path id="Path_49419-13" data-name="Path 49419" d="M162.2,135.237v4.617a.568.568,0,1,1-1.136,0v-4.261a.284.284,0,1,0-.568,0v10.8a.712.712,0,0,1-.71.71.671.671,0,0,1-.71-.71v-4.9h-.923v4.9a.712.712,0,0,1-.71.71.671.671,0,0,1-.71-.71V135.663a.284.284,0,1,0-.568,0v4.261a.568.568,0,0,1-1.136,0v-4.617a1.728,1.728,0,0,1,1.7-1.7h3.693A1.644,1.644,0,0,1,162.2,135.237Z" transform="translate(-155.022 -129.413)" fill="#2b6050"/>
        <circle id="Ellipse_628-13" data-name="Ellipse 628" cx="1.705" cy="1.705" r="1.705" transform="translate(1.918 0)" fill="#2b6050"/>
      </g>
    </g>
    <g id="man_753262-14" data-name="man_753262" transform="translate(-12910.027 -15322.748)">
      <g id="Group_49166-14" data-name="Group 49166" transform="translate(155.022 49.778)">
        <path id="Path_49419-14" data-name="Path 49419" d="M162.2,135.237v4.617a.568.568,0,1,1-1.136,0v-4.261a.284.284,0,1,0-.568,0v10.8a.712.712,0,0,1-.71.71.671.671,0,0,1-.71-.71v-4.9h-.923v4.9a.712.712,0,0,1-.71.71.671.671,0,0,1-.71-.71V135.663a.284.284,0,1,0-.568,0v4.261a.568.568,0,0,1-1.136,0v-4.617a1.728,1.728,0,0,1,1.7-1.7h3.693A1.644,1.644,0,0,1,162.2,135.237Z" transform="translate(-155.022 -129.413)" fill="#2b6050"/>
        <circle id="Ellipse_628-14" data-name="Ellipse 628" cx="1.705" cy="1.705" r="1.705" transform="translate(1.918 0)" fill="#2b6050"/>
      </g>
    </g>
    <g id="man_753262-15" data-name="man_753262" transform="translate(-12923.027 -15322.748)">
      <g id="Group_49166-15" data-name="Group 49166" transform="translate(155.022 49.778)">
        <path id="Path_49419-15" data-name="Path 49419" d="M162.2,135.237v4.617a.568.568,0,1,1-1.136,0v-4.261a.284.284,0,1,0-.568,0v10.8a.712.712,0,0,1-.71.71.671.671,0,0,1-.71-.71v-4.9h-.923v4.9a.712.712,0,0,1-.71.71.671.671,0,0,1-.71-.71V135.663a.284.284,0,1,0-.568,0v4.261a.568.568,0,0,1-1.136,0v-4.617a1.728,1.728,0,0,1,1.7-1.7h3.693A1.644,1.644,0,0,1,162.2,135.237Z" transform="translate(-155.022 -129.413)" fill="#2b6050"/>
        <circle id="Ellipse_628-15" data-name="Ellipse 628" cx="1.705" cy="1.705" r="1.705" transform="translate(1.918 0)" fill="#2b6050"/>
      </g>
    </g>
    <g id="man_753262-16" data-name="man_753262" transform="translate(-12936.027 -15322.748)">
      <g id="Group_49166-16" data-name="Group 49166" transform="translate(155.022 49.778)">
        <path id="Path_49419-16" data-name="Path 49419" d="M162.2,135.237v4.617a.568.568,0,1,1-1.136,0v-4.261a.284.284,0,1,0-.568,0v10.8a.712.712,0,0,1-.71.71.671.671,0,0,1-.71-.71v-4.9h-.923v4.9a.712.712,0,0,1-.71.71.671.671,0,0,1-.71-.71V135.663a.284.284,0,1,0-.568,0v4.261a.568.568,0,0,1-1.136,0v-4.617a1.728,1.728,0,0,1,1.7-1.7h3.693A1.644,1.644,0,0,1,162.2,135.237Z" transform="translate(-155.022 -129.413)" fill="#2b6050"/>
        <circle id="Ellipse_628-16" data-name="Ellipse 628" cx="1.705" cy="1.705" r="1.705" transform="translate(1.918 0)" fill="#2b6050"/>
      </g>
    </g>
    <g id="man_753262-17" data-name="man_753262" transform="translate(-12949.027 -15322.748)">
      <g id="Group_49166-17" data-name="Group 49166" transform="translate(155.022 49.778)">
        <path id="Path_49419-17" data-name="Path 49419" d="M162.2,135.237v4.617a.568.568,0,1,1-1.136,0v-4.261a.284.284,0,1,0-.568,0v10.8a.712.712,0,0,1-.71.71.671.671,0,0,1-.71-.71v-4.9h-.923v4.9a.712.712,0,0,1-.71.71.671.671,0,0,1-.71-.71V135.663a.284.284,0,1,0-.568,0v4.261a.568.568,0,0,1-1.136,0v-4.617a1.728,1.728,0,0,1,1.7-1.7h3.693A1.644,1.644,0,0,1,162.2,135.237Z" transform="translate(-155.022 -129.413)" fill="#2b6050"/>
        <circle id="Ellipse_628-17" data-name="Ellipse 628" cx="1.705" cy="1.705" r="1.705" transform="translate(1.918 0)" fill="#2b6050"/>
      </g>
    </g>
    <g id="man_753262-18" data-name="man_753262" transform="translate(-12962.027 -15322.748)">
      <g id="Group_49166-18" data-name="Group 49166" transform="translate(155.022 49.778)">
        <path id="Path_49419-18" data-name="Path 49419" d="M162.2,135.237v4.617a.568.568,0,1,1-1.136,0v-4.261a.284.284,0,1,0-.568,0v10.8a.712.712,0,0,1-.71.71.671.671,0,0,1-.71-.71v-4.9h-.923v4.9a.712.712,0,0,1-.71.71.671.671,0,0,1-.71-.71V135.663a.284.284,0,1,0-.568,0v4.261a.568.568,0,0,1-1.136,0v-4.617a1.728,1.728,0,0,1,1.7-1.7h3.693A1.644,1.644,0,0,1,162.2,135.237Z" transform="translate(-155.022 -129.413)" fill="#2b6050"/>
        <circle id="Ellipse_628-18" data-name="Ellipse 628" cx="1.705" cy="1.705" r="1.705" transform="translate(1.918 0)" fill="#2b6050"/>
      </g>
    </g>
  </g>
</svg>
