<svg xmlns="http://www.w3.org/2000/svg" width="51" height="51" viewBox="0 0 51 51">
  <g id="Group_11331" data-name="Group 11331" transform="translate(0.429 0.005)">
    <circle id="Ellipse_363" data-name="Ellipse 363" cx="25.5" cy="25.5" r="25.5" transform="translate(-0.429 -0.005)" fill="#fff"/>
    <g id="Page-1" transform="translate(5.994 13.37)">
      <g id="Dribbble-Light-Preview">
        <g id="icons">
          <path id="google_plus-_165_" data-name="google_plus-[#165]" d="M398.676,7292.073v-3.621h-3.853v3.621H390.97v3.622h3.853v3.623h3.853V7295.7h3.853v-3.622Zm-10.788,0a10.444,10.444,0,0,1,.193,2.332,11.325,11.325,0,0,1-11.8,11.713c-6.791,0-12.285-5.164-12.285-11.56,0-6.378,5.494-11.559,12.285-11.559a12.155,12.155,0,0,1,8.232,3l-3.335,2.985a7.141,7.141,0,0,0-4.9-1.866,7.349,7.349,0,0,0-7.617,7.146c0,4.026,3.423,6.992,7.617,6.992a6.8,6.8,0,0,0,6.968-5.567h-7.694v-3.622Z" transform="translate(-364 -7283)" fill="#2b6050" fill-rule="evenodd"/>
        </g>
      </g>
    </g>
  </g>
</svg>
