<svg xmlns="http://www.w3.org/2000/svg" xmlns:xlink="http://www.w3.org/1999/xlink" width="445.332" height="386.801" viewBox="0 0 445.332 386.801">
  <defs>
    <clipPath id="clip-path">
      <path id="Path_56264" data-name="Path 56264" d="M3347.452,432.992A18.193,18.193,0,1,1,3329.26,414.8,18.193,18.193,0,0,1,3347.452,432.992Z" transform="translate(-3311.067 -414.8)" fill="#8dcfff"/>
    </clipPath>
    <clipPath id="clip-path-2">
      <path id="Path_56283" data-name="Path 56283" d="M3347.452,538.074a18.193,18.193,0,1,1-18.192-18.192A18.193,18.193,0,0,1,3347.452,538.074Z" transform="translate(-3311.067 -519.882)" fill="#8dcfff"/>
    </clipPath>
    <clipPath id="clip-path-3">
      <path id="Path_56298" data-name="Path 56298" d="M3347.452,643.872a18.193,18.193,0,1,1-18.192-18.192A18.193,18.193,0,0,1,3347.452,643.872Z" transform="translate(-3311.067 -625.68)" fill="#8dcfff"/>
    </clipPath>
    <clipPath id="clip-path-4">
      <circle id="Ellipse_730" data-name="Ellipse 730" cx="18.034" cy="18.034" r="18.034" transform="matrix(0.071, -0.997, 0.997, 0.071, 0, 35.976)" fill="#8dcfff"/>
    </clipPath>
    <linearGradient id="linear-gradient" x1="92.769" y1="-0.87" x2="93.143" y2="-0.82" gradientUnits="objectBoundingBox">
      <stop offset="0" stop-color="#d1dbea"/>
      <stop offset="1" stop-color="#dbe7f3"/>
    </linearGradient>
  </defs>
  <g id="Group_53775" data-name="Group 53775" transform="translate(-7876.956 5550.655)">
    <path id="Path_44466" data-name="Path 44466" d="M438.584,352.49s88.652-138.119,47.8-226.447S348.026,37.211,314.317,74.126c-20.6,22.562-14.6,60.25-63.372,74.83-29.836,8.918-51.558-5.382-96.037-20.889s-96.12,18.2-102.466,72.036c-7.122,60.42,47.874,92,78.065,113.754s14.9,57.822,27.415,91.6S372.3,475.1,438.584,352.49Z" transform="translate(7825.145 -5601.655)" fill="#eef7ff"/>
    <rect id="Rectangle_23531" data-name="Rectangle 23531" width="118.139" height="222.173" transform="translate(8091.673 -5530.005)" fill="#f2faff"/>
    <g id="Group_53415" data-name="Group 53415" transform="translate(8109.264 -5506.102)">
      <rect id="Rectangle_23532" data-name="Rectangle 23532" width="88.929" height="3.658" transform="translate(0 0)" fill="#d9e1e4"/>
    </g>
    <g id="Group_53416" data-name="Group 53416" transform="translate(8109.264 -5513.898)">
      <rect id="Rectangle_23533" data-name="Rectangle 23533" width="28.81" height="3.661" transform="translate(0 0)" fill="#d9e1e4"/>
    </g>
    <g id="Group_53417" data-name="Group 53417" transform="translate(8109.264 -5488.314)">
      <rect id="Rectangle_23534" data-name="Rectangle 23534" width="4.75" height="4.749" transform="translate(0 0)" fill="#d9e1e4"/>
      <rect id="Rectangle_23535" data-name="Rectangle 23535" width="4.75" height="4.749" transform="translate(13.456 0)" fill="#d9e1e4"/>
      <rect id="Rectangle_23536" data-name="Rectangle 23536" width="4.748" height="4.749" transform="translate(26.915 0)" fill="#d9e1e4"/>
      <rect id="Rectangle_23537" data-name="Rectangle 23537" width="4.75" height="4.749" transform="translate(40.371 0)" fill="#bac2c6"/>
      <rect id="Rectangle_23538" data-name="Rectangle 23538" width="4.75" height="4.749" transform="translate(53.827 0)" fill="#bac2c6"/>
      <rect id="Rectangle_23539" data-name="Rectangle 23539" width="4.75" height="4.749" transform="translate(67.284 0)" fill="#4d9bd8"/>
      <rect id="Rectangle_23540" data-name="Rectangle 23540" width="4.749" height="4.749" transform="translate(80.741 0)" fill="#aacfec"/>
      <rect id="Rectangle_23541" data-name="Rectangle 23541" width="4.75" height="4.748" transform="translate(0 11.875)" fill="#bac2c6"/>
      <rect id="Rectangle_23542" data-name="Rectangle 23542" width="4.75" height="4.748" transform="translate(13.456 11.875)" fill="#bac2c6"/>
      <rect id="Rectangle_23543" data-name="Rectangle 23543" width="4.748" height="4.748" transform="translate(26.915 11.875)" fill="#bac2c6"/>
      <rect id="Rectangle_23544" data-name="Rectangle 23544" width="4.75" height="4.748" transform="translate(40.371 11.875)" fill="#bac2c6"/>
      <rect id="Rectangle_23545" data-name="Rectangle 23545" width="4.75" height="4.748" transform="translate(53.827 11.875)" fill="#bac2c6"/>
      <rect id="Rectangle_23546" data-name="Rectangle 23546" width="4.75" height="4.748" transform="translate(67.284 11.875)" fill="#4d9bd8"/>
      <rect id="Rectangle_23547" data-name="Rectangle 23547" width="4.749" height="4.748" transform="translate(80.741 11.875)" fill="#aacfec"/>
      <rect id="Rectangle_23548" data-name="Rectangle 23548" width="4.75" height="4.751" transform="translate(0 23.748)" fill="#bac2c6"/>
      <rect id="Rectangle_23549" data-name="Rectangle 23549" width="4.75" height="4.751" transform="translate(13.456 23.748)" fill="#bac2c6"/>
      <rect id="Rectangle_23550" data-name="Rectangle 23550" width="4.748" height="4.751" transform="translate(26.915 23.748)" fill="#204f74"/>
      <rect id="Rectangle_23551" data-name="Rectangle 23551" width="4.75" height="4.751" transform="translate(40.371 23.748)" fill="#204f74"/>
      <rect id="Rectangle_23552" data-name="Rectangle 23552" width="4.75" height="4.751" transform="translate(53.827 23.748)" fill="#bac2c6"/>
      <rect id="Rectangle_23553" data-name="Rectangle 23553" width="4.75" height="4.751" transform="translate(67.284 23.748)" fill="#4d9bd8"/>
      <rect id="Rectangle_23554" data-name="Rectangle 23554" width="4.749" height="4.751" transform="translate(80.741 23.748)" fill="#aacfec"/>
      <rect id="Rectangle_23555" data-name="Rectangle 23555" width="4.75" height="4.749" transform="translate(0 35.621)" fill="#34709f"/>
      <rect id="Rectangle_23556" data-name="Rectangle 23556" width="4.75" height="4.749" transform="translate(13.456 35.621)" fill="#bac2c6"/>
      <rect id="Rectangle_23557" data-name="Rectangle 23557" width="4.748" height="4.749" transform="translate(26.915 35.621)" fill="#bac2c6"/>
      <rect id="Rectangle_23558" data-name="Rectangle 23558" width="4.75" height="4.749" transform="translate(40.371 35.621)" fill="#bac2c6"/>
      <rect id="Rectangle_23559" data-name="Rectangle 23559" width="4.75" height="4.749" transform="translate(53.827 35.621)" fill="#bac2c6"/>
      <rect id="Rectangle_23560" data-name="Rectangle 23560" width="4.75" height="4.749" transform="translate(67.284 35.621)" fill="#4d9bd8"/>
      <rect id="Rectangle_23561" data-name="Rectangle 23561" width="4.749" height="4.749" transform="translate(80.741 35.621)" fill="#aacfec"/>
      <rect id="Rectangle_23562" data-name="Rectangle 23562" width="4.75" height="4.75" transform="translate(0 47.494)" fill="#bac2c6"/>
      <rect id="Rectangle_23563" data-name="Rectangle 23563" width="4.75" height="4.75" transform="translate(13.456 47.494)" fill="#bac2c6"/>
      <rect id="Rectangle_23564" data-name="Rectangle 23564" width="4.748" height="4.75" transform="translate(26.915 47.494)" fill="#bac2c6"/>
      <rect id="Rectangle_23565" data-name="Rectangle 23565" width="4.75" height="4.75" transform="translate(40.371 47.494)" fill="#bac2c6"/>
      <rect id="Rectangle_23566" data-name="Rectangle 23566" width="4.75" height="4.75" transform="translate(53.827 47.494)" fill="#bac2c6"/>
      <rect id="Rectangle_23567" data-name="Rectangle 23567" width="4.75" height="4.75" transform="translate(67.284 47.494)" fill="#4d9bd8"/>
      <rect id="Rectangle_23568" data-name="Rectangle 23568" width="4.749" height="4.75" transform="translate(80.741 47.494)" fill="#aacfec"/>
      <rect id="Rectangle_23569" data-name="Rectangle 23569" width="4.75" height="4.747" transform="translate(0 59.37)" fill="#bac2c6"/>
      <rect id="Rectangle_23570" data-name="Rectangle 23570" width="4.75" height="4.747" transform="translate(13.456 59.37)" fill="#bac2c6"/>
      <rect id="Rectangle_23571" data-name="Rectangle 23571" width="4.748" height="4.747" transform="translate(26.915 59.37)" fill="#bac2c6"/>
      <rect id="Rectangle_23572" data-name="Rectangle 23572" width="4.75" height="4.747" transform="translate(40.371 59.37)" fill="#bac2c6"/>
      <rect id="Rectangle_23573" data-name="Rectangle 23573" width="4.75" height="4.747" transform="translate(53.827 59.37)" fill="#bac2c6"/>
      <rect id="Rectangle_23574" data-name="Rectangle 23574" width="4.75" height="4.747" transform="translate(67.284 59.37)" fill="#d9e1e4"/>
      <rect id="Rectangle_23575" data-name="Rectangle 23575" width="4.749" height="4.747" transform="translate(80.741 59.37)" fill="#d9e1e4"/>
    </g>
    <g id="Group_53446" data-name="Group 53446" transform="translate(8103.963 -5401.334)">
      <g id="Group_53440" data-name="Group 53440" transform="translate(0 0)">
        <g id="Group_53418" data-name="Group 53418" transform="translate(0.296 60.696)">
          <path id="Path_56221" data-name="Path 56221" d="M3675.1,785.086h-.007l-.375.2-.057-.223.473-.253h.249v2.159h-.282Z" transform="translate(-3674.659 -784.778)" fill="#bac2c6"/>
          <path id="Path_56222" data-name="Path 56222" d="M3679.689,785.819c0,.734-.272,1.14-.751,1.14-.422,0-.708-.4-.714-1.109s.313-1.123.75-1.123C3679.43,784.726,3679.689,785.131,3679.689,785.819Zm-1.173.033c0,.562.173.88.438.88.3,0,.442-.349.442-.9,0-.532-.136-.88-.439-.88C3678.7,784.952,3678.516,785.264,3678.516,785.852Z" transform="translate(-3676.746 -784.726)" fill="#bac2c6"/>
        </g>
        <g id="Group_53419" data-name="Group 53419" transform="translate(0.1 49.558)">
          <path id="Path_56223" data-name="Path 56223" d="M3674.187,760.064v-.18l.229-.223c.551-.525.8-.8.8-1.129a.385.385,0,0,0-.429-.422.735.735,0,0,0-.458.183l-.093-.206a.951.951,0,0,1,.612-.219.608.608,0,0,1,.661.628c0,.4-.29.721-.744,1.16l-.173.16v.007h.971v.243Z" transform="translate(-3674.187 -757.868)" fill="#bac2c6"/>
          <path id="Path_56224" data-name="Path 56224" d="M3679.689,758.961c0,.734-.272,1.14-.751,1.14-.422,0-.708-.4-.714-1.11s.313-1.123.75-1.123C3679.43,757.868,3679.689,758.274,3679.689,758.961Zm-1.173.033c0,.562.173.88.438.88.3,0,.442-.349.442-.9,0-.532-.136-.88-.439-.88C3678.7,758.094,3678.516,758.406,3678.516,758.994Z" transform="translate(-3676.55 -757.868)" fill="#bac2c6"/>
        </g>
        <g id="Group_53420" data-name="Group 53420" transform="translate(0.09 38.42)">
          <path id="Path_56225" data-name="Path 56225" d="M3674.242,732.871a.98.98,0,0,0,.479.136c.375,0,.491-.239.489-.419,0-.3-.276-.432-.558-.432h-.164v-.219h.164c.212,0,.482-.11.482-.365,0-.173-.11-.326-.379-.326a.792.792,0,0,0-.432.143l-.077-.212a1.028,1.028,0,0,1,.566-.166c.425,0,.618.253.618.515a.537.537,0,0,1-.4.508v.006a.563.563,0,0,1,.482.555c0,.346-.269.648-.787.648a1.1,1.1,0,0,1-.562-.147Z" transform="translate(-3674.163 -731.011)" fill="#bac2c6"/>
          <path id="Path_56226" data-name="Path 56226" d="M3679.689,732.1c0,.734-.272,1.14-.751,1.14-.422,0-.708-.4-.714-1.11s.313-1.123.75-1.123C3679.43,731.011,3679.689,731.416,3679.689,732.1Zm-1.173.033c0,.562.173.88.438.88.3,0,.442-.349.442-.9,0-.532-.136-.88-.439-.88C3678.7,731.237,3678.516,731.549,3678.516,732.137Z" transform="translate(-3676.54 -731.011)" fill="#bac2c6"/>
        </g>
        <g id="Group_53421" data-name="Group 53421" transform="translate(0 27.28)">
          <path id="Path_56227" data-name="Path 56227" d="M3674.95,706.4v-.588h-1v-.193l.963-1.379h.316v1.342h.3v.229h-.3v.588Zm0-.818v-.721q0-.17.01-.339h-.01c-.066.126-.12.219-.179.319l-.529.734v.007Z" transform="translate(-3673.946 -704.203)" fill="#bac2c6"/>
          <path id="Path_56228" data-name="Path 56228" d="M3679.689,705.244c0,.734-.272,1.14-.751,1.14-.422,0-.708-.4-.714-1.11s.313-1.123.75-1.123C3679.43,704.151,3679.689,704.557,3679.689,705.244Zm-1.173.033c0,.562.173.88.438.88.3,0,.442-.349.442-.9,0-.531-.136-.88-.439-.88C3678.7,704.377,3678.516,704.689,3678.516,705.277Z" transform="translate(-3676.45 -704.151)" fill="#bac2c6"/>
        </g>
        <g id="Group_53422" data-name="Group 53422" transform="translate(0.09 16.142)">
          <path id="Path_56229" data-name="Path 56229" d="M3675.462,677.628h-.824l-.083.555a1.163,1.163,0,0,1,.176-.013.908.908,0,0,1,.465.117.613.613,0,0,1,.309.554.749.749,0,0,1-.8.738,1.059,1.059,0,0,1-.538-.133l.073-.223a.968.968,0,0,0,.461.12.477.477,0,0,0,.513-.468c0-.279-.19-.478-.622-.478a2.152,2.152,0,0,0-.3.023l.139-1.037h1.033Z" transform="translate(-3674.163 -677.346)" fill="#bac2c6"/>
          <path id="Path_56230" data-name="Path 56230" d="M3679.689,678.387c0,.734-.272,1.14-.751,1.14-.422,0-.708-.4-.714-1.11s.313-1.123.75-1.123C3679.43,677.294,3679.689,677.7,3679.689,678.387Zm-1.173.033c0,.562.173.88.438.88.3,0,.442-.349.442-.9,0-.532-.136-.88-.439-.88C3678.7,677.52,3678.516,677.832,3678.516,678.42Z" transform="translate(-3676.54 -677.294)" fill="#bac2c6"/>
        </g>
        <g id="Group_53423" data-name="Group 53423" transform="translate(0.063 5.003)">
          <path id="Path_56231" data-name="Path 56231" d="M3675.368,650.682a1.06,1.06,0,0,0-.219.013.878.878,0,0,0-.751.767h.01a.658.658,0,0,1,1.173.448.723.723,0,0,1-.718.761c-.462,0-.764-.359-.764-.92a1.36,1.36,0,0,1,.365-.973,1.178,1.178,0,0,1,.691-.319,1.412,1.412,0,0,1,.213-.017Zm-.083,1.245a.439.439,0,0,0-.445-.495.48.48,0,0,0-.419.266.246.246,0,0,0-.033.129c.007.356.169.618.475.618C3675.115,652.446,3675.285,652.237,3675.285,651.928Z" transform="translate(-3674.099 -650.44)" fill="#bac2c6"/>
          <path id="Path_56232" data-name="Path 56232" d="M3679.689,651.528c0,.735-.272,1.14-.751,1.14-.422,0-.708-.4-.714-1.109s.313-1.123.75-1.123C3679.43,650.435,3679.689,650.84,3679.689,651.528Zm-1.173.033c0,.562.173.88.438.88.3,0,.442-.349.442-.9,0-.532-.136-.88-.439-.88C3678.7,650.661,3678.516,650.973,3678.516,651.561Z" transform="translate(-3676.513 -650.435)" fill="#bac2c6"/>
        </g>
        <g id="Group_53424" data-name="Group 53424" transform="translate(13.237 70.535)">
          <path id="Path_56233" data-name="Path 56233" d="M3706.248,808.689h-.006l-.328.177-.05-.195.412-.221h.218v1.888h-.247Z" transform="translate(-3705.864 -808.451)" fill="#bac2c6"/>
        </g>
        <g id="Group_53425" data-name="Group 53425" transform="translate(30.21 70.504)">
          <path id="Path_56234" data-name="Path 56234" d="M3746.791,810.294v-.157l.2-.194c.482-.459.7-.7.7-.988a.337.337,0,0,0-.375-.369.641.641,0,0,0-.4.16l-.081-.18a.828.828,0,0,1,.534-.192.531.531,0,0,1,.578.549c0,.348-.253.63-.651,1.014l-.151.139v.006H3748v.212Z" transform="translate(-3746.791 -808.374)" fill="#bac2c6"/>
        </g>
        <g id="Group_53426" data-name="Group 53426" transform="translate(47.348 70.504)">
          <path id="Path_56235" data-name="Path 56235" d="M3788.186,810a.855.855,0,0,0,.418.119c.328,0,.43-.209.427-.366,0-.264-.241-.378-.488-.378h-.143v-.192h.143c.186,0,.422-.1.422-.319,0-.151-.1-.285-.331-.285a.693.693,0,0,0-.378.125l-.067-.186a.9.9,0,0,1,.494-.145c.372,0,.54.221.54.45a.468.468,0,0,1-.349.444v.006a.491.491,0,0,1,.421.485c0,.3-.235.567-.688.567a.962.962,0,0,1-.49-.128Z" transform="translate(-3788.116 -808.374)" fill="#bac2c6"/>
        </g>
        <g id="Group_53427" data-name="Group 53427" transform="translate(64.416 70.535)">
          <path id="Path_56236" data-name="Path 56236" d="M3830.149,810.339v-.514h-.878v-.169l.843-1.205h.276v1.173h.264v.2h-.264v.514Zm0-.715v-.63c0-.1,0-.2.008-.3h-.008c-.059.111-.1.192-.157.279l-.462.642v.005Z" transform="translate(-3829.271 -808.451)" fill="#bac2c6"/>
        </g>
        <g id="Group_53428" data-name="Group 53428" transform="translate(81.641 70.535)">
          <path id="Path_56237" data-name="Path 56237" d="M3871.94,808.666h-.72l-.072.485a1,1,0,0,1,.153-.012.8.8,0,0,1,.407.1.537.537,0,0,1,.27.485.655.655,0,0,1-.7.645.923.923,0,0,1-.471-.117l.064-.194a.845.845,0,0,0,.4.1.416.416,0,0,0,.447-.409c0-.244-.165-.419-.543-.419a1.941,1.941,0,0,0-.261.02l.122-.906h.9Z" transform="translate(-3870.805 -808.451)" fill="#bac2c6"/>
        </g>
        <g id="Group_53439" data-name="Group 53439" transform="translate(4.934)">
          <g id="Group_53429" data-name="Group 53429">
            <path id="Path_56238" data-name="Path 56238" d="M3772.667,706.687h-86.823V638.371h86.823Zm-86.653-.17H3772.5V638.541h-86.483Z" transform="translate(-3685.844 -638.371)" fill="#bac2c6"/>
          </g>
          <g id="Group_53430" data-name="Group 53430" transform="translate(0.085 56.787)">
            <rect id="Rectangle_23576" data-name="Rectangle 23576" width="86.654" height="0.17" fill="#bac2c6"/>
          </g>
          <g id="Group_53431" data-name="Group 53431" transform="translate(0.085 45.428)">
            <rect id="Rectangle_23577" data-name="Rectangle 23577" width="86.654" height="0.17" fill="#bac2c6"/>
          </g>
          <g id="Group_53432" data-name="Group 53432" transform="translate(0.085 34.072)">
            <rect id="Rectangle_23578" data-name="Rectangle 23578" width="86.654" height="0.17" fill="#bac2c6"/>
          </g>
          <g id="Group_53433" data-name="Group 53433" transform="translate(0.085 22.716)">
            <rect id="Rectangle_23579" data-name="Rectangle 23579" width="86.654" height="0.17" fill="#bac2c6"/>
          </g>
          <g id="Group_53434" data-name="Group 53434" transform="translate(0.085 11.359)">
            <rect id="Rectangle_23580" data-name="Rectangle 23580" width="86.654" height="0.17" fill="#bac2c6"/>
          </g>
          <g id="Group_53435" data-name="Group 53435" transform="translate(69.323 0.085)">
            <rect id="Rectangle_23581" data-name="Rectangle 23581" width="0.17" height="68.146" fill="#bac2c6"/>
          </g>
          <g id="Group_53436" data-name="Group 53436" transform="translate(51.992 0.085)">
            <rect id="Rectangle_23582" data-name="Rectangle 23582" width="0.17" height="68.146" fill="#bac2c6"/>
          </g>
          <g id="Group_53437" data-name="Group 53437" transform="translate(34.661 0.085)">
            <rect id="Rectangle_23583" data-name="Rectangle 23583" width="0.17" height="68.146" fill="#bac2c6"/>
          </g>
          <g id="Group_53438" data-name="Group 53438" transform="translate(17.331 0.085)">
            <rect id="Rectangle_23584" data-name="Rectangle 23584" width="0.17" height="68.146" fill="#bac2c6"/>
          </g>
        </g>
      </g>
      <g id="Group_53445" data-name="Group 53445" transform="translate(11.609 2.769)">
        <rect id="Rectangle_23585" data-name="Rectangle 23585" width="4.15" height="28.992" transform="translate(0 36.47)" fill="#aacfec"/>
        <rect id="Rectangle_23586" data-name="Rectangle 23586" width="4.153" height="28.992" transform="translate(17.313 36.47)" fill="#aacfec"/>
        <rect id="Rectangle_23587" data-name="Rectangle 23587" width="4.153" height="28.992" transform="translate(34.628 36.47)" fill="#aacfec"/>
        <rect id="Rectangle_23588" data-name="Rectangle 23588" width="4.15" height="28.992" transform="translate(51.944 36.47)" fill="#aacfec"/>
        <rect id="Rectangle_23589" data-name="Rectangle 23589" width="4.153" height="28.992" transform="translate(69.259 36.47)" fill="#aacfec"/>
        <rect id="Rectangle_23590" data-name="Rectangle 23590" width="4.15" height="5.082" transform="translate(0 31.388)" fill="#aacfec"/>
        <rect id="Rectangle_23591" data-name="Rectangle 23591" width="4.153" height="22.354" transform="translate(17.313 14.116)" fill="#aacfec"/>
        <rect id="Rectangle_23592" data-name="Rectangle 23592" width="4.15" height="19.656" transform="translate(51.944 16.814)" fill="#aacfec"/>
        <rect id="Rectangle_23593" data-name="Rectangle 23593" width="4.153" height="36.47" transform="translate(69.259)" fill="#aacfec"/>
        <path id="Path_56239" data-name="Path 56239" d="M3721.291,686.759a4.672,4.672,0,1,1-4.673-4.672A4.674,4.674,0,0,1,3721.291,686.759Z" transform="translate(-3707.796 -666.727)" fill="#aacfec"/>
        <g id="Group_53441" data-name="Group 53441" transform="translate(6.548 18.413)">
          <path id="Path_56240" data-name="Path 56240" d="M3719.108,692.418v-.809h-1.38v-.265l1.325-1.9h.434v1.845h.416v.316h-.416v.809Zm0-1.124V690.3q0-.233.014-.466h-.014c-.092.174-.165.3-.247.439l-.727,1.01v.009Z" transform="translate(-3717.728 -689.448)" fill="#aacfec"/>
          <path id="Path_56241" data-name="Path 56241" d="M3725.462,689.786h-1.133l-.114.763a1.581,1.581,0,0,1,.242-.018,1.259,1.259,0,0,1,.64.16.849.849,0,0,1,.425.763,1.03,1.03,0,0,1-1.106,1.014,1.455,1.455,0,0,1-.74-.182l.1-.307a1.329,1.329,0,0,0,.635.165.655.655,0,0,0,.7-.644c0-.384-.26-.658-.854-.658a3.07,3.07,0,0,0-.411.032l.192-1.425h1.42Z" transform="translate(-3721.209 -689.448)" fill="#aacfec"/>
        </g>
        <g id="Group_53442" data-name="Group 53442" transform="translate(13.494 19.825)">
          <rect id="Rectangle_23594" data-name="Rectangle 23594" width="3.819" height="0.415" fill="#aacfec"/>
        </g>
        <path id="Path_56242" data-name="Path 56242" d="M3846.694,659.371a4.67,4.67,0,1,1-4.671-4.672A4.67,4.67,0,0,1,3846.694,659.371Z" transform="translate(-3781.194 -650.697)" fill="#204f74"/>
        <g id="Group_53443" data-name="Group 53443" transform="translate(58.679 7.006)">
          <path id="Path_56243" data-name="Path 56243" d="M3845.217,662.4h-1.133l-.114.763a1.593,1.593,0,0,1,.242-.018,1.254,1.254,0,0,1,.64.16.846.846,0,0,1,.425.763,1.03,1.03,0,0,1-1.106,1.014,1.454,1.454,0,0,1-.74-.182l.1-.306a1.333,1.333,0,0,0,.635.164.655.655,0,0,0,.7-.644c0-.384-.26-.658-.854-.658a2.993,2.993,0,0,0-.411.032l.192-1.425h1.421Z" transform="translate(-3843.431 -662.013)" fill="#fefeff"/>
          <path id="Path_56244" data-name="Path 56244" d="M3849.024,664.208a.849.849,0,0,1,.59-.8l0-.014a.735.735,0,0,1-.471-.667.832.832,0,0,1,.918-.79.767.767,0,0,1,.864.731.754.754,0,0,1-.49.694v.014a.824.824,0,0,1,.6.768.915.915,0,0,1-1.01.863C3849.4,665.012,3849.024,664.642,3849.024,664.208Zm1.6-.018c0-.361-.251-.535-.653-.649a.645.645,0,0,0-.535.612.549.549,0,0,0,.594.566A.537.537,0,0,0,3850.623,664.19Zm-1.106-1.485c0,.3.224.457.567.548a.585.585,0,0,0,.452-.539.461.461,0,0,0-.5-.484A.472.472,0,0,0,3849.517,662.705Z" transform="translate(-3846.704 -661.942)" fill="#fefeff"/>
        </g>
        <g id="Group_53444" data-name="Group 53444" transform="translate(65.499 8.467)">
          <path id="Path_56245" data-name="Path 56245" d="M3859.876,665.965h0Z" transform="translate(-3859.876 -665.757)" fill="#aacfec"/>
          <rect id="Rectangle_23595" data-name="Rectangle 23595" width="3.821" height="0.415" fill="#aacfec"/>
        </g>
      </g>
    </g>
    <path id="Path_56246" data-name="Path 56246" d="M3347.452,432.992A18.193,18.193,0,1,1,3329.26,414.8,18.193,18.193,0,0,1,3347.452,432.992Z" transform="translate(4642.403 -5908.854)" fill="#b0d5ff"/>
    <g id="Group_53450" data-name="Group 53450" transform="translate(7953.471 -5494.054)">
      <path id="Path_56247" data-name="Path 56247" d="M3347.452,432.992A18.193,18.193,0,1,1,3329.26,414.8,18.193,18.193,0,0,1,3347.452,432.992Z" transform="translate(-3311.067 -414.8)" fill="#34709f"/>
      <g id="Group_53449" data-name="Group 53449" transform="translate(0 0)" clip-path="url(#clip-path)">
        <g id="Group_53448" data-name="Group 53448" transform="translate(7.619 6.09)">
          <path id="Path_56248" data-name="Path 56248" d="M3340.058,485.338a28.135,28.135,0,0,0,10.62-2.04l-.771-8.023c-.093-.985-1.437-1.663-3.1-1.906a46.09,46.09,0,0,0-13.505,0c-1.659.243-3,.921-3.1,1.906l-.771,8.023A28.136,28.136,0,0,0,3340.058,485.338Z" transform="translate(-3329.439 -454.878)" fill="#fff"/>
          <path id="Path_56249" data-name="Path 56249" d="M3344.8,485.5l-3.257-12.347q-1.648.117-3.3.352c-.254,1.195-.737,3.337-.737,3.337s1.5.528,1.587.793-1.147,1.41-1.147,1.41l1.756,6a28.907,28.907,0,0,0,5.076.452Z" transform="translate(-3334.162 -455.044)" fill="#d1ecfb"/>
          <path id="Path_56250" data-name="Path 56250" d="M3361.756,476.827s-.49-2.179-.742-3.367q-1.648-.227-3.289-.335l-3.26,12.355c.081,0,.16.005.24.005a29.13,29.13,0,0,0,4.843-.411l1.767-6.044s-1.234-1.146-1.146-1.41S3361.756,476.827,3361.756,476.827Z" transform="translate(-3344.086 -455.027)" fill="#d1ecfb"/>
          <path id="Path_56251" data-name="Path 56251" d="M3350.956,485.172l.307-.019a70.209,70.209,0,0,0,1.609-7.412,25.522,25.522,0,0,0,.332-4.816,44.573,44.573,0,0,0-8.9,0,25.434,25.434,0,0,0,.332,4.816,69.747,69.747,0,0,0,1.609,7.414c.1,0,.2.012.3.018.258.014.516.027.775.037.474.016.951.029,1.431.029s.958-.013,1.434-.029C3350.444,485.2,3350.7,485.186,3350.956,485.172Z" transform="translate(-3338.134 -454.779)" fill="#aacfec"/>
          <path id="Path_56252" data-name="Path 56252" d="M3353.237,467.511a2.9,2.9,0,0,1-2.9,2.905h0a2.9,2.9,0,0,1-2.9-2.905v-4.272a2.9,2.9,0,0,1,2.9-2.9h0a2.9,2.9,0,0,1,2.9,2.9Z" transform="translate(-3339.968 -447.541)" fill="#f2efdc"/>
          <path id="Path_56253" data-name="Path 56253" d="M3350.333,460.335a2.9,2.9,0,0,0-2.9,2.9v1.643l4.813,4.814a2.9,2.9,0,0,0,1-2.185v-4.272A2.9,2.9,0,0,0,3350.333,460.335Z" transform="translate(-3339.968 -447.541)" fill="#c0beae"/>
          <path id="Path_56254" data-name="Path 56254" d="M3350.711,443.382c.383,1.107-.6,2.109-2.2,2.2a127.3,127.3,0,0,1-14.321,0c-1.6-.09-2.586-1.092-2.2-2.2q1.643-5.014,3.285-10.029a2.613,2.613,0,0,1,2.206-1.9c2.581.144,3.2-1.121,5.781-1.265.835-.046,3.833,1.633,4.173,3.166Q3349.068,438.367,3350.711,443.382Z" transform="translate(-3330.88 -429.895)" fill="#2c5871"/>
          <path id="Path_56255" data-name="Path 56255" d="M3350.433,431.544a5.987,5.987,0,0,0-2.771-1.357c-2.581.145-3.2,1.41-5.781,1.265a1.585,1.585,0,0,0-.82.213q-.787,6.142-1.575,12.284a5.745,5.745,0,0,0,.013,1.677q6.251.305,12.511,0a5.762,5.762,0,0,0,.013-1.677Q3351.228,437.746,3350.433,431.544Z" transform="translate(-3335.288 -429.895)" fill="#0e303f"/>
          <path id="Path_56256" data-name="Path 56256" d="M3351.367,443.907c-.874,4.915-2.989,7.2-5.285,7.2s-4.41-2.287-5.283-7.2c-.882-5.1,2.077-8.518,5.283-8.3C3349.288,435.39,3352.248,438.809,3351.367,443.907Z" transform="translate(-3335.996 -433.062)" fill="#f2efdc"/>
          <path id="Path_56257" data-name="Path 56257" d="M3339.355,434.855a7.3,7.3,0,0,0-1.362,4.63,6.237,6.237,0,0,0,5.023-7.771A7.3,7.3,0,0,0,3339.355,434.855Z" transform="translate(-3334.426 -430.79)" fill="#2c5871"/>
          <path id="Path_56258" data-name="Path 56258" d="M3353.26,435.606c-.119-.008-.237,0-.355,0v15.48a3.371,3.371,0,0,0,.355.022c2.3,0,4.411-2.287,5.285-7.2C3359.426,438.809,3356.466,435.39,3353.26,435.606Z" transform="translate(-3343.173 -433.062)" fill="#dcdac8"/>
          <path id="Path_56259" data-name="Path 56259" d="M3347.391,437.623a7.93,7.93,0,0,0,7.391-.395c-.081-3.621-1.648-6.312-4.143-7.144-2.318-1.24-5.349-.531-8.035,1.9A7.926,7.926,0,0,0,3347.391,437.623Z" transform="translate(-3337.144 -429.485)" fill="#2c5871"/>
          <path id="Path_56260" data-name="Path 56260" d="M3350.586,482.308l.072-3.585-1.634-1.846-1.6-2.591.249,3.479,1.455.816Z" transform="translate(-3339.968 -455.706)" fill="#74addb"/>
          <path id="Path_56261" data-name="Path 56261" d="M3346.626,472.006l1.6,3.123-1.881,1.562-.284-4.579.568-.813Z" transform="translate(-3339.166 -453.958)" fill="#7dc2f5"/>
          <path id="Path_56262" data-name="Path 56262" d="M3354.617,481.043l.107-2.555,1.064-1.953,1.6-2.591-.249,3.479-2.165,1.1Z" transform="translate(-3344.175 -455.505)" fill="#7eb3ff"/>
          <path id="Path_56263" data-name="Path 56263" d="M3359.137,472.006l-1.649,3,1.933,1.682.284-4.579-.568-.813Z" transform="translate(-3345.855 -453.958)" fill="#7dc2f5"/>
        </g>
      </g>
    </g>
    <g id="Group_53458" data-name="Group 53458" transform="translate(7953.471 -5450.475)">
      <path id="Path_56265" data-name="Path 56265" d="M3347.452,538.074a18.193,18.193,0,1,1-18.192-18.192A18.193,18.193,0,0,1,3347.452,538.074Z" transform="translate(-3311.067 -519.882)" fill="#34709f"/>
      <g id="Group_53457" data-name="Group 53457" transform="translate(0 0)" clip-path="url(#clip-path-2)">
        <g id="Group_53456" data-name="Group 53456" transform="translate(3.502 7.538)">
          <path id="Path_56266" data-name="Path 56266" d="M3336.589,590.526a36.529,36.529,0,0,0,12.967-2.325l-.941-9.144c-.113-1.122-1.744-2.021-3.78-2.172a41.763,41.763,0,0,0-16.492,0c-2.036.15-3.665,1.048-3.781,2.172l-.94,9.144A36.526,36.526,0,0,0,3336.589,590.526Z" transform="translate(-3321.917 -560.302)" fill="#7eb3ff"/>
          <path id="Path_56267" data-name="Path 56267" d="M3353.864,570.968a3.422,3.422,0,0,1-3.421,3.421h0a3.42,3.42,0,0,1-3.42-3.421v-3.513a3.42,3.42,0,0,1,3.42-3.42h0a3.421,3.421,0,0,1,3.421,3.42Z" transform="translate(-3335.613 -553.262)" fill="#dcdac8"/>
          <path id="Path_56268" data-name="Path 56268" d="M3352.786,573.1c.06.061.122.117.182.176a3.405,3.405,0,0,0,.9-2.31v-3.513a3.419,3.419,0,0,0-6.836-.1Z" transform="translate(-3335.62 -553.262)" fill="#c0beae"/>
          <g id="Group_53453" data-name="Group 53453" transform="translate(8.031 6.757)">
            <g id="Group_53452" data-name="Group 53452">
              <path id="Path_56269" data-name="Path 56269" d="M3340.664,556.7c.239,1.4.086,2.322-.269,2.442s-.878-.586-1.266-1.934-.33-2.685.181-2.834C3339.812,554.185,3340.43,555.294,3340.664,556.7Z" transform="translate(-3338.876 -554.352)" fill="#dcdac8"/>
            </g>
          </g>
          <g id="Group_53455" data-name="Group 53455" transform="translate(19.393 6.859)">
            <g id="Group_53454" data-name="Group 53454">
              <path id="Path_56270" data-name="Path 56270" d="M3366.3,557.047c-.113,1.411.124,2.32.488,2.407s.821-.662,1.085-2.04.088-2.7-.435-2.806C3366.924,554.468,3366.407,555.627,3366.3,557.047Z" transform="translate(-3366.274 -554.597)" fill="#dcdac8"/>
            </g>
          </g>
          <path id="Path_56271" data-name="Path 56271" d="M3346.581,538.071c-3.472-.254-6.673,3.765-5.719,9.758a19.343,19.343,0,0,0,1.243,4.516c.458.674,1.033.762,1.906-1.313a3.218,3.218,0,0,1,2.466-.9h.209a3.214,3.214,0,0,1,2.465.9c.873,2.072,1.447,1.988,1.906,1.315a19.382,19.382,0,0,0,1.244-4.518C3353.256,541.835,3350.052,537.815,3346.581,538.071Z" transform="translate(-3331.908 -538.059)" fill="#f2efdc"/>
          <path id="Path_56272" data-name="Path 56272" d="M3355.215,538.082v12.066a3.2,3.2,0,0,1,2.437.894c.873,2.072,1.448,1.988,1.907,1.315a19.406,19.406,0,0,0,1.244-4.518C3361.743,541.923,3358.633,537.939,3355.215,538.082Z" transform="translate(-3340.408 -538.07)" fill="#dcdac8"/>
          <path id="Path_56273" data-name="Path 56273" d="M3352.174,561.046a6.658,6.658,0,0,1-.132.8,10.451,10.451,0,0,1-1.224,3.109c-.451.463-1.018.521-1.877-.9a4,4,0,0,0-2.426-.616h-.206a4,4,0,0,0-2.427.616c-.861,1.429-1.427,1.368-1.878.9a10.417,10.417,0,0,1-1.223-3.108,6.662,6.662,0,0,1-.132-.8,4.327,4.327,0,0,0-.078,2.657c.964,3.482.906,5.18,5.84,5.1,5.251-.082,4.875-1.62,5.841-5.1A4.33,4.33,0,0,0,3352.174,561.046Z" transform="translate(-3331.738 -551.511)" fill="#2c5871"/>
          <path id="Path_56274" data-name="Path 56274" d="M3361,561.851a10.444,10.444,0,0,1-1.225,3.109c-.45.463-1.017.521-1.876-.9a3.732,3.732,0,0,0-2.193-.609V568.8c4.9-.143,4.559-1.689,5.5-5.095a4.33,4.33,0,0,0-.078-2.655A6.852,6.852,0,0,1,3361,561.851Z" transform="translate(-3340.695 -551.515)" fill="#0e303f"/>
          <path id="Path_56275" data-name="Path 56275" d="M3353.843,569.92s0-.011,0-.016h0v0h-2.513v0s-.471,1.074-.362,1.333.331.279.622-.191a3.247,3.247,0,0,1,.3-.41,1.027,1.027,0,0,0,.245.032h.914a1.042,1.042,0,0,0,.24-.03,3.234,3.234,0,0,1,.3.408c.292.47.512.45.623.191C3354.3,570.995,3353.9,570.055,3353.843,569.92Z" transform="translate(-3337.908 -556.696)" fill="#f2efdc"/>
          <path id="Path_56276" data-name="Path 56276" d="M3332.568,597.458a15.692,15.692,0,0,0-1.644-6.31,20.461,20.461,0,0,1,.239,3.149,20.669,20.669,0,0,1-.2,2.874Q3331.757,597.329,3332.568,597.458Z" transform="translate(-3326.191 -569.131)" fill="#8fc4d7"/>
          <path id="Path_56277" data-name="Path 56277" d="M3328.614,576.972a46.389,46.389,0,0,0-4.731.744c-2.011.2-3.6,1.044-3.685,2.048l-.686,8.172a39.212,39.212,0,0,0,10.731,1.69Z" transform="translate(-3319.512 -560.834)" fill="#fff"/>
          <path id="Path_56278" data-name="Path 56278" d="M3339.122,591.57l-2.221-14.326c-1.1.081-1.788.178-2.891.34a28.85,28.85,0,0,1-1.145,3.49s3.172.76,3.261,1.034-2.82,1.253-2.82,1.253l1.233,7.561c1.637.3.136.94,1.881.94A5.635,5.635,0,0,0,3339.122,591.57Z" transform="translate(-3327.327 -560.993)" fill="#d1ecfb"/>
          <path id="Path_56279" data-name="Path 56279" d="M3339.42,591.566l-1.811-15.03c-1.1.081-2.023.354-3.125.516-.254,1.241-.911,3.314-.911,3.314s3.174.761,3.261,1.034-2.821,1.646-2.821,1.646l1.234,7.169c1.635.3.135.941,1.881.941C3337.134,591.156,3338.619,592.076,3339.42,591.566Z" transform="translate(-3327.741 -560.579)" fill="#fff"/>
          <path id="Path_56280" data-name="Path 56280" d="M3367.031,576.41a46.383,46.383,0,0,1,4.751.6c2.016.136,3.631.936,3.744,1.937l.93,8.148a39.242,39.242,0,0,1-10.676,2.01Z" transform="translate(-3346.592 -560.505)" fill="#fff"/>
          <path id="Path_56281" data-name="Path 56281" d="M3362.764,590.719l2.222-14.326c1.1.081,1.788.178,2.89.34a28.873,28.873,0,0,0,1.146,3.49s-3.173.761-3.261,1.035,2.82,1.253,2.82,1.253l-1.233,7.562c-1.636.3-.136.94-1.88.94A5.632,5.632,0,0,1,3362.764,590.719Z" transform="translate(-3344.826 -560.495)" fill="#d1ecfb"/>
          <path id="Path_56282" data-name="Path 56282" d="M3363.045,590.716l1.812-15.031c1.1.081,2.023.355,3.125.516.254,1.241.911,3.314.911,3.314s-3.173.76-3.261,1.034,2.821,1.646,2.821,1.646l-1.235,7.169c-1.636.3-.136.941-1.88.941C3365.33,590.3,3363.845,591.225,3363.045,590.716Z" transform="translate(-3344.991 -560.081)" fill="#fff"/>
        </g>
      </g>
    </g>
    <g id="Group_53466" data-name="Group 53466" transform="translate(7953.471 -5406.598)">
      <path id="Path_56284" data-name="Path 56284" d="M3347.452,643.872a18.193,18.193,0,1,1-18.192-18.192A18.193,18.193,0,0,1,3347.452,643.872Z" transform="translate(-3311.067 -625.68)" fill="#34709f"/>
      <g id="Group_53465" data-name="Group 53465" transform="translate(0 0)" clip-path="url(#clip-path-3)">
        <g id="Group_53464" data-name="Group 53464" transform="translate(4.187 9.446)">
          <path id="Path_56285" data-name="Path 56285" d="M3338.885,663.24a1.161,1.161,0,0,0,1.043,1.251h.26a1.161,1.161,0,0,0,1.044-1.251v-2.815a1.161,1.161,0,0,0-1.044-1.251h-.26a1.161,1.161,0,0,0-1.043,1.251Z" transform="translate(-3331.536 -654.728)" fill="#fff"/>
          <g id="Group_53463" data-name="Group 53463">
            <path id="Path_56286" data-name="Path 56286" d="M3321.164,688.989l3.146-6.7,11.49-2.052,10.805,1.915,3.967,5.061-3.419,3.83-10.579,4.787-13.906-3.967Z" transform="translate(-3321.164 -667.056)" fill="#fff"/>
            <path id="Path_56287" data-name="Path 56287" d="M3345.51,683.124l2.7,12.81,4,.587.235-4.113.235-5.524,1.41-5.289Z" transform="translate(-3335.413 -667.852)" fill="#8fc4d7"/>
            <path id="Path_56288" data-name="Path 56288" d="M3362.05,680.462l-2.232,7.4-.706,8.227,2.371-.093,1.977-7.076-1.88-2,2.821-1.175-1.411-4.466Z" transform="translate(-3343.374 -667.188)" fill="#d1ecfb"/>
            <g id="Group_53460" data-name="Group 53460" transform="translate(12.247 15.603)">
              <path id="Path_56289" data-name="Path 56289" d="M3351.617,689.274l-.922-2.337.922-.859h1.845l.922.859-.922,2.337Z" transform="translate(-3350.695 -686.079)" fill="#0e303f"/>
              <path id="Path_56290" data-name="Path 56290" d="M3351.617,693.873l-.922,10.17.922,3.738h1.845l.922-3.738-.922-10.17Z" transform="translate(-3350.695 -690.64)" fill="#0e303f"/>
            </g>
            <path id="Path_56291" data-name="Path 56291" d="M3342.583,681.994l1.489,7.356.529,8.021-2.93-.239-1.359-7.664,2-1.646-2.468-2.115,1.175-3.173Z" transform="translate(-3332.096 -668.085)" fill="#d1ecfb"/>
            <g id="Group_53462" data-name="Group 53462" transform="translate(7.735)">
              <g id="Group_53461" data-name="Group 53461">
                <path id="Path_56292" data-name="Path 56292" d="M3351.5,660.09c.273,2.674-2.335,5.1-5.83,5.1h0c-3.5,0-6.1-2.428-5.831-5.1q.3-3.482.594-6.967a5.271,5.271,0,0,1,5.238-4.667h0a5.271,5.271,0,0,1,5.236,4.667Q3351.2,656.606,3351.5,660.09Z" transform="translate(-3339.816 -648.456)" fill="#f2efdc"/>
                <path id="Path_56293" data-name="Path 56293" d="M3359.754,660.09q-.3-3.482-.594-6.967a5.271,5.271,0,0,0-5.236-4.667v16.736C3357.419,665.194,3360.027,662.764,3359.754,660.09Z" transform="translate(-3348.073 -648.456)" fill="#dcdac8"/>
                <path id="Path_56294" data-name="Path 56294" d="M3353.138,684.867c0,.761-.854,1.377-1.906,1.377s-1.907-.615-1.907-1.377.855-1.376,1.907-1.376S3353.138,684.107,3353.138,684.867Z" transform="translate(-3345.382 -668.961)" fill="#f2efdc"/>
                <path id="Path_56295" data-name="Path 56295" d="M3354.32,684.628a1.542,1.542,0,1,1-1.488-1.137A1.348,1.348,0,0,1,3354.32,684.628Z" transform="translate(-3346.563 -668.961)" fill="#dcdac8"/>
              </g>
              <path id="Path_56296" data-name="Path 56296" d="M3351.542,665.968c-1.372.415-2.4,2.174-2.4,4.281a6.293,6.293,0,0,0,.044.716h2.358Z" transform="translate(-3345.273 -658.705)" fill="#dcdac8"/>
            </g>
          </g>
          <path id="Path_56297" data-name="Path 56297" d="M3365.771,659.173h-.261a1.161,1.161,0,0,0-1.043,1.251,6.633,6.633,0,0,1,.957,2.137v1.919a.65.65,0,0,0,.087.011h.261a1.16,1.16,0,0,0,1.043-1.251v-2.815A1.16,1.16,0,0,0,3365.771,659.173Z" transform="translate(-3346.508 -654.728)" fill="#fff"/>
        </g>
      </g>
    </g>
    <g id="Group_53473" data-name="Group 53473" transform="translate(7996.481 -5475.882)">
      <g id="Group_53468" data-name="Group 53468" transform="translate(0 0)">
        <rect id="Rectangle_23596" data-name="Rectangle 23596" width="19.984" height="2.438" fill="#d0e3f2"/>
      </g>
      <g id="Group_53469" data-name="Group 53469" transform="translate(22.836 0)">
        <rect id="Rectangle_23597" data-name="Rectangle 23597" width="19.555" height="2.438" fill="#d0e3f2"/>
      </g>
      <g id="Group_53470" data-name="Group 53470" transform="translate(0 5.296)">
        <rect id="Rectangle_23598" data-name="Rectangle 23598" width="37.502" height="2.438" fill="#d0e3f2"/>
      </g>
      <g id="Group_53471" data-name="Group 53471" transform="translate(45.498 0)">
        <rect id="Rectangle_23599" data-name="Rectangle 23599" width="19.555" height="2.438" fill="#d0e3f2"/>
      </g>
      <g id="Group_53472" data-name="Group 53472" transform="translate(40.216 5.296)">
        <rect id="Rectangle_23600" data-name="Rectangle 23600" width="22.261" height="2.438" fill="#d0e3f2"/>
      </g>
    </g>
    <g id="Group_53476" data-name="Group 53476" transform="translate(7996.481 -5485.108)">
      <g id="Group_53474" data-name="Group 53474" transform="translate(0 0)">
        <rect id="Rectangle_23601" data-name="Rectangle 23601" width="32.312" height="3.656" fill="#d0e3f2"/>
      </g>
      <g id="Group_53475" data-name="Group 53475" transform="translate(35.008 0)">
        <rect id="Rectangle_23602" data-name="Rectangle 23602" width="23.32" height="3.656" fill="#d0e3f2"/>
      </g>
    </g>
    <g id="Group_53483" data-name="Group 53483" transform="translate(7996.481 -5433.112)">
      <g id="Group_53478" data-name="Group 53478" transform="translate(0 0)">
        <rect id="Rectangle_23603" data-name="Rectangle 23603" width="19.984" height="2.438" fill="#d0e3f2"/>
      </g>
      <g id="Group_53479" data-name="Group 53479" transform="translate(22.836 0)">
        <rect id="Rectangle_23604" data-name="Rectangle 23604" width="19.555" height="2.438" fill="#d0e3f2"/>
      </g>
      <g id="Group_53480" data-name="Group 53480" transform="translate(0 5.296)">
        <rect id="Rectangle_23605" data-name="Rectangle 23605" width="37.502" height="2.437" fill="#d0e3f2"/>
      </g>
      <g id="Group_53481" data-name="Group 53481" transform="translate(45.498 0)">
        <rect id="Rectangle_23606" data-name="Rectangle 23606" width="19.555" height="2.438" fill="#d0e3f2"/>
      </g>
      <g id="Group_53482" data-name="Group 53482" transform="translate(40.216 5.296)">
        <rect id="Rectangle_23607" data-name="Rectangle 23607" width="22.261" height="2.437" fill="#d0e3f2"/>
      </g>
    </g>
    <g id="Group_53486" data-name="Group 53486" transform="translate(7996.481 -5442.339)">
      <g id="Group_53484" data-name="Group 53484" transform="translate(0 0)">
        <rect id="Rectangle_23608" data-name="Rectangle 23608" width="32.312" height="3.656" fill="#d0e3f2"/>
      </g>
      <g id="Group_53485" data-name="Group 53485" transform="translate(35.008 0)">
        <rect id="Rectangle_23609" data-name="Rectangle 23609" width="23.32" height="3.656" fill="#d0e3f2"/>
      </g>
    </g>
    <g id="Group_53493" data-name="Group 53493" transform="translate(7996.481 -5346.296)">
      <g id="Group_53488" data-name="Group 53488" transform="translate(0 0)">
        <rect id="Rectangle_23610" data-name="Rectangle 23610" width="19.984" height="2.437" fill="#d0e3f2"/>
      </g>
      <g id="Group_53489" data-name="Group 53489" transform="translate(22.836 0)">
        <rect id="Rectangle_23611" data-name="Rectangle 23611" width="19.555" height="2.437" fill="#d0e3f2"/>
      </g>
      <g id="Group_53490" data-name="Group 53490" transform="translate(0 5.297)">
        <rect id="Rectangle_23612" data-name="Rectangle 23612" width="37.502" height="2.437" fill="#d0e3f2"/>
      </g>
      <g id="Group_53491" data-name="Group 53491" transform="translate(45.498 0)">
        <rect id="Rectangle_23613" data-name="Rectangle 23613" width="19.555" height="2.437" fill="#d0e3f2"/>
      </g>
      <g id="Group_53492" data-name="Group 53492" transform="translate(40.216 5.297)">
        <rect id="Rectangle_23614" data-name="Rectangle 23614" width="22.261" height="2.437" fill="#d0e3f2"/>
      </g>
    </g>
    <g id="Group_53496" data-name="Group 53496" transform="translate(7996.481 -5355.523)">
      <g id="Group_53494" data-name="Group 53494" transform="translate(0 0)">
        <rect id="Rectangle_23615" data-name="Rectangle 23615" width="32.312" height="3.656" fill="#d0e3f2"/>
      </g>
      <g id="Group_53495" data-name="Group 53495" transform="translate(35.008 0)">
        <rect id="Rectangle_23616" data-name="Rectangle 23616" width="23.32" height="3.656" fill="#d0e3f2"/>
      </g>
    </g>
    <g id="Group_53503" data-name="Group 53503" transform="translate(7996.481 -5387.47)">
      <g id="Group_53498" data-name="Group 53498" transform="translate(0 0)">
        <rect id="Rectangle_23617" data-name="Rectangle 23617" width="17.527" height="2.437" fill="#d0e3f2"/>
      </g>
      <g id="Group_53499" data-name="Group 53499" transform="translate(20.027 0)">
        <rect id="Rectangle_23618" data-name="Rectangle 23618" width="17.15" height="2.437" fill="#d0e3f2"/>
      </g>
      <g id="Group_53500" data-name="Group 53500" transform="translate(0 5.296)">
        <rect id="Rectangle_23619" data-name="Rectangle 23619" width="32.889" height="2.437" fill="#d0e3f2"/>
      </g>
      <g id="Group_53501" data-name="Group 53501" transform="translate(39.901 0)">
        <rect id="Rectangle_23620" data-name="Rectangle 23620" width="17.15" height="2.437" fill="#d0e3f2"/>
      </g>
      <g id="Group_53502" data-name="Group 53502" transform="translate(35.27 5.296)">
        <rect id="Rectangle_23621" data-name="Rectangle 23621" width="19.523" height="2.437" fill="#d0e3f2"/>
      </g>
    </g>
    <g id="Group_53506" data-name="Group 53506" transform="translate(7996.481 -5396.696)">
      <g id="Group_53504" data-name="Group 53504" transform="translate(0 0)">
        <rect id="Rectangle_23622" data-name="Rectangle 23622" width="28.338" height="3.657" fill="#d0e3f2"/>
      </g>
      <g id="Group_53505" data-name="Group 53505" transform="translate(30.703 0)">
        <rect id="Rectangle_23623" data-name="Rectangle 23623" width="20.452" height="3.657" fill="#d0e3f2"/>
      </g>
    </g>
    <g id="Group_53514" data-name="Group 53514" transform="translate(7952.549 -5365.303)">
      <g id="Group_53513" data-name="Group 53513" transform="translate(0 0)">
        <circle id="Ellipse_729" data-name="Ellipse 729" cx="18.034" cy="18.034" r="18.034" transform="matrix(0.071, -0.997, 0.997, 0.071, 0, 35.976)" fill="#34709f"/>
        <g id="Group_53512" data-name="Group 53512" transform="translate(0 0)" clip-path="url(#clip-path-4)">
          <g id="Group_53511" data-name="Group 53511" transform="translate(5.528 7.733)">
            <path id="Path_56299" data-name="Path 56299" d="M3366.982,770.648c0,.948-.492,1.716-1.1,1.716h0c-.606,0-1.1-.768-1.1-1.716v-1.717c0-.949.491-1.717,1.1-1.717h0c.606,0,1.1.769,1.1,1.717Z" transform="translate(-3347.115 -757.544)" fill="#2c5871"/>
            <path id="Path_56300" data-name="Path 56300" d="M3337.025,801.952a17.975,17.975,0,0,0,12.907-5.445c-2.1-2.317-7.108-3.948-12.958-3.948-5.8,0-10.782,1.6-12.91,3.891A17.977,17.977,0,0,0,3337.025,801.952Z" transform="translate(-3323.28 -772.378)" fill="#8dcfff"/>
            <path id="Path_56301" data-name="Path 56301" d="M3353.656,783.561a3.913,3.913,0,0,1-4,4.122h0a3.914,3.914,0,0,1-4-4.122q.132-2.144.265-4.287a3.966,3.966,0,0,1,3.732-3.847h0a3.966,3.966,0,0,1,3.732,3.847Q3353.523,781.417,3353.656,783.561Z" transform="translate(-3335.915 -762.351)" fill="#2c5871"/>
            <path id="Path_56302" data-name="Path 56302" d="M3353.656,777.24a3.913,3.913,0,0,1-4,4.122h0a3.914,3.914,0,0,1-4-4.122q.132-2.142.265-4.286a3.967,3.967,0,0,1,3.732-3.848h0a3.966,3.966,0,0,1,3.732,3.848Q3353.523,775.1,3353.656,777.24Z" transform="translate(-3335.915 -758.651)" fill="#0e303f"/>
            <path id="Path_56303" data-name="Path 56303" d="M3359.085,779.278a3.97,3.97,0,0,0-3.694-3.845c0,.083-.01.163-.01.247V786.9a7.408,7.408,0,0,0,.047.784,3.907,3.907,0,0,0,3.922-4.118Q3359.219,781.42,3359.085,779.278Z" transform="translate(-3341.61 -762.354)" fill="#0e303f"/>
            <path id="Path_56304" data-name="Path 56304" d="M3342.035,770.648c0,.948-.491,1.716-1.1,1.716h0c-.606,0-1.1-.768-1.1-1.716v-1.717c0-.949.491-1.717,1.1-1.717h0c.606,0,1.1.769,1.1,1.717Z" transform="translate(-3332.513 -757.544)" fill="#2c5871"/>
            <g id="Group_53508" data-name="Group 53508" transform="translate(7.851 8.438)">
              <path id="Path_56305" data-name="Path 56305" d="M3341.1,768.285a1.052,1.052,0,0,0,.982,1.109h0a1.052,1.052,0,0,0,.982-1.109v-2.93a1.052,1.052,0,0,0-.982-1.11h0a1.052,1.052,0,0,0-.982,1.11Z" transform="translate(-3341.105 -764.244)" fill="#0e303f"/>
              <path id="Path_56306" data-name="Path 56306" d="M3364.787,768.285a1.053,1.053,0,0,0,.982,1.109h0a1.051,1.051,0,0,0,.982-1.109v-2.93a1.051,1.051,0,0,0-.982-1.11h0a1.052,1.052,0,0,0-.982,1.11Z" transform="translate(-3354.966 -764.244)" fill="#0e303f"/>
            </g>
            <path id="Path_56307" data-name="Path 56307" d="M3352.527,751.18a6.8,6.8,0,1,1-6.783-7.283A7.047,7.047,0,0,1,3352.527,751.18Z" transform="translate(-3332 -743.897)" fill="#0e303f"/>
            <path id="Path_56308" data-name="Path 56308" d="M3352.983,765.607a5.5,5.5,0,0,1-5.621,5.8h0a5.5,5.5,0,0,1-5.62-5.8q.187-3.013.374-6.027a5.575,5.575,0,0,1,5.246-5.409h0a5.577,5.577,0,0,1,5.248,5.409Q3352.8,762.594,3352.983,765.607Z" transform="translate(-3333.618 -749.91)" fill="#2c5871"/>
            <path id="Path_56309" data-name="Path 56309" d="M3360.617,759.584a5.583,5.583,0,0,0-5.194-5.407c0,.117-.014.231-.014.348V770.3a10.357,10.357,0,0,0,.067,1.1,5.494,5.494,0,0,0,5.514-5.79Q3360.8,762.6,3360.617,759.584Z" transform="translate(-3341.626 -749.914)" fill="#24495d"/>
            <g id="Group_53509" data-name="Group 53509" transform="translate(15.989 20.146)">
              <path id="Path_56310" data-name="Path 56310" d="M3364.887,792.906a45.983,45.983,0,0,1,4.689.737c1.993.195,3.569,1.035,3.652,2.03l.68,8.1a38.831,38.831,0,0,1-10.637,1.674Z" transform="translate(-3362.217 -792.727)" fill="#fff"/>
              <path id="Path_56311" data-name="Path 56311" d="M3360.728,807.376l2.2-14.2c1.089.08,1.772.176,2.865.337a28.581,28.581,0,0,0,1.136,3.46s-3.145.754-3.233,1.025,2.8,1.242,2.8,1.242l-1.223,7.5c-1.622.3-.136.932-1.865.932A5.591,5.591,0,0,1,3360.728,807.376Z" transform="translate(-3360.728 -792.884)" fill="#a6dae9"/>
              <path id="Path_56312" data-name="Path 56312" d="M3361.008,807.373l1.8-14.9c1.088.079,2,.35,3.1.512.252,1.229.9,3.284.9,3.284s-3.146.754-3.232,1.026,2.8,1.631,2.8,1.631l-1.224,7.106c-1.621.3-.134.932-1.864.932C3363.273,806.965,3361.8,807.877,3361.008,807.373Z" transform="translate(-3360.892 -792.474)" fill="#fff"/>
            </g>
            <g id="Group_53510" data-name="Group 53510" transform="translate(0 20.146)">
              <path id="Path_56313" data-name="Path 56313" d="M3331.2,792.906a45.938,45.938,0,0,0-4.69.737c-1.994.195-3.569,1.035-3.653,2.03l-.68,8.1a38.822,38.822,0,0,0,10.637,1.674Z" transform="translate(-3322.174 -792.727)" fill="#fff"/>
              <path id="Path_56314" data-name="Path 56314" d="M3341.613,807.376l-2.2-14.2c-1.089.08-1.772.176-2.865.337a28.61,28.61,0,0,1-1.135,3.46s3.145.754,3.233,1.025-2.8,1.242-2.8,1.242l1.223,7.5c1.622.3.135.932,1.865.932A5.587,5.587,0,0,0,3341.613,807.376Z" transform="translate(-3329.921 -792.884)" fill="#a6dae9"/>
              <path id="Path_56315" data-name="Path 56315" d="M3341.908,807.373l-1.8-14.9c-1.088.079-2.005.35-3.1.512-.252,1.229-.9,3.284-.9,3.284s3.146.754,3.233,1.026-2.8,1.631-2.8,1.631l1.223,7.106c1.622.3.134.932,1.864.932C3339.643,806.965,3341.115,807.877,3341.908,807.373Z" transform="translate(-3330.332 -792.474)" fill="#fff"/>
            </g>
          </g>
        </g>
      </g>
    </g>
    <path id="Path_56316" data-name="Path 56316" d="M3653.653,766.2H3499.891l76.882-133.162Zm-150.9-1.651h148.04l-74.019-128.208Z" transform="translate(4531.889 -6036.585)" fill="#cdd5d7"/>
    <path id="Path_57277" data-name="Path 57277" d="M41.6,0A41.6,41.6,0,1,1,0,41.6,41.6,41.6,0,0,1,41.6,0Z" transform="translate(8065.474 -5360.373) rotate(-87.766)" fill="#3f82b7"/>
    <path id="Path_56317" data-name="Path 56317" d="M3469.791,889.714a41.6,41.6,0,1,1-41.6-41.6A41.6,41.6,0,0,1,3469.791,889.714Z" transform="translate(4598.198 -6162.465)" fill="#3f82b7"/>
    <path id="Path_56318" data-name="Path 56318" d="M3478.085,938.5h-15.223v-3.2l5.467-5.526q2.427-2.488,3.173-3.448a7.567,7.567,0,0,0,1.072-1.78,4.515,4.515,0,0,0,.328-1.7,2.477,2.477,0,0,0-.722-1.952,2.805,2.805,0,0,0-1.929-.641,5.544,5.544,0,0,0-2.457.581,12.692,12.692,0,0,0-2.488,1.653l-2.5-2.964a16.327,16.327,0,0,1,2.666-1.936,9.82,9.82,0,0,1,2.309-.872,11.843,11.843,0,0,1,2.8-.305,8.293,8.293,0,0,1,3.6.745,5.752,5.752,0,0,1,2.428,2.085,5.544,5.544,0,0,1,.864,3.069,7.5,7.5,0,0,1-.529,2.823,10.836,10.836,0,0,1-1.638,2.7,40.036,40.036,0,0,1-3.91,3.947l-2.8,2.636v.209h9.488Z" transform="translate(4553.596 -6202.438)" fill="#fff"/>
    <path id="Path_56319" data-name="Path 56319" d="M3674.277,626.874h-4.6v-12.6l.044-2.07.074-2.264q-1.147,1.146-1.594,1.5l-2.5,2.011-2.219-2.771,7.016-5.586h3.783Z" transform="translate(4436.145 -6020.231)" fill="#fff"/>
    <path id="Path_56320" data-name="Path 56320" d="M3538.7,698.953l-13.454,0,0-26.406,13.45.008Z" transform="translate(4517.046 -6059.711)" fill="#204f74"/>
    <g id="Group_53519" data-name="Group 53519" transform="translate(8049.023 -5387.275)">
      <path id="Path_56321" data-name="Path 56321" d="M3541.47,672.271" transform="translate(-3541.47 -672.271)" fill="#d9e1e4"/>
    </g>
    <path id="Path_56322" data-name="Path 56322" d="M3510.327,484.651a44.278,44.278,0,1,0,12.957,31.284A43.887,43.887,0,0,0,3510.327,484.651Zm-6.442,56a34.966,34.966,0,1,1,10.219-24.7A34.809,34.809,0,0,1,3503.884,540.646Z" transform="translate(4569.968 -5942.161)" fill="#34709f"/>
    <path id="Path_56323" data-name="Path 56323" d="M3536.654,756.595h-23.413V714.881l23.412,0Z" transform="translate(4524.075 -6084.486)" fill="#34709f"/>
    <path id="Path_56324" data-name="Path 56324" d="M3536.657,768.98h-23.416V736.042l23.415,0Z" transform="translate(4524.075 -6096.871)" fill="#204f74"/>
    <g id="Group_53520" data-name="Group 53520" transform="translate(8051.593 -5359.712)">
      <rect id="Rectangle_23624" data-name="Rectangle 23624" width="3.178" height="17.558" transform="translate(0 0)" fill="#fff"/>
    </g>
    <path id="Path_56325" data-name="Path 56325" d="M3537.754,819.8a12.78,12.78,0,0,1-18.072,0c0-1.446,0-2.893,0-4.336q9.036,0,18.068,0Q3537.755,817.628,3537.754,819.8Z" transform="translate(4520.305 -6143.354)" fill="#34709f"/>
    <g id="Group_53522" data-name="Group 53522" transform="translate(7931.41 -5283.051)">
      <path id="Path_56326" data-name="Path 56326" d="M3402.542,1034.654a38.689,38.689,0,0,0,14.97-28.645c.043-.713.076-1.429.091-2.159v-.007a38.29,38.29,0,0,0-1.792-12.44c-.037-.112-.079-.221-.113-.333.033.11.073.215.107.326l-11.839,3.666a27.7,27.7,0,0,1,1.24,8.606v0a27.758,27.758,0,0,1-11.777,22.32l7.146,10.134C3401.247,1035.649,3401.906,1035.157,3402.542,1034.654Z" transform="translate(-3337.212 -963.083)" fill="#34709f"/>
      <path id="Path_56327" data-name="Path 56327" d="M3275.356,979.8a27.8,27.8,0,1,1,49.273-24.231l11.839-3.666c-.034-.11-.073-.215-.106-.326-.16-.5-.324-.99-.5-1.477-.049-.138-.105-.276-.156-.416a39.454,39.454,0,0,0-35.425-26.037c-.383-.02-.761-.029-1.143-.037-.168,0-.335-.015-.5-.02-.031,0-.061,0-.1,0-.538-.006-1.072,0-1.61.015-.158.007-.319.005-.479.013-.42.016-.835.048-1.252.077-.29.019-.58.036-.872.063-.232.023-.465.053-.693.079-.48.054-.962.108-1.438.175-.027.006-.053.011-.081.015a40.1,40.1,0,0,0-9.8,2.772c-.379.164-.761.325-1.14.5a.286.286,0,0,0-.032.017,40.2,40.2,0,0,0-22.98,31.694c-.012.08-.02.159-.028.239-.054.474-.094.953-.131,1.428-.018.246-.036.488-.051.733-.022.319-.027.645-.041.968-.007.28-.027.555-.03.836a39.992,39.992,0,0,0,7.344,23.729Z" transform="translate(-3257.875 -923.585)" fill="#4d9bd8"/>
      <path id="Path_56328" data-name="Path 56328" d="M3331.608,1075.955l-7.146-10.134a27.665,27.665,0,0,1-16.411,5.081h0a27.748,27.748,0,0,1-22.323-11.777l-10.133,7.144c0,.005.005.005.008.01.452.642.92,1.264,1.4,1.87a38.593,38.593,0,0,0,26.738,14.887c.074.007.148.011.222.02.549.058,1.1.114,1.661.149.033,0,.061,0,.09.005.163.011.329.011.491.019.557.033,1.112.068,1.675.075a40,40,0,0,0,23.322-7.052C3332.013,1075.69,3332.281,1075.479,3331.608,1075.955Z" transform="translate(-3268.245 -1002.913)" fill="#acd4f8"/>
    </g>
    <g id="Group_53525" data-name="Group 53525" transform="translate(7972.415 -5289.338)">
      <g id="Group_53524" data-name="Group 53524" transform="translate(0 0)">
        <g id="Group_53523" data-name="Group 53523">
          <path id="Path_56329" data-name="Path 56329" d="M3356.746,954.373l43.7,14.2a45.952,45.952,0,0,0-29.5-57.9,43.751,43.751,0,0,0-14.2-2.247Z" transform="translate(-3356.746 -908.425)" fill="#3b7eb2"/>
        </g>
      </g>
    </g>
    <rect id="Rectangle_23625" data-name="Rectangle 23625" width="3.107" height="4.759" transform="translate(7941.998 -5191.085)" fill="#acd4f8"/>
    <rect id="Rectangle_23626" data-name="Rectangle 23626" width="3.105" height="10.644" transform="translate(7948.211 -5196.971)" fill="#3b7eb2"/>
    <rect id="Rectangle_23627" data-name="Rectangle 23627" width="3.109" height="26.74" transform="translate(7954.422 -5213.066)" fill="#3b7eb2"/>
    <rect id="Rectangle_23628" data-name="Rectangle 23628" width="3.105" height="14.431" transform="translate(7960.639 -5200.758)" fill="#34709f"/>
    <rect id="Rectangle_23629" data-name="Rectangle 23629" width="3.106" height="24.735" transform="translate(7966.852 -5211.063)" fill="#4d9bd8"/>
    <rect id="Rectangle_23630" data-name="Rectangle 23630" width="3.107" height="12.294" transform="translate(7973.064 -5198.621)" fill="#acd4f8"/>
    <rect id="Rectangle_23631" data-name="Rectangle 23631" width="3.107" height="36.606" transform="translate(7979.276 -5222.934)" fill="#3b7eb2"/>
    <rect id="Rectangle_23632" data-name="Rectangle 23632" width="3.107" height="11.031" transform="translate(7985.491 -5197.357)" fill="#acd4f8"/>
    <rect id="Rectangle_23633" data-name="Rectangle 23633" width="3.107" height="17.397" transform="translate(7991.704 -5203.724)" fill="#4d9bd8"/>
    <path id="Path_56330" data-name="Path 56330" d="M3866.542,889.714a41.6,41.6,0,1,1-41.6-41.6A41.6,41.6,0,0,1,3866.542,889.714Z" transform="translate(4365.985 -6162.465)" fill="#3f82b7"/>
    <path id="Path_56331" data-name="Path 56331" d="M3864.558,943.316l-7.415-7.416,2.828-2.827,4.587,4.588,16.593-16.591,2.827,2.828Z" transform="translate(4322.796 -6205.163)" fill="#fff"/>
    <path id="Path_56338" data-name="Path 56338" d="M3893.1,762.472s-6.372-1.6-13.758-11.469c-2.495-3.334-1.375.193-1.146,4.22s7.134,10.818,15.164,13.483S3893.1,762.472,3893.1,762.472Z" transform="translate(4310.734 -6104.851)" fill="#e9d6b8"/>
    <path id="Path_56340" data-name="Path 56340" d="M3858.636,741.453l-3.767-1.759a3.182,3.182,0,0,0-1.308-.47.576.576,0,0,0-.584.569l5.432,3.253Z" transform="translate(4325.233 -6098.731)" fill="#e9d6b8"/>
    <path id="Path_56354" data-name="Path 56354" d="M3948.535,906.417l2.546.3.676-9.462-3.628-.386C3948.134,900.01,3948.259,903.2,3948.535,906.417Z" transform="translate(4269.543 -6191.003)" fill="#e7f5fe"/>
    <g id="Group_53774" data-name="Group 53774">
      <path id="Path_56332" data-name="Path 56332" d="M4067.533,1128.952l.378,4.412.808,3.665,1.486.985,1.116.335.323.621,3.855,2.55a6.691,6.691,0,0,0,4.283.26c.607-.146-.237-1.8-.449-2.045a30.421,30.421,0,0,0-3.072-3l-3.007-3.7-3.4-4.634Z" transform="translate(4199.659 -6326.511)" fill="#161711"/>
      <path id="Path_56333" data-name="Path 56333" d="M3964.309,1118.162l.964,1.768.522,1.993-.071,3.175-1.712.253-1.3-.271-.844.6s-4.856.97-6.68,1.037c-3.026.1-4.684-.2-5.279-.787-.332-.325,1.075-.97,1.54-1.039a17.81,17.81,0,0,0,5.509-2.145l2.209-2.508.423-1.772Z" transform="translate(4268.53 -6320.518)" fill="#161711"/>
      <path id="Path_56334" data-name="Path 56334" d="M3995.964,886.412,4023.8,991.22l-7.072.45-13.511-33.344-3.271-10.054-16.061-39.449-3.093-21.7Z" transform="translate(4250.424 -6184.879)" fill="#34709f"/>
      <path id="Path_56335" data-name="Path 56335" d="M3968.667,976.306l-2-40.292,1.755-18.465,2.134-25.34-3.228-16.964-11.057,1.771-1.249,27.325.686,25.915.545,9.766,4.174,38.456Z" transform="translate(4265.507 -6178.343)" fill="#34709f"/>
      <path id="Path_56336" data-name="Path 56336" d="M4024.354,904.653l3.968-1.932.483-.453-.49-.884-.853.057.29-2.5-3.993-.938-2.013-1.084,1.533,6.908Z" transform="translate(4226.457 -6191.028)" fill="#e9d6b8"/>
      <path id="Path_56337" data-name="Path 56337" d="M4036.836,857.186l-14.863,16.18s.366,2.5,1.557,1.247c.143-.146-.5-.683.369-1.1,3.527-1.678,11.718-4.11,14.855-6.819a49.681,49.681,0,0,0,7.148-7.857Z" transform="translate(4226.323 -6167.774)" fill="#e9d6b8"/>
      <path id="Path_56339" data-name="Path 56339" d="M3865.594,742.281s1.5-4.216.905-5.322-3.028-4.991-3.028-4.991l-.707-.933s-1.391.28.272,2.871.207,1.811.207,1.811l-2.344-1.724-3.023-1.876-1.244-1.016s-.665-.632-.942-.638c-.8-.013-.522.654-.522.654l4.515,4.394-5.2-2.826s-.721-.243-.973.093c-.235.318-.025.449-.025.449l5.169,4.692-2.836-1.133s-.713-.218-.971.1c-.283.345-.367.43-.367.43l10.353,5.99Z" transform="translate(4324.984 -6093.604)" fill="#e9d6b8"/>
      <rect id="Rectangle_23634" data-name="Rectangle 23634" width="5.507" height="4.434" transform="translate(8187.646 -5349.346) rotate(-33.416)" fill="#e7f5fe"/>
      <rect id="Rectangle_23635" data-name="Rectangle 23635" width="5.507" height="4.996" transform="translate(8251.447 -5298.525) rotate(-43.883)" fill="#e7f5fe"/>
      <path id="Path_56341" data-name="Path 56341" d="M3923.758,757.255s.514,3.4-12.457,16.307c-7.249,7.211-11.611,11.882-15.9,10.458-7.341-2.439-20.813-22.6-20.813-22.6l6.836-7.282s10.9,12.915,15.836,12.823c1.154-.022,8.6-5.959,15.691-14.727C3915.953,748.53,3922.984,756.288,3923.758,757.255Z" transform="translate(4312.583 -6105.767)" fill="#d1dbea"/>
      <path id="Path_56342" data-name="Path 56342" d="M3950.824,832.559l3.492,6.711,1.392-17.471,4.54,15.929L3986.4,834.2s-5.139-25.8-7.619-36.356l8.4-26.5s7.143-18.678-4.519-19.567-25.114-1.628-25.114-1.628S3943.718,798.365,3950.824,832.559Z" transform="translate(4269.154 -6105.132)" fill="#dbe7f3"/>
      <path id="Path_56343" data-name="Path 56343" d="M3989,762.337s-8.213,18.7-3.139,37.815c.4,1.5,2.346,2.395,2.346,2.395l2.257-2.468S3987.795,778.1,3989,762.337Z" transform="translate(4248.429 -6112.261)" fill="#204f74"/>
      <path id="Path_56344" data-name="Path 56344" d="M3996.7,756.958l.655,3.944,7.034-5.962.054-.977Z" transform="translate(4241.114 -6107.359)" fill="#d1dbea"/>
      <path id="Path_56345" data-name="Path 56345" d="M3990.579,752.085l-2.237,7.229,2.612-2.92Z" transform="translate(4246.007 -6106.26)" fill="#d1dbea"/>
      <path id="Path_56346" data-name="Path 56346" d="M4032.541,773.195l6.431,22.451-9.14,11.812s3.6,5.351,5.1,4.724c10.351-4.331,18.542-19.185,18.542-19.185l-9.365-30.5s-3.913-6.519-13.343-8.087C4023.932,753.274,4032.091,771.332,4032.541,773.195Z" transform="translate(4222.767 -6107.591)" fill="#dbe7f3"/>
      <path id="Path_56347" data-name="Path 56347" d="M4003.362,741.979a24.624,24.624,0,0,1-1.413,4.11c-.857,1.661-7.577,3.492-8.6,3.679s.537-5.105.6-6.322c.051-.931.632-.607-.014-1.987Z" transform="translate(4243.285 -6100.04)" fill="#e9d6b8"/>
      <path id="Path_56348" data-name="Path 56348" d="M3982.566,751l-1.991,5.558-2.555,21.306-3.672-16.747,3.021-2.9-1.638-2.695,3.612-4.4Z" transform="translate(4254.198 -6105.624)" fill="#e7f5fe"/>
      <path id="Path_56349" data-name="Path 56349" d="M3965.674,810.918l3.414,10.3,20.263,4.8s1.793-15.833-.688-26.387l8.4-26.5s7.143-18.678-4.519-19.567c-1.642-.124-3.32-.246-4.99-.364-2.362-.165-6.765,6.608-7.827,8.553-1.135,2.082-8.512,20.977-8.512,20.977Z" transform="translate(4259.274 -6106.91)" fill="url(#linear-gradient)"/>
      <path id="Path_56350" data-name="Path 56350" d="M3995.091,752.109l4.48.247-3.724,6.416-4.436,2.638.029,5.021-11.529,16.45,7.53-21.69Z" transform="translate(4250.941 -6106.273)" fill="#d1dbea"/>
      <path id="Path_56351" data-name="Path 56351" d="M3995.2,752.109l4.479.247-3.708,6.128L3991.542,761l.042,4.8-11.488,15.707,7.477-20.728Z" transform="translate(4250.834 -6106.273)" fill="#e7f5fe"/>
      <path id="Path_56352" data-name="Path 56352" d="M3992.441,761.312l1.187-.128-.119,2.924-.859.771-1.2-.476Z" transform="translate(4244.188 -6111.586)" fill="#204f74"/>
      <path id="Path_56353" data-name="Path 56353" d="M3982.7,896.676l10.468.382,1.912,11.766-6.965.007s-3.686.016-4.277-3.117S3982.7,896.676,3982.7,896.676Z" transform="translate(4249.309 -6190.886)" fill="#e7f5fe"/>
      <path id="Path_56355" data-name="Path 56355" d="M3968.894,822.8s-4.254,10.514-4.245,26.995c0,0,2.8-11.224,3.815-14.5,3.356-10.845,6.528-12.814,10.8-17.3C3984.646,812.341,3973.11,813,3968.894,822.8Z" transform="translate(4259.875 -6142.743)" fill="#d1dbea"/>
      <g id="Group_53529" data-name="Group 53529" transform="translate(8244.68 -5338.73)">
        <path id="Path_56356" data-name="Path 56356" d="M4014.311,793.2l-1.06-.26c.381-1.549,2.093-3.776,3.79-3.6l.386.039a2.379,2.379,0,0,1,1.725,1.009,3.147,3.147,0,0,1,.406,2.572l-1.059-.259a2.071,2.071,0,0,0-.237-1.684,1.289,1.289,0,0,0-.945-.553l-.386-.04C4016.053,790.33,4014.645,791.838,4014.311,793.2Z" transform="translate(-4013.252 -789.325)" fill="#1b5e8f"/>
      </g>
      <g id="Group_53536" data-name="Group 53536" transform="translate(8230.203 -5355.976)">
        <g id="Group_53530" data-name="Group 53530" transform="translate(0 9.165)">
          <path id="Path_56357" data-name="Path 56357" d="M3985.979,781.234c-.177,0-.352-.009-.528-.027l-2.833-.287a4.617,4.617,0,0,1-3.389-1.955,5.453,5.453,0,0,1-.685-4.494l1.2-4.63,1.073.277-1.2,4.631a4.351,4.351,0,0,0,.522,3.583,3.525,3.525,0,0,0,2.591,1.486l2.832.286a5.715,5.715,0,0,0,5.724-4.345l1.2-4.63,1.072.277-1.2,4.631A6.946,6.946,0,0,1,3985.979,781.234Z" transform="translate(-3978.344 -769.841)" fill="#1b5e8f"/>
        </g>
        <g id="Group_53531" data-name="Group 53531" transform="translate(0.518 0.185)">
          <path id="Path_56358" data-name="Path 56358" d="M3980.307,761.495l-.715-.185,2.639-10.2a3.868,3.868,0,0,1,3.9-2.91l-.075.735a3.1,3.1,0,0,0-3.1,2.361Z" transform="translate(-3979.592 -748.189)" fill="#1b5e8f"/>
        </g>
        <g id="Group_53532" data-name="Group 53532" transform="translate(5.651 0)">
          <path id="Path_56359" data-name="Path 56359" d="M3992.32,748.975l-.35-1.051a3.379,3.379,0,0,1,1.419-.166l-.112,1.1A2.284,2.284,0,0,0,3992.32,748.975Z" transform="translate(-3991.97 -747.742)" fill="#1b5e8f"/>
        </g>
        <g id="Group_53535" data-name="Group 53535" transform="translate(13.284 0.799)">
          <g id="Group_53533" data-name="Group 53533" transform="translate(0 0.184)">
            <path id="Path_56360" data-name="Path 56360" d="M4011.092,763.96l-.715-.185,2.639-10.2a2.346,2.346,0,0,0-.28-1.934,1.894,1.894,0,0,0-1.392-.8l.075-.735a2.623,2.623,0,0,1,1.924,1.111,3.083,3.083,0,0,1,.389,2.541Z" transform="translate(-4010.376 -750.113)" fill="#1b5e8f"/>
          </g>
          <g id="Group_53534" data-name="Group 53534" transform="translate(0.948)">
            <path id="Path_56361" data-name="Path 56361" d="M4013.447,751.036a1.8,1.8,0,0,0-.785-.264l.113-1.1a2.892,2.892,0,0,1,1.264.43Z" transform="translate(-4012.662 -749.67)" fill="#1b5e8f"/>
          </g>
        </g>
      </g>
      <g id="Group_53537" data-name="Group 53537" transform="translate(8233.609 -5379.001)">
        <path id="Path_56362" data-name="Path 56362" d="M3991.1,716.9a1.915,1.915,0,0,0,1.463,2.284l8.439,1.836a1.92,1.92,0,0,0,2.281-1.467l2.717-12.5a1.918,1.918,0,0,0-1.467-2.284l-8.435-1.83a1.915,1.915,0,0,0-2.282,1.465Z" transform="translate(-3989.194 -698.473)" fill="#e9d6b8"/>
        <path id="Path_56363" data-name="Path 56363" d="M3995.047,706.551a7.272,7.272,0,0,1-.916-2.244,2.859,2.859,0,0,1,1.707-2.082c1.057-.341,1.615.842,1.615.842s-1.677.507-1.823.8S3995.047,706.551,3995.047,706.551Z" transform="translate(-3990.991 -698.041)" fill="#163f59"/>
        <path id="Path_56364" data-name="Path 56364" d="M4009.07,706.619s2.317-4.523,2.391-5.979.126-2.469-1.555-3c-2.521-.791-2.673-.253-3.751-1.309s-2.918-3.421-3.649-3.776a2.636,2.636,0,0,0-3.937,1.8,2.758,2.758,0,0,1-1.654,2.041c.054.238.478.546,1.206,1.132,2.091,1.682,3.445,2.223,5.342,2.143s5.464-.365,5.566,1.048-.937,5.441-.851,5.786S4008.7,706.789,4009.07,706.619Z" transform="translate(-3992.62 -692.225)" fill="#194866"/>
        <path id="Path_56365" data-name="Path 56365" d="M4017.826,729.174a.643.643,0,0,0,.49.761l1.823.395a.64.64,0,0,0,.762-.487l.725-3.331a.645.645,0,0,0-.489-.765l-1.823-.393a.635.635,0,0,0-.759.487Z" transform="translate(-4004.851 -711.606)" fill="#e9d6b8"/>
        <path id="Path_56366" data-name="Path 56366" d="M3991.628,723.465a.636.636,0,0,0,.486.762l1.821.4a.642.642,0,0,0,.764-.491l.723-3.33a.639.639,0,0,0-.488-.761l-1.823-.4a.643.643,0,0,0-.759.492Z" transform="translate(-3989.517 -708.265)" fill="#e9d6b8"/>
        <path id="Path_56367" data-name="Path 56367" d="M4001.962,728.642l-1.426,6.558c-.322,1.483-1.623,4.61-10,2.783-4.958-1.075-3.986-4.68-3.724-5.878a10.878,10.878,0,0,1,2.46-3.826c.022-.012-.44,2.031-.44,2.031a4.054,4.054,0,0,1,3.818-1.24c3.8.825,4.182,3.239,5.867,3.565C3999.816,732.886,4001.241,730.994,4001.962,728.642Z" transform="translate(-3986.56 -713.326)" fill="#194866"/>
        <path id="Path_56368" data-name="Path 56368" d="M3998.94,736.4l-2.6-.567a.639.639,0,0,1-.488-.762l.079-.365,3.853.841-.08.364A.641.641,0,0,1,3998.94,736.4Z" transform="translate(-3991.989 -717.087)" fill="#e9d6b8"/>
      </g>
      <rect id="Rectangle_23636" data-name="Rectangle 23636" width="2.768" height="9.131" transform="translate(8243.145 -5333.323) rotate(-81.638)" fill="#e7f5fe"/>
      <g id="Group_53538" data-name="Group 53538" transform="translate(8232.936 -5336.556)">
        <path id="Path_56369" data-name="Path 56369" d="M3989.839,808.025c-.154,0-.308-.008-.462-.023l-.708-.072a4.033,4.033,0,0,1-2.961-1.709,4.752,4.752,0,0,1-.6-3.917l2.283-7.734,1.063.314-2.279,7.717a3.636,3.636,0,0,0,.441,2.988,2.943,2.943,0,0,0,2.164,1.24l.707.072a4.812,4.812,0,0,0,4.822-3.665l2.784-8.3,1.051.353-2.773,8.267A6.016,6.016,0,0,1,3989.839,808.025Z" transform="translate(-3984.935 -794.569)" fill="#1b5e8f"/>
      </g>
    </g>
    <path id="Path_56370" data-name="Path 56370" d="M3272.288,936.609a3.521,3.521,0,0,1-3.52,3.52h-2.346v8.212l-8.213-8.212h-26.984a3.52,3.52,0,0,1-3.52-3.52V907.28a3.52,3.52,0,0,1,3.52-3.521h37.542a3.521,3.521,0,0,1,3.52,3.521Z" transform="translate(4691.193 -6195.032)" fill="#3b7eb2"/>
    <rect id="Rectangle_23637" data-name="Rectangle 23637" width="30.504" height="2.347" transform="translate(7925.938 -5280.714)" fill="#fff"/>
    <rect id="Rectangle_23638" data-name="Rectangle 23638" width="30.504" height="2.345" transform="translate(7925.938 -5274.846)" fill="#fff"/>
    <rect id="Rectangle_23639" data-name="Rectangle 23639" width="30.504" height="2.346" transform="translate(7925.938 -5268.981)" fill="#fff"/>
    <path id="Path_56371" data-name="Path 56371" d="M3468.452,1021.067a4.635,4.635,0,0,0-4.635,4.635v29.643H3453l10.817,10.816v7.007a4.634,4.634,0,0,0,4.635,4.635H3524.4a4.636,4.636,0,0,0,4.636-4.635V1025.7a4.636,4.636,0,0,0-4.636-4.635Z" transform="translate(4559.333 -6263.69)" fill="#3b7eb2"/>
    <g id="Group_53541" data-name="Group 53541" transform="translate(8054.888 -5235.388)">
      <path id="Path_56372" data-name="Path 56372" d="M3564.444,1044.031h-8.831v-5.519h8.831Zm-6.623-2.207h4.415v-1.1h-4.415Z" transform="translate(-3555.613 -1038.512)" fill="#fff"/>
    </g>
    <g id="Group_53542" data-name="Group 53542" transform="translate(8043.85 -5227.66)">
      <path id="Path_56373" data-name="Path 56373" d="M3544.449,1088.052A15.472,15.472,0,0,1,3529,1072.6h2.208a13.236,13.236,0,1,0,.186-2.221l-2.177-.366a15.454,15.454,0,1,1,15.237,18.041Z" transform="translate(-3528.996 -1057.145)" fill="#fff"/>
    </g>
    <g id="Group_53543" data-name="Group 53543" transform="translate(8058.199 -5230.974)">
      <rect id="Rectangle_23640" data-name="Rectangle 23640" width="2.208" height="4.416" transform="translate(0 0)" fill="#fff"/>
    </g>
    <g id="Group_53544" data-name="Group 53544" transform="translate(8058.199 -5223.246)">
      <rect id="Rectangle_23641" data-name="Rectangle 23641" width="2.208" height="12.142" transform="translate(0 0)" fill="#fff"/>
    </g>
    <g id="Group_53545" data-name="Group 53545" transform="translate(8067.354 -5227.89)">
      <rect id="Rectangle_23642" data-name="Rectangle 23642" width="5.464" height="2.207" transform="translate(0 3.862) rotate(-44.986)" fill="#fff"/>
    </g>
    <g id="Group_53546" data-name="Group 53546" transform="translate(8069.563 -5229.546)">
      <rect id="Rectangle_23643" data-name="Rectangle 23643" width="2.207" height="4.683" transform="translate(0 1.561) rotate(-45.006)" fill="#fff"/>
    </g>
    <g id="Group_53547" data-name="Group 53547" transform="translate(8061.234 -5221.83)">
      <path id="Path_56374" data-name="Path 56374" d="M3578.919,1080.827h-2.208a7.722,7.722,0,0,0-5.8-7.483l.552-2.139A9.93,9.93,0,0,1,3578.919,1080.827Z" transform="translate(-3570.916 -1071.205)" fill="#fff"/>
    </g>
    <g id="Group_53548" data-name="Group 53548" transform="translate(8039.436 -5213.311)">
      <rect id="Rectangle_23644" data-name="Rectangle 23644" width="9.935" height="2.208" transform="translate(0 0)" fill="#fff"/>
    </g>
    <g id="Group_53549" data-name="Group 53549" transform="translate(8032.811 -5213.311)">
      <rect id="Rectangle_23645" data-name="Rectangle 23645" width="4.415" height="2.208" transform="translate(0 0)" fill="#fff"/>
    </g>
    <g id="Group_53550" data-name="Group 53550" transform="translate(8032.811 -5219.935)">
      <rect id="Rectangle_23646" data-name="Rectangle 23646" width="7.727" height="2.208" transform="translate(0 0)" fill="#fff"/>
    </g>
    <g id="Group_53551" data-name="Group 53551" transform="translate(8036.124 -5206.688)">
      <rect id="Rectangle_23647" data-name="Rectangle 23647" width="6.623" height="2.208" transform="translate(0 0)" fill="#fff"/>
    </g>
  </g>
</svg>
