<svg id="Group_46229" data-name="Group 46229" xmlns="http://www.w3.org/2000/svg" width="104.959" height="62.053" viewBox="0 0 104.959 62.053">
  <path id="Path_42651" data-name="Path 42651" d="M261.726,181.747l-17.679.122-22.547-.085-50.408-.188a22.191,22.191,0,0,1-7.056-16.524c.112-6.708,1.607-20.869,17.269-24.18,14.69-3.1,10.784-22.854,32.445-20.914,8.547.766,12.339,8.366,18.944,6.341,27.914-8.556,34.042,9.237,36.143,26.509C269.612,159.2,267.518,179.031,261.726,181.747Z" transform="translate(-164.033 -119.845)" fill="#e9ffc2"/>
  <g id="Group_46205" data-name="Group 46205" transform="translate(49.193 7.34)">
    <rect id="Rectangle_20872" data-name="Rectangle 20872" width="6.573" height="6.377" rx="3.188" fill="#c0d8fb"/>
    <rect id="Rectangle_20873" data-name="Rectangle 20873" width="6.003" height="5.824" rx="2.912" transform="translate(0.285 0.276)" fill="#dfebfd"/>
    <g id="Group_46201" data-name="Group 46201" transform="translate(0.776 0.722)">
      <g id="Group_46199" data-name="Group 46199" transform="translate(2.374)">
        <path id="Path_42652" data-name="Path 42652" d="M1582.818,338.5a.136.136,0,1,1,.136.136A.136.136,0,0,1,1582.818,338.5Z" transform="translate(-1582.818 -338.362)" fill="#b7d3f3"/>
        <path id="Path_42653" data-name="Path 42653" d="M1612.15,345.441a.136.136,0,1,1,.053.185A.136.136,0,0,1,1612.15,345.441Z" transform="translate(-1611.051 -345.112)" fill="#b7d3f3"/>
        <path id="Path_42654" data-name="Path 42654" d="M1636.483,366.971a.136.136,0,1,1-.04.188A.136.136,0,0,1,1636.483,366.971Z" transform="translate(-1634.443 -365.894)" fill="#b7d3f3"/>
        <path id="Path_42655" data-name="Path 42655" d="M1647.194,398.911a.136.136,0,1,1-.136.136A.136.136,0,0,1,1647.194,398.911Z" transform="translate(-1644.688 -396.677)" fill="#b7d3f3"/>
        <path id="Path_42656" data-name="Path 42656" d="M1638.228,434.278a.136.136,0,1,1-.193,0A.136.136,0,0,1,1638.228,434.278Z" transform="translate(-1635.96 -430.701)" fill="#b7d3f3"/>
        <circle id="Ellipse_394" data-name="Ellipse 394" cx="0.136" cy="0.136" r="0.136" transform="translate(1.181 4.394)" fill="#b7d3f3"/>
        <path id="Path_42657" data-name="Path 42657" d="M1582.818,466.977a.136.136,0,1,1,.136.136A.136.136,0,0,1,1582.818,466.977Z" transform="translate(-1582.818 -462.101)" fill="#b7d3f3"/>
      </g>
      <g id="Group_46200" data-name="Group 46200" transform="translate(0 0.259)">
        <path id="Path_42658" data-name="Path 42658" d="M1553.64,345.441a.136.136,0,1,0-.053.185A.136.136,0,0,0,1553.64,345.441Z" transform="translate(-1552.097 -345.371)" fill="#b7d3f3"/>
        <path id="Path_42659" data-name="Path 42659" d="M1529.308,366.971a.136.136,0,1,0,.041.188A.136.136,0,0,0,1529.308,366.971Z" transform="translate(-1528.705 -366.153)" fill="#b7d3f3"/>
        <path id="Path_42660" data-name="Path 42660" d="M1518.6,398.911a.136.136,0,1,0,.136.136A.136.136,0,0,0,1518.6,398.911Z" transform="translate(-1518.461 -396.936)" fill="#b7d3f3"/>
        <path id="Path_42661" data-name="Path 42661" d="M1527.563,434.278a.136.136,0,1,0,.193,0A.136.136,0,0,0,1527.563,434.278Z" transform="translate(-1527.189 -430.96)" fill="#b7d3f3"/>
        <path id="Path_42662" data-name="Path 42662" d="M1550.738,457.514a.136.136,0,1,0,.193,0A.136.136,0,0,0,1550.738,457.514Z" transform="translate(-1549.509 -453.338)" fill="#b7d3f3"/>
      </g>
    </g>
    <g id="Group_46204" data-name="Group 46204" transform="translate(3.25 1.391)">
      <path id="Path_42663" data-name="Path 42663" d="M1585.514,399.047a.136.136,0,1,1,.136.136A.136.136,0,0,1,1585.514,399.047Z" transform="translate(-1585.514 -397.346)" fill="#b7d3f3"/>
      <g id="Group_46202" data-name="Group 46202" transform="translate(0.118)">
        <rect id="Rectangle_20874" data-name="Rectangle 20874" width="0.037" height="1.701" fill="#b7d3f3"/>
      </g>
      <g id="Group_46203" data-name="Group 46203" transform="translate(0.085 0.947)">
        <rect id="Rectangle_20875" data-name="Rectangle 20875" width="1.146" height="0.112" transform="translate(0 0.708) rotate(-38.133)" fill="#b7d3f3"/>
      </g>
    </g>
  </g>
  <g id="Group_46212" data-name="Group 46212" transform="translate(11.251 27.085)">
    <g id="Group_46207" data-name="Group 46207" transform="translate(8.789 6.564)">
      <path id="Path_42664" data-name="Path 42664" d="M746,1034.695s-1.15-1.342-.071-2.194a3.061,3.061,0,0,1,1.431-.438s-.911,1.527-.616,1.679.892-1.775.892-1.775a7.243,7.243,0,0,1,2.371.1s-1.534,1.255-1.211,1.33,1.98-1.157,1.98-1.157,1.67.284,1.581,1.3-.664,1.333-.917,1.306-1.732-.592-1.764-.384.858.884,1.482.916c0,0-1.177,1.3-1.96.924s-.849-.969-1.337-1.191-.9-.222-.7.005,1.084.448,1.363.941.529.826-.28.7-2.125-.714-2.183-1.392Z" transform="translate(-744.055 -1031.912)" fill="#c8dbf4"/>
      <g id="Group_46206" data-name="Group 46206" transform="translate(0 1.652)">
        <path id="Path_42665" data-name="Path 42665" d="M739.1,1076.706s-4.535-.175-5.537,1.122a3.279,3.279,0,0,1-.9,1.267l-.106.29s.786-.829,1.067-.879C733.619,1078.507,733.179,1076.9,739.1,1076.706Z" transform="translate(-731.617 -1076.699)" fill="#c8dbf4"/>
        <path id="Path_42666" data-name="Path 42666" d="M708.255,1138.706a2.848,2.848,0,0,0-1.041,2.006l.177.016a4.6,4.6,0,0,1,.873-1.85C708.825,1138.358,708.255,1138.706,708.255,1138.706Z" transform="translate(-707.214 -1136.308)" fill="#c8dbf4"/>
      </g>
    </g>
    <g id="Group_46209" data-name="Group 46209" transform="translate(0 2.921)">
      <path id="Path_42667" data-name="Path 42667" d="M475.7,937.9s1.83-1.025.976-2.415a3.632,3.632,0,0,0-1.415-1.073s.39,2.074,0,2.122-.268-2.342-.268-2.342a8.594,8.594,0,0,0-2.684-.854s1.2,2.025.805,1.976-1.732-2.1-1.732-2.1-1.976-.366-2.293.805.2,1.756.488,1.83,2.171.049,2.122.293-1.317.634-2.025.415c0,0,.781,1.927,1.805,1.83s1.342-.732,1.976-.781,1.1.122.781.293-1.391.056-1.9.492-.927.7.024.9,2.659.073,3-.659Z" transform="translate(-468.99 -933.159)" fill="#c8dbf4"/>
      <g id="Group_46208" data-name="Group 46208" transform="translate(1.003 1.225)">
        <path id="Path_42668" data-name="Path 42668" d="M496.168,966.367s5.123,1.659,5.709,3.513a3.893,3.893,0,0,0,.488,1.781v.366a5.328,5.328,0,0,0-.829-1.415S502.682,969,496.168,966.367Z" transform="translate(-496.168 -966.367)" fill="#c8dbf4"/>
        <path id="Path_42669" data-name="Path 42669" d="M657.739,1103.915a3.379,3.379,0,0,1,.34,2.66l-.2-.055a5.462,5.462,0,0,0-.216-2.418C657.246,1103.294,657.739,1103.915,657.739,1103.915Z" transform="translate(-651.543 -1098.621)" fill="#c8dbf4"/>
      </g>
    </g>
    <g id="Group_46211" data-name="Group 46211" transform="translate(8.037)">
      <path id="Path_42670" data-name="Path 42670" d="M688.412,860.237s-2.412-1.351-1.286-3.184a4.788,4.788,0,0,1,1.865-1.415s-.515,2.733,0,2.8.354-3.087.354-3.087,2.54-1.222,3.537-1.126c0,0-1.576,2.669-1.061,2.6s2.283-2.766,2.283-2.766,2.6-.482,3.023,1.061-.257,2.315-.643,2.412-2.862.064-2.8.386,1.737.836,2.669.547c0,0-1.029,2.541-2.38,2.412s-1.769-.965-2.6-1.029-1.447.161-1.029.386,1.833.074,2.508.648,1.222.928-.032,1.185-3.505.1-3.955-.868Z" transform="translate(-686.826 -853.992)" fill="#d4e4f8"/>
      <g id="Group_46210" data-name="Group 46210" transform="translate(0.312 1.615)">
        <path id="Path_42671" data-name="Path 42671" d="M720.54,897.766s-6.753,2.187-7.525,4.631a5.131,5.131,0,0,1-.643,2.348v.482a7.024,7.024,0,0,1,1.093-1.865S711.954,901.239,720.54,897.766Z" transform="translate(-711.741 -897.766)" fill="#d4e4f8"/>
        <path id="Path_42672" data-name="Path 42672" d="M695.908,1079.081a4.454,4.454,0,0,0-.448,3.506l.268-.072a7.2,7.2,0,0,1,.285-3.187C696.558,1078.262,695.908,1079.081,695.908,1079.081Z" transform="translate(-695.277 -1072.103)" fill="#d4e4f8"/>
      </g>
    </g>
    <path id="Path_42673" data-name="Path 42673" d="M604.268,1171.791a4.724,4.724,0,0,0,4.724-4.724h-9.449A4.725,4.725,0,0,0,604.268,1171.791Z" transform="translate(-594.727 -1155.516)" fill="#d4e4f8"/>
    <path id="Path_42674" data-name="Path 42674" d="M607.355,1286.427h-9.58a.583.583,0,0,1,.583-.583h8.414a.583.583,0,0,1,.583.583Z" transform="translate(-593.024 -1269.911)" fill="#d4e4f8"/>
    <rect id="Rectangle_20876" data-name="Rectangle 20876" width="9.712" height="0.145" transform="translate(4.661 11.55)" fill="#9fc1f4"/>
  </g>
  <g id="Group_46217" data-name="Group 46217" transform="translate(9.796 43.6)">
    <path id="Path_42675" data-name="Path 42675" d="M446.337,1301.931v.453c0,.159-.051.288-.114.288H429.677c-.063,0-.114-.13-.114-.288v-.453c0-.158.051-.288.114-.288h16.546C446.285,1301.643,446.337,1301.773,446.337,1301.931Z" transform="translate(-429.563 -1301.643)" fill="#9abfe2"/>
    <path id="Path_42676" data-name="Path 42676" d="M535.851,1301.931v.453c0,.159-.047.288-.1.288H522.611c-.058,0-.1-.13-.1-.288v-.453c0-.158.047-.288.1-.288h13.135C535.8,1301.643,535.851,1301.773,535.851,1301.931Z" transform="translate(-519.077 -1301.643)" fill="#bad4f4"/>
    <rect id="Rectangle_20877" data-name="Rectangle 20877" width="11.746" height="17.121" transform="translate(0.84 1.03)" fill="#c8dbf4"/>
    <rect id="Rectangle_20878" data-name="Rectangle 20878" width="11.746" height="17.121" transform="translate(4.132 1.03)" fill="#dfebfd"/>
    <g id="Group_46216" data-name="Group 46216" transform="translate(4.763 1.514)">
      <g id="Group_46213" data-name="Group 46213">
        <path id="Path_42677" data-name="Path 42677" d="M569.147,1358.37H558.663v-15.692h10.484Zm-10.371-.113h10.258v-15.465H558.776Z" transform="translate(-558.663 -1342.678)" fill="#b7d3f3"/>
      </g>
      <g id="Group_46214" data-name="Group 46214" transform="translate(0.057 5.191)">
        <rect id="Rectangle_20879" data-name="Rectangle 20879" width="10.371" height="0.113" fill="#b7d3f3"/>
      </g>
      <g id="Group_46215" data-name="Group 46215" transform="translate(0.057 10.483)">
        <rect id="Rectangle_20880" data-name="Rectangle 20880" width="10.371" height="0.113" fill="#b7d3f3"/>
      </g>
      <path id="Path_42678" data-name="Path 42678" d="M674.881,1361.242h-1.924a.17.17,0,0,1-.17-.17h0a.17.17,0,0,1,.17-.17h1.924a.17.17,0,0,1,.17.17h0A.17.17,0,0,1,674.881,1361.242Z" transform="translate(-668.577 -1360.23)" fill="#b7d3f3"/>
      <path id="Path_42679" data-name="Path 42679" d="M674.881,1501.518h-1.924a.17.17,0,0,1-.17-.17h0a.17.17,0,0,1,.17-.17h1.924a.17.17,0,0,1,.17.17h0A.17.17,0,0,1,674.881,1501.518Z" transform="translate(-668.577 -1495.331)" fill="#b7d3f3"/>
      <path id="Path_42680" data-name="Path 42680" d="M674.881,1647.744h-1.924a.17.17,0,0,1-.17-.17h0a.171.171,0,0,1,.17-.17h1.924a.171.171,0,0,1,.17.17h0A.17.17,0,0,1,674.881,1647.744Z" transform="translate(-668.577 -1636.162)" fill="#b7d3f3"/>
    </g>
  </g>
  <g id="Group_46218" data-name="Group 46218" transform="translate(10.839 39.692)">
    <path id="Path_42681" data-name="Path 42681" d="M460.231,1200.334v2.379h-2.4v-2.386a.612.612,0,0,1,0-.068.731.731,0,0,1,.443-.605.485.485,0,0,0,.3-.418l.018-.344h.88l.005.343a.468.468,0,0,0,.294.42.738.738,0,0,1,.447.6A.73.73,0,0,1,460.231,1200.334Z" transform="translate(-457.833 -1198.773)" fill="#c8dbf4"/>
    <path id="Path_42682" data-name="Path 42682" d="M477.385,1195.977h-1.027l.027-.268h.973Z" transform="translate(-475.674 -1195.709)" fill="#b7d3f3"/>
    <path id="Path_42683" data-name="Path 42683" d="M460.231,1236.02v1.534h-2.4v-1.542a.609.609,0,0,1,0-.068h2.391A.733.733,0,0,1,460.231,1236.02Z" transform="translate(-457.833 -1234.46)" fill="#fff"/>
  </g>
  <g id="Group_46219" data-name="Group 46219" transform="translate(13.866 41.428)">
    <path id="Path_42684" data-name="Path 42684" d="M541.228,1245.344v1.331h-1.342v-1.335a.362.362,0,0,1,0-.038.41.41,0,0,1,.248-.339.271.271,0,0,0,.17-.234l.01-.192h.493l0,.192a.261.261,0,0,0,.164.235.413.413,0,0,1,.25.338C541.227,1245.316,541.228,1245.33,541.228,1245.344Z" transform="translate(-539.886 -1244.471)" fill="#c8dbf4"/>
    <path id="Path_42685" data-name="Path 42685" d="M550.823,1242.907h-.575l.015-.15h.544Z" transform="translate(-549.866 -1242.757)" fill="#b7d3f3"/>
    <path id="Path_42686" data-name="Path 42686" d="M541.228,1265.306v.858h-1.342v-.862a.36.36,0,0,1,0-.038h1.337C541.227,1265.278,541.228,1265.292,541.228,1265.306Z" transform="translate(-539.886 -1264.434)" fill="#fff"/>
  </g>
  <g id="Group_46221" data-name="Group 46221" transform="translate(63.579 11.673)">
    <rect id="Rectangle_20881" data-name="Rectangle 20881" width="27.478" height="50.229" fill="#d3e3f7"/>
    <rect id="Rectangle_20882" data-name="Rectangle 20882" width="25.099" height="49.347" transform="translate(1.206 0.882)" fill="#dffbaf"/>
    <path id="Path_42687" data-name="Path 42687" d="M2484.98,1090.833a1.109,1.109,0,1,1,1.11,1.11A1.109,1.109,0,0,1,2484.98,1090.833Z" transform="translate(-2462.932 -1065.615)" fill="#d3e3f7"/>
    <g id="Group_46220" data-name="Group 46220" transform="translate(8.612 8.36)">
      <rect id="Rectangle_20883" data-name="Rectangle 20883" width="10.361" height="3.271" fill="#f5f9fd"/>
      <rect id="Rectangle_20884" data-name="Rectangle 20884" width="6.515" height="0.336" transform="translate(1.923 1.014)" fill="#d3e3f7"/>
      <rect id="Rectangle_20885" data-name="Rectangle 20885" width="4.691" height="0.336" transform="translate(2.835 1.92)" fill="#d3e3f7"/>
    </g>
  </g>
  <g id="Group_46222" data-name="Group 46222" transform="translate(72.067 19.909)">
    <path id="Path_42688" data-name="Path 42688" d="M2128.038,663.009h-10.609V659.49h10.609Zm-10.361-.249h10.112v-3.022h-10.112Z" transform="translate(-2117.429 -659.49)" fill="#bad4f4"/>
  </g>
  <g id="Group_46226" data-name="Group 46226" transform="translate(52.526 16.311)">
    <path id="Path_42689" data-name="Path 42689" d="M1759.55,562.224a1.959,1.959,0,0,0-1.549-.166c-2.632-.309-3.4,2.76-3.364,3.816a4.387,4.387,0,0,1-1.019,3.562c-3.395,3.963,3.715,4.138,3.715,4.138.06-3.166,3.856-2.011,3.689-1.69C1765.887,573.051,1761.506,563.239,1759.55,562.224Z" transform="translate(-1746.615 -561.971)" fill="#163560"/>
    <path id="Path_42690" data-name="Path 42690" d="M1590.55,904.748s-.463-.7-.836-.718-1.064-.207-1.008-.069.483.152.525.235-.635.207-.829.221-.649,0-.636.1a2.2,2.2,0,0,0,1.392.442,3.867,3.867,0,0,1,1.275.166Z" transform="translate(-1587.766 -891.296)" fill="#ffb27d"/>
    <path id="Path_42691" data-name="Path 42691" d="M1662.582,785.911a6.944,6.944,0,0,1-.708,1.07,4.143,4.143,0,0,1-2.463,1.641,2.642,2.642,0,0,1-1.463-.237h0a6.672,6.672,0,0,1-2.265-1.894,1.063,1.063,0,0,1,.145-1.043,17.181,17.181,0,0,0,2.859.463c.249-.124,1.7-4.3,2.044-4.828s1.523-.8,1.523-.8Z" transform="translate(-1653.105 -772.231)" fill="#f9ddbf"/>
    <path id="Path_42692" data-name="Path 42692" d="M1722.978,925.669a4.143,4.143,0,0,1-2.463,1.642,2.641,2.641,0,0,1-1.463-.238,1.94,1.94,0,0,0,1.857-.755c.525-.94,1.093-2.432,1.873-1.934C1723.119,924.6,1723.1,925.133,1722.978,925.669Z" transform="translate(-1714.209 -910.919)" fill="#f2ccaa"/>
    <path id="Path_42693" data-name="Path 42693" d="M2033.318,1687.692s.8.727.641,1.244-.874.861-.971,1.492-.486.976-.835.976h-1.667s-.258-.444.364-.578.856-.876.818-1.565a12.115,12.115,0,0,1,.058-1.607l1.321-.306Z" transform="translate(-2014.101 -1645.829)" fill="#233862"/>
    <path id="Path_42694" data-name="Path 42694" d="M1807.392,1705.049s.287,3.08-.063,3.252l-4.476-.009s0-.517.719-.631,1.982-.536,2.2-1.473S1807.392,1705.049,1807.392,1705.049Z" transform="translate(-1794.918 -1662.877)" fill="#233862"/>
    <path id="Path_42695" data-name="Path 42695" d="M1815.734,717.1c-.921-2.066-1.485-2.659-1.377-3.3.08-.477-.244-8.9-.244-8.9-.109-.034-.328-.064-.448-.091a1.123,1.123,0,0,1-.821-.714,5.726,5.726,0,0,1-.278-1.9l-.118.023-1.984.393s.045.624.046,1.213v.015a1.141,1.141,0,0,1-.823,1.1l-.469.134a18.2,18.2,0,0,0-.868,4.216c-.139,2.137,1.325,3.065-.011,7.335C1806.976,721,1816.243,718.246,1815.734,717.1Z" transform="translate(-1800.07 -697.029)" fill="#ffb27d"/>
    <path id="Path_42696" data-name="Path 42696" d="M1869.5,703.226s.045.624.047,1.213a2.353,2.353,0,0,0,1.937-1.605Z" transform="translate(-1859.104 -697.636)" fill="#e8945b"/>
    <path id="Path_42697" data-name="Path 42697" d="M1836.611,612.873s2.627.043,2.628-1.593.342-2.732-1.335-2.829-2,.527-2.137,1.073S1835.928,612.819,1836.611,612.873Z" transform="translate(-1826.588 -606.726)" fill="#ffb27d"/>
    <path id="Path_42698" data-name="Path 42698" d="M1862.084,598.945s.719,1.92,1.823,2.2a2.173,2.173,0,0,0,1.582-.012,3.125,3.125,0,0,1-1.022-1.846S1862.627,598.031,1862.084,598.945Z" transform="translate(-1851.964 -597.26)" fill="#163560"/>
    <path id="Path_42699" data-name="Path 42699" d="M1832.2,603.679a1.629,1.629,0,0,0-.753.588,2.645,2.645,0,0,0-.355,1.5s-.542-1.3.067-2.043C1831.8,602.944,1832.2,603.679,1832.2,603.679Z" transform="translate(-1821.898 -601.839)" fill="#163560"/>
    <path id="Path_42700" data-name="Path 42700" d="M1850.177,698.671a.66.66,0,0,1-.544.221.483.483,0,0,1-.4-.267A1.763,1.763,0,0,1,1850.177,698.671Z" transform="translate(-1839.583 -693.539)" fill="#fff"/>
    <path id="Path_42701" data-name="Path 42701" d="M1807.493,779.225s-.01,1.246-.076,2.374a7.32,7.32,0,0,1-.221,1.692c-.269.622-.573.723-.573.723l-2.35.576-.826.2-2.606-.778s-1.187-3.313-.71-5.178a14.323,14.323,0,0,1,1.2-3.16s2.127,2.082,4.9-.177Z" transform="translate(-1792.186 -767.622)" fill="#f9ddbf"/>
    <path id="Path_42702" data-name="Path 42702" d="M1891.86,921.063a7.317,7.317,0,0,1-.22,1.693c-.269.622-.573.723-.573.723l-2.35.576-1.021-.3s3.407-.516,3.03-3.448Z" transform="translate(-1876.63 -907.086)" fill="#f2ccaa"/>
    <path id="Path_42703" data-name="Path 42703" d="M1790.918,1019.914a38.682,38.682,0,0,0-1.373,5.384c-.083,1.368,2.467,19.428,2.569,20.058.1.594.834.973.834.973a1.116,1.116,0,0,0,.823.063,2.037,2.037,0,0,0,.884-.417s1-12.88.383-17.482a72.826,72.826,0,0,1-.629-8.58Z" transform="translate(-1782.099 -1003.019)" fill="#ed7d2b"/>
    <path id="Path_42704" data-name="Path 42704" d="M1843.381,1016.668s1.969,2.641,2.152,4.427.288,8.057.679,9.8a35.242,35.242,0,0,1,1.828,10.519,1.083,1.083,0,0,1-.61.477,5.05,5.05,0,0,1-.537.148.844.844,0,0,1-.944-.448c-.971-1.955-4.065-8.262-4.223-9.571-.112-.927-1.089-7.058-3.22-10.656-.511-.864.314-4.3.314-4.3Z" transform="translate(-1829.094 -999.893)" fill="#f99746"/>
    <path id="Path_42705" data-name="Path 42705" d="M1819.323,1003.106a2.706,2.706,0,0,0,1.547.43c1.229.025,4.275-.313,4.275-.313a2.511,2.511,0,0,1,.13.777s-3.72.938-5.876.137A1.362,1.362,0,0,1,1819.323,1003.106Z" transform="translate(-1810.709 -986.831)" fill="#233862"/>
    <g id="Group_46223" data-name="Group 46223" transform="translate(9.305 16.495)">
      <path id="Path_42706" data-name="Path 42706" d="M1840.536,1010.343a.64.64,0,1,1,.561-.635A.6.6,0,0,1,1840.536,1010.343Zm0-1.084a.456.456,0,1,0,.375.449A.418.418,0,0,0,1840.536,1009.259Z" transform="translate(-1839.975 -1009.073)" fill="#fff"/>
    </g>
    <rect id="Rectangle_20886" data-name="Rectangle 20886" width="5.989" height="3.357" transform="translate(12.629 21.104) rotate(-12.167)" fill="#163560"/>
    <path id="Path_42707" data-name="Path 42707" d="M1930.094,1101.05a4.3,4.3,0,0,0,3.456.894,3.634,3.634,0,0,0,2.4-2.156Z" transform="translate(-1917.464 -1079.946)" fill="#17467f"/>
    <g id="Group_46224" data-name="Group 46224" transform="translate(13.123 20.564)">
      <path id="Path_42708" data-name="Path 42708" d="M1943.8,1120.016a.325.325,0,1,1,.325-.325A.326.326,0,0,1,1943.8,1120.016Zm0-.542a.217.217,0,1,0,.217.217A.217.217,0,0,0,1943.8,1119.474Z" transform="translate(-1943.477 -1119.366)" fill="#17467f"/>
    </g>
    <path id="Path_42709" data-name="Path 42709" d="M2081.47,1128.212a2.656,2.656,0,0,0,.093.7c.09.229.361.535.451.535s-.083-.478-.038-.468.263.8.42.815.3-.881.219-1.235a2.4,2.4,0,0,0-.44-.778Z" transform="translate(-2063.256 -1106.911)" fill="#ffb27d"/>
    <path id="Path_42710" data-name="Path 42710" d="M1936.152,775.5a3.2,3.2,0,0,1,2.235,1.738c.6,1.191,1.019,4.936,1.445,6.116a37.034,37.034,0,0,1,1.286,5.059.29.29,0,0,1-.178.32l-.535.212a.253.253,0,0,1-.31-.105,43.851,43.851,0,0,1-3-5.837,9.653,9.653,0,0,0-2.182-3.5Z" transform="translate(-1922.109 -767.627)" fill="#f9ddbf"/>
    <g id="Group_46225" data-name="Group 46225" transform="translate(13.056 7.878)">
      <path id="Path_42711" data-name="Path 42711" d="M1941.953,788.259c0-.054-.341-5.395-.276-8.4a12.512,12.512,0,0,1,.476-3.342,2.413,2.413,0,0,1,.548-1.02l.11.033a8.634,8.634,0,0,0-.969,4.333c-.065,3,.273,8.33.276,8.384Z" transform="translate(-1941.668 -775.5)" fill="#0c2442"/>
    </g>
  </g>
  <g id="Group_46228" data-name="Group 46228" transform="translate(33.27 11.975)">
    <path id="Path_42712" data-name="Path 42712" d="M1193.548,1748.641h2.76a6.689,6.689,0,0,0-.22-.991,2.811,2.811,0,0,0-.156-.4c-.268-.536-1.974-.2-1.974-.2a1.314,1.314,0,0,0-.282.654A5.473,5.473,0,0,0,1193.548,1748.641Z" transform="translate(-1188.836 -1698.896)" fill="#233862"/>
    <path id="Path_42713" data-name="Path 42713" d="M1322.842,649.828s2.2.386,2.7,1.685,3.307,22.271,3.307,22.271-1.391,1.1-4.377.707S1322.842,649.828,1322.842,649.828Z" transform="translate(-1313.063 -642.25)" fill="#91cecf"/>
    <path id="Path_42714" data-name="Path 42714" d="M1419.628,1718.438a1.5,1.5,0,0,0,.191.871h5.46a.943.943,0,0,0-.827-.586,4.139,4.139,0,0,1-2.21-1.022,1.647,1.647,0,0,1-.428-.775c-.257-1.144-2.124.35-2.124.35A9.247,9.247,0,0,0,1419.628,1718.438Z" transform="translate(-1406.574 -1669.565)" fill="#233862"/>
    <path id="Path_42715" data-name="Path 42715" d="M1255.544,1082.262c-.61.195-1.776.789-2.517.509-.479-.18-3.155-7.922-3.329-11.308a8.668,8.668,0,0,0-.137-1.009c-.158-.874-.436-2.075-.755-3.4-.856-3.551-2.015-7.993-1.99-9.412.039-2.2,6.567-.462,6.567-.462a23.575,23.575,0,0,1,.539,4.425c.177,5.195.665,13.969,1.99,20.063A.523.523,0,0,1,1255.544,1082.262Z" transform="translate(-1240.138 -1033.944)" fill="#204f74"/>
    <path id="Path_42716" data-name="Path 42716" d="M1169.425,1066.193l-3.451,25.012a6.75,6.75,0,0,1-2.694.073s-1.01-13.3-.927-16.518-.725-8.605.185-9.2S1169.425,1066.193,1169.425,1066.193Z" transform="translate(-1158.55 -1042.488)" fill="#204f74"/>
    <path id="Path_42717" data-name="Path 42717" d="M1162.1,642.059s3.626-2.345,6.228-1.146a4.876,4.876,0,0,1,1.226,1.1c.94,1.036,2.778,17.494,2.778,17.494a15.039,15.039,0,0,1-10.231-.6Z" transform="translate(-1158.55 -633.336)" fill="#fff"/>
    <path id="Path_42718" data-name="Path 42718" d="M1336.5,648.215s3.671,1.5,4.169,2.661a70.6,70.6,0,0,1,2.113,9.088c0,.833-2.814.186-3.267-1.157-.376-1.115-1.645-4.54-2.314-6.707Z" transform="translate(-1326.518 -640.697)" fill="#abddda"/>
    <g id="Group_46227" data-name="Group 46227" transform="translate(4.78)">
      <path id="Path_42719" data-name="Path 42719" d="M1241.674,593.662a4.13,4.13,0,0,1-2.841-.579,8.171,8.171,0,0,0,.606-2.138q0-.038.008-.073a2.185,2.185,0,0,0,.01-.49h2.072s.567.259.567.438q0,.144,0,.275c0,.238.014.446.026.625a5.692,5.692,0,0,0,.106.855S1242.483,593.5,1241.674,593.662Z" transform="translate(-1237.231 -584.997)" fill="#ffb27d"/>
      <path id="Path_42720" data-name="Path 42720" d="M1256.783,601.692a2.863,2.863,0,0,1-2.685-.775c-.029-.031-.044-.05-.044-.05.017-.008.034-.016.052-.023a4.863,4.863,0,0,1,2.651.223C1256.761,601.3,1256.771,601.513,1256.783,601.692Z" transform="translate(-1251.89 -594.969)" fill="#e2915a"/>
      <path id="Path_42721" data-name="Path 42721" d="M1231.034,481.886c.281,1.51,2.229,1.46,3.071,1.365.237-.026.386-.057.386-.057.267-.071.416-.492.485-1.043a8.585,8.585,0,0,0-.221-3.1c-.277-.616-.8-1.283-2.761-.8S1230.675,479.952,1231.034,481.886Z" transform="translate(-1229.34 -476.842)" fill="#ffb27d"/>
      <path id="Path_42722" data-name="Path 42722" d="M1200.894,445.789a4.487,4.487,0,0,0-1.353-1.1,3.271,3.271,0,0,0-2.535.021c-1.6.7-2.021,1.931-1.172,3.84.9,2.019,1.754,1.792,1.754,1.792s-.182-.113-.165-.742c0-.036,0-.066,0-.091a.423.423,0,0,0-.134-.344c-.2-.178-.3-.715-.129-.865.2-.18.484.039.574.207a.246.246,0,0,0,.352.078c.5-.315.175-.946.651-1.332s1.444-.062,2.159-.369C1201.835,446.531,1201.1,446.069,1200.894,445.789Z" transform="translate(-1195.404 -444.423)" fill="#233862"/>
    </g>
    <path id="Path_42723" data-name="Path 42723" d="M1142.011,673.928c-.316.081-.628.148-.939.2-.275.047-.548.082-.822.1a13.364,13.364,0,0,1-4.933-.606q-.615-.176-1.274-.4c-.047-.016.12-4.834.312-9.8.02-.513.04-1.028.06-1.54.009-.217.017-.432.026-.647.174-4.4.347-8.366.384-8.579.083-.484.161-.9.246-1.253a3.175,3.175,0,0,1,1.229-2.1c.065-.05.6-.321,1.077-.557.393-.2.742-.366.742-.366h0a2.074,2.074,0,0,1,.54.937,33.865,33.865,0,0,1,1.022,3.405v.005h0c.175.684.3,1.217.335,1.37.06.258.14.758.234,1.436.128.922.28,2.174.442,3.594.017.146.033.294.05.443q.029.255.058.517c.006.056.012.112.018.168.062.562.125,1.143.187,1.733.052.488.792.84.843,1.336.029.291.091,2.979.17,3.837C1142.074,667.773,1142.034,673.64,1142.011,673.928Z" transform="translate(-1131.518 -640.853)" fill="#abddda"/>
    <path id="Path_42724" data-name="Path 42724" d="M1151.543,812.393c0,.01-.126,4.445,3.21,4.984s1.119.681,1.119.681-6.277-.267-6.38-.433S1151.543,812.393,1151.543,812.393Z" transform="translate(-1146.402 -798.817)" fill="#91cecf"/>
    <path id="Path_42725" data-name="Path 42725" d="M1127.807,975.643s-.063.044-.183.122l-.006,0a15.663,15.663,0,0,1-4.219,1.8q-.346.094-.715.177c.019-.513.04-1.028.06-1.54a6.444,6.444,0,0,1-.827-.114c.009-.067.018-.135.026-.2.28-.115.558-.225.826-.33.219-.085.43-.167.63-.242.9-.343,1.573-.576,1.573-.576l2.674.847Z" transform="translate(-1119.848 -955.18)" fill="#91cecf"/>
    <path id="Path_42726" data-name="Path 42726" d="M1074.5,661.242s-.344.086-.891.2h-.006a21.921,21.921,0,0,1-4.219.472c-.224,0-.443-.011-.656-.028a6.445,6.445,0,0,1-.827-.114,2.573,2.573,0,0,1-1.321-.624c-2.253-2.295,1.23-10.532,1.962-11.333a5.65,5.65,0,0,1,3.277-1.377l.1-.013c.3-.036.5-.044.508-.044h0s-.067.217-.181.586c-.044.143-.095.308-.151.492-.529,1.733-1.55,5.139-2,7.06a4.873,4.873,0,0,0-.213,1.357c.176.656,2,.993,3.149,1.143.481.062.846.092.928.1h.017l.067.273.16.656.157.644Z" transform="translate(-1065.829 -640.853)" fill="#abddda"/>
    <path id="Path_42727" data-name="Path 42727" d="M1269.084,843.828l-7.738-.326,1.57-9.644,7.738.326Z" transform="translate(-1254.132 -819.49)" fill="#233862"/>
    <path id="Path_42728" data-name="Path 42728" d="M1275.472,939.024s1.506-.105,1.582.246c.176.818-1.3,1.491-1.771,1.445S1275.125,938.969,1275.472,939.024Z" transform="translate(-1267.323 -920.762)" fill="#ffb27d"/>
    <path id="Path_42729" data-name="Path 42729" d="M1458.869,889.413s-1.441-.451-1.6-.127c-.361.755.915,1.75,1.39,1.815S1459.219,889.44,1458.869,889.413Z" transform="translate(-1442.771 -872.761)" fill="#ffb27d"/>
    <path id="Path_42730" data-name="Path 42730" d="M1224.115,635.252a2.811,2.811,0,0,0-.951.758s2.369,4.113,2.358,4.074S1224.721,635.779,1224.115,635.252Z" transform="translate(-1217.359 -628.212)" fill="#91cecf"/>
    <path id="Path_42731" data-name="Path 42731" d="M1328.925,636.824a1.806,1.806,0,0,1,.7.715l.281,3.591s-.6-2.635-.907-3.826A2.024,2.024,0,0,1,1328.925,636.824Z" transform="translate(-1319.219 -629.726)" fill="#91cecf"/>
    <path id="Path_42732" data-name="Path 42732" d="M1373.433,830.548a.351.351,0,0,1,.413-.237c.352.031,2.331.128,2.331.128s.382-.006.346.238Z" transform="translate(-1362.085 -816.072)" fill="#c65447"/>
    <path id="Path_42733" data-name="Path 42733" d="M1311.905,584.827a.826.826,0,0,0,.671.162c.246-.043.383-.363.383-.363A1.854,1.854,0,0,0,1311.905,584.827Z" transform="translate(-1302.826 -579.442)" fill="#fff"/>
  </g>
  <rect id="Rectangle_20887" data-name="Rectangle 20887" width="102.935" height="0.334" rx="0.167" transform="translate(1.184 61.719)" fill="#2e3552"/>
</svg>
