<svg xmlns="http://www.w3.org/2000/svg" width="431.968" height="340.289" viewBox="0 0 431.968 340.289">
  <g id="Group_48351" data-name="Group 48351" transform="translate(-35.829 -50.072)">
    <g id="OBJECTS" transform="translate(35.829 50.072)">
      <path id="Path_47564" data-name="Path 47564" d="M135.06,383.53S62.8,365.7,69.813,305.466s24.554-62.061,25.172-79.151,4.448-77.235,44.672-84.514,44.154-12.641,57.7-28.348,74.462-31.03,104.342-1.915,45.2,59.761,63.593,65.89,31.03,42.708,21.836,66.75-2.809,40.069,8.045,65.8-6.13,75.851-47.886,77.766l-41.756,1.915Z" transform="translate(-37.407 -52.193)" fill="#f1f8fe"/>
      <g id="Group_48245" data-name="Group 48245" transform="translate(28.35 93.404)">
        <g id="Group_48219" data-name="Group 48219" transform="translate(332.744 170.706)">
          <path id="Path_47565" data-name="Path 47565" d="M429.874,350.724c-4.514,3.057-8.226,5.138-11.186,6.945l-3.916,21.675,7.819-4.532s1.133-.654,2.936-1.885c11.867-8.1,17.282-16.526,17.282-16.526,3.264-5,9.035-13.852,6.1-22.778a17.481,17.481,0,0,0-3.829-6.386,95.438,95.438,0,0,1-7.2,15.248,22.766,22.766,0,0,1-5.408,6.432C432,349.288,431.289,349.765,429.874,350.724Z" transform="translate(-414.771 -327.236)" fill="#2cbf7b"/>
        </g>
        <g id="Group_48220" data-name="Group 48220" transform="translate(334.186 194.194)">
          <path id="Path_47566" data-name="Path 47566" d="M416.284,372.528a19.465,19.465,0,0,0,9.313,1.56c4.117-2.809,11.721-8.626,17.282-16.526-2.126-.7-4.4-1.2-5.921-1.8a32.189,32.189,0,0,1-7.012-3.873c-4.514,3.057-8.226,5.138-11.186,6.945Z" transform="translate(-416.284 -351.885)" fill="#2da66d"/>
        </g>
        <g id="Group_48221" data-name="Group 48221" transform="translate(196.243 32.92)">
          <path id="Path_47567" data-name="Path 47567" d="M271.58,228.124c-.4,9.395,1.307,17.2,4.469,22.388l13.1,5.494a12.028,12.028,0,0,0,2.042-3.1c5.621-11.589,6.535-41.5,6.535-41.5a75.36,75.36,0,0,0-3.948-12.472c-2.217-5.39-5.483-11.535-10.073-16.291-.325-.335-8.666,18.322-11.508,38.728Q271.714,224.862,271.58,228.124Z" transform="translate(-271.523 -182.639)" fill="#2cbf7b"/>
        </g>
        <g id="Group_48222" data-name="Group 48222" transform="translate(196.243 32.927)">
          <path id="Path_47568" data-name="Path 47568" d="M282.4,221.446l-.02.034a14.808,14.808,0,0,1-3.716,4.577,12.9,12.9,0,0,1-7.079,2.067c-.4,9.395,1.307,17.2,4.469,22.387l10.771,4.517a24.021,24.021,0,0,0,4.374-2.124c5.621-11.589,6.535-41.5,6.535-41.5a75.361,75.361,0,0,0-3.948-12.472q-2.89,5.895-5.778,11.79l-.483.984c-.258-5.527-1.159-19.906-3.811-29.063.033.3,1.991,17.48,1,31.349A17.031,17.031,0,0,1,282.4,221.446Z" transform="translate(-271.523 -182.647)" fill="#2da66d"/>
        </g>
        <g id="Group_48224" data-name="Group 48224" transform="translate(205.704 37.188)">
          <g id="Group_48223" data-name="Group 48223">
            <path id="Path_47569" data-name="Path 47569" d="M285.518,187.118l-.528.116c5.716,25.819,4.526,48.161-3.538,66.4l.495.218a87.889,87.889,0,0,0,7.069-33.034A137.774,137.774,0,0,0,285.518,187.118Z" transform="translate(-281.452 -187.118)" fill="#027369"/>
          </g>
        </g>
        <g id="Group_48225" data-name="Group 48225" transform="translate(212.22 41.543)">
          <path id="Path_47570" data-name="Path 47570" d="M289.629,237.738q-.234.916-.421,1.778a35.544,35.544,0,0,0-.917,7.821l9.318,6.653,25.914-17.58a47.453,47.453,0,0,0,1.426-6.534c.044-.282.088-.574.129-.871,1.185-8.386,1.484-22.62-6.354-35.929-.256-.434-.521-.868-.8-1.3v0c-.609-.963-11.936,5.905-23.893,33.463A83.359,83.359,0,0,0,289.629,237.738Z" transform="translate(-288.29 -191.689)" fill="#2cbf7b"/>
        </g>
        <g id="Group_48226" data-name="Group 48226" transform="translate(212.22 41.631)">
          <path id="Path_47571" data-name="Path 47571" d="M298.6,237q-4.245.55-8.488.728c-.161.007-.321.013-.482.018q-.234.916-.421,1.778a35.544,35.544,0,0,0-.917,7.821L297.609,254l25.914-17.58a47.454,47.454,0,0,0,1.426-6.534c.044-.282.088-.574.129-.871q-1.152.708-2.371,1.338a55.351,55.351,0,0,1-11.294,4.133c-.319.084-.639.168-.961.247,1.6-5.9,7.26-27.515,8.271-41.647-.256-.434-.521-.868-.8-1.3-.039.222-4.41,24.733-11.233,39.324A10.4,10.4,0,0,1,298.6,237Z" transform="translate(-288.29 -191.781)" fill="#2da66d"/>
        </g>
        <g id="Group_48228" data-name="Group 48228" transform="translate(228.39 44.056)">
          <g id="Group_48227" data-name="Group 48227">
            <path id="Path_47572" data-name="Path 47572" d="M319.354,194.346l-.54-.02a132.168,132.168,0,0,1-13.555,53.392l.485.24a133.618,133.618,0,0,0,13.61-53.612Z" transform="translate(-305.259 -194.326)" fill="#027369"/>
          </g>
        </g>
        <g id="Group_48229" data-name="Group 48229" transform="translate(339.222 181.616)">
          <path id="Path_47573" data-name="Path 47573" d="M449.408,354.235c-8,3.25-13.084,10.91-17.421,18.774a126.649,126.649,0,0,0-8.581,18.675c-.013.037-.028.075-.039.113a44.475,44.475,0,0,0-1.8,6.854h28.495A86.756,86.756,0,0,0,456.647,391q.575-.752,1.133-1.518.966-1.324,1.882-2.683.6-.889,1.178-1.79c8.454-13.2,13.609-28.8,15.981-46.321A114.233,114.233,0,0,1,449.408,354.235Z" transform="translate(-421.569 -338.685)" fill="#2cbf7b"/>
        </g>
        <g id="Group_48230" data-name="Group 48230" transform="translate(346.407 183.72)">
          <path id="Path_47574" data-name="Path 47574" d="M433.777,391.465c-1.77,2.712-3.341,5.178-4.668,7.291h21.307c2.134-2.226,3.994-4.635,5.971-6.976.2-.231.4-.458.616-.679q.575-.752,1.133-1.518.966-1.324,1.882-2.683a31.635,31.635,0,0,1-9.783,2.439l-.1.009c-3.462.28-5.923-.908-5.632-4.651.215-2.745,1.632-5.47,3.005-7.748,2.84-4.716,6.685-9.08,10.095-13.4q4.591-5.816,9.374-11.478c3.184-3.777,6.4-7.53,9.731-11.18C463.261,348.473,444.769,374.613,433.777,391.465Z" transform="translate(-429.109 -340.893)" fill="#2da66d"/>
        </g>
        <g id="Group_48232" data-name="Group 48232" transform="translate(339.222 234.293)">
          <g id="Group_48231" data-name="Group 48231">
            <path id="Path_47575" data-name="Path 47575" d="M428.754,401.256c1.327-2.113,2.9-4.579,4.668-7.291a96.518,96.518,0,0,1-10.016.323c-.013.037-.028.075-.039.113a44.474,44.474,0,0,0-1.8,6.854Z" transform="translate(-421.569 -393.965)" fill="#2da66d"/>
          </g>
        </g>
        <g id="Group_48234" data-name="Group 48234" transform="translate(333.536 179.578)">
          <g id="Group_48233" data-name="Group 48233">
            <path id="Path_47576" data-name="Path 47576" d="M415.716,370.147l-.114.632c9.444-3.871,19.525-8.958,25.6-17.529,3.045-4.293,5.2-9.563,6.772-16.586l-.527-.118c-1.559,6.951-3.684,12.159-6.687,16.392C434.836,361.3,425,366.32,415.716,370.147Z" transform="translate(-415.602 -336.546)" fill="#027369"/>
          </g>
        </g>
        <g id="Group_48236" data-name="Group 48236" transform="translate(347.214 183.313)">
          <g id="Group_48235" data-name="Group 48235">
            <path id="Path_47577" data-name="Path 47577" d="M476.388,340.466c-15,13.209-39.938,45.129-46.432,58.27h.6c10.07-20.284,25.526-39.67,46.186-57.864Z" transform="translate(-429.956 -340.466)" fill="#027369"/>
          </g>
        </g>
        <g id="Group_48237" data-name="Group 48237" transform="translate(0 23.966)">
          <path id="Path_47578" data-name="Path 47578" d="M100.012,206.915c8.1,4.773,15.791,6.942,21.857,6.594l11.015-8.974a12.022,12.022,0,0,0-1.775-3.262c-7.58-10.414-33.539-25.3-33.539-25.3a75.329,75.329,0,0,0-12.861-2.387c-5.8-.579-12.758-.591-19.115,1.221-.449.129,12.088,16.269,28.754,28.381Q97.2,205.262,100.012,206.915Z" transform="translate(-65.581 -173.242)" fill="#2cbf7b"/>
        </g>
        <g id="Group_48238" data-name="Group 48238" transform="translate(0.015 24.312)">
          <path id="Path_47579" data-name="Path 47579" d="M99.212,194.247l.021.033a14.818,14.818,0,0,1,2.289,5.433,12.892,12.892,0,0,1-1.508,7.218c8.1,4.773,15.791,6.942,21.857,6.594l9.055-7.378a24.014,24.014,0,0,0,.184-4.858c-7.58-10.414-33.539-25.3-33.539-25.3a75.33,75.33,0,0,0-12.861-2.387q3.841,5.324,7.682,10.647.32.446.641.89c-5-2.373-18.109-8.346-27.436-10.315.276.11,16.359,6.47,28.13,13.873A17.024,17.024,0,0,1,99.212,194.247Z" transform="translate(-65.596 -173.606)" fill="#2da66d"/>
        </g>
        <g id="Group_48240" data-name="Group 48240" transform="translate(4.26 26.354)">
          <g id="Group_48239" data-name="Group 48239">
            <path id="Path_47580" data-name="Path 47580" d="M70.2,175.749l-.145.521c25.471,7.108,44.623,18.673,56.924,34.375l.426-.333a87.884,87.884,0,0,0-25.82-21.784A137.774,137.774,0,0,0,70.2,175.749Z" transform="translate(-70.051 -175.749)" fill="#027369"/>
          </g>
        </g>
        <g id="Group_48241" data-name="Group 48241" transform="translate(23.087)">
          <path id="Path_47581" data-name="Path 47581" d="M117.383,194.827q.7.637,1.371,1.208a35.475,35.475,0,0,0,6.469,4.489l10.255-5.09L132.164,164.3a47.436,47.436,0,0,0-5.092-4.334q-.343-.257-.708-.524c-6.842-4.992-19.26-11.954-34.691-11.3q-.756.033-1.522.09h0c-1.137.084-.407,13.311,18.28,36.831A83.541,83.541,0,0,0,117.383,194.827Z" transform="translate(-89.809 -148.092)" fill="#2cbf7b"/>
        </g>
        <g id="Group_48242" data-name="Group 48242" transform="translate(23.428 0.043)">
          <path id="Path_47582" data-name="Path 47582" d="M120.964,186.564q-1.512,4-3.352,7.831-.1.217-.212.435.7.638,1.371,1.208a35.474,35.474,0,0,0,6.469,4.489l10.255-5.09L132.18,164.3a47.438,47.438,0,0,0-5.092-4.334q-.343-.257-.708-.524.081,1.349.064,2.722a55.291,55.291,0,0,1-1.669,11.909c-.076.321-.153.643-.234.963-4.454-4.19-20.86-19.355-32.852-26.9q-.756.033-1.522.09c.177.14,19.747,15.532,29.41,28.419A10.4,10.4,0,0,1,120.964,186.564Z" transform="translate(-90.167 -148.137)" fill="#2da66d"/>
        </g>
        <g id="Group_48244" data-name="Group 48244" transform="translate(25.609 0.731)">
          <g id="Group_48243" data-name="Group 48243">
            <path id="Path_47583" data-name="Path 47583" d="M92.727,148.86l-.272.467a132.165,132.165,0,0,1,40.729,37.089l.44-.314a133.593,133.593,0,0,0-40.9-37.241Z" transform="translate(-92.455 -148.86)" fill="#027369"/>
          </g>
        </g>
      </g>
      <g id="Group_48247" data-name="Group 48247" transform="translate(141.494 119.374)">
        <path id="Path_47584" data-name="Path 47584" d="M184.317,362.389v6.531a30.6,30.6,0,0,0,30.538,30.52h91.761V362.389Z" transform="translate(-184.317 -184.155)" fill="#ff9ca9" fill-rule="evenodd"/>
        <path id="Path_47585" data-name="Path 47585" d="M312.66,399.44h91.795a30.594,30.594,0,0,0,30.507-30.52v-6.531H312.66Z" transform="translate(-190.362 -184.155)" fill="#ff9ca9" fill-rule="evenodd"/>
        <path id="Path_47586" data-name="Path 47586" d="M306.615,221.111h-40.86v-.07H249.387v.07H214.855c-16.819,0-30.538,11.617-30.538,28.406v10.829h122.3Z" transform="translate(-183.342 -177.498)" fill="#ff9ca9" fill-rule="evenodd"/>
        <path id="Path_47587" data-name="Path 47587" d="M404.455,221.114H312.66v39.235h122.3V249.52C434.962,232.73,421.244,221.115,404.455,221.114Z" transform="translate(-189.387 -177.502)" fill="#ff9ca9" fill-rule="evenodd"/>
        <path id="Path_47588" data-name="Path 47588" d="M306.616,340.816H296.8V321.165H277.152V296.613H296.8V276.977h9.82V262.288h-122.3v95.387h122.3Z" transform="translate(-184.317 -179.441)" fill="#fcd3d6" fill-rule="evenodd"/>
        <path id="Path_47589" data-name="Path 47589" d="M312.66,276.977h9.824v19.637h19.644v24.552H322.476v19.651H312.66v16.858h122.3V262.288H312.66Z" transform="translate(-190.362 -179.441)" fill="#fcd3d6" fill-rule="evenodd"/>
        <g id="Group_48246" data-name="Group 48246" transform="translate(93.81 97.536)">
          <path id="Path_47590" data-name="Path 47590" d="M301.384,297.34H281.741v24.552h19.644v19.651h9.82V277.7h-9.82Z" transform="translate(-281.741 -277.703)" fill="#ff9ca9" fill-rule="evenodd"/>
          <path id="Path_47591" data-name="Path 47591" d="M322.476,341.542V321.891h19.652V297.34H322.484V277.7H312.66v63.839Z" transform="translate(-283.197 -277.703)" fill="#ff9ca9" fill-rule="evenodd"/>
        </g>
        <path id="Path_47592" data-name="Path 47592" d="M278.634,217.28a3.679,3.679,0,0,1-3.676,3.681H260.533a3.676,3.676,0,1,1,0-7.353h14.425A3.677,3.677,0,0,1,278.634,217.28Z" transform="translate(-187.733 -177.148)" fill="#d2f3f7" fill-rule="evenodd"/>
        <path id="Path_47593" data-name="Path 47593" d="M367.17,217.28a3.68,3.68,0,0,1-3.672,3.681H349.068a3.676,3.676,0,0,1,0-7.353H363.5A3.676,3.676,0,0,1,367.17,217.28Z" transform="translate(-191.903 -177.148)" fill="#d2f3f7" fill-rule="evenodd"/>
        <rect id="Rectangle_21279" data-name="Rectangle 21279" width="7.526" height="16.435" transform="translate(76.249 22.396)" fill="#d2f3f7"/>
        <rect id="Rectangle_21280" data-name="Rectangle 21280" width="7.521" height="16.435" transform="translate(160.615 22.396)" fill="#d2f3f7"/>
        <path id="Path_47594" data-name="Path 47594" d="M261.645,199.3s4.539-23.955,49.145-23.955S360.823,199.3,360.823,199.3H344.94s-2.23-14.344-33.7-14.344S277.527,199.3,277.527,199.3Z" transform="translate(-187.959 -175.346)" fill="#d2f3f7" fill-rule="evenodd"/>
        <path id="Path_47595" data-name="Path 47595" d="M486.273,354.247l2.739-.375-2.744.375Z" transform="translate(-198.538 -183.754)" fill-rule="evenodd"/>
      </g>
      <g id="Group_48258" data-name="Group 48258" transform="translate(64.995 87.142)">
        <path id="Path_47596" data-name="Path 47596" d="M269.284,164.208V395.736H104.036V164.208H269.284Z" transform="translate(-104.036 -142.59)" fill="#a5c8e4"/>
        <rect id="Rectangle_21281" data-name="Rectangle 21281" width="150.072" height="215.096" transform="translate(7.129 29.713)" fill="#fff"/>
        <g id="Group_48248" data-name="Group 48248" transform="translate(51.514)">
          <path id="Path_47597" data-name="Path 47597" d="M191.318,141.521h0a8.774,8.774,0,0,0-8.773,8.774v24.2h17.548V150.3A8.774,8.774,0,0,0,191.318,141.521Zm0,12.1a4.337,4.337,0,1,1,4.337-4.337A4.337,4.337,0,0,1,191.318,153.624Z" transform="translate(-159.248 -141.521)" fill="#293f60"/>
          <path id="Path_47598" data-name="Path 47598" d="M221.309,162.666v11.2a2.936,2.936,0,0,1-3.034,2.826H161.131a2.936,2.936,0,0,1-3.034-2.826v-11.2a2.937,2.937,0,0,1,3.034-2.826h57.144A2.937,2.937,0,0,1,221.309,162.666Z" transform="translate(-158.097 -142.384)" fill="#293f60"/>
        </g>
        <g id="Group_48257" data-name="Group 48257" transform="translate(42.351 113.902)">
          <g id="Group_48249" data-name="Group 48249">
            <rect id="Rectangle_21282" data-name="Rectangle 21282" width="79.063" height="2.267" fill="#d1eaf3"/>
            <rect id="Rectangle_21283" data-name="Rectangle 21283" width="79.063" height="2.267" transform="translate(0 7.256)" fill="#d1eaf3"/>
            <rect id="Rectangle_21284" data-name="Rectangle 21284" width="79.063" height="2.267" transform="translate(0 14.512)" fill="#d1eaf3"/>
          </g>
          <g id="Group_48250" data-name="Group 48250" transform="translate(0 29.881)">
            <rect id="Rectangle_21285" data-name="Rectangle 21285" width="79.063" height="2.267" fill="#d1eaf3"/>
            <rect id="Rectangle_21286" data-name="Rectangle 21286" width="79.063" height="2.267" transform="translate(0 7.256)" fill="#d1eaf3"/>
            <rect id="Rectangle_21287" data-name="Rectangle 21287" width="79.063" height="2.267" transform="translate(0 14.512)" fill="#d1eaf3"/>
          </g>
          <g id="Group_48251" data-name="Group 48251" transform="translate(0 60.584)">
            <rect id="Rectangle_21288" data-name="Rectangle 21288" width="79.063" height="2.267" fill="#d1eaf3"/>
            <rect id="Rectangle_21289" data-name="Rectangle 21289" width="79.063" height="2.267" transform="translate(0 7.256)" fill="#d1eaf3"/>
            <rect id="Rectangle_21290" data-name="Rectangle 21290" width="79.063" height="2.267" transform="translate(0 14.512)" fill="#d1eaf3"/>
          </g>
          <g id="Group_48252" data-name="Group 48252" transform="translate(62.458 81.578)">
            <path id="Path_47599" data-name="Path 47599" d="M233.7,372.571a13.655,13.655,0,1,1,6.229-18.279A13.671,13.671,0,0,1,233.7,372.571Zm-11.61-23.614a12.658,12.658,0,1,0,16.945,5.775A12.672,12.672,0,0,0,222.094,348.958Z" transform="translate(-214.025 -346.663)" fill="#d1eaf3"/>
          </g>
          <g id="Group_48253" data-name="Group 48253" transform="translate(65.388 84.509)">
            <path id="Path_47600" data-name="Path 47600" d="M232.555,370.086a10.724,10.724,0,1,1,4.893-14.355A10.737,10.737,0,0,1,232.555,370.086Zm-9.023-18.354a9.728,9.728,0,1,0,13.021,4.438A9.739,9.739,0,0,0,223.532,351.732Z" transform="translate(-217.1 -349.738)" fill="#d1eaf3"/>
          </g>
          <g id="Group_48254" data-name="Group 48254" transform="translate(70.244 91.937)">
            <path id="Path_47601" data-name="Path 47601" d="M233.894,358.574l-10.908,5.362a.547.547,0,0,1-.483-.982l10.908-5.363a.548.548,0,0,1,.483.983Z" transform="translate(-222.197 -357.534)" fill="#d1eaf3"/>
          </g>
          <g id="Group_48255" data-name="Group 48255" transform="translate(70.175 90.3)">
            <path id="Path_47602" data-name="Path 47602" d="M231.877,356.762l-9.034,4.441a.5.5,0,0,1-.44-.895l9.034-4.441a.5.5,0,0,1,.44.895Z" transform="translate(-222.124 -355.816)" fill="#d1eaf3"/>
          </g>
          <g id="Group_48256" data-name="Group 48256" transform="translate(73.085 94.875)">
            <path id="Path_47603" data-name="Path 47603" d="M233.183,361.471l-7.357,3.618a.45.45,0,0,1-.4-.808l7.358-3.617a.45.45,0,1,1,.4.807Z" transform="translate(-225.177 -360.618)" fill="#d1eaf3"/>
          </g>
        </g>
      </g>
      <g id="Group_48260" data-name="Group 48260" transform="translate(24.541 185.386)">
        <g id="Group_48259" data-name="Group 48259">
          <path id="Path_47604" data-name="Path 47604" d="M83.2,253.114a9.7,9.7,0,0,0-3.918,7.468c-.459,13.419-2.257,37.08-9.074,44.743a1.528,1.528,0,0,0,.125,2.16,1.518,1.518,0,0,0,2.163-.123c7.08-7.962,9.263-29.776,9.846-46.676a6.645,6.645,0,0,1,8.35-6.2,1.507,1.507,0,0,0,.854-.03l.526-2.073a2.36,2.36,0,0,1,.144-.409,1.494,1.494,0,0,0-.737-.448A9.671,9.671,0,0,0,83.2,253.114Z" transform="translate(-61.971 -244.93)" fill="#a5c8e4"/>
          <path id="Path_47605" data-name="Path 47605" d="M95.182,250.731a2.254,2.254,0,0,0-2.593,1.223,2.361,2.361,0,0,0-.144.409l-.526,2.073L77.678,310.705l0,0,12.181,3.085,14.769-58.347A2.255,2.255,0,0,0,103,252.711l-1.285-.325-5.247-1.33Z" transform="translate(-62.341 -244.905)" fill="#72a2ba"/>
          <path id="Path_47606" data-name="Path 47606" d="M98.955,244.62,97.4,250.771l5.247,1.331,0,0,1.556-6.153Z" transform="translate(-63.27 -244.62)" fill="#a5c8e4"/>
          <path id="Path_47607" data-name="Path 47607" d="M77.6,313.673,76.078,319.7l0,0,12.179,3.087,1.527-6.034-12.181-3.084Z" transform="translate(-62.266 -247.872)" fill="#a5c8e4"/>
          <path id="Path_47608" data-name="Path 47608" d="M75.4,320l0,0L63.455,367.177a61,61,0,0,0-1.864,14.936v1.193a9.791,9.791,0,0,1,7.979,2.084l.6-1.1a60.782,60.782,0,0,0,5.466-14.025l11.942-47.17Z" transform="translate(-61.583 -248.171)" fill="#72a2ba"/>
          <path id="Path_47609" data-name="Path 47609" d="M61.591,386.429l-.008,13.381a.882.882,0,0,0,1.658.419l5.849-10.822.479-.894A9.791,9.791,0,0,0,61.591,386.429Z" transform="translate(-61.583 -251.294)" fill="#a5c8e4"/>
        </g>
      </g>
      <g id="Group_48263" data-name="Group 48263" transform="translate(124.015 136.982)">
        <g id="Group_48262" data-name="Group 48262" transform="translate(0)">
          <path id="Path_47610" data-name="Path 47610" d="M201.734,193.911a64.039,64.039,0,0,1-32.342.006,2.735,2.735,0,0,0-3.418,2.647v29.977a11.151,11.151,0,0,0,.831,4.266c2.478,5.991,8.469,12.138,17.816,17.428,9.449-4.931,15.206-10.007,19.1-17a11.308,11.308,0,0,0,1.416-5.5v-29.17A2.732,2.732,0,0,0,201.734,193.911Z" transform="translate(-165.974 -193.825)" fill="#72a2ba"/>
          <path id="Path_47611" data-name="Path 47611" d="M199.169,198.69a53.249,53.249,0,0,1-26.888,0,2.274,2.274,0,0,0-2.842,2.2V225.82a9.273,9.273,0,0,0,.691,3.548c2.06,4.98,6.787,9.915,14.558,14.313,7.856-4.1,12.9-8.143,16.132-13.961A9.4,9.4,0,0,0,202,225.15V200.9A2.272,2.272,0,0,0,199.169,198.69Z" transform="translate(-166.137 -194.05)" fill="#b2dcf7"/>
          <g id="Group_48261" data-name="Group 48261" transform="translate(5.842 4.568)">
            <path id="Path_47612" data-name="Path 47612" d="M172.327,198.681c-.074-.016-.149-.031-.222-.04Z" transform="translate(-172.105 -198.62)" fill="#fff"/>
            <path id="Path_47613" data-name="Path 47613" d="M199.774,198.69c-.637.164-1.272.313-1.907.452a2.283,2.283,0,0,1,.136.779v24.253a9.411,9.411,0,0,1-1.177,4.569c-3.01,5.413-7.588,9.292-14.538,13.107.947.618,1.945,1.229,3,1.829,7.856-4.1,12.9-8.143,16.132-13.961a9.4,9.4,0,0,0,1.178-4.569V200.9A2.272,2.272,0,0,0,199.774,198.69Z" transform="translate(-172.585 -198.619)" fill="#e5e5e4" style="mix-blend-mode: multiply;isolation: isolate"/>
          </g>
        </g>
        <path id="Path_47614" data-name="Path 47614" d="M198.419,217.365H187.04V205.987a1.2,1.2,0,0,0-2.4,0v11.379H173.265a1.2,1.2,0,1,0,0,2.4h11.379v11.379a1.2,1.2,0,1,0,2.4,0V219.762h11.379a1.2,1.2,0,0,0,0-2.4Z" transform="translate(-166.261 -194.341)" fill="#72a2ba"/>
        <path id="Path_47615" data-name="Path 47615" d="M172.737,203.115c-1.54,1.54-2.077,3.5-1.2,4.376s2.836.339,4.375-1.2,2.077-3.5,1.2-4.375S174.276,201.575,172.737,203.115Z" transform="translate(-166.216 -194.186)" fill="#cbcbcb" style="mix-blend-mode: overlay;isolation: isolate"/>
      </g>
      <g id="Group_48264" data-name="Group 48264" transform="translate(1.693 38.929)">
        <path id="Path_47616" data-name="Path 47616" d="M37.606,230.588H48.468V219.726H61.3v10.862H72.157v12.827H61.3v10.862H48.468V243.415H37.606Z" transform="translate(-37.606 -96.991)" fill="#e3fbff"/>
        <path id="Path_47617" data-name="Path 47617" d="M365.562,100.454h9.528V90.925h11.253v9.528h9.528v11.253h-9.528v9.528H375.09v-9.528h-9.528Z" transform="translate(-53.052 -90.925)" fill="#e3fbff"/>
        <path id="Path_47618" data-name="Path 47618" d="M61.108,202.683h7.734v-7.734h9.134v7.734h7.734v9.134H77.975v7.734H68.842v-7.734H61.108Z" transform="translate(-38.713 -95.824)" fill="#e3fbff"/>
        <path id="Path_47619" data-name="Path 47619" d="M205.348,132.637h7.447V125.19h8.795v7.447h7.447v8.795H221.59v7.447h-8.795v-7.447h-7.447Z" transform="translate(-45.507 -92.539)" fill="#fff"/>
      </g>
      <g id="Group_48267" data-name="Group 48267" transform="translate(171.781)">
        <path id="Path_47620" data-name="Path 47620" d="M234.1,75.942l.377,1.153.759,2.333s-.013,0-.018.007c-.658.217-1.539.537-2.553.944-4.207,1.71-10.616,4.967-12.43,8.709a3.972,3.972,0,0,0-.207,3.26c2.605,7.015,36.293,44.828,49.058,58.81l-.915.834-1.791,1.637c-4.745-5.2-46.464-51.044-49.786-60.008a7.564,7.564,0,0,1,.342-6.125c2.291-4.729,9.083-8.26,13.408-10.107,1.011-.43,1.887-.777,2.535-1.017C233.566,76.123,234.007,75.973,234.1,75.942Z" transform="translate(-216.101 -51.29)" fill="#b2dcf7"/>
        <path id="Path_47621" data-name="Path 47621" d="M399.621,144.494a14.3,14.3,0,0,0-3.659-3.121l-1.754,3.278a11.364,11.364,0,0,1,2.907,2.66,17.957,17.957,0,0,1,1.786,2.641c3.193,5.74,5.687,16.915-1.47,37.132-3.976,11.224-9.757,9.533-11.659,8.975a15.623,15.623,0,0,1-3.633-1.665,39.624,39.624,0,0,0-.125-16c-2.366-10.95-8.8-18.632-16.809-20.051a6.578,6.578,0,0,0-3.1.113,4.676,4.676,0,0,0-3.221,3.651c-1.675,7.136,7.941,25.64,19.044,33.932a22,22,0,0,1-8.455,12.326A10.93,10.93,0,0,1,360,210.143c-6.883-1.849-13.064-9.576-17.008-15.675a77,77,0,0,1-4.482-7.84l-3.362,1.6a79.052,79.052,0,0,0,4.968,8.675c3.352,5.1,8.193,11.2,13.9,14.639l0,0a19.783,19.783,0,0,0,5.008,2.191,14.616,14.616,0,0,0,12.549-2.307,25.339,25.339,0,0,0,9.584-13.3c.587.317,1.173.605,1.76.853a16.88,16.88,0,0,0,1.807.646,11.047,11.047,0,0,0,8.729-.835,11.311,11.311,0,0,0,1.337-.9c2.258-1.752,4.431-4.721,6.139-9.563,7.865-22.2,4.706-34.555.8-40.955-.335-.552-.677-1.052-1.02-1.513C400.343,145.356,399.978,144.9,399.621,144.494ZM362.5,162.957a1.308,1.308,0,0,1,.406-.8,2.07,2.07,0,0,1,1.651-.152c6.481,1.148,11.783,7.734,13.82,17.175a36.3,36.3,0,0,1,.437,12.778C369.648,184.174,361.2,168.495,362.5,162.957Z" transform="translate(-221.708 -54.372)" fill="#b2dcf7"/>
        <path id="Path_47622" data-name="Path 47622" d="M343.092,192.8a6.86,6.86,0,0,1-3.069,4.834,6.584,6.584,0,0,1-4.273.861l-20.7-26.675,7.342-5.7Z" transform="translate(-220.761 -55.538)" fill="#72a2ba"/>
        <g id="Group_48265" data-name="Group 48265" transform="translate(28.843)">
          <path id="Path_47623" data-name="Path 47623" d="M316.712,114.577l-3.066,2.007c-10.367-15.836-38.621-57.869-44.771-62.133a3.975,3.975,0,0,0-3.206-.61c-5.059,1.022-11.16,9.1-13.085,12.129L249.492,64c.315-.5,7.842-12.219,15.452-13.754a7.56,7.56,0,0,1,6.019,1.189C278.82,56.887,312.857,108.688,316.712,114.577Z" transform="translate(-246.517 -50.072)" fill="#b2dcf7"/>
          <path id="Path_47624" data-name="Path 47624" d="M317.151,114.58l-1.2.78c-4.158-6.336-37.873-57.625-45.691-63.038a7.56,7.56,0,0,0-6.018-1.19,14.233,14.233,0,0,0-5.447,2.633,15.805,15.805,0,0,1,6.585-3.517,7.576,7.576,0,0,1,6.018,1.191C279.256,56.887,313.3,108.687,317.151,114.58Z" transform="translate(-246.955 -50.072)" fill="#72a2ba"/>
          <path id="Path_47625" data-name="Path 47625" d="M249.435,64.184l2.712,1.722c-.3.424-.551.806-.757,1.128l-3.1-1.967c.244-.374,4.605-7.167,10.01-11.12A49.724,49.724,0,0,0,249.435,64.184Z" transform="translate(-246.46 -50.254)" fill="#72a2ba"/>
          <path id="Path_47626" data-name="Path 47626" d="M254.566,69.2h0a2.654,2.654,0,0,1-3.713-.469l-3.931-5.067a2.655,2.655,0,0,1,.468-3.713h0a2.655,2.655,0,0,1,3.713.469l3.931,5.067A2.654,2.654,0,0,1,254.566,69.2Z" transform="translate(-246.37 -50.511)" fill="#72a2ba"/>
          <path id="Path_47627" data-name="Path 47627" d="M251.133,60.424l3.932,5.067A2.654,2.654,0,0,1,254.6,69.2a2.445,2.445,0,0,1-.523.313,2.651,2.651,0,0,0,.036-3.282l-3.931-5.067a2.658,2.658,0,0,0-1.759-1,2.6,2.6,0,0,0-1.429.22,2.524,2.524,0,0,1,.433-.429,2.648,2.648,0,0,1,3.711.469Z" transform="translate(-246.399 -50.511)" fill="#72a2ba"/>
        </g>
        <g id="Group_48266" data-name="Group 48266" transform="translate(2.58 26.088)">
          <path id="Path_47628" data-name="Path 47628" d="M234.694,77.449l.667,2.05s-.013,0-.018.007c-.658.217-1.539.537-2.553.944-4.207,1.71-10.616,4.967-12.43,8.709a3.972,3.972,0,0,0-.207,3.26c2.605,7.015,36.293,44.828,49.058,58.81l-.915.834c-2.8-3.233-47.121-54.53-48.872-58.329a6.853,6.853,0,0,1-.613-2.97,6.576,6.576,0,0,1,1.4-3.487c3.541-4.858,9.521-6.066,11.462-8.265a4.49,4.49,0,0,1,2.054-1.4A3.834,3.834,0,0,1,234.694,77.449Z" transform="translate(-218.808 -77.449)" fill="#72a2ba"/>
        </g>
        <path id="Path_47629" data-name="Path 47629" d="M307.35,114.717,317.7,128.059a24.625,24.625,0,0,1-38.913,30.189l-10.351-13.343-7.344,5.7,10.351,13.343a33.774,33.774,0,0,0,9.073,8.127l.037.017a.658.658,0,0,0,.132.082c.312.192.619.371.937.55,0,0,.012.006.016.01.366.2.737.4,1.109.593s.724.366,1.086.534a.258.258,0,0,1,.057.024c.325.151.655.3.986.434.528.232,1.066.449,1.611.643.241.091.487.179.729.262.146.049.284.1.426.141.314.1.628.2.947.293l.142.044c.3.091.605.172.913.251.4.107.8.2,1.2.291.216.049.432.1.654.134.3.064.59.123.883.172.392.067.78.13,1.178.184l.027,0c.4.06.805.1,1.2.148a.542.542,0,0,1,.082.007c.4.042.8.074,1.2.1.418.031.843.05,1.26.058.381.013.759.022,1.139.013.98,0,1.961-.052,2.934-.143.247-.021.485-.044.723-.074l.434-.05c.146-.021.3-.041.447-.061,1.051-.151,2.1-.345,3.126-.594l.431-.1c.27-.071.54-.141.806-.216.212-.056.412-.118.619-.179a33.386,33.386,0,0,0,4.235-1.585c.19-.085.389-.177.578-.271q1.2-.56,2.355-1.24l0,0q1.324-.76,2.59-1.653c.2-.136.388-.277.579-.419.231-.171.466-.346.7-.525a33.9,33.9,0,0,0,6.007-47.585l-10.351-13.342Z" transform="translate(-218.22 -52.848)" fill="#72a2ba"/>
        <path id="Path_47630" data-name="Path 47630" d="M314.985,109.539l9.1,11.735a33.918,33.918,0,0,1-42.574,50.816.657.657,0,0,0,.132.082c.312.192.619.371.937.55,0,0,.012.006.016.01.366.2.737.4,1.109.593s.724.366,1.086.534a.26.26,0,0,1,.057.024c.325.151.655.3.986.434.528.232,1.066.449,1.611.643.241.091.487.179.729.262.146.049.284.1.426.141.314.1.628.2.947.293l.142.044c.3.091.605.172.913.251.4.107.8.2,1.2.291.216.049.432.1.654.134.3.064.59.123.883.172.392.067.78.13,1.178.184l.027,0c.4.055.8.106,1.2.148a.541.541,0,0,1,.082.007c.4.042.8.074,1.2.1.418.031.843.05,1.26.058.381.013.759.022,1.139.013.98,0,1.961-.052,2.934-.143.247-.021.485-.044.723-.074l.434-.05c.146-.021.3-.041.447-.061,1.051-.151,2.1-.345,3.126-.594l.431-.1c.27-.071.54-.141.806-.216.212-.056.412-.118.619-.179a33.384,33.384,0,0,0,4.235-1.585c.19-.085.389-.177.578-.271q1.2-.56,2.355-1.24l0,0q1.324-.76,2.59-1.653c.2-.136.388-.277.579-.419.231-.171.466-.346.7-.525A33.9,33.9,0,0,0,326,122.365l-10.351-13.342Z" transform="translate(-219.182 -52.848)" fill="#72a2ba"/>
        <path id="Path_47631" data-name="Path 47631" d="M234.6,73.232l3.931,5.067a2.575,2.575,0,0,1,.488,1.067A2.639,2.639,0,0,1,238.073,82l-.015.011a2.653,2.653,0,0,1-3.71-.469l-3.932-5.067a2.642,2.642,0,0,1,3.778-3.65A2.5,2.5,0,0,1,234.6,73.232Z" transform="translate(-216.749 -51.115)" fill="#72a2ba"/>
        <path id="Path_47632" data-name="Path 47632" d="M234.736,73.232l3.931,5.067a2.575,2.575,0,0,1,.488,1.067A2.639,2.639,0,0,1,238.213,82l-.015.011a2.645,2.645,0,0,1-3.289-.046,2.631,2.631,0,0,0,1.806-.542l.014-.011a2.637,2.637,0,0,0,.941-2.632,2.573,2.573,0,0,0-.487-1.067l-3.932-5.067a2.464,2.464,0,0,0-.4-.408s-.016-.01-.019-.015a2.594,2.594,0,0,1,1.5.6A2.5,2.5,0,0,1,234.736,73.232Z" transform="translate(-216.889 -51.115)" fill="#72a2ba"/>
        <path id="Path_47633" data-name="Path 47633" d="M382.946,179.224a39.625,39.625,0,0,1,.125,16,11.736,11.736,0,0,1,.78,4.582c-.587-.248-1.173-.536-1.76-.853a25.339,25.339,0,0,1-9.584,13.3,14.616,14.616,0,0,1-12.549,2.307,19.783,19.783,0,0,1-5.007-2.191c7.728,2.12,18.321,2.374,23.542-9.259,8.782-19.567.467-31.282-4.573-38.774-2.455-3.652-6.93-4.819-10.879-5.056a6.577,6.577,0,0,1,3.1-.113C374.141,160.591,380.58,168.274,382.946,179.224Z" transform="translate(-222.64 -55.204)" fill="#72a2ba"/>
        <path id="Path_47634" data-name="Path 47634" d="M403.592,146.081c.343.461.684.961,1.02,1.513,3.906,6.4,7.065,18.751-.8,40.955-1.708,4.843-3.88,7.811-6.139,9.563a11.312,11.312,0,0,1-1.337.9,56.649,56.649,0,0,0,3.11-4.809c13.143-22.7,5.511-45.135,4.983-46.334C404.034,146.968,403.592,146.081,403.592,146.081Z" transform="translate(-224.59 -54.594)" fill="#72a2ba"/>
        <path id="Path_47635" data-name="Path 47635" d="M403.962,138.118a7.718,7.718,0,0,1,.358,8.96,3.089,3.089,0,0,1-.183.273,7.665,7.665,0,0,1-1.542,1.6,7.042,7.042,0,0,1-1.1.709,7.72,7.72,0,0,1-8.364-12.913,7.622,7.622,0,0,1,2.968-1.414A7.71,7.71,0,0,1,403.962,138.118Z" transform="translate(-224.298 -54.078)" fill="#72a2ba"/>
        <path id="Path_47636" data-name="Path 47636" d="M404.234,138.12a7.718,7.718,0,0,1,.358,8.96,3.087,3.087,0,0,1-.183.273,7.665,7.665,0,0,1-1.542,1.6,7.041,7.041,0,0,1-1.1.709,7.7,7.7,0,0,1-5.854.584,7.7,7.7,0,0,0,4.406-.876,6.989,6.989,0,0,0,1.1-.709,7.646,7.646,0,0,0,1.543-1.6,3.083,3.083,0,0,0,.183-.273,7.719,7.719,0,0,0-.357-8.96,7.636,7.636,0,0,0-3.87-2.656A7.677,7.677,0,0,1,404.234,138.12Z" transform="translate(-224.57 -54.08)" fill="#72a2ba"/>
        <circle id="Ellipse_536" data-name="Ellipse 536" cx="4.562" cy="4.562" r="4.562" transform="matrix(0.125, -0.992, 0.992, 0.125, 168.464, 92.727)" fill="#b2dcf7"/>
      </g>
      <g id="Group_48331" data-name="Group 48331" transform="translate(184.456 131.252)">
        <g id="Group_48326" data-name="Group 48326" transform="translate(0 12.809)">
          <g id="Group_48278" data-name="Group 48278" transform="translate(73.984)">
            <g id="Group_48269" data-name="Group 48269" transform="translate(7.25 15.897)">
              <g id="Group_48268" data-name="Group 48268">
                <path id="Path_47637" data-name="Path 47637" d="M323.353,228.606a7.748,7.748,0,0,1-.167,1.53c-.523,2.45-2.2,4.236-4.178,4.215h-.133c-2.366-.026-4.257-2.639-4.222-5.837l.1-9.292,8.071-1.285Z" transform="translate(-314.651 -217.936)" fill="#f4b3b3"/>
              </g>
            </g>
            <path id="Path_47638" data-name="Path 47638" d="M319.049,206.712a7.346,7.346,0,0,0-4.035,2.994c-1.561,2.389-2.751,9.458,2.168,12.743s8.9-1.383,9.055-5.934S325.589,205.9,319.049,206.712Z" transform="translate(-307.355 -201.507)" fill="#f4b3b3" fill-rule="evenodd"/>
            <path id="Path_47639" data-name="Path 47639" d="M327.731,215.38c-.443,1.09-1.306,1.784-1.915,1.519-.614-.25-.74-1.351-.3-2.441s1.31-1.782,1.924-1.53S328.183,214.279,327.731,215.38Z" transform="translate(-307.901 -201.8)" fill="#f4b3b3" fill-rule="evenodd"/>
            <g id="Group_48277" data-name="Group 48277" transform="translate(9.789 9.788)">
              <g id="Group_48270" data-name="Group 48270" transform="translate(3.716 2.315)">
                <path id="Path_47640" data-name="Path 47640" d="M321.409,217.814h.029c.259-.03,1.556-.212,1.649-.906a9.111,9.111,0,0,0-1.058-2.845.2.2,0,0,0-.354.184,9.178,9.178,0,0,1,1.017,2.608c-.038.288-.8.506-1.3.563a.2.2,0,0,0,.016.4Z" transform="translate(-321.216 -213.955)" fill="#ec724c"/>
              </g>
              <g id="Group_48271" data-name="Group 48271" transform="translate(6.021 2.197)">
                <path id="Path_47641" data-name="Path 47641" d="M324.756,214.42a.563.563,0,1,1-.59-.589A.591.591,0,0,1,324.756,214.42Z" transform="translate(-323.635 -213.83)"/>
              </g>
              <g id="Group_48272" data-name="Group 48272" transform="translate(0 0.2)">
                <path id="Path_47642" data-name="Path 47642" d="M317.51,212.565a.2.2,0,0,0,.134-.047,1.855,1.855,0,0,1,1.99-.153.2.2,0,1,0,.194-.349,2.231,2.231,0,0,0-2.442.2.2.2,0,0,0,.124.351Z" transform="translate(-317.316 -211.734)"/>
              </g>
              <g id="Group_48273" data-name="Group 48273" transform="translate(5.517)">
                <path id="Path_47643" data-name="Path 47643" d="M323.3,212.205a.2.2,0,0,0,.124-.04h0a1.2,1.2,0,0,1,1.392-.025.2.2,0,0,0,.239-.319,1.591,1.591,0,0,0-1.87.024.2.2,0,0,0,.114.36Z" transform="translate(-323.106 -211.525)"/>
              </g>
              <g id="Group_48274" data-name="Group 48274" transform="translate(1.911 7.296)">
                <path id="Path_47644" data-name="Path 47644" d="M319.322,219.182c2.742.588,3.931.08,3.931.08a1.725,1.725,0,0,1-1.485,1.882A2.111,2.111,0,0,1,319.322,219.182Z" transform="translate(-319.322 -219.182)"/>
              </g>
              <g id="Group_48275" data-name="Group 48275" transform="translate(1.912 7.297)">
                <path id="Path_47645" data-name="Path 47645" d="M323.157,219.3s-.067.318-.093.382-.292.251-1.41.329a6.82,6.82,0,0,1-2.21-.278,2.388,2.388,0,0,1-.121-.545c.16.035.315.064.466.091a7.343,7.343,0,0,0,3.367.021Z" transform="translate(-319.323 -219.183)" fill="#fff"/>
              </g>
              <g id="Group_48276" data-name="Group 48276" transform="translate(1.273 2.566)">
                <ellipse id="Ellipse_537" data-name="Ellipse 537" cx="0.578" cy="0.636" rx="0.578" ry="0.636" transform="translate(0 0.057) rotate(-2.848)"/>
              </g>
            </g>
            <path id="Path_47646" data-name="Path 47646" d="M325.349,212.1a5.753,5.753,0,0,0,2.745-3.1c.363-1.105.516-2.962-.286-3.369a1.325,1.325,0,0,0-1.14.134A2.132,2.132,0,1,0,323.1,203.5a4.319,4.319,0,0,0-3.2-2.225,4.118,4.118,0,0,0-3.86,1.861,4.891,4.891,0,0,0-5.837.808,4.488,4.488,0,0,0-.972,3.268,6.186,6.186,0,0,0-2.093,3.467c-.639,3.415,2.2,7.549,7.285,9.692q-.093-3.908-.185-7.816a10.935,10.935,0,0,1,5.82-3.895,10.493,10.493,0,0,1,4.151-.208Z" transform="translate(-307.044 -201.253)" fill="#063e8e" fill-rule="evenodd"/>
            <path id="Path_47647" data-name="Path 47647" d="M315.491,216.147c.335,1.181-.019,2.345-.8,2.609-.772.247-1.676-.507-2.009-1.688s.019-2.346.791-2.593S315.154,214.965,315.491,216.147Z" transform="translate(-307.303 -201.873)" fill="#f4b3b3" fill-rule="evenodd"/>
          </g>
          <path id="Path_47648" data-name="Path 47648" d="M323.667,224.194c.462.917,1.869,3.725,2.82,5.783,1.151,2.495,3.741,18.7,4.029,22.155.052.632.17,3.354.33,7.381.067,1.723.142,3.685.221,5.823.011.282.021.566.031.854,0,.115.009.23.013.345q.033.862.065,1.753h0c.084,2.276.172,4.7.263,7.213.008.217.015.434.024.653.019.521.036,1.045.055,1.574q.049,1.352.1,2.731.037,1.022.073,2.053c.2,5.51.395,11.163.577,16.4.436,12.506.78,22.612.78,22.612a30.788,30.788,0,0,0,10.491-.716s-.481-13.044-1.11-29.23c-.08-2.037-.162-4.125-.245-6.242-.08-2.012-.16-4.051-.242-6.1q-.041-1.049-.084-2.1-.069-1.737-.139-3.475c-.027-.671-.055-1.341-.082-2.01-.009-.231-.019-.462-.028-.693q-.024-.569-.048-1.137c-.817-20.072-1.641-38.622-1.928-39.532-.523-1.659-10.821-3.461-14.681-5.249A3.7,3.7,0,0,1,323.667,224.194Z" transform="translate(-233.842 -202.333)" fill="#fff"/>
          <g id="Group_48324" data-name="Group 48324" transform="translate(0 67.178)">
            <g id="Group_48281" data-name="Group 48281" transform="translate(14.437 59.6)">
              <g id="Group_48280" data-name="Group 48280">
                <g id="Group_48279" data-name="Group 48279">
                  <path id="Path_47649" data-name="Path 47649" d="M246.355,348.627l-1.8-13.161,4.7-1.168,1.868,13.639C248.08,348.388,246.355,348.627,246.355,348.627Z" transform="translate(-244.553 -334.297)" fill="#f4b3b3"/>
                </g>
              </g>
            </g>
            <g id="Group_48284" data-name="Group 48284" transform="translate(0 59.614)">
              <g id="Group_48283" data-name="Group 48283">
                <g id="Group_48282" data-name="Group 48282">
                  <path id="Path_47650" data-name="Path 47650" d="M243.681,334.311l-12.639,1.731a1.893,1.893,0,0,0-1.622,2.133l3.407,24.876a1.893,1.893,0,0,0,2.135,1.619,3.4,3.4,0,0,0,1.778-.712,7.716,7.716,0,0,0,2.467-4.106,30.579,30.579,0,0,1,2.831-7.254c.616-1.1,1.476-1.837,3.8-2.559Z" transform="translate(-229.402 -334.311)" fill="#15eadf"/>
                </g>
              </g>
            </g>
            <g id="Group_48287" data-name="Group 48287" transform="translate(0 61.092)">
              <g id="Group_48286" data-name="Group 48286">
                <g id="Group_48285" data-name="Group 48285">
                  <path id="Path_47651" data-name="Path 47651" d="M232.883,335.863l-1.841.253a1.893,1.893,0,0,0-1.622,2.133l3.407,24.875a1.893,1.893,0,0,0,2.135,1.619,3.4,3.4,0,0,0,1.778-.712Z" transform="translate(-229.402 -335.863)" fill="#fff"/>
                </g>
              </g>
            </g>
            <g id="Group_48290" data-name="Group 48290" transform="translate(7.933 78.925)">
              <g id="Group_48289" data-name="Group 48289">
                <g id="Group_48288" data-name="Group 48288">
                  <path id="Path_47652" data-name="Path 47652" d="M241.019,356.613a.133.133,0,0,1-.113-.063,3.727,3.727,0,0,0-3.034-1.7.134.134,0,1,1-.02-.267,3.934,3.934,0,0,1,3.281,1.822.134.134,0,0,1-.042.185A.13.13,0,0,1,241.019,356.613Z" transform="translate(-237.728 -354.577)"/>
                </g>
              </g>
            </g>
            <g id="Group_48293" data-name="Group 48293" transform="translate(8.81 76.95)">
              <g id="Group_48292" data-name="Group 48292">
                <g id="Group_48291" data-name="Group 48291">
                  <path id="Path_47653" data-name="Path 47653" d="M241.938,354.541a.134.134,0,0,1-.113-.063,3.733,3.733,0,0,0-3.034-1.7.134.134,0,0,1-.02-.267,3.927,3.927,0,0,1,3.281,1.822.134.134,0,0,1-.042.185A.13.13,0,0,1,241.938,354.541Z" transform="translate(-238.648 -352.505)"/>
                </g>
              </g>
            </g>
            <g id="Group_48296" data-name="Group 48296" transform="translate(9.868 75.156)">
              <g id="Group_48295" data-name="Group 48295">
                <g id="Group_48294" data-name="Group 48294">
                  <path id="Path_47654" data-name="Path 47654" d="M243.049,352.657a.135.135,0,0,1-.113-.062,3.725,3.725,0,0,0-3.034-1.7.134.134,0,0,1-.02-.268,3.934,3.934,0,0,1,3.281,1.822.133.133,0,0,1-.042.185A.13.13,0,0,1,243.049,352.657Z" transform="translate(-239.759 -350.621)"/>
                </g>
              </g>
            </g>
            <g id="Group_48299" data-name="Group 48299" transform="translate(17.55 18.173)">
              <g id="Group_48298" data-name="Group 48298">
                <g id="Group_48297" data-name="Group 48297">
                  <path id="Path_47655" data-name="Path 47655" d="M316.31,311.984s-14.569,25.376-16.346,27.43c-1.3,1.493-26.417,5.787-40.054,8.023-1.775.293-3.358.55-4.664.759-2.472.4-3.969.633-3.969.633L247.82,331.4l4.242-.816,4.637-.89,31.075-5.964,14.413-32.909C313.175,296.939,316.31,311.984,316.31,311.984Z" transform="translate(-247.82 -290.822)" fill="#2b6050"/>
                </g>
              </g>
            </g>
            <g id="Group_48302" data-name="Group 48302" transform="translate(112.141 103.936)">
              <g id="Group_48301" data-name="Group 48301">
                <g id="Group_48300" data-name="Group 48300">
                  <path id="Path_47656" data-name="Path 47656" d="M360.89,385.641H347.606l-.52-4.817h13.766C360.887,383.9,360.89,385.641,360.89,385.641Z" transform="translate(-347.086 -380.824)" fill="#f4b3b3"/>
                </g>
              </g>
            </g>
            <g id="Group_48305" data-name="Group 48305" transform="translate(111.495 108.753)">
              <g id="Group_48304" data-name="Group 48304">
                <g id="Group_48303" data-name="Group 48303">
                  <path id="Path_47657" data-name="Path 47657" d="M346.408,385.879v12.757a1.894,1.894,0,0,0,1.893,1.9h25.108a1.893,1.893,0,0,0,1.893-1.9,3.4,3.4,0,0,0-.464-1.858,7.712,7.712,0,0,0-3.733-3,30.637,30.637,0,0,1-6.8-3.79c-1.005-.759-1.619-1.712-2.019-4.109Z" transform="translate(-346.408 -385.879)" fill="#15eadf"/>
                </g>
              </g>
            </g>
            <g id="Group_48308" data-name="Group 48308" transform="translate(111.495 119.652)">
              <g id="Group_48307" data-name="Group 48307">
                <g id="Group_48306" data-name="Group 48306">
                  <path id="Path_47658" data-name="Path 47658" d="M346.408,397.317v1.858a1.894,1.894,0,0,0,1.893,1.9h25.108a1.893,1.893,0,0,0,1.893-1.9,3.4,3.4,0,0,0-.464-1.858Z" transform="translate(-346.408 -397.317)" fill="#fff"/>
                </g>
              </g>
            </g>
            <g id="Group_48311" data-name="Group 48311" transform="translate(129.792 114.523)">
              <g id="Group_48310" data-name="Group 48310">
                <g id="Group_48309" data-name="Group 48309">
                  <path id="Path_47659" data-name="Path 47659" d="M365.743,395.092h-.009a.133.133,0,0,1-.125-.142,3.922,3.922,0,0,1,2.25-3,.134.134,0,0,1,.111.244,3.719,3.719,0,0,0-2.094,2.776A.135.135,0,0,1,365.743,395.092Z" transform="translate(-365.61 -391.934)"/>
                </g>
              </g>
            </g>
            <g id="Group_48314" data-name="Group 48314" transform="translate(127.955 113.387)">
              <g id="Group_48313" data-name="Group 48313">
                <g id="Group_48312" data-name="Group 48312">
                  <path id="Path_47660" data-name="Path 47660" d="M363.815,393.9h-.009a.134.134,0,0,1-.125-.142,3.924,3.924,0,0,1,2.25-3,.134.134,0,0,1,.112.244,3.722,3.722,0,0,0-2.095,2.776A.134.134,0,0,1,363.815,393.9Z" transform="translate(-363.682 -390.742)"/>
                </g>
              </g>
            </g>
            <g id="Group_48317" data-name="Group 48317" transform="translate(126.32 112.095)">
              <g id="Group_48316" data-name="Group 48316">
                <g id="Group_48315" data-name="Group 48315">
                  <path id="Path_47661" data-name="Path 47661" d="M362.1,392.544h-.008a.133.133,0,0,1-.126-.142,3.92,3.92,0,0,1,2.25-3,.134.134,0,1,1,.111.244,3.719,3.719,0,0,0-2.093,2.776A.135.135,0,0,1,362.1,392.544Z" transform="translate(-361.966 -389.386)"/>
                </g>
              </g>
            </g>
            <g id="Group_48320" data-name="Group 48320" transform="translate(70.795)">
              <g id="Group_48319" data-name="Group 48319">
                <g id="Group_48318" data-name="Group 48318">
                  <path id="Path_47662" data-name="Path 47662" d="M360.044,376.516H343.336l-1.043-4.028-1.225-4.725-10.4-40.137s-17.052-24.032-23.92-33.765c-4.171-5.908-3.278-15.49-1.931-22.109h27.7c-.22,2.845-.464,5.919-.652,8.005-.443,4.922,18.111,38.421,21.192,43.924,2.242,4,4.916,30.128,6.209,44.082.166,1.8.311,3.4.426,4.725C359.918,375,360.044,376.516,360.044,376.516Z" transform="translate(-303.697 -271.751)" fill="#2b6050"/>
                </g>
              </g>
            </g>
            <g id="Group_48323" data-name="Group 48323" transform="translate(84.76 13.715)">
              <g id="Group_48322" data-name="Group 48322">
                <g id="Group_48321" data-name="Group 48321">
                  <path id="Path_47663" data-name="Path 47663" d="M350.531,366.1a.135.135,0,0,1-.132-.112c-.058-.351-5.895-35.086-6.5-37.79-.6-2.685-25.274-41.455-25.523-41.847a.134.134,0,1,1,.226-.144c1.019,1.6,24.944,39.2,25.559,41.932.61,2.711,6.447,37.455,6.506,37.8a.135.135,0,0,1-.111.155Z" transform="translate(-318.352 -286.144)" fill="#fff"/>
                </g>
              </g>
            </g>
          </g>
          <path id="Path_47664" data-name="Path 47664" d="M395.543,248.2c.554.281,4.375-.509,4.385.412s-6.272,1.39-6.272,1.39,1.69.33,2.085.339,2.115-.352,1.94.64-4.679.561-5.141.492a11.343,11.343,0,0,1-1.706-.059,19.955,19.955,0,0,0-3.249-.518,1.758,1.758,0,0,0-.657.235,19.552,19.552,0,0,0-2.2,1.465c-.236-.108-1.906-3.646-.719-5.055,0,0,.275-.165.678-.417a17.94,17.94,0,0,0,3.057-2.236c.641-.8,6.4-3.673,6.769-3.376.919.732-.93,2.046-1.6,2.268a13.626,13.626,0,0,0-1.946,1,11.044,11.044,0,0,0,1.759.24,13.889,13.889,0,0,0,3.446-.649c1.535-.463,3.087-1.2,3.816-.269s-5.64,2.479-5.64,2.479a12.446,12.446,0,0,0,3.252-.478c.768-.157,3.313-.762,3.41.075C401.112,247.069,395.543,248.2,395.543,248.2Z" transform="translate(-236.664 -203.148)" fill="#f4b3b3"/>
          <path id="Path_47665" data-name="Path 47665" d="M386.929,251.411a19.558,19.558,0,0,0-2.2,1.465c-.236-.108-1.906-3.646-.719-5.055,0,0,.275-.165.678-.417C385.637,248.119,386.526,250.307,386.929,251.411Z" transform="translate(-236.664 -203.426)" fill="#15eadf"/>
          <path id="Path_47666" data-name="Path 47666" d="M328.892,238.094s.143.266.415.742l.082.143c.018.033.036.066.056.1s.024.042.036.062c.03.052.06.1.092.159q.12.212.265.456c.04.068.079.137.122.21l.023.038c.045.077.09.154.139.236.244.411.522.872.831,1.376.091.149.183.3.28.453l.033.053c.107.171.217.348.332.528.152.241.311.492.475.746.345.536.714,1.1,1.1,1.685q.31.463.639.944c.1.148.2.3.306.444l.276.4c.057.081.113.163.172.243.235.338.476.677.725,1.019.085.119.172.238.258.356.151.208.3.415.457.621.062.087.125.172.189.255,1.142,1.529,2.385,3.1,3.712,4.627q.22.256.445.509c.148.168.3.334.446.5l0,.006c.128.144.258.287.389.429.11.121.221.241.333.36.327.349.656.695.989,1.034l.266.272.037.037.283.28q.3.3.61.594c.1.1.211.2.317.3q.182.172.367.342c.122.114.246.226.371.338l.29.258c.152.134.3.269.457.4a35.047,35.047,0,0,0,2.8,2.185,19.915,19.915,0,0,0,7.087,3.3,12.243,12.243,0,0,0,2.257.273c.333.011.666,0,1-.016q.393-.024.78-.058c1.094-.094,2.162-.241,3.2-.433q.557-.1,1.105-.22a44.31,44.31,0,0,0,19.9-10.615l-.017-.218q-.044-.58-.111-1.153a31.807,31.807,0,0,0-.721-4.057q-.336-1.368-.788-2.663c-.251-.722-.532-1.425-.835-2.1q-1.152.673-2.241,1.264c-7.156,3.887-12.332,5.182-16.291,5.222a17.21,17.21,0,0,1-2.875-.2,16.8,16.8,0,0,1-2.107-.47c-.321-.092-.631-.193-.932-.3a26.72,26.72,0,0,1-3.044-1.325c-2.71-1.344-5.9-5.729-8.655-9.9-1.682-2.546-3.2-5.012-4.359-6.66-.3-.433-.576-.806-.824-1.114l-.053.038-6.035,4.244-.779.549-1.948,1.369-.573.4-1.364.961Z" transform="translate(-234.088 -202.625)" fill="#fff"/>
          <path id="Path_47667" data-name="Path 47667" d="M310.1,227.015c1.309,4.565,18.579,4.877,13.5-1.335a40.456,40.456,0,0,1,7.131,10.394c3.193,6.741,3.611,12.615,3.928,17.782.707,11.512,1.116,22.573,1.288,33.172H318.482Z" transform="translate(-233.203 -202.403)" fill="#15eadf"/>
          <g id="Group_48325" data-name="Group 48325" transform="translate(58.079 20.392)">
            <path id="Path_47668" data-name="Path 47668" d="M290.494,318.483c.269,1.949-.026.242.036.3.778.741.443.313,1.449.73a44.963,44.963,0,0,0,5.4,1.638c.682.176,1.773.422,2.792.606,1.647.3,3.372.559,5.286.725a62.332,62.332,0,0,0,9.712-.1c.218-6.747.165-10.7.795-18.2.362-4.313,1.409-12.97,1.967-18.236.139-1.32.364-3.318.506-4.691.024-.224.056-.517.081-.758.076-.726.158-1.5.232-2.228.031-.3.065-.621.092-.9.066-.682.142-1.486.2-2.126.275-2.965.523-5.9.745-8.816.03-.409.051-.7.079-1.074.057-.794.162-2.479.2-3.044.052-.825.049-.985.079-1.528.017-.292.007-.559.012-.719.319-8.925.1-19.88-3.387-27.547-1.528-3.361-2.308-3.98-3.542-6.264-.8-1.484-1.028-1.607-1.618-2.628-.294-.509-.3-.48-.453-.713s-.044-.244-.174-.256-.03.2-.064.326a3.853,3.853,0,0,1-.619,1.285,5.652,5.652,0,0,1-.474.541.49.49,0,0,1-.045.046,8.845,8.845,0,0,1-.9.766,15.431,15.431,0,0,1-1.285.87c-.578.352-1.284.759-2.075,1.167s-1.932.966-2.867,1.393c-.414.189-1.08.492-1.528.683.039,3.491.075,6.78.055,10.363,0,.236-.006.836-.018,1.35-.108,4.337-.325,8.8-.794,13.213-.1.961-.216,2.07-.33,3.1-.144,1.31-.3,2.739-.451,4.08-.05.439-.11.92-.163,1.369-.007.054-.01.093-.021.174s-.026.228-.041.333c-.08.537-.138,1.194-.22,1.775-1.513,10.75-3.254,23-5.2,33.25C292.568,305.955,289.681,312.583,290.494,318.483Z" transform="translate(-290.352 -222.652)" fill="#fff"/>
          </g>
          <path id="Path_47669" data-name="Path 47669" d="M308.308,227.231a3.779,3.779,0,0,1,.364-.835,4.738,4.738,0,0,1,1.37-1.419,3.437,3.437,0,0,0,.577-1.337,5.991,5.991,0,0,0-3.1,3.348c-.033.108-.062.216-.088.328-.542,2.406.8,5.607,4.1,9.766l.649-.515C308.909,232.446,307.644,229.392,308.308,227.231Z" transform="translate(-233.072 -202.307)" fill="#2e353d"/>
          <path id="Path_47670" data-name="Path 47670" d="M333.7,238.432a22.2,22.2,0,0,0,.148-2.456,12.765,12.765,0,0,0-1.932-7.455,8.448,8.448,0,0,0-6.054-3.527l-.116.82a7.661,7.661,0,0,1,5.488,3.175,12.494,12.494,0,0,1,1.787,6.965,21.608,21.608,0,0,1-.139,2.347,1.637,1.637,0,1,0,.819.131Z" transform="translate(-233.94 -202.371)" fill="#2e353d"/>
          <path id="Path_47671" data-name="Path 47671" d="M347.416,280.92c1.059,0,.943,11.643-3.18,10.75S343,280.92,347.416,280.92Z" transform="translate(-234.717 -205.005)" fill="#2e353d"/>
          <path id="Path_47672" data-name="Path 47672" d="M355.313,289.664c.59.643,2.81,1.46,3.722,1.851s3.577,1.372,3.33,2.763-3.178-.481-3.584-.821a23.9,23.9,0,0,0-3.4-1.245c.372.693,4.908,2.632,4.255,3.594s-5.1-1.658-5.443-2.067a7.987,7.987,0,0,0-2.072-1.017c.047.048,1.522,1.565,1.92,1.857s2.45,1.162,1.551,2.064-5.265-2.795-5.694-3.2-1.273-.733-1.729-1.292a29.519,29.519,0,0,0-2.484-2.476,5.636,5.636,0,0,0-.515-.41c-.683-.46-4.193-.3-4.193-.3-.168-.283.745-6.141,3-6.747,0,0,1.551.448,3.08.739a7.18,7.18,0,0,0,2.621.181,8.132,8.132,0,0,1,5.222.492c1.254.8,4.688-.528,4.245.891s-2.442,1.454-3.3,1.2a17.208,17.208,0,0,0-2.741-.368,13.887,13.887,0,0,0,1.652,1.52,17.541,17.541,0,0,0,4.045,1.813c1.931.628,4.072.984,4.158,2.477S355.313,289.664,355.313,289.664Z" transform="translate(-234.657 -205.066)" fill="#f4b3b3"/>
          <path id="Path_47673" data-name="Path 47673" d="M347.058,282.959a6.017,6.017,0,0,0-1.368,6.715,5.636,5.636,0,0,0-.515-.41c-.683-.46-4.193-.3-4.193-.3-.168-.283.745-6.141,3-6.747C343.978,282.22,345.529,282.668,347.058,282.959Z" transform="translate(-234.657 -205.066)" fill="#15eadf"/>
          <path id="Path_47674" data-name="Path 47674" d="M295.655,242.559c.034.5.077,1,.128,1.518a77.32,77.32,0,0,0,1.3,8.236,94.722,94.722,0,0,0,3.655,12.883c.025.069.051.138.076.207,2.2,5.938,4.842,10.827,7.464,12.685,3.7,2.622,12.022,5.437,19.478,7.584.705.2,1.4.4,2.085.591,2.229.618,4.325,1.166,6.13,1.619,3.514.88,5.93,1.4,6.069,1.37,0,0-1.287-5.9.583-8.984a3.766,3.766,0,0,1,1.147-1.219,3.633,3.633,0,0,1,1.449-.547s-2.153-.583-5.2-1.46c-1.359-.392-2.895-.842-4.5-1.327-1.865-.563-3.818-1.171-5.685-1.782-.947-.312-1.873-.623-2.754-.932-.481-.169-.949-.335-1.4-.5a20.585,20.585,0,0,1-5.3-2.48,7.686,7.686,0,0,1-1.168-2.739c-1.039-3.458-2.344-9.609-4.057-15.953-.9-3.32-1.907-6.693-3.049-9.76h0c-2.009-5.394-4.427-9.841-7.366-11.385a4.707,4.707,0,0,0-3.153-.5.369.369,0,0,0-.038,0c-.4.025-3.969.371-5.368,4.739a14.754,14.754,0,0,0-.58,3.493A35.6,35.6,0,0,0,295.655,242.559Z" transform="translate(-232.518 -202.588)" fill="#fff"/>
          <path id="Path_47675" data-name="Path 47675" d="M313.175,245.856c.248.644.51,1.32.779,2.014h0c.111.1.222.2.336.3a12.813,12.813,0,0,0,2.6,1.772,5.871,5.871,0,0,1-1.221,1.875.818.818,0,0,0-.188-.028l.185.471.191.481.192.484a.84.84,0,0,0,.247-.6.818.818,0,0,0-.033-.233,6.758,6.758,0,0,0,1.381-2.114c.151.061.3.115.452.165l-.793-1.689q-.056.207-.12.406a12.208,12.208,0,0,1-2.355-1.622A14.671,14.671,0,0,1,313.175,245.856Zm-3.054-3.9h0c.009.036.018.071.028.108a12.058,12.058,0,0,0,2.878,4.886h0q.083.091.169.18h0c.243.254.495.5.758.742h0c.111.1.222.2.336.3a12.813,12.813,0,0,0,2.6,1.772,5.871,5.871,0,0,1-1.221,1.875.818.818,0,0,0-.188-.028h-.027a.841.841,0,0,0-.841.84v.008a.841.841,0,0,0,1.682-.008.818.818,0,0,0-.033-.233,6.758,6.758,0,0,0,1.381-2.114c.151.061.3.115.452.165h0a6.462,6.462,0,0,0,1.913.354.84.84,0,1,0,1.242-1.049.841.841,0,0,0-1.184.224,5.969,5.969,0,0,1-2.131-.464,12.777,12.777,0,0,0,.594-3.09,13.068,13.068,0,0,0-1.375-7.254,4.61,4.61,0,0,0-2.1-2.012c-.071-.03-.142-.058-.214-.083a3.577,3.577,0,0,0-2.429.059l-.128.047c-.053.02-.11.043-.148.06s-.07.031-.07.031c-.129.061-.252.127-.368.2-.056.032-.111.066-.164.1a3.453,3.453,0,0,0-1.11,1.147,3.388,3.388,0,0,0-.214.438A4.533,4.533,0,0,0,310.12,241.951Zm.659-1.389h0a3.168,3.168,0,0,1,.091-.726h0a2.545,2.545,0,0,1,.96-1.454,3.5,3.5,0,0,1,.642-.381,2.811,2.811,0,0,1,2.276-.068,3.871,3.871,0,0,1,1.694,1.655,12.406,12.406,0,0,1,1.265,6.775,12.664,12.664,0,0,1-.4,2.4h0q-.056.207-.12.406a12.208,12.208,0,0,1-2.355-1.622,14.671,14.671,0,0,1-1.658-1.689h0c-.126-.15-.246-.3-.363-.453-.057-.075-.115-.152-.17-.227h0a10.125,10.125,0,0,1-1.69-3.323A4.907,4.907,0,0,1,310.78,240.561Zm2.395,5.294c.248.644.51,1.32.779,2.014h0c.111.1.222.2.336.3a12.813,12.813,0,0,0,2.6,1.772,5.871,5.871,0,0,1-1.221,1.875.818.818,0,0,0-.188-.028l.185.471.191.481.192.484a.84.84,0,0,0,.247-.6.818.818,0,0,0-.033-.233,6.758,6.758,0,0,0,1.381-2.114c.151.061.3.115.452.165l-.793-1.689q-.056.207-.12.406a12.208,12.208,0,0,1-2.355-1.622A14.671,14.671,0,0,1,313.175,245.856Z" transform="translate(-233.196 -202.931)" fill="#2e353d"/>
        </g>
        <g id="Group_48330" data-name="Group 48330" transform="translate(141.589)">
          <g id="Group_48327" data-name="Group 48327">
            <path id="Path_47676" data-name="Path 47676" d="M428.038,190.676l19.135,56.172a4.228,4.228,0,0,1-2.639,5.363L424.2,259.139l-21.861-64.173,20.336-6.928A4.227,4.227,0,0,1,428.038,190.676Z" transform="translate(-379.137 -187.811)" fill="#a5c8e4"/>
            <path id="Path_47677" data-name="Path 47677" d="M401.192,195.319l21.861,64.173-20.338,6.928a4.227,4.227,0,0,1-5.363-2.638L378.217,207.61a4.227,4.227,0,0,1,2.638-5.364Z" transform="translate(-377.99 -188.165)" fill="#b9d9ef"/>
          </g>
          <g id="Group_48329" data-name="Group 48329" transform="translate(9.658 9.346)">
            <g id="Group_48328" data-name="Group 48328">
              <path id="Path_47678" data-name="Path 47678" d="M423.51,201.508a4.643,4.643,0,0,1-.091,3.254l-8.357-4.112a4.67,4.67,0,0,1,8.448.858Z" transform="translate(-389.394 -197.653)" fill="#cc293d"/>
              <path id="Path_47679" data-name="Path 47679" d="M430.8,222.906a4.638,4.638,0,0,1-.091,3.252l-8.357-4.11a4.669,4.669,0,0,1,8.448.858Z" transform="translate(-389.737 -198.661)" fill="#cc293d"/>
              <path id="Path_47680" data-name="Path 47680" d="M438.087,244.3a4.627,4.627,0,0,1-.092,3.252l-8.356-4.11a4.668,4.668,0,0,1,8.448.858Z" transform="translate(-390.08 -199.669)" fill="#cc293d"/>
              <path id="Path_47681" data-name="Path 47681" d="M410.6,250.513a4.669,4.669,0,0,1-4.11,8.356Z" transform="translate(-388.99 -200.11)" fill="#cc293d"/>
              <path id="Path_47682" data-name="Path 47682" d="M403.314,229.115a4.669,4.669,0,0,1-4.109,8.358Z" transform="translate(-388.647 -199.102)" fill="#cc293d"/>
              <path id="Path_47683" data-name="Path 47683" d="M396.026,207.719a4.669,4.669,0,0,1-4.11,8.357Z" transform="translate(-388.304 -198.095)" fill="#cc293d"/>
              <path id="Path_47684" data-name="Path 47684" d="M414.726,201.413l8.357,4.11a4.669,4.669,0,0,1-8.357-4.11Z" transform="translate(-389.362 -197.798)" fill="#fd5b68"/>
              <path id="Path_47685" data-name="Path 47685" d="M422.015,222.809l8.357,4.111a4.669,4.669,0,0,1-8.357-4.111Z" transform="translate(-389.705 -198.805)" fill="#fd5b68"/>
              <path id="Path_47686" data-name="Path 47686" d="M429.3,244.206l8.356,4.11a4.669,4.669,0,0,1-8.356-4.11Z" transform="translate(-390.049 -199.813)" fill="#fd5b68"/>
              <path id="Path_47687" data-name="Path 47687" d="M409.841,250.177l-4.11,8.356a4.669,4.669,0,0,1,4.11-8.356Z" transform="translate(-388.846 -200.078)" fill="#fd5b68"/>
              <path id="Path_47688" data-name="Path 47688" d="M402.553,228.781l-4.11,8.356a4.669,4.669,0,0,1,4.11-8.356Z" transform="translate(-388.502 -199.071)" fill="#fd5b68"/>
              <path id="Path_47689" data-name="Path 47689" d="M395.264,207.383l-4.11,8.357a4.669,4.669,0,0,1,4.11-8.357Z" transform="translate(-388.159 -198.063)" fill="#fd5b68"/>
              <path id="Path_47690" data-name="Path 47690" d="M421.387,198.172a5.357,5.357,0,1,1-4.093-.264A5.321,5.321,0,0,1,421.387,198.172Zm1.966,6.556A4.669,4.669,0,0,0,415,200.616Zm-.3.617-8.357-4.11a4.669,4.669,0,0,0,8.357,4.11Z" transform="translate(-389.328 -197.619)" fill="#76aad9"/>
              <path id="Path_47691" data-name="Path 47691" d="M428.675,219.568a5.359,5.359,0,1,1-7.172,2.443A5.328,5.328,0,0,1,428.675,219.568Zm1.967,6.556a4.669,4.669,0,0,0-8.357-4.11Zm-.3.617-8.357-4.111a4.669,4.669,0,0,0,8.357,4.111Z" transform="translate(-389.671 -198.627)" fill="#76aad9"/>
              <path id="Path_47692" data-name="Path 47692" d="M435.965,240.966a5.358,5.358,0,1,1-7.173,2.443A5.315,5.315,0,0,1,435.965,240.966Zm1.965,6.554a4.669,4.669,0,0,0-8.356-4.11Zm-.3.617-8.356-4.11a4.669,4.669,0,0,0,8.356,4.11Z" transform="translate(-390.015 -199.635)" fill="#76aad9"/>
              <path id="Path_47693" data-name="Path 47693" d="M395.848,206.872a5.357,5.357,0,1,1-4.093-.264A5.323,5.323,0,0,1,395.848,206.872Zm1.826,6.87a4.675,4.675,0,0,0-1.827-6.089l-4.11,8.357A4.676,4.676,0,0,0,397.674,213.742Zm-6.554,1.964,4.11-8.357a4.669,4.669,0,0,0-4.11,8.357Z" transform="translate(-388.125 -198.029)" fill="#76aad9"/>
              <path id="Path_47694" data-name="Path 47694" d="M410.425,249.665a5.358,5.358,0,1,1-7.173,2.444A5.322,5.322,0,0,1,410.425,249.665Zm1.826,6.869a4.674,4.674,0,0,0-1.826-6.087l-4.11,8.356A4.672,4.672,0,0,0,412.251,256.534ZM405.7,258.5l4.11-8.356a4.668,4.668,0,0,0-4.11,8.356Z" transform="translate(-388.812 -200.044)" fill="#76aad9"/>
              <path id="Path_47695" data-name="Path 47695" d="M403.136,228.268a5.359,5.359,0,1,1-7.172,2.443A5.366,5.366,0,0,1,403.136,228.268Zm1.827,6.87a4.676,4.676,0,0,0-1.828-6.089l-4.109,8.358A4.675,4.675,0,0,0,404.963,235.138Zm-6.554,1.965,4.11-8.356a4.668,4.668,0,0,0-4.11,8.356Z" transform="translate(-388.468 -199.037)" fill="#76aad9"/>
            </g>
          </g>
        </g>
      </g>
      <g id="Group_48350" data-name="Group 48350" transform="translate(9.678 270.993)">
        <g id="Group_48332" data-name="Group 48332" transform="translate(0 38.084)">
          <path id="Path_47696" data-name="Path 47696" d="M71.8,392.117c3.812,3.9,6.519,7.182,8.823,9.774h22.026L96.8,395s-.844-1-2.377-2.554C84.341,382.211,75.09,378.38,75.09,378.38c-5.5-2.321-15.238-6.428-23.5-1.957a17.489,17.489,0,0,0-5.6,4.9A95.456,95.456,0,0,1,62.273,385.7a22.785,22.785,0,0,1,7.291,4.178C70.013,390.281,70.609,390.894,71.8,392.117Z" transform="translate(-45.986 -374.425)" fill="#2cbf7b"/>
        </g>
        <g id="Group_48333" data-name="Group 48333" transform="translate(25.818 42.039)">
          <path id="Path_47697" data-name="Path 47697" d="M95.823,402.086a19.462,19.462,0,0,0-.121-9.442c-3.5-3.551-10.572-10-19.335-14.069-.31,2.216-.4,4.543-.721,6.148a32.22,32.22,0,0,1-2.565,7.589c3.812,3.9,6.519,7.182,8.823,9.774Z" transform="translate(-73.08 -378.575)" fill="#2da66d"/>
        </g>
        <g id="Group_48334" data-name="Group 48334" transform="translate(28.663)">
          <path id="Path_47698" data-name="Path 47698" d="M82.715,381.091c3.267,8.818,7.858,15.355,12.779,18.917H109.7a12.044,12.044,0,0,0,.683-3.651c.7-12.861-10.024-40.8-10.024-40.8a75.35,75.35,0,0,0-8.464-9.975c-4.13-4.112-9.518-8.516-15.589-11.127-.43-.184-.905,20.248,4.365,40.165Q81.577,378.032,82.715,381.091Z" transform="translate(-76.065 -334.459)" fill="#2cbf7b"/>
        </g>
        <g id="Group_48335" data-name="Group 48335" transform="translate(28.908 0.004)">
          <path id="Path_47699" data-name="Path 47699" d="M90.118,370.751l0,.039a14.8,14.8,0,0,1-1.657,5.658,12.9,12.9,0,0,1-5.729,4.643c3.267,8.818,7.858,15.355,12.779,18.917h11.681a24.033,24.033,0,0,0,3.211-3.651c.7-12.861-10.024-40.8-10.024-40.8a75.346,75.346,0,0,0-8.464-9.975q-.384,6.554-.769,13.107-.031.547-.065,1.095c-2.376-5-8.768-17.909-14.755-25.326.146.259,8.6,15.349,13.045,28.523A17.016,17.016,0,0,1,90.118,370.751Z" transform="translate(-76.323 -334.463)" fill="#2da66d"/>
        </g>
        <g id="Group_48337" data-name="Group 48337" transform="translate(31.352 3.414)">
          <g id="Group_48336" data-name="Group 48336">
            <path id="Path_47700" data-name="Path 47700" d="M79.329,338.041l-.441.312c15.257,21.6,22.8,42.662,22.419,62.606l.54.01a87.882,87.882,0,0,0-6.257-33.2A137.768,137.768,0,0,0,79.329,338.041Z" transform="translate(-78.888 -338.041)" fill="#027369"/>
          </g>
        </g>
        <g id="Group_48338" data-name="Group 48338" transform="translate(45.839 3.097)">
          <path id="Path_47701" data-name="Path 47701" d="M100.81,391.572q.342.881.69,1.691a35.562,35.562,0,0,0,3.8,6.9h11.449l10.875-29.367a47.413,47.413,0,0,0-2.636-6.146c-.128-.255-.262-.517-.4-.783-3.908-7.514-11.937-19.271-26.049-25.548-.46-.2-.928-.4-1.4-.6v0c-1.056-.43-6.282,11.743,0,41.118A83.289,83.289,0,0,0,100.81,391.572Z" transform="translate(-94.091 -337.708)" fill="#2cbf7b"/>
        </g>
        <g id="Group_48339" data-name="Group 48339" transform="translate(48.882 3.11)">
          <path id="Path_47702" data-name="Path 47702" d="M107.827,385.753q-3.135,2.914-6.485,5.524-.19.149-.382.3.342.881.69,1.691a35.563,35.563,0,0,0,3.8,6.9H116.9L127.773,370.8a47.412,47.412,0,0,0-2.636-6.146c-.128-.255-.262-.517-.4-.783q-.526,1.245-1.153,2.466a55.291,55.291,0,0,1-6.788,9.926c-.212.254-.423.508-.638.759-2.127-5.735-10.08-26.612-17.47-38.7-.46-.2-.928-.4-1.4-.6.1.2,10.783,22.691,13.71,38.531A10.406,10.406,0,0,1,107.827,385.753Z" transform="translate(-97.284 -337.722)" fill="#2da66d"/>
        </g>
        <g id="Group_48341" data-name="Group 48341" transform="translate(50.362 4.736)">
          <g id="Group_48340" data-name="Group 48340">
            <path id="Path_47703" data-name="Path 47703" d="M99.288,339.429l-.451.3a132.188,132.188,0,0,1,19.994,51.329l.534-.087a132.3,132.3,0,0,0-7.4-26.965A131.639,131.639,0,0,0,99.288,339.429Z" transform="translate(-98.837 -339.429)" fill="#027369"/>
          </g>
        </g>
        <g id="Group_48342" data-name="Group 48342" transform="translate(62.432 5.582)">
          <path id="Path_47704" data-name="Path 47704" d="M139.343,355.867c-8,3.25-13.084,10.91-17.421,18.773a126.593,126.593,0,0,0-8.581,18.675c-.014.038-.028.076-.039.113a44.349,44.349,0,0,0-1.8,6.855H140a86.778,86.778,0,0,0,6.584-7.657q.575-.752,1.133-1.517.966-1.324,1.882-2.684.6-.888,1.177-1.789c8.455-13.2,13.61-28.8,15.982-46.321A114.232,114.232,0,0,1,139.343,355.867Z" transform="translate(-111.504 -340.317)" fill="#2cbf7b"/>
        </g>
        <g id="Group_48343" data-name="Group 48343" transform="translate(69.617 7.686)">
          <path id="Path_47705" data-name="Path 47705" d="M123.712,393.1c-1.77,2.712-3.341,5.179-4.668,7.292h21.307c2.134-2.226,3.994-4.636,5.971-6.976q.293-.347.616-.68.575-.752,1.133-1.517.966-1.324,1.882-2.684a31.641,31.641,0,0,1-9.783,2.439l-.1.009c-3.463.279-5.923-.908-5.632-4.652.215-2.744,1.632-5.469,3.005-7.747,2.84-4.717,6.686-9.08,10.1-13.4q4.591-5.815,9.374-11.477c3.184-3.777,6.4-7.53,9.731-11.18C153.2,350.105,134.7,376.245,123.712,393.1Z" transform="translate(-119.044 -342.525)" fill="#2da66d"/>
        </g>
        <g id="Group_48345" data-name="Group 48345" transform="translate(62.432 58.258)">
          <g id="Group_48344" data-name="Group 48344" transform="translate(0)">
            <path id="Path_47706" data-name="Path 47706" d="M118.689,402.888c1.327-2.113,2.9-4.58,4.668-7.292a96.266,96.266,0,0,1-10.016.323c-.014.038-.028.076-.039.113a44.348,44.348,0,0,0-1.8,6.855Z" transform="translate(-111.504 -395.596)" fill="#2da66d"/>
          </g>
        </g>
        <g id="Group_48347" data-name="Group 48347" transform="translate(8.316 40.575)">
          <g id="Group_48346" data-name="Group 48346">
            <path id="Path_47707" data-name="Path 47707" d="M93.422,402.835h.642c-5.489-8.606-12.288-17.621-21.8-22.08-4.767-2.234-10.336-3.414-17.527-3.716l-.023.54c7.117.3,12.62,1.463,17.32,3.666C81.311,385.593,88.005,394.381,93.422,402.835Z" transform="translate(-54.713 -377.039)" fill="#027369"/>
          </g>
        </g>
        <g id="Group_48349" data-name="Group 48349" transform="translate(70.424 7.279)">
          <g id="Group_48348" data-name="Group 48348">
            <path id="Path_47708" data-name="Path 47708" d="M166.323,342.1c-15,13.208-39.939,45.129-46.432,58.27h.6c10.07-20.284,25.526-39.67,46.186-57.864Z" transform="translate(-119.891 -342.098)" fill="#027369"/>
          </g>
        </g>
      </g>
      <rect id="Rectangle_21291" data-name="Rectangle 21291" width="408.167" height="5.569" transform="translate(0 332.099)" fill="#293f60"/>
    </g>
  </g>
</svg>
