<svg xmlns="http://www.w3.org/2000/svg" width="414.731" height="311.018" viewBox="0 0 414.731 311.018">
  <g id="Group_50859" data-name="Group 50859" transform="translate(-59.399 -37.268)">
    <g id="Group_50858" data-name="Group 50858" transform="translate(59.399 37.268)">
      <path id="Path_52051" data-name="Path 52051" d="M62.822,330.867S33.175,243.244,44.354,188.36c8.944-43.914,41.253-87.871,88.39-80.291,38.433,6.181,48.461-17.19,63.024-35.474,28.51-35.795,77.778-44.975,107.265-24.846,26.114,17.827,36,55.756,52.577,77.2s56.7.406,82.861,48.621c30.3,55.842-6.1,157.3-6.1,157.3Z" transform="translate(-35.787 -37.268)" fill="#f0f4ff"/>
      <path id="Path_52052" data-name="Path 52052" d="M63.417,345.325c0,8.8,92.843,15.927,207.371,15.927s207.36-7.131,207.36-15.927S385.31,329.4,270.788,329.4,63.417,336.537,63.417,345.325Z" transform="translate(-63.417 -50.234)" fill="#9fbd51"/>
      <g id="Group_50817" data-name="Group 50817" transform="translate(320.728 250.566)">
        <g id="Group_50809" data-name="Group 50809">
          <path id="Path_52053" data-name="Path 52053" d="M460.183,334.082a6.977,6.977,0,0,0,.9-2.059,4.83,4.83,0,0,0-1.632-5.178,6.3,6.3,0,0,0-5.483-.394,13.165,13.165,0,0,0-2.365,1.038,32.287,32.287,0,0,0,2.033-3.347c1.017-1.938,2.019-4.584.231-6.415-1.379-1.411-3.652-1.384-5.448-1.021a22.264,22.264,0,0,0-6.771,2.761c-.564.33-1.111.688-1.649,1.065a35.031,35.031,0,0,0,3.778-8.1c1.185-3.727,2.444-9.523-1.583-12.056s-9.286.773-12.58,3.074a48.071,48.071,0,0,0-10.439,10.179,76.187,76.187,0,0,0-6.291,9.67,6.3,6.3,0,0,0-.51-2.59c-1.224-2.718-4.238-.965-5.825.327a21.37,21.37,0,0,0-7.507,13.039Z" transform="translate(-399.041 -299.472)" fill="#9fbd51"/>
        </g>
        <g id="Group_50810" data-name="Group 50810" transform="translate(26.624 12.848)">
          <path id="Path_52054" data-name="Path 52054" d="M433.5,313.075a94.274,94.274,0,0,0-6.593,22.957c-.056.379.526.544.585.158a93.617,93.617,0,0,1,6.531-22.809c.152-.353-.368-.662-.523-.306Z" transform="translate(-426.902 -312.917)" fill="#402013"/>
        </g>
        <g id="Group_50811" data-name="Group 50811" transform="translate(38.43 21.477)">
          <path id="Path_52055" data-name="Path 52055" d="M449.064,322.031a40.63,40.63,0,0,0-9.786,14.418c-.142.362.441.515.583.161a39.939,39.939,0,0,1,9.632-14.152c.284-.269-.146-.7-.428-.427Z" transform="translate(-439.256 -321.946)" fill="#402013"/>
        </g>
        <g id="Group_50812" data-name="Group 50812" transform="translate(50.798 28.864)">
          <path id="Path_52056" data-name="Path 52056" d="M458.078,329.726c-2.488,1.609-4.308,4.506-5.833,6.983-.205.331.315.635.521.3a39.771,39.771,0,0,1,2.648-3.8,12.9,12.9,0,0,1,2.97-2.966c.325-.21.022-.733-.306-.521Z" transform="translate(-452.198 -329.676)" fill="#402013"/>
        </g>
        <g id="Group_50813" data-name="Group 50813" transform="translate(7.336 24.529)">
          <path id="Path_52057" data-name="Path 52057" d="M408.81,325.344a38.467,38.467,0,0,0-2.092,11.318.3.3,0,0,0,.606,0,37.837,37.837,0,0,1,2.069-11.157c.128-.364-.454-.523-.583-.161Z" transform="translate(-406.718 -325.139)" fill="#402013"/>
        </g>
        <g id="Group_50814" data-name="Group 50814" transform="translate(25.12 23.132)">
          <path id="Path_52058" data-name="Path 52058" d="M425.346,324.047q1.155,3.38,2.621,6.649c.16.358.679.052.52-.3q-1.422-3.194-2.559-6.5c-.123-.367-.711-.21-.582.16Z" transform="translate(-425.328 -323.678)" fill="#402013"/>
        </g>
        <g id="Group_50815" data-name="Group 50815" transform="translate(52.986 29.117)">
          <path id="Path_52059" data-name="Path 52059" d="M454.536,330.229a19.81,19.81,0,0,0,.037,3.221c.034.387.64.387.6,0a19.518,19.518,0,0,1-.037-3.221c.026-.384-.579-.384-.6,0Z" transform="translate(-454.487 -329.94)" fill="#402013"/>
        </g>
        <g id="Group_50816" data-name="Group 50816" transform="translate(7.902 29.304)">
          <path id="Path_52060" data-name="Path 52060" d="M409.2,330.235l-1.816,2.182c-.246.3.175.73.427.43l1.816-2.182c.247-.3-.179-.724-.427-.43Z" transform="translate(-407.31 -330.136)" fill="#402013"/>
        </g>
      </g>
      <g id="Group_50826" data-name="Group 50826" transform="translate(77.197 28.229)">
        <g id="Group_50818" data-name="Group 50818" transform="translate(2.206 22.833)">
          <path id="Path_52061" data-name="Path 52061" d="M448.164,92.613h-300.7a.956.956,0,1,1,0-1.911h300.7a.956.956,0,0,1,0,1.911Z" transform="translate(-146.508 -90.702)" fill="#cdcdcd"/>
          <path id="Path_52062" data-name="Path 52062" d="M448.164,128.613h-300.7a.956.956,0,1,1,0-1.911h300.7a.956.956,0,0,1,0,1.911Z" transform="translate(-146.508 -92.3)" fill="#cdcdcd"/>
          <path id="Path_52063" data-name="Path 52063" d="M448.164,164.613h-300.7a.956.956,0,1,1,0-1.911h300.7a.956.956,0,0,1,0,1.911Z" transform="translate(-146.508 -93.898)" fill="#cdcdcd"/>
          <path id="Path_52064" data-name="Path 52064" d="M448.164,200.613h-300.7a.956.956,0,1,1,0-1.911h300.7a.956.956,0,0,1,0,1.911Z" transform="translate(-146.508 -95.495)" fill="#cdcdcd"/>
          <path id="Path_52065" data-name="Path 52065" d="M448.164,236.612h-300.7a.956.956,0,0,1,0-1.911h300.7a.956.956,0,0,1,0,1.911Z" transform="translate(-146.508 -97.093)" fill="#cdcdcd"/>
        </g>
        <g id="Group_50819" data-name="Group 50819" transform="translate(21.876 32.826)">
          <rect id="Rectangle_22654" data-name="Rectangle 22654" width="21.024" height="25.265" transform="translate(0 102.351)" fill="#cf361f"/>
          <rect id="Rectangle_22655" data-name="Rectangle 22655" width="21.023" height="61.932" transform="translate(40.375 65.684)" fill="#7a97ed"/>
          <rect id="Rectangle_22656" data-name="Rectangle 22656" width="21.024" height="90.948" transform="translate(80.75 36.668)" fill="#577d35"/>
          <rect id="Rectangle_22657" data-name="Rectangle 22657" width="21.024" height="48.221" transform="translate(121.125 79.394)" fill="#4863b3"/>
          <rect id="Rectangle_22658" data-name="Rectangle 22658" width="21.024" height="113.587" transform="translate(161.499 14.029)" fill="#9fbd51"/>
          <rect id="Rectangle_22659" data-name="Rectangle 22659" width="21.024" height="82.339" transform="translate(201.874 45.277)" fill="#7a97ed"/>
          <rect id="Rectangle_22660" data-name="Rectangle 22660" width="21.024" height="127.616" transform="translate(242.249)" fill="#ffc557"/>
        </g>
        <g id="Group_50825" data-name="Group 50825">
          <g id="Group_50820" data-name="Group 50820" transform="translate(2.206 12.319)">
            <path id="Path_52066" data-name="Path 52066" d="M147.465,228.777a.956.956,0,0,1-.573-1.721l109.975-82.339a.954.954,0,0,1,1.24.082L299.3,185.114l38.063-64.805a.956.956,0,0,1,1.43-.256l39.649,32.376,61.693-72.395a.955.955,0,0,1,1.454,1.239l-62.3,73.108a.955.955,0,0,1-1.332.12l-39.511-32.264-38.117,64.9a.957.957,0,0,1-1.493.2l-41.482-40.6-109.32,81.849A.954.954,0,0,1,147.465,228.777Z" transform="translate(-146.508 -79.699)" fill="#595959"/>
          </g>
          <g id="Group_50822" data-name="Group 50822" transform="translate(0 157.28)">
            <g id="Group_50821" data-name="Group 50821">
              <path id="Path_52067" data-name="Path 52067" d="M149.256,237.086a3.162,3.162,0,1,1,.635-4.426A3.164,3.164,0,0,1,149.256,237.086Z" transform="translate(-144.199 -231.393)" fill="#595959"/>
            </g>
          </g>
          <g id="Group_50824" data-name="Group 50824" transform="translate(289.678)">
            <g id="Group_50823" data-name="Group 50823">
              <path id="Path_52068" data-name="Path 52068" d="M456.038,86.761l9.488-19.953-18.2,12.534Z" transform="translate(-447.331 -66.808)" fill="#595959"/>
            </g>
          </g>
        </g>
      </g>
      <g id="Group_50829" data-name="Group 50829" transform="translate(93.294 27.315)">
        <path id="Path_52069" data-name="Path 52069" d="M196.882,65.852a35.836,35.836,0,1,0,35.836,35.837A35.878,35.878,0,0,0,196.882,65.852Z" transform="translate(-161.044 -65.852)" fill="#595959"/>
        <g id="Group_50827" data-name="Group 50827" transform="translate(3.699 3.697)">
          <path id="Path_52070" data-name="Path 52070" d="M228.311,101.9A31.214,31.214,0,1,1,197.1,70.689,31.214,31.214,0,0,1,228.311,101.9Z" transform="translate(-164.958 -69.764)" fill="#fff"/>
          <path id="Path_52071" data-name="Path 52071" d="M197.053,134a32.139,32.139,0,1,1,32.138-32.139A32.175,32.175,0,0,1,197.053,134Zm0-62.429a30.29,30.29,0,1,0,30.29,30.289A30.321,30.321,0,0,0,197.053,71.57Z" transform="translate(-164.915 -69.721)" fill="#cdcdcd"/>
        </g>
        <g id="Group_50828" data-name="Group 50828" transform="translate(10.647 10.648)">
          <path id="Path_52072" data-name="Path 52072" d="M198.7,81.025a.2.2,0,0,0,.2-.2l-.007-3.632a.2.2,0,0,0-.2-.2h-.423a.2.2,0,0,0-.2.2l0,3.634a.2.2,0,0,0,.2.2Z" transform="translate(-173.335 -76.995)" fill="#402013"/>
          <path id="Path_52073" data-name="Path 52073" d="M198.781,125.493h-.423a.2.2,0,0,0-.2.2l0,3.633a.2.2,0,0,0,.2.2h.422a.2.2,0,0,0,.2-.2l-.007-3.634A.2.2,0,0,0,198.781,125.493Z" transform="translate(-173.339 -79.147)" fill="#402013"/>
          <path id="Path_52074" data-name="Path 52074" d="M176.22,103.588l0-.424a.193.193,0,0,0-.06-.14.172.172,0,0,0-.137-.057l-3.634.008a.2.2,0,0,0-.2.2l0,.423a.2.2,0,0,0,.2.2l3.634-.008A.2.2,0,0,0,176.22,103.588Z" transform="translate(-172.186 -78.148)" fill="#402013"/>
          <path id="Path_52075" data-name="Path 52075" d="M224.716,103.073a.2.2,0,0,0-.2-.2l-3.633.009a.2.2,0,0,0-.2.2v.422a.2.2,0,0,0,.2.2l3.637-.006a.2.2,0,0,0,.2-.2Z" transform="translate(-174.338 -78.144)" fill="#402013"/>
          <path id="Path_52076" data-name="Path 52076" d="M186.752,122.186a.2.2,0,0,0-.273.066l-1.88,3.111a.2.2,0,0,0,.067.271l.363.219a.181.181,0,0,0,.1.028.185.185,0,0,0,.172-.1l1.878-3.107a.206.206,0,0,0,.027-.152.21.21,0,0,0-.094-.123Z" transform="translate(-172.736 -78.999)" fill="#402013"/>
          <path id="Path_52077" data-name="Path 52077" d="M210.112,84.346a.181.181,0,0,0,.1.03.161.161,0,0,0,.045-.006.2.2,0,0,0,.126-.09l1.881-3.111a.2.2,0,0,0-.067-.273l-.362-.218a.2.2,0,0,0-.274.067l-1.878,3.111a.2.2,0,0,0-.024.15.2.2,0,0,0,.092.122Z" transform="translate(-173.849 -77.157)" fill="#402013"/>
          <path id="Path_52078" data-name="Path 52078" d="M179.072,114.27h0a.2.2,0,0,0-.269-.071l-3.143,1.824a.2.2,0,0,0-.094.12.2.2,0,0,0,.017.151l.216.367a.192.192,0,0,0,.168.1.208.208,0,0,0,.1-.027l3.14-1.822a.2.2,0,0,0,.075-.273Z" transform="translate(-172.336 -78.645)" fill="#402013"/>
          <path id="Path_52079" data-name="Path 52079" d="M217.863,92.406a.18.18,0,0,0,.051.008.188.188,0,0,0,.1-.027l3.145-1.824a.2.2,0,0,0,.071-.27l-.214-.364a.179.179,0,0,0-.119-.095.181.181,0,0,0-.148.021L217.6,91.679a.2.2,0,0,0-.07.27l.21.363A.2.2,0,0,0,217.863,92.406Z" transform="translate(-174.197 -77.564)" fill="#402013"/>
          <path id="Path_52080" data-name="Path 52080" d="M186.529,84.414a.135.135,0,0,0,.047.007.191.191,0,0,0,.1-.03l.361-.22a.2.2,0,0,0,.066-.272l-1.893-3.1a.192.192,0,0,0-.123-.09.185.185,0,0,0-.15.022l-.361.221a.2.2,0,0,0-.065.272l1.89,3.1A.193.193,0,0,0,186.529,84.414Z" transform="translate(-172.732 -77.159)" fill="#402013"/>
          <path id="Path_52081" data-name="Path 52081" d="M210.456,122.207a.188.188,0,0,0-.118-.09.207.207,0,0,0-.153.023l-.363.222a.2.2,0,0,0-.064.272l1.892,3.1a.2.2,0,0,0,.123.092.278.278,0,0,0,.046.007.2.2,0,0,0,.1-.031l.361-.22a.2.2,0,0,0,.066-.273Z" transform="translate(-173.852 -78.997)" fill="#402013"/>
          <path id="Path_52082" data-name="Path 52082" d="M178.758,92.463a.2.2,0,0,0,.1.027.191.191,0,0,0,.054-.009.2.2,0,0,0,.119-.092l.213-.368a.205.205,0,0,0-.074-.271l-3.154-1.811a.2.2,0,0,0-.269.073l-.212.37a.2.2,0,0,0,.075.269Z" transform="translate(-172.333 -77.568)" fill="#402013"/>
          <path id="Path_52083" data-name="Path 52083" d="M218.054,114.124a.2.2,0,0,0-.15-.019.192.192,0,0,0-.121.093l-.21.369a.2.2,0,0,0,.072.269l3.151,1.812a.206.206,0,0,0,.1.026.19.19,0,0,0,.168-.1l.213-.367a.2.2,0,0,0-.071-.273Z" transform="translate(-174.199 -78.642)" fill="#402013"/>
        </g>
        <path id="Path_52084" data-name="Path 52084" d="M199.7,100.628h-2.429l1.073-15.18a.139.139,0,0,1,.278,0Z" transform="translate(-162.652 -66.716)" fill="#402013"/>
        <path id="Path_52085" data-name="Path 52085" d="M199.155,104.511v-2.43l11.376,1.142a.074.074,0,0,1,0,.147Z" transform="translate(-162.735 -67.46)" fill="#402013"/>
        <path id="Path_52086" data-name="Path 52086" d="M200.82,103.242a2.386,2.386,0,1,1-2.386-2.386A2.385,2.385,0,0,1,200.82,103.242Z" transform="translate(-162.598 -67.406)" fill="#cdcdcd"/>
      </g>
      <g id="Group_50832" data-name="Group 50832" transform="translate(234.294 136.904)">
        <g id="Group_50830" data-name="Group 50830" transform="translate(25.916 156.11)">
          <path id="Path_52087" data-name="Path 52087" d="M336.617,343.891l.158,3.838h4.392l.336-3.838Z" transform="translate(-335.752 -343.891)" fill="#ff9b7d"/>
          <path id="Path_52088" data-name="Path 52088" d="M340.806,354.734a1.05,1.05,0,0,0,.913-.5,2.941,2.941,0,0,0,.369-1.712,23.463,23.463,0,0,0-.527-3.024,8.054,8.054,0,0,0-.434-1.694l-4.4.058a10.922,10.922,0,0,0-.837,2.64,6.011,6.011,0,0,0,.218,3.673,1.055,1.055,0,0,0,.948.558Z" transform="translate(-335.712 -344.064)" fill="#1f0f09"/>
        </g>
        <g id="Group_50831" data-name="Group 50831" transform="translate(47.499 156.11)">
          <path id="Path_52089" data-name="Path 52089" d="M363.849,343.891l-.157,3.838H359.3l-.337-3.838Z" transform="translate(-358.328 -343.891)" fill="#ff9b7d"/>
          <path id="Path_52090" data-name="Path 52090" d="M359.59,354.734a1.049,1.049,0,0,1-.913-.5,2.918,2.918,0,0,1-.368-1.712,23.311,23.311,0,0,1,.526-3.024,7.943,7.943,0,0,1,.433-1.694l4.4.058a10.966,10.966,0,0,1,.837,2.64,6.024,6.024,0,0,1-.218,3.673,1.051,1.051,0,0,1-.947.558Z" transform="translate(-358.298 -344.064)" fill="#1f0f09"/>
        </g>
        <path id="Path_52091" data-name="Path 52091" d="M367.313,266.733H332.538c-1.752,9.057.524,24.573.979,35.783.259,6.417-2.04,15.392,2.027,38.881l6.385-.128c5.06-19.753,3.079-28.392,4.339-35.028,1.209-6.368,2.835-17.865,3.435-21.47.6,3.6,3.14,14.723,4.209,22.066.679,4.677-.755,16.944,3.564,34.56l6.035.2c4.591-19.96,2.036-32.114,1.851-39.463C365.147,293.657,368.412,281.485,367.313,266.733Z" transform="translate(-309.626 -184.356)" fill="#622f2a"/>
        <path id="Path_52092" data-name="Path 52092" d="M347.388,201.47l-.224,4.025s4.134.891,7.155-.087c0,0-.051-1.979-.074-3.938Z" transform="translate(-310.305 -181.46)" fill="#ff9b7d"/>
        <path id="Path_52093" data-name="Path 52093" d="M359.527,186.425a5.755,5.755,0,0,0-1.992-4.259,6.293,6.293,0,0,0-8.053-.339c-2.58-.294-5.613-.209-7.329,2.033a5.4,5.4,0,0,0-1,3.587,4.8,4.8,0,0,0,1.306,3.293,14.828,14.828,0,0,0,1.515,6.785,9.084,9.084,0,0,0,5.114,4.868.143.143,0,0,0,.16-.064c.019-.037.042-.072.063-.108a2.943,2.943,0,0,0,3.043,1.386.143.143,0,0,0,.085-.207,1.312,1.312,0,0,1-.181-.652,1.411,1.411,0,0,0,.915.579c.509.037.8-.6,1.131-.924a13.855,13.855,0,0,0,2.871-4.251,15.638,15.638,0,0,0,1.708-9.45A4.644,4.644,0,0,0,359.527,186.425Z" transform="translate(-310.037 -180.53)" fill="#402013"/>
        <path id="Path_52094" data-name="Path 52094" d="M381.079,221.316c-2.848-2.7-8.47-7.9-11.263-10.067-2.712-2.109-5.285-2.951-8.5-4.03-2.456-.824-5.854-1.651-8.347-2.352a8.956,8.956,0,0,1-3.564.571,8.169,8.169,0,0,1-3.535-.571c-2.487.7-6.5,1.531-8.952,2.352-3.213,1.079-5.784,1.921-8.494,4.03-2.8,2.172-8.417,7.369-11.265,10.067,0,0,7.125,11.581,9.406,15.2,0,0,2.409-1.906,3.932-3.008,1.908,13.438-.276,37.4-.276,37.4s11.991,4.275,37.647-.1c0,0-2.576-24.8-.182-37.117,1.524,1.1,3.985,2.821,3.985,2.821C373.954,232.9,381.079,221.316,381.079,221.316Z" transform="translate(-308.973 -181.61)" fill="#ffdec9"/>
        <path id="Path_52095" data-name="Path 52095" d="M334.7,251.3a1.843,1.843,0,0,0-.785-.119c-.348-.012-.694-.007-1.038-.02a7.651,7.651,0,0,1-2.3-.437,27.6,27.6,0,0,1-2.734-1.178c-2.679-4.867-5.918-10.633-8.121-15.734l2.938-2.177c-1.713-2.936-5.526-8.956-5.526-8.956a56.184,56.184,0,0,0-5.507,5.111c-1.666,1.789-3.427,3.633-2.956,6.242.655,3.645,17.061,19.216,17.061,19.216.575,2.45,3.273,4.5,4.912,6.1a39.392,39.392,0,0,0,.2-5.944,24.05,24.05,0,0,1,2.616-.664c.474-.074,1.153-.086,1.445-.545A.606.606,0,0,0,334.7,251.3Z" transform="translate(-308.593 -182.401)" fill="#ff9b7d"/>
        <path id="Path_52096" data-name="Path 52096" d="M365.2,251.3a1.835,1.835,0,0,1,.784-.119c.348-.012.692-.007,1.039-.02a7.675,7.675,0,0,0,2.3-.437,27.569,27.569,0,0,0,2.732-1.178c2.681-4.867,5.917-10.633,8.122-15.734l-2.88-2.133c1.714-2.936,5.522-8.953,5.522-8.953a54.884,54.884,0,0,1,5.453,5.064c1.667,1.789,3.429,3.633,2.959,6.242-.658,3.645-17.064,19.217-17.064,19.217-.574,2.45-3.415,5.038-5.053,6.634,0,0-.371-4.09-.315-6.94a22.752,22.752,0,0,1-2.361-.2c-.474-.074-1.152-.086-1.442-.545A.6.6,0,0,1,365.2,251.3Z" transform="translate(-311.091 -182.403)" fill="#ff9b7d"/>
        <path id="Path_52097" data-name="Path 52097" d="M331.4,233.945q-.566-6.093-.913-12.207a.141.141,0,0,0-.281.013q.345,6.112.912,12.206c.017.182.3.168.282-.012Z" transform="translate(-309.552 -182.353)" fill="#e6b08e"/>
        <path id="Path_52098" data-name="Path 52098" d="M369.861,234.221q.589-6.092.958-12.2a.141.141,0,0,0-.282-.014q-.371,6.111-.958,12.2c-.018.181.264.194.281.014Z" transform="translate(-311.3 -182.365)" fill="#e6b08e"/>
        <path id="Path_52099" data-name="Path 52099" d="M337.9,252.288q1.916-5.751,3.835-11.5c.055-.174-.215-.248-.271-.075q-1.919,5.747-3.837,11.5c-.056.172.217.246.273.075Z" transform="translate(-309.881 -183.197)" fill="#e6b08e"/>
        <path id="Path_52100" data-name="Path 52100" d="M341.4,248.274a30.478,30.478,0,0,0,4.013-12.709c.016-.181-.266-.18-.281,0a30.161,30.161,0,0,1-3.974,12.567.14.14,0,0,0,.242.141Z" transform="translate(-310.037 -182.967)" fill="#e6b08e"/>
        <path id="Path_52101" data-name="Path 52101" d="M350.672,284.97c.131-1.772.129-2.727.129-6.734,0-.182-.281-.161-.281.02,0,4.006-.082,5.571-.128,6.734-.008.181.276.16.28-.02Z" transform="translate(-310.448 -184.861)" fill="#1f0f09"/>
      </g>
      <g id="Group_50835" data-name="Group 50835" transform="translate(25.766 126.163)">
        <g id="Group_50833" data-name="Group 50833" transform="translate(13.752 151.694)">
          <path id="Path_52102" data-name="Path 52102" d="M84.77,341.338l4.216.088.7-10.568-5.806.222Z" transform="translate(-83.882 -330.858)" fill="#824938"/>
          <path id="Path_52103" data-name="Path 52103" d="M93.533,343.58a18.879,18.879,0,0,0-2.466-1.416,21.441,21.441,0,0,1-2-1.03c-1.415.5-4.344-.142-4.344-.142-.129.987-.763,4.343.5,5.2,1.281.87,4.059.9,5.757.838,1.355-.05,4.081.018,3.992-1.579C94.926,344.623,94.158,344.034,93.533,343.58Z" transform="translate(-83.907 -331.308)" fill="#1f0f09"/>
        </g>
        <g id="Group_50834" data-name="Group 50834" transform="translate(36.533 151.694)">
          <path id="Path_52104" data-name="Path 52104" d="M108.683,341.3l4.227.078.687-10.517h-5.876Z" transform="translate(-107.721 -330.858)" fill="#824938"/>
          <path id="Path_52105" data-name="Path 52105" d="M117.445,343.58a18.815,18.815,0,0,0-2.466-1.416,21.567,21.567,0,0,1-2-1.03c-1.414.5-4.345-.142-4.345-.142-.126.987-.761,4.343.5,5.2,1.281.87,4.059.9,5.757.838,1.355-.05,4.081.018,3.992-1.579C118.839,344.623,118.07,344.034,117.445,343.58Z" transform="translate(-107.749 -331.308)" fill="#1f0f09"/>
        </g>
        <path id="Path_52106" data-name="Path 52106" d="M132.981,230.878a2.35,2.35,0,0,0-3.214-.1,6.534,6.534,0,0,0-1.506,1.82c-.471.745-.965,1.466-1.506,2.161q-2.117,1.046-4.282,1.988l1.5,4.022a39.876,39.876,0,0,1,4.853-.934c1.176-.243,2.289-.272,3.2-1.176a4.361,4.361,0,0,0,1.713-3.819C133.825,233.523,133.94,231.937,132.981,230.878Z" transform="translate(-71.842 -174.697)" fill="#824938"/>
        <path id="Path_52107" data-name="Path 52107" d="M80.174,304.408c.053,8.138,1.035,27.352,1.385,29.013H92.133c1.973-16.879,4.533-33.221,6.493-49.664,1.485,10.007,2.289,20.2,3.32,30.279.374,3.64,1.577,16.525,2.035,19.386h10.274c.55-9.169.987-29.02,1.038-36.849a410.59,410.59,0,0,0-1.755-45.284H80.618C80.72,268.977,80.07,286.717,80.174,304.408Z" transform="translate(-69.964 -175.633)" fill="#577d35"/>
        <path id="Path_52108" data-name="Path 52108" d="M99.906,197.217l-.049-2.584c1.115.385,2.918.484,3.886-.369,1.879-1.65,2.491-5.222,1.7-9.184a16,16,0,0,0-1.064-4.285c-.626-1.822-2.537-2.867-6.4-2.063-1.7.354-4.265,9.242-4.407,9.225a4.441,4.441,0,0,1-.906,2.614c-.083,2.421-.326,6.274-.326,6.274C95.5,198,99.906,197.217,99.906,197.217Z" transform="translate(-70.505 -172.4)" fill="#824938"/>
        <path id="Path_52109" data-name="Path 52109" d="M99.962,195.234a7.672,7.672,0,0,1-3.3-1.861c-.132-.137-.355.061-.22.2a7.973,7.973,0,0,0,3.426,1.944c.184.056.278-.225.1-.282Z" transform="translate(-70.685 -173.06)" fill="#622f2a"/>
        <path id="Path_52110" data-name="Path 52110" d="M122.748,239.665l-.461-6.312s-3.46.333-5.908.659c0,0-1.681-19.928-4.04-26.339-1.737-4.72-4.992-6.7-12.754-9l-.484-1.826h-8.21l-.731,1.839c-5.313,2.164-10.63,2.295-13.9,7.769-3.149,5.268-9.993,26.736-5,33.371,1.689,2.242,7.479,1.74,7.479,1.74.106,2.644.361,5.869,1.4,7.309h32.92c.136-2.395.423-7.923.423-7.923C119.243,240.117,122.748,239.665,122.748,239.665Z" transform="translate(-69.491 -173.216)" fill="#ffc557"/>
        <path id="Path_52111" data-name="Path 52111" d="M99.7,284.524q.536-8.907,1.071-17.813.077-1.267.153-2.533c.011-.181-.271-.181-.282,0q-.535,8.909-1.072,17.813-.075,1.266-.154,2.533c-.01.183.274.181.284,0Z" transform="translate(-70.819 -176.199)" fill="#37591a"/>
        <path id="Path_52112" data-name="Path 52112" d="M79.3,243.658c1.879-.2,3.753-.462,5.618-.758a41.3,41.3,0,0,0,9.1-2.169c.167-.069.1-.341-.073-.272a40.97,40.97,0,0,1-8.931,2.142c-1.9.306-3.805.574-5.716.775-.18.019-.182.3,0,.283Z" transform="translate(-69.92 -175.152)" fill="#ffad12"/>
        <path id="Path_52113" data-name="Path 52113" d="M93.29,234.885c-2.619-.277-5.264-.392-7.889-.578-3.2-.226-6.407-.488-9.615-.629-.179-.008-.179.276,0,.284,3.208.139,6.411.4,9.615.627,2.625.186,5.269.3,7.889.58.179.017.177-.265,0-.284Z" transform="translate(-69.764 -174.851)" fill="#ffad12"/>
        <path id="Path_52114" data-name="Path 52114" d="M83.37,206.248c2.112,4.008,1.868,8.894,1.384,13.265-.509,4.593-2.373,8.947-3.847,13.287-.055.172.215.247.271.076,1.517-4.461,3.411-8.919,3.887-13.645.441-4.353.653-9.135-1.451-13.126-.085-.16-.331-.016-.245.143Z" transform="translate(-69.997 -173.624)" fill="#ffad12"/>
        <path id="Path_52115" data-name="Path 52115" d="M91.174,199.127c3.09.1,6.181.082,9.27.053a.141.141,0,0,0,0-.282c-3.089.027-6.18.05-9.27-.055-.183-.007-.183.278,0,.283Z" transform="translate(-70.447 -173.305)" fill="#ffad12"/>
        <path id="Path_52116" data-name="Path 52116" d="M115.427,241.229a219.5,219.5,0,0,0-1.23-26.165q-.33-3.063-.8-6.1c-.025-.182-.3-.113-.274.066,1.791,11.536,2.024,20.539,2.02,32.2a.141.141,0,0,0,.282.006Z" transform="translate(-71.427 -173.749)" fill="#ffad12"/>
        <path id="Path_52117" data-name="Path 52117" d="M104.954,221.385l-3.737,15.178a.432.432,0,0,0,.417.534h25.485a.433.433,0,0,0,.421-.329l3.732-15.153a.442.442,0,0,0-.405-.562H105.355A.421.421,0,0,0,104.954,221.385Z" transform="translate(-70.898 -174.291)" fill="#1f0f09"/>
        <path id="Path_52118" data-name="Path 52118" d="M102.892,231.193a5.525,5.525,0,0,0-1.61.249,25.364,25.364,0,0,0-3.669,2.98c-.015.015-3.348.54-3.348.54l.41,4.936s3.627-1,4.04-1.216a7.443,7.443,0,0,0,5.028-1.471,13.444,13.444,0,0,1,3.508-1.019c.9-.164,2.9-.968,2.838-2.3C110.042,232.884,105.164,231.039,102.892,231.193Z" transform="translate(-70.59 -174.74)" fill="#824938"/>
        <path id="Path_52119" data-name="Path 52119" d="M131.6,230.2c-2.294-.119-7.086,1.7-7.135,2.7-.063,1.334,1.935,2.139,2.839,2.3a13.266,13.266,0,0,1,3.507,1.018,8.848,8.848,0,0,1,.788.47Z" transform="translate(-71.931 -174.696)" fill="#824938"/>
        <path id="Path_52120" data-name="Path 52120" d="M109.349,179.741a7.349,7.349,0,0,1-.37-.951,2.118,2.118,0,0,1,.182-1.126,2.792,2.792,0,0,0,.164-1.5,3.169,3.169,0,0,0-1.985-2.278,4.7,4.7,0,0,0-1.478-.32,3.6,3.6,0,0,1-2.366-.559,2.846,2.846,0,0,0-1.482-.858,3.538,3.538,0,0,0-1.734.232,7.167,7.167,0,0,0-2.088,1.073,6.353,6.353,0,0,0-4.594-.2c-1.619.439-3.373,1.145-4.081,2.8a2.958,2.958,0,0,0-.248,1.046c-.02.514.185,1,.185,1.506a4,4,0,0,1-.569,1.539,3.832,3.832,0,0,0-.292,1.058,3.318,3.318,0,0,0,1.29,2.952,13.383,13.383,0,0,0,.674,4.292c.309.9.948,1.606,1.275,2.484a9,9,0,0,1,.4,2.974.152.152,0,0,0,.19.144c2.657-1.03,3.219-3.926,3.018-6.484a8.928,8.928,0,0,0,1.016-.911,3.063,3.063,0,0,0,.665-1.643,10.665,10.665,0,0,0-.031-2.1q-.072-1.012-.149-2.022a3.641,3.641,0,0,0,5.194,1.573c.51-.316.836-.875,1.35-1.168.8-.452,1.6.241,2.209.682a2.656,2.656,0,0,0,2.984.332A2.037,2.037,0,0,0,109.349,179.741Z" transform="translate(-70.338 -172.119)" fill="#1f0f09"/>
        <path id="Path_52121" data-name="Path 52121" d="M94.687,188.262c.558.9,1.5,1.336,2.094.967s.635-1.4.076-2.306-1.391-1.171-1.992-.8S94.128,187.357,94.687,188.262Z" transform="translate(-70.593 -172.733)" fill="#824938"/>
      </g>
      <g id="Group_50845" data-name="Group 50845" transform="translate(195.867 262.37)">
        <g id="Group_50840" data-name="Group 50840" transform="translate(0 19.455)">
          <path id="Rectangle_22661" data-name="Rectangle 22661" d="M.688,0H40.007a.688.688,0,0,1,.688.688V5.328a.688.688,0,0,1-.687.688H.686A.686.686,0,0,1,0,5.33V.688A.688.688,0,0,1,.688,0Z" transform="translate(0 0.705)" fill="#ffc557"/>
          <rect id="Rectangle_22662" data-name="Rectangle 22662" width="16.667" height="6.016" transform="translate(19.054 0.705)" fill="#ffd179"/>
          <rect id="Rectangle_22663" data-name="Rectangle 22663" width="39.333" height="0.705" transform="translate(0.682)" fill="#ffad12"/>
          <rect id="Rectangle_22664" data-name="Rectangle 22664" width="39.333" height="0.703" transform="translate(0.682 6.72)" fill="#ffad12"/>
        </g>
        <g id="Group_50841" data-name="Group 50841" transform="translate(0 12.735)">
          <path id="Rectangle_22665" data-name="Rectangle 22665" d="M.688,0h39.32a.688.688,0,0,1,.688.688V5.329a.687.687,0,0,1-.687.687H.686A.686.686,0,0,1,0,5.329V.688A.688.688,0,0,1,.688,0Z" transform="translate(0 0.705)" fill="#ffc557"/>
          <rect id="Rectangle_22666" data-name="Rectangle 22666" width="16.667" height="6.016" transform="translate(19.054 0.705)" fill="#ffd179"/>
          <rect id="Rectangle_22667" data-name="Rectangle 22667" width="39.333" height="0.705" transform="translate(0.682)" fill="#ffad12"/>
        </g>
        <g id="Group_50842" data-name="Group 50842" transform="translate(0 26.878)">
          <path id="Rectangle_22668" data-name="Rectangle 22668" d="M.688,0h39.32a.688.688,0,0,1,.688.688V5.33a.687.687,0,0,1-.687.687H.686A.686.686,0,0,1,0,5.33V.688A.688.688,0,0,1,.688,0Z" fill="#ffc557"/>
          <rect id="Rectangle_22669" data-name="Rectangle 22669" width="16.667" height="6.016" transform="translate(19.054)" fill="#ffd179"/>
        </g>
        <g id="Group_50843" data-name="Group 50843" transform="translate(0 6.719)">
          <path id="Rectangle_22670" data-name="Rectangle 22670" d="M.686,0H40.007a.688.688,0,0,1,.688.688V5.329a.687.687,0,0,1-.687.687H.686A.686.686,0,0,1,0,5.329V.686A.686.686,0,0,1,.686,0Z" fill="#ffc557"/>
          <rect id="Rectangle_22671" data-name="Rectangle 22671" width="16.667" height="6.016" transform="translate(19.054)" fill="#ffd179"/>
        </g>
        <g id="Group_50844" data-name="Group 50844">
          <path id="Rectangle_22672" data-name="Rectangle 22672" d="M.686,0H40.007a.688.688,0,0,1,.688.688V5.329a.687.687,0,0,1-.687.687H.686A.686.686,0,0,1,0,5.329V.686A.686.686,0,0,1,.686,0Z" fill="#ffc557"/>
          <rect id="Rectangle_22673" data-name="Rectangle 22673" width="16.667" height="6.016" transform="translate(19.054)" fill="#ffd179"/>
          <rect id="Rectangle_22674" data-name="Rectangle 22674" width="39.333" height="0.704" transform="translate(0.682 6.016)" fill="#ffad12"/>
        </g>
      </g>
      <g id="Group_50847" data-name="Group 50847" transform="translate(302.196 265.836)">
        <path id="Path_52140" data-name="Path 52140" d="M408.311,325.443a14.72,14.72,0,1,1-18.67-9.207A14.72,14.72,0,0,1,408.311,325.443Z" transform="translate(-379.648 -315.451)" fill="#ffc557"/>
        <path id="Path_52141" data-name="Path 52141" d="M398.327,341.571a11.9,11.9,0,1,1,7.44-15.089A11.909,11.909,0,0,1,398.327,341.571ZM390.769,319.3a11.623,11.623,0,1,0,14.742,7.27A11.636,11.636,0,0,0,390.769,319.3Z" transform="translate(-379.78 -315.582)" fill="#ffad12"/>
        <g id="Group_50846" data-name="Group 50846" transform="translate(10.738 7.879)">
          <path id="Path_52142" data-name="Path 52142" d="M397.976,332.848a1.647,1.647,0,0,0-.871-.988,4.536,4.536,0,0,0-1.9-.3,5.5,5.5,0,0,1-2.728-.474,2.929,2.929,0,0,1-1.391-1.725,3.013,3.013,0,0,1,.031-2.237,3.182,3.182,0,0,1,1.633-1.588l-.364-1.071a.584.584,0,0,1,.365-.741h0a.582.582,0,0,1,.739.366l.367,1.079a3.023,3.023,0,0,1,2.3.388,3.483,3.483,0,0,1,1.194,1.406.719.719,0,0,1-.419,1h0a.725.725,0,0,1-.872-.35,2.4,2.4,0,0,0-.824-.934,1.725,1.725,0,0,0-1.552-.162,1.959,1.959,0,0,0-1.194.913,1.808,1.808,0,0,0-.036,1.435,1.645,1.645,0,0,0,.9,1.041,4.821,4.821,0,0,0,1.9.266,7.179,7.179,0,0,1,2.038.209,3,3,0,0,1,1.285.71,3.151,3.151,0,0,1,.766,1.272,2.9,2.9,0,0,1-.068,2.271,3.528,3.528,0,0,1-1.8,1.622l.294.867a.582.582,0,0,1-.361.738h0a.584.584,0,0,1-.736-.363l-.3-.868a3.362,3.362,0,0,1-2.493-.249,3.137,3.137,0,0,1-1.24-1.292.721.721,0,0,1,.412-1.02h0a.725.725,0,0,1,.87.339,2.02,2.02,0,0,0,.839.851,2.164,2.164,0,0,0,1.724.034,2.451,2.451,0,0,0,1.37-.985A1.674,1.674,0,0,0,397.976,332.848Z" transform="translate(-390.884 -323.695)" fill="#ffad12"/>
        </g>
      </g>
      <g id="Group_50857" data-name="Group 50857" transform="translate(94.882 207.457)">
        <g id="Group_50848" data-name="Group 50848" transform="translate(0 76.104)">
          <path id="Path_52143" data-name="Path 52143" d="M171.757,343.89l-1.957-4.058L179.23,334l2.529,5.449Z" transform="translate(-163.021 -333.999)" fill="#824938"/>
          <path id="Path_52144" data-name="Path 52144" d="M163.487,335.565c-1.591.6-.345,3.223.193,4.561.675,1.677,1.9,4.362,3.3,5.231,1.376.856,4.365-1.211,5.267-1.763,0,0-1.893-2.569-2.016-4.161a22.75,22.75,0,0,1-1.865-1.495,19.194,19.194,0,0,0-2.443-1.782A3.007,3.007,0,0,0,163.487,335.565Z" transform="translate(-162.706 -334.064)" fill="#1f0f09"/>
        </g>
        <path id="Path_52145" data-name="Path 52145" d="M204.064,318.413a10.024,10.024,0,0,1,5.49.129l-3.212,12.6c-7.777,3.865-28.678,11.81-28.678,11.81l-3.4-6.739S199.084,319.991,204.064,318.413Z" transform="translate(-163.219 -257.189)" fill="#ffdec9"/>
        <g id="Group_50849" data-name="Group 50849" transform="translate(9.745 77.635)">
          <path id="Path_52146" data-name="Path 52146" d="M182.829,346.369l-2.463-3.772,8.6-7,3.208,5.077Z" transform="translate(-173.235 -335.602)" fill="#824938"/>
          <path id="Path_52147" data-name="Path 52147" d="M173.531,339.223c-1.5.8.071,3.242.776,4.5.886,1.575,2.451,4.08,3.948,4.763,1.475.672,4.175-1.762,5-2.425,0,0-2.206-2.3-2.532-3.866a22.879,22.879,0,0,1-2.043-1.243,19.606,19.606,0,0,0-2.649-1.455A3.02,3.02,0,0,0,173.531,339.223Z" transform="translate(-172.904 -335.754)" fill="#1f0f09"/>
        </g>
        <path id="Path_52148" data-name="Path 52148" d="M184.444,338.177l4.373,6.156s19.409-6.989,26.586-15.975c0,0,19.206,16.984,35.463,17.008,10.99.014,13.7-5.25,17.091-14.5,0,0-20.893-12.312-20.635-12.284-5.178-.57-24.5-1.464-29.347-2.054-2.186-.266-6.107-.324-8.123.667C205.165,319.5,184.444,338.177,184.444,338.177Z" transform="translate(-163.671 -257.112)" fill="#ffdec9"/>
        <path id="Path_52149" data-name="Path 52149" d="M244.8,316.072c-2.483-.13-4.97-.215-7.458-.272a49.059,49.059,0,0,0-5.887-2.909,4.114,4.114,0,0,0-3.067-.552c-1.012.317-4.321,3-4.539,3.9a1.092,1.092,0,0,0,.838,1.394c1.18.268,2.551-.241,3.743-.27a5.579,5.579,0,0,1,3.589,1.389,6.6,6.6,0,0,0,6.04,1.242q3.176.5,6.341,1.083Z" transform="translate(-165.418 -256.928)" fill="#622f2a"/>
        <path id="Path_52150" data-name="Path 52150" d="M252.733,265.876c.779-1.028,2.078-1.353,5.7-1.74,1.592-.172,7.705,8.04,7.705,8.04.483,1.733,3.038,8.14,4.256,8.352l-8.907,2.54-1.688-4.882a3.978,3.978,0,0,1-3.556.519c-2.038-1.066-3.367-4.124-3.529-7.837A22.446,22.446,0,0,1,252.733,265.876Z" transform="translate(-166.695 -254.794)" fill="#824938"/>
        <g id="Group_50850" data-name="Group 50850" transform="translate(93.067 21.162)">
          <path id="Path_52151" data-name="Path 52151" d="M260.186,278.63a7.168,7.168,0,0,0,2.872-2.065c.138-.173.38.072.245.244a7.356,7.356,0,0,1-2.941,2.12c-.2.088-.378-.209-.175-.3Z" transform="translate(-260.095 -276.506)" fill="#622f2a"/>
        </g>
        <path id="Path_52152" data-name="Path 52152" d="M244.1,319.129l2.148.331-.421,4.884s15.025,2.254,17.295,2.389L271,329.988c.867-4.857,1.719-11.4,2.872-17.3,2.3-11.783,5.656-17.737,2.564-24.56-1.2-2.637-3.242-4.855-6.853-7.426l-1.849-2.908-7.526,3.867.653,2.555c-3.58,3.591-4.534,3.729-7.016,10.014-1.908,4.834-2.478,16.81-2.763,19.575l-6.664.422Z" transform="translate(-166.319 -255.401)" fill="#cf361f"/>
        <path id="Path_52153" data-name="Path 52153" d="M252.562,269.157s.539-2.888.957-4.145c.091.157.184.317.287.466a12.41,12.41,0,0,0,4.76,4.406A5.4,5.4,0,0,0,260,270.3c.258.037.61-.014.854.043.5.118.554.4.766.754a8.3,8.3,0,0,0,1.955,2.213,9.911,9.911,0,0,0,3.735,1.837c2.135-3.408,2.484-3.854,2.8-5.735a11.577,11.577,0,0,0,.156-3.95,9.141,9.141,0,0,0-2.316-4.57,3.239,3.239,0,0,0,.631-.612,3.481,3.481,0,0,0,.406-.661,4.349,4.349,0,0,0,2.365-.263c.06-.023.119-.052.179-.076.029.063.054.13.082.192a3.73,3.73,0,0,0,1,1.352,2.564,2.564,0,0,0,.729.413,3.081,3.081,0,0,0-.012,1.345,3.116,3.116,0,0,0,1.23,1.872,3.572,3.572,0,0,0-.4,1.827,2.97,2.97,0,0,0,.519,1.469,5.02,5.02,0,0,0-.347,1.23,3.155,3.155,0,0,0,.485,2.423,2.211,2.211,0,0,0,.188.2,4,4,0,0,0-.366,1.306,2.4,2.4,0,0,0,.58,1.85,7.881,7.881,0,0,0-1,2.863,26.086,26.086,0,0,0,.023,4.43.179.179,0,0,0,.174.173,3.93,3.93,0,0,0,3.28-2.571,6.015,6.015,0,0,0-.276-4.5,1.839,1.839,0,0,0,.617-1.742,3.569,3.569,0,0,0-.441-1.495,2.2,2.2,0,0,0,1.086-1.667,3.384,3.384,0,0,0-.575-2.034,2.722,2.722,0,0,0,.759-2.681,2.892,2.892,0,0,0-.932-1.719,2.673,2.673,0,0,0,.2-.321,3.577,3.577,0,0,0-1.351-4.521,2.268,2.268,0,0,0-.013-.386,3.151,3.151,0,0,0-1.6-2.368,4.068,4.068,0,0,0-2.25-.455,2.4,2.4,0,0,0-.662-.8,4.087,4.087,0,0,0-2.894-.569,5.149,5.149,0,0,0-2.233.867,4.737,4.737,0,0,0-3.115,1.09,4.01,4.01,0,0,0-1.257,1.526c-3.036-.791-6.633-.618-8.569,1.476a4.262,4.262,0,0,0-3.253,2.891C250.139,264.651,251.143,267.236,252.562,269.157Z" transform="translate(-166.609 -254.361)" fill="#1f0f09"/>
        <path id="Path_52154" data-name="Path 52154" d="M263.009,271.164c-.3.93-1.045,1.522-1.661,1.325s-.873-1.116-.572-2.046.988-1.351,1.6-1.153S263.309,270.233,263.009,271.164Z" transform="translate(-167.053 -255.021)" fill="#824938"/>
        <g id="Group_50851" data-name="Group 50851" transform="translate(96.21 32.108)">
          <path id="Path_52155" data-name="Path 52155" d="M263.549,326.877c2.038-.164,3.778-.6,5.009-2.314a16.312,16.312,0,0,0,2.027-4.662c1.077-3.433,1.967-6.931,2.829-10.421s1.652-7.014,2.363-10.545c.687-3.421,1.973-7.623-.427-10.679-.133-.17.111-.409.247-.237,2.247,2.863,1.394,6.53.754,9.786q-1.2,6.116-2.706,12.172a104.593,104.593,0,0,1-3.4,11.971,9.6,9.6,0,0,1-2.283,3.808,7.034,7.034,0,0,1-4.417,1.458c-.219.019-.217-.319,0-.336Z" transform="translate(-263.384 -287.96)" fill="#ab1b08"/>
        </g>
        <g id="Group_50852" data-name="Group 50852" transform="translate(93.262 34.337)">
          <path id="Path_52156" data-name="Path 52156" d="M267.061,290.5a146.892,146.892,0,0,0-6.417,28.05c-.028.217-.373.221-.343,0a147.4,147.4,0,0,1,6.428-28.142c.071-.21.4-.12.332.092Z" transform="translate(-260.299 -290.293)" fill="#ab1b08"/>
        </g>
        <g id="Group_50853" data-name="Group 50853" transform="translate(80.048 62.428)">
          <path id="Path_52157" data-name="Path 52157" d="M246.638,320.219l13.218-.531c.225-.011.223.336,0,.343q-6.609.268-13.218.533c-.223.01-.222-.335,0-.345Z" transform="translate(-246.472 -319.688)" fill="#ab1b08"/>
        </g>
        <g id="Group_50854" data-name="Group 50854" transform="translate(84.453 58.408)">
          <path id="Path_52158" data-name="Path 52158" d="M251.081,320.034c0-1.463.038-2.927.126-4.387.011-.221.355-.223.341,0-.083,1.46-.121,2.924-.123,4.387a.172.172,0,0,1-.344,0Z" transform="translate(-251.081 -315.481)" fill="#ab1b08"/>
        </g>
        <g id="Group_50855" data-name="Group 50855" transform="translate(20.868 61.034)">
          <path id="Path_52159" data-name="Path 52159" d="M208.171,318.512c-6.889,5.487-13.537,11.288-20.218,17.024q-1.558,1.336-3.109,2.68c-.166.141-.412-.1-.245-.247q9.051-7.834,18.233-15.521c1.685-1.408,3.375-2.811,5.092-4.179.173-.138.419.106.246.242Z" transform="translate(-184.544 -318.229)" fill="#e6b08e"/>
        </g>
        <g id="Group_50856" data-name="Group 50856" transform="translate(95.235 25.077)">
          <path id="Path_52160" data-name="Path 52160" d="M270.12,280.944a31.133,31.133,0,0,0-7.5,3.432c-.188.118-.361-.181-.175-.3a31.625,31.625,0,0,1,7.586-3.466c.211-.063.3.27.09.334Z" transform="translate(-262.364 -280.603)" fill="#ab1b08"/>
        </g>
        <path id="Path_52161" data-name="Path 52161" d="M195.039,289.968a.769.769,0,0,1,1.068.406q2.207,4.277,4.414,8.554,3.5,6.769,6.988,13.539.682,1.317,1.359,2.631l8.674.08,14.451.134c1.1.011,2.2.02,3.3.032,1.035.009.891,1.8-.139,1.788q-4.5-.04-9-.083-7.209-.065-14.417-.133c-1.108-.011-2.234.041-3.34-.032-.449-.03-.659-.369-.857-.751l-.751-1.453q-3.356-6.506-6.714-13.012-2.666-5.162-5.329-10.323c-.031-.057-.06-.116-.09-.174A.969.969,0,0,1,195.039,289.968Z" transform="translate(-164.12 -255.937)" fill="#1f0f09"/>
        <path id="Path_52162" data-name="Path 52162" d="M245.489,320.317c-2.484-.132-4.969-.214-7.458-.272a49.323,49.323,0,0,0-5.889-2.91,4.115,4.115,0,0,0-3.067-.55c-1.012.317-4.319,3-4.541,3.893a1.1,1.1,0,0,0,.839,1.4c1.18.266,2.552-.241,3.742-.272a5.59,5.59,0,0,1,3.593,1.389,6.589,6.589,0,0,0,6.039,1.243c2.118.335,4.167.7,6.277,1.084Z" transform="translate(-165.448 -257.117)" fill="#824938"/>
      </g>
    </g>
  </g>
</svg>
