<svg xmlns="http://www.w3.org/2000/svg" width="707.318" height="607.284" viewBox="0 0 707.318 607.284">
  <g id="Group_50247" data-name="Group 50247" transform="translate(20542.48 19352.355)">
    <g id="Group_50137" data-name="Group 50137" transform="translate(-20542.48 -19352.355)">
      <path id="Path_51056" data-name="Path 51056" d="M3716.053,467.252c-43.291-85-128.786-145.308-212.585-176.667-85.106-31.44-168.518-33.9-237.489-5.15-69.635,29.037-117.612,84.885-157.119,152.324-38.234,67.472-68,146.537-71.532,222.324-13.117,149.528,134.641,241.949,374.157,204.038C3649.765,826.884,3811.327,638.982,3716.053,467.252Z" transform="translate(-3036.52 -265.348)" fill="#ddeee5"/>
    </g>
    <g id="Group_50241" data-name="Group 50241" transform="translate(-20446.521 -19319.076)">
      <g id="Group_50192" data-name="Group 50192" transform="translate(174.675 156.009)">
        <path id="Path_51455" data-name="Path 51455" d="M3526.271,630.709q-9.122-11.982-18.232-23.961a21.828,21.828,0,0,0-3.727-3.864,4.9,4.9,0,0,0-1.236-.841,24.545,24.545,0,0,0-19.339,0,3.756,3.756,0,0,0-.783.445,17.348,17.348,0,0,0-4.371,4.26q-9.12,11.978-18.223,23.961c-1.53,2.008-2.371,3.949-1.891,4.345,1.735,1.288,3.453,2.576,5.171,3.864.515.361,2.146-1.014,3.623-3.041,2.2-2.988,4.4-5.992,6.6-8.982q-3.22,11.8-6.63,23.549c-1.03,3.365,1.323,6.887,5.344,7.591.84.138,1.7.24,2.531.361q.492,13.164.97,26.347a7.269,7.269,0,0,0,4.458,6.2c1.024.309,2.036.583,3.066.825,1.356-7.985,2.7-16.007,3.935-24.03.395-2.457,1.389-5.169,2.147-5.822,2.678-2.2,4.773-2.2,7.472,0,.746.654,1.723,3.366,2.13,5.822,1.237,8.023,2.575,16.044,3.933,24.03,1.013-.241,2.043-.515,3.056-.825a7.273,7.273,0,0,0,4.466-6.2q.491-13.19.961-26.347,1.278-.182,2.544-.361c4.02-.7,6.369-4.227,5.323-7.591q-3.349-11.544-6.509-23.152c2.095,2.868,4.206,5.719,6.3,8.586,1.493,2.027,3.108,3.4,3.623,3.041q2.578-1.931,5.171-3.864C3528.633,634.658,3527.781,632.717,3526.271,630.709Z" transform="translate(-3458.333 -574.596)" fill="#aad9cb"/>
        <path id="Path_51456" data-name="Path 51456" d="M3506.356,584.16a11.894,11.894,0,1,0-11.884-11.886A11.885,11.885,0,0,0,3506.356,584.16Z" transform="translate(-3471.286 -560.373)" fill="#aad9cb"/>
      </g>
      <path id="Path_51457" data-name="Path 51457" d="M3546.121,909.42c-15.463-8.7-19.528-9.058-41.169-3.535a24.688,24.688,0,0,1-17.4,0c-21.639-5.523-25.7-5.169-41.167,3.535-13.562,6.924-21.364,26.955-17.489,49.465,4.484,26.03,14.859,27.839,14.859,56.032,0,28.033,10.5,42.035,18.954,42.035s12.7-9.606,21.968-33.618c6.357-16.469,15.781-19.086,23.154,0,9.277,24.012,13.52,33.618,21.971,33.618s18.947-14,18.947-42.035c0-28.116,10.332-29.728,14.864-56.032C3567.49,936.376,3559.687,916.344,3546.121,909.42Z" transform="translate(-3272.751 -526.882)" fill="#aad9cb"/>
      <g id="Group_50193" data-name="Group 50193" transform="translate(405.551 292.834)">
        <path id="Path_51458" data-name="Path 51458" d="M3933.949,838.623l3.813-3.812a35.524,35.524,0,0,0,0-50.248l-.52-.527a35.537,35.537,0,0,0-50.251,0l-3.817,3.814-3.815-3.814a35.537,35.537,0,0,0-50.247,0l-.528.527a35.534,35.534,0,0,0,0,50.248l3.817,3.813,50.773,50.778Z" transform="translate(-3818.178 -773.63)" fill="#aad9cb"/>
      </g>
      <path id="Path_51459" data-name="Path 51459" d="M3727.792,377.052a37.093,37.093,0,0,0-63.323-26.229l-29.959,29.958h0L3598.792,416.5a37.117,37.117,0,0,0,33.525,62.611q1.783-.353,3.513-.876.866-.264,1.714-.565a36.973,36.973,0,0,0,13.71-8.708l35.717-35.716h0l29.958-29.958A36.865,36.865,0,0,0,3727.792,377.052Zm-45.851,51.16-42.4-42.4,29.959-29.957a29.981,29.981,0,0,1,42.4,42.4Z" transform="translate(-3330.113 -325.367)" fill="#aad9cb"/>
      <g id="Group_50194" data-name="Group 50194" transform="translate(0 182.749)">
        <path id="Path_51460" data-name="Path 51460" d="M3309.387,704.493c0,31.518-20.3,68.8-61.639,69.137-41.327-.34-61.631-37.618-61.664-69.137-.03-44.445,65.224-101.094,61.664-102.443C3244.151,603.4,3309.387,660.047,3309.387,704.493Z" transform="translate(-3186.084 -602.05)" fill="#aad9cb"/>
      </g>
      <g id="Group_50196" data-name="Group 50196" transform="translate(203.196 0)" style="mix-blend-mode: multiply;isolation: isolate">
        <path id="Path_51461" data-name="Path 51461" d="M3512.008,326.436a75.9,75.9,0,0,0-9.22,11.17l68.591,68.591a14.419,14.419,0,0,0,20.391-20.391l-68.592-68.589A75.926,75.926,0,0,0,3512.008,326.436Z" transform="translate(-3502.787 -317.217)" fill="none" stroke="#356858" stroke-width="3"/>
        <path id="Path_51462" data-name="Path 51462" d="M3523.767,318.4c.644.644-3.263,5.6-8.73,11.064s-10.42,9.373-11.064,8.731" transform="translate(-3503.212 -317.643)" fill="none" stroke="#356858" stroke-width="3"/>
        <g id="Group_50195" data-name="Group 50195" transform="translate(21.01 8.521)">
          <line id="Line_136" data-name="Line 136" y1="7.496" x2="7.495" fill="none" stroke="#356858" stroke-width="3"/>
          <line id="Line_137" data-name="Line 137" y1="7.497" x2="7.496" transform="translate(7.009 7.009)" fill="none" stroke="#356858" stroke-width="3"/>
          <line id="Line_138" data-name="Line 138" y1="7.497" x2="7.496" transform="translate(14.018 14.018)" fill="none" stroke="#356858" stroke-width="3"/>
          <line id="Line_139" data-name="Line 139" y1="7.498" x2="7.495" transform="translate(21.027 21.027)" fill="none" stroke="#356858" stroke-width="3"/>
          <line id="Line_140" data-name="Line 140" y1="7.497" x2="7.497" transform="translate(28.036 28.036)" fill="none" stroke="#356858" stroke-width="3"/>
          <line id="Line_141" data-name="Line 141" y1="7.498" x2="7.496" transform="translate(35.045 35.045)" fill="none" stroke="#356858" stroke-width="3"/>
          <line id="Line_142" data-name="Line 142" y1="7.495" x2="7.497" transform="translate(42.054 42.057)" fill="none" stroke="#356858" stroke-width="3"/>
          <line id="Line_143" data-name="Line 143" y1="7.498" x2="7.496" transform="translate(49.064 49.063)" fill="none" stroke="#356858" stroke-width="3"/>
          <line id="Line_144" data-name="Line 144" y1="7.495" x2="7.495" transform="translate(56.073 56.074)" fill="none" stroke="#356858" stroke-width="3"/>
        </g>
      </g>
      <g id="Group_50197" data-name="Group 50197" transform="translate(73.27 41.826)">
        <path id="Path_51463" data-name="Path 51463" d="M3444.115,425.888H3400.63V382.407h-56.875v43.481h-43.472v56.87h43.472V526.24h56.875V482.758h43.485Z" transform="translate(-3300.283 -382.407)" fill="#aad9cb"/>
      </g>
      <path id="Path_51464" data-name="Path 51464" d="M3852.177,527.512v50.02h-53.594v-50.02h-42.877V670.43h42.877V620.407h53.594V670.43h42.874V527.512Z" transform="translate(-3390.237 -392.587)" fill="#aad9cb"/>
      <g id="Group_50202" data-name="Group 50202" transform="translate(246.667 382.18)">
        <g id="Group_50198" data-name="Group 50198" transform="translate(24.23)">
          <line id="Line_145" data-name="Line 145" x1="0.001" y1="18.247" transform="translate(19.705 29.084)" fill="none" stroke="#327d60" stroke-width="3"/>
          <path id="Path_51465" data-name="Path 51465" d="M3629.054,926.1c3.376,7.72,1.874,15.833-3.359,18.123s-12.208-2.115-15.586-9.84-1.875-15.837,3.356-18.125S3625.677,918.373,3629.054,926.1Z" transform="translate(-3608.305 -913.877)" fill="none" stroke="#327d60" stroke-width="3"/>
          <path id="Path_51466" data-name="Path 51466" d="M3637.211,923.331c-3.379-7.722-10.352-12.129-15.583-9.841a7.2,7.2,0,0,0-1.886,1.218c4.855-.488,10.485,3.706,13.411,10.4s2.183,13.667-1.471,16.9a7.187,7.187,0,0,0,2.171-.556C3639.088,939.168,3640.587,931.053,3637.211,923.331Z" transform="translate(-3612.404 -912.885)" fill="none" stroke="#327d60" stroke-width="3"/>
          <path id="Path_51467" data-name="Path 51467" d="M3635.883,987.934c-1.1,0-2.069.339-2.173.764q-1.1,5.064-2.192,10.13h9.623q-1.1-5.064-2.191-10.13c-.106-.422-1.08-.764-2.174-.762C3636.477,987.934,3636.179,987.936,3635.883,987.934Z" transform="translate(-3616.625 -939.783)" fill="none" stroke="#327d60" stroke-width="3"/>
          <path id="Path_51468" data-name="Path 51468" d="M3640.479,1004.912h-8.97a4.411,4.411,0,0,0-.93,2.71v86.642a4.43,4.43,0,0,0,4.43,4.433h1.969a4.431,4.431,0,0,0,4.431-4.432v-86.645A4.406,4.406,0,0,0,3640.479,1004.912Z" transform="translate(-3616.288 -945.868)" fill="none" stroke="#327d60" stroke-width="3"/>
        </g>
        <g id="Group_50199" data-name="Group 50199" transform="translate(70.11 24.968)">
          <line id="Line_146" data-name="Line 146" x1="0.003" y1="22.332" transform="translate(5.412 17.094)" fill="none" stroke="#327d60" stroke-width="3"/>
          <path id="Path_51469" data-name="Path 51469" d="M3685.115,1013.258c-1.094,0-2.067.338-2.173.76q-1.1,5.07-2.192,10.132h9.625q-1.1-5.066-2.192-10.13c-.106-.421-1.081-.761-2.174-.762Z" transform="translate(-3680.149 -973.827)" fill="none" stroke="#327d60" stroke-width="3"/>
          <path id="Path_51470" data-name="Path 51470" d="M3686.388,951.8l8.089,6.612a2.955,2.955,0,0,1,0,4.18l-7.309,7.308" transform="translate(-3682.17 -951.801)" fill="none" stroke="#327d60" stroke-width="3"/>
          <path id="Path_51471" data-name="Path 51471" d="M3689.711,1030.234h-8.968a4.41,4.41,0,0,0-.929,2.708v70.4a4.429,4.429,0,0,0,4.429,4.432h1.968a4.432,4.432,0,0,0,4.431-4.432v-70.4A4.406,4.406,0,0,0,3689.711,1030.234Z" transform="translate(-3679.814 -979.911)" fill="none" stroke="#327d60" stroke-width="3"/>
        </g>
        <g id="Group_50201" data-name="Group 50201" transform="translate(0 38.228)">
          <line id="Line_147" data-name="Line 147" x2="5.674" y2="0.506" transform="translate(0.725 3.147)" fill="none" stroke="#327d60" stroke-width="3"/>
          <path id="Path_51472" data-name="Path 51472" d="M3585.063,1075.182c0,1.432-2.662,2.593-5.945,2.594h-2.636c-3.285,0-5.944-1.16-5.941-2.594v-41.218c0-1.431,2.656-2.593,5.939-2.592h2.64c3.278,0,5.943,1.161,5.943,2.592Z" transform="translate(-3570.54 -993.579)" fill="none" stroke="#327d60" stroke-width="3"/>
          <path id="Path_51473" data-name="Path 51473" d="M3592.933,982.306a2.959,2.959,0,0,1-3.478,2.316l-7.963-1.6a2.954,2.954,0,0,1-2.316-3.478l.941-4.7a2.957,2.957,0,0,1,3.478-2.317l7.962,1.6a2.954,2.954,0,0,1,2.318,3.476Z" transform="translate(-3573.615 -972.468)" fill="none" stroke="#327d60" stroke-width="3"/>
          <g id="Group_50200" data-name="Group 50200" transform="translate(1.845 11.001)">
            <path id="Path_51474" data-name="Path 51474" d="M3577.633,1016.406h2.64a10.636,10.636,0,0,1,4.354.833q1.713-13.207,3.434-26.422a2.919,2.919,0,0,1-.527-.049l-5.749-1.152q-3.8,13.24-7.6,26.479a4.5,4.5,0,0,0-.424.941A11.268,11.268,0,0,1,3577.633,1016.406Z" transform="translate(-3573.538 -989.615)" fill="none" stroke="#327d60" stroke-width="3"/>
            <path id="Path_51475" data-name="Path 51475" d="M3580.148,1103.3h-2.636a10.945,10.945,0,0,1-4.1-.716v26.69a4.431,4.431,0,0,0,4.431,4.432h1.967a4.433,4.433,0,0,0,4.432-4.432v-26.692A10.977,10.977,0,0,1,3580.148,1103.3Z" transform="translate(-3573.416 -1030.1)" fill="none" stroke="#327d60" stroke-width="3"/>
          </g>
        </g>
      </g>
      <g id="Group_50203" data-name="Group 50203" transform="translate(398.812 92.293)">
        <path id="Path_51476" data-name="Path 51476" d="M3872.52,471.7a10.63,10.63,0,1,0,10.631-10.631A10.636,10.636,0,0,0,3872.52,471.7Z" transform="translate(-3830.916 -461.065)" fill="none" stroke="#2b6050" stroke-linecap="round" stroke-linejoin="round" stroke-width="3"/>
        <path id="Path_51477" data-name="Path 51477" d="M3836.809,578.092a33.541,33.541,0,1,0,67.082,0,33.345,33.345,0,0,0-6.983-20.473" transform="translate(-3818.117 -495.67)" fill="none" stroke="#2b6050" stroke-linecap="round" stroke-linejoin="round" stroke-width="3"/>
        <path id="Path_51478" data-name="Path 51478" d="M3876.563,545.118c0,6.266,4.133,11.336,9.251,11.336h2.3c5.1,0,9.244-5.07,9.244-11.336V527.645c0-6.268-4.141-11.338-9.244-11.338h-2.3c-5.118,0-9.251,5.07-9.251,11.338Z" transform="translate(-3832.365 -480.864)" fill="none" stroke="#2b6050" stroke-linecap="round" stroke-linejoin="round" stroke-width="3"/>
        <path id="Path_51479" data-name="Path 51479" d="M3859.646,578.88h-32.126l-19.844,34.246" transform="translate(-3807.675 -503.29)" fill="none" stroke="#2b6050" stroke-linecap="round" stroke-linejoin="round" stroke-width="3"/>
        <line id="Line_148" data-name="Line 148" x1="28.346" transform="translate(23.624 59.525)" fill="none" stroke="#2b6050" stroke-linecap="round" stroke-linejoin="round" stroke-width="3"/>
      </g>
      <g id="Group_50204" data-name="Group 50204" transform="translate(264.844 119.62)">
        <path id="Path_51480" data-name="Path 51480" d="M3680.894,538.978a35.321,35.321,0,0,0-70.642,0c0,.536.016,1.067.041,1.6l-4.935,8.547-6.487,11.231h8.207V574.3a9.526,9.526,0,0,0,9.525,9.525h15.082V602.08h38.892V563.927A35.213,35.213,0,0,0,3680.894,538.978Z" transform="translate(-3598.871 -503.658)" fill="none" stroke="#2b6050" stroke-width="3"/>
        <path id="Path_51481" data-name="Path 51481" d="M3663.656,519.814a20.669,20.669,0,1,0,20.669-20.668A20.67,20.67,0,0,0,3663.656,519.814Z" transform="translate(-3632.454 -488.851)" fill="none" stroke="#2b6050" stroke-width="3" style="mix-blend-mode: multiply;isolation: isolate"/>
        <path id="Path_51482" data-name="Path 51482" d="M3673.812,523.455a14.152,14.152,0,1,0,14.152-14.152A14.151,14.151,0,0,0,3673.812,523.455Z" transform="translate(-3636.094 -492.491)" fill="none" stroke="#2b6050" stroke-width="3" style="mix-blend-mode: multiply;isolation: isolate"/>
        <path id="Path_51483" data-name="Path 51483" d="M3682.7,526.64a8.45,8.45,0,1,0,8.45-8.45A8.45,8.45,0,0,0,3682.7,526.64Z" transform="translate(-3639.279 -495.676)" fill="none" stroke="#2b6050" stroke-width="3" style="mix-blend-mode: multiply;isolation: isolate"/>
      </g>
      <g id="Group_50206" data-name="Group 50206" transform="translate(369.681 33.405)">
        <path id="Path_51484" data-name="Path 51484" d="M3786.465,369.282a36.612,36.612,0,1,0,24.194,34.442A36.652,36.652,0,0,0,3786.465,369.282Z" transform="translate(-3762.271 -369.282)" fill="none" stroke="#245946" stroke-linecap="round" stroke-linejoin="round" stroke-width="3"/>
        <line id="Line_149" data-name="Line 149" x1="0.001" y2="66.801" transform="translate(24.194 0)" fill="none" stroke="#245946" stroke-linecap="round" stroke-linejoin="round" stroke-width="3"/>
        <line id="Line_150" data-name="Line 150" x1="0.004" y2="7.427" transform="translate(24.195 69.029)" fill="none" stroke="#245946" stroke-linecap="round" stroke-linejoin="round" stroke-width="3"/>
        <g id="Group_50205" data-name="Group 50205" transform="translate(0.961 16.767)">
          <line id="Line_151" data-name="Line 151" x1="16.365" y2="14.937" transform="translate(24.122 0.004)" fill="none" stroke="#245946" stroke-linecap="round" stroke-linejoin="round" stroke-width="3"/>
          <line id="Line_152" data-name="Line 152" x1="22.437" y2="20.487" transform="translate(24.038 16.063)" fill="none" stroke="#245946" stroke-linecap="round" stroke-linejoin="round" stroke-width="3"/>
          <line id="Line_153" data-name="Line 153" x2="16.365" y2="14.946" transform="translate(5.986)" fill="none" stroke="#245946" stroke-linecap="round" stroke-linejoin="round" stroke-width="3"/>
          <line id="Line_154" data-name="Line 154" x2="22.429" y2="20.487" transform="translate(0 16.06)" fill="none" stroke="#245946" stroke-linecap="round" stroke-linejoin="round" stroke-width="3"/>
        </g>
      </g>
      <g id="Group_50209" data-name="Group 50209" transform="translate(29.193 122.619)">
        <g id="Group_50207" data-name="Group 50207">
          <path id="Path_51485" data-name="Path 51485" d="M3438.148,662.313V808.581a46.191,46.191,0,0,1-46.189,46.188h-7.7a46.19,46.19,0,0,1-46.189-46.188V754.692" transform="translate(-3269.75 -563.518)" fill="none" stroke="#2b6050" stroke-width="3"/>
          <path id="Path_51486" data-name="Path 51486" d="M3494.55,725.353V640.97a26.651,26.651,0,0,1,26.651-26.653h4.439a26.649,26.649,0,0,1,26.646,26.653v85.562" transform="translate(-3325.832 -546.317)" fill="none" stroke="#2b6050" stroke-width="3"/>
          <path id="Path_51487" data-name="Path 51487" d="M3598.7,818.129a29.831,29.831,0,1,1-29.832-29.831A29.832,29.832,0,0,1,3598.7,818.129Z" transform="translate(-3341.777 -608.671)" fill="#aad9cb" stroke="#2b6050" stroke-width="3"/>
          <path id="Path_51488" data-name="Path 51488" d="M3591.907,826.73a14.434,14.434,0,1,1-14.435-14.435A14.434,14.434,0,0,1,3591.907,826.73Z" transform="translate(-3350.378 -617.272)" fill="#fff" stroke="#2b6050" stroke-width="3"/>
          <path id="Path_51489" data-name="Path 51489" d="M3261.445,508.331a29.859,29.859,0,0,0-29.86,29.862V642.7" transform="translate(-3231.585 -508.331)" fill="none" stroke="#3a876c" stroke-width="3"/>
          <path id="Path_51490" data-name="Path 51490" d="M3401.656,509.083a29.86,29.86,0,0,1,29.861,29.86V643.45" transform="translate(-3292.538 -508.6)" fill="none" stroke="#3a876c" stroke-width="3"/>
        </g>
        <g id="Group_50208" data-name="Group 50208">
          <line id="Line_155" data-name="Line 155" y1="53.889" transform="translate(68.321 191.174)" fill="none" stroke="#3a876c" stroke-width="5"/>
          <path id="Path_51491" data-name="Path 51491" d="M3370.154,652.317v47.472a53.886,53.886,0,0,1-53.889,53.889h-30.793a53.886,53.886,0,0,1-53.887-53.889V652.317" transform="translate(-3231.585 -559.936)" fill="none" stroke="#2b6050" stroke-width="5"/>
          <path id="Path_51492" data-name="Path 51492" d="M3271.308,508.331a29.772,29.772,0,0,0-12.205,2.6" transform="translate(-3241.447 -508.331)" fill="none" stroke="#3a876c" stroke-width="5"/>
          <path id="Path_51493" data-name="Path 51493" d="M3401.656,509.083a29.791,29.791,0,0,1,11.8,2.422" transform="translate(-3292.538 -508.6)" fill="none" stroke="#3a876c" stroke-width="5"/>
        </g>
      </g>
      <path id="Path_51494" data-name="Path 51494" d="M3607.863,733.5h33.124l8.678-21.22,11.294,48.68L3670.942,731h18.721l8.74-28.708,9.646,58.666,12.085-48.68L3725.978,731h62.465" transform="translate(-3337.25 -455.228)" fill="none" stroke="#4ba07e" stroke-width="3" style="mix-blend-mode: multiply;isolation: isolate"/>
      <g id="Group_50211" data-name="Group 50211" transform="translate(60.36 203.839)" style="mix-blend-mode: multiply;isolation: isolate">
        <path id="Path_51495" data-name="Path 51495" d="M3327.509,661.389a27.733,27.733,0,1,1-39.223,0A27.725,27.725,0,0,1,3327.509,661.389Z" transform="translate(-3280.162 -641.495)" fill="none" stroke="#579f87" stroke-width="6.648"/>
        <g id="Group_50210" data-name="Group 50210" transform="translate(47.672 0.436)">
          <line id="Line_156" data-name="Line 156" x1="19.132" y2="19.137" fill="none" stroke="#579f87" stroke-linecap="round" stroke-linejoin="round" stroke-width="6.648"/>
        </g>
        <path id="Path_51496" data-name="Path 51496" d="M3350.116,634.921h22.356v22.355" transform="translate(-3305.233 -634.921)" fill="none" stroke="#579f87" stroke-linecap="round" stroke-linejoin="round" stroke-width="6.648"/>
      </g>
      <g id="Group_50212" data-name="Group 50212" transform="translate(344.99 405.008)">
        <path id="Path_51497" data-name="Path 51497" d="M3788.347,948.465a73.994,73.994,0,0,0-64.559,37.885,73.946,73.946,0,0,0,129.11,0A73.977,73.977,0,0,0,3788.347,948.465Z" transform="translate(-3723.788 -948.465)" fill="none" stroke="#327d60" stroke-linejoin="round" stroke-width="3"/>
        <path id="Path_51498" data-name="Path 51498" d="M3838.554,988.694a32.059,32.059,0,1,1-32.065-32.059A32.061,32.061,0,0,1,3838.554,988.694Z" transform="translate(-3741.94 -951.393)" fill="#aad9cb" stroke="#327d60" stroke-linejoin="round" stroke-width="3"/>
        <path id="Path_51499" data-name="Path 51499" d="M3832.768,996.019a18.942,18.942,0,1,1-18.945-18.944A18.945,18.945,0,0,1,3832.768,996.019Z" transform="translate(-3749.269 -958.719)" fill="#327d60" stroke="#2b6050" stroke-linejoin="round" stroke-width="6.987"/>
        <path id="Path_51500" data-name="Path 51500" d="M3811.657,984.358a8.287,8.287,0,1,1-8.287-8.283A8.283,8.283,0,0,1,3811.657,984.358Z" transform="translate(-3749.341 -958.36)" fill="#fff"/>
        <path id="Path_51501" data-name="Path 51501" d="M3833.314,991.584a3.766,3.766,0,1,1-3.77-3.771A3.773,3.773,0,0,1,3833.314,991.584Z" transform="translate(-3760.342 -962.567)" fill="#fff"/>
      </g>
      <g id="Group_50214" data-name="Group 50214" transform="translate(310.667 328.475)">
        <rect id="Rectangle_22597" data-name="Rectangle 22597" width="57.95" height="25.089" transform="translate(64.833 8.863)" fill="#aad9cb" stroke="#327d60" stroke-width="1"/>
        <rect id="Rectangle_22598" data-name="Rectangle 22598" width="16.36" height="9.813" transform="translate(122.782 16.501)" fill="none" stroke="#327d60" stroke-width="3"/>
        <rect id="Rectangle_22599" data-name="Rectangle 22599" width="88.354" height="25.089" transform="translate(34.428 8.863)" fill="none" stroke="#327d60" stroke-width="3"/>
        <rect id="Rectangle_22600" data-name="Rectangle 22600" width="26.724" height="13.636" transform="translate(0.069 14.59)" fill="none" stroke="#327d60" stroke-width="3"/>
        <rect id="Rectangle_22601" data-name="Rectangle 22601" width="6.202" height="42.816" transform="translate(27.1)" fill="none" stroke="#327d60" stroke-width="3"/>
        <line id="Line_157" data-name="Line 157" y2="34.386" transform="translate(0 4.216)" fill="none" stroke="#327d60" stroke-width="3"/>
        <line id="Line_158" data-name="Line 158" x2="32.178" transform="translate(138.051 21.41)" fill="none" stroke="#327d60" stroke-width="3"/>
        <g id="Group_50213" data-name="Group 50213" transform="translate(46.46 7.856)">
          <line id="Line_159" data-name="Line 159" x1="0.001" y1="16.037" fill="none" stroke="#327d60" stroke-width="3"/>
          <line id="Line_160" data-name="Line 160" y1="12.763" transform="translate(8.677)" fill="none" stroke="#327d60" stroke-width="3"/>
          <line id="Line_161" data-name="Line 161" y1="12.763" transform="translate(17.359)" fill="none" stroke="#327d60" stroke-width="3"/>
          <line id="Line_162" data-name="Line 162" x1="0.002" y1="16.037" transform="translate(26.036)" fill="none" stroke="#327d60" stroke-width="3"/>
          <line id="Line_163" data-name="Line 163" y1="12.763" x2="0.002" transform="translate(34.716)" fill="none" stroke="#327d60" stroke-width="3"/>
          <line id="Line_164" data-name="Line 164" y1="12.763" transform="translate(43.395)" fill="none" stroke="#327d60" stroke-width="3"/>
          <line id="Line_165" data-name="Line 165" y1="16.037" x2="0.001" transform="translate(52.073)" fill="none" stroke="#327d60" stroke-width="3"/>
          <line id="Line_166" data-name="Line 166" y1="12.763" transform="translate(60.754)" fill="none" stroke="#327d60" stroke-width="3"/>
          <line id="Line_167" data-name="Line 167" y1="12.763" transform="translate(69.433)" fill="none" stroke="#327d60" stroke-width="3"/>
        </g>
        <path id="Path_51502" data-name="Path 51502" d="M3770.066,862.546" transform="translate(-3706.051 -841.139)" fill="none" stroke="#327d60" stroke-width="6.648"/>
        <path id="Path_51503" data-name="Path 51503" d="M3722.464,862.55" transform="translate(-3688.99 -841.14)" fill="none" stroke="#327d60" stroke-width="6.648"/>
      </g>
      <g id="Group_50215" data-name="Group 50215" transform="translate(169.682 43.068)" style="mix-blend-mode: multiply;isolation: isolate">
        <path id="Path_51504" data-name="Path 51504" d="M3483.969,391.428c.448.5.946,1.05,1.5,1.663,8.273,9.134,27.647,30.525,27.647,46.777a37.45,37.45,0,0,1-7.416,22.473,27.352,27.352,0,0,1-43.453,0,37.5,37.5,0,0,1-7.432-22.475c-.011-16.27,19.391-37.67,27.676-46.807.545-.6,1.034-1.141,1.475-1.63m0-7.085c-.1.04-.1.166,0,.373.1-.207.105-.334,0-.373Zm0,.373c-1.778,3.649-33.437,32.361-33.422,55.152.018,17.085,11.023,37.29,33.423,37.474,22.409-.184,33.41-20.389,33.41-37.474,0-22.791-31.65-51.5-33.411-55.152Z" transform="translate(-3450.551 -384.343)" fill="#82bbaa"/>
      </g>
      <g id="Group_50234" data-name="Group 50234" transform="translate(464.443 242.199)" style="mix-blend-mode: multiply;isolation: isolate">
        <g id="Group_50224" data-name="Group 50224" transform="translate(0)">
          <path id="Path_51505" data-name="Path 51505" d="M3935.45,768.059a5.289,5.289,0,0,1-7.478,0L3911.517,751.6a5.288,5.288,0,0,1,0-7.478l47.866-47.867a5.293,5.293,0,0,1,7.481,0l16.454,16.455a5.29,5.29,0,0,1,0,7.478Z" transform="translate(-3909.968 -694.71)" fill="none" stroke="#2c7556" stroke-width="3"/>
          <g id="Group_50223" data-name="Group 50223" transform="translate(9.269 9.27)">
            <g id="Group_50216" data-name="Group 50216" transform="translate(41.477)">
              <path id="Path_51506" data-name="Path 51506" d="M3990.472,709.158a1.409,1.409,0,1,0,1,.414,1.4,1.4,0,0,0-1-.414Z" transform="translate(-3989.061 -709.158)" fill="#56ac8c"/>
              <path id="Path_51507" data-name="Path 51507" d="M3996.737,715.424a1.41,1.41,0,1,0,1,.414,1.4,1.4,0,0,0-1-.414Z" transform="translate(-3991.307 -711.404)" fill="#56ac8c"/>
              <path id="Path_51508" data-name="Path 51508" d="M4003,721.689a1.41,1.41,0,1,0,1,.414,1.4,1.4,0,0,0-1-.414Z" transform="translate(-3993.552 -713.649)" fill="#56ac8c"/>
              <path id="Path_51509" data-name="Path 51509" d="M4009.268,727.955a1.41,1.41,0,1,0,1,.414,1.406,1.406,0,0,0-1-.414Z" transform="translate(-3995.798 -715.895)" fill="#56ac8c"/>
            </g>
            <g id="Group_50217" data-name="Group 50217" transform="translate(37.707 3.771)">
              <path id="Path_51510" data-name="Path 51510" d="M3984.594,715.035a1.41,1.41,0,1,0,1,.414,1.4,1.4,0,0,0-1-.414Z" transform="translate(-3983.185 -715.035)" fill="#56ac8c"/>
              <path id="Path_51511" data-name="Path 51511" d="M3990.859,721.3a1.411,1.411,0,1,0,1,.414,1.4,1.4,0,0,0-1-.414Z" transform="translate(-3985.43 -717.28)" fill="#56ac8c"/>
              <path id="Path_51512" data-name="Path 51512" d="M3997.126,727.564a1.412,1.412,0,1,0,1,.414,1.4,1.4,0,0,0-1-.414Z" transform="translate(-3987.676 -719.525)" fill="#56ac8c"/>
              <path id="Path_51513" data-name="Path 51513" d="M4003.391,733.831a1.411,1.411,0,1,0,1,.414,1.4,1.4,0,0,0-1-.414Z" transform="translate(-3989.921 -721.771)" fill="#56ac8c"/>
            </g>
            <g id="Group_50218" data-name="Group 50218" transform="translate(33.935 7.541)">
              <path id="Path_51514" data-name="Path 51514" d="M3978.717,720.911a1.412,1.412,0,1,0,1,.414,1.4,1.4,0,0,0-1-.414Z" transform="translate(-3977.307 -720.911)" fill="#56ac8c"/>
              <path id="Path_51515" data-name="Path 51515" d="M3984.984,727.175a1.412,1.412,0,1,0,1,.414,1.41,1.41,0,0,0-1-.414Z" transform="translate(-3979.553 -723.156)" fill="#56ac8c"/>
              <path id="Path_51516" data-name="Path 51516" d="M3991.25,733.441a1.41,1.41,0,1,0,1,.413,1.406,1.406,0,0,0-1-.413Z" transform="translate(-3981.798 -725.402)" fill="#56ac8c"/>
              <path id="Path_51517" data-name="Path 51517" d="M3997.516,739.708a1.41,1.41,0,1,0,1,.413,1.412,1.412,0,0,0-1-.413Z" transform="translate(-3984.043 -727.648)" fill="#56ac8c"/>
            </g>
            <g id="Group_50219" data-name="Group 50219" transform="translate(30.165 11.311)">
              <path id="Path_51518" data-name="Path 51518" d="M3972.841,726.788a1.41,1.41,0,1,0,1,.414,1.407,1.407,0,0,0-1-.414Z" transform="translate(-3971.431 -726.788)" fill="#56ac8c"/>
              <path id="Path_51519" data-name="Path 51519" d="M3979.107,733.053a1.411,1.411,0,1,0,1,.414,1.407,1.407,0,0,0-1-.414Z" transform="translate(-3973.676 -729.033)" fill="#56ac8c"/>
              <path id="Path_51520" data-name="Path 51520" d="M3985.372,739.319a1.411,1.411,0,1,0,1,.414,1.4,1.4,0,0,0-1-.414Z" transform="translate(-3975.922 -731.279)" fill="#56ac8c"/>
              <path id="Path_51521" data-name="Path 51521" d="M3991.638,745.586a1.41,1.41,0,1,0,1,.413,1.41,1.41,0,0,0-1-.413Z" transform="translate(-3978.167 -733.525)" fill="#56ac8c"/>
            </g>
            <g id="Group_50220" data-name="Group 50220" transform="translate(7.541 33.935)">
              <path id="Path_51522" data-name="Path 51522" d="M3937.579,762.049a1.411,1.411,0,1,0,1,.414,1.408,1.408,0,0,0-1-.414Z" transform="translate(-3936.168 -762.049)" fill="#56ac8c"/>
              <path id="Path_51523" data-name="Path 51523" d="M3943.845,768.315a1.411,1.411,0,1,0,1,.414,1.4,1.4,0,0,0-1-.414Z" transform="translate(-3938.415 -764.295)" fill="#56ac8c"/>
              <path id="Path_51524" data-name="Path 51524" d="M3950.11,774.58a1.411,1.411,0,1,0,1,.415,1.4,1.4,0,0,0-1-.415Z" transform="translate(-3940.661 -766.54)" fill="#56ac8c"/>
              <path id="Path_51525" data-name="Path 51525" d="M3956.377,780.847a1.41,1.41,0,1,0,1,.413,1.41,1.41,0,0,0-1-.413Z" transform="translate(-3942.906 -768.786)" fill="#56ac8c"/>
            </g>
            <g id="Group_50221" data-name="Group 50221" transform="translate(3.772 37.706)">
              <path id="Path_51526" data-name="Path 51526" d="M3931.7,767.927a1.41,1.41,0,1,0,1,.413,1.4,1.4,0,0,0-1-.413Z" transform="translate(-3930.294 -767.927)" fill="#56ac8c"/>
              <path id="Path_51527" data-name="Path 51527" d="M3937.969,774.192a1.411,1.411,0,1,0,1,.414,1.407,1.407,0,0,0-1-.414Z" transform="translate(-3932.539 -770.172)" fill="#56ac8c"/>
              <path id="Path_51528" data-name="Path 51528" d="M3944.235,780.457a1.411,1.411,0,1,0,1,.414,1.407,1.407,0,0,0-1-.414Z" transform="translate(-3934.785 -772.418)" fill="#56ac8c"/>
              <path id="Path_51529" data-name="Path 51529" d="M3950.5,786.724a1.41,1.41,0,1,0,1,.413,1.408,1.408,0,0,0-1-.413Z" transform="translate(-3937.03 -774.664)" fill="#56ac8c"/>
            </g>
            <g id="Group_50222" data-name="Group 50222" transform="translate(0 41.476)">
              <path id="Path_51530" data-name="Path 51530" d="M3925.825,773.8a1.411,1.411,0,1,0,1,.413,1.4,1.4,0,0,0-1-.413Z" transform="translate(-3924.415 -773.803)" fill="#56ac8c"/>
              <path id="Path_51531" data-name="Path 51531" d="M3932.092,780.068a1.411,1.411,0,1,0,1,.414,1.406,1.406,0,0,0-1-.414Z" transform="translate(-3926.661 -776.048)" fill="#56ac8c"/>
              <path id="Path_51532" data-name="Path 51532" d="M3938.358,786.334a1.41,1.41,0,1,0,1,.413,1.408,1.408,0,0,0-1-.413Z" transform="translate(-3928.906 -778.294)" fill="#56ac8c"/>
              <path id="Path_51533" data-name="Path 51533" d="M3944.624,792.6a1.409,1.409,0,1,0,1,.413,1.409,1.409,0,0,0-1-.413Z" transform="translate(-3931.152 -780.54)" fill="#56ac8c"/>
            </g>
          </g>
        </g>
        <g id="Group_50233" data-name="Group 50233">
          <g id="Group_50231" data-name="Group 50231" transform="translate(9.27 9.269)">
            <g id="Group_50225" data-name="Group 50225" transform="translate(41.477 41.477)">
              <path id="Path_51534" data-name="Path 51534" d="M4009.27,773.8a1.411,1.411,0,1,0,1,.413,1.408,1.408,0,0,0-1-.413Z" transform="translate(-3995.799 -773.803)" fill="#4ba07e"/>
              <path id="Path_51535" data-name="Path 51535" d="M4003,780.068a1.411,1.411,0,1,0,1,.414,1.4,1.4,0,0,0-1-.414Z" transform="translate(-3993.553 -776.048)" fill="#4ba07e"/>
              <path id="Path_51536" data-name="Path 51536" d="M3996.739,786.334a1.41,1.41,0,1,0,1,.413,1.407,1.407,0,0,0-1-.413Z" transform="translate(-3991.308 -778.294)" fill="#4ba07e"/>
              <path id="Path_51537" data-name="Path 51537" d="M3990.472,792.6a1.409,1.409,0,1,0,1,.413,1.4,1.4,0,0,0-1-.413Z" transform="translate(-3989.062 -780.54)" fill="#4ba07e"/>
            </g>
            <g id="Group_50226" data-name="Group 50226" transform="translate(37.707 37.707)">
              <path id="Path_51538" data-name="Path 51538" d="M4003.393,767.927a1.41,1.41,0,1,0,1,.413,1.407,1.407,0,0,0-1-.413Z" transform="translate(-3989.922 -767.927)" fill="#4ba07e"/>
              <path id="Path_51539" data-name="Path 51539" d="M3997.127,774.192a1.411,1.411,0,1,0,1,.414,1.405,1.405,0,0,0-1-.414Z" transform="translate(-3987.676 -770.172)" fill="#4ba07e"/>
              <path id="Path_51540" data-name="Path 51540" d="M3990.862,780.457a1.411,1.411,0,1,0,1,.414,1.408,1.408,0,0,0-1-.414Z" transform="translate(-3985.431 -772.418)" fill="#4ba07e"/>
              <path id="Path_51541" data-name="Path 51541" d="M3984.6,786.724a1.409,1.409,0,1,0,1,.413,1.4,1.4,0,0,0-1-.413Z" transform="translate(-3983.185 -774.664)" fill="#4ba07e"/>
            </g>
            <g id="Group_50227" data-name="Group 50227" transform="translate(33.936 33.935)">
              <path id="Path_51542" data-name="Path 51542" d="M3997.516,762.049a1.41,1.41,0,1,0,1,.413,1.41,1.41,0,0,0-1-.413Z" transform="translate(-3984.045 -762.049)" fill="#4ba07e"/>
              <path id="Path_51543" data-name="Path 51543" d="M3991.251,768.314a1.411,1.411,0,1,0,1,.412,1.408,1.408,0,0,0-1-.412Z" transform="translate(-3981.799 -764.294)" fill="#4ba07e"/>
              <path id="Path_51544" data-name="Path 51544" d="M3984.984,774.579a1.41,1.41,0,1,0,1,.413,1.408,1.408,0,0,0-1-.413Z" transform="translate(-3979.554 -766.54)" fill="#4ba07e"/>
              <path id="Path_51545" data-name="Path 51545" d="M3978.719,780.844a1.41,1.41,0,1,0,1,.412,1.405,1.405,0,0,0-1-.412Z" transform="translate(-3977.308 -768.785)" fill="#4ba07e"/>
            </g>
            <g id="Group_50228" data-name="Group 50228" transform="translate(7.542 7.541)">
              <path id="Path_51546" data-name="Path 51546" d="M3956.378,720.911a1.41,1.41,0,1,0,1,.414,1.4,1.4,0,0,0-1-.414Z" transform="translate(-3942.908 -720.911)" fill="#4ba07e"/>
              <path id="Path_51547" data-name="Path 51547" d="M3950.113,727.175a1.41,1.41,0,1,0,1,.414,1.408,1.408,0,0,0-1-.414Z" transform="translate(-3940.662 -723.156)" fill="#4ba07e"/>
              <path id="Path_51548" data-name="Path 51548" d="M3943.848,733.44a1.41,1.41,0,1,0,1,.414,1.411,1.411,0,0,0-1-.414Z" transform="translate(-3938.417 -725.401)" fill="#4ba07e"/>
              <path id="Path_51549" data-name="Path 51549" d="M3937.581,739.707a1.41,1.41,0,1,0,1,.414,1.41,1.41,0,0,0-1-.414Z" transform="translate(-3936.171 -727.647)" fill="#4ba07e"/>
            </g>
            <g id="Group_50229" data-name="Group 50229" transform="translate(3.771 3.771)">
              <path id="Path_51550" data-name="Path 51550" d="M3950.5,715.035a1.41,1.41,0,1,0,1,.413,1.4,1.4,0,0,0-1-.413Z" transform="translate(-3937.031 -715.035)" fill="#4ba07e"/>
              <path id="Path_51551" data-name="Path 51551" d="M3944.235,721.3a1.41,1.41,0,1,0,1,.413,1.409,1.409,0,0,0-1-.413Z" transform="translate(-3934.785 -717.28)" fill="#4ba07e"/>
              <path id="Path_51552" data-name="Path 51552" d="M3937.971,727.564a1.411,1.411,0,1,0,1,.413,1.41,1.41,0,0,0-1-.413Z" transform="translate(-3932.539 -719.525)" fill="#4ba07e"/>
              <path id="Path_51553" data-name="Path 51553" d="M3931.7,733.831a1.41,1.41,0,1,0,1,.413,1.406,1.406,0,0,0-1-.413Z" transform="translate(-3930.294 -721.771)" fill="#4ba07e"/>
            </g>
            <g id="Group_50230" data-name="Group 50230">
              <path id="Path_51554" data-name="Path 51554" d="M3944.624,709.157a1.411,1.411,0,1,0,1,.413,1.408,1.408,0,0,0-1-.413Z" transform="translate(-3931.153 -709.157)" fill="#4ba07e"/>
              <path id="Path_51555" data-name="Path 51555" d="M3938.357,715.423a1.411,1.411,0,1,0,1,.413,1.4,1.4,0,0,0-1-.413Z" transform="translate(-3928.906 -711.403)" fill="#4ba07e"/>
              <path id="Path_51556" data-name="Path 51556" d="M3932.092,721.689a1.41,1.41,0,1,0,1,.412,1.406,1.406,0,0,0-1-.412Z" transform="translate(-3926.661 -713.649)" fill="#4ba07e"/>
              <path id="Path_51557" data-name="Path 51557" d="M3925.826,727.955a1.409,1.409,0,1,0,1,.413,1.405,1.405,0,0,0-1-.413Z" transform="translate(-3924.416 -715.894)" fill="#4ba07e"/>
            </g>
          </g>
          <g id="Group_50232" data-name="Group 50232">
            <path id="Path_51558" data-name="Path 51558" d="M3923.482,732.159l23.934-23.934-11.967-11.966a5.289,5.289,0,0,0-7.478,0l-16.456,16.455a5.288,5.288,0,0,0,0,7.478Z" transform="translate(-3909.968 -694.71)" fill="none" stroke="#327d60" stroke-width="3"/>
            <path id="Path_51559" data-name="Path 51559" d="M3992.269,753.078l-23.933,23.933,11.966,11.967a5.293,5.293,0,0,0,7.481,0l16.454-16.455a5.29,5.29,0,0,0,0-7.479Z" transform="translate(-3930.887 -715.629)" fill="none" stroke="#327d60" stroke-width="3"/>
          </g>
        </g>
      </g>
      <g id="Group_50237" data-name="Group 50237" transform="translate(84.891 56.881)">
        <path id="Path_51560" data-name="Path 51560" d="M3374.63,434.436l1-1-13.07-13.071-1,1a17.765,17.765,0,0,0-17.56,4.49l-20.627,20.627-1.158,1.157-3.2,3.2a2.111,2.111,0,0,0,0,2.987l23.153,23.152a2.113,2.113,0,0,0,2.989,0l3.2-3.2,1.158-1.158L3370.138,452A17.766,17.766,0,0,0,3374.63,434.436Z" transform="translate(-3318.395 -411.068)" fill="none" stroke="#2b6050" stroke-width="3"/>
        <path id="Path_51561" data-name="Path 51561" d="M3401.157,429.625h0l-16.087-16.086h0l7.667-7.667h0l16.086,16.087h0Z" transform="translate(-3342.291 -405.872)" fill="none" stroke="#2b6050" stroke-width="3"/>
        <g id="Group_50235" data-name="Group 50235" transform="translate(45.354 1.446)">
          <line id="Line_168" data-name="Line 168" x1="6.536" y2="6.534" fill="none" stroke="#2b6050" stroke-width="3"/>
          <line id="Line_169" data-name="Line 169" x1="6.536" y2="6.535" transform="translate(1.886 1.885)" fill="none" stroke="#2b6050" stroke-width="3"/>
          <line id="Line_170" data-name="Line 170" x1="6.535" y2="6.535" transform="translate(3.771 3.771)" fill="none" stroke="#2b6050" stroke-width="3"/>
          <line id="Line_171" data-name="Line 171" x1="6.536" y2="6.535" transform="translate(5.655 5.655)" fill="none" stroke="#2b6050" stroke-width="3"/>
          <line id="Line_172" data-name="Line 172" x1="6.535" y2="6.536" transform="translate(7.541 7.54)" fill="none" stroke="#2b6050" stroke-width="3"/>
          <line id="Line_173" data-name="Line 173" x1="6.535" y2="6.536" transform="translate(9.426 9.426)" fill="none" stroke="#2b6050" stroke-width="3"/>
          <line id="Line_174" data-name="Line 174" x1="6.535" y2="6.535" transform="translate(11.311 11.311)" fill="none" stroke="#2b6050" stroke-width="3"/>
          <line id="Line_175" data-name="Line 175" x1="6.535" y2="6.535" transform="translate(13.197 13.196)" fill="none" stroke="#2b6050" stroke-width="3"/>
        </g>
        <path id="Path_51562" data-name="Path 51562" d="M3368.461,463.112a11.375,11.375,0,1,1,0-16.086A11.373,11.373,0,0,1,3368.461,463.112Z" transform="translate(-3329.379 -419.428)" fill="none" stroke="#579f87" stroke-linecap="round" stroke-linejoin="round" stroke-width="6.648" style="mix-blend-mode: multiply;isolation: isolate"/>
        <g id="Group_50236" data-name="Group 50236" transform="translate(24.9 29.504)">
          <path id="Path_51563" data-name="Path 51563" d="M3366,451.857l-2.66,2.66-2.66-2.66-3.478,3.478,2.66,2.66-2.659,2.659,3.477,3.477,2.659-2.658,2.66,2.659,3.479-3.478L3366.821,458l2.659-2.661L3366,451.857Z" transform="translate(-3357.205 -451.857)" fill="#2b6050"/>
        </g>
      </g>
      <g id="Group_50238" data-name="Group 50238" transform="translate(80.131 344.553)" style="mix-blend-mode: multiply;isolation: isolate">
        <path id="Path_51564" data-name="Path 51564" d="M3391.09,922.4c-14.688,5.864-17.665,4.994-30.206,0-30.61-12.251-60.208-3.063-46.434,51.281,6.971,27.462,20.787,51.28,46.434,51.28a42.34,42.34,0,0,1,30.206,0c25.666,0,39.484-23.818,46.449-51.28C3451.315,919.336,3421.717,910.148,3391.09,922.4Z" transform="translate(-3310.976 -876.949)" fill="none" stroke="#3a876c" stroke-width="3"/>
        <path id="Path_51565" data-name="Path 51565" d="M3403.22,888.9a35.5,35.5,0,0,0,.387,5.235,34.273,34.273,0,0,0,4.234.275c18.847,0,34.124-15.517,34.124-34.659a35.3,35.3,0,0,0-.387-5.235,33.769,33.769,0,0,0-4.233-.275C3418.5,854.24,3403.22,869.757,3403.22,888.9Z" transform="translate(-3344.037 -854.24)" fill="none" stroke="#3a876c" stroke-width="3" style="mix-blend-mode: multiply;isolation: isolate"/>
      </g>
      <g id="Group_50239" data-name="Group 50239" transform="translate(281.79 21.472)" style="mix-blend-mode: multiply;isolation: isolate">
        <path id="Path_51566" data-name="Path 51566" d="M3635.066,350.683l-9.782,9.789,9.782,9.785" transform="translate(-3625.284 -350.683)" fill="none" stroke="#aad9cb" stroke-linecap="round" stroke-linejoin="round" stroke-width="3"/>
        <line id="Line_176" data-name="Line 176" y1="0.004" x2="35.473" transform="translate(2.658 9.786)" fill="none" stroke="#aad9cb" stroke-linecap="round" stroke-linejoin="round" stroke-width="3"/>
      </g>
      <g id="Group_50240" data-name="Group 50240" transform="translate(281.79 1.433)" style="mix-blend-mode: multiply;isolation: isolate">
        <path id="Path_51567" data-name="Path 51567" d="M3669.471,339.025l9.781-9.789-9.781-9.784" transform="translate(-3641.121 -319.451)" fill="none" stroke="#aad9cb" stroke-linecap="round" stroke-linejoin="round" stroke-width="3"/>
        <line id="Line_177" data-name="Line 177" x1="35.474" y2="0.004" transform="translate(0 9.784)" fill="none" stroke="#aad9cb" stroke-linecap="round" stroke-linejoin="round" stroke-width="3"/>
      </g>
    </g>
    <g id="Group_50246" data-name="Group 50246" transform="translate(-20533.736 -19068.258)">
      <g id="Group_50242" data-name="Group 50242" transform="translate(12.444 0)">
        <path id="Path_51568" data-name="Path 51568" d="M3084.552,721.446s8.036.679,10.546-2.378-4.862-2.063-1.535.146,10.754-1.763,8.768-5.475-5.106-5.3-8.122-3.131-.546,3.4.589,1.28-3.448-7.284-7.307.079-1.773,7.928-.455,3.053-1.771-7.952-4.068-2.222,1.234,8.556,2.115,5.992-6.628-7.96-7.2-3.069-1.036,10.744,2.681,10.813-4.962-12.737-8.358-2.26,3.449,7.286,3.713,4.929-12.509,2.036-2.6,5.464,6.184-.758,7.015-3.148-8.342,3.91-3.365,8.993,9.721,4.122,8.729-1.188-6.6-2.534-4.807,1.876-.964,7.025-2.023,7.486,6.84,3.72,8.367-.54S3090.865,722.968,3084.552,721.446Z" transform="translate(-3069.543 -708.142)" fill="#163f59"/>
        <path id="Path_51569" data-name="Path 51569" d="M3101.27,722.9l4.566,5.906-.044,2.23,3.967,5.373-1.766,3.07.828,9.379s.691,5.044-4.043,3.2l-4.736-1.84s-3.989,12.581-1.232,14.823,4.711,4.79,3.588,6.178c-1.021,1.267-3.726.34-6.5.033-4.945-.547-8.227.389-10.344.49-1.534.074.59-.85,1.011-4.011.416-3.133,3.018-21.651,3.018-21.651a2.785,2.785,0,0,1-2.01-.169c-1.172-.5-6.433-4.542-4.682-6.871s5.584-1.294,6.852.918,3.592-.149,3.027-4.972-10.2-7.645.788-9.129C3100.923,724.859,3101.27,722.9,3101.27,722.9Z" transform="translate(-3074.199 -713.431)" fill="#e9d6b8"/>
      </g>
      <g id="Group_50245" data-name="Group 50245" transform="translate(28.669 25.783)">
        <path id="Path_51570" data-name="Path 51570" d="M3174.415,791.866l25.242-23.086s1.678,2.027,1.044,3.882c-1.729,5.023-8.746,12.531-12.677,16.785a81.227,81.227,0,0,1-12.265,10.483Z" transform="translate(-3123.354 -755.658)" fill="#e9d6b8"/>
        <g id="Group_50244" data-name="Group 50244" transform="translate(73.104)">
          <g id="Group_50243" data-name="Group 50243" transform="translate(1.395)">
            <path id="Path_51571" data-name="Path 51571" d="M3212.785,771.014l3.187-2.71a14.364,14.364,0,0,0,2.889-3.241c1.313-2.028.563-3.993-1.136-5.613a6.223,6.223,0,0,0-2.981-1.8s-2.745,1.216-2.4,3.67-2.125,7.872-1.187,8.264A4.279,4.279,0,0,1,3212.785,771.014Z" transform="translate(-3210.945 -751.668)" fill="#e9d6b8"/>
            <path id="Path_51572" data-name="Path 51572" d="M3215.027,754.794l3.172-3.42,3.095-3.046.394.893-1.894,2.467-1.011,5.158-1.251-.685Z" transform="translate(-3212.408 -748.328)" fill="#e9d6b8"/>
            <path id="Path_51573" data-name="Path 51573" d="M3222.283,754.544l3.41-1.782.619.749-3.045,2.366-2.207,3.472-2.13-1.6Z" transform="translate(-3213.807 -749.917)" fill="#e9d6b8"/>
            <path id="Path_51574" data-name="Path 51574" d="M3228.007,756.336l-2.807,1.25-1.977.572-1.362,1.817,1.269,1.807,1.407-2,3.416-2.274Z" transform="translate(-3214.858 -751.198)" fill="#e9d6b8"/>
            <path id="Path_51575" data-name="Path 51575" d="M3228.919,761.035l-5.365,1.375-.879,1.354.8,1.288,2.178-1.509,2.885-1.625Z" transform="translate(-3215.149 -752.883)" fill="#e9d6b8"/>
          </g>
          <path id="Path_51576" data-name="Path 51576" d="M3208.795,769.382a5.637,5.637,0,0,0,1.354-4.385s-.787-6.554.174-7.636a11.334,11.334,0,0,0,1.563-3.88s.82-1.046,1.172,1.606a10.971,10.971,0,0,1-.1,3.283s1.771,3.576,1.637,4.736c-.27,2.389-4.573,6.59-4.573,6.59S3208.571,769.608,3208.795,769.382Z" transform="translate(-3208.771 -750.103)" fill="#e9d6b8"/>
        </g>
        <path id="Path_51577" data-name="Path 51577" d="M3115.688,787.013l11.7,2.82,11,2.081,27.286-18.325,6.315,10.891-31.52,25.573L3103.6,805.3a77.457,77.457,0,0,1-8.623-19.922C3092.921,777.457,3113.36,786.684,3115.688,787.013Z" transform="translate(-3094.831 -757.382)" fill="#b3dfd2"/>
      </g>
      <path id="Path_51578" data-name="Path 51578" d="M3128.974,864.015l31.638.936s-23.445,14.111-31.959,7S3128.974,864.015,3128.974,864.015Z" transform="translate(-3076.956 -764.007)" fill="#e9d6b8"/>
      <path id="Path_51579" data-name="Path 51579" d="M3068.126,1154.881l-1,3.058-16.982-5.542,2.281-8.337,10.348,3S3066.653,1153.917,3068.126,1154.881Z" transform="translate(-3050.147 -864.376)" fill="#161711"/>
      <path id="Path_51580" data-name="Path 51580" d="M3085.715,909.865s8.123,53.118,17.272,76.55c8.1,20.763,18.635-5.8,18.635-5.8l-13.708-89.128-25.659-2.5S3080.476,889.607,3085.715,909.865Z" transform="translate(-3061.551 -772.96)" fill="#35705e"/>
      <path id="Path_51581" data-name="Path 51581" d="M3098.116,894.311l2.436,34.186-4.509,2.529s-3.654,50.632-4.553,53.177c-5.129,14.57-17.412,5.5-19.009.573s-3.663-41.179-2.535-67.576l1.127-26.4Z" transform="translate(-3057.127 -773.606)" fill="#35705e"/>
      <path id="Path_51582" data-name="Path 51582" d="M3085.624,1018.1s-.1,9.264-4.381,25.8c-2.714,10.477-10.436,38.1-17.352,58.375-.426,1.243-10.551-2.207-10.551-2.207s9.868-68.846,12.445-82.018C3066.56,1014.081,3079.583,1006.822,3085.624,1018.1Z" transform="translate(-3051.291 -817.069)" fill="#35705e"/>
      <path id="Path_51583" data-name="Path 51583" d="M3092.12,783.754l-1.316,1.265-9.778-5.643-14.19,10.284s-2.7,9.566-2.834,28.712c-.142,19.192,1.487,88.015,1.487,88.015l36.573,2.974,3.866-26.168,2.677,23.492,4.461-3.569S3103.168,792.4,3092.12,783.754Z" transform="translate(-3055.109 -733.672)" fill="#2b6050"/>
      <path id="Path_51584" data-name="Path 51584" d="M3128.709,1027.708s-3,.914-12.5,1.046c-9.463.142,10.568,76.7,10.568,76.7l13.54-4.652-8.049-76.818Z" transform="translate(-3072.912 -821.341)" fill="#346f5d"/>
      <path id="Path_51585" data-name="Path 51585" d="M3135.746,1147.151l1.134,6.7,6.8.146,6.377.134,8.931.188.051-2.449s-10.55-3.9-12.591-8.031S3135.746,1147.151,3135.746,1147.151Z" transform="translate(-3080.826 -863.849)" fill="#161711"/>
      <path id="Path_51586" data-name="Path 51586" d="M3187.141,867.153l-3.026,1.061-12.428-4.094,4.859-8.738,1.628,2.573,4.342-.173,5.455,7.629Z" transform="translate(-3093.707 -760.913)" fill="#e9d6b8"/>
      <path id="Path_51587" data-name="Path 51587" d="M3099.491,786.919l4.925-.719,5.07,6.238.708,18.268-5.352-9.513-6.542-10.408Z" transform="translate(-3067.405 -736.118)" fill="#d1dbea"/>
      <path id="Path_51588" data-name="Path 51588" d="M3099.064,783.461l.67,6.245-13.615-7.643,1.572-4.474Z" transform="translate(-3063.04 -733.032)" fill="#2b6050"/>
      <path id="Path_51589" data-name="Path 51589" d="M3106.966,783.959l-.67,1.785,2.677,5.8.223-5.128Z" transform="translate(-3070.27 -735.315)" fill="#2b6050"/>
      <path id="Path_51590" data-name="Path 51590" d="M3085.981,778.516l12.489,13.975,6.245,15.461,6.244,28.546-14.57-36.573,1.487-1.19-2.379-1.487s-4.758-6.839-8.623-10.406-3.865-4.163-3.865-4.163Z" transform="translate(-3061.925 -733.364)" fill="#e9f6ff"/>
      <path id="Path_51591" data-name="Path 51591" d="M3073.054,794.274s-7.386,3.8-3.84,14.774c6.034,18.705,18.638,34.117,21.011,37.2s10.3,9.5,16.189,8.087c3.717-.891,23.639-1.781,23.639-1.781l.891-13.382-22.29-.153-2.172-.409s-7.66-12.151-14.058-23.986S3073.054,794.274,3073.054,794.274Z" transform="translate(-3056.635 -739.012)" fill="#b3dfd2"/>
      <path id="Path_51592" data-name="Path 51592" d="M3112.093,806.151s-1.435-18.844-2.5-19.976,2.8,2.135,2.8,2.135l1.076,4.033,1.3,4.888,2.677,30.33Z" transform="translate(-3071.385 -736.024)" fill="#e9f6ff"/>
      <rect id="Rectangle_22602" data-name="Rectangle 22602" width="17.394" height="3.79" transform="translate(26.659 144.764)" fill="#e9f6ff"/>
    </g>
  </g>
</svg>
