<svg xmlns="http://www.w3.org/2000/svg" width="445.332" height="447.155" viewBox="0 0 445.332 447.155">
  <g id="Group_47525" data-name="Group 47525" transform="translate(-51.811 -51)">
    <g id="Group_47340" data-name="Group 47340" transform="translate(51.811 51)">
      <path id="Path_44466" data-name="Path 44466" d="M438.584,352.49s88.652-138.119,47.8-226.447S348.026,37.211,314.317,74.126c-20.6,22.562-14.6,60.25-63.372,74.83-29.836,8.918-51.558-5.382-96.037-20.889s-96.12,18.2-102.466,72.036c-7.122,60.42,47.874,92,78.065,113.754s14.9,57.822,27.415,91.6S372.3,475.1,438.584,352.49Z" transform="translate(-51.811 -51)" fill="#d5faf6"/>
      <path id="Path_44467" data-name="Path 44467" d="M451.551,198.717s6.744-78.067-43.863-116.874c-43.523-33.376-87.031-17.194-100.724-2.529s1.289,32.365,39.115,29.836S441.268,132.75,451.551,198.717Z" transform="translate(-20.915 -49.615)" fill="#fff"/>
    </g>
    <g id="Group_47524" data-name="Group 47524" transform="translate(58.787 137.671)">
      <g id="Group_47341" data-name="Group 47341" transform="translate(0 311.705)">
        <ellipse id="Ellipse_463" data-name="Ellipse 463" cx="48.211" cy="10.422" rx="48.211" ry="10.422" transform="translate(134.429 27.937)" fill="#d2edff"/>
        <ellipse id="Ellipse_464" data-name="Ellipse 464" cx="48.211" cy="10.422" rx="48.211" ry="10.422" transform="translate(305.47 17.515)" fill="#d2edff"/>
        <ellipse id="Ellipse_465" data-name="Ellipse 465" cx="125.104" cy="10.422" rx="125.104" ry="10.422" transform="translate(151.873 7.094)" fill="#d2edff"/>
        <ellipse id="Ellipse_466" data-name="Ellipse 466" cx="125.104" cy="10.422" rx="125.104" ry="10.422" fill="#d2edff"/>
      </g>
      <g id="Group_47523" data-name="Group 47523" transform="translate(1.643)">
        <g id="Group_47468" data-name="Group 47468" transform="translate(0 37.909)">
          <g id="Group_47362" data-name="Group 47362" transform="translate(14.587)">
            <g id="Group_47358" data-name="Group 47358">
              <g id="Group_47357" data-name="Group 47357">
                <g id="Group_47355" data-name="Group 47355">
                  <g id="Group_47343" data-name="Group 47343">
                    <g id="Group_47342" data-name="Group 47342">
                      <circle id="Ellipse_467" data-name="Ellipse 467" cx="79.459" cy="79.459" r="79.459" fill="#acdaff"/>
                      <circle id="Ellipse_468" data-name="Ellipse 468" cx="68.824" cy="68.824" r="68.824" transform="translate(10.634 10.634)" fill="#e6ffff"/>
                      <path id="Path_44468" data-name="Path 44468" d="M174.422,241.9c9.6-14.506,10.617-40.646,5.793-54.57a60.149,60.149,0,0,0-84.5,78.2,5.7,5.7,0,0,1,1.4.207C119.081,274.9,156.374,269.174,174.422,241.9Z" transform="translate(-70.344 -159.762)" fill="#fffaff" opacity="0.57"/>
                    </g>
                  </g>
                  <g id="Group_47354" data-name="Group 47354" transform="translate(15.962 15.962)">
                    <g id="Group_47353" data-name="Group 47353" transform="translate(0 0)">
                      <g id="Group_47348" data-name="Group 47348">
                        <g id="Group_47345" data-name="Group 47345" transform="translate(60.895)">
                          <g id="Group_47344" data-name="Group 47344" transform="translate(0)">
                            <rect id="Rectangle_21054" data-name="Rectangle 21054" width="17.09" height="4.207" rx="1.872" transform="matrix(0.008, -1, 1, 0.008, 0.863, 17.089)" fill="#acdaff"/>
                            <rect id="Rectangle_21055" data-name="Rectangle 21055" width="17.09" height="4.207" rx="1.872" transform="translate(0 126.961) rotate(-89.55)" fill="#acdaff"/>
                          </g>
                        </g>
                        <g id="Group_47347" data-name="Group 47347" transform="translate(0 60.895)">
                          <g id="Group_47346" data-name="Group 47346" transform="translate(0 0)">
                            <rect id="Rectangle_21056" data-name="Rectangle 21056" width="4.207" height="17.09" rx="1.872" transform="matrix(0.008, -1, 1, 0.008, 109.872, 5.07)" fill="#acdaff"/>
                            <rect id="Rectangle_21057" data-name="Rectangle 21057" width="4.207" height="17.09" rx="1.872" transform="translate(0 4.207) rotate(-89.55)" fill="#acdaff"/>
                          </g>
                        </g>
                      </g>
                      <g id="Group_47349" data-name="Group 47349" transform="translate(32.776 12.714)">
                        <circle id="Ellipse_469" data-name="Ellipse 469" cx="2.104" cy="2.104" r="2.104" transform="translate(57.235)" fill="#acdaff"/>
                        <circle id="Ellipse_470" data-name="Ellipse 470" cx="2.104" cy="2.104" r="2.104" transform="translate(0 97.36)" fill="#acdaff"/>
                      </g>
                      <g id="Group_47350" data-name="Group 47350" transform="translate(12.27 33.544)">
                        <circle id="Ellipse_471" data-name="Ellipse 471" cx="2.104" cy="2.104" r="2.104" transform="translate(98.247)" fill="#acdaff"/>
                        <circle id="Ellipse_472" data-name="Ellipse 472" cx="2.104" cy="2.104" r="2.104" transform="translate(0 55.699)" fill="#acdaff"/>
                      </g>
                      <g id="Group_47351" data-name="Group 47351" transform="translate(12.714 32.776)">
                        <circle id="Ellipse_473" data-name="Ellipse 473" cx="2.104" cy="2.104" r="2.104" transform="translate(97.36 57.235)" fill="#acdaff"/>
                        <circle id="Ellipse_474" data-name="Ellipse 474" cx="2.104" cy="2.104" r="2.104" fill="#acdaff"/>
                      </g>
                      <g id="Group_47352" data-name="Group 47352" transform="translate(33.544 12.27)">
                        <circle id="Ellipse_475" data-name="Ellipse 475" cx="2.104" cy="2.104" r="2.104" transform="translate(55.699 98.247)" fill="#acdaff"/>
                        <circle id="Ellipse_476" data-name="Ellipse 476" cx="2.104" cy="2.104" r="2.104" fill="#acdaff"/>
                      </g>
                    </g>
                  </g>
                </g>
                <g id="Group_47356" data-name="Group 47356" transform="translate(31.813 48.557)">
                  <path id="Path_44469" data-name="Path 44469" d="M164.634,220.188c6.292-2.454,35.652-15.084,35.652-15.084l.108.2.215.4.108.2s-26.723,17.536-32.238,21.432-25.073,9.99-25.073,9.99l-.356-.663-.213-.4-.357-.663S158.343,222.643,164.634,220.188Z" transform="translate(-95.632 -205.104)" fill="#ffbc00"/>
                  <path id="Path_44470" data-name="Path 44470" d="M128.464,237.316c-4.814-.746-27.669-3.189-27.669-3.189l0-.228-.007-.451,0-.228s22.77-3.128,27.561-4.018,19.256,2.79,19.256,2.79l.011.753.007.452.011.753S133.279,238.063,128.464,237.316Z" transform="translate(-100.782 -202.145)" fill="#ffbc00"/>
                  <circle id="Ellipse_477" data-name="Ellipse 477" cx="4.207" cy="4.207" r="4.207" transform="translate(43.438 26.695)" fill="#acdaff"/>
                </g>
              </g>
            </g>
            <g id="Group_47361" data-name="Group 47361" transform="translate(18.563 157.639)">
              <g id="Group_47359" data-name="Group 47359" transform="translate(0.382 0.523)">
                <path id="Path_44471" data-name="Path 44471" d="M108.074,309.088,89.357,421.2a2.119,2.119,0,0,0,2.09,2.466h0a2.117,2.117,0,0,0,2.069-1.668l24.5-112.906Z" transform="translate(-89.328 -301.867)" fill="#acdaff"/>
                <path id="Path_44472" data-name="Path 44472" d="M123.568,303.149,110.382,416.041a2.118,2.118,0,0,0,2.207,2.362h0a2.118,2.118,0,0,0,1.985-1.768L133.5,302.661Z" transform="translate(-86.73 -302.661)" fill="#acdaff"/>
              </g>
              <g id="Group_47360" data-name="Group 47360" transform="translate(86.563 0.523)">
                <path id="Path_44473" data-name="Path 44473" d="M192.075,309.088,210.791,421.2a2.117,2.117,0,0,1-2.089,2.466h0a2.117,2.117,0,0,1-2.07-1.668l-24.5-112.906Z" transform="translate(-164.047 -301.867)" fill="#acdaff"/>
                <path id="Path_44474" data-name="Path 44474" d="M175.97,303.149l13.187,112.892a2.119,2.119,0,0,1-2.208,2.362h0a2.118,2.118,0,0,1-1.984-1.768l-18.93-113.973Z" transform="translate(-166.035 -302.661)" fill="#acdaff"/>
              </g>
              <rect id="Rectangle_21058" data-name="Rectangle 21058" width="135.606" height="10.354" rx="4.608" fill="#2099ff"/>
            </g>
          </g>
          <g id="Group_47381" data-name="Group 47381" transform="translate(0 188.83)">
            <g id="Group_47363" data-name="Group 47363" transform="translate(7.278 5.836)">
              <path id="Path_44475" data-name="Path 44475" d="M98.554,394.98l-.32-.114a51.545,51.545,0,0,0,1.608-23.295c-1.965-11.589-9.437-27.26-33.88-36.1l.115-.319c10.859,3.927,19.325,9.516,25.163,16.611a41.61,41.61,0,0,1,8.94,19.766A51.932,51.932,0,0,1,98.554,394.98Z" transform="translate(-65.961 -335.152)" fill="#6cb7d8"/>
            </g>
            <g id="Group_47364" data-name="Group 47364" transform="translate(0 2.806)">
              <path id="Path_44476" data-name="Path 44476" d="M70.195,336.95s-6.428.971-9.741-1.986S62.786,330.578,70.195,336.95Z" transform="translate(-59.483 -332.455)" fill="#6cb7d8"/>
            </g>
            <g id="Group_47365" data-name="Group 47365" transform="translate(10.187)">
              <path id="Path_44477" data-name="Path 44477" d="M75.734,340.417s-2.012-8.5-5.137-10.177S67.034,334.625,75.734,340.417Z" transform="translate(-68.55 -329.957)" fill="#6cb7d8"/>
            </g>
            <g id="Group_47366" data-name="Group 47366" transform="translate(4.309 9.546)">
              <path id="Path_44478" data-name="Path 44478" d="M75.361,338.784s-8.65-1.234-11.35,1.064S66.792,344.766,75.361,338.784Z" transform="translate(-63.318 -338.454)" fill="#6cb7d8"/>
            </g>
            <g id="Group_47367" data-name="Group 47367" transform="translate(9.625 12.804)">
              <path id="Path_44479" data-name="Path 44479" d="M80.092,341.684s-8.651-1.232-11.35,1.064S71.523,347.667,80.092,341.684Z" transform="translate(-68.049 -341.354)" fill="#6cb7d8"/>
            </g>
            <g id="Group_47368" data-name="Group 47368" transform="translate(14.976 16.583)">
              <path id="Path_44480" data-name="Path 44480" d="M84.855,345.048s-8.65-1.234-11.35,1.064S76.286,351.03,84.855,345.048Z" transform="translate(-72.812 -344.718)" fill="#6cb7d8"/>
            </g>
            <g id="Group_47369" data-name="Group 47369" transform="translate(20.01 21.326)">
              <path id="Path_44481" data-name="Path 44481" d="M89.481,349.749s-8.524-1.921-11.4.152S80.46,355.026,89.481,349.749Z" transform="translate(-77.293 -348.938)" fill="#6cb7d8"/>
            </g>
            <g id="Group_47370" data-name="Group 47370" transform="translate(24.719 26.479)">
              <path id="Path_44482" data-name="Path 44482" d="M93.7,356.117s-7.923-3.684-11.171-2.267S83.767,359.363,93.7,356.117Z" transform="translate(-81.485 -353.525)" fill="#6cb7d8"/>
            </g>
            <g id="Group_47371" data-name="Group 47371" transform="translate(29.099 31.831)">
              <path id="Path_44483" data-name="Path 44483" d="M96.666,364.023S90.339,358,86.808,358.3,86.216,363.919,96.666,364.023Z" transform="translate(-85.383 -358.289)" fill="#6cb7d8"/>
            </g>
            <g id="Group_47372" data-name="Group 47372" transform="translate(32.713 38.719)">
              <path id="Path_44484" data-name="Path 44484" d="M97.773,373.2s-3.952-7.793-7.381-8.686S87.957,369.608,97.773,373.2Z" transform="translate(-88.6 -364.42)" fill="#6cb7d8"/>
            </g>
            <g id="Group_47373" data-name="Group 47373" transform="translate(34.276 46.818)">
              <path id="Path_44485" data-name="Path 44485" d="M97.218,382.059s-2.054-8.494-5.185-10.152S88.491,376.309,97.218,382.059Z" transform="translate(-89.991 -371.628)" fill="#6cb7d8"/>
            </g>
            <g id="Group_47374" data-name="Group 47374" transform="translate(18.115 1.119)">
              <path id="Path_44486" data-name="Path 44486" d="M80.818,343.995s.849-7.472-2.027-11.47-3.845.586-2.74,3.165A89.693,89.693,0,0,0,80.818,343.995Z" transform="translate(-75.607 -330.953)" fill="#6cb7d8"/>
            </g>
            <g id="Group_47375" data-name="Group 47375" transform="translate(24.142 4.101)">
              <path id="Path_44487" data-name="Path 44487" d="M84.518,347.128s2.021-7.244-.187-11.646-3.89-.029-3.206,2.691A89.568,89.568,0,0,0,84.518,347.128Z" transform="translate(-80.971 -333.607)" fill="#6cb7d8"/>
            </g>
            <g id="Group_47376" data-name="Group 47376" transform="translate(30.522 8.06)">
              <path id="Path_44488" data-name="Path 44488" d="M87.876,350.773s3.645-6.578,2.518-11.372-3.777-.929-3.744,1.875A89.489,89.489,0,0,0,87.876,350.773Z" transform="translate(-86.65 -337.131)" fill="#6cb7d8"/>
            </g>
            <g id="Group_47377" data-name="Group 47377" transform="translate(34.478 13.31)">
              <path id="Path_44489" data-name="Path 44489" d="M91.4,355.446s3.645-6.578,2.518-11.372-3.777-.929-3.744,1.875A89.8,89.8,0,0,0,91.4,355.446Z" transform="translate(-90.171 -341.804)" fill="#6cb7d8"/>
            </g>
            <g id="Group_47378" data-name="Group 47378" transform="translate(39.012 20.727)">
              <path id="Path_44490" data-name="Path 44490" d="M94.345,361.812s4.463-6.053,3.963-10.952-3.626-1.409-3.954,1.376A89.818,89.818,0,0,0,94.345,361.812Z" transform="translate(-94.207 -348.406)" fill="#6cb7d8"/>
            </g>
            <g id="Group_47379" data-name="Group 47379" transform="translate(41.478 30.992)">
              <path id="Path_44491" data-name="Path 44491" d="M96.4,370.221s5.53-5.1,5.969-10-3.292-2.072-4.142.6A89.647,89.647,0,0,0,96.4,370.221Z" transform="translate(-96.401 -357.542)" fill="#6cb7d8"/>
            </g>
            <g id="Group_47380" data-name="Group 47380" transform="translate(41.868 40.888)">
              <path id="Path_44492" data-name="Path 44492" d="M96.748,377.8s6.441-3.881,7.858-8.6-2.81-2.691-4.179-.244A89.483,89.483,0,0,0,96.748,377.8Z" transform="translate(-96.748 -366.351)" fill="#6cb7d8"/>
            </g>
          </g>
          <g id="Group_47400" data-name="Group 47400" transform="translate(71.226 172.113)">
            <g id="Group_47382" data-name="Group 47382" transform="translate(7.853 5.836)">
              <path id="Path_44493" data-name="Path 44493" d="M132.156,380.1l.32-.113a51.546,51.546,0,0,1-1.608-23.295c1.965-11.589,9.437-27.26,33.88-36.1l-.115-.319c-10.86,3.928-19.325,9.516-25.163,16.611a41.611,41.611,0,0,0-8.94,19.766A51.913,51.913,0,0,0,132.156,380.1Z" transform="translate(-129.869 -320.272)" fill="#6cb7d8"/>
            </g>
            <g id="Group_47383" data-name="Group 47383" transform="translate(39.3 2.806)">
              <path id="Path_44494" data-name="Path 44494" d="M157.859,322.07s6.428.971,9.741-1.986S165.267,315.7,157.859,322.07Z" transform="translate(-157.859 -317.575)" fill="#6cb7d8"/>
            </g>
            <g id="Group_47384" data-name="Group 47384" transform="translate(32.641)">
              <path id="Path_44495" data-name="Path 44495" d="M151.932,325.537s2.012-8.5,5.137-10.177S160.631,319.745,151.932,325.537Z" transform="translate(-151.932 -315.077)" fill="#6cb7d8"/>
            </g>
            <g id="Group_47385" data-name="Group 47385" transform="translate(33.66 9.546)">
              <path id="Path_44496" data-name="Path 44496" d="M152.839,323.9s8.65-1.233,11.35,1.064S161.408,329.887,152.839,323.9Z" transform="translate(-152.839 -323.574)" fill="#6cb7d8"/>
            </g>
            <g id="Group_47386" data-name="Group 47386" transform="translate(28.345 12.804)">
              <path id="Path_44497" data-name="Path 44497" d="M148.108,326.8s8.651-1.232,11.35,1.064S156.677,332.787,148.108,326.8Z" transform="translate(-148.108 -326.474)" fill="#6cb7d8"/>
            </g>
            <g id="Group_47387" data-name="Group 47387" transform="translate(22.993 16.583)">
              <path id="Path_44498" data-name="Path 44498" d="M143.345,330.168s8.65-1.234,11.35,1.064S151.914,336.15,143.345,330.168Z" transform="translate(-143.345 -329.838)" fill="#6cb7d8"/>
            </g>
            <g id="Group_47388" data-name="Group 47388" transform="translate(17.814 21.325)">
              <path id="Path_44499" data-name="Path 44499" d="M138.735,334.869s8.524-1.921,11.4.152S147.756,340.146,138.735,334.869Z" transform="translate(-138.735 -334.059)" fill="#6cb7d8"/>
            </g>
            <g id="Group_47389" data-name="Group 47389" transform="translate(13.076 26.479)">
              <path id="Path_44500" data-name="Path 44500" d="M134.518,341.238s7.923-3.685,11.171-2.268S144.451,344.483,134.518,341.238Z" transform="translate(-134.518 -338.645)" fill="#6cb7d8"/>
            </g>
            <g id="Group_47390" data-name="Group 47390" transform="translate(9.629 31.831)">
              <path id="Path_44501" data-name="Path 44501" d="M131.45,349.143s6.328-6.025,9.859-5.723S141.9,349.039,131.45,349.143Z" transform="translate(-131.45 -343.409)" fill="#6cb7d8"/>
            </g>
            <g id="Group_47391" data-name="Group 47391" transform="translate(8.125 38.719)">
              <path id="Path_44502" data-name="Path 44502" d="M130.111,358.317s3.952-7.794,7.381-8.687S139.927,354.728,130.111,358.317Z" transform="translate(-130.111 -349.54)" fill="#6cb7d8"/>
            </g>
            <g id="Group_47392" data-name="Group 47392" transform="translate(8.508 46.819)">
              <path id="Path_44503" data-name="Path 44503" d="M130.452,367.178s2.054-8.493,5.185-10.151S139.179,361.429,130.452,367.178Z" transform="translate(-130.452 -356.749)" fill="#6cb7d8"/>
            </g>
            <g id="Group_47393" data-name="Group 47393" transform="translate(26.568 1.119)">
              <path id="Path_44504" data-name="Path 44504" d="M146.644,329.115s-.849-7.472,2.026-11.469,3.846.586,2.741,3.164A89.689,89.689,0,0,1,146.644,329.115Z" transform="translate(-146.527 -316.074)" fill="#6cb7d8"/>
            </g>
            <g id="Group_47394" data-name="Group 47394" transform="translate(21.477 4.101)">
              <path id="Path_44505" data-name="Path 44505" d="M142.841,332.248s-2.021-7.244.186-11.646,3.89-.029,3.206,2.692A89.631,89.631,0,0,1,142.841,332.248Z" transform="translate(-141.995 -318.727)" fill="#6cb7d8"/>
            </g>
            <g id="Group_47395" data-name="Group 47395" transform="translate(15.529 8.06)">
              <path id="Path_44506" data-name="Path 44506" d="M139.436,335.892s-3.645-6.578-2.518-11.372,3.777-.929,3.744,1.875A89.486,89.486,0,0,1,139.436,335.892Z" transform="translate(-136.702 -322.252)" fill="#6cb7d8"/>
            </g>
            <g id="Group_47396" data-name="Group 47396" transform="translate(11.574 13.31)">
              <path id="Path_44507" data-name="Path 44507" d="M135.915,340.565s-3.645-6.578-2.518-11.372,3.777-.929,3.744,1.875A89.8,89.8,0,0,1,135.915,340.565Z" transform="translate(-133.181 -326.925)" fill="#6cb7d8"/>
            </g>
            <g id="Group_47397" data-name="Group 47397" transform="translate(6.859 20.727)">
              <path id="Path_44508" data-name="Path 44508" d="M132.986,346.933s-4.463-6.053-3.963-10.953,3.626-1.409,3.954,1.376A89.847,89.847,0,0,1,132.986,346.933Z" transform="translate(-128.984 -333.526)" fill="#6cb7d8"/>
            </g>
            <g id="Group_47398" data-name="Group 47398" transform="translate(2.529 30.992)">
              <path id="Path_44509" data-name="Path 44509" d="M131.135,355.341s-5.531-5.1-5.969-10,3.292-2.071,4.142.6A89.643,89.643,0,0,1,131.135,355.341Z" transform="translate(-125.13 -342.663)" fill="#6cb7d8"/>
            </g>
            <g id="Group_47399" data-name="Group 47399" transform="translate(0 40.888)">
              <path id="Path_44510" data-name="Path 44510" d="M131.023,362.917s-6.442-3.882-7.858-8.6,2.81-2.691,4.179-.244A89.584,89.584,0,0,1,131.023,362.917Z" transform="translate(-122.879 -351.471)" fill="#6cb7d8"/>
            </g>
          </g>
          <g id="Group_47467" data-name="Group 47467" transform="translate(12.233 167.668)">
            <g id="Group_47409" data-name="Group 47409" transform="translate(23.684)">
              <g id="Group_47401" data-name="Group 47401">
                <path id="Path_44511" data-name="Path 44511" d="M99.665,366.674s-7.511-22.231-.75-28.616-1.629-15.446.357-21.348,9.266-9.409,12.438,1.419,4.073,11.163,12.05,11.661,7.362,16.558,5.952,23.948,6.423-4.283,8.791,3.648-9.107,24.285-21.18,32.807S90.486,374.475,91.5,368.412,96.945,370.466,99.665,366.674Z" transform="translate(-91.451 -311.122)" fill="#82c4e8"/>
              </g>
              <g id="Group_47402" data-name="Group 47402" transform="translate(0 24.542)">
                <path id="Path_44512" data-name="Path 44512" d="M100.728,332.966a8.641,8.641,0,0,1-1.813,2.394c-6.76,6.385.75,28.616.75,28.616-2.72,3.792-7.151-4.324-8.165,1.738s13.751,30.3,25.823,21.781c.648-.457,1.294-.941,1.937-1.443A109.351,109.351,0,0,0,100.728,332.966Z" transform="translate(-91.451 -332.966)" fill="#6cb7d8"/>
              </g>
              <g id="Group_47408" data-name="Group 47408" transform="translate(4.191 5.22)">
                <g id="Group_47403" data-name="Group 47403" transform="translate(8.186)">
                  <path id="Path_44513" data-name="Path 44513" d="M111.856,391.727a.535.535,0,0,1-.922-.46c.058-.3,5.624-30.715-8.441-74.8a.535.535,0,0,1,1.019-.326c14.155,44.367,8.531,75.024,8.472,75.329A.535.535,0,0,1,111.856,391.727Z" transform="translate(-102.467 -315.768)" fill="#98cff4"/>
                </g>
                <g id="Group_47404" data-name="Group 47404" transform="translate(5.12 6.471)">
                  <path id="Path_44514" data-name="Path 44514" d="M107.052,328.831,99.938,323.1a.534.534,0,0,1-.081-.752.539.539,0,0,1,.753-.081l6.155,4.96,3.244-5.437a.535.535,0,1,1,.919.548Z" transform="translate(-99.739 -321.528)" fill="#98cff4"/>
                </g>
                <g id="Group_47405" data-name="Group 47405" transform="translate(4.723 17.239)">
                  <path id="Path_44515" data-name="Path 44515" d="M124.491,332.005c-.011.012-.022.025-.035.036L110.614,344.7l-11-7.471a.535.535,0,0,1,.6-.885l10.3,7,13.217-12.091a.535.535,0,0,1,.757.754Z" transform="translate(-99.385 -331.111)" fill="#98cff4"/>
                </g>
                <g id="Group_47406" data-name="Group 47406" transform="translate(3.462 34.891)">
                  <path id="Path_44516" data-name="Path 44516" d="M127.628,347.717l-.017.018-14.666,14.789L98.464,350.98a.535.535,0,1,1,.666-.837l13.73,10.945,13.991-14.107a.535.535,0,0,1,.776.736Z" transform="translate(-98.262 -346.823)" fill="#98cff4"/>
                </g>
                <g id="Group_47407" data-name="Group 47407" transform="translate(0 45.315)">
                  <path id="Path_44517" data-name="Path 44517" d="M134.317,357l-.015.017-20.941,21.276L95.41,365.735a.535.535,0,1,1,.612-.876l17.211,12.035,20.306-20.632a.535.535,0,0,1,.777.734Z" transform="translate(-95.181 -356.102)" fill="#98cff4"/>
                </g>
              </g>
            </g>
            <g id="Group_47418" data-name="Group 47418" transform="translate(0 49.068)">
              <g id="Group_47410" data-name="Group 47410">
                <path id="Path_44518" data-name="Path 44518" d="M98.886,389.857s-16.41-8.212-16.171-15.48-9.408-7.681-11.554-12.053-.034-10.326,7.689-6.06,8.408,3.958,13.112-.156,13.2,5.142,16.489,10.023,1.21-5.915,6.892-2.814,8.311,18.5,6.3,29.881-23.558,6.046-26.333,2.12S99.463,393.46,98.886,389.857Z" transform="translate(-70.371 -354.796)" fill="#98cff4"/>
              </g>
              <g id="Group_47411" data-name="Group 47411" transform="translate(12.033 17.254)">
                <path id="Path_44519" data-name="Path 44519" d="M81.081,370.153a6.72,6.72,0,0,1,.311,2.328c-.239,7.268,16.171,15.48,16.171,15.48.577,3.6-6.352,1.535-3.577,5.46s24.321,9.26,26.333-2.12c.108-.611.2-1.236.282-1.867A85.521,85.521,0,0,0,81.081,370.153Z" transform="translate(-81.081 -370.153)" fill="#82c4e8"/>
              </g>
              <g id="Group_47417" data-name="Group 47417" transform="translate(3.291 2.571)">
                <g id="Group_47412" data-name="Group 47412" transform="translate(0 1.829)">
                  <path id="Path_44520" data-name="Path 44520" d="M120.159,396.146a.419.419,0,0,1-.765.252c-.135-.2-13.787-20.155-45.869-36.9a.418.418,0,0,1,.388-.742c32.286,16.847,46.04,36.97,46.176,37.171A.42.42,0,0,1,120.159,396.146Z" transform="translate(-73.3 -358.712)" fill="#acdaff"/>
                </g>
                <g id="Group_47413" data-name="Group 47413" transform="translate(2.202 1.498)">
                  <path id="Path_44521" data-name="Path 44521" d="M82.827,364.476l-7.106.733a.418.418,0,1,1-.087-.831l6.149-.635-1.191-4.8a.419.419,0,1,1,.812-.2Z" transform="translate(-75.259 -358.418)" fill="#acdaff"/>
                </g>
                <g id="Group_47414" data-name="Group 47414" transform="translate(10.399)">
                  <path id="Path_44522" data-name="Path 44522" d="M93.987,357.484c0,.013,0,.027,0,.039l-.717,14.652L83.05,374.08a.419.419,0,0,1-.153-.824l9.569-1.783.684-13.991a.418.418,0,0,1,.836,0Z" transform="translate(-82.555 -357.085)" fill="#acdaff"/>
                </g>
                <g id="Group_47415" data-name="Group 47415" transform="translate(18.349 8.154)">
                  <path id="Path_44523" data-name="Path 44523" d="M104.5,364.741v.019l0,16.287-14.4,1.562a.419.419,0,0,1-.091-.833l13.652-1.48,0-15.537a.418.418,0,0,1,.836-.019Z" transform="translate(-89.632 -364.342)" fill="#acdaff"/>
                </g>
                <g id="Group_47416" data-name="Group 47416" transform="translate(25.169 10.469)">
                  <path id="Path_44524" data-name="Path 44524" d="M112.988,366.8a.085.085,0,0,1,0,.017l.082,23.345-16.88,2.911a.418.418,0,1,1-.143-.825l16.184-2.791-.081-22.638a.418.418,0,0,1,.836-.02Z" transform="translate(-95.702 -366.403)" fill="#acdaff"/>
                </g>
              </g>
            </g>
            <g id="Group_47428" data-name="Group 47428" transform="translate(35.77 37.779)">
              <g id="Group_47420" data-name="Group 47420">
                <g id="Group_47419" data-name="Group 47419">
                  <path id="Path_44525" data-name="Path 44525" d="M131.844,388.784s21.629-9.1,21.934-18.392,12.651-9.012,15.757-14.409.911-13.173-9.3-8.379-11.061,4.343-16.718-1.3-17.281,5.452-21.883,11.4-1.046-7.648-8.557-4.171-12.161,22.909-10.549,37.6,29.552,9.695,33.422,4.919S130.8,393.333,131.844,388.784Z" transform="translate(-102.208 -344.747)" fill="#acdaff"/>
                </g>
              </g>
              <g id="Group_47421" data-name="Group 47421" transform="translate(0.116 22.7)">
                <path id="Path_44526" data-name="Path 44526" d="M154.359,364.952a8.649,8.649,0,0,0-.593,2.945c-.306,9.294-21.934,18.392-21.934,18.392-1.039,4.549,7.976,2.492,4.105,7.268s-31.811,9.771-33.422-4.919c-.086-.789-.152-1.593-.2-2.407A109.36,109.36,0,0,1,154.359,364.952Z" transform="translate(-102.311 -364.952)" fill="#98cff4"/>
              </g>
              <g id="Group_47427" data-name="Group 47427" transform="translate(1.457 2.899)">
                <g id="Group_47422" data-name="Group 47422" transform="translate(0 4.098)">
                  <path id="Path_44527" data-name="Path 44527" d="M103.508,394.838a.534.534,0,0,0,.954.385c.189-.243,19.286-24.559,61.631-43.224a.535.535,0,1,0-.431-.979c-42.613,18.783-61.857,43.3-62.046,43.549A.519.519,0,0,0,103.508,394.838Z" transform="translate(-103.505 -350.975)" fill="#d2edff"/>
                </g>
                <g id="Group_47423" data-name="Group 47423" transform="translate(49.995 3.044)">
                  <path id="Path_44528" data-name="Path 44528" d="M148,357.614l9.007,1.532a.534.534,0,1,0,.179-1.054l-7.792-1.327,1.923-6.03a.535.535,0,1,0-1.02-.326Z" transform="translate(-148.004 -350.037)" fill="#d2edff"/>
                </g>
                <g id="Group_47424" data-name="Group 47424" transform="translate(34.886)">
                  <path id="Path_44529" data-name="Path 44529" d="M134.877,347.8a.382.382,0,0,0,0,.051l-.318,18.756,12.881,3.29a.535.535,0,0,0,.264-1.037l-12.061-3.081.3-17.91a.535.535,0,0,0-1.066-.069Z" transform="translate(-134.556 -347.328)" fill="#d2edff"/>
                </g>
                <g id="Group_47425" data-name="Group 47425" transform="translate(18.63 9.446)">
                  <path id="Path_44530" data-name="Path 44530" d="M121.453,356.212v.024l-1.365,20.783,18.241,3.2a.535.535,0,0,0,.185-1.054l-17.3-3.037,1.3-19.825a.535.535,0,0,0-1.066-.093Z" transform="translate(-120.087 -355.736)" fill="#d2edff"/>
                </g>
                <g id="Group_47426" data-name="Group 47426" transform="translate(5.938 11.625)">
                  <path id="Path_44531" data-name="Path 44531" d="M110.861,358.15l0,.022-2.068,29.781,21.295,5.134a.535.535,0,0,0,.252-1.04l-20.416-4.922,2.005-28.879a.535.535,0,0,0-1.065-.1Z" transform="translate(-108.79 -357.675)" fill="#d2edff"/>
                </g>
              </g>
            </g>
            <g id="Group_47437" data-name="Group 47437" transform="translate(95.859 7.888)">
              <g id="Group_47429" data-name="Group 47429">
                <path id="Path_44532" data-name="Path 44532" d="M188.292,364.4s6.252-18.51.625-23.825,1.356-12.862-.3-17.775-7.714-7.834-10.355,1.181-3.392,9.295-10.033,9.71-6.13,13.787-4.956,19.938-5.348-3.565-7.321,3.038,7.584,20.22,17.636,27.317,22.345-13.088,21.5-18.136S190.555,367.553,188.292,364.4Z" transform="translate(-155.692 -318.142)" fill="#82c4e8"/>
              </g>
              <g id="Group_47430" data-name="Group 47430" transform="translate(16.283 20.434)">
                <path id="Path_44533" data-name="Path 44533" d="M185.616,336.33a7.18,7.18,0,0,0,1.51,1.994c5.628,5.315-.625,23.825-.625,23.825,2.264,3.157,5.953-3.6,6.8,1.448s-11.449,25.232-21.5,18.136c-.54-.382-1.077-.785-1.613-1.2A91.053,91.053,0,0,1,185.616,336.33Z" transform="translate(-170.185 -336.33)" fill="#6cb7d8"/>
              </g>
              <g id="Group_47436" data-name="Group 47436" transform="translate(3.247 4.346)">
                <g id="Group_47431" data-name="Group 47431" transform="translate(17.003)">
                  <path id="Path_44534" data-name="Path 44534" d="M174.782,385.257a.445.445,0,0,0,.767-.383c-.048-.252-4.684-25.574,7.028-62.282a.445.445,0,1,0-.848-.271c-11.786,36.94-7.1,62.466-7.055,62.72A.442.442,0,0,0,174.782,385.257Z" transform="translate(-173.716 -322.011)" fill="#98cff4"/>
                </g>
                <g id="Group_47432" data-name="Group 47432" transform="translate(19.059 5.388)">
                  <path id="Path_44535" data-name="Path 44535" d="M178.837,332.887l5.922-4.774a.445.445,0,0,0-.558-.693l-5.124,4.129-2.7-4.526a.445.445,0,0,0-.765.456Z" transform="translate(-175.547 -326.807)" fill="#98cff4"/>
                </g>
                <g id="Group_47433" data-name="Group 47433" transform="translate(7.75 14.353)">
                  <path id="Path_44536" data-name="Path 44536" d="M165.6,335.531a.361.361,0,0,0,.029.029L177.149,346.1l9.155-6.22a.445.445,0,0,0-.5-.737l-8.573,5.824-11-10.067a.445.445,0,0,0-.63.628Z" transform="translate(-165.48 -334.786)" fill="#98cff4"/>
                </g>
                <g id="Group_47434" data-name="Group 47434" transform="translate(5.253 29.051)">
                  <path id="Path_44537" data-name="Path 44537" d="M163.374,348.613l.013.015L175.6,360.941l12.057-9.613a.445.445,0,1,0-.555-.7l-11.433,9.114L164.02,348a.445.445,0,0,0-.646.612Z" transform="translate(-163.258 -347.868)" fill="#98cff4"/>
                </g>
                <g id="Group_47435" data-name="Group 47435" transform="translate(0 37.73)">
                  <path id="Path_44538" data-name="Path 44538" d="M158.7,356.338l.012.013,17.437,17.714,14.947-10.451a.446.446,0,0,0-.511-.73l-14.329,10.021-16.909-17.178a.445.445,0,0,0-.647.611Z" transform="translate(-158.583 -355.594)" fill="#98cff4"/>
                </g>
              </g>
            </g>
            <g id="Group_47446" data-name="Group 47446" transform="translate(74.724 44.887)">
              <g id="Group_47438" data-name="Group 47438">
                <path id="Path_44539" data-name="Path 44539" d="M165.4,386.136s-16.41-8.212-16.171-15.48-9.408-7.681-11.554-12.053-.035-10.326,7.688-6.06,8.408,3.958,13.112-.156,13.2,5.142,16.489,10.023,1.21-5.915,6.892-2.814,8.312,18.5,6.3,29.881-23.558,6.046-26.333,2.12S165.972,389.739,165.4,386.136Z" transform="translate(-136.88 -351.075)" fill="#98cff4"/>
              </g>
              <g id="Group_47439" data-name="Group 47439" transform="translate(12.033 17.254)">
                <path id="Path_44540" data-name="Path 44540" d="M147.59,366.432a6.745,6.745,0,0,1,.312,2.328c-.239,7.268,16.171,15.48,16.171,15.48.576,3.6-6.353,1.535-3.578,5.46s24.321,9.26,26.333-2.12c.109-.611.2-1.236.282-1.867A85.515,85.515,0,0,0,147.59,366.432Z" transform="translate(-147.59 -366.432)" fill="#82c4e8"/>
              </g>
              <g id="Group_47445" data-name="Group 47445" transform="translate(3.291 2.572)">
                <g id="Group_47440" data-name="Group 47440" transform="translate(0 1.829)">
                  <path id="Path_44541" data-name="Path 44541" d="M186.668,392.425a.418.418,0,0,1-.765.252c-.134-.2-13.785-20.156-45.868-36.9a.418.418,0,1,1,.386-.742c32.286,16.847,46.041,36.969,46.176,37.171A.407.407,0,0,1,186.668,392.425Z" transform="translate(-139.809 -354.991)" fill="#acdaff"/>
                </g>
                <g id="Group_47441" data-name="Group 47441" transform="translate(2.202 1.498)">
                  <path id="Path_44542" data-name="Path 44542" d="M149.336,360.755l-7.106.733a.418.418,0,0,1-.085-.833l6.148-.634-1.191-4.805a.418.418,0,0,1,.812-.2Z" transform="translate(-141.769 -354.697)" fill="#acdaff"/>
                </g>
                <g id="Group_47442" data-name="Group 47442" transform="translate(10.398)">
                  <path id="Path_44543" data-name="Path 44543" d="M160.5,353.763a.232.232,0,0,1,0,.039l-.716,14.652-10.221,1.9a.418.418,0,1,1-.153-.822l9.569-1.783.684-13.991a.418.418,0,0,1,.836,0Z" transform="translate(-149.064 -353.364)" fill="#acdaff"/>
                </g>
                <g id="Group_47443" data-name="Group 47443" transform="translate(18.349 8.154)">
                  <path id="Path_44544" data-name="Path 44544" d="M171,361.02a.108.108,0,0,1,0,.019l0,16.287-14.4,1.562a.419.419,0,0,1-.091-.833l13.652-1.48,0-15.537a.418.418,0,0,1,.836-.019Z" transform="translate(-156.141 -360.621)" fill="#acdaff"/>
                </g>
                <g id="Group_47444" data-name="Group 47444" transform="translate(25.17 10.469)">
                  <path id="Path_44545" data-name="Path 44545" d="M179.5,363.082v.017l.083,23.345L162.7,389.355a.418.418,0,0,1-.143-.825l16.184-2.791-.08-22.638a.418.418,0,0,1,.836-.02Z" transform="translate(-162.212 -362.682)" fill="#acdaff"/>
                </g>
              </g>
            </g>
            <g id="Group_47455" data-name="Group 47455" transform="translate(50.125 58.547)">
              <g id="Group_47447" data-name="Group 47447">
                <path id="Path_44546" data-name="Path 44546" d="M145.594,389.27s-14.9-1.939-16.671-7.625-9.343-3.412-12.179-6.217-2.8-7.978,4.318-6.755,7.568.8,10.1-3.647,11.6.427,15.45,3.319-.655-4.9,4.574-4.03,11.4,12.077,12.908,21.42-16.6,11.012-19.8,8.721S147.009,391.9,145.594,389.27Z" transform="translate(-114.985 -363.233)" fill="#82c4e8"/>
              </g>
              <g id="Group_47448" data-name="Group 47448" transform="translate(13.07 16.014)">
                <path id="Path_44547" data-name="Path 44547" d="M126.619,378.167a5.528,5.528,0,0,1,.867,1.718c1.77,5.686,16.671,7.625,16.671,7.625,1.416,2.631-4.5,2.9-1.3,5.185s21.3.624,19.8-8.721c-.081-.5-.178-1.009-.284-1.52A70.051,70.051,0,0,0,126.619,378.167Z" transform="translate(-126.619 -377.486)" fill="#6cb7d8"/>
              </g>
              <g id="Group_47454" data-name="Group 47454" transform="translate(2.945 1.912)">
                <g id="Group_47449" data-name="Group 47449" transform="translate(0 7.059)">
                  <path id="Path_44548" data-name="Path 44548" d="M163.827,387.7a.343.343,0,0,1-.525.4c-.157-.118-16.083-11.883-45.4-16.207a.342.342,0,1,1,.1-.677c29.5,4.35,45.555,16.217,45.714,16.337A.338.338,0,0,1,163.827,387.7Z" transform="translate(-117.607 -371.218)" fill="#98cff4"/>
                </g>
                <g id="Group_47450" data-name="Group 47450" transform="translate(3.217 4.782)">
                  <path id="Path_44549" data-name="Path 44549" d="M126.256,373.4l-5.3,2.477a.342.342,0,1,1-.29-.62l4.585-2.144-2.213-3.4a.343.343,0,1,1,.574-.374Z" transform="translate(-120.47 -369.191)" fill="#98cff4"/>
                </g>
                <g id="Group_47451" data-name="Group 47451" transform="translate(11.898)">
                  <path id="Path_44550" data-name="Path 44550" d="M132.707,365.15l.011.03,3.385,11.526-7.393,4.222a.343.343,0,1,1-.339-.6l6.922-3.952-3.233-11.007a.343.343,0,0,1,.647-.224Z" transform="translate(-128.197 -364.934)" fill="#98cff4"/>
                </g>
                <g id="Group_47452" data-name="Group 47452" transform="translate(20.583 3.245)">
                  <path id="Path_44551" data-name="Path 44551" d="M142.75,368.039l.006.015,4.377,12.6-10.717,5.079a.343.343,0,1,1-.294-.619l10.162-4.816-4.175-12.019a.342.342,0,0,1,.642-.239Z" transform="translate(-135.927 -367.823)" fill="#98cff4"/>
                </g>
                <g id="Group_47453" data-name="Group 47453" transform="translate(28.743 2.551)">
                  <path id="Path_44552" data-name="Path 44552" d="M149.625,367.421l0,.013,6.342,18.036L143.7,392.261a.343.343,0,1,1-.333-.6l11.769-6.511-6.15-17.49a.343.343,0,0,1,.642-.242Z" transform="translate(-143.19 -367.205)" fill="#98cff4"/>
                </g>
              </g>
            </g>
            <g id="Group_47465" data-name="Group 47465" transform="translate(110.493 37.779)">
              <g id="Group_47457" data-name="Group 47457">
                <g id="Group_47456" data-name="Group 47456">
                  <path id="Path_44553" data-name="Path 44553" d="M198.353,388.784s21.629-9.1,21.934-18.392,12.652-9.012,15.757-14.409.912-13.173-9.3-8.379-11.061,4.343-16.718-1.3-17.282,5.452-21.884,11.4-1.046-7.648-8.557-4.171-12.16,22.909-10.549,37.6,29.552,9.695,33.423,4.919S197.314,393.333,198.353,388.784Z" transform="translate(-168.717 -344.747)" fill="#acdaff"/>
                </g>
              </g>
              <g id="Group_47458" data-name="Group 47458" transform="translate(0.116 22.7)">
                <path id="Path_44554" data-name="Path 44554" d="M220.867,364.952a8.648,8.648,0,0,0-.593,2.945c-.306,9.294-21.934,18.392-21.934,18.392-1.039,4.549,7.977,2.492,4.106,7.268s-31.812,9.771-33.423-4.919c-.087-.789-.152-1.593-.2-2.407A109.351,109.351,0,0,1,220.867,364.952Z" transform="translate(-168.821 -364.952)" fill="#98cff4"/>
              </g>
              <g id="Group_47464" data-name="Group 47464" transform="translate(1.457 2.899)">
                <g id="Group_47459" data-name="Group 47459" transform="translate(0 4.098)">
                  <path id="Path_44555" data-name="Path 44555" d="M170.017,394.838a.535.535,0,0,0,.955.385c.188-.243,19.285-24.559,61.63-43.224a.535.535,0,1,0-.431-.979c-42.613,18.783-61.856,43.3-62.046,43.549A.529.529,0,0,0,170.017,394.838Z" transform="translate(-170.014 -350.975)" fill="#d2edff"/>
                </g>
                <g id="Group_47460" data-name="Group 47460" transform="translate(49.996 3.044)">
                  <path id="Path_44556" data-name="Path 44556" d="M214.514,357.614l9.006,1.532a.535.535,0,0,0,.18-1.054l-7.793-1.327,1.923-6.03a.535.535,0,1,0-1.019-.326Z" transform="translate(-214.514 -350.037)" fill="#d2edff"/>
                </g>
                <g id="Group_47461" data-name="Group 47461" transform="translate(34.887)">
                  <path id="Path_44557" data-name="Path 44557" d="M201.386,347.8l0,.051-.317,18.756,12.88,3.29a.535.535,0,0,0,.265-1.037l-12.061-3.081.3-17.91a.535.535,0,0,0-1.067-.069Z" transform="translate(-201.066 -347.328)" fill="#d2edff"/>
                </g>
                <g id="Group_47462" data-name="Group 47462" transform="translate(18.63 9.446)">
                  <path id="Path_44558" data-name="Path 44558" d="M187.963,356.212l0,.024L186.6,377.019l18.241,3.2a.535.535,0,0,0,.185-1.054l-17.3-3.037,1.3-19.825a.535.535,0,0,0-1.065-.093Z" transform="translate(-186.596 -355.736)" fill="#d2edff"/>
                </g>
                <g id="Group_47463" data-name="Group 47463" transform="translate(5.939 11.625)">
                  <path id="Path_44559" data-name="Path 44559" d="M177.37,358.15v.022L175.3,387.954l21.294,5.134a.535.535,0,0,0,.252-1.04l-20.416-4.922,2.005-28.879a.535.535,0,0,0-1.065-.1Z" transform="translate(-175.3 -357.675)" fill="#d2edff"/>
                </g>
              </g>
            </g>
            <g id="Group_47466" data-name="Group 47466" transform="translate(5.402 77.214)">
              <path id="Path_44560" data-name="Path 44560" d="M242.585,418.9H81.475L77.43,382.113h169.2Z" transform="translate(-74.901 -379.568)" fill="#f90"/>
              <path id="Path_44561" data-name="Path 44561" d="M243.445,405.34H79.984l.306,2.781H243.14Z" transform="translate(-74.586 -376.699)" fill="#ffbc00"/>
              <path id="Path_44562" data-name="Path 44562" d="M244.649,396.563H79.019l.593,5.394H244.056Z" transform="translate(-74.705 -377.783)" fill="#ffbc00"/>
              <rect id="Rectangle_21059" data-name="Rectangle 21059" width="173.958" height="8.666" fill="#ffbc00"/>
            </g>
          </g>
        </g>
        <g id="Group_47487" data-name="Group 47487" transform="translate(172.34)">
          <path id="Path_44563" data-name="Path 44563" d="M375.181,458.609H238.355c-9.683,0-24.732-7.28-23.608-16.964l41.79-290.886A20.228,20.228,0,0,1,276.1,133.224l128.453-5.007c15.62,0,25,12.857,23.873,22.542L394.749,441.074A20.229,20.229,0,0,1,375.181,458.609Z" transform="translate(-212.654 -128.134)" fill="#144182"/>
          <g id="Group_47486" data-name="Group 47486">
            <g id="Group_47470" data-name="Group 47470">
              <g id="Group_47469" data-name="Group 47469">
                <path id="Path_44564" data-name="Path 44564" d="M365.322,453.527H228.5c-9.685,0-16.623-7.851-15.5-17.535l33.68-290.315a20.228,20.228,0,0,1,19.569-17.535H403.072c9.685,0,16.624,7.85,15.5,17.535L384.891,435.993A20.229,20.229,0,0,1,365.322,453.527Z" transform="translate(-212.878 -128.143)" fill="#2099ff"/>
                <path id="Path_44565" data-name="Path 44565" d="M364.719,446.88H229.374a11.646,11.646,0,0,1-11.8-13.344l33.357-287.519a15.394,15.394,0,0,1,14.892-13.344H401.172a11.645,11.645,0,0,1,11.8,13.344L379.611,433.536A15.394,15.394,0,0,1,364.719,446.88Z" transform="translate(-212.309 -127.583)" fill="#acdaff"/>
                <path id="Path_44566" data-name="Path 44566" d="M302.926,407.207H274.715a5.2,5.2,0,0,1-5.25-5.939h0a6.873,6.873,0,0,1,6.629-5.939H304.3a5.2,5.2,0,0,1,5.25,5.939h0A6.872,6.872,0,0,1,302.926,407.207Z" transform="translate(-205.894 -95.144)" fill="#2099ff"/>
                <ellipse id="Ellipse_478" data-name="Ellipse 478" cx="4.725" cy="4.208" rx="4.725" ry="4.208" transform="matrix(0.727, -0.686, 0.686, 0.727, 50.416, 15.927)" fill="#2099ff"/>
                <ellipse id="Ellipse_479" data-name="Ellipse 479" cx="2.847" cy="2.535" rx="2.847" ry="2.535" transform="matrix(0.727, -0.686, 0.686, 0.727, 64.879, 15.855)" fill="#2099ff"/>
              </g>
              <path id="Path_44567" data-name="Path 44567" d="M373.028,418.5H224.268L255.1,152.729h148.76Z" transform="translate(-211.471 -125.106)" fill="#fff"/>
              <path id="Path_44568" data-name="Path 44568" d="M379.283,192.9H262.328a5.676,5.676,0,0,1-5.75-6.5l2.362-20.362a7.5,7.5,0,0,1,7.26-6.505H383.154a5.677,5.677,0,0,1,5.75,6.505l-2.363,20.362A7.5,7.5,0,0,1,379.283,192.9Z" transform="translate(-207.486 -124.267)" fill="#e6f2ff"/>
              <text id="Monday_11.00_AM" data-name="Monday 11.00 AM" transform="translate(103.367 51.55) rotate(6.574)" fill="#acdaff" font-size="9" font-family="Montserrat-SemiBold, Montserrat" font-weight="600"><tspan x="-39" y="0">Monday 11.00 AM</tspan></text>
            </g>
            <g id="Group_47478" data-name="Group 47478" transform="translate(32.244 78.591)">
              <g id="Group_47477" data-name="Group 47477">
                <g id="Group_47472" data-name="Group 47472" transform="translate(11.848)">
                  <path id="Path_44569" data-name="Path 44569" d="M278.745,224.716H252.124l3.088-26.621h26.621Z" transform="translate(-252.124 -198.095)" fill="#e6f2ff"/>
                  <g id="Group_47471" data-name="Group 47471" transform="translate(34.448)">
                    <path id="Path_44570" data-name="Path 44570" d="M309.405,224.716H282.784l3.088-26.621h26.621Z" transform="translate(-282.784 -198.095)" fill="#acdaff"/>
                  </g>
                  <path id="Path_44571" data-name="Path 44571" d="M340.066,224.716H313.445l3.088-26.621h26.621Z" transform="translate(-244.55 -198.095)" fill="#e6f2ff"/>
                  <path id="Path_44572" data-name="Path 44572" d="M370.727,224.716H344.106l3.089-26.621h26.621Z" transform="translate(-240.763 -198.095)" fill="#e6f2ff"/>
                </g>
                <g id="Group_47473" data-name="Group 47473" transform="translate(7.899 34.042)">
                  <path id="Path_44573" data-name="Path 44573" d="M275.229,255.016H248.608l3.088-26.621h26.621Z" transform="translate(-248.608 -228.395)" fill="#e6f2ff"/>
                  <path id="Path_44574" data-name="Path 44574" d="M305.89,255.016H279.269l3.089-26.621h26.621Z" transform="translate(-244.821 -228.395)" fill="#e6f2ff"/>
                  <path id="Path_44575" data-name="Path 44575" d="M336.551,255.016H309.93l3.088-26.621h26.621Z" transform="translate(-241.035 -228.395)" fill="#e6f2ff"/>
                  <path id="Path_44576" data-name="Path 44576" d="M367.212,255.016H340.591l3.088-26.621H370.3Z" transform="translate(-237.248 -228.395)" fill="#e6f2ff"/>
                </g>
                <g id="Group_47475" data-name="Group 47475" transform="translate(3.949 68.085)">
                  <path id="Path_44577" data-name="Path 44577" d="M271.714,285.316H245.093l3.088-26.621H274.8Z" transform="translate(-245.093 -258.695)" fill="#e6f2ff"/>
                  <path id="Path_44578" data-name="Path 44578" d="M302.375,285.316H275.754l3.088-26.621h26.621Z" transform="translate(-241.306 -258.695)" fill="#e6f2ff"/>
                  <g id="Group_47474" data-name="Group 47474" transform="translate(68.895)">
                    <path id="Path_44579" data-name="Path 44579" d="M333.036,285.316H306.415L309.5,258.7h26.621Z" transform="translate(-306.415 -258.695)" fill="#e6f2ff"/>
                  </g>
                  <path id="Path_44580" data-name="Path 44580" d="M363.7,285.316H337.076l3.088-26.621h26.621Z" transform="translate(-233.733 -258.695)" fill="#e6f2ff"/>
                </g>
                <g id="Group_47476" data-name="Group 47476" transform="translate(0 102.127)">
                  <path id="Path_44581" data-name="Path 44581" d="M268.2,315.616H241.578L244.666,289h26.621Z" transform="translate(-241.578 -288.995)" fill="#e6f2ff"/>
                  <path id="Path_44582" data-name="Path 44582" d="M298.86,315.616H272.239L275.327,289h26.621Z" transform="translate(-237.791 -288.995)" fill="#e6f2ff"/>
                  <path id="Path_44583" data-name="Path 44583" d="M329.52,315.616H302.9L305.988,289h26.621Z" transform="translate(-234.004 -288.995)" fill="#e6f2ff"/>
                  <path id="Path_44584" data-name="Path 44584" d="M360.181,315.616H333.56L336.649,289H363.27Z" transform="translate(-230.217 -288.995)" fill="#e6f2ff"/>
                </g>
              </g>
            </g>
            <g id="Group_47485" data-name="Group 47485" transform="translate(21.344 220.636)">
              <g id="Group_47484" data-name="Group 47484" transform="translate(5.799)">
                <g id="Group_47479" data-name="Group 47479" transform="translate(0 1.855)">
                  <path id="Path_44585" data-name="Path 44585" d="M262.2,366.082a4.374,4.374,0,0,1,4.226-3.786h24.054a6.218,6.218,0,0,0,5.458-3.384,5.17,5.17,0,0,0-.5-5.975l-9.339-10.564a4.833,4.833,0,0,0-3.69-1.606H253.162a3.281,3.281,0,0,1-3.28-2.539l-1.24-5.322a3.98,3.98,0,0,1,.888-3.44,4.259,4.259,0,0,1,3.272-1.593h40.357a3.345,3.345,0,0,1,2.534,1.092L310.8,345.812c.13-.742.281-1.481.433-2.212l-14.208-15.843a4.848,4.848,0,0,0-3.669-1.581H253a6.168,6.168,0,0,0-4.738,2.308,5.762,5.762,0,0,0-1.285,4.98l1.24,5.322a4.752,4.752,0,0,0,4.75,3.677h29.256a3.34,3.34,0,0,1,2.549,1.109l9.337,10.564a3.593,3.593,0,0,1,.343,4.125,4.311,4.311,0,0,1-3.769,2.337H266.627a6.332,6.332,0,0,0-6.119,5.483l-.647,5.579a4.79,4.79,0,0,0,4.847,5.483h26.578a3.322,3.322,0,0,1,3.339,3.85,4.371,4.371,0,0,1-4.225,3.785H237.234l-.2,1.7H290.2a6.348,6.348,0,0,0,6.126-5.548,4.789,4.789,0,0,0-4.847-5.482H264.9a3.308,3.308,0,0,1-3.347-3.786Z" transform="translate(-237.037 -326.176)" fill="#e6f2ff"/>
                </g>
                <g id="Group_47483" data-name="Group 47483" transform="translate(67.946)">
                  <g id="Group_47482" data-name="Group 47482">
                    <g id="Group_47480" data-name="Group 47480">
                      <path id="Path_44586" data-name="Path 44586" d="M313.212,332.36c-.5,4.327-9.67,15.814-9.67,15.814s-6.5-11.488-6-15.814a9.039,9.039,0,0,1,8.744-7.835A6.837,6.837,0,0,1,313.212,332.36Z" transform="translate(-297.513 -324.525)" fill="#acdaff"/>
                    </g>
                    <g id="Group_47481" data-name="Group 47481" transform="translate(1.937 1.524)">
                      <ellipse id="Ellipse_480" data-name="Ellipse 480" cx="4.459" cy="3.971" rx="4.459" ry="3.971" transform="matrix(0.727, -0.686, 0.686, 0.727, 0, 6.12)" fill="#fff"/>
                    </g>
                  </g>
                </g>
              </g>
              <ellipse id="Ellipse_481" data-name="Ellipse 481" cx="6.968" cy="6.205" rx="6.968" ry="6.205" transform="matrix(0.727, -0.686, 0.686, 0.727, 0, 61.576)" fill="#acdaff"/>
              <ellipse id="Ellipse_482" data-name="Ellipse 482" cx="3.596" cy="3.203" rx="3.596" ry="3.203" transform="matrix(0.727, -0.686, 0.686, 0.727, 4.513, 61.446)" fill="#fff"/>
            </g>
          </g>
        </g>
        <g id="Group_47492" data-name="Group 47492" transform="translate(124.3 67.032)">
          <path id="Path_44587" data-name="Path 44587" d="M187.031,274.937s13.985-20.357,16.2-25.2,2.457-8.964-1.017-11.481-9.881-4.491-15.541,3.487-16.125,32.478-16.553,40.145,34.237,30.875,37.317,32.374c3.4-.888,4.836-5.958,4.836-5.958S189.893,279.886,187.031,274.937Z" transform="translate(-170.118 -181.849)" fill="#f90"/>
          <path id="Path_44588" data-name="Path 44588" d="M195.755,420.9s.7,4.022-1.6,10.087-2.427,7.98,0,9.322,4.149,1.724,10.917,0a85.028,85.028,0,0,0,14.3-5.491s-7.342-4.661-9.13-6.64-5.553-9.066-5.491-10.087S195.755,420.9,195.755,420.9Z" transform="translate(-167.368 -159.387)" fill="#f79e77"/>
          <path id="Path_44589" data-name="Path 44589" d="M214.158,430.2c-2.723,1.817-5.324,3.8-8.812,3.3-2.8-.7-3.85-3.5-5.6-5.6a5.338,5.338,0,0,0-4.7-.783,28.807,28.807,0,0,1-.889,2.751c-2.3,6.065-2.427,7.98,0,9.322s4.149,1.723,10.917,0a85.03,85.03,0,0,0,14.3-5.491S216.681,431.992,214.158,430.2Z" transform="translate(-167.368 -158.277)" fill="#0c2c51"/>
          <path id="Path_44590" data-name="Path 44590" d="M268.449,236.347,276.924,240c2.809-3.483,4.92-6.107,6.3-6.393,3.587.482,5.127-1.037,6.086-2.263s-.239-1.926-.083-2.4c.991-1.458-.69-2.03-.42-2.375,1.041-1.216.847-1.875.219-2.208s-1.685-.641-1.491-1.252,2.772-2.24,5.013-3.3,4.706-2.765,3.342-3.66-14.1,5.222-16.481,7.832-1.77,5.388-4.758,8.262A35.738,35.738,0,0,1,268.449,236.347Z" transform="translate(-157.974 -184.317)" fill="#ffb797"/>
          <path id="Path_44591" data-name="Path 44591" d="M203.655,419.469s.6,8.258-2.044,14.982-1.872,9.7,2.894,11.067,7.406-1.873,13.62-1.7,14.471-.51,16.6-6.214-7.806-3.154-13.82-4.939-3.339-12.341-3.339-12.341Z" transform="translate(-166.414 -159.195)" fill="#ffae83"/>
          <path id="Path_44592" data-name="Path 44592" d="M221.073,431.185c-.539,1.808,4.365,3.715,2.917,4.68-5.249,3.849-11.549-2.8-17.5-4.9a6.269,6.269,0,0,0-4.067-.336,24.521,24.521,0,0,1-.815,2.465c-2.638,6.725-1.872,9.7,2.894,11.067s7.406-1.873,13.62-1.7,17.968-1.005,20.1-6.71C240.328,430.1,227.1,432.866,221.073,431.185Z" transform="translate(-166.414 -157.839)" fill="#0f3163"/>
          <g id="Group_47490" data-name="Group 47490" transform="translate(33.729 275.186)">
            <g id="Group_47489" data-name="Group 47489">
              <g id="Group_47488" data-name="Group 47488">
                <path id="Path_44593" data-name="Path 44593" d="M237.488,432.741a3.877,3.877,0,0,1-.125.415c-2.128,5.7-13.882,6.879-20.1,6.71s-8.853,3.064-13.62,1.7a6.46,6.46,0,0,1-3.506-2.066c.2,2.265,1.616,3.592,4.361,4.377,4.767,1.362,7.406-1.873,13.62-1.7s17.968-1.006,20.1-6.71A2.028,2.028,0,0,0,237.488,432.741Z" transform="translate(-200.14 -432.741)" fill="#0c2c51"/>
              </g>
            </g>
          </g>
          <path id="Path_44594" data-name="Path 44594" d="M215.248,329.547a15.1,15.1,0,0,1-6.859-6.365,19.009,19.009,0,0,1-1.568-14.065c1.532-4.6,7.661-16.173,7.661-16.173l-15.066-2.789s-6.768,11.683-10.215,20.877-.638,18.9,1.021,26.175,5.874,28.09,4.086,35.879-5.107,19.664-4.214,28.729,5.364,30.645,5.236,35.5a9.947,9.947,0,0,0,4.348.871,13.231,13.231,0,0,0,7.143-2.53s1.022-37.157,4.852-53.5S219.335,335.421,215.248,329.547Z" transform="translate(-167.964 -175.165)" fill="#144182"/>
          <path id="Path_44595" data-name="Path 44595" d="M213.863,328.328A15.1,15.1,0,0,1,207,321.964c-6.377-3.013-1.931-14.715-2.447-21.938-2.525,6.973-12.183,19.541,1.016,35.2,4.7,4.361.111,38.589-3.915,54.025-3.61,13.088-2.032,34.107-1.394,47.482a13.608,13.608,0,0,0,5.173-2.3s1.022-37.157,4.852-53.5S217.949,334.2,213.863,328.328Z" transform="translate(-166.579 -173.946)" fill="#0f3163"/>
          <path id="Path_44596" data-name="Path 44596" d="M237.725,292.718a119.74,119.74,0,0,1,3.064,34.9c-1.362,18.046-13.449,48.35-14.811,54.99s-3.235,25.733-4.937,34.317-2.554,16.586-1.618,18.8c-4,4.257-14.64,3.746-17.024,0,.852-17.535.426-32.6,3.746-44.434s1.276-14.9,2.639-22.3,2.723-30.3,3.4-33.028-6.129-4.086-8.6-8.513-7.576-15.066,6.555-36.772A131.594,131.594,0,0,1,237.725,292.718Z" transform="translate(-166.35 -175.11)" fill="#144182"/>
          <path id="Path_44597" data-name="Path 44597" d="M236.768,292.718a131.594,131.594,0,0,0-27.58-2.043c-.283.435-.546.857-.813,1.284a130.047,130.047,0,0,1,21.943,2.1,119.763,119.763,0,0,1,3.065,34.9c-1.363,18.047-11.016,47.847-12.378,54.487s-1.9,24.868-3.6,33.452c-1.468,7.4-1.737,16.612-1.183,20.431a7.906,7.906,0,0,0,2.247-1.6c-.936-2.212-.084-10.214,1.618-18.8s3.575-27.679,4.937-34.317,13.449-36.944,14.811-54.99A119.74,119.74,0,0,0,236.768,292.718Z" transform="translate(-165.394 -175.11)" fill="#164e91"/>
          <path id="Path_44598" data-name="Path 44598" d="M229.438,201.871s1.277,15.153-.426,19.834-3.4,8.086-4.341,9.023-5.442-.766-6.339,0-.811,9.534-.811,9.534l-12.514-.511s1.447-15.832,2.554-20.174S228.161,201.53,229.438,201.871Z" transform="translate(-165.81 -186.07)" fill="#ffae83"/>
          <path id="Path_44599" data-name="Path 44599" d="M200.908,235.6s9.7-4.852,17.62-1.021,20.3,19.919,22.217,22.982,3.192,9.96,0,16.217-2.043,24.643-.383,27.835c-13.407,3.958-34.22,1.4-43.8-2.809,5.362-7.789,8.171-10.726,4.341-19.281S192.481,246.7,200.908,235.6Z" transform="translate(-166.902 -182.212)" fill="#fa0"/>
          <path id="Path_44600" data-name="Path 44600" d="M234.719,274.822c3.192-6.257,1.916-13.152,0-16.216s-14.3-19.153-22.217-22.984a16.406,16.406,0,0,0-8.363-1.408,25.152,25.152,0,0,0-3.23,1.249c-8.427,11.108-3.831,35.368,0,43.923s1.021,11.491-4.341,19.28c8.058,3.546,24.072,5.914,36.935,4.219.279-.075.561-.149.834-.23C232.675,299.465,231.527,281.079,234.719,274.822Z" transform="translate(-166.902 -182.081)" fill="#f90"/>
          <path id="Path_44601" data-name="Path 44601" d="M248.178,254.536s-20.205-14.2-25.026-16.472-8.937-2.554-11.491.894-4.6,9.832,3.32,15.577,32.3,16.472,39.965,16.982,31.24-33.9,32.772-36.968c-.85-3.4-5.905-4.9-5.905-4.9S253.158,251.727,248.178,254.536Z" transform="translate(-165.27 -182.638)" fill="#ffbc00"/>
          <g id="Group_47491" data-name="Group 47491" transform="translate(44.109 47.013)">
            <path id="Path_44602" data-name="Path 44602" d="M214.447,251.863c-.27-.2-.5-.38-.747-.569C213.938,251.484,214.186,251.674,214.447,251.863Z" transform="translate(-208.845 -226.978)" fill="#ff69a6"/>
            <path id="Path_44603" data-name="Path 44603" d="M211.166,242.293c2.554-3.447,6.671-3.162,11.492-.893s24.257,14.968,24.257,14.968c4.979-2.809,34.9-26.717,34.9-26.717s-28.655,22.076-33.634,24.885c0,0-20.205-14.2-25.026-16.472s-8.937-2.554-11.491.894a10.992,10.992,0,0,0-2.282,6.4A11.878,11.878,0,0,1,211.166,242.293Z" transform="translate(-209.379 -229.651)" fill="#ffd815"/>
          </g>
          <path id="Path_44604" data-name="Path 44604" d="M231.268,196.457c-5.788-5.788-16.514-8-16.514-8-9.1-3.091-16.173,5.448-18.217,13.109s-1.038,16.575-4.169,26.642c-1.585,4.907-24.253,40.019,5.465,65.449,7.554,3.733,13.338,5.375,21.5-.924-8.6-20.454-5.885-40.084-4.15-45.97,1.677-5.692,5.124-5.9,8.287-4.728.144.057.285.111.434.171-.293-.576-.675-1.238-1.126-1.966-1.593-4.749-.093-14.6,3.166-18.074,3.831-4.086,5.619-10.725,6.257-15.577a14.831,14.831,0,0,1-2.554,11.364C235.141,213.736,237.056,202.245,231.268,196.457Z" transform="translate(-168.576 -187.806)" fill="#144182"/>
          <path id="Path_44605" data-name="Path 44605" d="M194.818,272.578c-3.356-23.489,6.04-47.649,14.765-69.8,2.611-6.788,10.1-9.918,17.717-9.394a44.458,44.458,0,0,0-12.546-4.932c-9.1-3.091-16.173,5.448-18.217,13.109s-1.038,16.575-4.169,26.642c-1.585,4.907-24.253,40.018,5.465,65.449,6.107,3.018,11.058,4.667,17.044,1.862a18.11,18.11,0,0,1-6.177-2.637C201.988,288.182,196.161,280.631,194.818,272.578Z" transform="translate(-168.576 -187.806)" fill="#0f3163"/>
        </g>
        <g id="Group_47522" data-name="Group 47522" transform="translate(276.448 77.884)">
          <g id="Group_47501" data-name="Group 47501" transform="translate(40.097)">
            <g id="Group_47493" data-name="Group 47493">
              <path id="Path_44606" data-name="Path 44606" d="M355.31,292.688s-12.873-38.106-1.285-49.05-2.793-26.477.613-36.594,15.881-16.128,21.32,2.432,6.981,19.136,20.653,19.989,12.62,28.382,10.2,41.047,11.01-7.34,15.072,6.253S406.273,318.393,385.579,333s-46-26.944-44.264-37.336S350.648,299.187,355.31,292.688Z" transform="translate(-341.231 -197.465)" fill="#82c4e8"/>
            </g>
            <g id="Group_47494" data-name="Group 47494" transform="translate(0 42.067)">
              <path id="Path_44607" data-name="Path 44607" d="M357.132,234.908a14.8,14.8,0,0,1-3.108,4.105c-11.588,10.944,1.285,49.05,1.285,49.05-4.661,6.5-12.256-7.413-13.994,2.98s23.57,51.945,44.264,37.335c1.111-.784,2.218-1.615,3.32-2.472A187.45,187.45,0,0,0,357.132,234.908Z" transform="translate(-341.231 -234.908)" fill="#6cb7d8"/>
            </g>
            <g id="Group_47500" data-name="Group 47500" transform="translate(7.184 8.948)">
              <g id="Group_47495" data-name="Group 47495" transform="translate(14.032)">
                <path id="Path_44608" data-name="Path 44608" d="M376.207,335.632a.916.916,0,0,1-1.58-.788c.1-.518,9.641-52.65-14.47-128.219a.917.917,0,1,1,1.747-.557c24.263,76.048,14.622,128.6,14.522,129.121A.908.908,0,0,1,376.207,335.632Z" transform="translate(-360.114 -205.429)" fill="#98cff4"/>
              </g>
              <g id="Group_47496" data-name="Group 47496" transform="translate(8.777 11.092)">
                <path id="Path_44609" data-name="Path 44609" d="M367.972,227.82l-12.193-9.826a.916.916,0,1,1,1.15-1.427l10.551,8.5,5.56-9.317a.917.917,0,0,1,1.575.939Z" transform="translate(-355.437 -215.302)" fill="#98cff4"/>
              </g>
              <g id="Group_47497" data-name="Group 47497" transform="translate(8.095 29.549)">
                <path id="Path_44610" data-name="Path 44610" d="M397.866,233.262c-.019.021-.039.042-.061.062l-23.725,21.7-18.849-12.806a.917.917,0,0,1,1.031-1.517l17.649,11.99,22.655-20.724a.917.917,0,0,1,1.3,1.292Z" transform="translate(-354.83 -231.73)" fill="#98cff4"/>
              </g>
              <g id="Group_47498" data-name="Group 47498" transform="translate(5.933 59.808)">
                <path id="Path_44611" data-name="Path 44611" d="M403.242,260.194l-.029.03-25.138,25.35-24.823-19.788a.917.917,0,0,1,1.143-1.435l23.535,18.763,23.981-24.18a.917.917,0,0,1,1.331,1.261Z" transform="translate(-352.906 -258.662)" fill="#98cff4"/>
              </g>
              <g id="Group_47499" data-name="Group 47499" transform="translate(0 77.676)">
                <path id="Path_44612" data-name="Path 44612" d="M414.71,276.1l-.027.027L378.788,312.6l-30.772-21.516a.917.917,0,0,1,1.052-1.5l29.5,20.629,34.809-35.365a.917.917,0,0,1,1.334,1.258Z" transform="translate(-347.625 -274.566)" fill="#98cff4"/>
              </g>
            </g>
          </g>
          <g id="Group_47510" data-name="Group 47510" transform="translate(0 119.751)">
            <g id="Group_47502" data-name="Group 47502">
              <path id="Path_44613" data-name="Path 44613" d="M354.419,364.151s-28.128-14.075-27.717-26.534-16.128-13.166-19.805-20.66-.059-17.7,13.18-10.387,14.411,6.784,22.475-.269,22.634,8.815,28.264,17.18,2.074-10.138,11.813-4.824,14.247,31.714,10.8,51.221-40.381,10.362-45.138,3.633S355.409,370.326,354.419,364.151Z" transform="translate(-305.542 -304.052)" fill="#98cff4"/>
            </g>
            <g id="Group_47503" data-name="Group 47503" transform="translate(20.626 29.575)">
              <path id="Path_44614" data-name="Path 44614" d="M323.9,330.376a11.576,11.576,0,0,1,.535,3.99c-.411,12.457,27.717,26.534,27.717,26.534.989,6.176-10.888,2.631-6.132,9.36s41.688,15.873,45.138-3.633c.185-1.048.343-2.119.482-3.2A146.581,146.581,0,0,0,323.9,330.376Z" transform="translate(-323.9 -330.376)" fill="#82c4e8"/>
            </g>
            <g id="Group_47509" data-name="Group 47509" transform="translate(5.641 4.408)">
              <g id="Group_47504" data-name="Group 47504" transform="translate(0 3.134)">
                <path id="Path_44615" data-name="Path 44615" d="M390.884,374.93a.717.717,0,0,1-1.311.433c-.23-.342-23.631-34.548-78.624-63.244a.717.717,0,1,1,.663-1.271c55.343,28.877,78.92,63.37,79.151,63.715A.711.711,0,0,1,390.884,374.93Z" transform="translate(-310.562 -310.765)" fill="#acdaff"/>
              </g>
              <g id="Group_47505" data-name="Group 47505" transform="translate(3.774 2.568)">
                <path id="Path_44616" data-name="Path 44616" d="M326.893,320.644,314.711,321.9a.717.717,0,0,1-.146-1.427l10.539-1.086-2.041-8.235a.717.717,0,1,1,1.392-.346Z" transform="translate(-313.921 -310.261)" fill="#acdaff"/>
              </g>
              <g id="Group_47506" data-name="Group 47506" transform="translate(17.824)">
                <path id="Path_44617" data-name="Path 44617" d="M346.022,308.66c0,.022,0,.045,0,.067l-1.229,25.115-17.518,3.264a.717.717,0,1,1-.262-1.41l16.4-3.057,1.172-23.982a.718.718,0,0,1,1.434,0Z" transform="translate(-326.426 -307.975)" fill="#acdaff"/>
              </g>
              <g id="Group_47507" data-name="Group 47507" transform="translate(31.453 13.976)">
                <path id="Path_44618" data-name="Path 44618" d="M364.036,321.1a.314.314,0,0,1,0,.033l-.006,27.918-24.68,2.676a.717.717,0,0,1-.155-1.426l23.4-2.537.007-26.632a.717.717,0,0,1,1.434-.033Z" transform="translate(-338.557 -320.415)" fill="#acdaff"/>
              </g>
              <g id="Group_47508" data-name="Group 47508" transform="translate(43.144 17.945)">
                <path id="Path_44619" data-name="Path 44619" d="M378.593,324.633a.243.243,0,0,1,0,.029l.142,40.016L349.8,369.669a.717.717,0,1,1-.244-1.413l27.74-4.784-.137-38.8a.717.717,0,0,1,1.432-.035Z" transform="translate(-348.963 -323.948)" fill="#acdaff"/>
              </g>
            </g>
          </g>
          <g id="Group_47520" data-name="Group 47520" transform="translate(61.059 67.696)">
            <g id="Group_47512" data-name="Group 47512">
              <g id="Group_47511" data-name="Group 47511">
                <path id="Path_44620" data-name="Path 44620" d="M421.1,351.695s24.069-32.225,16.453-46.227,10.875-24.3,10.779-34.976-10.088-20.261-21.022-4.308-12.578,16.021-25.838,12.589-20.81,23.061-22.444,35.851-8.187-10.4-16.267,1.264,1.916,44.418,17.05,64.731,52.094-11.328,53.669-21.748S423.518,359.32,421.1,351.695Z" transform="translate(-359.888 -257.719)" fill="#acdaff"/>
              </g>
            </g>
            <g id="Group_47513" data-name="Group 47513" transform="translate(17.536 42.881)">
              <path id="Path_44621" data-name="Path 44621" d="M433.949,295.887a14.8,14.8,0,0,0,1.68,4.867c7.616,14-16.453,46.227-16.453,46.227,2.414,7.625,13.954-3.241,12.379,7.177s-38.534,42.059-53.669,21.748c-.813-1.091-1.608-2.225-2.389-3.382A187.445,187.445,0,0,1,433.949,295.887Z" transform="translate(-375.497 -295.887)" fill="#98cff4"/>
            </g>
            <g id="Group_47519" data-name="Group 47519" transform="translate(6.116 9.419)">
              <g id="Group_47514" data-name="Group 47514" transform="translate(19.299)">
                <path id="Path_44622" data-name="Path 44622" d="M382.59,385.2a.917.917,0,0,0,1.746-.258c.067-.524,7.183-53.041,53.565-117.39a.917.917,0,0,0-1.488-1.072c-46.676,64.757-53.829,117.7-53.9,118.23A.9.9,0,0,0,382.59,385.2Z" transform="translate(-382.509 -266.103)" fill="#d2edff"/>
              </g>
              <g id="Group_47515" data-name="Group 47515" transform="translate(57.971 6.75)">
                <path id="Path_44623" data-name="Path 44623" d="M419.811,285.873l14.643-5.555a.916.916,0,0,0-.651-1.713l-12.669,4.805-2.392-10.583a.917.917,0,0,0-1.79.4Z" transform="translate(-416.93 -272.111)" fill="#d2edff"/>
              </g>
              <g id="Group_47516" data-name="Group 47516" transform="translate(30.108 17.065)">
                <path id="Path_44624" data-name="Path 44624" d="M392.21,282.583c.011.026.025.052.038.076l15.815,28,21.893-6.321a.917.917,0,0,0-.509-1.762l-20.5,5.918-15.1-26.735a.917.917,0,0,0-1.636.826Z" transform="translate(-392.13 -281.292)" fill="#d2edff"/>
              </g>
              <g id="Group_47517" data-name="Group 47517" transform="translate(15.828 44.232)">
                <path id="Path_44625" data-name="Path 44625" d="M379.5,306.764l.018.037,16.026,31.9,29.74-11.1a.917.917,0,1,0-.642-1.718l-28.2,10.527-15.289-30.431a.917.917,0,0,0-1.656.785Z" transform="translate(-379.419 -305.473)" fill="#d2edff"/>
              </g>
              <g id="Group_47518" data-name="Group 47518" transform="translate(0 57.859)">
                <path id="Path_44626" data-name="Path 44626" d="M365.412,318.893l.016.034,22.8,45.813,35.931-10.9a.917.917,0,0,0-.531-1.756l-34.449,10.451L367.069,318.11a.917.917,0,0,0-1.657.783Z" transform="translate(-365.332 -317.601)" fill="#d2edff"/>
              </g>
            </g>
          </g>
          <g id="Group_47521" data-name="Group 47521" transform="translate(40.588 192.213)">
            <path id="Path_44627" data-name="Path 44627" d="M343.563,369.583h70.86l-14.737,70.151H354Z" transform="translate(-341.434 -368.42)" fill="#f90"/>
            <path id="Path_44628" data-name="Path 44628" d="M407.861,395.38H347.4l1.092,7.337h57.827Z" transform="translate(-340.96 -365.234)" fill="#ffbc00"/>
            <path id="Path_44629" data-name="Path 44629" d="M405.482,404.731h-56.69l.546,3.668h55.373Z" transform="translate(-340.788 -364.08)" fill="#ffbc00"/>
            <rect id="Rectangle_21060" data-name="Rectangle 21060" width="74.983" height="9.969" fill="#ffbc00"/>
          </g>
        </g>
      </g>
    </g>
  </g>
</svg>
