<svg xmlns="http://www.w3.org/2000/svg" width="72.107" height="72.106" viewBox="0 0 72.107 72.106">
  <g id="hand-washing_6973364" transform="translate(0)">
    <path id="Path_46278" data-name="Path 46278" d="M83.561,26.391a2.112,2.112,0,0,0,1.493-.619l9.515-9.511a2.112,2.112,0,0,0,0-2.988l-7.205-7.2A20.845,20.845,0,0,0,72.712,0,2.113,2.113,0,0,0,70.6,2.112V4.375a6.938,6.938,0,1,1-13.877,0V2.112A2.113,2.113,0,0,0,54.61,0,20.843,20.843,0,0,0,39.959,6.069l-7.207,7.2a2.112,2.112,0,0,0,0,2.988l9.515,9.511a2.112,2.112,0,0,0,1.494.619h0a2.111,2.111,0,0,0,1.152-.342L41.2,53.876A2.113,2.113,0,0,0,43.3,56.267H84.025a2.112,2.112,0,0,0,2.094-2.392l-3.71-27.827a2.112,2.112,0,0,0,1.152.342Z" transform="translate(-27.608 0)" fill="#f5e77a"/>
    <path id="Path_46279" data-name="Path 46279" d="M277.823,55.546a2.113,2.113,0,0,0,.5-1.671l-3.71-27.827a2.111,2.111,0,0,0,1.152.342h0a2.112,2.112,0,0,0,1.493-.619l9.515-9.511a2.112,2.112,0,0,0,0-2.988l-7.205-7.2A20.844,20.844,0,0,0,264.92,0a2.113,2.113,0,0,0-2.113,2.112V4.375a6.946,6.946,0,0,1-6.938,6.938c-.007,0-.021,44.954-.021,44.954h20.386A2.113,2.113,0,0,0,277.823,55.546Z" transform="translate(-219.817)" fill="#f5e77a"/>
    <path id="Path_46280" data-name="Path 46280" d="M191.733,0V4.4a9.029,9.029,0,0,0,18.059,0V0Z" transform="translate(-164.731 0)" fill="#f9efa0"/>
    <path id="Path_46281" data-name="Path 46281" d="M264.877,4.4V0h-9.029V13.426A9.029,9.029,0,0,0,264.877,4.4Z" transform="translate(-219.817 0)" fill="#f9efa0"/>
    <path id="Path_46282" data-name="Path 46282" d="M92.941,268.025a13.328,13.328,0,0,0-16.6,1.8,9.093,9.093,0,0,1-12.851,0,13.316,13.316,0,0,0-18.827,0,9.093,9.093,0,0,1-12.852,0,.95.95,0,0,0-1.6.838l4.34,26.042a2.112,2.112,0,0,0,2.084,1.765H87.358a2.112,2.112,0,0,0,2.084-1.765l4.427-26.56A2.1,2.1,0,0,0,92.941,268.025Z" transform="translate(-25.942 -228.472)" fill="#96e6fa"/>
    <path id="Path_46283" data-name="Path 46283" d="M286.948,268.025a13.328,13.328,0,0,0-16.6,1.8,9.093,9.093,0,0,1-12.851,0A13.473,13.473,0,0,0,256,268.53v29.936h25.363a2.113,2.113,0,0,0,2.084-1.765l4.427-26.56A2.1,2.1,0,0,0,286.948,268.025Z" transform="translate(-219.948 -228.472)" fill="#00b8ff"/>
    <path id="Path_46284" data-name="Path 46284" d="M70.341,192.827a2.113,2.113,0,0,0-2.431,1.736l-6.494,38.964H10.69L4.2,194.564a2.113,2.113,0,1,0-4.168.695l6.788,40.729A2.113,2.113,0,0,0,8.9,237.753h54.3a2.112,2.112,0,0,0,2.084-1.765l6.788-40.729a2.113,2.113,0,0,0-1.736-2.431Z" transform="translate(0 -165.646)" fill="#203856"/>
    <path id="Path_46285" data-name="Path 46285" d="M256,233.528v4.225h27.152a2.112,2.112,0,0,0,2.084-1.765l6.788-40.729a2.112,2.112,0,1,0-4.168-.695l-6.494,38.964Z" transform="translate(-219.947 -165.646)" fill="#081d3d"/>
    <path id="Path_46286" data-name="Path 46286" d="M120.369,269.821a13.316,13.316,0,0,0-18.827,0,9.033,9.033,0,0,1-3.757,2.263l-1.369,10.264a2.113,2.113,0,0,0,2.094,2.392H139.24a2.112,2.112,0,0,0,2.094-2.392L139.2,266.367a13.223,13.223,0,0,0-5.982,3.453,9.093,9.093,0,0,1-12.851,0Z" transform="translate(-82.823 -228.472)" fill="#00b8ff"/>
    <path id="Path_46287" data-name="Path 46287" d="M257.494,272.532A13.476,13.476,0,0,0,256,271.241v16.21h20.364a2.112,2.112,0,0,0,2.094-2.392l-2.131-15.981a13.223,13.223,0,0,0-5.982,3.453,9.093,9.093,0,0,1-12.852,0Z" transform="translate(-219.947 -231.184)" fill="#0089ff"/>
  </g>
</svg>
