<svg id="health-care_10005272" xmlns="http://www.w3.org/2000/svg" width="89.757" height="89.753" viewBox="0 0 89.757 89.753">
  <g id="Group_47729" data-name="Group 47729">
    <path id="Path_46110" data-name="Path 46110" d="M44.87,89.753A44.877,44.877,0,1,0-.01,44.877,44.963,44.963,0,0,0,44.87,89.753Z" transform="translate(0.01)" fill="#fff9c9" fill-rule="evenodd"/>
    <path id="Path_46111" data-name="Path 46111" d="M290.31,249.581l5.6-5.306,2.922-9.983c.8-2.733,2.931-1.571,2.743.287l-1.3,12.692a7.774,7.774,0,0,1-2.435,4.989l-3.3,3.166a2.472,2.472,0,0,0-.785,1.8l-.046,3.169H287.02V254.6Z" transform="translate(-236.704 -191.885)" fill="#fbbd80" fill-rule="evenodd"/>
    <path id="Path_46112" data-name="Path 46112" d="M297.033,284.084c1.387-1.53-.249-3.364-1.749-1.969-4.16,3.886-8.15,6.5-8.253,12.849v2l5.471-7.9Z" transform="translate(-236.712 -232.251)" fill="#fbbd80" fill-rule="evenodd"/>
    <path id="Path_46113" data-name="Path 46113" d="M153.135,249.581l-5.6-5.306-2.922-9.983c-.8-2.733-2.931-1.571-2.743.287l1.3,12.692a7.774,7.774,0,0,0,2.435,4.989l3.3,3.166a2.452,2.452,0,0,1,.785,1.8l.046,3.169h6.693V254.6Z" transform="translate(-116.985 -191.885)" fill="#fbbd80" fill-rule="evenodd"/>
    <path id="Path_46114" data-name="Path 46114" d="M165.458,284.084c-1.392-1.53.244-3.364,1.744-1.969,4.16,3.886,8.155,6.5,8.253,12.849v2l-5.471-7.9Z" transform="translate(-136.016 -232.251)" fill="#fbbd80" fill-rule="evenodd"/>
    <path id="Path_46115" data-name="Path 46115" d="M278.07,385.676v-3.345a.442.442,0,0,1,.442-.442h8.949a.442.442,0,0,1,.442.442v3.345a.442.442,0,0,1-.442.442h-8.949A.442.442,0,0,1,278.07,385.676Z" transform="translate(-229.323 -314.945)" fill="#5c9cee" fill-rule="evenodd"/>
    <path id="Path_46116" data-name="Path 46116" d="M187.673,385.676v-3.345a.442.442,0,0,0-.442-.442h-8.949a.442.442,0,0,0-.442.442v3.345a.442.442,0,0,0,.442.442h8.949A.442.442,0,0,0,187.673,385.676Z" transform="translate(-146.663 -314.945)" fill="#5c9cee" fill-rule="evenodd"/>
    <path id="Path_46117" data-name="Path 46117" d="M178.913,381.89h-.631a.442.442,0,0,0-.442.442v3.334a.453.453,0,0,0,.452.452h.919a.453.453,0,0,1-.452-.452v-3.434a.452.452,0,0,1,.154-.342Z" transform="translate(-146.663 -314.945)" fill="#538cd6" fill-rule="evenodd"/>
  </g>
  <path id="Path_46118" data-name="Path 46118" d="M287.725,391.06a.85.85,0,0,1,0-1.7h.084a.85.85,0,0,1,0,1.7Z" transform="translate(-236.588 -321.105)" fill="#4b7ec1"/>
  <path id="Path_46119" data-name="Path 46119" d="M215.845,391.06a.85.85,0,0,1,0-1.7h.084a.85.85,0,0,1,0,1.7Z" transform="translate(-177.309 -321.105)" fill="#4b7ec1"/>
  <path id="Path_46120" data-name="Path 46120" d="M179.919,108.308c3.35-3.353,8.209-2.892,11.449.347,3.234-3.24,8.1-3.7,11.449-.347a7.878,7.878,0,0,1,0,11.1l-10.485,10.485a1.366,1.366,0,0,1-1.928,0L179.919,119.41a7.869,7.869,0,0,1,0-11.1Z" transform="translate(-146.488 -87.418)" fill="#ff4155" fill-rule="evenodd"/>
  <path id="Path_46121" data-name="Path 46121" d="M226.791,139.86a1.235,1.235,0,0,1,1.232,1.232v3.746h3.746a1.232,1.232,0,0,1,0,2.465h-3.746v3.746a1.232,1.232,0,1,1-2.465,0V147.3h-3.746a1.232,1.232,0,1,1,0-2.465h3.746v-3.746A1.233,1.233,0,0,1,226.791,139.86Z" transform="translate(-181.911 -115.343)" fill="#e5f0ff" fill-rule="evenodd"/>
  <path id="Path_46122" data-name="Path 46122" d="M179.919,108.311a7.492,7.492,0,0,1,6.321-2.251,7.614,7.614,0,0,0-4.477,2.251,7.878,7.878,0,0,0,0,11.1L192.248,129.9c.016.014.025.025.04.04a1.36,1.36,0,0,1-1.883-.04l-10.486-10.485a7.869,7.869,0,0,1,0-11.1Zm12.369-.466a8.254,8.254,0,0,1,6.053-1.785,8.816,8.816,0,0,0-5.128,2.6A9.538,9.538,0,0,0,192.288,107.844Z" transform="translate(-146.488 -87.42)" fill="#e63b4d" fill-rule="evenodd"/>
  <path id="Path_46123" data-name="Path 46123" d="M162.558,284.291l-4.586-5.054a2.869,2.869,0,0,1,.168-4.309,2.519,2.519,0,0,1,.7-.368l.382,1.308c-.8.3-1.167,1.441-.249,2.454l4.586,5.054Z" transform="translate(-129.544 -226.43)" fill="#e2aa73" fill-rule="evenodd"/>
  <path id="Path_46124" data-name="Path 46124" d="M318.963,284.291l4.586-5.054a2.869,2.869,0,0,0-.168-4.309,2.519,2.519,0,0,0-.7-.368l-.382,1.308c.8.3,1.167,1.441.249,2.454l-4.586,5.054Z" transform="translate(-262.22 -226.43)" fill="#e2aa73" fill-rule="evenodd"/>
  <path id="Path_46125" data-name="Path 46125" d="M279.148,381.89h-.636a.442.442,0,0,0-.442.442v3.334a.455.455,0,0,0,.458.452h.919a.455.455,0,0,1-.458-.452v-3.434a.456.456,0,0,1,.16-.342Z" transform="translate(-229.323 -314.945)" fill="#538cd6" fill-rule="evenodd"/>
</svg>
