<svg xmlns="http://www.w3.org/2000/svg" width="18.633" height="16.902" viewBox="0 0 18.633 16.902">
  <g id="health-svgrepo-com" transform="translate(-1.25 -2.248)">
    <path id="Path_42262" data-name="Path 42262" d="M7.934,17.095l-.41.5ZM10.567,5.131l-.475.444a.65.65,0,0,0,.95,0ZM13.2,17.095l.41.5ZM10.567,18.5v0ZM8.343,16.59a25.169,25.169,0,0,1-3.871-3.82A7.592,7.592,0,0,1,2.55,8.375H1.25a8.839,8.839,0,0,0,2.2,5.2A26.448,26.448,0,0,0,7.524,17.6ZM2.55,8.375c0-2.517,1.1-4.074,2.458-4.606s3.254-.152,5.084,1.805l.95-.888C8.972,2.473,6.536,1.775,4.534,2.559S1.25,5.493,1.25,8.375ZM13.61,17.6a26.447,26.447,0,0,0,4.075-4.027,8.839,8.839,0,0,0,2.2-5.2h-1.3a7.592,7.592,0,0,1-1.922,4.395,25.166,25.166,0,0,1-3.871,3.82Zm6.274-9.224c0-2.882-1.285-5.033-3.284-5.816s-4.438-.085-6.508,2.128l.95.888c1.83-1.957,3.728-2.336,5.084-1.805s2.458,2.088,2.458,4.606ZM7.524,17.6c1.1.894,1.866,1.55,3.043,1.55v-1.3c-.627,0-1.017-.281-2.224-1.26ZM12.79,16.59c-1.207.979-1.6,1.26-2.224,1.26v1.3c1.177,0,1.941-.656,3.043-1.55Z" fill="#2b6050" opacity="0.5"/>
    <path id="Path_42263" data-name="Path 42263" d="M17.967,8.733H16.233m0,0H14.5m1.733,0V7m0,1.733v1.733" transform="translate(-1.767 -0.634)" fill="none" stroke="#2b6050" stroke-linecap="round" stroke-width="1.5" opacity="0.5"/>
  </g>
</svg>
