<svg xmlns="http://www.w3.org/2000/svg" width="89.063" height="78.814" viewBox="0 0 89.063 78.814">
  <g id="heartbeat_3980388" transform="translate(0 -34.752)">
    <g id="Group_48440" data-name="Group 48440" transform="translate(0 34.752)">
      <path id="Path_47865" data-name="Path 47865" d="M81.893,41.939a24.557,24.557,0,0,0-34.717,0L44.54,44.575,41.9,41.939A24.548,24.548,0,0,0,7.187,76.655l36.6,36.6a1.064,1.064,0,0,0,.748.315,1.029,1.029,0,0,0,.748-.315l36.6-36.6a24.577,24.577,0,0,0,.017-34.717Z" transform="translate(0 -34.752)" fill="#fc757e"/>
      <g id="Group_48439" data-name="Group 48439" transform="translate(11.618 19.799)">
        <path id="Path_47866" data-name="Path 47866" d="M100.512,196.917H100.5a1.056,1.056,0,0,1-1.029-.85L96.753,182.6h-16.9a1.063,1.063,0,1,1,0-2.126H97.612a1.074,1.074,0,0,1,1.046.85l1.9,9.389,4.6-20.854a1.07,1.07,0,0,1,1.08-.834,1.057,1.057,0,0,1,1.012.918l2.645,19.391,3.98-8.258a1.075,1.075,0,0,1,.961-.6h5.792a1.049,1.049,0,0,1,1.012.748l1.369,4.372,2.475-15.666a1.067,1.067,0,0,1,1.046-.9h.009a1.069,1.069,0,0,1,1.046.918l2.169,15.419,1.99-4.269a1.068,1.068,0,0,1,.961-.612h10.878a1.063,1.063,0,0,1,0,2.126h-10.2l-3.223,6.906a1.067,1.067,0,0,1-1.123.6,1.046,1.046,0,0,1-.893-.9L126.469,177.3,124.4,190.411a1.06,1.06,0,0,1-2.058.153l-2.492-7.943h-4.346l-5.23,10.827a1.061,1.061,0,0,1-2.007-.323l-2.313-16.984-4.4,19.935A1.08,1.08,0,0,1,100.512,196.917Z" transform="translate(-78.791 -169.029)" fill="#fff"/>
      </g>
    </g>
  </g>
</svg>
