<svg xmlns="http://www.w3.org/2000/svg" width="27.035" height="29.092" viewBox="0 0 27.035 29.092">
  <g id="heart_9849954" transform="translate(-18.102 0)">
    <g id="Group_47962" data-name="Group 47962" transform="translate(18.532 0.426)">
      <path id="Path_46987" data-name="Path 46987" d="M192.148,12.245V7.92a.419.419,0,0,0-.419-.419h-2.875a.419.419,0,0,0-.419.419v9.225l1.669,1.05,2.675-4.963Z" transform="translate(-179.186 -7.501)" fill="#00c2fb"/>
      <path id="Path_46988" data-name="Path 46988" d="M213.368,16.671a8.476,8.476,0,0,1,5.35-6.417.359.359,0,0,0,.232-.336v-2a.419.419,0,0,1,.419-.419h1.209A.419.419,0,0,1,221,7.92V9.362a.359.359,0,0,0,.372.36l-3.861,3.112v5.531Z" transform="translate(-202.702 -7.501)" fill="#ed5469"/>
      <path id="Path_46989" data-name="Path 46989" d="M275.529,13.777V10.135a.419.419,0,0,0-.418-.419h-.976a.36.36,0,0,1-.361-.36V7.92a.419.419,0,0,0-.419-.419h-1.209a.419.419,0,0,0-.419.419V9.356a.36.36,0,0,1-.361.36c-.822,0-1.216,0-1.421.006a7.226,7.226,0,0,0-5.015,7.816h2.226l2.486-2.714h4.792Z" transform="translate(-251.281 -7.501)" fill="#f27182"/>
      <path id="Path_46990" data-name="Path 46990" d="M290.79,122.36l1.058-.706h3.76a.419.419,0,0,0,.419-.419v-2.875a.419.419,0,0,0-.419-.419h-6.783a4.393,4.393,0,0,0-4.27,3.386l1.283,1.032h4.952Z" transform="translate(-269.843 -111.666)" fill="#00d2fc"/>
      <path id="Path_46991" data-name="Path 46991" d="M141.223,168.123a4.03,4.03,0,0,0-3.8-.613,5.247,5.247,0,0,0-3.107,2.416l-.724,1.784a8.011,8.011,0,0,0,.3,4.658c1.344,3.634,4.175,7.253,7.39,7.851l-1.511-3.523V170.384Z" transform="translate(-127.257 -158.222)" fill="#e63850"/>
      <path id="Path_46992" data-name="Path 46992" d="M210.445,193.446a3.568,3.568,0,0,1-3.58-.184,13.561,13.561,0,0,1-5.829-8.738c-1.733-8.053,4.489-9.268,4.489-9.268.257-.046.785-.13.785-.13l-.447.989,3.509,15.977Z" transform="translate(-190.783 -165.601)" fill="#ed5469"/>
      <path id="Path_46993" data-name="Path 46993" d="M29.677,152.57l-.647-.19a.445.445,0,0,1-.256-.073l-2.492-1.634a.4.4,0,0,0-.575.511l2.673,5.36a.447.447,0,0,0,.774.046l.9-1.369a.448.448,0,0,1,.3-.195l.189-.7Z" transform="translate(-25.663 -142.474)" fill="#fbc700"/>
      <path id="Path_46994" data-name="Path 46994" d="M89.628,156.245l-2.673-5.36a.447.447,0,0,0-.774-.046l-.9,1.369a.446.446,0,0,1-.364.2l1.32,2.646a.443.443,0,0,1,.322.066l2.492,1.634A.4.4,0,0,0,89.628,156.245Z" transform="translate(-81.552 -142.503)" fill="#ffe02f"/>
      <path id="Path_46995" data-name="Path 46995" d="M249.852,171.079l-.29.29-.661-.165c-1.635,1.236-3.846,3.973-2.694,9.255a13.383,13.383,0,0,0,5.829,8.622,3.586,3.586,0,0,0,1,.443,3.519,3.519,0,0,0,.723-.5c2.051-1.824,4.984-5.222,4.984-9.732C258.742,172.921,256.147,170.385,249.852,171.079Z" transform="translate(-233.373 -161.679)" fill="#f27182"/>
    </g>
    <g id="Group_47963" data-name="Group 47963" transform="translate(18.102 0)">
      <path id="Path_46996" data-name="Path 46996" d="M27.778,5.318a.426.426,0,0,0-.426.426v4.07a5.637,5.637,0,0,0-1.7,1.479L24.313,8.617A.873.873,0,0,0,22.8,8.528L21.9,9.9a.021.021,0,0,1-.029.006L19.382,8.269a.825.825,0,0,0-1.191,1.058l2.673,5.36a.873.873,0,0,0,1.512.089l.9-1.369A.021.021,0,0,1,23.3,13.4l1.081.709a8.51,8.51,0,0,0,.379,4.611c1.305,3.53,4.146,7.374,7.579,8.1a13.368,13.368,0,0,0,2.034,1.629,3.989,3.989,0,0,0,4.819-.352c2.746-2.443,4.885-5.688,5.107-9.406a.426.426,0,0,0-.851-.051c-.236,3.953-2.753,6.978-4.823,8.82a3.135,3.135,0,0,1-3.787.275,13.3,13.3,0,0,1-5.8-9.285c-.649-4.183,1.084-6.216,2.534-7.165a5.878,5.878,0,0,1,2.746-.938,11.621,11.621,0,0,1,1.523,3.587,16.68,16.68,0,0,1-2.489,2.46.426.426,0,1,0,.528.669A17.305,17.305,0,0,0,36.055,15a10.882,10.882,0,0,1,.1,1.3c.014.7.036,1.387.063,2.046a10.363,10.363,0,0,0-2.178,2.065,4.349,4.349,0,0,1-1.723-.173.426.426,0,0,0-.291.8,4.971,4.971,0,0,0,1.428.244l-.05.087a3.136,3.136,0,0,0-.313,2.2.426.426,0,0,0,.835-.17,2.306,2.306,0,0,1,.223-1.621,8.554,8.554,0,0,1,2.113-2.4c.116,2.358.269,4.124.271,4.148a.426.426,0,0,0,.849-.075c0-.017-.078-.9-.163-2.239a5.21,5.21,0,0,1,2.506,1.977.426.426,0,1,0,.716-.463,6.105,6.105,0,0,0-3.278-2.435c-.066-1.175-.13-2.573-.159-4.01a11.98,11.98,0,0,0-.183-1.854,6.89,6.89,0,0,0,1.994,1.074,3.722,3.722,0,0,0,1.492,2.819.426.426,0,0,0,.46-.717,2.707,2.707,0,0,1-1.062-1.865,7.079,7.079,0,0,0,1.009.125h.022a.426.426,0,0,0,.021-.852,6.105,6.105,0,0,1-4.313-2.124,12.363,12.363,0,0,0-1.186-2.663c2.7-.267,4.658.1,5.947,1.1,1.313,1.024,2.037,2.78,2.214,5.371a.426.426,0,0,0,.85-.058c-.185-2.706-.945-4.608-2.322-5.8h2.337A.846.846,0,0,0,45.138,10V7.121a.846.846,0,0,0-.845-.845H43.2V3.06a.846.846,0,0,0-.845-.845h-.91V.845A.846.846,0,0,0,40.6,0H39.394a.846.846,0,0,0-.845.845v1.37H37.51c-.086,0-.174,0-.262,0V.845A.846.846,0,0,0,36.4,0H35.195a.846.846,0,0,0-.845.845V2.8a8.854,8.854,0,0,0-2.434,1.411V.845A.846.846,0,0,0,31.072,0H28.2a.846.846,0,0,0-.845.845v2.91a.426.426,0,0,0,.852,0V.852h2.86V5A8.833,8.833,0,0,0,28.83,9.239a6.16,6.16,0,0,0-.626.186V5.744a.426.426,0,0,0-.426-.426Zm-4.007,7.371a.874.874,0,0,0-1.21.252l-.9,1.369a.017.017,0,0,1-.019.009.018.018,0,0,1-.018-.012L19,9.038l2.407,1.578a.873.873,0,0,0,1.21-.252L23.513,9a.021.021,0,0,1,.037,0l2.628,5.269Zm20.514-5.56v2.86H40.634c-2.006-.933-4.6-.779-6.773-.438A3.942,3.942,0,0,1,37.51,7.128Zm-9.591-3.55a.789.789,0,0,0,.508-.735V.852H36.4V2.287a.786.786,0,0,0,.814.786c.2-.007.193-.006,1.405-.006a.788.788,0,0,0,.787-.787V.852H40.6V2.281a.788.788,0,0,0,.787.787h.968V6.276H37.51a4.824,4.824,0,0,0-4.618,3.463c-.092.027-.2.062-.33.107a4.245,4.245,0,0,0-2.822-.751A8.072,8.072,0,0,1,34.694,3.578ZM31.607,10.27c-5.656,3.04-3.593,11.257-.455,15.226-2.544-1.277-4.575-4.327-5.589-7.07a7.7,7.7,0,0,1-.4-3.808l.637.417a.825.825,0,0,0,1.19-1.058l-.909-1.823a4.573,4.573,0,0,1,5.53-1.885Z" transform="translate(-18.102 0)"/>
    </g>
  </g>
</svg>
