<svg xmlns="http://www.w3.org/2000/svg" width="90" height="90" viewBox="0 0 90 90">
  <g id="house_6550654" transform="translate(0.498 0.495)">
    <g id="BULINE" transform="translate(-0.498)">
      <circle id="Ellipse_495" data-name="Ellipse 495" cx="45" cy="45" r="45" transform="translate(0 -0.495)" fill="#8a8a8a"/>
    </g>
    <g id="Icons" transform="translate(11.861 9.134)">
      <path id="Path_46126" data-name="Path 46126" d="M167.765,73.728l-4.955,1.04V66.94h4.955Z" transform="translate(-146.218 -64.357)" fill="#fff"/>
      <path id="Path_46127" data-name="Path 46127" d="M171.126,62.09,152.02,73.171v26.75h36.96V73.171Z" transform="translate(-137.316 -60.356)" fill="#fff"/>
      <path id="Path_46128" data-name="Path 46128" d="M174.4,64.136l-12.94,7.505a11.564,11.564,0,0,0-5.762,10V99.919H152V73.171L171.108,62.09Z" transform="translate(-137.3 -60.356)" fill="#e0e0e0"/>
      <path id="Path_46129" data-name="Path 46129" d="M232.182,197.7h8.3a.362.362,0,0,1,.362.362V211.8H231.82V198.062a.362.362,0,0,1,.362-.362Z" transform="translate(-203.149 -172.23)" fill="#a65c3b"/>
      <path id="Path_46130" data-name="Path 46130" d="M236.332,103.4a4.512,4.512,0,0,1,4.512,4.512v2.058a.371.371,0,0,1-.371.371h-8.282a.371.371,0,0,1-.371-.371v-2.058a4.512,4.512,0,0,1,4.512-4.512Z" transform="translate(-203.149 -94.435)" fill="#3e436d"/>
      <path id="Path_46131" data-name="Path 46131" d="M241.431,108.14a3.434,3.434,0,0,1,3.434,3.434v1.479a.371.371,0,0,1-.371.371h-6.126a.371.371,0,0,1-.368-.373v-1.479A3.434,3.434,0,0,1,241.431,108.14Z" transform="translate(-208.247 -98.346)" fill="#7cc8fb"/>
      <path id="Path_46132" data-name="Path 46132" d="M239.384,111.574v1.477a.371.371,0,0,0,.371.371h-1.388a.371.371,0,0,1-.368-.371v-1.477a3.432,3.432,0,0,1,3.434-3.434,3.487,3.487,0,0,1,.7.07,3.434,3.434,0,0,0-2.75,3.364Z" transform="translate(-208.247 -98.346)" fill="#41c0e3"/>
      <path id="Path_46133" data-name="Path 46133" d="M171.07,201.45h7.019v7.017H171.07Z" transform="translate(-153.032 -175.324)" fill="#7cc8fb"/>
      <path id="Path_46134" data-name="Path 46134" d="M178.089,207.541v.926H171.07V201.45h.8v4.472a1.623,1.623,0,0,0,1.624,1.624Z" transform="translate(-153.032 -175.324)" fill="#41c0e3"/>
      <path id="Path_46135" data-name="Path 46135" d="M167.32,197.911v7.876a.231.231,0,0,0,.231.231h7.876a.231.231,0,0,0,.231-.231v-7.876a.231.231,0,0,0-.231-.231h-7.876A.231.231,0,0,0,167.32,197.911Zm7.673,2.66h-3.086V198.34h3.086Zm-7.019-2.235h3.086v2.235h-3.086Zm0,3.084h3.086v3.933h-3.086Zm7.019,3.933h-3.086v-3.929h3.086Z" transform="translate(-149.938 -172.213)" fill="#3e436d"/>
      <rect id="Rectangle_21161" data-name="Rectangle 21161" width="9.371" height="1.388" rx="0.694" transform="translate(16.881 33.8)" fill="#a65c3b"/>
      <circle id="Ellipse_496" data-name="Ellipse 496" cx="0.502" cy="0.502" r="0.502" transform="translate(23.824 30.532)" fill="#95d7fc"/>
      <circle id="Ellipse_497" data-name="Ellipse 497" cx="0.355" cy="0.355" r="0.355" transform="translate(23.972 29.634)" fill="#95d7fc"/>
      <path id="Path_46136" data-name="Path 46136" d="M303.26,201.45h7.019v7.017H303.26Z" transform="translate(-262.085 -175.324)" fill="#7cc8fb"/>
      <path id="Path_46137" data-name="Path 46137" d="M310.279,207.541v.926H303.26V201.45h.8v4.472a1.624,1.624,0,0,0,1.624,1.624Z" transform="translate(-262.085 -175.324)" fill="#41c0e3"/>
      <path id="Path_46138" data-name="Path 46138" d="M299.51,197.911v7.876a.233.233,0,0,0,.233.231h7.866a.231.231,0,0,0,.231-.231v-7.876a.231.231,0,0,0-.231-.231h-7.866A.233.233,0,0,0,299.51,197.911Zm7.673,2.66H304.1V198.34h3.084Zm-7.019-2.235h3.086v2.235h-3.086Zm0,3.084h3.086v3.933h-3.086Zm7.019,3.933H304.1v-3.929h3.084Z" transform="translate(-258.991 -172.213)" fill="#3e436d"/>
      <rect id="Rectangle_21162" data-name="Rectangle 21162" width="9.371" height="1.388" rx="0.694" transform="translate(40.018 33.8)" fill="#a65c3b"/>
      <circle id="Ellipse_498" data-name="Ellipse 498" cx="0.502" cy="0.502" r="0.502" transform="translate(46.962 30.532)" fill="#95d7fc"/>
      <circle id="Ellipse_499" data-name="Ellipse 499" cx="0.355" cy="0.355" r="0.355" transform="translate(47.109 29.634)" fill="#95d7fc"/>
      <rect id="Rectangle_21163" data-name="Rectangle 21163" width="7.25" height="5.102" rx="2.1" transform="translate(29.558 26.434)" fill="#9e4830"/>
      <rect id="Rectangle_21164" data-name="Rectangle 21164" width="7.25" height="5.102" rx="2.1" transform="translate(29.558 33.336)" fill="#9e4830"/>
      <path id="Path_46139" data-name="Path 46139" d="M244.148,247.055v.289a.368.368,0,0,1-.368.368h-6.513a.368.368,0,0,1-.368-.368v-4.376a.369.369,0,0,1,.368-.368h.249v4.1a.368.368,0,0,0,.369.368Z" transform="translate(-207.34 -209.271)" fill="#893d2b"/>
      <path id="Path_46140" data-name="Path 46140" d="M244.148,207.656v.289a.368.368,0,0,1-.368.368h-6.513a.368.368,0,0,1-.368-.368v-4.367a.368.368,0,0,1,.368-.368h.249v4.078a.368.368,0,0,0,.369.368Z" transform="translate(-207.34 -176.776)" fill="#893d2b"/>
      <circle id="Ellipse_500" data-name="Ellipse 500" cx="0.539" cy="0.539" r="0.539" transform="translate(36.008 31.978)" fill="#3e436d"/>
      <path id="Path_46141" data-name="Path 46141" d="M152,134.25h1.6a.289.289,0,0,1,.289.289v.964a.289.289,0,0,1-.289.289H152Z" transform="translate(-137.3 -119.886)" fill="#9e4830"/>
      <path id="Path_46142" data-name="Path 46142" d="M152,149.67h1.6a.289.289,0,0,1,.289.289v.964a.289.289,0,0,1-.289.289H152Z" transform="translate(-137.3 -132.607)" fill="#e88032"/>
      <path id="Path_46143" data-name="Path 46143" d="M152,165.09h1.6a.289.289,0,0,1,.289.289v.964a.289.289,0,0,1-.289.289H152Z" transform="translate(-137.3 -145.328)" fill="#9e4830"/>
      <path id="Path_46144" data-name="Path 46144" d="M152,180.51h1.6a.289.289,0,0,1,.289.289v.964a.289.289,0,0,1-.289.289H152Z" transform="translate(-137.3 -158.049)" fill="#e88032"/>
      <path id="Path_46145" data-name="Path 46145" d="M152,195.94h1.6a.289.289,0,0,1,.289.289v.964a.289.289,0,0,1-.289.289H152V195.94Z" transform="translate(-137.3 -170.778)" fill="#9e4830"/>
      <path id="Path_46146" data-name="Path 46146" d="M152,211.352h1.6a.289.289,0,0,1,.291.287v.964a.289.289,0,0,1-.289.289H152v-1.54Z" transform="translate(-137.3 -183.491)" fill="#e88032"/>
      <path id="Path_46147" data-name="Path 46147" d="M152,226.78h1.6a.289.289,0,0,1,.289.289v.964a.289.289,0,0,1-.289.289H152Z" transform="translate(-137.3 -196.22)" fill="#9e4830"/>
      <path id="Path_46148" data-name="Path 46148" d="M152,242.2h1.6a.289.289,0,0,1,.289.289v.964a.289.289,0,0,1-.289.289H152V242.2Z" transform="translate(-137.3 -208.941)" fill="#e88032"/>
      <path id="Path_46149" data-name="Path 46149" d="M152,257.63h1.6a.289.289,0,0,1,.289.289v.964a.289.289,0,0,1-.289.289H152Z" transform="translate(-137.3 -221.67)" fill="#9e4830"/>
      <path id="Path_46150" data-name="Path 46150" d="M0,0H1.6a.289.289,0,0,1,.289.289v.964a.289.289,0,0,1-.289.289H0V0Z" transform="translate(51.681 15.906) rotate(180)" fill="#9e4830"/>
      <path id="Path_46151" data-name="Path 46151" d="M0,0H1.6a.289.289,0,0,1,.289.289v.964a.289.289,0,0,1-.289.289H0V0Z" transform="translate(51.681 18.605) rotate(180)" fill="#e88032"/>
      <path id="Path_46152" data-name="Path 46152" d="M0,0H1.6a.289.289,0,0,1,.289.289v.964a.289.289,0,0,1-.289.289H0V0Z" transform="translate(51.681 21.306) rotate(180)" fill="#9e4830"/>
      <path id="Path_46153" data-name="Path 46153" d="M0,0H1.6a.289.289,0,0,1,.289.289v.964a.289.289,0,0,1-.289.289H0Z" transform="translate(51.681 24.005) rotate(180)" fill="#e88032"/>
      <path id="Path_46154" data-name="Path 46154" d="M0,0H1.6a.289.289,0,0,1,.289.289v.964a.289.289,0,0,1-.289.289H0V0Z" transform="translate(51.681 26.704) rotate(180)" fill="#9e4830"/>
      <path id="Path_46155" data-name="Path 46155" d="M0,0H1.6a.289.289,0,0,1,.289.289v.964a.289.289,0,0,1-.289.289H0V0Z" transform="translate(51.681 29.403) rotate(180)" fill="#e88032"/>
      <path id="Path_46156" data-name="Path 46156" d="M0,0H1.6a.289.289,0,0,1,.289.289v.964a.289.289,0,0,1-.289.289H0V0Z" transform="translate(51.681 32.104) rotate(180)" fill="#9e4830"/>
      <path id="Path_46157" data-name="Path 46157" d="M0,0H1.6a.289.289,0,0,1,.289.289v.964a.289.289,0,0,1-.289.289H0V0Z" transform="translate(51.681 34.803) rotate(180)" fill="#e88032"/>
      <path id="Path_46158" data-name="Path 46158" d="M0,0H1.6a.289.289,0,0,1,.289.289v.964a.289.289,0,0,1-.289.289H0Z" transform="translate(51.681 37.502) rotate(180)" fill="#9e4830"/>
      <path id="Path_46159" data-name="Path 46159" d="M124.544,68.282a1.735,1.735,0,0,1-.851-3.249L146.174,52.4a1.733,1.733,0,0,1,1.75.032L168.6,65.066a1.735,1.735,0,1,1-1.81,2.962l-19.793-12.1-21.6,12.131A1.738,1.738,0,0,1,124.544,68.282Z" transform="translate(-113.215 -52.183)" fill="#f55b4b"/>
      <rect id="Rectangle_21165" data-name="Rectangle 21165" width="6.747" height="2.314" rx="1.157" transform="translate(15.647 0.635)" fill="#9e4830"/>
      <path id="Path_46160" data-name="Path 46160" d="M339.265,252.424c-.088.313-4.742,13.936-9.03,26.444a44.553,44.553,0,0,1-13.056,5.526c1.862-5.829,3.441-11.018,3.4-11.746-.079-1.512-.917-3.04-1-4.617a10.819,10.819,0,0,1,.807-4.8c.747-1.78,1.721-2.148,2.99-3.4.739-.728,2.179-5.048,2.6-6.247.4-1.129.7-2.734,1.658-3.532a2.718,2.718,0,0,1,3.676.224,2.746,2.746,0,0,1,.6,2.72,22.473,22.473,0,0,0,.851-2.4c.35-1.49-2.5-7.64-3.362-9.565a2.388,2.388,0,0,1,2.955-3.217,2.451,2.451,0,0,1,.481.245,6.916,6.916,0,0,1,1.887,2.2c.987,1.591,5.408,9.126,4.551,12.165Z" transform="translate(-273.568 -205.197)" fill="#fcc8bc"/>
      <path id="Path_46161" data-name="Path 46161" d="M383.518,305.338a2.7,2.7,0,0,1,1.647,3.446l-3.035,8.594c-.031-.049-.063-.1-.1-.147a2.326,2.326,0,0,1-.254-2.081l2.375-6.721a2.7,2.7,0,0,0-.931-3.065,2.629,2.629,0,0,0-.229-.154A2.768,2.768,0,0,1,383.518,305.338Z" transform="translate(-326.747 -260.922)" fill="#fab3a7"/>
      <path id="Path_46162" data-name="Path 46162" d="M1.076,0H2.4a.464.464,0,0,1,.464.464V2.727a.464.464,0,0,1-.464.464H1.076A1.076,1.076,0,0,1,0,2.114V1.08A1.076,1.076,0,0,1,1.076,0Z" transform="translate(54 47.504) rotate(-70.55)" fill="#fff9f8"/>
      <path id="Path_46163" data-name="Path 46163" d="M403.85,242.137l-.623.385a1.075,1.075,0,0,1-1.481-.35l-.7-1.125a.464.464,0,0,1,.151-.637l.761-.469A6.845,6.845,0,0,1,403.85,242.137Z" transform="translate(-342.698 -207.077)" fill="#fff9f8"/>
      <path id="Path_46164" data-name="Path 46164" d="M90.209,284.391a44.553,44.553,0,0,1-13.056-5.526c-4.288-12.508-8.942-26.13-9.03-26.442-.858-3.037,3.572-10.572,4.551-12.165a6.936,6.936,0,0,1,1.887-2.2,2.451,2.451,0,0,1,.481-.245A2.388,2.388,0,0,1,78,241.031c-.859,1.925-3.707,8.076-3.362,9.565a20.7,20.7,0,0,0,.851,2.4,2.746,2.746,0,0,1,.6-2.72,2.718,2.718,0,0,1,3.676-.224c.963.8,1.26,2.4,1.658,3.532.422,1.2,1.862,5.519,2.6,6.247,1.269,1.255,2.242,1.623,2.99,3.4a10.818,10.818,0,0,1,.807,4.8c-.088,1.575-.926,3.105-1,4.617C86.768,273.373,88.347,278.563,90.209,284.391Z" transform="translate(-68.014 -205.197)" fill="#fcc8bc"/>
      <path id="Path_46165" data-name="Path 46165" d="M111.146,305.338a2.7,2.7,0,0,0-1.647,3.446l3.035,8.594c.032-.049.063-.1.1-.147a2.326,2.326,0,0,0,.254-2.081l-2.375-6.721a2.7,2.7,0,0,1,.931-3.065,2.624,2.624,0,0,1,.229-.154A2.768,2.768,0,0,0,111.146,305.338Z" transform="translate(-102.11 -260.922)" fill="#fab3a7"/>
      <g id="Group_47730" data-name="Group 47730" transform="translate(4.655 32.863)">
        <path id="Path_46166" data-name="Path 46166" d="M1.075,0H2.4a.464.464,0,0,1,.464.464V2.727a.464.464,0,0,1-.464.464H1.075A1.076,1.076,0,0,1,0,2.113V1.08A1.076,1.076,0,0,1,1.076,0Z" transform="translate(4.15 15.707) rotate(-109.45)" fill="#fff9f8"/>
        <path id="Path_46167" data-name="Path 46167" d="M94.61,242.137l.623.385a1.075,1.075,0,0,0,1.481-.35l.7-1.125a.464.464,0,0,0-.151-.637l-.761-.469A6.845,6.845,0,0,0,94.61,242.137Z" transform="translate(-94.61 -239.94)" fill="#fff9f8"/>
      </g>
    </g>
  </g>
</svg>
