<svg xmlns="http://www.w3.org/2000/svg" width="85.064" height="84.117" viewBox="0 0 85.064 84.117">
  <g id="Layer_x0020_1" transform="translate(0 -10)">
    <path id="Path_47957" data-name="Path 47957" d="M653.576,369.391H619.97a1,1,0,1,1,.1-1.994l-10.222-49.014a1.014,1.014,0,0,1-.848-1,10.254,10.254,0,0,1,7.38-9.474v-7.18a1,1,0,0,1,1.994-.15h35.951a1,1,0,0,1,1.994.15v7.18a10.1,10.1,0,0,1,7.38,9.723v41.635A10.129,10.129,0,0,1,653.576,369.391Z" transform="translate(-578.634 -275.274)" fill="#a1d4ff" fill-rule="evenodd"/>
    <path id="Path_47958" data-name="Path 47958" d="M1102.662,674v40.288h-26.377a5.246,5.246,0,0,1-5.285-5.235V679.285a5.288,5.288,0,0,1,5.285-5.285Z" transform="translate(-1017.598 -630.892)" fill="#d9edff" fill-rule="evenodd"/>
    <path id="Path_47959" data-name="Path 47959" d="M659.768,26.454H618.681A6.725,6.725,0,0,1,612,19.723V16.681A6.682,6.682,0,0,1,618.681,10h41.086a6.682,6.682,0,0,1,6.682,6.681v3.042A6.725,6.725,0,0,1,659.768,26.454Z" transform="translate(-581.484 0)" fill="#6ac0f2" fill-rule="evenodd"/>
    <g id="Group_48599" data-name="Group 48599" transform="translate(37.646 10)">
      <path id="Path_47960" data-name="Path 47960" d="M756.995,26.454H755V10h1.995Z" transform="translate(-755 -10)" fill="#2978b8" fill-rule="evenodd"/>
      <path id="Path_47961" data-name="Path 47961" d="M909.994,26.454H908V10h1.995Z" transform="translate(-900.371 -10)" fill="#2978b8" fill-rule="evenodd"/>
      <path id="Path_47962" data-name="Path 47962" d="M1062.995,26.454H1061V10h1.995Z" transform="translate(-1045.742 -10)" fill="#2978b8" fill-rule="evenodd"/>
      <path id="Path_47963" data-name="Path 47963" d="M1215.994,26.454H1214V10h1.994Z" transform="translate(-1191.113 -10)" fill="#2978b8" fill-rule="evenodd"/>
      <path id="Path_47964" data-name="Path 47964" d="M1369.995,26.454H1368V10h1.995Z" transform="translate(-1337.435 -10)" fill="#2978b8" fill-rule="evenodd"/>
      <path id="Path_47965" data-name="Path 47965" d="M1522.994,26.454H1521V10h1.994Z" transform="translate(-1482.806 -10)" fill="#2978b8" fill-rule="evenodd"/>
    </g>
    <path id="Path_47966" data-name="Path 47966" d="M1208.236,907a3.458,3.458,0,0,1-3.49-3.44v-2.593h-2.593c-4.538,0-4.538-6.931,0-6.931h2.593V891.44c0-4.587,6.931-4.587,6.931,0v2.593h2.593c4.588,0,4.588,6.931,0,6.931h-2.593v2.593A3.447,3.447,0,0,1,1208.236,907Z" transform="translate(-1138.978 -834.221)" fill="#eb5468" fill-rule="evenodd"/>
    <path id="Path_47967" data-name="Path 47967" d="M41.336,687H6.233A6.225,6.225,0,0,1,0,680.82V640.233A6.235,6.235,0,0,1,6.233,634h35.1a6.235,6.235,0,0,1,6.233,6.233V680.82A6.225,6.225,0,0,1,41.336,687Z" transform="translate(0 -592.886)" fill="#d9edff" fill-rule="evenodd"/>
    <path id="Path_47968" data-name="Path 47968" d="M458.994,687H457V634h1.995Z" transform="translate(-434.213 -592.886)" fill="#a9ceec" fill-rule="evenodd"/>
    <path id="Path_47969" data-name="Path 47969" d="M110.28,829.51a7.255,7.255,0,1,1,7.23-7.23A7.246,7.246,0,0,1,110.28,829.51Z" transform="translate(-97.864 -764.861)" fill="#24baf1" fill-rule="evenodd"/>
    <path id="Path_47970" data-name="Path 47970" d="M134.4,856.568a7.4,7.4,0,0,1-1.4-1.4L143.122,845a6.407,6.407,0,0,1,1.446,1.4Z" transform="translate(-126.368 -793.365)" fill="#a9ceec" fill-rule="evenodd"/>
    <path id="Path_47971" data-name="Path 47971" d="M567.23,1239.51a7.255,7.255,0,1,1,7.28-7.23A7.235,7.235,0,0,1,567.23,1239.51Z" transform="translate(-532.077 -1154.418)" fill="#24baf1" fill-rule="evenodd"/>
    <path id="Path_47972" data-name="Path 47972" d="M590.446,1265.618a9.911,9.911,0,0,1-1.446-1.446L599.172,1254a9.91,9.91,0,0,1,1.446,1.446Z" transform="translate(-559.631 -1181.972)" fill="#a9ceec" fill-rule="evenodd"/>
    <path id="Path_47973" data-name="Path 47973" d="M567.23,829.51a7.255,7.255,0,1,1,7.28-7.23A7.235,7.235,0,0,1,567.23,829.51Z" transform="translate(-532.077 -764.861)" fill="#24baf1" fill-rule="evenodd"/>
    <path id="Path_47974" data-name="Path 47974" d="M590.446,856.568a9.576,9.576,0,0,1-1.446-1.4L599.172,845a7.645,7.645,0,0,1,1.446,1.4Z" transform="translate(-559.631 -793.365)" fill="#a9ceec" fill-rule="evenodd"/>
    <path id="Path_47975" data-name="Path 47975" d="M110.28,1239.51a7.255,7.255,0,1,1,7.23-7.23A7.246,7.246,0,0,1,110.28,1239.51Z" transform="translate(-97.864 -1154.418)" fill="#24baf1" fill-rule="evenodd"/>
    <path id="Path_47976" data-name="Path 47976" d="M134.4,1265.618a7.646,7.646,0,0,1-1.4-1.446L143.122,1254a7.94,7.94,0,0,1,1.446,1.446Z" transform="translate(-126.368 -1181.972)" fill="#a9ceec" fill-rule="evenodd"/>
  </g>
</svg>
