<svg xmlns="http://www.w3.org/2000/svg" width="35" height="35" viewBox="0 0 35 35">
  <g id="Layer_x0020_1" transform="translate(-0.349 -0.349)">
    <circle id="Ellipse_516" data-name="Ellipse 516" cx="17.5" cy="17.5" r="17.5" transform="translate(0.349 0.349)" fill="#badf77"/>
    <g id="Group_47965" data-name="Group 47965" transform="translate(6.311 6.311)">
      <path id="Path_47001" data-name="Path 47001" d="M483.818,499.636l-.105-.094a11.213,11.213,0,1,1,.106.094Zm.23-1.076,13.643-15.324a10.269,10.269,0,0,0-13.643,15.324Zm.706.629A10.269,10.269,0,0,0,498.4,483.865l-13.643,15.324Z" transform="translate(-480 -479.99)" fill="#fff" fill-rule="evenodd"/>
      <path id="Path_47002" data-name="Path 47002" d="M611.532,1392.825a.473.473,0,0,1-.4-.222l-.5-.8a.473.473,0,0,1,.8-.5l.5.8A.474.474,0,0,1,611.532,1392.825Z" transform="translate(-608.839 -1379.102)" fill="#fff" fill-rule="evenodd"/>
      <path id="Path_47003" data-name="Path 47003" d="M1020.062,694.781c-.4,0-.494-.416-.679-.825a.473.473,0,0,1,.861-.391l.249.547A.475.475,0,0,1,1020.062,694.781Z" transform="translate(-1012.243 -690.484)" fill="#fff" fill-rule="evenodd"/>
      <path id="Path_47004" data-name="Path 47004" d="M1293.038,634.262l-.675-.106a.473.473,0,0,1,.155-.933l.6.1a.473.473,0,0,1-.077.939Z" transform="translate(-1281.297 -631.2)" fill="#fff" fill-rule="evenodd"/>
      <path id="Path_47005" data-name="Path 47005" d="M794.427,830.43l-.675-.106a.473.473,0,0,1,.155-.933l.6.1A.473.473,0,0,1,794.427,830.43Z" transform="translate(-789.241 -824.79)" fill="#fff" fill-rule="evenodd"/>
      <path id="Path_47006" data-name="Path 47006" d="M1257.279,1920.055a.472.472,0,0,1-.4-.222l-.5-.8a.473.473,0,0,1,.8-.5l.5.8a.474.474,0,0,1-.4.724Z" transform="translate(-1246.095 -1899.399)" fill="#fff" fill-rule="evenodd"/>
      <path id="Path_47007" data-name="Path 47007" d="M1329.8,1852.153l-.675-.106a.473.473,0,0,1,.155-.933l.6.1A.473.473,0,0,1,1329.8,1852.153Z" transform="translate(-1317.573 -1833.079)" fill="#fff" fill-rule="evenodd"/>
      <path id="Path_47008" data-name="Path 47008" d="M1575.015,1884.855l-.675-.106a.473.473,0,0,1,.155-.933l.6.1a.473.473,0,0,1-.077.94Z" transform="translate(-1559.567 -1865.35)" fill="#fff" fill-rule="evenodd"/>
      <path id="Path_47009" data-name="Path 47009" d="M1897.9,1169.663l-.675-.106a.473.473,0,0,1,.155-.933l.6.1a.473.473,0,0,1-.077.939Z" transform="translate(-1878.208 -1159.562)" fill="#fff" fill-rule="evenodd"/>
      <path id="Path_47010" data-name="Path 47010" d="M1803.9,1398.523l-.675-.106a.473.473,0,0,1,.155-.933l.6.1A.473.473,0,0,1,1803.9,1398.523Z" transform="translate(-1785.438 -1385.413)" fill="#fff" fill-rule="evenodd"/>
      <path id="Path_47011" data-name="Path 47011" d="M1618.36,1161.476a.474.474,0,0,1-.457-.6l.288-1.075a.473.473,0,0,1,.914.245l-.288,1.074A.473.473,0,0,1,1618.36,1161.476Z" transform="translate(-1602.926 -1150.526)" fill="#fff" fill-rule="evenodd"/>
      <path id="Path_47012" data-name="Path 47012" d="M1167.055,1603.009l-1.3-.152a.473.473,0,0,1,.113-.939l1.244.149a.473.473,0,0,1-.056.943Z" transform="translate(-1156.333 -1587.162)" fill="#fff" fill-rule="evenodd"/>
      <path id="Path_47013" data-name="Path 47013" d="M1193.957,757.58a.472.472,0,0,1-.358-.163l-.647-.746a.473.473,0,0,1,.715-.619l.647.746A.474.474,0,0,1,1193.957,757.58Z" transform="translate(-1183.459 -752.256)" fill="#fff" fill-rule="evenodd"/>
      <path id="Path_47014" data-name="Path 47014" d="M1511.525,750.013a.472.472,0,0,1-.4-.222l-.5-.8a.473.473,0,0,1,.8-.5l.5.8A.474.474,0,0,1,1511.525,750.013Z" transform="translate(-1496.998 -744.741)" fill="#fff" fill-rule="evenodd"/>
      <path id="Path_47015" data-name="Path 47015" d="M1070.561,1828.168l-1.3-.153a.473.473,0,0,1,.113-.939l1.244.149A.473.473,0,0,1,1070.561,1828.168Z" transform="translate(-1061.107 -1809.36)" fill="#fff" fill-rule="evenodd"/>
      <path id="Path_47016" data-name="Path 47016" d="M1757.615,1046.613a.476.476,0,0,1-.472-.508l.1-1.343a.473.473,0,0,1,.943.07l-.1,1.344A.473.473,0,0,1,1757.615,1046.613Z" transform="translate(-1740.349 -1036.91)" fill="#fff" fill-rule="evenodd"/>
      <path id="Path_47017" data-name="Path 47017" d="M1349.9,935.03l-.675-.106a.473.473,0,0,1,.155-.933l.6.1A.473.473,0,0,1,1349.9,935.03Z" transform="translate(-1337.41 -928.014)" fill="#fff" fill-rule="evenodd"/>
      <path id="Path_47018" data-name="Path 47018" d="M1025.753,891.739a.474.474,0,0,1-.457-.6l.288-1.074a.473.473,0,0,1,.914.245l-.288,1.074A.473.473,0,0,1,1025.753,891.739Z" transform="translate(-1018.11 -884.336)" fill="#fff" fill-rule="evenodd"/>
      <path id="Path_47019" data-name="Path 47019" d="M774.838,1091.33c-.339-.339-.859-.7-.513-1.045s.706.174,1.045.513a1.715,1.715,0,0,1,.546-.227c0-.479-.112-1.1.376-1.1s.376.622.376,1.1a1.714,1.714,0,0,1,.546.227c.339-.339.7-.859,1.045-.513s-.174.706-.513,1.045a1.711,1.711,0,0,1,.227.546c.479,0,1.1-.112,1.1.376s-.622.377-1.1.377a1.713,1.713,0,0,1-.227.546c.339.339.859.7.513,1.046a.376.376,0,0,1-.532,0l-.513-.513a1.713,1.713,0,0,1-.546.227c0,.479.112,1.1-.376,1.1s-.376-.622-.376-1.1a1.712,1.712,0,0,1-.546-.227c-.259.259-.534.624-.779.624a.377.377,0,0,1-.266-.643l.513-.513a1.712,1.712,0,0,1-.227-.546c-.479,0-1.1.112-1.1-.376s.622-.376,1.1-.376a1.711,1.711,0,0,1,.227-.546Z" transform="translate(-769.651 -1081.456)" fill="#fff" fill-rule="evenodd"/>
      <path id="Path_47020" data-name="Path 47020" d="M1314.047,1307.836l-.644-.644a.473.473,0,0,1,.669-.669l.644.644a2.154,2.154,0,0,1,.686-.285v-.91a.473.473,0,0,1,.946,0v.91a2.15,2.15,0,0,1,.686.285l.644-.644a.473.473,0,0,1,.669.669l-.644.644a2.151,2.151,0,0,1,.285.686h.91a.473.473,0,0,1,0,.946h-.91a2.148,2.148,0,0,1-.285.686l.644.644a.473.473,0,0,1-.669.669l-.644-.644a2.157,2.157,0,0,1-.686.285v.91a.473.473,0,0,1-.946,0v-.91a2.157,2.157,0,0,1-.686-.285l-.644.644a.473.473,0,0,1-.669-.669l.644-.644a2.155,2.155,0,0,1-.285-.686h-.91a.473.473,0,0,1,0-.946h.91A2.155,2.155,0,0,1,1314.047,1307.836Z" transform="translate(-1301.44 -1294.651)" fill="#fff" fill-rule="evenodd"/>
    </g>
  </g>
</svg>
