<svg xmlns="http://www.w3.org/2000/svg" width="31.084" height="25.48" viewBox="0 0 31.084 25.48">
  <g id="Layer_x0020_1" transform="translate(0 -0.462)">
    <g id="_534970128" transform="translate(0 0.462)">
      <g id="Group_47986" data-name="Group 47986">
        <g id="Group_47966" data-name="Group 47966" transform="translate(20.292 4.521)">
          <path id="_534971568" d="M7.446,3.437a.324.324,0,0,1-.317-.258c-.113-.54-.79-1.044-1.178-1.276L3.828,3.128A.324.324,0,0,1,3.5,2.567L5.787,1.25a.324.324,0,0,1,.31-.007c.059.03,1.448.758,1.666,1.8a.324.324,0,0,1-.251.383.32.32,0,0,1-.066.007Z" transform="translate(-3.342 -1.206)" fill="#67657c" fill-rule="evenodd"/>
        </g>
        <g id="Group_47967" data-name="Group 47967" transform="translate(22.559 2.399)">
          <path id="_534971328" d="M4.054,3.626a.324.324,0,0,1-.32-.28C3.486,1.538,5.86.894,5.961.867a.324.324,0,0,1,.165.626C6.1,1.5,4.206,2.02,4.376,3.259a.324.324,0,0,1-.277.365.333.333,0,0,1-.044,0Z" transform="translate(-3.716 -0.857)" fill="#67657c" fill-rule="evenodd"/>
        </g>
        <g id="Group_47968" data-name="Group 47968" transform="translate(20.106 6.45)">
          <path id="_534971184" d="M7.643,5.12H3.636a.324.324,0,1,1,0-.648H7.6A2.338,2.338,0,0,0,9.438,1.888a.324.324,0,1,1,.643-.082,3.024,3.024,0,0,1-2.364,3.3.33.33,0,0,1-.074.008Z" transform="translate(-3.312 -1.524)" fill="#67657c" fill-rule="evenodd"/>
        </g>
        <g id="Group_47969" data-name="Group 47969" transform="translate(24.113 9.398)">
          <path id="_534971208" d="M6.413,5.606l-.041,0a.324.324,0,0,1-.281-.361A2.352,2.352,0,0,0,4.222,2.649a.324.324,0,0,1,.148-.631,3.024,3.024,0,0,1,2.364,3.3.324.324,0,0,1-.321.283Z" transform="translate(-3.972 -2.01)" fill="#67657c" fill-rule="evenodd"/>
        </g>
        <g id="Group_47970" data-name="Group 47970" transform="translate(20.272 12.753)">
          <path id="_534971448" d="M5.946,4.792a.323.323,0,0,1-.162-.043L3.5,3.431a.324.324,0,0,1,.324-.561L5.948,4.1c.388-.233,1.066-.738,1.178-1.276a.324.324,0,1,1,.634.132C7.542,4,6.153,4.726,6.094,4.756a.325.325,0,0,1-.149.036Z" transform="translate(-3.339 -2.562)" fill="#67657c" fill-rule="evenodd"/>
        </g>
        <g id="Group_47971" data-name="Group 47971" transform="translate(22.54 14.336)">
          <path id="_534970656" d="M6.041,5.592a.323.323,0,0,1-.082-.011c-.1-.026-2.476-.671-2.227-2.479a.324.324,0,1,1,.642.088C4.2,4.431,6.1,4.95,6.123,4.955a.324.324,0,0,1-.082.637Z" transform="translate(-3.713 -2.823)" fill="#67657c" fill-rule="evenodd"/>
        </g>
        <g id="Group_47972" data-name="Group 47972" transform="translate(19.988 0.025)">
          <path id="_534970440" d="M7.541,19.856a7.111,7.111,0,0,1-1.36-.137.318.318,0,0,1-.059-.018,4.9,4.9,0,0,1-2.545-2.628,5.827,5.827,0,0,1,.563-4.729l.008-.016a1.392,1.392,0,0,0-.6-1.9.324.324,0,0,1,0-.537,1.392,1.392,0,0,0,.6-1.9L4.141,7.98c-1.581-3.155-.659-5.13.394-6.232A3.536,3.536,0,0,1,7.433.466c.119,0,.244,0,.381.009a6.021,6.021,0,0,1,5.039,3.316A13.068,13.068,0,0,1,14.385,10.5a12.494,12.494,0,0,1-1.756,6.4,5.9,5.9,0,0,1-5.088,2.954Zm-1.2-.766a6.439,6.439,0,0,0,1.2.118,5.328,5.328,0,0,0,4.543-2.657,11.845,11.845,0,0,0,1.653-6.067,12.593,12.593,0,0,0-1.446-6.37A5.468,5.468,0,0,0,7.785,1.121c-.127-.006-.243-.008-.353-.008A2.9,2.9,0,0,0,5,2.2c-.909.951-1.7,2.677-.282,5.5l.006.014a1.992,1.992,0,0,1-.469,2.457,1.99,1.99,0,0,1,.469,2.457l-.006.013a5.225,5.225,0,0,0-.54,4.205A4.307,4.307,0,0,0,6.34,19.09Z" transform="translate(-3.292 -0.466)" fill="#67657c" fill-rule="evenodd"/>
        </g>
        <g id="Group_47973" data-name="Group 47973" transform="translate(22.929 1.081)">
          <path id="_534970800" d="M5.081,17.921a5.939,5.939,0,0,1-1.037-.095.324.324,0,1,1,.113-.638A4.2,4.2,0,0,0,7.174,16.7c2.257-1.389,3.058-4.865,3.058-7.419,0-2.269-.667-5.478-2.548-7.055a4.125,4.125,0,0,0-3.526-.854A.324.324,0,1,1,4.044.735a4.744,4.744,0,0,1,4.055,1c2.05,1.718,2.78,5.027,2.78,7.551,0,2.852-.884,6.444-3.366,7.971a4.56,4.56,0,0,1-2.432.67Z" transform="translate(-3.777 -0.64)" fill="#67657c" fill-rule="evenodd"/>
        </g>
        <g id="Group_47974" data-name="Group 47974" transform="translate(16.896 9.398)">
          <path id="_534970176" d="M3.143,18.091a.324.324,0,0,1-.324-.324V8.439c0-.223-.007-.5-.015-.8A12.041,12.041,0,0,1,2.984,4.38,3.415,3.415,0,0,1,6.238,2.01h.079a.324.324,0,0,1,0,.648H6.238A2.769,2.769,0,0,0,3.6,4.58a12.084,12.084,0,0,0-.149,3.039c.008.3.015.588.015.82v9.328a.324.324,0,0,1-.324.324Z" transform="translate(-2.783 -2.01)" fill="#67657c" fill-rule="evenodd"/>
        </g>
        <g id="Group_47975" data-name="Group 47975" transform="translate(16.909 5.99)">
          <path id="_534970248" d="M6.306,5.5H6.227A3.415,3.415,0,0,1,2.973,3.133a5.288,5.288,0,0,1-.188-1.347.324.324,0,0,1,.647-.027,4.781,4.781,0,0,0,.157,1.175A2.769,2.769,0,0,0,6.227,4.856h.079a.324.324,0,0,1,0,.648Z" transform="translate(-2.785 -1.448)" fill="#67657c" fill-rule="evenodd"/>
        </g>
        <g id="Group_47976" data-name="Group 47976" transform="translate(6.363 4.521)">
          <path id="_534970896" d="M1.372,3.437a.32.32,0,0,1-.066-.007.324.324,0,0,1-.251-.383C1.273,2,2.662,1.273,2.721,1.242a.324.324,0,0,1,.31.007L5.314,2.568a.324.324,0,0,1-.324.561L2.867,1.9c-.388.233-1.066.738-1.178,1.276a.324.324,0,0,1-.317.258Z" transform="translate(-1.048 -1.206)" fill="#67657c" fill-rule="evenodd"/>
        </g>
        <g id="Group_47977" data-name="Group 47977" transform="translate(5.872 2.399)">
          <path id="_534970224" d="M3.28,3.626l-.044,0a.324.324,0,0,1-.277-.365c.17-1.24-1.731-1.76-1.751-1.765A.324.324,0,0,1,1.373.867c.1.027,2.476.671,2.227,2.479a.324.324,0,0,1-.32.28Z" transform="translate(-0.967 -0.857)" fill="#67657c" fill-rule="evenodd"/>
        </g>
        <g id="Group_47978" data-name="Group 47978" transform="translate(4.196 6.449)">
          <path id="_534970320" d="M7.148,5.12H3.141a.326.326,0,0,1-.074-.009A3.024,3.024,0,0,1,.7,1.807a.324.324,0,0,1,.643.081A2.352,2.352,0,0,0,3.18,4.472H7.148a.324.324,0,1,1,0,.648Z" transform="translate(-0.691 -1.524)" fill="#67657c" fill-rule="evenodd"/>
        </g>
        <g id="Group_47979" data-name="Group 47979" transform="translate(4.196 9.398)">
          <path id="_534970080" d="M1.024,5.605A.323.323,0,0,1,.7,5.323a3.024,3.024,0,0,1,2.364-3.3.324.324,0,1,1,.148.631A2.352,2.352,0,0,0,1.346,5.242a.324.324,0,0,1-.282.361l-.04,0Z" transform="translate(-0.691 -2.01)" fill="#67657c" fill-rule="evenodd"/>
        </g>
        <g id="Group_47980" data-name="Group 47980" transform="translate(6.383 12.753)">
          <path id="_534969672" d="M2.873,4.792a.323.323,0,0,1-.149-.036c-.059-.03-1.448-.758-1.666-1.8a.324.324,0,0,1,.634-.132c.113.54.79,1.044,1.178,1.276L4.993,2.87a.324.324,0,1,1,.324.561L3.035,4.749a.323.323,0,0,1-.162.043Z" transform="translate(-1.051 -2.562)" fill="#67657c" fill-rule="evenodd"/>
        </g>
        <g id="Group_47981" data-name="Group 47981" transform="translate(5.891 14.336)">
          <path id="_534969552" d="M1.294,5.592a.324.324,0,0,1-.082-.637c.023-.006,1.921-.526,1.75-1.765A.324.324,0,1,1,3.6,3.1c.248,1.808-2.126,2.453-2.227,2.479A.32.32,0,0,1,1.294,5.592Z" transform="translate(-0.97 -2.823)" fill="#67657c" fill-rule="evenodd"/>
        </g>
        <g id="Group_47982" data-name="Group 47982">
          <path id="_534969408" d="M6.847,19.877h0a5.819,5.819,0,0,1-4.823-2.568A11.67,11.67,0,0,1,.062,11.57,14.159,14.159,0,0,1,1.13,4.6,6.451,6.451,0,0,1,5.768.586a6.7,6.7,0,0,1,1.2-.124A3.684,3.684,0,0,1,9.612,1.533c.993.908,2.4,2.955.635,6.467l-.008.016a1.392,1.392,0,0,0,.6,1.9.324.324,0,0,1,0,.537,1.392,1.392,0,0,0-.6,1.9l.008.016a5.827,5.827,0,0,1,.563,4.729,4.9,4.9,0,0,1-2.545,2.628.318.318,0,0,1-.059.018,7.1,7.1,0,0,1-1.359.137ZM6.972,1.109a6.066,6.066,0,0,0-1.087.113C1.98,1.939.3,7.058.707,11.511c.323,3.56,2.125,7.718,6.14,7.718h0a6.429,6.429,0,0,0,1.2-.118,4.307,4.307,0,0,0,2.159-2.252,5.225,5.225,0,0,0-.54-4.205L9.66,12.64a1.992,1.992,0,0,1,.469-2.457A1.99,1.99,0,0,1,9.66,7.727l.006-.014c1.493-2.976.557-4.744-.491-5.7a3.042,3.042,0,0,0-2.2-.9Z" transform="translate(0 -0.462)" fill="#67657c" fill-rule="evenodd"/>
        </g>
        <g id="Group_47983" data-name="Group 47983" transform="translate(1.051 1.081)">
          <path id="_534969528" d="M5.971,17.921a4.559,4.559,0,0,1-2.432-.67C1.057,15.725.173,12.133.173,9.281c0-2.524.73-5.833,2.78-7.551a4.745,4.745,0,0,1,4.055-1,.324.324,0,1,1-.113.638,4.125,4.125,0,0,0-3.526.854C1.488,3.8.821,7.012.821,9.281c0,2.555.8,6.031,3.058,7.419a4.2,4.2,0,0,0,3.017.489.324.324,0,1,1,.113.638,5.934,5.934,0,0,1-1.037.095Z" transform="translate(-0.173 -0.64)" fill="#67657c" fill-rule="evenodd"/>
        </g>
        <g id="Group_47984" data-name="Group 47984" transform="translate(10.329 9.398)">
          <path id="_534970056" d="M5.2,18.091a.324.324,0,0,1-.324-.324V8.439c0-.232.007-.517.015-.82A12.081,12.081,0,0,0,4.742,4.58,2.769,2.769,0,0,0,2.1,2.657H2.025a.324.324,0,1,1,0-.648H2.1A3.415,3.415,0,0,1,5.358,4.38a12.046,12.046,0,0,1,.181,3.256c-.008.3-.015.58-.015.8v9.328a.324.324,0,0,1-.324.324Z" transform="translate(-1.701 -2.01)" fill="#67657c" fill-rule="evenodd"/>
        </g>
        <g id="Group_47985" data-name="Group 47985" transform="translate(10.329 5.99)">
          <path id="_534969600" d="M2.1,5.5H2.025a.324.324,0,1,1,0-.648H2.1A2.769,2.769,0,0,0,4.742,2.933,4.783,4.783,0,0,0,4.9,1.759a.324.324,0,0,1,.647.027,5.288,5.288,0,0,1-.188,1.347A3.415,3.415,0,0,1,2.1,5.5Z" transform="translate(-1.701 -1.448)" fill="#67657c" fill-rule="evenodd"/>
        </g>
      </g>
    </g>
    <path id="Path_47021" data-name="Path 47021" d="M4.028,6.373a.324.324,0,0,1,.281.361A2.352,2.352,0,0,0,6.143,9.319H9.289a1.979,1.979,0,0,1-.171-2.133l.006-.014a8.8,8.8,0,0,0,.409-.942L7.641,5.138c-.388.233-1.066.738-1.178,1.276a.324.324,0,0,1-.317.258.32.32,0,0,1-.066-.007.324.324,0,0,1-.251-.383,3.144,3.144,0,0,1,1.5-1.713c0-1.13-1.743-1.607-1.761-1.612a.324.324,0,0,1,.165-.626c.1.025,2.28.618,2.245,2.257L9.731,5.6a3.91,3.91,0,0,0-1.1-4.126,3.042,3.042,0,0,0-2.2-.9A6.066,6.066,0,0,0,5.344.682C1.438,1.4-.239,6.517.166,10.97c.323,3.56,2.125,7.718,6.14,7.718h0a6.429,6.429,0,0,0,1.2-.118,4.307,4.307,0,0,0,2.159-2.252,4.281,4.281,0,0,0,.082-2.567L8,14.758c.034,1.639-2.148,2.231-2.245,2.257a.32.32,0,0,1-.082.011.324.324,0,0,1-.082-.637c.022-.006,1.764-.483,1.761-1.612a3.144,3.144,0,0,1-1.5-1.713.324.324,0,0,1,.634-.132c.113.54.79,1.044,1.178,1.276l1.895-1.094a8.74,8.74,0,0,0-.43-1L9.119,12.1A1.982,1.982,0,0,1,9.29,9.966H6.143a2.352,2.352,0,0,0-1.834,2.585.324.324,0,0,1-.282.361l-.04,0a.323.323,0,0,1-.321-.282A3.1,3.1,0,0,1,5.172,9.642,3.1,3.1,0,0,1,3.666,6.653a.324.324,0,0,1,.362-.28Zm3.579-4.9a.324.324,0,0,1-.375.262,4.125,4.125,0,0,0-3.526.854C1.825,4.165,1.157,7.374,1.157,9.642c0,2.555.8,6.031,3.058,7.419a4.2,4.2,0,0,0,3.017.489.324.324,0,1,1,.113.638,5.935,5.935,0,0,1-1.037.095,4.559,4.559,0,0,1-2.432-.67C1.394,16.086.51,12.495.51,9.642c0-2.524.73-5.833,2.78-7.551a4.745,4.745,0,0,1,4.055-1,.324.324,0,0,1,.262.375Z" transform="translate(0.541 0.541)" fill="#ffe57f" fill-rule="evenodd"/>
    <path id="Path_47022" data-name="Path 47022" d="M5.969,4.548a3.144,3.144,0,0,1,1.5,1.713.324.324,0,0,1-.251.383.32.32,0,0,1-.066.007.324.324,0,0,1-.317-.258c-.113-.54-.79-1.044-1.178-1.276L3.769,6.209a8.724,8.724,0,0,0,.408.942l.006.014A1.982,1.982,0,0,1,4.013,9.3H7.159A2.338,2.338,0,0,0,8.993,6.714a.324.324,0,1,1,.643-.082A3.1,3.1,0,0,1,8.13,9.622a3.1,3.1,0,0,1,1.505,2.989.324.324,0,0,1-.321.283l-.041,0a.324.324,0,0,1-.281-.361A2.352,2.352,0,0,0,7.159,9.945H4.013a1.979,1.979,0,0,1,.171,2.133l-.006.013a8.737,8.737,0,0,0-.43,1l1.894,1.094c.388-.233,1.066-.738,1.178-1.276a.324.324,0,1,1,.634.132,3.144,3.144,0,0,1-1.5,1.713c0,1.13,1.743,1.607,1.761,1.612a.324.324,0,1,1-.165.626c-.1-.025-2.28-.618-2.245-2.257L3.556,13.73A4.281,4.281,0,0,0,3.637,16.3,4.307,4.307,0,0,0,5.8,18.549a6.44,6.44,0,0,0,1.2.118A5.328,5.328,0,0,0,11.54,16.01a11.845,11.845,0,0,0,1.653-6.067,12.593,12.593,0,0,0-1.446-6.37A5.468,5.468,0,0,0,7.241.581C7.114.575,7,.572,6.889.572a2.9,2.9,0,0,0-2.43,1.082,3.936,3.936,0,0,0-.886,3.92L5.32,4.566C5.286,2.927,7.468,2.335,7.565,2.309a.324.324,0,0,1,.165.626c-.022.006-1.764.483-1.761,1.612Zm.1,12.982a4.2,4.2,0,0,0,3.017-.489c2.257-1.389,3.058-4.865,3.058-7.419,0-2.269-.667-5.478-2.548-7.055A4.125,4.125,0,0,0,6.07,1.713a.324.324,0,1,1-.113-.638,4.744,4.744,0,0,1,4.055,1c2.05,1.718,2.78,5.027,2.78,7.551,0,2.852-.884,6.444-3.366,7.971a4.56,4.56,0,0,1-2.432.67,5.939,5.939,0,0,1-1.037-.095.324.324,0,1,1,.113-.638Z" transform="translate(17.239 0.562)" fill="#dbbcee" fill-rule="evenodd"/>
  </g>
</svg>
