<svg xmlns="http://www.w3.org/2000/svg" width="24.375" height="24.426" viewBox="0 0 24.375 24.426">
  <g id="Layer_2" transform="translate(-3.067 -2.524)">
    <g id="Group_48015" data-name="Group 48015" transform="translate(3.067 2.524)">
      <g id="Group_48013" data-name="Group 48013" transform="translate(0.24 0.241)">
        <path id="Path_47061" data-name="Path 47061" d="M16.688,31.468H27.075V23.786c1.267.067,3.15-3.687,3.15-5.974,0-5.45-3.308-10.287-9.144-10.287-5.545,0-10.644,2-11.664,6.758A7.945,7.945,0,0,0,9.781,18.8L8.143,21.942A1.275,1.275,0,0,0,9.322,23.7h.934l-.035,4.168a2.867,2.867,0,0,0,3.588,2.588l2.879-.754Z" transform="translate(-8.046 -7.524)" fill="#ffcebf"/>
        <g id="Group_48012" data-name="Group 48012" transform="translate(0)">
          <path id="Path_47062" data-name="Path 47062" d="M12.718,30.136a2.867,2.867,0,0,1-1.376-2.268l.035-4.168h-.934a1.275,1.275,0,0,1-1.179-1.76L10.9,18.8a7.945,7.945,0,0,1-.364-4.518c.979-4.561,5.711-6.59,10.99-6.748-.147-.006-.3-.01-.445-.01-5.545,0-10.644,2-11.664,6.758A7.945,7.945,0,0,0,9.782,18.8L8.144,21.941A1.275,1.275,0,0,0,9.323,23.7h.934l-.035,4.168a2.866,2.866,0,0,0,3.42,2.626,2.866,2.866,0,0,1-.924-.359Z" transform="translate(-8.047 -7.523)" fill="#ffb09e"/>
        </g>
        <path id="Path_47063" data-name="Path 47063" d="M0,0H3.267V6.333H0Z" transform="matrix(0.907, -0.422, 0.422, 0.907, 11.241, 11.838)" fill="#ca4336"/>
        <path id="Path_47064" data-name="Path 47064" d="M269.172,214h-.72a3.3,3.3,0,0,1-3.3-3.3v-1.782h7.323V210.7A3.3,3.3,0,0,1,269.172,214Z" transform="translate(-252.763 -199.215)" fill="#ca4336"/>
        <path id="Path_47065" data-name="Path 47065" d="M82.978,38.349c-1.918-1.918-4.352-2.554-7.4-2.554a9.3,9.3,0,0,0-7.389,3.535,3.1,3.1,0,0,0,2.3,4.945,2.073,2.073,0,0,0,2.046,2.4H81.3c1.3,0,2.994-.662,3.357-1.912A7.737,7.737,0,0,0,82.978,38.349Z" transform="translate(-64.681 -34.433)" fill="#e15f4f"/>
        <path id="Path_47066" data-name="Path 47066" d="M71.586,44.6a2.087,2.087,0,0,1,.027-.331,3.1,3.1,0,0,1-2.3-4.944,9.275,9.275,0,0,1,6.936-3.523q-.33-.011-.67-.011a9.3,9.3,0,0,0-7.389,3.535,3.1,3.1,0,0,0,2.3,4.945,2.072,2.072,0,0,0,2.046,2.4h1.123A2.073,2.073,0,0,1,71.586,44.6Z" transform="translate(-64.68 -34.432)" fill="#ca4336"/>
      </g>
      <circle id="Ellipse_533" data-name="Ellipse 533" cx="5.206" cy="5.206" r="5.206" transform="translate(13.721 0.264)" fill="#fff"/>
      <path id="Path_47067" data-name="Path 47067" d="M288.966,13.2a5.207,5.207,0,0,1,4.645-5.176,5.26,5.26,0,0,0-.562-.03,5.206,5.206,0,0,0,0,10.413,5.26,5.26,0,0,0,.562-.03A5.207,5.207,0,0,1,288.966,13.2Z" transform="translate(-274.122 -7.734)" fill="#cdcdc6"/>
      <path id="Path_47068" data-name="Path 47068" d="M339.7,55.666h-1.808V53.858H335.51v1.808H333.7v2.378h1.808v1.808h2.378V58.044H339.7Z" transform="translate(-317.771 -51.385)" fill="#68c0e0"/>
      <g id="Group_48014" data-name="Group 48014" transform="translate(0 0)">
        <path id="Path_47069" data-name="Path 47069" d="M271.95,159.514a.241.241,0,0,0-.3.375.952.952,0,0,1,.306.969.241.241,0,1,0,.463.134A1.432,1.432,0,0,0,271.95,159.514Z" transform="translate(-258.621 -151.899)"/>
        <path id="Path_47070" data-name="Path 47070" d="M253.672,57.032a.24.24,0,0,0,.091-.018,1.245,1.245,0,0,0,.742-1.3.241.241,0,1,0-.477.069.762.762,0,0,1-.448.785.241.241,0,0,0,.091.464Z" transform="translate(-241.368 -52.954)"/>
        <path id="Path_47071" data-name="Path 47071" d="M158.009,72.914a.24.24,0,0,0,.164-.065,2.812,2.812,0,0,1,2.374-.7.241.241,0,0,0,.085-.474,3.3,3.3,0,0,0-2.788.821.241.241,0,0,0,.164.417Z" transform="translate(-150.314 -68.298)"/>
        <path id="Path_47072" data-name="Path 47072" d="M138.811,94.568a.241.241,0,1,0-.234-.421,1.281,1.281,0,0,1-1.789-.593.241.241,0,1,0-.439.2,1.792,1.792,0,0,0,1.052.947,1.748,1.748,0,0,0,.549.087A1.784,1.784,0,0,0,138.811,94.568Z" transform="translate(-129.907 -89.033)"/>
        <path id="Path_47073" data-name="Path 47073" d="M95.288,126.931a1.938,1.938,0,0,0-.959.14.241.241,0,0,0,.174.449,1.466,1.466,0,0,1,.72-.112.732.732,0,0,1,.534.319.451.451,0,0,1-.024.512.241.241,0,0,0,.356.324.929.929,0,0,0,.08-1.086A1.216,1.216,0,0,0,95.288,126.931Z" transform="translate(-89.785 -120.923)"/>
        <path id="Path_47074" data-name="Path 47074" d="M167.045,144.919a2.1,2.1,0,0,1-2.186-.087.241.241,0,1,0-.275.4,2.563,2.563,0,0,0,2.7.108.241.241,0,1,0-.242-.417Z" transform="translate(-156.704 -137.934)"/>
        <path id="Path_47075" data-name="Path 47075" d="M213.271,117.741a1.321,1.321,0,0,0-1.071-.451,1.773,1.773,0,0,0-1.037.421.241.241,0,0,0,.307.372,1.29,1.29,0,0,1,.751-.311.852.852,0,0,1,.681.278.61.61,0,0,1,.088.651.241.241,0,1,0,.425.228A1.093,1.093,0,0,0,213.271,117.741Z" transform="translate(-201.053 -111.76)"/>
        <path id="Path_47076" data-name="Path 47076" d="M252.692,95.016a.942.942,0,0,0,1.13-.034.241.241,0,1,0-.307-.371.461.461,0,0,1-.538.016.241.241,0,0,0-.285.389Z" transform="translate(-240.571 -90.122)"/>
        <path id="Path_47077" data-name="Path 47077" d="M209.449,212.087a.444.444,0,0,1-.4-.779.241.241,0,1,0-.29-.385.923.923,0,0,0,.571,1.662.875.875,0,0,0,.254-.037.241.241,0,1,0-.14-.461Z" transform="translate(-198.507 -200.836)"/>
        <path id="Path_47078" data-name="Path 47078" d="M242.8,219.6a.241.241,0,0,0-.054.479.719.719,0,0,1,.571.444.241.241,0,0,0,.451-.171A1.2,1.2,0,0,0,242.8,219.6Z" transform="translate(-230.994 -209.136)"/>
        <path id="Path_47079" data-name="Path 47079" d="M27.441,7.994a5.446,5.446,0,0,0-7.812-4.906,9.449,9.449,0,0,0-3.287-.564A16.653,16.653,0,0,0,8.7,4.148a8.79,8.79,0,0,0-2.736,2.16A7.324,7.324,0,0,0,4.442,9.472a8.212,8.212,0,0,0,.337,4.552L3.19,17.071l-.009.02a1.516,1.516,0,0,0,1.4,2.093h.691l-.033,3.925c0,.006,0,.012,0,.018a3.108,3.108,0,0,0,3.889,2.806l2.577-.675v1.452a.241.241,0,0,0,.241.241H22.336a.241.241,0,0,0,.241-.241V19.245a1.791,1.791,0,0,0,.812-.487,9.573,9.573,0,0,0,2.338-5.707q0-.534-.041-1.057a5.433,5.433,0,0,0,1.755-4Zm-.482,0a4.965,4.965,0,1,1-4.965-4.965A4.971,4.971,0,0,1,26.96,7.994ZM15.6,15.251A3.548,3.548,0,0,0,19,17.793h.375l.488,1.047-2.525,1.176-2.219-4.765H15.6Zm4.117,2.06H19a3.065,3.065,0,0,1-2.892-2.06h3.824a4.87,4.87,0,0,0,2.14-.514,3.557,3.557,0,0,0,.708-.468A3.064,3.064,0,0,1,19.716,17.311Zm.213-2.542H11.162a1.83,1.83,0,0,1-1.81-2.114.818.818,0,0,1,.794-.616h5a.241.241,0,1,0,0-.482h-5a1.3,1.3,0,0,0-1.193.781,3.068,3.068,0,0,1-2.32-1.8,2.774,2.774,0,0,1-.2-.737,1.7,1.7,0,0,0,.843.224,1.569,1.569,0,0,0,.7-.162.241.241,0,0,0-.216-.431,1.178,1.178,0,0,1-1.335-.242A2.76,2.76,0,0,1,7,7.809a8.442,8.442,0,0,1,.837-.931,1.078,1.078,0,0,1,.536.778.241.241,0,0,0,.238.209l.032,0a.241.241,0,0,0,.207-.27,1.551,1.551,0,0,0-.643-1.05,8.924,8.924,0,0,1,1.436-1l.166.372a.241.241,0,1,0,.44-.2l-.178-.4.018-.009a9.181,9.181,0,0,1,1.764-.645l.332.546a.241.241,0,0,0,.412-.25l-.249-.408a9.517,9.517,0,0,1,1.85-.182c.206,0,.407,0,.6.009a.986.986,0,0,0-.14.769.241.241,0,0,0,.234.183.243.243,0,0,0,.058-.007.241.241,0,0,0,.176-.292.525.525,0,0,1,.336-.6.244.244,0,0,0,.046-.02,12.426,12.426,0,0,1,2.114.325,5.44,5.44,0,0,0,1.105,7.617.239.239,0,0,0-.065.115,1.763,1.763,0,0,1-.321.678,1.782,1.782,0,0,1-1.173.663.241.241,0,0,0,.028.48l.029,0a2.218,2.218,0,0,0,1.895-1.666,5.44,5.44,0,0,0,3.78.74,3.468,3.468,0,0,1-2.979,1.4Zm5.317-1.717a9.142,9.142,0,0,1-2.188,5.357,1.083,1.083,0,0,1-.708.377.241.241,0,0,0-.254.241v7.441H12.19V25.082l2.593-.844a.241.241,0,0,0,.157-.164l.437-1.565a.241.241,0,1,0-.464-.129l-.4,1.44-3.224,1.05-2.278.6A2.626,2.626,0,0,1,5.723,23.1l.035-4.159a.241.241,0,0,0-.241-.243H4.583a1.034,1.034,0,0,1-.961-1.418l1.633-3.131a.241.241,0,0,0,.012-.2,7.741,7.741,0,0,1-.354-4.382,7.25,7.25,0,0,1,4.011-5,16.176,16.176,0,0,1,7.418-1.569,9.1,9.1,0,0,1,2.72.4,5.488,5.488,0,0,0-1.092.922A14.3,14.3,0,0,0,14.2,3.886a9.892,9.892,0,0,0-4.321.989A9.276,9.276,0,0,0,6.622,7.514a3.178,3.178,0,0,0-.433,3.215,3.55,3.55,0,0,0,2.663,2.081q0,.064,0,.127a2.316,2.316,0,0,0,2.314,2.314h3.421L17,20.438a.241.241,0,0,0,.32.117l2.961-1.379a.241.241,0,0,0,.117-.32l-.5-1.067a3.547,3.547,0,0,0,3.358-3.538v-.525a2.112,2.112,0,0,0,.238-.495,5.433,5.433,0,0,0,1.732-.856c.012.224.018.449.018.677Z" transform="translate(-3.067 -2.524)"/>
        <path id="Path_47080" data-name="Path 47080" d="M328.943,53.525h1.567v1.567a.241.241,0,0,0,.241.241h2.378a.241.241,0,0,0,.241-.241V53.525h1.567a.241.241,0,0,0,.241-.241V50.907a.241.241,0,0,0-.241-.241h-1.567V49.1a.241.241,0,0,0-.241-.241h-2.378a.241.241,0,0,0-.241.241v1.567h-1.567a.241.241,0,0,0-.241.241v2.378A.241.241,0,0,0,328.943,53.525Zm.241-2.378h1.567a.241.241,0,0,0,.241-.241V49.34h1.9v1.567a.241.241,0,0,0,.241.241H334.7v1.9h-1.567a.241.241,0,0,0-.241.241v1.567h-1.9V53.285a.241.241,0,0,0-.241-.241h-1.567Z" transform="translate(-313.012 -46.626)"/>
      </g>
    </g>
  </g>
</svg>
