<svg xmlns="http://www.w3.org/2000/svg" width="29.983" height="30" viewBox="0 0 29.983 30">
  <g id="Layer_2" transform="translate(-2.525 -2.523)">
    <g id="Group_47991" data-name="Group 47991" transform="translate(2.525 2.523)">
      <g id="Group_47989" data-name="Group 47989" transform="translate(2.317 2.317)">
        <g id="Group_47988" data-name="Group 47988">
          <path id="Path_47023" data-name="Path 47023" d="M220.789,45.564V49.6h2.471v-4.04a2.137,2.137,0,1,0-2.471,0Z" transform="translate(-209.342 -41.684)" fill="#218e79"/>
          <g id="Group_47987" data-name="Group 47987" transform="translate(0 10.546)">
            <path id="Path_47024" data-name="Path 47024" d="M340.516,220.789h-4.04v2.471h4.04a2.137,2.137,0,1,0,0-2.471Z" transform="translate(-319.031 -219.888)" fill="#218e79"/>
            <path id="Path_47025" data-name="Path 47025" d="M45.564,223.26H49.6V220.79h-4.04a2.137,2.137,0,1,0,0,2.471Z" transform="translate(-41.684 -219.888)" fill="#218e79"/>
          </g>
          <path id="Path_47026" data-name="Path 47026" d="M302.745,301l-2.857-2.857-1.747,1.747L301,302.746A2.137,2.137,0,1,0,302.745,301Z" transform="translate(-282.965 -282.966)" fill="#218e79"/>
          <path id="Path_47027" data-name="Path 47027" d="M98.122,302.745l2.857-2.857-1.747-1.747L96.375,301a2.137,2.137,0,1,0,1.747,1.747Z" transform="translate(-90.79 -282.965)" fill="#218e79"/>
        </g>
        <circle id="Ellipse_517" data-name="Ellipse 517" cx="7.446" cy="7.446" r="7.446" transform="translate(5.236 5.236)" fill="#4eb7a2"/>
        <path id="Path_47028" data-name="Path 47028" d="M131.546,137.613A7.447,7.447,0,0,1,138.3,130.2c-.227-.021-.457-.032-.69-.032a7.446,7.446,0,0,0,0,14.893c.233,0,.463-.011.69-.032A7.447,7.447,0,0,1,131.546,137.613Z" transform="translate(-124.931 -124.931)" fill="#218e79"/>
        <circle id="Ellipse_518" data-name="Ellipse 518" cx="4.762" cy="4.762" r="4.762" transform="translate(7.92 7.92)" fill="#e15f4f"/>
        <path id="Path_47029" data-name="Path 47029" d="M176.9,180.286a4.763,4.763,0,0,1,4.073-4.712,4.762,4.762,0,1,0,0,9.424A4.763,4.763,0,0,1,176.9,180.286Z" transform="translate(-167.605 -167.604)" fill="#ca4336"/>
        <circle id="Ellipse_519" data-name="Ellipse 519" cx="1.536" cy="1.536" r="1.536" transform="translate(12.35 9.611)" fill="#ffcebf"/>
        <circle id="Ellipse_520" data-name="Ellipse 520" cx="1.008" cy="1.008" r="1.008" transform="translate(9.674 11.877)" fill="#ffcebf"/>
        <circle id="Ellipse_521" data-name="Ellipse 521" cx="1.097" cy="1.097" r="1.097" transform="translate(12.683 13.893)" fill="#ffcebf"/>
        <path id="Path_47030" data-name="Path 47030" d="M314.762,96.375l-1.991,1.991,1.747,1.747,1.991-1.991a2.137,2.137,0,1,0-1.747-1.747Z" transform="translate(-296.729 -90.79)" fill="#4eb7a2"/>
        <path id="Path_47031" data-name="Path 47031" d="M96.376,98.121l1.982,1.982,1.747-1.747-1.982-1.982a2.137,2.137,0,1,0-1.747,1.747Z" transform="translate(-90.791 -90.789)" fill="#4eb7a2"/>
        <path id="Path_47032" data-name="Path 47032" d="M223.26,357.069v-3H220.79v3a2.137,2.137,0,1,0,2.471,0Z" transform="translate(-209.342 -335.584)" fill="#4eb7a2"/>
      </g>
      <circle id="Ellipse_522" data-name="Ellipse 522" cx="2.776" cy="2.776" r="2.776" transform="translate(0.296 24.153)" fill="#e15f4f"/>
      <path id="Path_47033" data-name="Path 47033" d="M8.9,413.442a2.777,2.777,0,0,1,2.086-2.689,2.776,2.776,0,1,0,0,5.378A2.777,2.777,0,0,1,8.9,413.442Z" transform="translate(-7.227 -386.513)" fill="#ca4336"/>
      <circle id="Ellipse_523" data-name="Ellipse 523" cx="1.517" cy="1.517" r="1.517" transform="translate(1.113 8.224)" fill="#e15f4f"/>
      <path id="Path_47034" data-name="Path 47034" d="M22.683,143.01a1.517,1.517,0,0,1,.842-1.359,1.517,1.517,0,1,0,0,2.718A1.517,1.517,0,0,1,22.683,143.01Z" transform="translate(-20.22 -133.269)" fill="#ca4336"/>
      <circle id="Ellipse_524" data-name="Ellipse 524" cx="1.828" cy="1.828" r="1.828" transform="translate(7.899 0.296)" fill="#e15f4f"/>
      <path id="Path_47035" data-name="Path 47035" d="M137.379,9.351a1.828,1.828,0,0,1,1.138-1.693,1.828,1.828,0,1,0,0,3.386A1.828,1.828,0,0,1,137.379,9.351Z" transform="translate(-128.101 -7.227)" fill="#ca4336"/>
      <circle id="Ellipse_525" data-name="Ellipse 525" cx="2.023" cy="2.023" r="2.023" transform="translate(25.641 19.532)" fill="#e15f4f"/>
      <path id="Path_47036" data-name="Path 47036" d="M437.2,334.61a2.024,2.024,0,0,1,1.333-1.9,2.023,2.023,0,1,0,0,3.8A2.023,2.023,0,0,1,437.2,334.61Z" transform="translate(-410.181 -313.055)" fill="#ca4336"/>
      <circle id="Ellipse_526" data-name="Ellipse 526" cx="1.627" cy="1.627" r="1.627" transform="translate(19.451 26.45)" fill="#e15f4f"/>
      <path id="Path_47037" data-name="Path 47037" d="M332.6,451.122a1.627,1.627,0,0,1,.937-1.474,1.627,1.627,0,1,0,0,2.947A1.627,1.627,0,0,1,332.6,451.122Z" transform="translate(-311.77 -423.045)" fill="#ca4336"/>
      <circle id="Ellipse_527" data-name="Ellipse 527" cx="1.627" cy="1.627" r="1.627" transform="translate(22.967 0.821)" fill="#e15f4f"/>
      <path id="Path_47038" data-name="Path 47038" d="M392.009,18.018a1.627,1.627,0,0,1,.937-1.474,1.627,1.627,0,1,0,0,2.947A1.627,1.627,0,0,1,392.009,18.018Z" transform="translate(-367.663 -15.57)" fill="#ca4336"/>
      <g id="Group_47990" data-name="Group 47990" transform="translate(0 0)">
        <path id="Path_47039" data-name="Path 47039" d="M56.866,54.7l-.756-.756a7.7,7.7,0,0,0,1.142-2.75h1.066a2.433,2.433,0,1,0,0-3.063H57.252a7.7,7.7,0,0,0-1.143-2.749l.757-.757A2.433,2.433,0,1,0,54.7,42.46l-.756.756a7.7,7.7,0,0,0-2.75-1.143V41.008a2.433,2.433,0,1,0-3.063,0v1.066a7.7,7.7,0,0,0-2.75,1.142l-.756-.756a2.433,2.433,0,1,0-2.166,2.166l.757.757a7.7,7.7,0,0,0-1.143,2.75H41.007a2.433,2.433,0,1,0,0,3.063h1.066a7.7,7.7,0,0,0,1.142,2.75l-.756.756a2.433,2.433,0,1,0,2.166,2.166l.756-.756a7.7,7.7,0,0,0,2.75,1.143v1.066a2.433,2.433,0,1,0,3.063,0V57.253a7.7,7.7,0,0,0,2.75-1.143l.756.756A2.433,2.433,0,1,0,56.866,54.7Zm1.6-5.977a.3.3,0,0,0,.241-.125,1.841,1.841,0,1,1,0,2.128.3.3,0,0,0-.241-.125H57.348a7.775,7.775,0,0,0,0-1.879ZM48.6,40.62a1.841,1.841,0,1,1,2.128,0,.3.3,0,0,0-.125.241v1.117a7.775,7.775,0,0,0-1.879,0V40.861A.3.3,0,0,0,48.6,40.62ZM40.86,50.6a.3.3,0,0,0-.241.125,1.841,1.841,0,1,1,0-2.128.3.3,0,0,0,.241.125h1.117a7.771,7.771,0,0,0,0,1.879ZM44.1,56.552a.3.3,0,0,0-.083.259,1.839,1.839,0,1,1-1.5-1.505.3.3,0,0,0,.259-.083l.793-.793A7.81,7.81,0,0,0,44.9,55.759Zm6.8-1.381a.3.3,0,0,0-.3.3v3a.3.3,0,0,0,.125.241,1.841,1.841,0,1,1-2.128,0,.3.3,0,0,0,.125-.241v-3a.3.3,0,0,0-.592,0v1.181A7.145,7.145,0,0,1,43.643,45.81l.694.694a.3.3,0,0,0,.418-.418L42.774,44.1a.3.3,0,0,0-.259-.083,1.841,1.841,0,1,1,1.5-1.5.3.3,0,0,0,.083.259l1.982,1.982a.3.3,0,1,0,.418-.418l-.694-.694a7.129,7.129,0,0,1,7.707,0l-.616.616a.3.3,0,0,0,.418.418l1.9-1.9a.3.3,0,0,0,.083-.259,1.841,1.841,0,1,1,1.5,1.5.3.3,0,0,0-.259.083l-1.9,1.9a.3.3,0,1,0,.418.418l.616-.616a7.145,7.145,0,0,1-4.488,10.838V55.467A.3.3,0,0,0,50.9,55.171Zm7.523,3.251A1.841,1.841,0,0,1,55.3,56.811a.3.3,0,0,0-.083-.259l-.792-.792a7.81,7.81,0,0,0,1.329-1.329l.793.793a.3.3,0,0,0,.259.083,1.841,1.841,0,0,1,1.611,3.116Z" transform="translate(-34.663 -34.663)"/>
        <path id="Path_47040" data-name="Path 47040" d="M247.207,199.094a1.832,1.832,0,1,0,1.832,1.832A1.834,1.834,0,0,0,247.207,199.094Zm0,3.072a1.24,1.24,0,1,1,1.24-1.24A1.241,1.241,0,0,1,247.207,202.166Z" transform="translate(-231.004 -187.462)"/>
        <path id="Path_47041" data-name="Path 47041" d="M201.466,237.384a1.3,1.3,0,1,0,1.3,1.3A1.306,1.306,0,0,0,201.466,237.384Zm0,2.017a.712.712,0,1,1,.712-.712A.713.713,0,0,1,201.466,239.4Z" transform="translate(-188.466 -223.486)"/>
        <path id="Path_47042" data-name="Path 47042" d="M252.393,271.46a1.393,1.393,0,1,0,1.393,1.393A1.395,1.395,0,0,0,252.393,271.46Zm0,2.195a.8.8,0,1,1,.8-.8A.8.8,0,0,1,252.393,273.655Z" transform="translate(-236.296 -255.545)"/>
        <path id="Path_47043" data-name="Path 47043" d="M180.64,175.582a5.058,5.058,0,1,0-5.058,5.058A5.064,5.064,0,0,0,180.64,175.582Zm-5.058,4.466a4.466,4.466,0,1,1,4.466-4.466A4.472,4.472,0,0,1,175.582,180.049Z" transform="translate(-160.582 -160.582)"/>
        <path id="Path_47044" data-name="Path 47044" d="M5.6,405.667a3.072,3.072,0,1,0,3.072,3.072A3.075,3.075,0,0,0,5.6,405.667Zm0,5.551a2.48,2.48,0,1,1,2.48-2.48A2.483,2.483,0,0,1,5.6,411.218Z" transform="translate(-2.525 -381.81)"/>
        <path id="Path_47045" data-name="Path 47045" d="M18.146,140.118a1.813,1.813,0,1,0-1.813-1.813A1.815,1.815,0,0,0,18.146,140.118Zm0-3.035a1.222,1.222,0,1,1-1.222,1.222A1.223,1.223,0,0,1,18.146,137.083Z" transform="translate(-15.516 -128.563)"/>
        <path id="Path_47046" data-name="Path 47046" d="M133.124,6.771A2.124,2.124,0,1,0,131,4.647,2.126,2.126,0,0,0,133.124,6.771Zm0-3.656a1.532,1.532,0,1,1-1.532,1.532A1.534,1.534,0,0,1,133.124,3.115Z" transform="translate(-123.397 -2.523)"/>
        <path id="Path_47047" data-name="Path 47047" d="M433.14,327.587a2.319,2.319,0,1,0,2.319,2.319A2.321,2.321,0,0,0,433.14,327.587Zm0,4.046a1.727,1.727,0,1,1,1.727-1.727A1.729,1.729,0,0,1,433.14,331.633Z" transform="translate(-405.476 -308.351)"/>
        <path id="Path_47048" data-name="Path 47048" d="M328.143,444.494a1.923,1.923,0,1,0,1.923,1.923A1.925,1.925,0,0,0,328.143,444.494Zm0,3.254a1.331,1.331,0,1,1,1.331-1.331A1.333,1.333,0,0,1,328.143,447.748Z" transform="translate(-307.065 -418.339)"/>
        <path id="Path_47049" data-name="Path 47049" d="M387.553,15.236a1.923,1.923,0,1,0-1.923-1.923A1.925,1.925,0,0,0,387.553,15.236Zm0-3.254a1.331,1.331,0,1,1-1.331,1.331A1.333,1.333,0,0,1,387.553,11.983Z" transform="translate(-362.959 -10.866)"/>
      </g>
    </g>
  </g>
</svg>
