<svg id="lock_2098155" xmlns="http://www.w3.org/2000/svg" width="79" height="79" viewBox="0 0 79 79">
  <circle id="Ellipse_508" data-name="Ellipse 508" cx="39.5" cy="39.5" r="39.5" fill="#e9ffc2"/>
  <path id="Path_46288" data-name="Path 46288" d="M78.377,148.441A39.189,39.189,0,1,1,5.156,129a39.2,39.2,0,0,0,68.066,0A39,39,0,0,1,78.377,148.441Z" transform="translate(0 -109.253)" fill="#c8f27d"/>
  <path id="Path_46289" data-name="Path 46289" d="M103.917,130.11v24.1l-2.3,11.922,2.3,11.231v7.51A39.218,39.218,0,0,1,56.79,174V130.11Z" transform="translate(-48.097 -110.193)" fill="#83250d"/>
  <path id="Path_46290" data-name="Path 46290" d="M234.292,130.11v24.1L232,166.219l2.3,11.231v7.424A38.825,38.825,0,0,1,227,187.448a39.493,39.493,0,0,1-16.274.51V130.11Z" transform="translate(-178.471 -110.193)" fill="#531d10"/>
  <path id="Path_46291" data-name="Path 46291" d="M103.92,130.113,96.632,137.4H64.082l-7.288-7.289Z" transform="translate(-48.1 -110.195)" fill="#a63917"/>
  <path id="Path_46292" data-name="Path 46292" d="M104.4,177.73v43.562a39.27,39.27,0,0,0,32.551,6.486V177.73Z" transform="translate(-88.418 -150.523)" fill="#ec781b"/>
  <path id="Path_46293" data-name="Path 46293" d="M317.039,287.611h7.289v23.127h-7.289Z" transform="translate(-268.507 -243.583)" fill="#fefefe"/>
  <path id="Path_46294" data-name="Path 46294" d="M340.842,287.611h3.645v23.127h-3.645Z" transform="translate(-288.666 -243.583)" fill="#d1f6ff"/>
  <path id="Path_46295" data-name="Path 46295" d="M335.181,306.77v9.22a1.25,1.25,0,1,1-2.5,0v-9.22a1.25,1.25,0,0,1,2.5,0Z" transform="translate(-281.753 -258.752)" fill="#d1f6ff"/>
  <path id="Path_46296" data-name="Path 46296" d="M227,137.4H210.725v-7.289h23.562Z" transform="translate(-178.467 -110.195)" fill="#83250d"/>
  <path id="Path_46297" data-name="Path 46297" d="M227,177.73v50.048a39.49,39.49,0,0,1-16.274.51V177.73Z" transform="translate(-178.471 -150.523)" fill="#c55733"/>
  <path id="Path_46298" data-name="Path 46298" d="M336.816,398.021v3.118H335.04v-3.118a.888.888,0,1,1,1.776,0Z" transform="translate(-283.752 -336.34)" fill="#4e689b"/>
  <path id="Path_46299" data-name="Path 46299" d="M341.47,397.394a.886.886,0,0,1,.26.628v3.118h-.888v-4.007A.883.883,0,0,1,341.47,397.394Z" transform="translate(-288.666 -336.341)" fill="#374c81"/>
  <path id="Path_46300" data-name="Path 46300" d="M342.093,306.771v9.22a1.251,1.251,0,0,1-1.251,1.251v-11.72a1.251,1.251,0,0,1,1.251,1.249Z" transform="translate(-288.666 -258.753)" fill="#aed2fd"/>
  <path id="Path_46301" data-name="Path 46301" d="M192.968,237.942a3.918,3.918,0,1,1-3.918-3.919A3.918,3.918,0,0,1,192.968,237.942Z" transform="translate(-156.793 -198.199)" fill="#fefefe"/>
  <path id="Path_46302" data-name="Path 46302" d="M214.643,237.942a3.918,3.918,0,0,1-3.918,3.918v-7.837A3.918,3.918,0,0,1,214.643,237.942Z" transform="translate(-178.467 -198.199)" fill="#d1f6ff"/>
  <path id="Path_46303" data-name="Path 46303" d="M201.689,248.595a1.994,1.994,0,1,1-1.994-1.994A1.995,1.995,0,0,1,201.689,248.595Z" transform="translate(-167.437 -208.851)" fill="#4e689b"/>
  <path id="Path_46304" data-name="Path 46304" d="M212.72,248.595a2,2,0,0,1-1.994,1.994V246.6A1.994,1.994,0,0,1,212.72,248.595Z" transform="translate(-178.468 -208.851)" fill="#374c81"/>
  <circle id="Ellipse_509" data-name="Ellipse 509" cx="0.61" cy="0.61" r="0.61" transform="translate(32.518 38.522)" fill="#fefefe"/>
  <ellipse id="Ellipse_510" data-name="Ellipse 510" cx="11.989" cy="11.99" rx="11.989" ry="11.99" transform="translate(45.705 11.267)" fill="#4e689b"/>
  <path id="Path_46305" data-name="Path 46305" d="M388.876,85.592a11.989,11.989,0,0,1-11.989,11.99V73.6A11.989,11.989,0,0,1,388.876,85.592Z" transform="translate(-319.193 -62.336)" fill="#374c81"/>
  <path id="Path_46306" data-name="Path 46306" d="M356.678,91.923v7.342h-1.665V91.923a.738.738,0,0,0-.737-.737h-4.115a.737.737,0,0,0-.736.737v7.342H347.76V91.923a2.4,2.4,0,0,1,2.4-2.4h4.115A2.4,2.4,0,0,1,356.678,91.923Z" transform="translate(-294.525 -75.818)" fill="#fefefe"/>
  <path id="Path_46307" data-name="Path 46307" d="M360.451,96.528v7.342h-.832V96.528a.738.738,0,0,0-.737-.737h-4.115a.737.737,0,0,0-.736.737v7.342H353.2V96.528a1.569,1.569,0,0,1,1.569-1.569h4.115a1.569,1.569,0,0,1,1.569,1.569Z" transform="translate(-299.13 -80.423)" fill="#d1f6ff"/>
  <path id="Path_46308" data-name="Path 46308" d="M344.613,131.143h-3.788v-2.607a1.546,1.546,0,0,1,1.546-1.546h.7a1.546,1.546,0,0,1,1.546,1.546Z" transform="translate(-288.651 -107.551)" fill="#fed110"/>
  <path id="Path_46309" data-name="Path 46309" d="M391.992,131.143H388.2v-2.607a1.546,1.546,0,0,1,1.546-1.546h.7a1.546,1.546,0,0,1,1.546,1.546Z" transform="translate(-328.778 -107.551)" fill="#ec781b"/>
  <path id="Path_46310" data-name="Path 46310" d="M347.331,135.657v3.465a3.055,3.055,0,0,1-3.055,3.055h-6.93a3.055,3.055,0,0,1-3.055-3.055v-3.465a6.521,6.521,0,0,1,6.521-6.52h.039a6.52,6.52,0,0,1,6.482,6.52Z" transform="translate(-283.117 -109.369)" fill="#ffe853"/>
  <path id="Path_46311" data-name="Path 46311" d="M365.369,135.657v3.465a3.055,3.055,0,0,1-3.055,3.055H358.9a3.309,3.309,0,0,1-3.31-3.31v-3.754a7.023,7.023,0,0,1,3.26-5.977h.039a6.52,6.52,0,0,1,6.482,6.52Z" transform="translate(-301.154 -109.369)" fill="#fed110"/>
  <path id="Path_46312" data-name="Path 46312" d="M383.407,135.657v3.465a3.055,3.055,0,0,1-3.055,3.055h-3.465V129.137a6.52,6.52,0,0,1,6.52,6.52Z" transform="translate(-319.193 -109.369)" fill="#ff9f00"/>
  <path id="Path_46313" data-name="Path 46313" d="M367.9,150.926l.165.95a1.181,1.181,0,0,1,.017.2,1.156,1.156,0,1,1-2.294-.2l.166-.95a1.8,1.8,0,0,1,.855-3.311c.04,0,.079,0,.118,0a1.8,1.8,0,0,1,.973,3.315Z" transform="translate(-309.232 -125.015)" fill="#374c81"/>
  <path id="Path_46314" data-name="Path 46314" d="M347.331,192.968v.214a3.055,3.055,0,0,1-3.055,3.055h-6.93a3.055,3.055,0,0,1-3.055-3.055v-.214Z" transform="translate(-283.117 -163.428)" fill="#fed110"/>
  <path id="Path_46315" data-name="Path 46315" d="M365.369,192.968v.214a3.055,3.055,0,0,1-3.055,3.055h-3.67a3.055,3.055,0,0,1-3.055-3.055v-.214Z" transform="translate(-301.154 -163.428)" fill="#ff9f00"/>
  <path id="Path_46316" data-name="Path 46316" d="M383.407,192.968v.214a3.055,3.055,0,0,1-3.055,3.055h-3.465v-3.27Z" transform="translate(-319.193 -163.428)" fill="#ec781b"/>
  <path id="Path_46317" data-name="Path 46317" d="M377.86,150.925l.165.95a1.181,1.181,0,0,1,.017.2,1.156,1.156,0,0,1-1.155,1.153V147.61a1.8,1.8,0,0,1,.973,3.315Z" transform="translate(-319.193 -125.014)" fill="#234177"/>
</svg>
