<svg xmlns="http://www.w3.org/2000/svg" width="17.431" height="17.431" viewBox="0 0 17.431 17.431">
  <g id="lock-keyhole-svgrepo-com" transform="translate(0.75 0.75)">
    <path id="Path_22462" data-name="Path 22462" d="M2,14.779c0-2.253,0-3.379.7-4.079S4.526,10,6.779,10h6.372c2.253,0,3.379,0,4.079.7s.7,1.826.7,4.079,0,3.379-.7,4.079-1.826.7-4.079.7H6.779c-2.253,0-3.379,0-4.079-.7S2,17.032,2,14.779Z" transform="translate(-2 -3.628)" fill="none" stroke="#4c728f" stroke-width="1.5"/>
    <ellipse id="Ellipse_347" data-name="Ellipse 347" cx="1.262" cy="1.683" rx="1.262" ry="1.683" transform="translate(6.73 9.254)" fill="none" stroke="#4c728f" stroke-width="1.5"/>
    <path id="Path_22463" data-name="Path 22463" d="M6,8.372V6.779a4.779,4.779,0,1,1,9.558,0V8.372" transform="translate(-2.814 -2)" fill="none" stroke="#4c728f" stroke-linecap="round" stroke-width="1.5"/>
  </g>
</svg>
