<svg xmlns="http://www.w3.org/2000/svg" width="200.894" height="72.413" viewBox="0 0 200.894 72.413">
  <g id="logo-kit_Primary_Logo_White" data-name="logo-kit_Primary Logo White" transform="translate(-14.84 -62.91)">
    <circle id="Ellipse_352" data-name="Ellipse 352" cx="3.876" cy="3.876" r="3.876" transform="translate(114.011 81.033)" fill="#fff"/>
    <path id="Path_22492" data-name="Path 22492" d="M14.853,77.99H22.1c3.6,7.418,7.658,15.17,11.922,22.775,4.117-7.725,7.912-15.2,11.9-22.775h7.351v31.515c-2.272,0-4.8-.04-7.3-.04,0-5.654-.053-18.1-.053-18.1s-6.041,12.47-8.941,18.15H31.052c-2.927-5.747-8.968-18.15-8.968-18.15S22,103.678,22,109.479c-2.406,0-4.918.027-7.164.027V77.99Z" transform="translate(0 5.075)" fill="#fff"/>
    <path id="Path_22493" data-name="Path 22493" d="M86.014,87.225V77.99h7.351v31.515H86.014v-2.058s-3.515,3.983-10.706,2.165A12.406,12.406,0,0,1,66.528,96.7a12.89,12.89,0,0,1,9.85-11.2A11.819,11.819,0,0,1,86,87.225Zm-6.442,4.063a6.3,6.3,0,0,0-6.362,6.482A6.4,6.4,0,1,0,79.559,91.3Z" transform="translate(17.384 5.075)" fill="#fff"/>
    <path id="Path_22494" data-name="Path 22494" d="M71.7,98.328H53.017a5.625,5.625,0,0,0,4.932,3.943,6.609,6.609,0,0,0,5.974-2.379h7.2a5.761,5.761,0,0,1-1.3,2.914c-5.466,8.1-18.3,7.431-22.868-1.2A12.06,12.06,0,0,1,49.8,86.7c7.391-6.536,19.54-3.154,21.906,6.482a10.8,10.8,0,0,1,0,5.146ZM53.07,93.222H64.538A6.118,6.118,0,0,0,58.5,89.533a5.777,5.777,0,0,0-5.426,3.675Z" transform="translate(10.326 6.87)" fill="#fff"/>
    <path id="Path_22495" data-name="Path 22495" d="M89.37,83.89h7.351c-.027,1.123,0,20.262,0,23.63H89.37Z" transform="translate(25.082 7.06)" fill="#fff"/>
    <path id="Path_22496" data-name="Path 22496" d="M160.186,107.5c-1.657-4.183-3.154-7.966-4.838-12.2-1.7,4.264-3.274,8.233-4.865,12.229h-5.466c-3.127-7.725-6.188-15.571-9.436-23.63,2.566.013,4.531,0,6.99,0,1.711,4.4,3.381,8.674,5.186,13.312,1.831-4.584,3.555-8.928,5.306-13.312h4.558c1.738,4.344,3.462,8.687,5.306,13.312C164.716,92.6,166.4,88.284,168.1,83.9h7c-.495,1.163-8.5,20.89-9.556,23.6h-5.359Z" transform="translate(40.633 7.064)" fill="#fff"/>
    <path id="Path_22497" data-name="Path 22497" d="M116.625,83.893h7.338c-3.729,7.979-7.378,15.784-11.04,23.63H107.43c-3.635-7.765-7.284-15.571-11.04-23.59h7.351c2.085,4.7,4.2,9.5,6.429,14.582,2.219-5.039,4.33-9.824,6.455-14.635Z" transform="translate(27.444 7.057)" fill="#fff"/>
    <path id="Path_22498" data-name="Path 22498" d="M142.412,98.328H123.727a5.625,5.625,0,0,0,4.932,3.943,6.609,6.609,0,0,0,5.974-2.379h7.2a5.761,5.761,0,0,1-1.3,2.914c-5.466,8.1-18.3,7.431-22.868-1.2a12.06,12.06,0,0,1,2.833-14.9c7.391-6.536,19.54-3.154,21.906,6.482a10.8,10.8,0,0,1,0,5.146Zm-18.645-5.106h11.467a6.118,6.118,0,0,0-6.041-3.689,5.777,5.777,0,0,0-5.426,3.675Z" transform="translate(34.122 6.87)" fill="#fff"/>
    <path id="Path_22499" data-name="Path 22499" d="M92.15,104.08V112.1a1.848,1.848,0,0,1-1.844,1.844h0a1.848,1.848,0,0,1-1.844-1.844V104.08H81.11v8.193a9.2,9.2,0,0,0,9.2,9.2h0a9.2,9.2,0,0,0,9.2-9.2V104.08Z" transform="translate(22.302 13.855)" fill="#fff"/>
    <path id="Path_22500" data-name="Path 22500" d="M88.451,79.724V72.279A1.848,1.848,0,0,1,90.3,70.435h0a1.848,1.848,0,0,1,1.844,1.844v4.878h7.351V72.105a9.2,9.2,0,0,0-9.2-9.2h0a9.2,9.2,0,0,0-9.2,9.2v7.618Z" transform="translate(22.299 0)" fill="#fff"/>
  </g>
</svg>
