<svg xmlns="http://www.w3.org/2000/svg" width="191.842" height="69.164" viewBox="0 0 191.842 69.164">
  <g id="Logo" transform="translate(-14.851 -62.908)">
    <circle id="Ellipse_429" data-name="Ellipse 429" cx="3.705" cy="3.705" r="3.705" transform="translate(109.548 80.211)" fill="#204f74"/>
    <path id="Path_89792" data-name="Path 89792" d="M14.851,77.991h6.918c3.43,7.08,7.319,14.484,11.392,21.754C37.1,92.37,40.721,85.239,44.524,77.991h7.021v30.1c-2.167,0-4.577-.034-6.965-.034,0-5.4-.056-17.288-.056-17.288s-5.772,11.9-8.544,17.339H30.33c-2.793-5.5-8.561-17.342-8.561-17.342s-.076,11.76-.076,17.3c-2.3,0-4.7.027-6.843.027Z" transform="translate(0 4.169)" fill="#2b6050"/>
    <path id="Path_89793" data-name="Path 89793" d="M85.127,86.811v-8.82h7.021v30.1H85.127v-1.959s-3.355,3.8-10.223,2.064a11.837,11.837,0,0,1-8.381-12.333,12.312,12.312,0,0,1,9.414-10.7A11.307,11.307,0,0,1,85.127,86.811Zm-6.147,3.88a6.008,6.008,0,0,0-6.072,6.187,6.11,6.11,0,1,0,6.072-6.187Z" transform="translate(14.285 4.169)" fill="#2b6050"/>
    <path id="Path_89794" data-name="Path 89794" d="M70.535,97.653H52.685a5.385,5.385,0,0,0,4.7,3.771,6.319,6.319,0,0,0,5.7-2.272h6.884a5.533,5.533,0,0,1-1.237,2.781c-5.227,7.739-17.469,7.091-21.845-1.152a11.518,11.518,0,0,1,2.712-14.23c7.058-6.246,18.657-3.012,20.914,6.194a10.435,10.435,0,0,1,.012,4.908Zm-17.8-4.879c1.807,0,9.827,0,10.954.005a5.832,5.832,0,0,0-5.767-3.521A5.521,5.521,0,0,0,52.735,92.775Z" transform="translate(8.475 5.642)" fill="#2b6050"/>
    <path id="Path_89795" data-name="Path 89795" d="M89.365,83.888h7.021c-.028,1.068,0,19.355,0,22.571H89.365C89.376,105.078,89.365,85.686,89.365,83.888Z" transform="translate(20.598 5.799)" fill="#2b6050"/>
    <path id="Path_89796" data-name="Path 89796" d="M159.073,106.447l-4.616-11.654c-1.619,4.071-3.129,7.867-4.646,11.689H144.6c-2.986-7.373-5.908-14.869-9.009-22.572,2.45.019,4.334.011,6.67,0l4.955,12.714c1.745-4.383,3.394-8.524,5.064-12.714h4.346l5.071,12.712c1.712-4.4,3.313-8.525,4.94-12.709h6.686c-.472,1.105-8.119,19.951-9.133,22.538Z" transform="translate(33.375 5.802)" fill="#2b6050"/>
    <path id="Path_89797" data-name="Path 89797" d="M115.71,83.891h7.011l-10.545,22.571h-5.252C103.457,99.05,99.969,91.6,96.387,83.939H103.4l6.143,13.925Z" transform="translate(22.538 5.8)" fill="#2b6050"/>
    <path id="Path_89798" data-name="Path 89798" d="M141.238,97.657H123.391a5.385,5.385,0,0,0,4.7,3.771,6.319,6.319,0,0,0,5.7-2.272h6.882a5.527,5.527,0,0,1-1.237,2.78c-5.227,7.739-17.469,7.091-21.845-1.152a11.516,11.516,0,0,1,2.711-14.23c7.059-6.246,18.657-3.011,20.915,6.194A10.439,10.439,0,0,1,141.238,97.657Zm-17.8-4.881c1.806,0,9.827,0,10.954,0a5.832,5.832,0,0,0-5.767-3.521A5.52,5.52,0,0,0,123.439,92.776Z" transform="translate(28.018 5.642)" fill="#2b6050"/>
    <path id="Path_89799" data-name="Path 89799" d="M91.65,104.079v7.661a1.765,1.765,0,0,1-1.764,1.764h0a1.765,1.765,0,0,1-1.764-1.764v-7.661H81.1v7.827a8.785,8.785,0,0,0,8.785,8.785h0a8.785,8.785,0,0,0,8.785-8.785v-7.827Z" transform="translate(18.313 11.38)" fill="#204f74"/>
    <path id="Path_89800" data-name="Path 89800" d="M88.121,78.963v-7.1A1.765,1.765,0,0,1,89.885,70.1h0A1.765,1.765,0,0,1,91.65,71.86v4.658h7.021V71.693a8.785,8.785,0,0,0-8.785-8.785h0A8.785,8.785,0,0,0,81.1,71.693v7.27Z" transform="translate(18.313 0)" fill="#204f74"/>
  </g>
</svg>
