<svg xmlns="http://www.w3.org/2000/svg" width="87.186" height="108.976" viewBox="0 0 87.186 108.976">
  <g id="medical-report_3630016" transform="translate(0 -5.459)">
    <path id="Path_47867" data-name="Path 47867" d="M77.665,56.2a9.644,9.644,0,0,1,9.521,9.762v78.048a9.644,9.644,0,0,1-9.521,9.762H9.521A9.644,9.644,0,0,1,0,144.013V65.965A9.644,9.644,0,0,1,9.521,56.2Z" transform="translate(0 -39.34)" fill="#a6e7f0"/>
    <path id="Path_47868" data-name="Path 47868" d="M96.8,56.2v3.642a9.116,9.116,0,0,0,8.99,9.218h26.776a9.116,9.116,0,0,0,8.99-9.218V56.2Z" transform="translate(-75.582 -39.34)" fill="#6bd9e7"/>
    <path id="Path_47870" data-name="Path 47870" d="M101.091,86.2a2.987,2.987,0,0,1,2.945,3.02v78.048a2.987,2.987,0,0,1-2.945,3.02H32.946A2.987,2.987,0,0,1,30,167.271V89.223a2.987,2.987,0,0,1,2.945-3.02h68.145Z" transform="translate(-23.426 -62.598)" fill="#f9f7f8"/>
    <path id="Path_47872" data-name="Path 47872" d="M99.19,86.2a9.021,9.021,0,0,0,8.465,6.118h26.776A9.021,9.021,0,0,0,142.9,86.2Z" transform="translate(-77.45 -62.598)" fill="#efedef"/>
    <path id="Path_47873" data-name="Path 47873" d="M148.18,10.471h-2.63A.558.558,0,0,1,145,9.907V8.243a2.751,2.751,0,0,0-2.716-2.784H127.3a2.751,2.751,0,0,0-2.716,2.784V9.907a.558.558,0,0,1-.551.565H121.4a4.666,4.666,0,0,0-4.606,4.723v5.31a4.666,4.666,0,0,0,4.606,4.723H148.18a4.666,4.666,0,0,0,4.606-4.723v-5.31a4.666,4.666,0,0,0-4.606-4.723Z" transform="translate(-91.199)" fill="#f9f7f8"/>
    <g id="Group_48442" data-name="Group 48442" transform="translate(36.737 14.593)">
      <g id="Group_48441" data-name="Group 48441" transform="translate(0 0)">
        <path id="Path_47874" data-name="Path 47874" d="M179.685,49.472H169.26a1.686,1.686,0,0,1,0-3.371h10.425a1.686,1.686,0,0,1,0,3.371Z" transform="translate(-167.616 -46.101)" fill="#efedef"/>
      </g>
    </g>
    <g id="Group_48443" data-name="Group 48443" transform="translate(14.833 34.694)">
      <path id="Path_47877" data-name="Path 47877" d="M78.8,151.255H71.08a3.449,3.449,0,0,1-3.4-3.487v-8.733a3.449,3.449,0,0,1,3.4-3.487H78.8a3.449,3.449,0,0,1,3.4,3.487v8.733A3.449,3.449,0,0,1,78.8,151.255ZM71.08,138.918a.115.115,0,0,0-.113.116v8.733a.115.115,0,0,0,.113.116H78.8a.115.115,0,0,0,.113-.116v-8.733a.115.115,0,0,0-.113-.116Z" transform="translate(-67.679 -135.547)" fill="#e5e1e5"/>
    </g>
    <g id="Group_48444" data-name="Group 48444" transform="translate(14.833 56.881)">
      <path id="Path_47878" data-name="Path 47878" d="M78.8,249.979H71.08a3.449,3.449,0,0,1-3.4-3.487v-8.733a3.448,3.448,0,0,1,3.4-3.487H78.8a3.449,3.449,0,0,1,3.4,3.487v8.733A3.449,3.449,0,0,1,78.8,249.979ZM71.08,237.643a.115.115,0,0,0-.113.116v8.733a.115.115,0,0,0,.113.116H78.8a.115.115,0,0,0,.113-.116v-8.733a.115.115,0,0,0-.113-.116Z" transform="translate(-67.679 -234.272)" fill="#e5e1e5"/>
    </g>
    <g id="Group_48445" data-name="Group 48445" transform="translate(14.833 79.067)">
      <path id="Path_47879" data-name="Path 47879" d="M78.8,348.7H71.08a3.449,3.449,0,0,1-3.4-3.487v-8.733A3.448,3.448,0,0,1,71.08,333H78.8a3.449,3.449,0,0,1,3.4,3.487v8.733A3.449,3.449,0,0,1,78.8,348.7ZM71.08,336.367a.115.115,0,0,0-.113.116v8.733a.115.115,0,0,0,.113.116H78.8a.115.115,0,0,0,.113-.116v-8.733a.115.115,0,0,0-.113-.116Z" transform="translate(-67.679 -332.996)" fill="#e5e1e5"/>
    </g>
    <g id="Group_48446" data-name="Group 48446" transform="translate(32.594 35.527)">
      <path id="Path_47880" data-name="Path 47880" d="M169.482,142.624H150.36a1.686,1.686,0,0,1,0-3.371h19.122a1.686,1.686,0,0,1,0,3.371Z" transform="translate(-148.716 -139.253)" fill="#e5e1e5"/>
    </g>
    <g id="Group_48447" data-name="Group 48447" transform="translate(32.594 46.316)">
      <path id="Path_47881" data-name="Path 47881" d="M169.482,190.633H150.36a1.686,1.686,0,0,1,0-3.371h19.122a1.686,1.686,0,0,1,0,3.371Z" transform="translate(-148.716 -187.262)" fill="#e5e1e5"/>
    </g>
    <g id="Group_48448" data-name="Group 48448" transform="translate(32.594 57.654)">
      <path id="Path_47882" data-name="Path 47882" d="M169.482,241.085H150.36a1.686,1.686,0,0,1,0-3.371h19.122a1.686,1.686,0,0,1,0,3.371Z" transform="translate(-148.716 -237.714)" fill="#e5e1e5"/>
    </g>
    <g id="Group_48449" data-name="Group 48449" transform="translate(32.594 68.444)">
      <path id="Path_47883" data-name="Path 47883" d="M172.112,289.095H150.36a1.686,1.686,0,0,1,0-3.371h21.753a1.686,1.686,0,0,1,0,3.371Z" transform="translate(-148.716 -285.724)" fill="#e5e1e5"/>
    </g>
    <g id="Group_48450" data-name="Group 48450" transform="translate(32.594 79.782)">
      <path id="Path_47884" data-name="Path 47884" d="M180.623,339.546H150.36a1.686,1.686,0,0,1,0-3.371h30.263a1.686,1.686,0,0,1,0,3.371Z" transform="translate(-148.716 -336.175)" fill="#e5e1e5"/>
    </g>
    <g id="Group_48451" data-name="Group 48451" transform="translate(32.594 90.571)">
      <path id="Path_47885" data-name="Path 47885" d="M187.553,387.556H150.36a1.686,1.686,0,0,1,0-3.371h37.193a1.686,1.686,0,0,1,0,3.371Z" transform="translate(-148.716 -384.185)" fill="#e5e1e5"/>
    </g>
  </g>
</svg>
