<svg xmlns="http://www.w3.org/2000/svg" width="77" height="77" viewBox="0 0 77 77">
  <g id="message_10941423" transform="translate(-0.474 -0.474)">
    <circle id="Ellipse_507" data-name="Ellipse 507" cx="38.5" cy="38.5" r="38.5" transform="translate(0.474 0.474)" fill="#e6ae97"/>
    <g id="Group_47912" data-name="Group 47912" transform="translate(13.372 14.113)">
      <path id="Path_46263" data-name="Path 46263" d="M59.005,46.12H48.271l.195-1.568a2.167,2.167,0,0,0,.839-.559,2.057,2.057,0,0,0,.523-1.58l-.389-4.668a3.258,3.258,0,0,0-3.586-2.905l-13.664,1.7a20.6,20.6,0,0,1,2.334-6.735l1.155,1.836a2.907,2.907,0,0,0,1.909,1.289l5.9.875a2.9,2.9,0,0,0,.559.049A2.409,2.409,0,0,0,46.606,31.8a2.915,2.915,0,0,0-2.261-3.416L39.92,27.5l-2.164-3.562c-.012-3.1-3.173-4.972-3.294-5.057a3.868,3.868,0,0,0-4.875.4c-5.227,5.835-6.978,13.883-7.561,18.526l-5.823.729A1.586,1.586,0,0,0,14.817,40.1v3.015a1.582,1.582,0,0,0,1.58,1.568H42.631l-.17,1.447H14.051a3.051,3.051,0,1,0,0,6.1h1.4v6.747a.778.778,0,1,0,1.556,0V52.235H43.117l2.832,4.644a2.9,2.9,0,0,0,2.468,1.386,2.894,2.894,0,0,0,2.419-4.474l-.948-1.556h6.163v6.747a.778.778,0,1,0,1.556,0V52.235h1.4a3.086,3.086,0,0,0,2.164-.9,3.035,3.035,0,0,0,.9-2.164,3.079,3.079,0,0,0-3.063-3.051ZM42.242,50.691H14.051a1.513,1.513,0,0,1-1.07-2.577,1.5,1.5,0,0,1,1.07-.45H42.266l-.207,1.653a2.928,2.928,0,0,0,.182,1.374ZM30.742,20.3a2.39,2.39,0,0,1,2.93-.1c.024.012,2.662,1.592,2.541,3.878a.783.783,0,0,0,.109.438l2.456,4.048a.825.825,0,0,0,.511.365l4.753.948A1.355,1.355,0,0,1,45.1,31.472c-.122.608-.389.814-1.045.814a1.379,1.379,0,0,1-.3-.036l-5.884-.875A1.366,1.366,0,0,1,37,30.767l-1.811-2.845a.785.785,0,0,0-.632-.365.806.806,0,0,0-.644.328A21.239,21.239,0,0,0,30.608,36.7H30.6l-6.966.875c.584-4.486,2.3-11.9,7.111-17.274ZM49.2,56.465a1.346,1.346,0,0,1-1.921-.389L44.2,51.032l-.4-.669a1.332,1.332,0,0,1-.182-.863l.292-2.456.012-.158.353-2.905a.747.747,0,0,0-.182-.608.758.758,0,0,0-.583-.267l-27.133-.024.024-3.039,6.333-.8c.049,0,.1-.012.134-.012l23.17-2.893c.049,0,.109-.012.17-.012a1.731,1.731,0,0,1,1.7,1.532L48.3,42.51a.551.551,0,0,1-.134.413.471.471,0,0,1-.389.182.774.774,0,0,0-.766.681l-.353,2.93-.012.158-.267,2.2a.773.773,0,0,0,.1.5L47.8,51.749l.012.012.1.158.012.024,1.617,2.65a1.508,1.508,0,0,1,.219.778,1.429,1.429,0,0,1-.559,1.094Zm10.868-6.224a1.5,1.5,0,0,1-1.07.45H48.94l-1.021-1.678.158-1.349H58.993A1.515,1.515,0,0,1,60.5,49.172,1.422,1.422,0,0,1,60.063,50.241Z" transform="translate(-11 -10.186)" fill="#2a2f64"/>
      <path id="Path_46264" data-name="Path 46264" d="M53.962,43.947a1.54,1.54,0,0,1-.438,1.07,1.5,1.5,0,0,1-1.07.45H42.4L41.38,43.789l.158-1.349H52.454A1.515,1.515,0,0,1,53.962,43.947Z" transform="translate(-4.449 -4.962)" fill="#ffdc7c"/>
      <path id="Path_46265" data-name="Path 46265" d="M41.8,44.093a2.949,2.949,0,0,0,.182,1.374h-28.2a1.513,1.513,0,0,1-1.07-2.577,1.5,1.5,0,0,1,1.07-.45H41.992Z" transform="translate(-10.726 -4.962)" fill="#ffdc7c"/>
      <path id="Path_46266" data-name="Path 46266" d="M41.968,45.3H13.777a1.518,1.518,0,0,1-1.507-1.52,1.289,1.289,0,0,1,.122-.559,1.507,1.507,0,0,0,1.386.948H41.786a2.8,2.8,0,0,0,.182,1.131Z" transform="translate(-10.726 -4.794)" fill="#eac05c"/>
      <path id="Path_46267" data-name="Path 46267" d="M53.9,43.779a1.54,1.54,0,0,1-.438,1.07,1.5,1.5,0,0,1-1.07.45H42.343l-.693-1.131H52.4a1.5,1.5,0,0,0,1.07-.45,1.319,1.319,0,0,0,.328-.5A1.433,1.433,0,0,1,53.9,43.779Z" transform="translate(-4.391 -4.794)" fill="#eac05c"/>
      <path id="Path_46268" data-name="Path 46268" d="M48.779,52.159a1.315,1.315,0,0,1-.547,1.094,1.346,1.346,0,0,1-1.921-.389l-3.076-5.045-.4-.669a1.332,1.332,0,0,1-.182-.863l.292-2.456.012-.158.353-2.905a.747.747,0,0,0-.182-.608.758.758,0,0,0-.583-.267L15.41,39.869l.024-3.039,6.333-.8c.049,0,.1-.012.134-.012l23.17-2.893c.049,0,.109-.012.17-.012a1.731,1.731,0,0,1,1.7,1.532l.389,4.656a.551.551,0,0,1-.134.413.471.471,0,0,1-.389.182.774.774,0,0,0-.766.681l-.353,2.93-.012.158-.267,2.2a.773.773,0,0,0,.1.5l1.325,2.176.012.012.1.158.012.024,1.617,2.65a1.494,1.494,0,0,1,.207.778Z" transform="translate(-10.049 -6.974)" fill="#f16e61"/>
      <path id="Path_46269" data-name="Path 46269" d="M47.34,39.318a.551.551,0,0,1-.134.413.471.471,0,0,1-.389.182.8.8,0,0,0-.583.267L45.857,35.8a1.731,1.731,0,0,0-1.7-1.532c-.061,0-.122.012-.17.012l-23.17,2.893a.545.545,0,0,1-.134.012l-5.252.656.012-1,6.333-.8c.049,0,.1-.012.134-.012l23.17-2.893c.049,0,.109-.012.17-.012a1.731,1.731,0,0,1,1.7,1.532Z" transform="translate(-10.045 -6.97)" fill="#e15f5a"/>
      <path id="Path_46270" data-name="Path 46270" d="M43.655,50.768a1.315,1.315,0,0,1-.547,1.094,1.282,1.282,0,0,1-.559.219.92.92,0,0,0,.012-.182,1.508,1.508,0,0,0-.219-.778l-1.617-2.65-.012-.024-.1-.158-.012-.012L39.279,46.1a.773.773,0,0,1-.1-.5l.267-2.2.012-.158.353-2.93a.774.774,0,0,1,.766-.681.589.589,0,0,0,.28-.073l-.3,2.553-.012.158-.267,2.2a.773.773,0,0,0,.1.5L41.7,47.146l.012.012.1.158.012.024,1.617,2.65a1.4,1.4,0,0,1,.219.778Z" transform="translate(-4.925 -5.583)" fill="#e15f5a"/>
      <path id="Path_46271" data-name="Path 46271" d="M42.848,31.214c-.122.608-.389.814-1.045.814a1.379,1.379,0,0,1-.3-.036l-5.884-.875a1.366,1.366,0,0,1-.863-.608l-1.811-2.845a.785.785,0,0,0-.632-.365.806.806,0,0,0-.644.328,21.239,21.239,0,0,0-3.307,8.813h-.012l-6.966.875c.608-4.51,2.322-11.925,7.136-17.311a2.39,2.39,0,0,1,2.93-.1c.024.012,2.662,1.592,2.541,3.878a.783.783,0,0,0,.109.438l2.456,4.048a.825.825,0,0,0,.511.365l4.753.948a1.416,1.416,0,0,1,1.033,1.629Z" transform="translate(-8.762 -9.916)" fill="#b6d9e7"/>
      <path id="Path_46272" data-name="Path 46272" d="M41.72,31.207c-.109.511-.316.742-.778.8a1.346,1.346,0,0,0-1.058-1.471l-4.753-.948a.825.825,0,0,1-.511-.365l-2.456-4.048a.809.809,0,0,1-.109-.438c.122-2.285-2.516-3.866-2.541-3.878a2.411,2.411,0,0,0-2.905.073c.243-.3.5-.608.754-.9a2.39,2.39,0,0,1,2.93-.1c.024.012,2.662,1.592,2.541,3.878a.783.783,0,0,0,.109.438L35.4,28.3a.825.825,0,0,0,.511.365l4.753.948a1.355,1.355,0,0,1,1.058,1.592Z" transform="translate(-7.634 -9.91)" fill="#a0c3d8"/>
      <path id="Path_46273" data-name="Path 46273" d="M35.335,11.61A4.765,4.765,0,1,0,40.1,16.375a4.773,4.773,0,0,0-4.765-4.765Zm0,7.987a3.221,3.221,0,1,1,3.221-3.221A3.219,3.219,0,0,1,35.335,19.6Z" transform="translate(-6.78 -11.61)" fill="#2a2f64"/>
      <path id="Path_46274" data-name="Path 46274" d="M38.283,16.1a3.221,3.221,0,1,1-3.221-3.221A3.227,3.227,0,0,1,38.283,16.1Z" transform="translate(-6.506 -11.336)" fill="#ffe4aa"/>
      <path id="Path_46275" data-name="Path 46275" d="M48.6,31.86a4.729,4.729,0,1,0,4.729,4.729A4.724,4.724,0,0,0,48.6,31.86Zm0,7.9a3.185,3.185,0,1,1,3.185-3.185A3.178,3.178,0,0,1,48.6,39.762Z" transform="translate(-3.91 -7.243)" fill="#2a2f64"/>
      <path id="Path_46276" data-name="Path 46276" d="M51.508,36.315a3.179,3.179,0,1,1-3.185-3.185A3.188,3.188,0,0,1,51.508,36.315Z" transform="translate(-3.636 -6.97)" fill="#ffe4aa"/>
    </g>
  </g>
</svg>
