<svg id="notification-bell-new" xmlns="http://www.w3.org/2000/svg" width="14.462" height="17.981" viewBox="0 0 14.462 17.981">
  <path id="vector_Stroke_" data-name="vector (Stroke)" d="M13.585,19.831a.633.633,0,0,1,.6.938,2.592,2.592,0,0,1-.676.808,3.112,3.112,0,0,1-.966.519,3.545,3.545,0,0,1-2.211,0,3.112,3.112,0,0,1-.966-.519,2.591,2.591,0,0,1-.676-.808.633.633,0,0,1,.6-.938c.154.016,1.363.139,2.151.139S13.43,19.847,13.585,19.831Z" transform="translate(-4.302 -4.292)" fill="#94afa7" fill-rule="evenodd"/>
  <path id="Subtract" d="M13.286,1.866a6.7,6.7,0,0,0-5.8.084A5.328,5.328,0,0,0,4.538,6.72V7.785A5.7,5.7,0,0,1,3.852,10.5l-.182.337a3.477,3.477,0,0,0,2.425,5.073,23.561,23.561,0,0,0,8.568,0l.129-.024a3.566,3.566,0,0,0,2.585-5.006l-.213-.46a5.845,5.845,0,0,1-.542-2.458V7.689a2.522,2.522,0,0,1-1.322.373,2.666,2.666,0,0,1-2.611-2.718,2.7,2.7,0,0,1,1.974-2.636,5.457,5.457,0,0,0-1.211-.767Z" transform="translate(-3.248 -1.248)" fill="#94afa7" fill-rule="evenodd" opacity="0.3"/>
  <ellipse id="vector" cx="2.009" cy="2.09" rx="2.009" ry="2.09" transform="translate(10.043 2.007)" fill="#94afa7"/>
</svg>
