<svg xmlns="http://www.w3.org/2000/svg" width="54.107" height="63.123" viewBox="0 0 54.107 63.123">
  <g id="pdf-file-svgrepo-com" transform="translate(-36.565)">
    <path id="Path_42734" data-name="Path 42734" d="M100.514,14.528v48.6H47.791V0h38.2l6.766,6.766Z" transform="translate(-9.842 -0.002)" fill="#fffefe"/>
    <rect id="Rectangle_20889" data-name="Rectangle 20889" width="25.286" height="11.314" transform="translate(36.565 4.228)" fill="#b43331"/>
    <g id="Group_46233" data-name="Group 46233" transform="translate(40.644 6.562)">
      <g id="Group_46231" data-name="Group 46231">
        <path id="Path_42735" data-name="Path 42735" d="M74.643,54.6a2.094,2.094,0,0,0-1.208-1.2,2.646,2.646,0,0,0-1-.177H69.652V60.4h1.4v-2.7h1.376a2.646,2.646,0,0,0,1-.177,2.146,2.146,0,0,0,.744-.483,2.07,2.07,0,0,0,.465-.716,2.419,2.419,0,0,0,0-1.719Zm-1.515,1.571a1.074,1.074,0,0,1-.762.27h-1.31v-1.97h1.31a1.04,1.04,0,0,1,.762.279,1.073,1.073,0,0,1,0,1.422Z" transform="translate(-69.652 -53.223)" fill="#fffefe"/>
        <path id="Path_42736" data-name="Path 42736" d="M127.615,56c-.009-.251-.018-.474-.046-.678a2.655,2.655,0,0,0-.139-.567,2.027,2.027,0,0,0-.26-.483,2.364,2.364,0,0,0-.9-.8A2.919,2.919,0,0,0,125,53.222H122.42V60.4H125a2.919,2.919,0,0,0,1.264-.251,2.365,2.365,0,0,0,.9-.8,2.024,2.024,0,0,0,.26-.483,2.661,2.661,0,0,0,.139-.567c.028-.2.037-.428.046-.678s.009-.511.009-.809S127.624,56.242,127.615,56Zm-1.4,1.534a4.011,4.011,0,0,1-.037.53,1.6,1.6,0,0,1-.084.362,1.029,1.029,0,0,1-.158.279,1.249,1.249,0,0,1-1.05.437h-1.069V54.467h1.069a1.254,1.254,0,0,1,1.05.446.975.975,0,0,1,.158.27,1.69,1.69,0,0,1,.084.372,3.859,3.859,0,0,1,.037.52c.009.2.009.455.009.734S126.221,57.33,126.212,57.534Z" transform="translate(-115.914 -53.222)" fill="#fffefe"/>
        <path id="Path_42737" data-name="Path 42737" d="M179.54,54.467V53.222H174.81V60.4h1.4V57.488h2.835V56.233h-2.835V54.467Z" transform="translate(-161.845 -53.222)" fill="#fffefe"/>
      </g>
      <g id="Group_46232" data-name="Group 46232" transform="translate(0 0)">
        <path id="Path_42738" data-name="Path 42738" d="M74.643,54.6a2.094,2.094,0,0,0-1.208-1.2,2.646,2.646,0,0,0-1-.177H69.652V60.4h1.4v-2.7h1.376a2.646,2.646,0,0,0,1-.177,2.146,2.146,0,0,0,.744-.483,2.07,2.07,0,0,0,.465-.716,2.419,2.419,0,0,0,0-1.719Zm-1.515,1.571a1.074,1.074,0,0,1-.762.27h-1.31v-1.97h1.31a1.04,1.04,0,0,1,.762.279,1.073,1.073,0,0,1,0,1.422Z" transform="translate(-69.652 -53.223)" fill="#fffefe"/>
      </g>
    </g>
    <path id="Path_42739" data-name="Path 42739" d="M100.514,62.641v48.6H47.791V99.844L72.438,75.2,73.9,73.738l.809-.809,1.348-1.348,1.6-1.6,15.1-15.1Z" transform="translate(-9.842 -48.115)" fill="#040000" opacity="0.08"/>
    <path id="Path_42740" data-name="Path 42740" d="M372.127,14.528H357.6V0Z" transform="translate(-281.456)" fill="#bbbbba"/>
    <g id="Group_46234" data-name="Group 46234" transform="translate(43.859 18.281)">
      <path id="Path_42741" data-name="Path 42741" d="M135.011,175.7a6.073,6.073,0,0,0-1.245-1.515,8.984,8.984,0,0,0-1.5-1.087c-2.286-1.348-5.548-2-9.981-2h-.446c-.242-.223-.493-.446-.753-.678a19.929,19.929,0,0,1-4.061-4.991c2.044-4.507,3.02-8.522,2.9-11.942a6.4,6.4,0,0,0-.251-1.617,5.235,5.235,0,0,0-1.115-2.11l-.019-.019a4.252,4.252,0,0,0-3.151-1.459,3.949,3.949,0,0,0-3.058,1.45,5.761,5.761,0,0,0-1.217,3.7,31.728,31.728,0,0,0,.548,6.45c.037.158.065.316.1.474a24.275,24.275,0,0,0,1.71,5.13c-.874,1.775-1.757,3.309-2.37,4.349-.465.79-.976,1.617-1.506,2.444a36.441,36.441,0,0,0-6.18,1.6,15.882,15.882,0,0,0-5.678,3.308A6.525,6.525,0,0,0,95.95,179.9a4.091,4.091,0,0,0,.056,2.825,4.011,4.011,0,0,0,1.691,1.952,4.3,4.3,0,0,0,.586.288,5.1,5.1,0,0,0,1.924.372,6.959,6.959,0,0,0,4.554-1.9,47.647,47.647,0,0,0,6.729-8.253c1.273-.2,2.658-.362,4.219-.53,1.84-.186,3.467-.3,4.944-.353q.683.613,1.311,1.171a52.428,52.428,0,0,0,5.688,4.619c0,.009.009.009.019.009a13.879,13.879,0,0,0,1.84,1.041,4.864,4.864,0,0,0,2.072.483,4.177,4.177,0,0,0,2.426-.762,3.851,3.851,0,0,0,1.45-2.072A4.13,4.13,0,0,0,135.011,175.7ZM114.463,157.08a28.389,28.389,0,0,1-.167-3.615c.018-1.2.455-2.007,1.1-2.007.483,0,.994.437,1.227,1.273a3.873,3.873,0,0,1,.121.864c.018.39.009.8-.009,1.217a18.364,18.364,0,0,1-.613,3.783,26.106,26.106,0,0,1-.836,2.7A22.748,22.748,0,0,1,114.463,157.08Zm-15.5,24.461c-.158-.39.018-1.143.985-2.073,1.478-1.413,3.792-2.528,7.017-3.374-.614.836-1.217,1.6-1.8,2.3a24.975,24.975,0,0,1-2.519,2.677,4,4,0,0,1-2.072,1.059,2.371,2.371,0,0,1-.362.028A1.283,1.283,0,0,1,98.961,181.541Zm14.851-9.879.065-.1-.1.019a.59.59,0,0,1,.074-.13c.39-.66.883-1.506,1.413-2.481l.046.1.121-.251c.39.558.818,1.106,1.264,1.636.214.251.437.493.66.734l-.149.009.13.121c-.381.028-.781.065-1.18.1-.251.028-.511.046-.771.074C114.844,171.55,114.314,171.606,113.812,171.662Zm15.641,5.8a34.279,34.279,0,0,1-3.866-3.03,12.792,12.792,0,0,1,5.074,1.4,4.8,4.8,0,0,1,1.2.929c.446.474.6.9.52,1.19a.773.773,0,0,1-.8.483,1.659,1.659,0,0,1-.725-.177,12.064,12.064,0,0,1-1.348-.762C129.491,177.5,129.472,177.48,129.454,177.461Z" transform="translate(-95.726 -148.279)" fill="#b43331"/>
    </g>
  </g>
</svg>
