<svg xmlns="http://www.w3.org/2000/svg" xmlns:xlink="http://www.w3.org/1999/xlink" width="95.83" height="45.704" viewBox="0 0 95.83 45.704">
  <defs>
    <linearGradient id="linear-gradient" x1="0.5" x2="0.5" y2="1" gradientUnits="objectBoundingBox">
      <stop offset="0" stop-color="#438d76"/>
      <stop offset="1" stop-color="#2b6050"/>
    </linearGradient>
  </defs>
  <path id="person-3-fill-svgrepo-com" d="M47.915,36.338c5.465,0,10.167-4.88,10.167-11.235,0-6.279-4.728-10.93-10.167-10.93S37.747,18.926,37.747,25.154C37.747,31.458,42.45,36.338,47.915,36.338Zm-29.257.585c4.728,0,8.846-4.27,8.846-9.786,0-5.465-4.143-9.507-8.846-9.507-4.728,0-8.9,4.143-8.871,9.558C9.786,32.653,13.9,36.923,18.658,36.923Zm58.515,0c4.754,0,8.871-4.27,8.871-9.735,0-5.414-4.143-9.558-8.871-9.558-4.7,0-8.846,4.042-8.846,9.507C68.326,32.653,72.444,36.923,77.172,36.923ZM4.474,59.876H23.792c-2.644-3.838.585-11.566,6.05-15.785a19.674,19.674,0,0,0-11.21-3.279C7.168,40.812,0,49.277,0,56.318,0,58.606,1.271,59.876,4.474,59.876Zm86.882,0c3.229,0,4.474-1.271,4.474-3.559,0-7.041-7.168-15.506-18.632-15.506a19.674,19.674,0,0,0-11.21,3.279c5.465,4.22,8.693,11.947,6.05,15.785Zm-59.43,0H63.878c3.991,0,5.415-1.144,5.415-3.381,0-6.558-8.211-15.607-21.4-15.607-13.167,0-21.377,9.049-21.377,15.607C26.512,58.733,27.936,59.876,31.926,59.876Z" transform="translate(0 -14.173)" fill="url(#linear-gradient)"/>
</svg>
