<svg xmlns="http://www.w3.org/2000/svg" width="16.296" height="15.459" viewBox="0 0 16.296 15.459">
  <path id="phone-svgrepo-com" d="M13.988,11.368l-.442-.444h0Zm.381-.378.442.444h0Zm2.019-.265-.3.551Zm1.6.868-.3.551Zm.45,2.72.442.444Zm-1.187,1.18-.442-.444Zm-1.107.56.058.624h0ZM7.9,12.511l.442-.444Zm-4.021-7.5-.626.036h0ZM9.289,6.22l.442.444h0ZM9.42,4l.5-.376ZM8.367,2.594l-.5.376h0Zm-2.6-.238.442.444h0Zm-1.312,1.3-.442-.444h0Zm6.159,6.151.442-.444Zm3.816,2,.381-.378-.884-.889-.381.378Zm1.659-.537,1.6.868.6-1.1-1.6-.868Zm1.9,2.593-1.187,1.18.884.889,1.187-1.18Zm-1.91,1.56c-1.212.113-4.346.012-7.74-3.362l-.884.889c3.7,3.682,7.228,3.862,8.74,3.721Zm-7.74-3.362C5.107,8.85,4.572,6.145,4.5,4.971l-1.251.071C3.337,6.519,4,9.517,7.459,12.955ZM9.492,6.9l.24-.238-.884-.889-.24.238Zm.43-3.276L8.868,2.219l-1,.751L8.919,4.378Zm-4.6-1.714-1.312,1.3.884.889L6.208,2.8ZM9.05,6.458c-.442-.444-.442-.444-.443-.443h0l0,0L8.6,6.024l-.011.012-.026.03A1.029,1.029,0,0,0,8.5,6.15a1.276,1.276,0,0,0-.136.266,1.754,1.754,0,0,0-.074.895,5.767,5.767,0,0,0,1.886,2.946l.884-.889a4.677,4.677,0,0,1-1.531-2.25.523.523,0,0,1,.008-.261c0-.012.006-.013,0,0l-.014.018-.012.014L9.5,6.893l0,0,0,0h0S9.492,6.9,9.05,6.458Zm1.123,3.8a5.808,5.808,0,0,0,2.96,1.874,1.773,1.773,0,0,0,.895-.073,1.284,1.284,0,0,0,.266-.135,1.022,1.022,0,0,0,.084-.063l.03-.026.012-.011.005-.005,0,0h0s0,0-.441-.446-.441-.445-.441-.446h0l0,0,0,0,.008-.008.014-.012.018-.014c.008-.005.006,0-.006,0a.543.543,0,0,1-.267.008,4.713,4.713,0,0,1-2.266-1.523Zm-1.3-8.038a2.361,2.361,0,0,0-3.544-.306l.884.889a1.108,1.108,0,0,1,1.657.169ZM4.5,4.971A1.149,1.149,0,0,1,4.9,4.105l-.884-.889a2.394,2.394,0,0,0-.76,1.825Zm12.3,10.078a1.2,1.2,0,0,1-.723.38l.116,1.248a2.446,2.446,0,0,0,1.491-.739ZM9.731,6.664a2.317,2.317,0,0,0,.191-3.038l-1,.751a1.064,1.064,0,0,1-.071,1.4Zm7.954,5.48a1.1,1.1,0,0,1,.307,1.725l.884.889a2.347,2.347,0,0,0-.592-3.715Zm-2.875-.709a1.078,1.078,0,0,1,1.278-.159l.6-1.1a2.331,2.331,0,0,0-2.761.371Z" transform="translate(-3.25 -1.25)" fill="#4c728f"/>
</svg>
