<svg id="pregnancy_987556" xmlns="http://www.w3.org/2000/svg" width="34.699" height="34.699" viewBox="0 0 34.699 34.699">
  <circle id="Ellipse_513" data-name="Ellipse 513" cx="16.707" cy="16.707" r="16.707" transform="translate(0.65 0.645)" fill="#ffc843"/>
  <circle id="Ellipse_514" data-name="Ellipse 514" cx="12.877" cy="12.877" r="12.877" transform="translate(4.48 4.475)" fill="#76ffd9"/>
  <path id="Path_46997" data-name="Path 46997" d="M96.363,137.062a5.44,5.44,0,0,1,5.448,5.44c5.44,0,5.726,4.581,5.726,4.581,1.324-.383,2.177-2.036,2.635-3.246a2.071,2.071,0,0,1,1.938-1.334h0a2.076,2.076,0,0,1,2.027,2.519q-.015.069-.031.137a11.334,11.334,0,0,1-3.542,5.891l-.324.288A11.354,11.354,0,0,1,103.7,154.2q-.51.045-1.032.045A11.738,11.738,0,0,1,90.933,142.7,5.512,5.512,0,0,1,96.363,137.062Z" transform="translate(-84.769 -127.773)" fill="#fff"/>
  <path id="Path_46998" data-name="Path 46998" d="M92.662,142.7a5.54,5.54,0,0,1,4.577-5.573,5.44,5.44,0,0,0-6.306,5.573,11.738,11.738,0,0,0,11.737,11.535c.29,0,.578-.011.862-.032A11.739,11.739,0,0,1,92.662,142.7Z" transform="translate(-84.769 -127.772)" fill="#e1eaf8"/>
  <g id="Group_47964" data-name="Group 47964" transform="translate(5.512 6.392)">
    <circle id="Ellipse_515" data-name="Ellipse 515" cx="0.643" cy="0.643" r="0.643" transform="translate(6.951 7.482)" fill="#969ba1"/>
    <path id="Path_46999" data-name="Path 46999" d="M102.153,95.606a5.807,5.807,0,0,0-3.365-1.289,3.1,3.1,0,0,0-3.169,1.831,4.332,4.332,0,0,0,1.175,4.522,1.96,1.96,0,0,1,.545,2.062,3.231,3.231,0,0,1-.224.569,6.423,6.423,0,0,0-3.642-1.272,6.083,6.083,0,0,0-6.051-5.459h-.009a5.979,5.979,0,0,0-4.284,1.815,6.284,6.284,0,0,0-1.788,4.481,12.319,12.319,0,0,0,2.183,6.812.643.643,0,1,0,1.058-.73,11.038,11.038,0,0,1-1.956-6.1,4.991,4.991,0,0,1,1.42-3.559,4.7,4.7,0,0,1,3.369-1.43h.007A4.8,4.8,0,0,1,90.1,106.63a.643.643,0,0,0,.72,1.065,6.08,6.08,0,0,0,2.644-4.378,4.441,4.441,0,0,1,4.479,3.956.643.643,0,0,0,.82.577c1.559-.451,2.524-2.226,3.058-3.636a1.432,1.432,0,0,1,2.736.819c-.009.043-.019.086-.029.13a10.628,10.628,0,0,1-3.342,5.555l-.324.288a10.774,10.774,0,0,1-6.168,2.7c-.323.028-.651.042-.976.042a11.075,11.075,0,0,1-7.4-2.826.643.643,0,1,0-.858.958,12.36,12.36,0,0,0,8.256,3.154c.362,0,.728-.016,1.088-.047a12.069,12.069,0,0,0,6.91-3.018l.324-.288a11.907,11.907,0,0,0,3.741-6.226c.011-.048.022-.1.033-.145a2.717,2.717,0,0,0-5.194-1.55,5.931,5.931,0,0,1-1.567,2.5,5.975,5.975,0,0,0-.753-1.674c-.073-.111-.153-.224-.24-.337A3.489,3.489,0,0,0,97.7,99.76a3.075,3.075,0,0,1-.9-3.121A1.978,1.978,0,0,1,98.788,95.6a4.644,4.644,0,0,1,2.647,1.071c1.339.9,3.078,1.741,5.461-.291a11.576,11.576,0,0,0-.745-1.053C104.466,96.832,103.426,96.463,102.153,95.606Z" transform="translate(-81.34 -94.317)" fill="#969ba1"/>
  </g>
  <path id="Path_47000" data-name="Path 47000" d="M17.349,0a17.349,17.349,0,1,0,6.075,33.605.643.643,0,1,0-.45-1.2A16.068,16.068,0,1,1,30.088,7.576a11.567,11.567,0,0,1,.745,1.053A16.056,16.056,0,0,1,31.2,25.494a16.158,16.158,0,0,1-5.817,5.77.643.643,0,0,0,.644,1.113A17.351,17.351,0,0,0,17.349,0Z" fill="#434c54"/>
</svg>
