<svg xmlns="http://www.w3.org/2000/svg" width="19.39" height="17.618" viewBox="0 0 19.39 17.618">
  <path id="referral-2-svgrepo-com" d="M4.508,19.537a3.508,3.508,0,0,0,3.383-2.631H13.4a3.545,3.545,0,1,0,2.446-4.241L13.115,7.994a3.508,3.508,0,1,0-4.937,0L5.453,12.667a3.473,3.473,0,0,0-.945-.146,3.508,3.508,0,0,0,0,7.015Zm12.276-5.261a1.754,1.754,0,1,1-1.754,1.754A1.754,1.754,0,0,1,16.784,14.276ZM10.646,3.753A1.754,1.754,0,1,1,8.892,5.507,1.754,1.754,0,0,1,10.646,3.753ZM9.7,8.869a3.473,3.473,0,0,0,.945.146,3.428,3.428,0,0,0,.949-.147l2.729,4.668a3.508,3.508,0,0,0-.922,1.618H7.891a3.5,3.5,0,0,0-.915-1.612ZM4.508,14.276a1.754,1.754,0,1,1-1.754,1.754,1.754,1.754,0,0,1,1.754-1.754Z" transform="translate(-1 -1.994)" fill="#94afa7"/>
</svg>
