<svg xmlns="http://www.w3.org/2000/svg" width="15.792" height="15.792" viewBox="0 0 15.792 15.792">
  <path id="smile-beam-svgrepo-com" d="M7.9,15.792a7.9,7.9,0,1,1,7.9-7.9A7.9,7.9,0,0,1,7.9,15.792Zm0-1.316A6.58,6.58,0,1,0,1.316,7.9,6.58,6.58,0,0,0,7.9,14.476Zm-3.914-4.4A.658.658,0,1,1,5.23,9.662a2.087,2.087,0,0,0,.5.73,2.915,2.915,0,0,0,2.167.794,2.915,2.915,0,0,0,2.167-.794,2.087,2.087,0,0,0,.5-.73.658.658,0,1,1,1.249.416,3.328,3.328,0,0,1-.817,1.244A4.221,4.221,0,0,1,7.9,12.5a4.221,4.221,0,0,1-3.1-1.18A3.328,3.328,0,0,1,3.982,10.078ZM4.971,6.47a.658.658,0,0,1-.73-1.1L4.5,5.2a1.974,1.974,0,0,1,2.19,0l.257.171a.658.658,0,1,1-.73,1.1L5.958,6.3a.658.658,0,0,0-.73,0Zm4.606,0a.658.658,0,1,1-.73-1.1L9.1,5.2a1.974,1.974,0,0,1,2.19,0l.257.171a.658.658,0,1,1-.73,1.1L10.564,6.3a.658.658,0,0,0-.73,0Z" fill="#758ca3" fill-rule="evenodd"/>
</svg>
