<svg xmlns="http://www.w3.org/2000/svg" width="88.718" height="88.898" viewBox="0 0 88.718 88.898">
  <g id="trading_12304587" transform="translate(-4.511 -3.999)">
    <g id="Group_50806" data-name="Group 50806" transform="translate(16.753 5.234)">
      <rect id="Rectangle_22645" data-name="Rectangle 22645" width="43.258" height="37.438" rx="18.719" transform="translate(0 2.712)" fill="#b6dbff"/>
      <rect id="Rectangle_22646" data-name="Rectangle 22646" width="40.811" height="37.438" rx="18.719" transform="translate(0 2.712)" fill="#e3f1ff"/>
      <path id="Path_52030" data-name="Path 52030" d="M77.225,26.376h36.644a3.317,3.317,0,0,1,3.307,3.307v3.969H73.918V29.683A3.317,3.317,0,0,1,77.225,26.376Z" transform="translate(-73.918 -23.664)" fill="#e8333c" fill-rule="evenodd"/>
      <path id="Path_52031" data-name="Path 52031" d="M77.225,26.376h34.2a3.317,3.317,0,0,1,3.307,3.307v3.969H73.918V29.683A3.317,3.317,0,0,1,77.225,26.376Z" transform="translate(-73.918 -23.664)" fill="#fb545c" fill-rule="evenodd"/>
      <rect id="Rectangle_22647" data-name="Rectangle 22647" width="4.101" height="6.647" rx="2.05" transform="translate(7.739 0)" fill="#5d689e"/>
      <rect id="Rectangle_22648" data-name="Rectangle 22648" width="2.513" height="6.647" rx="1.257" transform="translate(7.739 0)" fill="#7986bf"/>
      <rect id="Rectangle_22649" data-name="Rectangle 22649" width="4.101" height="6.647" rx="2.05" transform="translate(19.579 0)" fill="#5d689e"/>
      <rect id="Rectangle_22650" data-name="Rectangle 22650" width="4.101" height="6.647" rx="2.05" transform="translate(31.419 0)" fill="#5d689e"/>
      <g id="Group_50805" data-name="Group 50805" transform="translate(6.88 16.025)">
        <path id="Path_52032" data-name="Path 52032" d="M112.921,101.851H119.6v6.677h-6.677Z" transform="translate(-112.921 -101.851)" fill="#6fbffc"/>
        <path id="Path_52033" data-name="Path 52033" d="M177.616,101.851h6.677v6.677h-6.677Z" transform="translate(-166.205 -101.851)" fill="#6fbffc"/>
        <path id="Path_52034" data-name="Path 52034" d="M242.312,101.851h6.677v6.677h-6.677Z" transform="translate(-219.489 -101.851)" fill="#6fbffc"/>
        <path id="Path_52035" data-name="Path 52035" d="M112.921,166.546H119.6v6.677h-6.677Z" transform="translate(-112.921 -155.135)" fill="#6fbffc"/>
        <path id="Path_52036" data-name="Path 52036" d="M177.616,166.546h6.677v6.677h-6.677Z" transform="translate(-166.205 -155.135)" fill="#6fbffc"/>
        <path id="Path_52037" data-name="Path 52037" d="M242.312,166.546h6.677v6.677h-6.677Z" transform="translate(-219.489 -155.135)" fill="#6fbffc"/>
      </g>
      <rect id="Rectangle_22651" data-name="Rectangle 22651" width="2.513" height="6.647" rx="1.257" transform="translate(19.579 0)" fill="#7986bf"/>
      <rect id="Rectangle_22652" data-name="Rectangle 22652" width="2.513" height="6.647" rx="1.257" transform="translate(31.419 0)" fill="#7986bf"/>
      <path id="Path_52038" data-name="Path 52038" d="M141.857,101.851h1.573v6.677h-1.573Z" transform="translate(-129.874 -85.826)" fill="#4eb1fc"/>
      <path id="Path_52039" data-name="Path 52039" d="M206.552,101.851h1.573v6.677h-1.573Z" transform="translate(-183.157 -85.826)" fill="#4eb1fc"/>
      <path id="Path_52040" data-name="Path 52040" d="M271.247,101.851h1.573v6.677h-1.573Z" transform="translate(-236.441 -85.826)" fill="#4eb1fc"/>
      <path id="Path_52041" data-name="Path 52041" d="M141.857,166.546h1.573v6.677h-1.573Z" transform="translate(-129.874 -139.11)" fill="#4eb1fc"/>
      <path id="Path_52042" data-name="Path 52042" d="M206.552,166.546h1.573v6.677h-1.573Z" transform="translate(-183.157 -139.11)" fill="#4eb1fc"/>
      <path id="Path_52043" data-name="Path 52043" d="M271.248,166.546h1.573v6.677h-1.573Z" transform="translate(-236.442 -139.11)" fill="#4eb1fc"/>
    </g>
    <g id="Group_50807" data-name="Group 50807" transform="translate(4.511 3.999)">
      <path id="Path_52044" data-name="Path 52044" d="M171.258,221.915a1.234,1.234,0,0,1-1.185-.889l-4.3-14.808-1.992,6.71a1.234,1.234,0,0,1-2.335.1L156.5,200.308l-4.035,11.563a1.235,1.235,0,0,1-2.159.326l-3-4.051-7.34,12.512a1.234,1.234,0,1,1-2.128-1.25l8.283-14.124a1.236,1.236,0,0,1,2.058-.11l2.72,3.677,4.371-12.519a1.235,1.235,0,0,1,2.316-.041l4.848,12.474,2.159-7.279a1.239,1.239,0,0,1,1.184-.884h0a1.24,1.24,0,0,1,1.184.891l3.966,13.651,4.951-29.548a1.235,1.235,0,0,1,2.346-.3l6.473,14.52,13.587-23.533-1.622.74a1.234,1.234,0,1,1-1.027-2.245l4.99-2.279a1.234,1.234,0,0,1,1.743,1.005l.523,5.461a1.235,1.235,0,1,1-2.46.235l-.139-1.455-14.667,25.4a1.233,1.233,0,0,1-2.2-.115l-5.793-12.988-5.168,30.84a1.233,1.233,0,0,1-1.144,1.029c-.025,0-.049,0-.072,0Z" transform="translate(-114.184 -142.686)" fill="#909cd1" fill-rule="evenodd"/>
      <path id="Path_52045" data-name="Path 52045" d="M48.444,220.495a43.418,43.418,0,0,1-41.165-57.12l-.845.568a1.235,1.235,0,1,1-1.377-2.05l4.108-2.761a1.235,1.235,0,0,1,1.881.709l1.265,4.787a1.234,1.234,0,1,1-2.386.629l-.3-1.12a40.919,40.919,0,1,0,79.729,12.973,1.235,1.235,0,0,1,2.469,0A43.384,43.384,0,0,1,48.444,220.5Z" transform="translate(-4.511 -131.597)" fill="#ff8748" fill-rule="evenodd"/>
      <path id="Path_52046" data-name="Path 52046" d="M398.073,11.517a1.235,1.235,0,0,1-.716-2.242l.4-.282h-9.9a1.235,1.235,0,1,1,0-2.469h9.9l-.4-.285a1.234,1.234,0,1,1,1.432-2.011l3.544,2.522a1.237,1.237,0,0,1,0,2.012l-3.544,2.524a1.231,1.231,0,0,1-.716.229Z" transform="translate(-319.218 -3.999)" fill="#2dd62d" fill-rule="evenodd"/>
      <path id="Path_52047" data-name="Path 52047" d="M347.454,182.2a1.233,1.233,0,0,1-.714-.227l-3.545-2.524a1.235,1.235,0,0,1,0-2.012l3.545-2.524a1.235,1.235,0,0,1,1.433,2.012l-.4.282h9.9a1.235,1.235,0,0,1,0,2.469h-9.9l.4.284a1.235,1.235,0,0,1-.718,2.24Z" transform="translate(-283.029 -144.577)" fill="#4eb1fc" fill-rule="evenodd"/>
    </g>
    <g id="Group_50808" data-name="Group 50808" transform="translate(63.565 10.214)">
      <circle id="Ellipse_663" data-name="Ellipse 663" cx="10.452" cy="10.452" r="10.452" transform="translate(0 4.808) rotate(-13.3)" fill="#f9ac00"/>
      <path id="Path_52048" data-name="Path 52048" d="M361.542,72.318a10.452,10.452,0,1,1,10.126-10.447A10.452,10.452,0,0,1,361.542,72.318Z" transform="translate(-349.281 -49.274)" fill="#fcdb35" fill-rule="evenodd"/>
      <circle id="Ellipse_664" data-name="Ellipse 664" cx="8.339" cy="8.339" r="8.339" transform="translate(2.542 6.378) rotate(-13.3)" fill="#f19a00"/>
      <path id="Path_52049" data-name="Path 52049" d="M377.281,63.472a8.339,8.339,0,1,1-7.8,8.322A8.339,8.339,0,0,1,377.281,63.472Z" transform="translate(-364.157 -59.197)" fill="#f9ac00" fill-rule="evenodd"/>
    </g>
    <path id="Path_52050" data-name="Path 52050" d="M390.749,83.661a1.233,1.233,0,0,1-1.235-1.234v-.7a4.219,4.219,0,0,1-2.879-1.909,1.235,1.235,0,0,1,2.168-1.185c.4.724,2.324,1.03,3.33.53a.642.642,0,0,0,.415-.525.754.754,0,0,0-.443-.632,6.187,6.187,0,0,0-1.7-.568c-.267-.063-.542-.128-.822-.207a4.2,4.2,0,0,1-2.595-1.7,2.89,2.89,0,0,1,.413-3.577,4.019,4.019,0,0,1,2.108-1.1v-.673a1.235,1.235,0,1,1,2.47,0v.684a3.893,3.893,0,0,1,2.7,1.827,1.235,1.235,0,0,1-2.175,1.171,1.815,1.815,0,0,0-1.3-.628,2.6,2.6,0,0,0-2.018.424c-.271.283-.143.491-.1.559a1.909,1.909,0,0,0,1.164.627c.236.065.476.123.73.184a8.194,8.194,0,0,1,2.374.84,3.179,3.179,0,0,1,1.66,2.846,3.079,3.079,0,0,1-1.782,2.653,4.738,4.738,0,0,1-1.25.4v.653a1.234,1.234,0,0,1-1.235,1.234Z" transform="translate(-314.599 -53.494)" fill="#ffeb87" fill-rule="evenodd"/>
  </g>
</svg>
